<svg width="235" height="150" viewBox="0 0 235 150" fill="none" xmlns="http://www.w3.org/2000/svg">
<path d="M120.742 38.4246H17.5938V84.5297V86.692V105.574L36.3829 86.692H120.742V38.4246Z" fill="#A787FF"/>
<path d="M39.375 51.5625C59.1439 52.1073 78.9127 52.1073 98.6816 51.6403" stroke="white" stroke-miterlimit="10"/>
<path d="M40.6973 61.7193C55.6796 60.902 70.6619 60.4351 85.6442 60.2405" stroke="white" stroke-miterlimit="10"/>
<path d="M40.0371 72.1874C47.431 71.915 54.7859 71.6037 62.1798 71.3313" stroke="white" stroke-miterlimit="10"/>
<path d="M138.75 30H186.562V51.8854V52.9119V61.875L177.853 52.9119H138.75V30Z" fill="#41CADD"/>
<path d="M176.017 37.6898C172.514 37.7785 168.993 37.8495 165.489 37.8672C161.986 37.885 158.5 37.885 154.996 37.8318C153.015 37.814 151.033 37.7785 149.051 37.7253C148.715 37.7253 148.715 37.1929 149.051 37.1929C152.554 37.2816 156.076 37.3349 159.579 37.3349C163.083 37.3526 166.569 37.3349 170.072 37.2816C172.054 37.2461 174.036 37.2107 176.017 37.1574C176.354 37.1397 176.354 37.672 176.017 37.6898Z" fill="white"/>
<path d="M175.416 42.3212C170.107 42.0373 164.781 41.8421 159.473 41.7179C157.969 41.6824 156.483 41.6646 154.979 41.6469C154.642 41.6469 154.642 41.1145 154.979 41.1145C160.305 41.1855 165.613 41.3275 170.921 41.5581C172.425 41.6291 173.912 41.7001 175.416 41.7888C175.752 41.8066 175.752 42.339 175.416 42.3212Z" fill="white"/>
<path d="M175.717 47.0773C172.355 46.953 169.01 46.8111 165.648 46.6869C165.312 46.6691 165.312 46.1367 165.648 46.1545C169.01 46.2787 172.355 46.4207 175.717 46.5449C176.053 46.5626 176.053 47.095 175.717 47.0773Z" fill="white"/>
<path d="M91.9487 76.3984C91.6729 86.6929 91.3971 97.0181 91.152 107.313C91.0907 110.232 90.9988 113.151 90.9375 116.071C90.9375 116.316 91.152 116.532 91.3971 116.532C97.6785 116.286 103.929 116.163 110.211 116.132C116.492 116.101 122.804 116.163 129.085 116.224C135.367 116.286 141.679 116.347 147.96 116.316C151.086 116.316 154.242 116.286 157.367 116.224C158.133 116.224 158.899 116.193 159.665 116.193C160.125 116.193 160.615 116.101 161.044 116.286C161.841 116.624 162.484 117.361 163.066 117.976C164.353 119.389 165.456 120.987 166.621 122.493C168.428 124.798 170.144 127.195 172.075 129.407C172.565 129.96 173.055 130.514 173.545 131.067C173.791 131.313 174.22 131.19 174.311 130.852C174.924 128.362 175.016 125.72 175.139 123.2C175.323 119.328 175.384 115.456 175.384 111.553C175.384 107.19 175.353 102.795 175.261 98.4317C175.169 94.3754 175.078 90.2883 174.924 86.232C174.832 83.3434 174.71 80.424 174.587 77.5354C174.587 77.2896 174.557 77.0438 174.557 76.8287C174.557 76.5828 174.342 76.3677 174.097 76.3677C164.323 76.7672 154.548 76.7672 144.743 76.8594C134.203 76.9516 123.662 77.013 113.122 76.7672C107.177 76.6443 101.202 76.4292 95.2579 76.1526C94.6757 76.1219 94.6757 77.0438 95.2579 77.0745C105.86 77.5662 116.461 77.812 127.094 77.8735C137.205 77.9042 147.317 77.7813 157.428 77.6891C162.974 77.6276 168.52 77.5354 174.066 77.2896C173.913 77.136 173.76 76.9823 173.607 76.8287C173.729 79.5329 173.821 82.2371 173.944 84.9413C174.066 88.9055 174.189 92.8389 174.281 96.803C174.373 101.167 174.434 105.53 174.434 109.894C174.434 113.858 174.403 117.822 174.25 121.786C174.128 124.521 174.036 127.348 173.515 129.991C173.484 130.206 173.423 130.421 173.362 130.636C173.607 130.575 173.883 130.514 174.128 130.421C170.604 126.672 167.724 122.401 164.537 118.375C163.924 117.607 163.281 116.839 162.515 116.224C161.871 115.702 161.197 115.272 160.339 115.272C157.183 115.333 153.997 115.395 150.841 115.395C144.467 115.425 138.094 115.395 131.721 115.333C125.378 115.272 119.035 115.21 112.693 115.21C106.35 115.21 100.038 115.302 93.6952 115.517C92.8985 115.548 92.1325 115.579 91.3358 115.61C91.489 115.763 91.6422 115.917 91.7954 116.071C92.0712 105.776 92.347 95.4509 92.5921 85.1564C92.6534 82.2371 92.7453 79.3178 92.8066 76.3984C92.8985 75.7839 91.9793 75.7839 91.9487 76.3984Z" fill="#414168"/>
<path d="M156.477 85.7713C148.419 86.2015 140.36 86.3551 132.271 86.2629C129.973 86.2322 127.705 86.2015 125.407 86.14C124.825 86.1093 124.825 87.0312 125.407 87.0619C133.466 87.3077 141.555 87.277 149.614 87.0004C151.881 86.9083 154.179 86.8161 156.447 86.6931C157.059 86.6624 157.059 85.7405 156.477 85.7713Z" fill="#414168"/>
<path d="M154.915 94.6521C149.032 94.7443 143.119 94.8365 137.236 94.9287C134.294 94.9594 131.352 95.0209 128.442 95.0516C125.561 95.0823 122.681 95.113 119.801 95.236C116.645 95.3896 113.489 95.7276 110.425 96.4959C109.843 96.6495 110.088 97.5407 110.67 97.387C116.155 96.0042 121.823 96.0657 127.43 95.9735C133.313 95.8813 139.166 95.7891 145.049 95.6969C148.328 95.6355 151.637 95.6047 154.915 95.5433C155.498 95.574 155.498 94.6521 154.915 94.6521Z" fill="#414168"/>
<path d="M154.915 103.441C149.247 103.441 143.578 103.441 137.909 103.441C136.316 103.441 134.692 103.441 133.099 103.441C132.517 103.441 132.517 104.363 133.099 104.363C138.767 104.363 144.436 104.363 150.104 104.363C151.698 104.363 153.322 104.363 154.915 104.363C155.497 104.363 155.497 103.441 154.915 103.441Z" fill="#414168"/>
<path d="M202.025 90.329L194.41 88.125L192.188 95.7582L199.802 97.9621L202.025 90.329Z" fill="#F5B82E"/>
<path d="M83.6413 21.7689C81.3085 20.2482 80.7094 17.0335 82.303 14.5888L90.7509 20.0959C89.1572 22.5406 85.9741 23.2896 83.6413 21.7689Z" fill="#F5B82E"/>
<path d="M57.1048 26.4225C56.4428 27.569 54.9854 27.961 53.8518 27.3065C52.7182 26.652 52.329 25.1938 52.9909 24.0473C53.6528 22.9008 55.1102 22.5088 56.2439 23.1633C57.3775 23.8178 57.7667 25.276 57.1048 26.4225Z" stroke="#414168"/>
<path d="M46.0698 106.781C46.9866 107.311 48.1614 106.992 48.6938 106.07C49.2262 105.148 48.9146 103.971 47.9979 103.442C47.0811 102.912 45.9063 103.231 45.3739 104.153C44.8415 105.075 45.153 106.252 46.0698 106.781Z" fill="#31C587"/>
<path d="M167.717 9.6761L163.438 8.4375L162.188 12.7272L166.468 13.9658L167.717 9.6761Z" fill="#F685A1"/>
<line y1="-0.5" x2="14.7476" y2="-0.5" transform="matrix(-0.707107 0.707106 -0.707107 -0.707106 39.9395 127.809)" stroke="#414168"/>
<line y1="-0.5" x2="11.8595" y2="-0.5" transform="matrix(0.413154 -0.910661 0.910661 0.413155 125.6 20.175)" stroke="#414168"/>
<line x1="22.455" y1="25.3709" x2="12.7718" y2="15.6876" stroke="#414168"/>
<line y1="-0.5" x2="11.1219" y2="-0.5" transform="matrix(0.803674 -0.59507 0.595071 0.803673 201.562 56.3059)" stroke="#414168"/>
<line x1="192.38" y1="124.226" x2="203.63" y2="128.913" stroke="#414168"/>
<path d="M75.5171 126.283L78.1173 136.312L68.1317 133.549L75.5171 126.283Z" fill="#F685A1"/>
</svg>
