<svg width="235" height="150" viewBox="0 0 235 150" fill="none" xmlns="http://www.w3.org/2000/svg">
<path d="M95.1479 46.5C99.29 46.5 102.648 49.8579 102.648 54V86.2675C102.648 90.4096 99.29 93.7675 95.1479 93.7675H22.1145C19.8528 93.7675 17.6845 94.6688 16.0892 96.2719L4.77213 107.645C3.19901 109.226 0.5 108.112 0.5 105.882V94.2675V92.1051V54C0.5 49.8579 3.85786 46.5 8 46.5H95.1479Z" stroke="#8D64FF"/>
<line x1="18.9062" y1="61.0762" x2="83.9062" y2="61.0762" stroke="#515873" stroke-linecap="round" stroke-linejoin="round"/>
<line x1="18.9062" y1="71.0762" x2="60.9062" y2="71.0762" stroke="#515873" stroke-linecap="round" stroke-linejoin="round"/>
<line x1="18.9062" y1="82.0762" x2="43.9062" y2="82.0762" stroke="#515873" stroke-linecap="round" stroke-linejoin="round"/>
<path d="M122.407 88.5C120.474 88.5 118.907 90.067 118.907 92V113.471C118.907 115.404 120.474 116.971 122.407 116.971H168.252C169.449 116.971 170.597 117.448 171.442 118.297L178.323 125.213C179.267 126.161 180.887 125.493 180.887 124.155V117.471V116.151V92C180.887 90.067 179.32 88.5 177.387 88.5H122.407Z" stroke="white"/>
<line x1="0.5" y1="-0.5" x2="39.798" y2="-0.5" transform="matrix(-1 0 0 1 170.146 97.5117)" stroke="#515873" stroke-linecap="round" stroke-linejoin="round"/>
<line x1="0.5" y1="-0.5" x2="25.7548" y2="-0.5" transform="matrix(-1 0 0 1 170.146 103.617)" stroke="#515873" stroke-linecap="round" stroke-linejoin="round"/>
<line x1="0.5" y1="-0.5" x2="15.375" y2="-0.5" transform="matrix(-1 0 0 1 170.146 110.334)" stroke="#515873" stroke-linecap="round" stroke-linejoin="round"/>
<path d="M118.406 62.2751C118.406 49.0561 118.406 35.8371 118.406 22.6181C118.459 22.4099 118.522 22.2033 118.565 21.9935C119.072 19.5909 120.49 18.0146 122.843 17.2941C123.23 17.1752 123.629 17.0975 124.024 17C137.243 17 150.462 17 163.681 17C163.863 17.0512 164.043 17.114 164.227 17.1504C166.748 17.6428 168.343 19.1415 169.056 21.5953C169.154 21.9323 169.218 22.2777 169.298 22.6197C169.298 40.0804 169.298 57.5394 169.298 75C169.113 74.886 168.903 74.7968 168.746 74.6513C164.661 70.8426 160.581 67.0289 156.5 63.2153C156.333 63.0599 156.165 62.9046 155.828 62.589C156.348 64.4612 156.806 66.1053 157.273 67.7824C157.039 67.8105 156.93 67.8353 156.822 67.8353C146.003 67.837 135.184 67.8584 124.365 67.8221C121.566 67.8122 119.327 65.9566 118.647 63.3095C118.562 62.9658 118.487 62.6188 118.406 62.2751ZM150.201 52.6202C150.753 53.3043 151.174 53.9223 151.698 54.4395C151.973 54.7105 152.429 54.9583 152.795 54.9484C155.859 54.8658 158.466 53.7108 160.504 51.4041C160.808 51.0604 161.014 50.4837 160.998 50.0244C160.796 44.4806 159.451 39.2162 156.993 34.2392C156.898 34.0475 156.779 33.8377 156.614 33.7154C154.382 32.0432 151.882 31.0568 149.088 30.87C148.848 30.8535 148.598 31.0105 148.354 31.0865C149.139 31.5409 149.899 31.7772 150.626 32.0845C151.36 32.3935 152.078 32.7438 152.774 33.1305C153.442 33.5006 154.071 33.9401 154.719 34.3499C147.349 31.2203 140.047 31.1014 132.708 34.3846C133.783 33.6675 134.862 32.9636 136.014 32.4134C137.171 31.8598 138.402 31.4583 139.6 30.9907C139.59 30.9213 139.58 30.8535 139.57 30.7841C139.317 30.7709 139.061 30.7213 138.811 30.7478C136.216 31.022 133.836 31.8846 131.728 33.4395C131.455 33.6411 131.22 33.9434 131.068 34.2491C128.582 39.2773 127.256 44.598 127.096 50.2045C127.088 50.5019 127.207 50.8654 127.394 51.0951C129.461 53.6232 132.131 54.9633 135.404 55.0558C135.629 55.0624 135.938 55.0046 136.07 54.8542C136.658 54.1801 137.199 53.463 137.765 52.7458C134.626 51.2422 133.915 50.758 133.033 49.4378C140.479 53.4183 147.782 53.5224 155.077 49.4873C153.838 51.0934 152.204 52.0419 150.201 52.6202Z" fill="#686F8C"/>
<path d="M141.556 44.646C141.533 46.4669 140.075 47.9094 138.291 47.8813C136.501 47.8516 135.06 46.3529 135.098 44.5617C135.135 42.7705 136.61 41.3859 138.446 41.4206C140.293 41.4536 141.579 42.7871 141.556 44.646Z" fill="#686F8C"/>
<path d="M152.13 44.6433C152.123 46.4245 150.768 47.877 149.142 47.8472C147.543 47.8158 146.229 46.3816 146.211 44.6482C146.195 42.8802 147.533 41.4277 149.18 41.4277C150.846 41.4277 152.136 42.8356 152.13 44.6433Z" fill="#686F8C"/>
</svg>
