<svg width="400" height="400" viewBox="0 0 400 400" fill="none" xmlns="http://www.w3.org/2000/svg">
<path d="M116.339 261.459L108.242 88.4048L224.408 82.9657L232.506 256.02L116.339 261.459Z" stroke="#414168"/>
<path d="M242.805 95.9248L127.504 117.479L159.503 288.761L274.803 267.208L242.805 95.9248Z" fill="#A787FF"/>
<path d="M254.977 167.17C260.284 164.675 267.024 161.33 269.731 156.446C273.871 158.676 279.338 158.941 283.69 157.03" stroke="#414168" stroke-miterlimit="10"/>
<path d="M339.998 289.439C328.003 265.866 315.849 241.498 314.044 215.165C312.93 198.812 315.955 182.407 316.061 166.055C316.061 163.772 316.008 161.436 315.053 159.366C313.779 156.552 311.019 154.694 308.471 152.995C302.58 149.119 296.689 145.244 290.798 141.368C286.445 138.501 281.828 135.103 276.945 133.139C275.884 132.714 274.769 132.342 273.708 132.661C272.752 132.926 272.009 133.723 271.266 134.466C268.931 136.855 266.33 138.926 263.677 140.996C258.157 145.297 252.637 149.65 247.17 153.95C245.047 155.596 242.128 156.87 240.589 159.153C238.36 162.498 240.536 164.303 244.145 163.772C250.196 162.817 255.822 160.215 261.394 157.667C263.623 156.658 265.693 155.437 267.816 154.216C269.409 153.313 272.328 150.871 274.185 151.03C275.831 151.19 278.59 153.42 279.917 154.375C281.987 155.862 283.898 157.508 285.756 159.207C289.099 162.18 292.496 165.206 295.84 168.179C291.859 168.922 279.917 179.487 278.431 183.522" stroke="#414168" stroke-miterlimit="10"/>
<path d="M332.337 179.695L237.629 162.398L236.409 169.083L331.117 186.38L332.337 179.695Z" fill="#41CADD"/>
<path d="M227.164 163.401L236.452 169.135L237.673 162.445L227.164 163.401Z" fill="#414168"/>
<path d="M269.621 161.383C271.638 163.507 272.965 166.692 274.557 169.188C275.247 166.427 277.476 162.02 277.848 160.799" stroke="#414168" stroke-miterlimit="10"/>
<path d="M264.9 176.196C263.732 174.497 261.928 173.382 260.336 172.161C258.531 170.781 256.674 169.559 254.657 168.551C252.374 167.436 249.933 166.586 247.385 166.374C245.581 166.215 242.609 165.896 241.919 168.073C241.176 170.25 243.67 174.338 244.944 175.93C246.43 177.735 248.394 179.063 250.145 180.549C251.525 181.77 253.383 183.098 254.391 184.637C255.506 186.336 256.355 188.088 257.735 189.628C258.69 190.69 259.805 191.645 260.495 192.92C261.291 194.353 261.928 195.84 262.671 197.273C263.414 198.76 263.945 200.299 265.378 201.202C265.272 197.91 265.643 194.778 265.643 191.539C265.749 188.672 265.855 185.752 265.908 182.885C265.962 180.602 266.333 178.426 265.059 176.408C265.006 176.355 264.953 176.249 264.9 176.196Z" fill="white"/>
<path d="M285.703 183.628C281.617 184.743 277.211 183.681 273.443 181.717C269.675 179.753 266.49 176.939 263.2 174.231C259.909 171.524 256.459 168.922 252.479 167.489C250.409 166.745 243.509 164.728 242.182 167.382C239.582 172.585 249.719 180.071 252.638 183.044C259.803 190.318 264.102 199.927 268.242 209.271C278.326 232.1 288.516 255.089 294.408 279.352" stroke="#414168" stroke-miterlimit="10"/>
<path d="M154.559 179.912C177.434 177.682 200.15 173.541 222.229 167.436" stroke="white" stroke-miterlimit="10"/>
<path d="M152.756 166.268C167.192 165.949 181.151 161.543 195.162 158.198C210.607 154.535 226.317 152.146 241.549 147.845" stroke="white" stroke-miterlimit="10"/>
<path d="M149.357 148.535C163.741 147.633 178.018 144.925 192.082 141.899C207.262 138.607 222.388 134.944 237.355 130.856" stroke="white" stroke-miterlimit="10"/>
<path d="M146.863 135.528C176.426 131.334 205.351 123.317 234.171 115.353" stroke="white" stroke-miterlimit="10"/>
<path d="M49.5422 99.2529C48.5704 100.936 46.4171 101.513 44.7325 100.54C43.048 99.5678 42.4707 97.4146 43.4426 95.7313C44.4145 94.048 46.5678 93.4713 48.2524 94.4438C49.9369 95.4164 50.5141 97.5696 49.5422 99.2529Z" stroke="#414168"/>
<path d="M262.234 45.0377C261.313 46.634 259.282 47.1813 257.702 46.2687C256.121 45.356 255.58 43.3239 256.501 41.7277C257.423 40.1314 259.453 39.5841 261.034 40.4967C262.615 41.4094 263.156 43.4414 262.234 45.0377Z" stroke="#414168"/>
<path d="M367.005 71.697C370.615 73.7816 375.242 72.5273 377.339 68.8954C379.436 65.2635 378.209 60.6294 374.598 58.5448C370.988 56.4602 366.361 57.7145 364.264 61.3464C362.167 64.9782 363.394 69.6124 367.005 71.697Z" fill="#31C587"/>
<path d="M289.952 352.229C292.134 353.489 294.93 352.731 296.197 350.536C297.464 348.341 296.723 345.541 294.541 344.281C292.359 343.021 289.563 343.779 288.295 345.974C287.028 348.169 287.77 350.969 289.952 352.229Z" fill="#144BC1"/>
<path d="M51.1925 220.644L31.6914 215L25.9994 234.548L45.5005 240.192L51.1925 220.644Z" fill="#F5B82E"/>
<path d="M178.729 14.6442L164.623 10.5615L160.506 24.7014L174.612 28.7842L178.729 14.6442Z" fill="#41CADD"/>
<path d="M107.624 349.577L95.4183 336.18L113.098 332.391L107.624 349.577Z" stroke="#414168"/>
<line x1="86.3791" y1="26.674" x2="98.6906" y2="40.9923" stroke="#414168"/>
<line x1="51.924" y1="140.506" x2="64.924" y2="138.506" stroke="#414168"/>
<line x1="306.575" y1="54.6413" x2="318.253" y2="35.7372" stroke="#414168"/>
<line x1="151.532" y1="346.824" x2="157.532" y2="330.824" stroke="#414168"/>
<line x1="40.7958" y1="305.582" x2="63.2277" y2="295.544" stroke="#414168"/>
<line x1="331.762" y1="123.221" x2="347.762" y2="114.56" stroke="#414168"/>
</svg>
