<svg width="400" height="400" viewBox="0 0 400 400" fill="none" xmlns="http://www.w3.org/2000/svg">
<path d="M136.279 168.5V101.22C136.279 97.9788 137.567 94.8707 139.858 92.5791C142.15 90.2874 145.258 89 148.499 89H191.268L234.037 131.769V157M185 211.197H160.5" stroke="white" stroke-linecap="round" stroke-linejoin="round"/>
<path d="M191.268 89V123.769C191.268 128.187 194.849 131.769 199.268 131.769H234.037" stroke="white" stroke-linecap="round" stroke-linejoin="round"/>
<path d="M124.529 156.68H88.3398C85.5975 156.68 82.9675 157.769 81.0284 159.708C79.0894 161.647 78 164.277 78 167.019V249.738C78 252.48 79.0894 255.11 81.0284 257.049C82.9675 258.988 85.5975 260.077 88.3398 260.077H150.378C153.121 260.077 155.751 258.988 157.69 257.049C159.629 255.11 160.718 252.48 160.718 249.738V192.869L124.529 156.68Z" stroke="#515873" stroke-linecap="round" stroke-linejoin="round"/>
<path d="M125 157V185.189C125 189.607 128.582 193.189 133 193.189H161.189" stroke="#515873" stroke-linecap="round" stroke-linejoin="round"/>
<path d="M307.824 225.5V203.059L261.765 157H200.353C196.281 157 192.376 158.618 189.497 161.497C186.618 164.376 185 168.281 185 172.353V295.177C185 299.249 186.618 303.154 189.497 306.033C192.376 308.912 196.281 310.53 200.353 310.53H292.471C296.543 310.53 300.448 308.912 303.327 306.033C306.206 303.154 307.824 299.249 307.824 295.177V253.5" stroke="#7950ED" stroke-linecap="round" stroke-linejoin="round"/>
<path d="M261.607 156.992V195.051C261.607 199.469 265.189 203.051 269.607 203.051H307.666" stroke="#7950ED" stroke-linecap="round" stroke-linejoin="round"/>
<path d="M268 241H204" stroke="#7950ED" stroke-linecap="round" stroke-linejoin="round"/>
<path d="M277 272H204" stroke="#7950ED" stroke-linecap="round" stroke-linejoin="round"/>
<path d="M242 187H223H204" stroke="#7950ED" stroke-linecap="round" stroke-linejoin="round"/>
<path d="M225 214H215H205" stroke="#7950ED" stroke-linecap="round" stroke-linejoin="round"/>
<path d="M337.625 195.971C339.448 194.147 341.921 193.123 344.5 193.123C345.777 193.123 347.041 193.375 348.221 193.863C349.4 194.352 350.472 195.068 351.375 195.971C352.278 196.874 352.994 197.945 353.483 199.125C353.971 200.305 354.223 201.569 354.223 202.846C354.223 204.123 353.971 205.387 353.483 206.566C352.994 207.746 352.278 208.818 351.375 209.721L294.083 267.012L275.75 271.596L280.333 253.262L337.625 195.971Z" stroke="white" stroke-linecap="round" stroke-linejoin="round"/>
</svg>
