<svg width="235" height="150" viewBox="0 0 235 150" fill="none" xmlns="http://www.w3.org/2000/svg">
<path d="M175.376 44.2001C171.634 47.0851 166.149 46.2445 163.125 42.3226L176.678 31.875C179.701 35.7969 179.118 41.3151 175.376 44.2001Z" fill="#F5B82E"/>
<path d="M39.1324 78.0489C38.7794 78.6604 38.0036 78.8676 37.4019 78.5202C36.8001 78.1728 36.5917 77.3973 36.9447 76.7858C37.2978 76.1744 38.0736 75.9671 38.6753 76.3145C39.277 76.662 39.4855 77.4374 39.1324 78.0489Z" stroke="#414168"/>
<path d="M19.9885 62.8655C22.2254 64.1569 25.0918 63.3799 26.3909 61.1298C27.69 58.8798 26.9297 56.0088 24.6928 54.7173C22.4559 53.4258 19.5895 54.2029 18.2904 56.453C16.9913 58.703 17.7516 61.574 19.9885 62.8655Z" fill="#31C587"/>
<path d="M196.779 96.8636L192.5 95.625L191.251 99.9147L195.53 101.153L196.779 96.8636Z" fill="#F685A1"/>
<path d="M61.7794 21.8636L57.5 20.625L56.2509 24.9147L60.5303 26.1533L61.7794 21.8636Z" fill="#F5B82E"/>
<line x1="36.0938" y1="110.979" x2="25.6657" y2="121.407" stroke="#414168"/>
<line x1="17.8125" y1="90.4375" x2="25.3125" y2="90.4375" stroke="#414168"/>
<line x1="29.955" y1="36.2867" x2="20.2718" y2="26.6034" stroke="#414168"/>
<line x1="150.512" y1="25.6953" x2="156.1" y2="16.6131" stroke="#414168"/>
<line y1="-0.5" x2="8.11743" y2="-0.5" transform="matrix(0.923939 0.38254 -0.382541 0.923938 186.562 126.562)" stroke="#414168"/>
<line x1="101.75" y1="120" x2="101.75" y2="133.125" stroke="#414168"/>
<path d="M197.537 69.548L203.688 63.4964L205.853 71.8489L197.537 69.548Z" stroke="#414168"/>
<path d="M73.6421 119.72L76.2423 129.749L66.2567 126.986L73.6421 119.72Z" fill="#F685A1"/>
<path d="M129.029 53.91C128.859 52.6058 128.631 51.3016 128.346 49.9974C128.062 48.4664 126.525 47.389 124.988 47.4457C124.476 47.4457 123.963 47.5591 123.451 47.6159C109.506 49.8273 95.5606 51.982 81.6152 54.1935C80.1353 54.4203 78.8262 54.2502 77.5739 53.3996C76.151 52.4357 74.6141 51.6418 73.1342 50.7345C72.1666 50.1108 71.1989 49.9407 70.0606 50.1108C64.9378 50.9614 59.8719 51.6985 54.7492 52.5491C52.4155 52.946 51.2202 54.5337 51.6186 56.8585C52.1309 60.0906 52.6431 63.3795 53.1554 66.6116C53.2693 67.3487 53.44 68.0858 53.5539 68.8797L53.0985 65.8744L129.029 53.91Z" fill="#7950ED"/>
<path d="M79.2246 24.3107L86.6811 71.9418L121.345 66.5549L115.824 31.1719L102.789 20.625L79.2246 24.3107Z" fill="#41CADD"/>
<path d="M87.457 34.83C90.8266 34.2848 94.1962 33.685 97.5114 33.0852" stroke="white" stroke-miterlimit="10" stroke-linecap="round" stroke-linejoin="round"/>
<path d="M88.7617 40.6099C95.6095 39.6829 102.403 38.5924 109.142 37.3928" stroke="white" stroke-miterlimit="10" stroke-linecap="round" stroke-linejoin="round"/>
<path d="M90.6641 47.5346C96.8597 46.3895 103.11 45.3535 109.36 44.5356" stroke="white" stroke-miterlimit="10" stroke-linecap="round" stroke-linejoin="round"/>
<path d="M91.8047 55.1139C98.4351 53.9143 105.066 52.7147 111.696 51.5151" stroke="white" stroke-miterlimit="10" stroke-linecap="round" stroke-linejoin="round"/>
<path d="M93 61.6026C99.7935 60.8392 106.533 59.5851 113.109 57.8948" stroke="white" stroke-miterlimit="10" stroke-linecap="round" stroke-linejoin="round"/>
<path d="M115.824 31.1719L102.789 20.625L104.724 32.9297L115.824 31.1719Z" fill="#414168"/>
<path d="M91.69 63.1528C98.8619 62.3023 105.977 61.0548 112.978 59.297C114.059 59.0135 113.604 57.3691 112.523 57.6526C105.635 59.3537 98.6911 60.6579 91.69 61.4517C90.6085 61.5651 90.6085 63.2662 91.69 63.1528Z" fill="white"/>
<path d="M129.028 53.9102L53.0977 65.8746L53.6099 68.8799L60.0988 109.99L136.086 98.0256L129.085 53.9102H129.028Z" fill="#A787FF"/>
<path d="M136.219 73.0413C140.683 73.4598 145.199 73.8784 149.663 74.297" stroke="#414168" stroke-miterlimit="10"/>
<path d="M135.912 80.9941C144.944 82.1452 153.975 83.1394 163.058 83.9765" stroke="#414168" stroke-miterlimit="10"/>
<path d="M136.014 90.6213C144.327 91.3015 152.64 92.191 160.902 93.2898" stroke="#414168" stroke-miterlimit="10"/>
<path d="M134.834 100.824C143.712 101.609 152.589 102.394 161.467 103.126" stroke="#414168" stroke-miterlimit="10"/>
<path d="M134.168 109.719C143.097 111.079 152.129 111.864 161.109 112.021" stroke="#414168" stroke-miterlimit="10"/>
<path d="M172.243 78.9536C170.601 75.5526 162.083 61.321 160.851 61.164C155.463 60.4838 148.741 59.699 143.353 59.0188C139.093 58.5479 134.885 57.92 130.626 57.4491C130.472 57.4491 130.318 57.3968 130.164 57.5014C129.959 57.6061 129.908 57.92 129.908 58.1816C129.087 69.8495 127.701 81.465 126.367 93.0806C125.803 98.4698 125.187 103.859 124.571 109.248C124.468 110.242 123.904 119.503 124.007 119.556C129.446 120.602 134.834 121.125 140.325 121.962C146.175 122.904 152.025 123.689 157.926 124.265C161.364 124.579 164.7 125.154 168.138 125.363C167.676 125.311 169.267 103.074 169.472 101.034C169.832 97.8419 170.242 94.6502 170.499 91.4586C170.807 88.2669 172.243 78.9536 172.243 78.9536Z" stroke="#414168" stroke-miterlimit="10"/>
<path d="M160.698 61.635C159.98 66.9196 159.467 72.2041 159.107 77.4886C159.107 77.6979 159.107 77.9072 159.21 78.0642C159.313 78.1688 159.467 78.1688 159.621 78.1688C163.726 78.4828 167.882 78.7444 171.988 79.0583" stroke="#414168" stroke-miterlimit="10"/>
</svg>
