<svg width="400" height="400" viewBox="0 0 400 400" fill="none" xmlns="http://www.w3.org/2000/svg">
<path d="M208.378 127.54C209.692 124.481 213.356 123.116 216.563 124.492L211.806 135.573C208.6 134.197 207.065 130.6 208.378 127.54Z" fill="#F5B82E"/>
<path d="M318.453 42.9516C315.831 40.3302 315.832 36.0789 318.455 33.456C321.078 30.8331 325.329 30.8324 327.951 33.4538C330.572 36.0751 330.571 40.3264 327.948 42.9493C325.325 45.5722 321.074 45.5729 318.453 42.9516Z" stroke="#414168"/>
<path d="M350.018 357.595C348.188 355.765 348.182 352.81 349.997 350.996C351.811 349.182 354.766 349.187 356.596 351.017C358.426 352.848 358.432 355.802 356.617 357.616C354.803 359.431 351.848 359.425 350.018 357.595Z" stroke="#414168"/>
<path d="M305.36 100.164L316.121 95.7991L311.761 85L301 89.3652L305.36 100.164Z" fill="#F685A1"/>
<path d="M234.277 301.921L239.898 299.641L237.621 294L232 296.28L234.277 301.921Z" fill="#FFBD70"/>
<path d="M48.9999 331.105L56.0039 343.538L68.4729 336.433L61.4688 324L48.9999 331.105Z" fill="#144BC1"/>
<path d="M172.377 319.813L156.874 333.942L152.287 313.481L172.377 319.813Z" fill="#F685A1"/>
<line y1="-0.5" x2="11.5207" y2="-0.5" transform="matrix(0.63756 -0.770401 0.770403 0.637557 374 86.8755)" stroke="#414168"/>
<line y1="-0.5" x2="11.5207" y2="-0.5" transform="matrix(0.63756 -0.770401 0.770403 0.637557 88 361.875)" stroke="#414168"/>
<line x1="282.852" y1="27.4632" x2="290.599" y2="8.50255" stroke="#414168"/>
<line x1="115.425" y1="28.1917" x2="105.561" y2="10.2408" stroke="#414168"/>
<line x1="277.636" y1="372.865" x2="271.274" y2="353.396" stroke="#414168"/>
<path d="M26.6235 127.702L42.6333 140.804L23.297 148.02L26.6235 127.702Z" stroke="#414168"/>
<line x1="48.8731" y1="62.4452" x2="41.6787" y2="56.3823" stroke="#414168"/>
<path d="M191.318 175.875C228.364 175.875 258.395 145.682 258.395 108.437C258.395 71.1927 228.364 41 191.318 41C154.272 41 124.24 71.1927 124.24 108.437C124.24 145.682 154.272 175.875 191.318 175.875Z" fill="#A787FF"/>
<path d="M171.802 215.683C171.519 219.427 171.614 223.171 172.038 226.915C172.085 227.246 172.132 227.578 172.321 227.815C172.651 228.147 173.169 228.147 173.641 228.147C190.328 227.294 206.967 226.393 223.654 225.54C223.937 225.54 224.267 225.493 224.455 225.256C224.644 225.019 224.597 224.735 224.55 224.45C223.984 219.901 223.371 215.399 222.806 210.849C205.883 212.508 188.866 213.598 171.897 214.072" stroke="#414168" stroke-miterlimit="10" stroke-linecap="round" stroke-linejoin="round"/>
<path d="M173.971 228.716C175.102 240.848 174.159 253.264 176.94 265.112C191.977 264.401 207.062 263.69 222.099 262.979C222.57 262.979 223.089 262.932 223.419 262.6C223.796 262.221 223.796 261.652 223.796 261.131C223.701 249.331 223.041 237.53 221.769 225.825" stroke="#414168" stroke-miterlimit="10" stroke-linecap="round" stroke-linejoin="round"/>
<path d="M191.93 235.161C196.502 235.208 201.122 235.161 205.694 235.019" stroke="#414168" stroke-miterlimit="10" stroke-linecap="round" stroke-linejoin="round"/>
<path d="M124.664 109.29C155.351 117.299 187.782 113.698 219.223 109.622C232.846 107.869 247.27 105.689 257.829 96.8739" stroke="#414168" stroke-miterlimit="10" stroke-linecap="round" stroke-linejoin="round"/>
<path d="M163.694 47.7295C157.048 59.9564 154.125 73.8419 152.569 87.68C147.761 130.379 155.398 174.405 174.347 212.887" stroke="#414168" stroke-miterlimit="10" stroke-linecap="round" stroke-linejoin="round"/>
<path d="M211.398 45.2652C219.223 56.7338 223.56 70.2876 226.483 83.8888C235.58 125.877 232.422 170.472 217.432 210.707" stroke="#414168" stroke-miterlimit="10" stroke-linecap="round" stroke-linejoin="round"/>
<path d="M300.535 254.07C326.803 254.07 348.097 232.661 348.097 206.252C348.097 179.843 326.803 158.435 300.535 158.435C274.267 158.435 252.973 179.843 252.973 206.252C252.973 232.661 274.267 254.07 300.535 254.07Z" fill="#41CADD"/>
<path d="M276.306 279.566C275.74 282.172 275.458 284.826 275.363 287.48C275.363 287.717 275.363 287.954 275.505 288.144C275.693 288.428 276.07 288.475 276.4 288.475C288.185 289.518 299.969 290.561 311.754 291.603C311.942 291.603 312.178 291.651 312.32 291.508C312.461 291.366 312.461 291.177 312.461 290.987C312.508 287.765 312.555 284.495 312.555 281.272C300.488 280.751 288.468 279.803 276.495 278.476" stroke="#414168" stroke-miterlimit="10" stroke-linecap="round" stroke-linejoin="round"/>
<path d="M276.494 288.902C276.117 297.527 274.184 306.152 274.986 314.73C285.639 315.725 296.245 316.72 306.898 317.716C307.228 317.763 307.605 317.763 307.841 317.573C308.124 317.337 308.218 316.957 308.265 316.578C309.349 308.285 310.056 299.944 310.292 291.603" stroke="#414168" stroke-miterlimit="10" stroke-linecap="round" stroke-linejoin="round"/>
<path d="M288.467 295.252C291.672 295.726 294.925 296.153 298.13 296.532" stroke="#414168" stroke-miterlimit="10" stroke-linecap="round" stroke-linejoin="round"/>
<path d="M253.68 200.186C274.42 208.859 297.518 209.57 320.003 209.854C329.76 209.996 340.084 209.901 348.333 204.736" stroke="#414168" stroke-miterlimit="10" stroke-linecap="round" stroke-linejoin="round"/>
<path d="M287.101 160.899C281.256 168.813 277.815 178.292 275.363 187.817C267.774 217.294 268.811 248.951 278.333 277.86" stroke="#414168" stroke-miterlimit="10" stroke-linecap="round" stroke-linejoin="round"/>
<path d="M320.852 163.932C325.236 172.747 326.933 182.699 327.64 192.509C329.903 222.886 323.256 253.833 308.832 280.608" stroke="#414168" stroke-miterlimit="10" stroke-linecap="round" stroke-linejoin="round"/>
<path d="M94.4876 253.21C112.399 253.21 126.919 238.612 126.919 220.605C126.919 202.598 112.399 188 94.4876 188C76.5765 188 62.0566 202.598 62.0566 220.605C62.0566 238.612 76.5765 253.21 94.4876 253.21Z" fill="#FFBD70"/>
<path d="M78.4133 270.745C78.0362 272.498 77.8477 274.346 77.8477 276.147C77.8477 276.289 77.8477 276.479 77.9419 276.621C78.0833 276.811 78.319 276.858 78.5547 276.858C86.6153 277.474 94.6288 278.138 102.689 278.754C102.831 278.754 102.972 278.754 103.067 278.659C103.161 278.564 103.161 278.422 103.161 278.28C103.161 276.052 103.161 273.872 103.161 271.645C94.9588 271.361 86.7567 270.792 78.5547 269.939" stroke="#414168" stroke-miterlimit="10" stroke-linecap="round" stroke-linejoin="round"/>
<path d="M78.6491 277.142C78.4134 283.019 77.1878 288.895 77.8006 294.772C85.0599 295.388 92.3191 296.004 99.5784 296.62C99.8141 296.62 100.05 296.667 100.238 296.525C100.427 296.383 100.474 296.099 100.521 295.862C101.228 290.222 101.652 284.535 101.747 278.801" stroke="#414168" stroke-miterlimit="10" stroke-linecap="round" stroke-linejoin="round"/>
<path d="M86.8027 281.36C89.0182 281.692 91.1866 281.929 93.4021 282.166" stroke="#414168" stroke-miterlimit="10" stroke-linecap="round" stroke-linejoin="round"/>
<path d="M62.4805 216.814C76.669 222.595 92.4131 222.927 107.78 222.975C114.427 222.975 121.45 222.88 127.06 219.325" stroke="#414168" stroke-miterlimit="10" stroke-linecap="round" stroke-linejoin="round"/>
<path d="M85.0608 189.753C81.1012 195.203 78.8386 201.649 77.2359 208.189C72.2392 228.33 73.1349 249.893 79.8285 269.56" stroke="#414168" stroke-miterlimit="10" stroke-linecap="round" stroke-linejoin="round"/>
<path d="M108.063 191.602C111.08 197.573 112.305 204.35 112.871 211.079C114.615 231.742 110.279 252.926 100.615 271.266" stroke="#414168" stroke-miterlimit="10" stroke-linecap="round" stroke-linejoin="round"/>
<path d="M119 256.393C122.253 254.876 125.034 252.223 126.636 249" stroke="#414168" stroke-miterlimit="10" stroke-linecap="round" stroke-linejoin="round"/>
<path d="M54.373 210.226C57.2013 203.07 61.7266 196.625 67.4303 191.507" stroke="#414168" stroke-miterlimit="10" stroke-linecap="round" stroke-linejoin="round"/>
<path d="M49 206.34C49.8485 204.539 50.697 202.691 51.5455 200.89" stroke="#414168" stroke-miterlimit="10" stroke-linecap="round" stroke-linejoin="round"/>
<path d="M133.29 166.302C125.653 159.051 120.091 149.573 117.451 139.336" stroke="#414168" stroke-miterlimit="10" stroke-linecap="round" stroke-linejoin="round"/>
<path d="M112.832 154.407C111.701 151.089 111.135 147.582 111.182 144.123" stroke="#414168" stroke-miterlimit="10" stroke-linecap="round" stroke-linejoin="round"/>
<path d="M255.99 46.0234C261.788 53.5112 265.559 62.4681 266.926 71.8515" stroke="#414168" stroke-miterlimit="10" stroke-linecap="round" stroke-linejoin="round"/>
<path d="M272.205 64.7429C272.205 67.6337 272.205 70.5719 272.205 73.4628" stroke="#414168" stroke-miterlimit="10" stroke-linecap="round" stroke-linejoin="round"/>
<path d="M352.763 219.474C351.019 227.91 346.117 235.682 339.234 240.8" stroke="#414168" stroke-miterlimit="10" stroke-linecap="round" stroke-linejoin="round"/>
<path d="M349.511 237.72C347.484 240.658 344.797 243.17 341.639 244.876" stroke="#414168" stroke-miterlimit="10" stroke-linecap="round" stroke-linejoin="round"/>
<path d="M244.63 194.12C243.97 202.366 244.772 210.707 246.987 218.716" stroke="#414168" stroke-miterlimit="10" stroke-linecap="round" stroke-linejoin="round"/>
<path d="M69.7442 85.744C67.6765 87.8117 67.6757 91.1634 69.7425 93.2302C71.8093 95.297 75.161 95.2962 77.2287 93.2285C79.2964 91.1608 79.2972 87.8091 77.2304 85.7423C75.1636 83.6755 71.8119 83.6762 69.7442 85.744Z" fill="#41CADD"/>
<path d="M332.907 125.906C331.854 126.959 331.853 128.665 332.906 129.717C333.958 130.77 335.664 130.769 336.717 129.716C337.77 128.664 337.77 126.957 336.718 125.905C335.666 124.853 333.959 124.853 332.907 125.906Z" fill="#144BC1"/>
</svg>
