<svg width="400" height="400" viewBox="0 0 400 400" fill="none" xmlns="http://www.w3.org/2000/svg">
<path d="M257.895 108.437C257.895 145.408 228.085 175.375 191.318 175.375C154.55 175.375 124.74 145.408 124.74 108.437C124.74 71.4663 154.55 41.5 191.318 41.5C228.085 41.5 257.895 71.4663 257.895 108.437Z" stroke="#7950ED" stroke-linecap="round" stroke-linejoin="round"/>
<path d="M171.802 215.683C171.519 219.427 171.614 223.171 172.038 226.915C172.085 227.247 172.132 227.579 172.321 227.816C172.651 228.147 173.169 228.147 173.641 228.147C190.328 227.294 206.967 226.394 223.654 225.541C223.937 225.541 224.267 225.493 224.455 225.256C224.644 225.019 224.597 224.735 224.55 224.451C223.984 219.901 223.371 215.399 222.806 210.85C205.883 212.508 188.866 213.598 171.897 214.072" stroke="white" stroke-miterlimit="10" stroke-linecap="round" stroke-linejoin="round"/>
<path d="M173.971 228.715C175.102 240.847 174.159 253.264 176.94 265.111C191.977 264.4 207.062 263.69 222.099 262.979C222.57 262.979 223.089 262.931 223.419 262.6C223.796 262.22 223.796 261.652 223.796 261.13C223.701 249.33 223.041 237.53 221.769 225.824" stroke="white" stroke-miterlimit="10" stroke-linecap="round" stroke-linejoin="round"/>
<path d="M191.93 235.162C196.502 235.209 201.122 235.162 205.694 235.02" stroke="white" stroke-miterlimit="10" stroke-linecap="round" stroke-linejoin="round"/>
<path d="M124.664 109.289C155.351 117.299 187.782 113.697 219.223 109.621C232.846 107.868 247.27 105.688 257.829 96.873" stroke="#515873" stroke-miterlimit="10" stroke-linecap="round" stroke-linejoin="round"/>
<path d="M163.694 47.7305C157.048 59.9573 154.125 73.8429 152.569 87.681C147.761 130.38 155.398 174.406 174.347 212.888" stroke="#515873" stroke-miterlimit="10" stroke-linecap="round" stroke-linejoin="round"/>
<path d="M211.398 45.2656C219.223 56.7342 223.56 70.288 226.483 83.8892C235.58 125.878 232.422 170.472 217.432 210.707" stroke="#515873" stroke-miterlimit="10" stroke-linecap="round" stroke-linejoin="round"/>
<path d="M347.597 206.253C347.597 232.388 326.524 253.57 300.535 253.57C274.546 253.57 253.473 232.388 253.473 206.253C253.473 180.118 274.546 158.936 300.535 158.936C326.524 158.936 347.597 180.118 347.597 206.253Z" stroke="#7950ED" stroke-linecap="round" stroke-linejoin="round"/>
<path d="M276.306 279.567C275.74 282.173 275.458 284.827 275.363 287.481C275.363 287.718 275.363 287.955 275.505 288.144C275.693 288.429 276.07 288.476 276.4 288.476C288.185 289.519 299.969 290.561 311.754 291.604C311.942 291.604 312.178 291.651 312.32 291.509C312.461 291.367 312.461 291.177 312.461 290.988C312.508 287.765 312.555 284.495 312.555 281.273C300.488 280.751 288.468 279.804 276.495 278.477" stroke="white" stroke-miterlimit="10" stroke-linecap="round" stroke-linejoin="round"/>
<path d="M276.494 288.902C276.117 297.527 274.184 306.153 274.986 314.73C285.639 315.726 296.245 316.721 306.898 317.716C307.228 317.763 307.605 317.763 307.841 317.574C308.124 317.337 308.218 316.958 308.265 316.579C309.349 308.285 310.056 299.944 310.292 291.604" stroke="white" stroke-miterlimit="10" stroke-linecap="round" stroke-linejoin="round"/>
<path d="M288.467 295.254C291.672 295.728 294.925 296.154 298.13 296.533" stroke="white" stroke-miterlimit="10" stroke-linecap="round" stroke-linejoin="round"/>
<path d="M253.68 200.188C274.42 208.86 297.518 209.571 320.003 209.855C329.76 209.997 340.084 209.903 348.333 204.737" stroke="#515873" stroke-miterlimit="10" stroke-linecap="round" stroke-linejoin="round"/>
<path d="M287.101 160.9C281.256 168.815 277.815 178.293 275.363 187.818C267.774 217.296 268.811 248.953 278.333 277.861" stroke="#515873" stroke-miterlimit="10" stroke-linecap="round" stroke-linejoin="round"/>
<path d="M320.852 163.934C325.236 172.748 326.933 182.7 327.64 192.51C329.903 222.888 323.256 253.834 308.832 280.61" stroke="#515873" stroke-miterlimit="10" stroke-linecap="round" stroke-linejoin="round"/>
<path d="M126.419 220.605C126.419 238.339 112.12 252.71 94.4876 252.71C76.8551 252.71 62.5566 238.339 62.5566 220.605C62.5566 202.871 76.8551 188.5 94.4876 188.5C112.12 188.5 126.419 202.871 126.419 220.605Z" stroke="#7950ED" stroke-linecap="round" stroke-linejoin="round"/>
<path d="M78.4133 270.745C78.0362 272.499 77.8477 274.347 77.8477 276.148C77.8477 276.29 77.8477 276.479 77.9419 276.622C78.0833 276.811 78.319 276.859 78.5547 276.859C86.6153 277.475 94.6288 278.138 102.689 278.754C102.831 278.754 102.972 278.754 103.067 278.659C103.161 278.565 103.161 278.422 103.161 278.28C103.161 276.053 103.161 273.873 103.161 271.646C94.9588 271.361 86.7567 270.792 78.5547 269.939" stroke="white" stroke-miterlimit="10" stroke-linecap="round" stroke-linejoin="round"/>
<path d="M78.6491 277.143C78.4134 283.019 77.1878 288.896 77.8006 294.772C85.0599 295.388 92.3191 296.004 99.5784 296.62C99.8141 296.62 100.05 296.668 100.238 296.525C100.427 296.383 100.474 296.099 100.521 295.862C101.228 290.222 101.652 284.536 101.747 278.801" stroke="white" stroke-miterlimit="10" stroke-linecap="round" stroke-linejoin="round"/>
<path d="M86.8027 281.361C89.0182 281.693 91.1866 281.93 93.4021 282.167" stroke="white" stroke-miterlimit="10" stroke-linecap="round" stroke-linejoin="round"/>
<path d="M62.4805 216.814C76.669 222.596 92.4131 222.928 107.78 222.975C114.427 222.975 121.45 222.88 127.06 219.326" stroke="#515873" stroke-miterlimit="10" stroke-linecap="round" stroke-linejoin="round"/>
<path d="M85.0608 189.754C81.1012 195.204 78.8386 201.649 77.2359 208.189C72.2392 228.33 73.1349 249.893 79.8285 269.56" stroke="#515873" stroke-miterlimit="10" stroke-linecap="round" stroke-linejoin="round"/>
<path d="M108.063 191.602C111.08 197.573 112.305 204.35 112.871 211.079C114.615 231.742 110.279 252.925 100.615 271.266" stroke="#515873" stroke-miterlimit="10" stroke-linecap="round" stroke-linejoin="round"/>
<path d="M119 256.393C122.253 254.876 125.034 252.223 126.636 249" stroke="#515873" stroke-miterlimit="10" stroke-linecap="round" stroke-linejoin="round"/>
<path d="M54.373 210.227C57.2013 203.071 61.7266 196.626 67.4303 191.508" stroke="#515873" stroke-miterlimit="10" stroke-linecap="round" stroke-linejoin="round"/>
<path d="M133.29 166.301C125.653 159.051 120.091 149.572 117.451 139.336" stroke="#515873" stroke-miterlimit="10" stroke-linecap="round" stroke-linejoin="round"/>
<path d="M112.832 154.407C111.701 151.09 111.135 147.583 111.182 144.123" stroke="#515873" stroke-miterlimit="10" stroke-linecap="round" stroke-linejoin="round"/>
<path d="M255.99 46.0234C261.788 53.5112 265.559 62.4681 266.926 71.8515" stroke="#515873" stroke-miterlimit="10" stroke-linecap="round" stroke-linejoin="round"/>
<path d="M352.763 219.475C351.019 227.91 346.117 235.682 339.234 240.8" stroke="#515873" stroke-miterlimit="10" stroke-linecap="round" stroke-linejoin="round"/>
<path d="M349.511 237.721C347.484 240.659 344.797 243.171 341.639 244.877" stroke="#515873" stroke-miterlimit="10" stroke-linecap="round" stroke-linejoin="round"/>
</svg>
