<svg width="150" height="150" viewBox="0 0 150 150" fill="none" xmlns="http://www.w3.org/2000/svg">
<path d="M106.385 92C108.44 96.5239 110.778 100.475 113.271 106.056C116.081 112.348 117.944 117.168 119.815 122.442C123.69 133.211 122.312 129.025 126.499 139.665" stroke="white" stroke-miterlimit="10"/>
<path d="M51.0875 94.2539C47.9714 98.9819 45.701 104.108 42.6739 108.88C39.4687 114.005 35 120.999 35 120.999C35 120.999 30.9858 127.541 26 138.499" stroke="white" stroke-miterlimit="10"/>
<path d="M75.9543 23.4205C77.2418 20.8326 80.9338 20.8326 82.2214 23.4205L93.8215 46.7351C94.4793 48.0572 95.744 48.9725 97.2056 49.1841L123.079 52.93C125.957 53.3467 127.101 56.888 125.011 58.9097L106.303 77.0032C105.233 78.0385 104.744 79.5363 104.997 81.0037L109.405 106.523C109.898 109.378 106.906 111.562 104.337 110.221L81.1679 98.1342C79.8645 97.4543 78.3112 97.4538 77.0074 98.133L53.7915 110.228C51.2225 111.566 48.2325 109.383 48.7255 106.528L53.1341 81.0015C53.3873 79.5355 52.8995 78.039 51.831 77.0037L33.1541 58.9089C31.0665 56.8863 32.2113 53.3477 35.088 52.9313L60.9701 49.1841C62.4316 48.9725 63.6963 48.0572 64.3542 46.7351L75.9543 23.4205Z" fill="#2B292C" stroke="#F5B82E"/>
<path d="M115.549 81.8833C114.792 79.8065 115.282 77.5088 114.925 75.3437C114.569 73.1343 113.367 71.1901 112.21 69.2901C111.854 68.6715 111.453 68.0086 111.453 67.2575C111.453 66.5505 111.987 65.7551 112.7 65.7109C113.189 65.7109 113.59 66.0202 113.991 66.3296C115.46 67.4784 116.973 68.6715 118.131 70.1296C120.98 73.6646 122.226 76.846 123.517 81.1763C124.185 83.5182 124.541 85.9485 125.12 88.3346C126.277 93.1951 128.236 97.7905 130.017 102.474C136.516 119.354 136.799 120.475 144.5 137.001" stroke="white" stroke-miterlimit="10"/>
<path d="M43.6089 83.2076C44.4102 80.2913 42.8966 77.1982 43.6089 74.2819C44.0095 72.647 45.0334 71.2772 45.7902 69.819C46.5469 68.3609 47.0366 66.5492 46.3244 65.0469C42.7185 67.8306 39.5579 71.1446 36.9314 74.8563C35.863 76.3587 34.8391 77.9936 34.2604 79.7611C33.7262 81.2634 33.5036 82.81 33.1475 84.3123C32.3907 87.2728 31.0552 90.0124 29.7197 92.752C19.5254 113.652 18.564 116.071 6.5 136" stroke="white" stroke-miterlimit="10"/>
<path d="M46.3683 72.4258C45.6115 73.4421 44.7211 74.3258 43.6973 75.077" stroke="white" stroke-miterlimit="10"/>
<path d="M111 73C112.357 73.9851 113.714 74.9701 115 76" stroke="white" stroke-miterlimit="10"/>
</svg>
