<svg width="150" height="150" viewBox="0 0 150 150" fill="none" xmlns="http://www.w3.org/2000/svg">
<path d="M106.385 92C108.44 96.5239 110.778 100.475 113.271 106.056C116.081 112.348 117.944 117.168 119.815 122.442C123.69 133.211 122.312 129.025 126.499 139.665" stroke="#414168" stroke-miterlimit="10"/>
<path d="M51.0875 94.2548C47.9714 98.9827 45.701 104.108 42.6739 108.881C39.4687 114.006 35 121 35 121C35 121 30.9858 127.542 26 138.5" stroke="#414168" stroke-miterlimit="10"/>
<path d="M77.2972 19.5989C78.033 18.1201 80.1427 18.1201 80.8784 19.5989L94.736 47.4506C95.0283 48.0383 95.5904 48.445 96.24 48.5391L127.184 53.0191C128.828 53.2572 129.482 55.2807 128.287 56.436L105.89 78.0981C105.415 78.5582 105.197 79.2239 105.31 79.8761L110.585 110.421C110.867 112.052 109.157 113.3 107.689 112.534L80.0122 98.0953C79.433 97.793 78.7426 97.7928 78.1631 98.0947L50.4402 112.538C48.9722 113.302 47.2636 112.055 47.5453 110.424L52.8213 79.875C52.9338 79.2234 52.717 78.5583 52.2421 78.0982L29.8826 56.4355C28.6897 55.2797 29.3439 53.2577 30.9877 53.0197L61.9356 48.5391C62.5852 48.445 63.1473 48.0383 63.4397 47.4506L77.2972 19.5989Z" fill="#F5B82E"/>
<path d="M115.549 81.8824C114.792 79.8057 115.282 77.508 114.925 75.3428C114.569 73.1335 113.367 71.1892 112.21 69.2892C111.854 68.6706 111.453 68.0078 111.453 67.2566C111.453 66.5496 111.987 65.7543 112.7 65.7101C113.189 65.7101 113.59 66.0194 113.991 66.3287C115.46 67.4776 116.973 68.6706 118.131 70.1288C120.98 73.6637 122.226 76.8451 123.517 81.1755C124.185 83.5174 124.541 85.9476 125.12 88.3337C126.277 93.1943 128.236 97.7897 130.017 102.473C136.516 119.353 136.799 120.474 144.5 137" stroke="#414168" stroke-miterlimit="10"/>
<path d="M43.6089 83.2081C44.4102 80.2918 42.8966 77.1987 43.6089 74.2824C44.0095 72.6475 45.0334 71.2777 45.7902 69.8195C46.5469 68.3614 47.0366 66.5497 46.3244 65.0474C42.7185 67.8311 39.5579 71.1451 36.9314 74.8568C35.863 76.3592 34.8391 77.9941 34.2604 79.7616C33.7262 81.2639 33.5036 82.8105 33.1475 84.3128C32.3907 87.2733 31.0552 90.0129 29.7197 92.7525C19.5254 113.653 18.564 116.072 6.5 136" stroke="#414168" stroke-miterlimit="10"/>
<path d="M110.562 40.9214C112.877 38.8446 115.192 36.812 117.507 34.7352" stroke="#414168" stroke-miterlimit="10"/>
<path d="M106.066 31.0677C107.313 28.77 108.693 26.5165 110.251 24.3955" stroke="#414168" stroke-miterlimit="10"/>
<path d="M95.4271 28.1072C94.982 26.163 94.4033 24.263 93.6465 22.4513" stroke="#414168" stroke-miterlimit="10"/>
<path d="M51.7161 32.9288C51.845 30.2787 51.7518 27.6297 51.3125 25" stroke="#414168" stroke-miterlimit="10"/>
<path d="M46.3683 72.4265C45.6115 73.4428 44.7211 74.3265 43.6973 75.0777" stroke="#414168" stroke-miterlimit="10"/>
<path d="M111 73C112.357 73.9851 113.714 74.9701 115 76" stroke="#414168" stroke-miterlimit="10"/>
<path d="M135.223 21.1802C132.891 19.6594 132.291 16.4447 133.885 14L142.333 19.5072C140.739 21.9518 137.556 22.7009 135.223 21.1802Z" fill="#41CADD"/>
<path d="M11.9934 72.1297C11.3315 73.2762 9.87411 73.6682 8.74048 73.0137C7.60685 72.3592 7.21763 70.9011 7.87956 69.7546C8.54149 68.6081 9.9989 68.2161 11.1325 68.8706C12.2662 69.5251 12.6554 70.9832 11.9934 72.1297Z" stroke="#414168"/>
<path d="M54.6597 7.29784C55.5764 7.82714 56.7512 7.50866 57.2836 6.5865C57.8161 5.66433 57.5045 4.48768 56.5877 3.95838C55.6709 3.42908 54.4961 3.74757 53.9637 4.66973C53.4313 5.5919 53.7429 6.76854 54.6597 7.29784Z" fill="#31C587"/>
<line x1="46.8787" y1="39.3785" x2="42.8787" y2="38.3785" stroke="#414168"/>
<path d="M20.9546 26.5951L23.5548 36.6242L13.5692 33.8615L20.9546 26.5951Z" fill="#F685A1"/>
<path d="M141.501 60.3573L141.957 56.8564L144.761 59.002L141.501 60.3573Z" stroke="#414168" stroke-linecap="round" stroke-linejoin="round"/>
<rect x="139" y="75.9783" width="4" height="4" transform="rotate(-29.6402 139 75.9783)" fill="#A787FF"/>
<rect x="24.6818" y="5.16545" width="3" height="3" transform="rotate(-29.6402 24.6818 5.16545)" stroke="#414168" stroke-linejoin="round"/>
</svg>
