<svg width="235" height="150" viewBox="0 0 235 150" fill="none" xmlns="http://www.w3.org/2000/svg">
<g clip-path="url(#clip0)">
<path d="M73.125 93V113.875C73.125 118.293 69.5433 121.875 65.125 121.875H8C3.58172 121.875 0 118.293 0 113.875V40.8125C0 36.3942 3.58172 32.8125 8 32.8125H63.4375M73.125 77V86.5" stroke="#8D64FF"/>
<line x1="13.4375" y1="47.5" x2="53.4375" y2="47.5" stroke="#515873" stroke-linecap="round" stroke-linejoin="round"/>
<line x1="13.4375" y1="63.5" x2="55.4375" y2="63.5" stroke="#515873" stroke-linecap="round" stroke-linejoin="round"/>
<line x1="13.4375" y1="78.5" x2="61.4375" y2="78.5" stroke="#515873" stroke-linecap="round" stroke-linejoin="round"/>
<line x1="13.4375" y1="92.5" x2="61.4375" y2="92.5" stroke="#515873" stroke-linecap="round" stroke-linejoin="round"/>
<line x1="13.4375" y1="106.5" x2="61.4375" y2="106.5" stroke="#515873" stroke-linecap="round" stroke-linejoin="round"/>
<path fill-rule="evenodd" clip-rule="evenodd" d="M88.8892 33.0753C77.9365 26.4237 63.6654 29.9104 57.0137 40.8631C50.3621 51.8159 53.8489 66.087 64.8016 72.7386C75.7543 79.3902 90.0255 75.9035 96.6771 64.9508C103.329 53.9981 99.842 39.7269 88.8892 33.0753ZM55.7316 40.0845C62.8133 28.4237 78.007 24.7116 89.6679 31.7932C101.329 38.8748 105.041 54.0686 97.9592 65.7294C94.5722 71.3065 89.3296 75.0653 83.5054 76.6947C83.5409 76.7577 83.5677 76.8271 83.5841 76.9014L84.67 81.8389C84.759 82.2434 84.5032 82.6435 84.0986 82.7325C83.6941 82.8215 83.294 82.5656 83.205 82.1611L82.1191 77.2236C82.1058 77.1632 82.1002 77.1029 82.1016 77.0437C76.1272 78.3457 69.662 77.4453 64.023 74.0207C52.3622 66.9391 48.65 51.7453 55.7316 40.0845ZM91.6592 110.294C91.5454 109.896 91.1303 109.665 90.732 109.779C90.3337 109.893 90.1031 110.308 90.2169 110.706L92.2169 117.706C92.3307 118.104 92.7458 118.335 93.1441 118.221C93.5424 118.107 93.773 117.692 93.6592 117.294L91.6592 110.294Z" fill="#515873"/>
<path d="M165.551 83.996C156.595 84.1274 147.611 84.2324 138.653 84.3094C134.188 84.334 129.723 84.3857 125.259 84.4373C120.849 84.4874 116.491 84.4544 112.118 83.9056C107.773 83.356 103.422 82.6435 99.0784 82.1482C94.7345 81.6528 90.3141 81.35 85.9429 81.7793C82.8559 82.0887 78.7964 82.8619 78.1924 86.4936C77.7267 89.2517 79.1265 92.09 80.3492 94.4988C81.0475 95.8637 81.774 97.2548 82.5802 98.5621C83.3574 99.8159 84.5025 100.543 86.0049 100.389C87.9453 100.222 88.6269 98.273 88.6315 96.5884C88.6279 94.6322 88.0205 92.6397 87.3905 90.8109C87.0602 89.8427 86.7026 88.8752 86.291 87.9365C86.0848 87.4536 85.2974 87.6945 85.5036 88.1774C86.2986 90.0284 86.9584 91.9378 87.4273 93.8801C87.8036 95.4719 88.2516 97.6321 87.1158 99.0517C86.5869 99.6924 85.574 99.7226 84.8276 99.5004C84.247 99.3275 83.7961 98.9062 83.4795 98.3994C83.1067 97.84 82.8151 97.2509 82.4961 96.6627C82.091 95.9412 81.6859 95.2197 81.3073 94.4702C80.6968 93.2929 80.1137 92.1149 79.665 90.8512C79.2171 89.6148 78.8755 88.2665 79.0282 86.9577C79.4398 83.3046 83.7546 82.8227 86.7063 82.5716C95.0976 81.8865 103.479 83.6199 111.759 84.7042C113.794 84.9696 115.828 85.1806 117.858 85.2559C119.97 85.3287 122.079 85.3201 124.189 85.3115C128.435 85.2935 132.653 85.222 136.898 85.1769C145.445 85.1121 153.992 85.0473 162.536 84.9011C163.577 84.8972 164.645 84.8653 165.686 84.8614C166.095 84.7949 166.071 83.9805 165.551 83.996Z" fill="white"/>
<path d="M87.5133 92.1929C90.6119 94.1111 94.6781 94.4788 98.0885 93.0729C99.0627 92.6635 99.9797 92.1742 100.556 91.2876C100.844 90.8442 100.12 90.4583 99.8321 90.9016C99.2558 91.7882 98.0916 92.2577 97.1142 92.5586C96.1102 92.8874 95.0748 93.0813 94.0071 93.1131C91.8445 93.1777 89.7179 92.6162 87.9029 91.4749C87.456 91.1893 87.0664 91.9074 87.5133 92.1929Z" fill="white"/>
<path d="M78.9492 85.2486C77.3598 85.2417 75.714 85.1821 74.1955 85.7164C73.4629 85.9557 72.8172 86.3553 72.2295 86.8619C71.6153 87.3965 71.0341 88.1202 70.783 88.8885C70.3565 90.2054 70.8439 91.8482 71.7773 92.8257C72.6816 93.7497 74.1954 93.9762 75.4329 94.1295C77.0006 94.3272 78.5635 94.3621 80.1496 94.2605C80.6689 94.2178 80.6446 93.4034 80.1253 93.4461C78.9224 93.5363 77.6889 93.5188 76.4803 93.419C75.2991 93.3184 73.9803 93.1947 72.9222 92.6285C71.8915 92.0615 71.3558 90.6375 71.5142 89.5188C71.6026 88.8097 72.0768 88.1706 72.5823 87.6665C73.0605 87.1632 73.6514 86.7651 74.302 86.5284C75.7922 85.9677 77.438 86.0273 79.0274 86.0342C79.4944 86.0746 79.4701 85.2602 78.9492 85.2486Z" fill="white"/>
<path d="M76.1098 93.8661C74.6092 94.9976 73.8156 96.8689 74.5277 98.6952C74.8241 99.4471 75.3371 100.111 76.0087 100.58C76.764 101.101 77.7568 101.316 78.6651 101.452C80.8391 101.767 83.0806 101.592 85.2626 101.255C86.2996 101.115 87.3914 100.974 88.3672 100.619C89.479 100.233 90.4741 99.6052 91.383 98.8444C92.1848 98.1684 93.4551 96.6633 92.2223 95.7492C91.7455 95.383 91.0853 95.294 90.508 95.2297C89.7382 95.144 88.9717 95.1669 88.2052 95.1898C87.6851 95.2053 87.7094 96.0197 88.2295 96.0041C88.8044 95.987 89.4066 95.969 89.9823 95.979C90.4767 96.0186 91.0524 96.0286 91.5243 96.2319C92.6065 96.6887 91.1381 97.9823 90.6832 98.3491C89.9072 98.97 89.0192 99.5127 88.0699 99.8399C87.202 100.137 86.2737 100.247 85.3735 100.382C83.4911 100.656 81.5789 100.849 79.6835 100.688C78.2004 100.569 76.4652 100.268 75.63 98.9069C74.6531 97.3873 75.2011 95.5505 76.5938 94.4765C76.9698 94.2208 76.5381 93.5272 76.1098 93.8661Z" fill="white"/>
<path d="M90.4737 111.56C99.2219 111.815 107.971 111.201 116.615 109.775C120.95 109.048 125.222 108.051 129.558 107.378C133.921 106.677 138.318 106.193 142.747 105.871C147.696 105.506 152.651 105.385 157.615 105.509C158.135 105.52 158.111 104.706 157.59 104.694C148.707 104.497 139.791 105.035 131.007 106.357C128.852 106.666 126.698 107.029 124.546 107.446C122.394 107.863 120.243 108.335 118.063 108.726C113.757 109.507 109.444 110.043 105.098 110.39C100.232 110.78 95.3585 110.898 90.4776 110.772C89.9285 110.734 89.9528 111.548 90.4737 111.56Z" fill="white"/>
<path d="M76.8624 100.717C76.2573 102.474 75.7496 104.745 77.5139 106.023C78.2427 106.572 79.1808 106.789 80.06 106.871C81.2146 107 82.3668 107.047 83.544 107.012C85.7888 106.945 88.1068 106.577 90.2218 105.834C91.225 105.479 92.1976 105.015 93.0848 104.445C93.8109 103.989 94.5016 103.261 94.2277 102.346C93.9828 101.484 93.0367 100.996 92.2355 100.775C91.6557 100.629 91.0229 100.54 90.4174 100.449C89.7289 100.334 89.0405 100.218 88.3794 100.102C87.856 100.009 87.6605 100.803 88.1839 100.896C89.2033 101.083 90.2492 101.242 91.2686 101.429C91.957 101.544 92.7284 101.684 93.2373 102.212C93.8317 102.847 93.1643 103.437 92.6265 103.779C91.8472 104.292 90.9825 104.698 90.1146 104.995C88.2717 105.675 86.2822 106.034 84.3402 106.146C83.2733 106.205 82.2049 106.21 81.1614 106.132C80.3377 106.075 79.4866 106.019 78.7096 105.689C77.8496 105.334 77.2544 104.673 77.144 103.725C77.0601 102.749 77.3594 101.762 77.6886 100.856C77.8399 100.417 77.0395 100.223 76.8624 100.717Z" fill="white"/>
<path d="M80.2039 106.269C79.6927 106.583 79.1814 106.897 78.8128 107.397C78.4964 107.814 78.2654 108.337 78.1713 108.856C77.9831 109.894 78.3391 110.807 79.2072 111.434C80.0753 112.06 81.1784 112.299 82.2243 112.458C83.4619 112.611 84.6962 112.656 85.9531 112.537C88.4112 112.273 90.8257 111.467 92.865 110.021C93.5356 109.539 94.4445 108.778 94.3887 107.829C94.3419 107.178 93.7823 106.787 93.2001 106.56C92.4794 106.283 91.7105 106.224 90.9689 106.165C89.733 106.066 88.4697 105.968 87.2329 105.842C87.0131 105.821 86.7965 105.909 86.7482 106.128C86.6992 106.319 86.8168 106.588 87.0366 106.608C88.1638 106.738 89.3177 106.839 90.4433 106.914C90.9924 106.952 91.5142 106.991 92.0649 107.083C92.5327 107.151 93.1117 107.269 93.4499 107.585C93.5626 107.691 93.5932 107.798 93.5699 107.935C93.5249 108.262 93.2592 108.542 93.0467 108.766C92.3021 109.521 91.2232 110.097 90.2491 110.506C89.2757 110.943 88.2435 111.246 87.2089 111.467C86.1469 111.688 85.0527 111.748 83.9561 111.727C82.9416 111.703 81.8699 111.599 80.9012 111.274C80.0711 111 79.042 110.488 78.9846 109.484C78.9692 108.968 79.1181 108.448 79.3523 108.033C79.6381 107.508 80.1493 107.194 80.6605 106.88C81.0929 106.677 80.6612 105.983 80.2039 106.269Z" fill="white"/>
</g>
<defs>
<clipPath id="clip0">
<rect width="234.375" height="150" fill="white"/>
</clipPath>
</defs>
</svg>
