<svg width="235" height="150" viewBox="0 0 235 150" fill="none" xmlns="http://www.w3.org/2000/svg">
<path d="M117.188 32.8125H44.0625V121.875H117.188V32.8125Z" fill="#A787FF"/>
<path d="M70.4864 48.1568C75.4843 47.622 80.4822 47.4574 85.4801 47.4574C87.9381 47.4574 90.3961 47.4986 92.8541 47.4574C95.2711 47.4163 97.6881 47.334 100.105 47.2517C102.809 47.1695 105.513 47.1283 108.216 47.2929C108.995 47.334 108.995 46.0999 108.216 46.0588C103.423 45.7708 98.5894 46.0999 93.7963 46.2233C88.8394 46.3467 83.8824 46.1822 78.9255 46.3467C76.0988 46.429 73.2312 46.6347 70.4045 46.9226C69.7081 47.0049 69.6671 48.239 70.4864 48.1568Z" fill="white"/>
<path d="M71.5506 69.2192C81.0548 68.9313 90.559 68.6022 100.104 68.3142C102.808 68.232 105.553 68.1497 108.256 68.0674C109.035 68.0263 109.035 66.7921 108.256 66.8333C98.7522 67.1212 89.248 67.4503 79.7029 67.7383C76.9991 67.8206 74.2543 67.9029 71.5506 67.9851C70.7722 68.0263 70.7722 69.2604 71.5506 69.2192Z" fill="white"/>
<path d="M71.9606 89.6233C81.4238 90.0758 90.887 90.0347 100.35 89.541C103.054 89.3765 105.758 89.2119 108.462 88.9651C109.24 88.8828 109.24 87.6487 108.462 87.731C99.0393 88.5126 89.5351 88.8417 80.0719 88.6771C77.3681 88.636 74.6643 88.5537 71.9606 88.3892C71.1412 88.3481 71.1822 89.5822 71.9606 89.6233Z" fill="white"/>
<path d="M71.5514 110.686C81.0146 109.945 90.5188 109.657 99.9821 109.781C102.686 109.822 105.349 109.904 108.052 109.986C108.831 110.027 108.831 108.793 108.052 108.752C98.5892 108.382 89.085 108.423 79.6218 108.917C76.918 109.04 74.2552 109.246 71.5924 109.451C70.773 109.493 70.773 110.727 71.5514 110.686Z" fill="white"/>
<path d="M50.2487 44.0429C50.0438 46.2232 50.0029 48.4035 50.1258 50.5837C50.1258 50.9128 50.4125 51.2008 50.7403 51.2008C53.8537 51.1597 56.9672 51.1185 60.1216 50.9951C60.5312 50.9951 60.818 50.6249 60.6951 50.2135C60.3674 48.8971 60.0806 47.5396 59.7529 46.2232C59.589 45.565 59.4251 44.9068 59.3022 44.2074C59.1793 43.6727 59.1384 43.0145 58.7287 42.5619C58.36 42.1506 57.7865 42.1506 57.2539 42.1917C56.5575 42.2328 55.902 42.274 55.2056 42.3151C53.8537 42.3974 52.5018 42.5208 51.1499 42.6442C50.3716 42.7265 50.3716 43.9606 51.1499 43.8783C52.338 43.7549 53.5669 43.6727 54.755 43.5904C55.3285 43.5492 55.943 43.5081 56.5165 43.467C56.8033 43.467 57.7046 43.2613 57.8684 43.5081C57.9913 43.6727 57.9913 44.0429 58.0323 44.2486C58.1142 44.5365 58.1552 44.8656 58.2371 45.1536C58.36 45.7295 58.5239 46.3054 58.6468 46.8814C58.9335 48.0744 59.2203 49.3085 59.5071 50.5015C59.7119 50.2546 59.9167 49.9667 60.0806 49.7199C56.9672 49.8021 53.8537 49.8844 50.6993 49.9255C50.9041 50.1312 51.109 50.3369 51.3138 50.5426C51.1909 48.3623 51.2319 46.182 51.4367 44.0018C51.5186 43.2613 50.2896 43.2613 50.2487 44.0429Z" fill="white"/>
<path d="M50.6581 65.7635C50.9858 68.0672 51.1906 70.4121 51.2726 72.7569C51.2726 73.086 51.5593 73.374 51.8871 73.374C53.6486 73.2917 55.4102 73.2094 57.1308 73.1271C57.5814 73.086 57.9911 73.086 58.4417 73.0449C58.8514 73.0037 59.261 73.0449 59.6297 72.9214C60.3671 72.7158 60.6129 72.0987 60.6539 71.3582C60.7358 69.795 60.5719 68.1906 60.1213 66.6686C59.9165 65.9281 59.6297 65.1876 59.261 64.4883C58.8514 63.6655 58.114 63.6655 57.2946 63.6655C55.2873 63.7478 53.3209 63.7889 51.3135 63.8712C50.5352 63.9124 50.5352 65.1465 51.3135 65.1053C52.7883 65.0642 54.3041 65.0231 55.7789 64.9408C56.1476 64.9408 56.4753 64.8996 56.844 64.8996C57.1717 64.8996 57.6224 64.7762 57.9501 64.8585C58.1959 64.8997 58.2778 65.2699 58.3598 65.4756C58.4827 65.8047 58.6056 66.0926 58.7285 66.4217C59.1381 67.697 59.3839 69.0134 59.3839 70.3709C59.3839 70.7 59.3839 70.988 59.3429 71.3171C59.3429 71.5639 59.3429 71.6873 59.0972 71.6873C58.3598 71.7696 57.6224 71.7696 56.885 71.8107C55.2053 71.893 53.4848 71.9753 51.8051 72.0576C52.01 72.2632 52.2148 72.4689 52.4196 72.6746C52.2967 70.2475 52.0919 67.7793 51.7642 65.3522C51.7232 65.0231 51.3135 64.8585 51.0268 64.9408C50.74 65.1053 50.6171 65.4344 50.6581 65.7635Z" fill="white"/>
<path d="M52.2565 86.7849C51.9697 87.8956 51.8468 89.0063 51.9287 90.1582C51.9697 90.693 52.0107 91.2278 52.1336 91.7214C52.2155 92.2151 52.2974 92.791 52.7071 93.1201C53.0758 93.4492 53.5674 93.4492 54.018 93.4492C54.6325 93.4492 55.206 93.4903 55.8205 93.4903C57.0086 93.4903 58.2376 93.4492 59.4256 93.4081C59.9991 93.3669 60.5726 93.3669 61.1462 93.2846C61.5968 93.2435 62.0884 93.1201 62.3342 92.7087C62.58 92.3385 62.539 91.8448 62.539 91.3923C62.539 90.8575 62.4571 90.2816 62.3752 89.7468C62.2113 88.6361 61.8426 87.6077 61.351 86.6204C60.9413 85.7976 60.3678 85.0572 59.3846 84.9337C58.7701 84.8515 58.1556 84.8926 57.5411 84.8926C56.8447 84.8926 56.1892 84.8926 55.4928 84.8926C54.1 84.8926 52.7071 84.8926 51.3142 84.8926C50.5359 84.8926 50.5359 86.1267 51.3142 86.1267C53.1987 86.1267 55.1241 86.1267 57.0086 86.1267C57.5002 86.1267 57.9508 86.1267 58.4424 86.1267C58.8111 86.1267 59.3027 86.0856 59.6304 86.3324C60.2039 86.7849 60.4907 87.7722 60.7365 88.4304C61.0233 89.2532 61.1871 90.1171 61.2691 90.9809C61.2691 91.1866 61.4329 91.886 61.2691 92.0505C61.1871 92.1328 60.7775 92.1328 60.6955 92.1328C60.4497 92.1328 60.2449 92.1739 59.9991 92.1739C58.0737 92.2973 56.1892 92.3385 54.2638 92.2562C54.1 92.2562 53.6493 92.3385 53.5264 92.2151C53.4035 92.1328 53.3626 91.8037 53.3216 91.6803C53.1987 91.1866 53.1577 90.7341 53.1168 90.2405C53.0348 89.1709 53.1577 88.1425 53.4035 87.114C53.6493 86.3324 52.4613 86.0445 52.2565 86.7849Z" fill="white"/>
<path d="M51.9278 106.737C52.1735 108.876 52.5422 110.974 53.1158 113.072C53.1977 113.319 53.4435 113.565 53.6893 113.524C56.516 113.195 59.3427 112.866 62.1693 112.578C62.579 112.537 62.8248 112.208 62.7429 111.796C62.538 110.603 62.2922 109.452 62.0055 108.3C61.8416 107.683 61.7187 107.066 61.5549 106.49C61.432 106.078 61.2681 105.667 60.8584 105.42C60.4078 105.173 59.7933 105.214 59.3017 105.214C58.6872 105.214 58.1137 105.214 57.4992 105.214C56.2702 105.256 55.0412 105.297 53.8532 105.42C53.0748 105.502 53.0748 106.737 53.8532 106.654C54.8773 106.531 55.9015 106.49 56.9666 106.449C57.4992 106.449 58.0317 106.407 58.5643 106.407C59.0559 106.407 59.6704 106.325 60.121 106.449C60.2849 106.49 60.2849 106.531 60.3259 106.695C60.4078 106.942 60.4488 107.148 60.4897 107.395C60.6126 107.93 60.7355 108.423 60.8584 108.958C61.1042 109.986 61.3091 111.056 61.5139 112.084C61.7187 111.838 61.9235 111.55 62.0874 111.303C59.2607 111.632 56.4341 111.961 53.6074 112.249C53.8122 112.414 54.017 112.537 54.1809 112.701C53.6483 110.727 53.2796 108.711 53.0338 106.695C53.0748 105.955 51.8458 105.914 51.9278 106.737Z" fill="white"/>
<path d="M83.1833 140.099C79.699 137.828 78.8041 133.026 81.1844 129.375L93.8022 137.6C91.4219 141.252 86.6675 142.371 83.1833 140.099Z" fill="#F5B82E"/>
<path d="M48.179 19.1922C47.5171 20.3387 46.0597 20.7307 44.926 20.0762C43.7924 19.4217 43.4032 17.9636 44.0651 16.8171C44.727 15.6706 46.1845 15.2786 47.3181 15.9331C48.4517 16.5876 48.8409 18.0457 48.179 19.1922Z" stroke="#414168"/>
<path d="M175.127 33.8815C174.65 34.707 173.601 34.9882 172.787 34.5179C171.972 34.0476 171.692 32.999 172.168 32.1734C172.645 31.3479 173.693 31.0667 174.508 31.537C175.322 32.0073 175.603 33.0559 175.127 33.8815Z" stroke="#414168"/>
<path d="M131.972 68.0478C132.889 68.5771 134.064 68.2587 134.596 67.3365C135.129 66.4143 134.817 65.2377 133.9 64.7084C132.983 64.1791 131.809 64.4976 131.276 65.4197C130.744 66.3419 131.055 67.5185 131.972 68.0478Z" fill="#F685A1"/>
<path d="M24.314 78.7517L17.8301 76.875L15.9375 83.3746L22.4215 85.2513L24.314 78.7517Z" fill="#31C587"/>
<path d="M117.131 17.9123L113.547 16.875L112.501 20.4677L116.085 21.5051L117.131 17.9123Z" fill="#F685A1"/>
<line x1="23.1169" y1="53.1888" x2="9.20888" y2="48.2838" stroke="#414168"/>
<line y1="-0.5" x2="11.8596" y2="-0.5" transform="matrix(0.690175 -0.723643 0.723644 0.690174 164.062 67.6445)" stroke="#414168"/>
<line x1="76.3809" y1="21.1943" x2="76.3746" y2="7.50011" stroke="#414168"/>
<line x1="157.703" y1="120.481" x2="166.141" y2="124.231" stroke="#414168"/>
<path d="M194.3 53.5456L202.75 59.5402L193.334 63.8612L194.3 53.5456Z" fill="#41CADD"/>
<path d="M33.7925 124.44L27.3917 130.226L25.5808 121.79L33.7925 124.44Z" stroke="#414168"/>
<path d="M130.609 72.8114L124.621 73.8628L133.308 122.642L139.296 121.59L130.609 72.8114Z" fill="#41CADD"/>
<path d="M129.224 98.7033C129.695 98.8523 130.191 98.9462 130.68 98.8229C131.931 98.4867 132.293 96.8729 132.172 95.5723C132.078 94.2438 131.765 92.9218 131.262 91.6869C132.012 92.0178 132.628 92.4885 133.352 92.8473C133.574 92.9493 135.618 93.5132 135.618 93.5132C134.897 90.4645 134.421 87.3813 134.219 84.2628C134.178 83.8292 134.165 83.3678 133.961 82.9663C133.641 82.3509 132.919 82.0193 132.231 81.9311C130.857 81.7819 129.148 82.3491 127.814 82.6606C126.671 82.9121 125.81 83.454 124.814 84.0271C124.463 84.2278 124.141 84.4276 123.876 84.7344C123.559 85.1242 123.704 85.3916 123.689 85.8267C123.674 86.2347 123.494 86.6477 123.479 87.0557C123.45 87.926 123.64 88.7626 123.829 89.5992C124.172 91.0018 124.515 92.3773 124.831 93.7807C125.517 96.586 126.488 97.8884 129.224 98.7033Z" fill="white"/>
<path d="M126.166 100.969C129.239 101.095 132.365 100.268 134.972 98.5872C135.51 98.2451 136.124 97.6834 135.994 97.008C135.893 96.3861 135.226 96.0799 134.646 95.907C133.015 95.4395 131.286 95.328 129.589 95.3787C128.576 95.4089 127.509 95.4679 126.56 95.8222C125.585 96.1774 124.701 96.883 124.292 97.8462C123.883 98.8365 124.031 100.109 124.819 100.819C125.607 101.529 126.974 101.407 127.494 100.468" fill="white"/>
<path d="M209.615 83.9968C200.659 84.1281 191.675 84.2331 182.718 84.3102C178.252 84.3347 173.788 84.3864 169.323 84.4381C164.913 84.4881 160.556 84.4551 156.183 83.9063C151.837 83.3567 147.487 82.6442 143.143 82.1489C138.799 81.6536 134.379 81.3507 130.007 81.78C126.92 82.0895 122.861 82.8627 122.257 86.4943C121.791 89.2524 123.191 92.0907 124.414 94.4995C125.112 95.8644 125.838 97.2556 126.645 98.5629C127.422 99.8167 128.567 100.543 130.069 100.39C132.01 100.223 132.691 98.2738 132.696 96.5891C132.692 94.6329 132.085 92.6405 131.455 90.8117C131.125 89.8434 130.767 88.8759 130.355 87.9373C130.149 87.4544 129.362 87.6952 129.568 88.1781C130.363 90.0291 131.023 91.9386 131.492 93.8808C131.868 95.4726 132.316 97.6329 131.18 99.0524C130.651 99.6931 129.638 99.7234 128.892 99.5011C128.311 99.3282 127.861 98.907 127.544 98.4002C127.171 97.8407 126.88 97.2517 126.561 96.6634C126.155 95.9419 125.75 95.2204 125.372 94.471C124.761 93.2937 124.178 92.1156 123.729 90.852C123.282 89.6155 122.94 88.2672 123.093 86.9585C123.504 83.3054 127.819 82.8234 130.771 82.5723C139.162 81.8873 147.543 83.6207 155.823 84.705C157.859 84.9703 159.892 85.1813 161.922 85.2566C164.034 85.3295 166.144 85.3209 168.253 85.3123C172.5 85.2943 176.717 85.2228 180.963 85.1776C189.51 85.1128 198.056 85.048 206.601 84.9018C207.642 84.8979 208.71 84.8661 209.751 84.8622C210.16 84.7956 210.135 83.9813 209.615 83.9968Z" fill="#414168"/>
<path d="M131.578 92.1936C134.676 94.1118 138.743 94.4795 142.153 93.0736C143.127 92.6642 144.044 92.1749 144.62 91.2883C144.909 90.845 144.185 90.459 143.897 90.9023C143.32 91.789 142.156 92.2584 141.179 92.5593C140.175 92.8881 139.139 93.082 138.072 93.1139C135.909 93.1784 133.782 92.6169 131.967 91.4756C131.52 91.1901 131.131 91.9081 131.578 92.1936Z" fill="#414168"/>
<path d="M127.342 106.314C130.414 106.439 133.541 105.612 136.148 103.932C136.686 103.59 137.299 103.028 137.17 102.352C137.069 101.731 136.402 101.424 135.822 101.252C134.191 100.784 132.462 100.673 130.764 100.723C129.751 100.753 128.685 100.812 127.736 101.167C126.76 101.522 125.877 102.227 125.468 103.191C125.058 104.154 125.206 105.454 125.995 106.164C126.783 106.874 128.149 106.751 128.669 105.812" fill="white"/>
<path d="M123.014 85.2493C121.424 85.2424 119.778 85.1828 118.26 85.7172C117.527 85.9564 116.882 86.356 116.294 86.8626C115.68 87.3972 115.099 88.121 114.847 88.8892C114.421 90.2061 114.908 91.849 115.842 92.8264C116.746 93.7504 118.26 93.9769 119.497 94.1302C121.065 94.328 122.628 94.3628 124.214 94.2612C124.733 94.2185 124.709 93.4041 124.19 93.4468C122.987 93.537 121.753 93.5195 120.545 93.4197C119.364 93.3191 118.045 93.1954 116.987 92.6292C115.956 92.0622 115.42 90.6382 115.579 89.5195C115.667 88.8104 116.141 88.1714 116.647 87.6672C117.125 87.1639 117.716 86.7659 118.366 86.5291C119.857 85.9684 121.502 86.028 123.092 86.0349C123.559 86.0753 123.535 85.2609 123.014 85.2493Z" fill="#414168"/>
<path d="M120.174 93.8653C118.674 94.9969 117.88 96.8681 118.592 98.6945C118.889 99.4464 119.402 100.11 120.073 100.579C120.828 101.1 121.821 101.315 122.73 101.451C124.904 101.767 127.145 101.591 129.327 101.254C130.364 101.115 131.456 100.973 132.432 100.618C133.543 100.232 134.539 99.6044 135.447 98.8437C136.249 98.1677 137.52 96.6626 136.287 95.7484C135.81 95.3823 135.15 95.2933 134.572 95.229C133.803 95.1433 133.036 95.1662 132.27 95.189C131.75 95.2045 131.774 96.0189 132.294 96.0034C132.869 95.9863 133.471 95.9683 134.047 95.9783C134.541 96.0179 135.117 96.0279 135.589 96.2312C136.671 96.6879 135.203 97.9816 134.748 98.3483C133.972 98.9692 133.084 99.512 132.134 99.8392C131.266 100.137 130.338 100.246 129.438 100.382C127.556 100.655 125.643 100.848 123.748 100.687C122.265 100.568 120.53 100.267 119.694 98.9061C118.718 97.3866 119.266 95.5498 120.658 94.4758C121.034 94.22 120.603 93.5265 120.174 93.8653Z" fill="#414168"/>
<path d="M134.538 111.56C143.286 111.815 152.036 111.201 160.679 109.775C165.014 109.048 169.286 108.051 173.623 107.378C177.986 106.678 182.383 106.193 186.812 105.871C191.76 105.506 196.716 105.385 201.679 105.509C202.2 105.52 202.176 104.706 201.655 104.694C192.771 104.498 183.855 105.035 175.072 106.357C172.916 106.666 170.763 107.029 168.61 107.446C166.458 107.864 164.308 108.335 162.127 108.727C157.822 109.507 153.508 110.043 149.162 110.39C144.297 110.78 139.423 110.898 134.542 110.772C133.993 110.734 134.017 111.549 134.538 111.56Z" fill="#414168"/>
<path d="M122.046 28.955C108.359 29.3633 97.5995 40.6883 98.0044 54.2613C98.4094 67.8343 109.824 78.4977 123.512 78.0894C137.2 77.681 147.959 66.3561 147.554 52.783C147.149 39.21 135.734 28.5466 122.046 28.955ZM123.362 73.0402C112.493 73.3644 103.418 64.8864 103.096 54.1094C102.775 43.3324 111.329 34.3284 122.197 34.0041C133.065 33.6799 142.141 42.158 142.462 52.9349C142.784 63.7119 134.23 72.716 123.362 73.0402Z" fill="#41CADD"/>
<path d="M127.506 111.906C130.578 112.031 133.705 111.232 136.315 109.632C136.853 109.29 137.468 108.783 137.339 108.135C137.239 107.54 136.573 107.261 135.993 107.088C134.363 106.647 132.634 106.563 130.936 106.587C129.923 106.617 128.857 106.676 127.908 107.03C126.932 107.385 126.048 108.037 125.637 108.973C125.227 109.909 125.372 111.1 126.159 111.783C126.946 112.439 128.312 112.316 128.834 111.431" fill="white"/>
<path d="M120.927 100.717C120.322 102.474 119.814 104.745 121.578 106.023C122.307 106.572 123.245 106.789 124.124 106.871C125.279 107 126.431 107.047 127.608 107.012C129.853 106.945 132.171 106.577 134.286 105.834C135.289 105.479 136.262 105.015 137.149 104.445C137.875 103.989 138.566 103.261 138.292 102.346C138.047 101.484 137.101 100.996 136.3 100.775C135.72 100.629 135.087 100.54 134.482 100.449C133.793 100.334 133.105 100.218 132.444 100.102C131.921 100.009 131.725 100.803 132.248 100.896C133.268 101.083 134.314 101.242 135.333 101.429C136.021 101.544 136.793 101.684 137.302 102.212C137.896 102.847 137.229 103.437 136.691 103.779C135.912 104.292 135.047 104.698 134.179 104.995C132.336 105.675 130.347 106.034 128.405 106.146C127.338 106.205 126.269 106.21 125.226 106.132C124.402 106.075 123.551 106.019 122.774 105.689C121.914 105.334 121.319 104.673 121.208 103.725C121.125 102.749 121.424 101.762 121.753 100.856C121.904 100.417 121.104 100.223 120.927 100.717Z" fill="#414168"/>
<path d="M124.268 106.27C123.757 106.584 123.246 106.898 122.877 107.398C122.561 107.815 122.33 108.338 122.236 108.857C122.048 109.895 122.404 110.808 123.272 111.435C124.14 112.061 125.243 112.3 126.289 112.459C127.526 112.612 128.761 112.656 130.018 112.537C132.476 112.274 134.89 111.468 136.929 110.022C137.6 109.54 138.509 108.779 138.453 107.83C138.406 107.179 137.847 106.788 137.265 106.561C136.544 106.284 135.775 106.225 135.033 106.166C133.797 106.067 132.534 105.969 131.297 105.843C131.078 105.822 130.861 105.91 130.813 106.129C130.764 106.32 130.881 106.589 131.101 106.609C132.228 106.739 133.382 106.84 134.508 106.915C135.057 106.953 135.579 106.992 136.129 107.084C136.597 107.152 137.176 107.27 137.514 107.586C137.627 107.692 137.658 107.799 137.634 107.936C137.589 108.263 137.324 108.543 137.111 108.767C136.367 109.522 135.288 110.098 134.314 110.507C133.34 110.944 132.308 111.246 131.273 111.468C130.211 111.689 129.117 111.749 128.021 111.728C127.006 111.704 125.934 111.6 124.966 111.275C124.136 111.001 123.106 110.489 123.049 109.485C123.034 108.969 123.183 108.449 123.417 108.034C123.703 107.509 124.214 107.195 124.725 106.881C125.157 106.678 124.726 105.984 124.268 106.27Z" fill="#414168"/>
<circle cx="123.093" cy="53.5564" r="20.1562" transform="rotate(43.387 123.093 53.5564)" fill="white"/>
<path d="M115.03 50.9624C113.593 52.622 111.932 54.0347 110.088 55.2288C109.776 55.4347 109.661 55.9292 110.021 56.1497C110.618 56.5056 111.29 56.7017 111.982 56.8212C112.755 56.9976 113.556 57.1323 114.363 57.302C115.978 57.6414 117.593 57.9809 119.167 58.2919C119.825 58.418 119.898 57.3505 119.24 57.2244C117.734 56.9002 116.235 56.6109 114.729 56.2867C113.996 56.1388 113.223 55.9624 112.49 55.8145C111.832 55.6884 111.174 55.5622 110.577 55.2064C110.563 55.4995 110.557 55.8276 110.509 56.1273C112.462 54.9484 114.218 53.4809 115.716 51.7732C116.143 51.2543 115.457 50.4436 115.03 50.9624Z" fill="#414168"/>
<path d="M125.197 46.7692C123.905 51.5236 122.593 56.3547 119.998 60.5637C119.652 61.1394 120.507 61.7355 120.853 61.1599C123.509 56.9026 124.875 51.9884 126.181 47.1224C126.37 46.4682 125.38 46.08 125.197 46.7692Z" fill="#414168"/>
<path d="M127.684 51.2243C129.529 51.301 131.334 51.7124 133.023 52.4367C132.935 52.1634 132.846 51.8901 132.758 51.6168C132.101 52.5799 130.839 52.9706 129.897 53.5535C128.758 54.211 127.68 55.0018 126.649 55.856C126.134 56.2831 126.82 57.0938 127.335 56.6667C128.393 55.7709 129.505 54.9735 130.678 54.3095C131.722 53.7068 132.902 53.2593 133.613 52.2129C133.803 51.9218 133.66 51.5501 133.348 51.393C131.55 50.6535 129.671 50.2203 127.717 50.1284C127.086 50.1422 127.012 51.2097 127.684 51.2243Z" fill="#414168"/>
</svg>
