<svg width="400" height="400" viewBox="0 0 400 400" fill="none" xmlns="http://www.w3.org/2000/svg">
<line y1="-0.5" x2="11.5207" y2="-0.5" transform="matrix(0.63756 -0.770401 0.770403 0.637557 93 279.875)" stroke="#686F8C"/>
<line x1="144.537" y1="309.772" x2="152.285" y2="290.811" stroke="#686F8C"/>
<line x1="279.628" y1="134.334" x2="270.628" y2="124.334" stroke="#686F8C"/>
<line x1="261.506" y1="332.17" x2="264.615" y2="311.925" stroke="#686F8C"/>
<line x1="270.5" y1="323.995" x2="270.609" y2="313.994" stroke="#686F8C"/>
<path d="M150.796 64.3242C146.964 58.192 143.133 52.145 138.962 46.2683C137.94 44.9055 136.322 42.0098 136.322 42.0098C136.322 42.0098 138.569 42.2779 140 42.5C141 42.6552 162.5 44.5 174.123 45.5017C171.314 48.0568 168.419 50.5267 165.61 53.0818C165.439 53.2522 165.269 53.3373 165.184 53.5929C165.099 53.7632 165.014 54.0187 165.014 54.2742C164.673 56.9996 164.333 59.7251 163.992 62.4505C163.141 60.8323 162.46 59.2141 161.949 57.5107C161.693 56.5738 161.778 55.8073 160.842 56.5738C160.161 57.0848 159.565 57.7662 158.969 58.2772C158.288 58.703 150.966 64.4946 150.796 64.3242Z" stroke="#686F8C" stroke-miterlimit="10"/>
<path d="M163.908 62.5359L159.055 57.8516" stroke="#686F8C" stroke-miterlimit="10"/>
<path d="M165.183 53.4233L136.406 42.0957" stroke="#686F8C" stroke-miterlimit="10"/>
<path d="M161.522 56.1487L136.406 42.0957" stroke="#686F8C" stroke-miterlimit="10"/>
<path d="M270.924 304.843C269.988 293.601 269.051 282.273 268.881 271.031C268.796 268.391 268.796 265.75 268.285 263.195C267.093 264.728 265.731 266.091 264.284 267.369C251.087 279.463 236.955 290.62 224.014 302.97C229.973 303.481 235.848 303.992 241.807 304.503C242.148 304.503 242.489 304.588 242.829 304.673C243.17 304.843 243.425 305.099 243.68 305.354C246.66 308.42 249.64 311.572 252.62 314.638C252.194 311.827 251.428 309.102 250.491 306.462C249.981 305.014 249.129 304.162 251.002 304.162C252.279 304.162 253.642 304.417 255.004 304.503C256.196 304.758 270.924 305.184 270.924 304.843Z" stroke="#686F8C" stroke-miterlimit="10"/>
<path d="M252.875 314.894L254.407 304.418" stroke="#686F8C" stroke-miterlimit="10"/>
<path d="M242.658 304.589L268.285 263.281" stroke="#686F8C" stroke-miterlimit="10"/>
<path d="M249.896 304.589L268.286 263.281" stroke="#686F8C" stroke-miterlimit="10"/>
<path d="M194.895 178.436L244.001 161L235.828 184.251L198.793 283.474L151.895 262.436L137.395 255.936M120.5 248.5C104.239 239.472 83.2613 227.773 67 218.745C79.4701 214.251 93.1997 209.627 106.895 205.185" stroke="#686F8C" stroke-miterlimit="10" stroke-linecap="round" stroke-linejoin="round"/>
<path d="M134 286.5L151 262" stroke="#686F8C" stroke-miterlimit="10" stroke-linecap="round" stroke-linejoin="round"/>
<path d="M199 190L243.767 160.99" stroke="#686F8C" stroke-miterlimit="10"/>
<path d="M201.5 198.5L243.765 160.99" stroke="#686F8C" stroke-miterlimit="10"/>
<mask id="path-18-inside-1" fill="white">
<path d="M119.38 246.843L134 287.5L137.855 255.701L201.878 198.892L180.969 126.68C179.731 122.406 175.244 119.963 170.982 121.243L96.8088 143.532C92.581 144.803 90.1813 149.258 91.4468 153.487L119.38 246.843Z"/>
</mask>
<path d="M119.38 246.843L118.422 247.13L118.43 247.156L118.439 247.181L119.38 246.843ZM134 287.5L133.059 287.838C133.216 288.274 133.652 288.546 134.112 288.494C134.572 288.442 134.937 288.08 134.993 287.62L134 287.5ZM137.855 255.701L137.191 254.953L136.908 255.204L136.862 255.58L137.855 255.701ZM201.878 198.892L202.542 199.64L203.015 199.221L202.839 198.614L201.878 198.892ZM180.969 126.68L180.008 126.958L180.969 126.68ZM118.439 247.181L133.059 287.838L134.941 287.162L120.321 246.505L118.439 247.181ZM134.993 287.62L138.848 255.821L136.862 255.58L133.007 287.38L134.993 287.62ZM138.519 256.449L202.542 199.64L201.215 198.144L137.191 254.953L138.519 256.449ZM202.839 198.614L181.929 126.402L180.008 126.958L200.918 199.17L202.839 198.614ZM170.694 120.286L96.521 142.574L97.0966 144.49L171.27 122.201L170.694 120.286ZM90.4888 153.774L118.422 247.13L120.338 246.556L92.4048 153.2L90.4888 153.774ZM96.521 142.574C91.7647 144.004 89.0651 149.016 90.4888 153.774L92.4048 153.2C91.2975 149.5 93.3972 145.601 97.0966 144.49L96.521 142.574ZM181.929 126.402C180.537 121.593 175.488 118.845 170.694 120.286L171.27 122.201C174.999 121.081 178.925 123.218 180.008 126.958L181.929 126.402Z" fill="#7950ED" mask="url(#path-18-inside-1)"/>
<path d="M126.617 166.44C128.921 166.44 130.789 164.572 130.789 162.267C130.789 159.962 128.921 158.094 126.617 158.094C124.313 158.094 122.445 159.962 122.445 162.267C122.445 164.572 124.313 166.44 126.617 166.44Z" stroke="white" stroke-miterlimit="10"/>
<path d="M142.283 215.669C144.587 215.669 146.455 213.8 146.455 211.496C146.455 209.191 144.587 207.322 142.283 207.322C139.979 207.322 138.111 209.191 138.111 211.496C138.111 213.8 139.979 215.669 142.283 215.669Z" stroke="white" stroke-miterlimit="10"/>
<path d="M177.871 204.341C180.175 204.341 182.043 202.472 182.043 200.167C182.043 197.863 180.175 195.994 177.871 195.994C175.567 195.994 173.699 197.863 173.699 200.167C173.699 202.472 175.567 204.341 177.871 204.341Z" stroke="white" stroke-miterlimit="10"/>
<path d="M127.895 166.441L141.006 207.408" stroke="white" stroke-miterlimit="10"/>
<path d="M137.09 158.095L143.049 150.6L146.285 160.65L137.09 158.095Z" stroke="white" stroke-miterlimit="10"/>
<path d="M176.593 195.995L166.973 165.93C164.248 157.328 155.053 152.643 146.454 155.369L144.922 155.88" stroke="white" stroke-miterlimit="10"/>
<path d="M226.262 69.8996L197.009 56.0129L200.589 70.9039L217.203 134.586L247.527 124.549L256.902 121.449M267.816 117.921C278.44 113.37 292.149 107.466 302.773 102.914C295.348 99.3463 287.154 95.6186 278.969 92.0063" stroke="#686F8C" stroke-miterlimit="10" stroke-linecap="round" stroke-linejoin="round"/>
<path d="M257.062 140.56L248.104 124.338" stroke="#686F8C" stroke-miterlimit="10" stroke-linecap="round" stroke-linejoin="round"/>
<path d="M222.992 76.7888L197.154 56.0218" stroke="#686F8C" stroke-miterlimit="10"/>
<path d="M220.907 81.8852L197.153 56.0219" stroke="#686F8C" stroke-miterlimit="10"/>
<mask id="path-30-inside-2" fill="white">
<path d="M268.613 116.969L257.002 141.177L256.632 121.275L220.649 82.1045L237.001 41.6242C238.667 37.4983 243.38 35.5252 247.489 37.2332L286.312 53.3713C290.389 55.0658 292.322 59.742 290.633 63.8205L268.613 116.969Z"/>
</mask>
<path d="M268.613 116.969L269.537 117.352L269.527 117.377L269.515 117.401L268.613 116.969ZM257.002 141.177L257.904 141.609C257.703 142.027 257.242 142.253 256.789 142.154C256.336 142.056 256.011 141.659 256.002 141.196L257.002 141.177ZM256.632 121.275L257.368 120.599L257.624 120.878L257.631 121.256L256.632 121.275ZM220.649 82.1045L219.913 82.781L219.485 82.3158L219.722 81.73L220.649 82.1045ZM237.001 41.6242L237.928 41.9987L237.001 41.6242ZM247.489 37.2332L247.873 36.3098L247.489 37.2332ZM269.515 117.401L257.904 141.609L256.1 140.744L267.712 116.536L269.515 117.401ZM256.002 141.196L255.632 121.294L257.631 121.256L258.002 141.158L256.002 141.196ZM255.895 121.952L219.913 82.781L221.386 81.428L257.368 120.599L255.895 121.952ZM219.722 81.73L236.073 41.2496L237.928 41.9987L221.576 82.4791L219.722 81.73ZM247.873 36.3098L286.696 52.4479L285.929 54.2947L247.105 38.1566L247.873 36.3098ZM291.556 64.2032L269.537 117.352L267.689 116.586L289.709 63.4377L291.556 64.2032ZM286.696 52.4479C291.282 54.3542 293.457 59.615 291.556 64.2032L289.709 63.4377C291.187 59.8691 289.495 55.7773 285.929 54.2947L286.696 52.4479ZM236.073 41.2496C237.948 36.6081 243.25 34.3883 247.873 36.3098L247.105 38.1566C243.51 36.6621 239.386 38.3886 237.928 41.9987L236.073 41.2496Z" fill="#7950ED" mask="url(#path-30-inside-2)"/>
<path d="M250.873 57.1626C251.961 58.0941 253.597 57.9675 254.529 56.8798C255.461 55.7922 255.335 54.1553 254.248 53.2238C253.161 52.2922 251.524 52.4188 250.592 53.5065C249.66 54.5942 249.786 56.2311 250.873 57.1626Z" stroke="white" stroke-miterlimit="10"/>
<path d="M238.362 86.727C239.449 87.6586 241.086 87.532 242.018 86.4443C242.949 85.3566 242.824 83.7197 241.736 82.7882C240.649 81.8567 239.012 81.9833 238.08 83.071C237.148 84.1587 237.274 85.7955 238.362 86.727Z" stroke="white" stroke-miterlimit="10"/>
<path d="M259.737 95.7681C260.824 96.6996 262.461 96.573 263.393 95.4853C264.324 94.3976 264.199 92.7607 263.111 91.8292C262.024 90.8977 260.387 91.0243 259.455 92.112C258.523 93.1997 258.649 94.8366 259.737 95.7681Z" stroke="white" stroke-miterlimit="10"/>
<path d="M251.477 57.6777L241.101 82.3111" stroke="white" stroke-miterlimit="10"/>
<path d="M259.19 57.4588L265.033 56.3314L262.497 62.3821L259.19 57.4588Z" stroke="white" stroke-miterlimit="10"/>
<path d="M262.508 91.3149L270.123 73.2375C272.316 68.0766 269.87 62.1485 264.711 59.958L263.781 59.5796" stroke="white" stroke-miterlimit="10"/>
</svg>
