<svg width="400" height="400" viewBox="0 0 400 400" fill="none" xmlns="http://www.w3.org/2000/svg">
<path d="M347.205 112.204C345.549 113.861 345.548 116.546 347.204 118.202C348.86 119.858 351.545 119.857 353.202 118.201C354.858 116.544 354.859 113.859 353.203 112.203C351.547 110.547 348.862 110.548 347.205 112.204Z" fill="#F685A1"/>
<path d="M345.018 285.595C343.188 283.765 343.182 280.81 344.997 278.996C346.811 277.182 349.766 277.187 351.596 279.017C353.426 280.848 353.432 283.802 351.617 285.616C349.803 287.431 346.848 287.425 345.018 285.595Z" stroke="#414168"/>
<path d="M20.6573 237.53C19.5783 236.451 19.5762 234.711 20.6438 233.644C21.7114 232.576 23.4515 232.578 24.5304 233.657C25.6093 234.736 25.6114 236.476 24.5438 237.544C23.4763 238.611 21.7362 238.609 20.6573 237.53Z" stroke="#414168"/>
<path d="M314.657 74.5303C313.578 73.4513 313.576 71.7113 314.644 70.6437C315.711 69.5761 317.451 69.5782 318.53 70.6572C319.609 71.7361 319.611 73.4762 318.544 74.5437C317.476 75.6113 315.736 75.6092 314.657 74.5303Z" stroke="#414168"/>
<path d="M102.277 99.9213L107.898 97.6411L105.621 92.0001L99.9995 94.2803L102.277 99.9213Z" fill="#F5B82E"/>
<path d="M85.7937 45.7044L92.0038 50.822L86.9126 57.0203L80.7025 51.9026L85.7937 45.7044Z" stroke="#414168"/>
<path d="M41.0164 263.931L45.8496 272.51L54.4539 267.607L49.6207 259.028L41.0164 263.931Z" fill="#41CADD"/>
<path d="M207.377 316.813L191.874 330.942L187.287 310.481L207.377 316.813Z" fill="#144BC1"/>
<line y1="-0.5" x2="11.5207" y2="-0.5" transform="matrix(0.63756 -0.770401 0.770403 0.637557 93 279.875)" stroke="#414168"/>
<line y1="-0.5" x2="11.5207" y2="-0.5" transform="matrix(0.316568 -0.94857 0.948571 0.316565 153.848 327.902)" stroke="#414168"/>
<line x1="144.537" y1="309.772" x2="152.285" y2="290.811" stroke="#414168"/>
<line x1="305.671" y1="119.376" x2="297.669" y2="112.376" stroke="#414168"/>
<line x1="279.628" y1="134.334" x2="270.628" y2="124.334" stroke="#414168"/>
<line x1="300.647" y1="134.354" x2="295.645" y2="129.354" stroke="#414168"/>
<line x1="261.506" y1="332.169" x2="264.615" y2="311.924" stroke="#414168"/>
<line x1="270.5" y1="323.995" x2="270.609" y2="313.994" stroke="#414168"/>
<path d="M214.82 123.261C211.074 102.905 207.328 82.5497 202.219 62.4497C201.027 57.7653 199.75 53.081 199.58 48.2263C202.39 50.3556 205.54 52.059 208.69 53.6772C237.892 68.7522 268.116 81.698 296.977 97.4544C286.761 101.202 276.544 104.949 266.243 108.697C265.647 108.952 265.051 109.123 264.54 109.549C264.029 109.974 263.689 110.571 263.433 111.167C259.687 118.066 255.856 124.964 252.11 131.863C251.599 126.753 251.514 121.557 251.94 116.447C252.195 113.637 253.302 111.763 249.982 112.615C247.683 113.211 245.384 114.403 243.171 115.17C240.787 116.107 214.905 123.857 214.82 123.261Z" stroke="#414168" stroke-miterlimit="10"/>
<path d="M251.515 132.459L243.768 114.744" stroke="#414168" stroke-miterlimit="10"/>
<path d="M264.539 109.378L199.664 48.5669" stroke="#414168" stroke-miterlimit="10"/>
<path d="M251.939 112.87L199.664 48.5669" stroke="#414168" stroke-miterlimit="10"/>
<path d="M150.796 64.3235C146.964 58.1913 143.133 52.1442 138.962 46.2675C137.94 44.9048 137.003 43.5421 136.322 42.009C137.514 42.3497 138.706 42.5201 139.983 42.6052C151.392 43.7976 162.8 44.0531 174.123 45.501C171.314 48.0561 168.419 50.526 165.61 53.0811C165.439 53.2514 165.269 53.3366 165.184 53.5921C165.099 53.7625 165.014 54.018 165.014 54.2735C164.673 56.9989 164.333 59.7243 163.992 62.4498C163.141 60.8315 162.46 59.2133 161.949 57.5099C161.693 56.5731 161.778 55.8065 160.842 56.5731C160.161 57.0841 159.565 57.7654 158.969 58.2765C158.288 58.7023 150.966 64.4938 150.796 64.3235Z" stroke="#414168" stroke-miterlimit="10"/>
<path d="M163.908 62.5349L159.055 57.8506" stroke="#414168" stroke-miterlimit="10"/>
<path d="M165.183 53.4218L136.406 42.0942" stroke="#414168" stroke-miterlimit="10"/>
<path d="M161.522 56.1472L136.406 42.0942" stroke="#414168" stroke-miterlimit="10"/>
<path d="M270.924 304.843C269.988 293.6 269.051 282.273 268.881 271.03C268.796 268.39 268.796 265.75 268.285 263.195C267.093 264.728 265.731 266.091 264.284 267.368C251.087 279.462 236.955 290.619 224.014 302.969C229.973 303.48 235.848 303.991 241.807 304.502C242.148 304.502 242.489 304.587 242.829 304.673C243.17 304.843 243.425 305.098 243.68 305.354C246.66 308.42 249.64 311.571 252.62 314.637C252.194 311.827 251.428 309.101 250.491 306.461C249.981 305.013 249.129 304.161 251.002 304.161C252.279 304.161 253.642 304.417 255.004 304.502C256.196 304.758 270.924 305.184 270.924 304.843Z" stroke="#414168" stroke-miterlimit="10"/>
<path d="M252.875 314.893L254.407 304.417" stroke="#414168" stroke-miterlimit="10"/>
<path d="M242.658 304.587L268.285 263.28" stroke="#414168" stroke-miterlimit="10"/>
<path d="M249.896 304.587L268.286 263.28" stroke="#414168" stroke-miterlimit="10"/>
<path d="M264.029 109.378L251.854 131.778L252.62 112.87L220.523 74.2883L241.042 30L290.592 53.592L264.029 109.378Z" fill="#41CADD"/>
<path d="M250.918 54.1881C252.282 54.1881 253.387 53.0823 253.387 51.7182C253.387 50.3541 252.282 49.2483 250.918 49.2483C249.555 49.2483 248.449 50.3541 248.449 51.7182C248.449 53.0823 249.555 54.1881 250.918 54.1881Z" stroke="white" stroke-miterlimit="10"/>
<path d="M237.977 81.5277C239.34 81.5277 240.446 80.4219 240.446 79.0578C240.446 77.6937 239.34 76.5879 237.977 76.5879C236.613 76.5879 235.508 77.6937 235.508 79.0578C235.508 80.4219 236.613 81.5277 237.977 81.5277Z" stroke="white" stroke-miterlimit="10"/>
<path d="M257.729 90.9813C259.092 90.9813 260.198 89.8755 260.198 88.5114C260.198 87.1473 259.092 86.0415 257.729 86.0415C256.365 86.0415 255.26 87.1473 255.26 88.5114C255.26 89.8755 256.365 90.9813 257.729 90.9813Z" stroke="white" stroke-miterlimit="10"/>
<path d="M249.896 54.0178L239.084 76.8433" stroke="white" stroke-miterlimit="10"/>
<path d="M257.133 54.103L262.667 53.3364L260.027 58.9576L257.133 54.103Z" stroke="white" stroke-miterlimit="10"/>
<path d="M258.836 86.212L266.754 69.5187C269.052 64.7492 267.009 59.0428 262.241 56.8284L261.39 56.4026" stroke="white" stroke-miterlimit="10"/>
<path d="M198.899 283.039C210.477 249.653 222.141 216.351 235.933 183.817C239.169 176.236 242.489 168.656 244.107 160.565C238.828 163.461 233.039 165.505 227.334 167.464C174.209 185.35 119.806 199.317 67.1055 218.31C83.3668 227.338 99.7132 236.281 115.974 245.309C116.911 245.82 117.847 246.331 118.614 247.183C119.38 248.035 119.721 249.142 120.146 250.164C124.744 262.769 129.341 275.459 133.938 288.064C136.152 279.547 137.599 270.86 138.195 262.088C138.536 257.233 137.174 253.826 142.452 256.211C146.198 257.914 149.689 260.384 153.35 262.258C156.926 264.217 198.558 284.061 198.899 283.039Z" stroke="#414168" stroke-miterlimit="10"/>
<path d="M134.535 289.001L152.244 261.151" stroke="#414168" stroke-miterlimit="10"/>
<path d="M118.529 246.587L243.767 160.991" stroke="#414168" stroke-miterlimit="10"/>
<path d="M138.961 255.785L243.765 160.991" stroke="#414168" stroke-miterlimit="10"/>
<path d="M119.38 246.842L134.194 287.724L137.855 255.7L201.878 198.892L178.721 118.917L89.1562 145.831L119.38 246.842Z" fill="#A787FF"/>
<path d="M126.617 166.442C128.921 166.442 130.789 164.573 130.789 162.269C130.789 159.964 128.921 158.095 126.617 158.095C124.313 158.095 122.445 159.964 122.445 162.269C122.445 164.573 124.313 166.442 126.617 166.442Z" stroke="white" stroke-miterlimit="10"/>
<path d="M142.283 215.67C144.587 215.67 146.455 213.802 146.455 211.497C146.455 209.192 144.587 207.323 142.283 207.323C139.979 207.323 138.111 209.192 138.111 211.497C138.111 213.802 139.979 215.67 142.283 215.67Z" stroke="white" stroke-miterlimit="10"/>
<path d="M177.871 204.342C180.175 204.342 182.043 202.474 182.043 200.169C182.043 197.864 180.175 195.996 177.871 195.996C175.567 195.996 173.699 197.864 173.699 200.169C173.699 202.474 175.567 204.342 177.871 204.342Z" stroke="white" stroke-miterlimit="10"/>
<path d="M127.895 166.442L141.006 207.409" stroke="white" stroke-miterlimit="10"/>
<path d="M137.09 158.095L143.049 150.6L146.285 160.65L137.09 158.095Z" stroke="white" stroke-miterlimit="10"/>
<path d="M176.593 195.996L166.973 165.931C164.248 157.329 155.053 152.644 146.454 155.37L144.922 155.881" stroke="white" stroke-miterlimit="10"/>
<path d="M315.648 188.788C322.018 192.536 323.997 200.987 320.069 207.663L297 194.088C300.928 187.412 309.277 185.039 315.648 188.788Z" fill="#F5B82E"/>
<path d="M40.6254 143.702L56.6353 156.804L37.2989 164.02L40.6254 143.702Z" stroke="#414168"/>
<line x1="164.015" y1="77.252" x2="157.633" y2="70.3391" stroke="#414168"/>
</svg>
