<svg width="400" height="400" viewBox="0 0 400 400" fill="none" xmlns="http://www.w3.org/2000/svg">
<path d="M208.378 127.54C209.692 124.481 213.356 123.116 216.563 124.492L211.806 135.573C208.6 134.197 207.065 130.6 208.378 127.54Z" fill="#F5B82E"/>
<path d="M358.053 299.746C356.758 298.451 356.758 296.35 358.054 295.054C359.35 293.758 361.451 293.757 362.746 295.053C364.041 296.348 364.041 298.449 362.745 299.745C361.449 301.041 359.348 301.041 358.053 299.746Z" stroke="#414168"/>
<path d="M327.701 194.7C326.209 196.192 326.209 198.609 327.699 200.099C329.19 201.59 331.607 201.59 333.099 200.098C334.59 198.607 334.59 196.19 333.1 194.699C331.609 193.208 329.192 193.209 327.701 194.7Z" fill="#F685A1"/>
<path d="M24.8209 198.821C23.2627 200.38 23.2701 202.913 24.8375 204.481C26.4049 206.048 28.9387 206.056 30.4969 204.497C32.0552 202.939 32.0477 200.405 30.4804 198.838C28.913 197.271 26.3792 197.263 24.8209 198.821Z" fill="#41CADD"/>
<line x1="312.539" y1="25.6815" x2="317.539" y2="13.8059" stroke="#414168"/>
<line x1="24.8204" y1="255.447" x2="37.5857" y2="250.533" stroke="#414168"/>
<line x1="349.842" y1="226.526" x2="361.842" y2="222.526" stroke="#414168"/>
<line x1="266.039" y1="30.6177" x2="257.227" y2="21.0601" stroke="#414168"/>
<line x1="344" y1="56.5" x2="332" y2="56.5" stroke="#414168"/>
<line x1="368.827" y1="273.469" x2="349.826" y2="266.469" stroke="#414168"/>
<path d="M71.214 183.262L61.6842 191.947L58.8644 179.369L71.214 183.262Z" fill="#F5B82E"/>
<path d="M293.058 203.371H103.137C97.8058 203.371 92.6183 206.466 91.6817 210.425L68.6261 304.204C67.1851 310.106 71.436 315 78.2086 315H317.915C324.687 315 328.938 310.106 327.497 304.204L304.442 210.425C303.505 206.538 298.39 203.371 293.058 203.371Z" stroke="#414168" stroke-miterlimit="10"/>
<path d="M230.23 270.881H165.891C163.657 270.881 161.712 272.393 161.568 274.264L159.983 295.999C159.839 298.015 161.64 299.742 164.017 299.742H232.103C234.481 299.742 236.282 298.086 236.138 295.999L234.553 274.264C234.409 272.393 232.464 270.881 230.23 270.881Z" stroke="#414168" stroke-miterlimit="10"/>
<path d="M301.703 64.6094H93.4824V202.724H301.703V64.6094Z" fill="#A787FF"/>
<path d="M113.655 216.47H106.234C105.153 216.47 104.144 217.19 103.928 218.054L102.631 224.099C102.415 224.963 103.208 225.755 104.289 225.755H111.854C112.934 225.755 114.015 225.035 114.159 224.099L115.312 218.054C115.456 217.19 114.736 216.47 113.655 216.47Z" stroke="#414168" stroke-miterlimit="10"/>
<path d="M128.857 216.47H121.436C120.355 216.47 119.347 217.19 119.203 218.054L118.122 224.099C117.978 224.963 118.698 225.755 119.851 225.755H127.416C128.497 225.755 129.505 225.035 129.65 224.099L130.586 218.054C130.73 217.19 129.938 216.47 128.857 216.47Z" stroke="#414168" stroke-miterlimit="10"/>
<path d="M136.712 228.706H129.075C127.995 228.706 126.914 229.425 126.77 230.361L125.761 236.766C125.617 237.702 126.409 238.494 127.562 238.494H135.344C136.496 238.494 137.505 237.702 137.649 236.766L138.514 230.361C138.658 229.425 137.865 228.706 136.712 228.706Z" stroke="#414168" stroke-miterlimit="10"/>
<path d="M143.916 241.661H136.063C134.91 241.661 133.901 242.452 133.757 243.388L132.82 250.153C132.676 251.161 133.541 251.953 134.694 251.953H142.763C143.916 251.953 144.997 251.161 145.069 250.153L145.861 243.388C145.861 242.452 145.069 241.661 143.916 241.661Z" stroke="#414168" stroke-miterlimit="10"/>
<path d="M106.163 255.263H98.0214C96.8686 255.263 95.7158 256.127 95.4997 257.134L93.9867 264.332C93.7705 265.411 94.563 266.275 95.7879 266.275H104.001C105.226 266.275 106.379 265.411 106.523 264.332L107.892 257.134C108.108 256.055 107.316 255.263 106.163 255.263Z" stroke="#414168" stroke-miterlimit="10"/>
<path d="M122.734 255.263H114.592C113.439 255.263 112.287 256.127 112.143 257.134L110.846 264.332C110.63 265.411 111.494 266.275 112.719 266.275H121.005C122.229 266.275 123.31 265.411 123.526 264.332L124.607 257.134C124.751 256.055 123.887 255.263 122.734 255.263Z" stroke="#414168" stroke-miterlimit="10"/>
<path d="M139.305 255.263H131.164C130.011 255.263 128.93 256.127 128.786 257.134L127.705 264.332C127.561 265.411 128.426 266.275 129.578 266.275H137.864C139.089 266.275 140.17 265.411 140.314 264.332L141.178 257.134C141.322 256.055 140.458 255.263 139.305 255.263Z" stroke="#414168" stroke-miterlimit="10"/>
<path d="M259.412 255.263H251.342C250.189 255.263 249.325 256.127 249.397 257.134L250.189 264.332C250.333 265.411 251.414 266.275 252.567 266.275H260.853C262.077 266.275 262.942 265.411 262.798 264.332L261.861 257.134C261.645 256.055 260.636 255.263 259.412 255.263Z" stroke="#414168" stroke-miterlimit="10"/>
<path d="M285.925 255.263H277.279C276.919 255.263 276.63 255.551 276.703 255.839L277.279 259.294C277.351 259.653 277.711 259.941 278.071 259.941H286.789C287.15 259.941 287.438 259.653 287.366 259.294L286.717 255.839C286.717 255.551 286.357 255.263 285.925 255.263Z" stroke="#414168" stroke-miterlimit="10"/>
<path d="M287.077 261.381H278.359C277.999 261.381 277.711 261.669 277.783 262.029L278.359 265.627C278.431 265.987 278.791 266.275 279.152 266.275H288.014C288.374 266.275 288.662 265.987 288.59 265.627L287.941 262.029C287.869 261.669 287.509 261.381 287.077 261.381Z" stroke="#414168" stroke-miterlimit="10"/>
<path d="M300.477 261.381H291.687C291.327 261.381 291.039 261.669 291.111 262.029L291.831 265.627C291.903 265.987 292.263 266.275 292.696 266.275H301.558C301.918 266.275 302.206 265.987 302.134 265.627L301.342 262.029C301.198 261.669 300.837 261.381 300.477 261.381Z" stroke="#414168" stroke-miterlimit="10"/>
<path d="M274.397 261.381H265.607C265.247 261.381 264.959 261.669 264.959 262.029L265.463 265.627C265.535 265.987 265.896 266.275 266.256 266.275H275.118C275.478 266.275 275.766 265.987 275.766 265.627L275.19 262.029C275.118 261.669 274.758 261.381 274.397 261.381Z" stroke="#414168" stroke-miterlimit="10"/>
<path d="M215.389 255.263H147.736C146.583 255.263 145.502 256.127 145.358 257.134L144.565 264.332C144.421 265.411 145.358 266.275 146.511 266.275H215.678C216.902 266.275 217.839 265.411 217.767 264.332L217.479 257.134C217.551 256.055 216.542 255.263 215.389 255.263Z" stroke="#414168" stroke-miterlimit="10"/>
<path d="M159.479 241.661H151.626C150.473 241.661 149.465 242.452 149.393 243.388L148.672 250.153C148.6 251.161 149.465 251.953 150.617 251.953H158.687C159.84 251.953 160.848 251.161 160.993 250.153L161.497 243.388C161.497 242.452 160.632 241.661 159.479 241.661Z" stroke="#414168" stroke-miterlimit="10"/>
<path d="M175.043 241.661H167.189C166.037 241.661 165.028 242.452 164.956 243.388L164.451 250.153C164.379 251.161 165.244 251.953 166.469 251.953H174.538C175.691 251.953 176.7 251.161 176.772 250.153L177.06 243.388C177.06 242.452 176.195 241.661 175.043 241.661Z" stroke="#414168" stroke-miterlimit="10"/>
<path d="M190.604 241.661H182.75C181.598 241.661 180.661 242.452 180.589 243.388L180.301 250.153C180.229 251.161 181.165 251.953 182.39 251.953H190.46C191.612 251.953 192.621 251.161 192.621 250.153L192.693 243.388C192.693 242.452 191.757 241.661 190.604 241.661Z" stroke="#414168" stroke-miterlimit="10"/>
<path d="M206.165 241.661H198.312C197.159 241.661 196.223 242.452 196.223 243.388V250.153C196.223 251.161 197.159 251.953 198.312 251.953H206.382C207.534 251.953 208.471 251.161 208.471 250.153L208.327 243.388C208.255 242.452 207.318 241.661 206.165 241.661Z" stroke="#414168" stroke-miterlimit="10"/>
<path d="M221.73 241.661H213.877C212.724 241.661 211.787 242.452 211.859 243.388L212.076 250.153C212.076 251.161 213.084 251.953 214.237 251.953H222.306C223.459 251.953 224.396 251.161 224.324 250.153L223.964 243.388C223.892 242.452 222.883 241.661 221.73 241.661Z" stroke="#414168" stroke-miterlimit="10"/>
<path d="M237.291 241.661H229.438C228.285 241.661 227.42 242.452 227.492 243.388L227.925 250.153C227.997 251.161 229.006 251.953 230.158 251.953H238.228C239.381 251.953 240.245 251.161 240.173 250.153L239.597 243.388C239.453 242.452 238.444 241.661 237.291 241.661Z" stroke="#414168" stroke-miterlimit="10"/>
<path d="M252.928 241.661H245.075C243.922 241.661 243.057 242.452 243.201 243.388L243.85 250.153C243.922 251.161 245.002 251.953 246.155 251.953H254.225C255.377 251.953 256.242 251.161 256.098 250.153L255.233 243.388C255.089 242.452 254.081 241.661 252.928 241.661Z" stroke="#414168" stroke-miterlimit="10"/>
<path d="M268.489 241.661H260.636C259.483 241.661 258.69 242.452 258.762 243.388L259.627 250.153C259.771 251.161 260.852 251.953 262.005 251.953H270.074C271.227 251.953 272.091 251.161 271.947 250.153L270.867 243.388C270.65 242.452 269.642 241.661 268.489 241.661Z" stroke="#414168" stroke-miterlimit="10"/>
<path d="M294.858 241.661H276.197C275.044 241.661 274.252 242.452 274.396 243.388L275.549 250.153C275.693 251.161 276.773 251.953 277.998 251.953H297.091C298.244 251.953 299.036 251.161 298.82 250.153L297.379 243.388C297.091 242.452 296.01 241.661 294.858 241.661Z" stroke="#414168" stroke-miterlimit="10"/>
<path d="M152.345 228.706H144.708C143.627 228.706 142.618 229.425 142.474 230.361L141.682 236.766C141.538 237.702 142.402 238.494 143.555 238.494H151.336C152.489 238.494 153.498 237.702 153.57 236.766L154.218 230.361C154.29 229.425 153.498 228.706 152.345 228.706Z" stroke="#414168" stroke-miterlimit="10"/>
<path d="M167.981 228.706H160.344C159.263 228.706 158.254 229.425 158.182 230.361L157.606 236.766C157.534 237.702 158.398 238.494 159.551 238.494H167.332C168.485 238.494 169.422 237.702 169.494 236.766L169.926 230.361C169.998 229.425 169.134 228.706 167.981 228.706Z" stroke="#414168" stroke-miterlimit="10"/>
<path d="M183.614 228.706H175.977C174.896 228.706 173.888 229.425 173.888 230.361L173.527 236.766C173.455 237.702 174.392 238.494 175.473 238.494H183.254C184.407 238.494 185.343 237.702 185.343 236.766L185.487 230.361C185.632 229.425 184.767 228.706 183.614 228.706Z" stroke="#414168" stroke-miterlimit="10"/>
<path d="M199.25 228.706H191.613C190.532 228.706 189.595 229.425 189.595 230.361L189.451 236.766C189.451 237.702 190.316 238.494 191.469 238.494H199.25C200.403 238.494 201.339 237.702 201.267 236.766L201.195 230.361C201.339 229.425 200.403 228.706 199.25 228.706Z" stroke="#414168" stroke-miterlimit="10"/>
<path d="M214.885 228.706H207.248C206.167 228.706 205.23 229.425 205.23 230.361L205.303 236.766C205.303 237.702 206.239 238.494 207.392 238.494H215.173C216.326 238.494 217.191 237.702 217.191 236.766L216.902 230.361C216.974 229.425 216.038 228.706 214.885 228.706Z" stroke="#414168" stroke-miterlimit="10"/>
<path d="M230.592 228.706H222.883C221.802 228.706 220.865 229.425 220.937 230.361L221.298 236.766C221.37 237.702 222.306 238.494 223.459 238.494H231.24C232.393 238.494 233.258 237.702 233.186 236.766L232.681 230.361C232.609 229.425 231.673 228.706 230.592 228.706Z" stroke="#414168" stroke-miterlimit="10"/>
<path d="M246.226 228.706H238.588C237.508 228.706 236.643 229.425 236.715 230.361L237.292 236.766C237.364 237.702 238.372 238.494 239.525 238.494H247.306C248.459 238.494 249.252 237.702 249.18 236.766L248.459 230.361C248.315 229.425 247.306 228.706 246.226 228.706Z" stroke="#414168" stroke-miterlimit="10"/>
<path d="M261.858 228.706H254.221C253.141 228.706 252.276 229.425 252.42 230.361L253.213 236.766C253.357 237.702 254.365 238.494 255.518 238.494H263.227C264.38 238.494 265.173 237.702 265.029 236.766L264.092 230.361C263.948 229.425 262.939 228.706 261.858 228.706Z" stroke="#414168" stroke-miterlimit="10"/>
<path d="M277.495 228.706H269.857C268.777 228.706 267.984 229.425 268.128 230.361L269.137 236.766C269.281 237.702 270.362 238.494 271.443 238.494H279.224C280.377 238.494 281.169 237.702 280.953 236.766L279.8 230.361C279.656 229.425 278.575 228.706 277.495 228.706Z" stroke="#414168" stroke-miterlimit="10"/>
<path d="M292.12 228.706H284.482C283.402 228.706 282.609 229.425 282.753 230.361L283.978 236.766C284.122 237.702 285.203 238.494 286.356 238.494H294.209C295.362 238.494 296.082 237.702 295.938 236.766L294.569 230.361C294.281 229.425 293.272 228.706 292.12 228.706Z" stroke="#414168" stroke-miterlimit="10"/>
<path d="M144.06 216.47H136.639C135.558 216.47 134.549 217.19 134.477 218.054L133.613 224.099C133.469 224.963 134.261 225.755 135.414 225.755H142.907C143.988 225.755 144.996 225.035 145.14 224.099L145.861 218.054C145.933 217.19 145.14 216.47 144.06 216.47Z" stroke="#414168" stroke-miterlimit="10"/>
<path d="M159.263 216.47H151.842C150.761 216.47 149.824 217.19 149.68 218.054L149.032 224.099C148.96 224.963 149.752 225.755 150.833 225.755H158.398C159.479 225.755 160.488 225.035 160.56 224.099L161.064 218.054C161.208 217.19 160.344 216.47 159.263 216.47Z" stroke="#414168" stroke-miterlimit="10"/>
<path d="M174.539 216.47H167.118C166.037 216.47 165.1 217.19 165.028 218.054L164.596 224.099C164.524 224.963 165.389 225.755 166.469 225.755H174.034C175.115 225.755 176.052 225.035 176.124 224.099L176.412 218.054C176.412 217.19 175.619 216.47 174.539 216.47Z" stroke="#414168" stroke-miterlimit="10"/>
<path d="M189.74 216.47H182.319C181.239 216.47 180.302 217.19 180.302 218.054L180.086 224.099C180.014 224.963 180.951 225.755 182.031 225.755H189.596C190.677 225.755 191.614 225.035 191.614 224.099L191.686 218.054C191.686 217.19 190.821 216.47 189.74 216.47Z" stroke="#414168" stroke-miterlimit="10"/>
<path d="M204.943 216.47H197.521C196.441 216.47 195.576 217.19 195.576 218.054V224.099C195.576 224.963 196.441 225.755 197.594 225.755H205.159C206.239 225.755 207.176 225.035 207.104 224.099L206.96 218.054C206.888 217.19 206.023 216.47 204.943 216.47Z" stroke="#414168" stroke-miterlimit="10"/>
<path d="M220.144 216.47H212.723C211.642 216.47 210.777 217.19 210.777 218.054L210.921 224.099C210.921 224.963 211.858 225.755 213.011 225.755H220.576C221.657 225.755 222.521 225.035 222.521 224.099L222.161 218.054C222.161 217.19 221.224 216.47 220.144 216.47Z" stroke="#414168" stroke-miterlimit="10"/>
<path d="M235.347 216.47H227.926C226.846 216.47 225.981 217.19 226.053 218.054L226.413 224.099C226.485 224.963 227.422 225.755 228.503 225.755H236.068C237.149 225.755 238.013 225.035 237.941 224.099L237.365 218.054C237.365 217.19 236.428 216.47 235.347 216.47Z" stroke="#414168" stroke-miterlimit="10"/>
<path d="M250.549 216.47H243.128C242.047 216.47 241.255 217.19 241.327 218.054L241.903 224.099C241.975 224.963 242.984 225.755 244.065 225.755H251.702C252.783 225.755 253.647 225.035 253.503 224.099L252.783 218.054C252.638 217.19 251.63 216.47 250.549 216.47Z" stroke="#414168" stroke-miterlimit="10"/>
<path d="M265.751 216.47H258.33C257.249 216.47 256.457 217.19 256.601 218.054L257.393 224.099C257.538 224.963 258.474 225.755 259.627 225.755H267.192C268.273 225.755 269.065 225.035 268.921 224.099L267.985 218.054C267.841 217.19 266.832 216.47 265.751 216.47Z" stroke="#414168" stroke-miterlimit="10"/>
<path d="M289.598 216.47H273.604C272.523 216.47 271.73 217.19 271.874 218.054L272.883 224.099C273.027 224.963 274.036 225.755 275.189 225.755H291.544C292.624 225.755 293.417 225.035 293.201 224.099L291.904 218.054C291.688 217.19 290.679 216.47 289.598 216.47Z" stroke="#414168" stroke-miterlimit="10"/>
<path d="M120.069 228.706H103.641C102.561 228.706 101.48 229.425 101.264 230.361L99.895 236.766C99.6788 237.702 100.471 238.494 101.624 238.494H118.411C119.564 238.494 120.573 237.702 120.789 236.766L121.87 230.361C122.014 229.425 121.221 228.706 120.069 228.706Z" stroke="#414168" stroke-miterlimit="10"/>
<path d="M243.127 255.263H224.539C223.386 255.263 222.449 256.127 222.521 257.134L222.882 264.332C222.954 265.411 223.962 266.275 225.187 266.275H244.208C245.433 266.275 246.298 265.411 246.226 264.332L245.505 257.134C245.361 256.055 244.352 255.263 243.127 255.263Z" stroke="#414168" stroke-miterlimit="10"/>
<path d="M128.067 241.661H100.905C99.7519 241.661 98.6712 242.452 98.4551 243.388L97.0141 250.153C96.7979 251.161 97.5905 251.953 98.7433 251.953H126.482C127.635 251.953 128.716 251.161 128.86 250.153L129.868 243.388C130.012 242.452 129.22 241.661 128.067 241.661Z" stroke="#414168" stroke-miterlimit="10"/>
<path d="M292.265 74.4696H103.857V192.936H292.265V74.4696Z" fill="white"/>
<path d="M221.658 130.968C226.99 130.824 232.321 130.608 237.725 130.464C238.229 130.464 238.806 130.464 239.238 130.824C239.598 131.112 239.67 131.615 239.742 132.047C240.319 135.07 240.895 138.093 241.472 141.116" stroke="#414168" stroke-miterlimit="10"/>
<path d="M223.389 152.703C228.648 152.487 233.98 152.343 239.239 152.127C239.6 152.127 240.032 152.127 240.392 152.343C240.824 152.631 240.897 153.207 240.969 153.711C241.401 158.317 241.905 162.851 242.337 167.457" stroke="#414168" stroke-miterlimit="10"/>
<path d="M216.975 168.753C219.352 168.753 221.658 168.753 224.035 168.681C224.468 168.681 224.9 168.681 225.188 168.897C225.693 169.257 225.765 169.904 225.837 170.552C225.981 172.495 226.053 174.439 226.197 176.382" stroke="#414168" stroke-miterlimit="10"/>
<path d="M174.899 130.968C169.568 130.824 164.236 130.608 158.832 130.464C158.328 130.464 157.752 130.464 157.319 130.824C156.959 131.112 156.887 131.615 156.815 132.047C156.239 135.07 155.662 138.093 155.086 141.116" stroke="#414168" stroke-miterlimit="10"/>
<path d="M173.17 152.703C167.91 152.487 162.578 152.343 157.319 152.127C156.959 152.127 156.526 152.127 156.166 152.343C155.734 152.631 155.662 153.207 155.59 153.711C155.157 158.317 154.653 162.851 154.221 167.457" stroke="#414168" stroke-miterlimit="10"/>
<path d="M179.582 168.753C177.204 168.753 174.898 168.753 172.521 168.681C172.089 168.681 171.656 168.681 171.368 168.897C170.864 169.257 170.792 169.904 170.72 170.552C170.576 172.495 170.503 174.439 170.359 176.382" stroke="#414168" stroke-miterlimit="10"/>
<path d="M187.075 96.493C183.688 93.5422 180.23 90.5913 176.844 87.5685" stroke="#414168" stroke-miterlimit="10"/>
<path d="M211.285 95.9172C213.086 92.0307 214.96 88.2162 216.905 84.4736" stroke="#414168" stroke-miterlimit="10"/>
<path d="M168.414 148.889C168.414 149.177 168.414 149.464 168.414 149.752C168.414 166.162 180.806 179.621 196.729 181.348V118.157H168.414V148.889Z" fill="#41CADD"/>
<path d="M230.087 148.889V118.157H201.771V181.42C217.694 179.693 230.087 166.234 230.087 149.824C230.087 149.464 230.087 149.177 230.087 148.889Z" fill="#41CADD"/>
<path d="M199.395 90.0875C186.498 90.0875 176.051 100.523 176.051 113.406H222.81C222.81 100.523 212.363 90.0875 199.395 90.0875Z" fill="#41CADD"/>
<path d="M284.504 31.4356C284.769 30.6733 285.781 30.5231 286.257 31.1755L331.279 92.9979C331.721 93.6055 331.36 94.4658 330.617 94.5758L260.468 104.96C259.724 105.07 259.13 104.352 259.377 103.642L284.504 31.4356Z" fill="#F5B82E"/>
<g clip-path="url(#clip0)">
<path d="M287.814 49.2197C288.736 58.4938 290.412 67.5977 292.675 76.6165" stroke="#414168" stroke-miterlimit="10"/>
<path d="M294.015 81.8916C292.758 82.8275 292.674 85.2098 293.931 86.2308C295.44 87.5922 298.121 85.8905 297.702 83.7634C297.283 81.6364 294.266 80.9557 293.345 82.8275" stroke="#414168" stroke-miterlimit="10"/>
</g>
<path d="M172.321 37.3844L176.16 44.176L182.944 40.3234L179.105 33.5317L172.321 37.3844Z" fill="#144BC1"/>
<path d="M47.687 300.509L41.7727 303.868L38.426 297.947L44.3403 294.588L47.687 300.509Z" stroke="#414168"/>
<path d="M52.4404 135.56L64.6367 130.612L59.6947 118.373L47.4983 123.32L52.4404 135.56Z" fill="#F685A1"/>
<path d="M329.999 145.456L338.196 152.164L328.296 155.858L329.999 145.456Z" stroke="#414168"/>
<line x1="72.6464" y1="51.3536" x2="56.6464" y2="35.3536" stroke="#414168"/>
<defs>
<clipPath id="clip0">
<rect width="10.727" height="38.0322" fill="white" transform="translate(287.395 49.1346)"/>
</clipPath>
</defs>
</svg>
