<svg width="400" height="400" viewBox="0 0 400 400" fill="none" xmlns="http://www.w3.org/2000/svg">
<path d="M208.378 127.54C209.692 124.48 213.356 123.115 216.563 124.492L211.806 135.573C208.6 134.196 207.065 130.6 208.378 127.54Z" fill="#F5B82E"/>
<path d="M101.482 65.1094H293.703C297.845 65.1094 301.203 68.4672 301.203 72.6094V194.724C301.203 198.866 297.845 202.224 293.703 202.224H101.482C97.3403 202.224 93.9824 198.866 93.9824 194.724V72.6094C93.9824 68.4672 97.3403 65.1094 101.482 65.1094Z" stroke="white"/>
<path d="M293.058 203.371H103.137C97.8058 203.371 92.6183 206.466 91.6817 210.424L68.6261 304.204C67.1851 310.106 71.436 315 78.2086 315H317.915C324.687 315 328.938 310.106 327.497 304.204L304.442 210.424C303.505 206.538 298.39 203.371 293.058 203.371Z" stroke="#515873" stroke-miterlimit="10"/>
<path d="M230.23 270.881H165.891C163.657 270.881 161.712 272.392 161.568 274.264L159.983 295.999C159.839 298.014 161.64 299.742 164.017 299.742H232.103C234.481 299.742 236.282 298.086 236.138 295.999L234.553 274.264C234.409 272.392 232.464 270.881 230.23 270.881Z" stroke="#515873" stroke-miterlimit="10"/>
<path d="M113.655 216.471H106.234C105.153 216.471 104.144 217.19 103.928 218.054L102.631 224.1C102.415 224.963 103.208 225.755 104.289 225.755H111.854C112.934 225.755 114.015 225.035 114.159 224.1L115.312 218.054C115.456 217.19 114.736 216.471 113.655 216.471Z" stroke="#515873" stroke-miterlimit="10"/>
<path d="M128.857 216.471H121.436C120.355 216.471 119.347 217.19 119.203 218.054L118.122 224.1C117.978 224.963 118.698 225.755 119.851 225.755H127.416C128.497 225.755 129.505 225.035 129.65 224.1L130.586 218.054C130.73 217.19 129.938 216.471 128.857 216.471Z" stroke="#515873" stroke-miterlimit="10"/>
<path d="M136.712 228.705H129.075C127.995 228.705 126.914 229.425 126.77 230.36L125.761 236.766C125.617 237.702 126.409 238.493 127.562 238.493H135.344C136.496 238.493 137.505 237.702 137.649 236.766L138.514 230.36C138.658 229.425 137.865 228.705 136.712 228.705Z" stroke="#515873" stroke-miterlimit="10"/>
<path d="M143.916 241.66H136.063C134.91 241.66 133.901 242.452 133.757 243.387L132.82 250.153C132.676 251.16 133.541 251.952 134.694 251.952H142.763C143.916 251.952 144.997 251.16 145.069 250.153L145.861 243.387C145.861 242.452 145.069 241.66 143.916 241.66Z" stroke="#515873" stroke-miterlimit="10"/>
<path d="M106.163 255.264H98.0214C96.8686 255.264 95.7158 256.127 95.4997 257.135L93.9867 264.332C93.7705 265.412 94.563 266.275 95.7879 266.275H104.001C105.226 266.275 106.379 265.412 106.523 264.332L107.892 257.135C108.108 256.055 107.316 255.264 106.163 255.264Z" stroke="#515873" stroke-miterlimit="10"/>
<path d="M122.734 255.264H114.592C113.439 255.264 112.287 256.127 112.143 257.135L110.846 264.332C110.63 265.412 111.494 266.275 112.719 266.275H121.005C122.229 266.275 123.31 265.412 123.526 264.332L124.607 257.135C124.751 256.055 123.887 255.264 122.734 255.264Z" stroke="#515873" stroke-miterlimit="10"/>
<path d="M139.305 255.264H131.164C130.011 255.264 128.93 256.127 128.786 257.135L127.705 264.332C127.561 265.412 128.426 266.275 129.578 266.275H137.864C139.089 266.275 140.17 265.412 140.314 264.332L141.178 257.135C141.322 256.055 140.458 255.264 139.305 255.264Z" stroke="#515873" stroke-miterlimit="10"/>
<path d="M259.412 255.264H251.342C250.189 255.264 249.325 256.127 249.397 257.135L250.189 264.332C250.333 265.412 251.414 266.275 252.567 266.275H260.853C262.077 266.275 262.942 265.412 262.798 264.332L261.861 257.135C261.645 256.055 260.636 255.264 259.412 255.264Z" stroke="#515873" stroke-miterlimit="10"/>
<path d="M285.925 255.264H277.279C276.919 255.264 276.63 255.552 276.703 255.839L277.279 259.294C277.351 259.654 277.711 259.942 278.071 259.942H286.789C287.15 259.942 287.438 259.654 287.366 259.294L286.717 255.839C286.717 255.552 286.357 255.264 285.925 255.264Z" stroke="#515873" stroke-miterlimit="10"/>
<path d="M287.077 261.381H278.359C277.999 261.381 277.711 261.669 277.783 262.029L278.359 265.627C278.431 265.987 278.791 266.275 279.152 266.275H288.014C288.374 266.275 288.662 265.987 288.59 265.627L287.941 262.029C287.869 261.669 287.509 261.381 287.077 261.381Z" stroke="#515873" stroke-miterlimit="10"/>
<path d="M300.477 261.381H291.687C291.327 261.381 291.039 261.669 291.111 262.029L291.831 265.627C291.903 265.987 292.263 266.275 292.696 266.275H301.558C301.918 266.275 302.206 265.987 302.134 265.627L301.342 262.029C301.198 261.669 300.837 261.381 300.477 261.381Z" stroke="#515873" stroke-miterlimit="10"/>
<path d="M274.397 261.381H265.607C265.247 261.381 264.959 261.669 264.959 262.029L265.463 265.627C265.535 265.987 265.896 266.275 266.256 266.275H275.118C275.478 266.275 275.766 265.987 275.766 265.627L275.19 262.029C275.118 261.669 274.758 261.381 274.397 261.381Z" stroke="#515873" stroke-miterlimit="10"/>
<path d="M215.389 255.264H147.736C146.583 255.264 145.502 256.127 145.358 257.135L144.565 264.332C144.421 265.412 145.358 266.275 146.511 266.275H215.678C216.902 266.275 217.839 265.412 217.767 264.332L217.479 257.135C217.551 256.055 216.542 255.264 215.389 255.264Z" stroke="#515873" stroke-miterlimit="10"/>
<path d="M159.479 241.66H151.626C150.473 241.66 149.465 242.452 149.393 243.387L148.672 250.153C148.6 251.16 149.465 251.952 150.617 251.952H158.687C159.84 251.952 160.848 251.16 160.993 250.153L161.497 243.387C161.497 242.452 160.632 241.66 159.479 241.66Z" stroke="#515873" stroke-miterlimit="10"/>
<path d="M175.043 241.66H167.189C166.037 241.66 165.028 242.452 164.956 243.387L164.451 250.153C164.379 251.16 165.244 251.952 166.469 251.952H174.538C175.691 251.952 176.7 251.16 176.772 250.153L177.06 243.387C177.06 242.452 176.195 241.66 175.043 241.66Z" stroke="#515873" stroke-miterlimit="10"/>
<path d="M190.604 241.66H182.75C181.598 241.66 180.661 242.452 180.589 243.387L180.301 250.153C180.229 251.16 181.165 251.952 182.39 251.952H190.46C191.612 251.952 192.621 251.16 192.621 250.153L192.693 243.387C192.693 242.452 191.757 241.66 190.604 241.66Z" stroke="#515873" stroke-miterlimit="10"/>
<path d="M206.165 241.66H198.312C197.159 241.66 196.223 242.452 196.223 243.387V250.153C196.223 251.16 197.159 251.952 198.312 251.952H206.382C207.534 251.952 208.471 251.16 208.471 250.153L208.327 243.387C208.255 242.452 207.318 241.66 206.165 241.66Z" stroke="#515873" stroke-miterlimit="10"/>
<path d="M221.73 241.66H213.877C212.724 241.66 211.787 242.452 211.859 243.387L212.076 250.153C212.076 251.16 213.084 251.952 214.237 251.952H222.306C223.459 251.952 224.396 251.16 224.324 250.153L223.964 243.387C223.892 242.452 222.883 241.66 221.73 241.66Z" stroke="#515873" stroke-miterlimit="10"/>
<path d="M237.291 241.66H229.438C228.285 241.66 227.42 242.452 227.492 243.387L227.925 250.153C227.997 251.16 229.006 251.952 230.158 251.952H238.228C239.381 251.952 240.245 251.16 240.173 250.153L239.597 243.387C239.453 242.452 238.444 241.66 237.291 241.66Z" stroke="#515873" stroke-miterlimit="10"/>
<path d="M252.928 241.66H245.075C243.922 241.66 243.057 242.452 243.201 243.387L243.85 250.153C243.922 251.16 245.002 251.952 246.155 251.952H254.225C255.377 251.952 256.242 251.16 256.098 250.153L255.233 243.387C255.089 242.452 254.081 241.66 252.928 241.66Z" stroke="#515873" stroke-miterlimit="10"/>
<path d="M268.489 241.66H260.636C259.483 241.66 258.69 242.452 258.762 243.387L259.627 250.153C259.771 251.16 260.852 251.952 262.005 251.952H270.074C271.227 251.952 272.091 251.16 271.947 250.153L270.867 243.387C270.65 242.452 269.642 241.66 268.489 241.66Z" stroke="#515873" stroke-miterlimit="10"/>
<path d="M294.858 241.66H276.197C275.044 241.66 274.252 242.452 274.396 243.387L275.549 250.153C275.693 251.16 276.773 251.952 277.998 251.952H297.091C298.244 251.952 299.036 251.16 298.82 250.153L297.379 243.387C297.091 242.452 296.01 241.66 294.858 241.66Z" stroke="#515873" stroke-miterlimit="10"/>
<path d="M152.345 228.705H144.708C143.627 228.705 142.618 229.425 142.474 230.36L141.682 236.766C141.538 237.702 142.402 238.493 143.555 238.493H151.336C152.489 238.493 153.498 237.702 153.57 236.766L154.218 230.36C154.29 229.425 153.498 228.705 152.345 228.705Z" stroke="#515873" stroke-miterlimit="10"/>
<path d="M167.981 228.705H160.344C159.263 228.705 158.254 229.425 158.182 230.36L157.606 236.766C157.534 237.702 158.398 238.493 159.551 238.493H167.332C168.485 238.493 169.422 237.702 169.494 236.766L169.926 230.36C169.998 229.425 169.134 228.705 167.981 228.705Z" stroke="#515873" stroke-miterlimit="10"/>
<path d="M183.614 228.705H175.977C174.896 228.705 173.888 229.425 173.888 230.36L173.527 236.766C173.455 237.702 174.392 238.493 175.473 238.493H183.254C184.407 238.493 185.343 237.702 185.343 236.766L185.487 230.36C185.632 229.425 184.767 228.705 183.614 228.705Z" stroke="#515873" stroke-miterlimit="10"/>
<path d="M199.25 228.705H191.613C190.532 228.705 189.595 229.425 189.595 230.36L189.451 236.766C189.451 237.702 190.316 238.493 191.469 238.493H199.25C200.403 238.493 201.339 237.702 201.267 236.766L201.195 230.36C201.339 229.425 200.403 228.705 199.25 228.705Z" stroke="#515873" stroke-miterlimit="10"/>
<path d="M214.885 228.705H207.248C206.167 228.705 205.23 229.425 205.23 230.36L205.303 236.766C205.303 237.702 206.239 238.493 207.392 238.493H215.173C216.326 238.493 217.191 237.702 217.191 236.766L216.902 230.36C216.974 229.425 216.038 228.705 214.885 228.705Z" stroke="#515873" stroke-miterlimit="10"/>
<path d="M230.592 228.705H222.883C221.802 228.705 220.865 229.425 220.937 230.36L221.298 236.766C221.37 237.702 222.306 238.493 223.459 238.493H231.24C232.393 238.493 233.258 237.702 233.186 236.766L232.681 230.36C232.609 229.425 231.673 228.705 230.592 228.705Z" stroke="#515873" stroke-miterlimit="10"/>
<path d="M246.226 228.705H238.588C237.508 228.705 236.643 229.425 236.715 230.36L237.292 236.766C237.364 237.702 238.372 238.493 239.525 238.493H247.306C248.459 238.493 249.252 237.702 249.18 236.766L248.459 230.36C248.315 229.425 247.306 228.705 246.226 228.705Z" stroke="#515873" stroke-miterlimit="10"/>
<path d="M261.858 228.705H254.221C253.141 228.705 252.276 229.425 252.42 230.36L253.213 236.766C253.357 237.702 254.365 238.493 255.518 238.493H263.227C264.38 238.493 265.173 237.702 265.029 236.766L264.092 230.36C263.948 229.425 262.939 228.705 261.858 228.705Z" stroke="#515873" stroke-miterlimit="10"/>
<path d="M277.495 228.705H269.857C268.777 228.705 267.984 229.425 268.128 230.36L269.137 236.766C269.281 237.702 270.362 238.493 271.443 238.493H279.224C280.377 238.493 281.169 237.702 280.953 236.766L279.8 230.36C279.656 229.425 278.575 228.705 277.495 228.705Z" stroke="#515873" stroke-miterlimit="10"/>
<path d="M292.12 228.705H284.482C283.402 228.705 282.609 229.425 282.753 230.36L283.978 236.766C284.122 237.702 285.203 238.493 286.356 238.493H294.209C295.362 238.493 296.082 237.702 295.938 236.766L294.569 230.36C294.281 229.425 293.272 228.705 292.12 228.705Z" stroke="#515873" stroke-miterlimit="10"/>
<path d="M144.06 216.471H136.639C135.558 216.471 134.549 217.19 134.477 218.054L133.613 224.1C133.469 224.963 134.261 225.755 135.414 225.755H142.907C143.988 225.755 144.996 225.035 145.14 224.1L145.861 218.054C145.933 217.19 145.14 216.471 144.06 216.471Z" stroke="#515873" stroke-miterlimit="10"/>
<path d="M159.263 216.471H151.842C150.761 216.471 149.824 217.19 149.68 218.054L149.032 224.1C148.96 224.963 149.752 225.755 150.833 225.755H158.398C159.479 225.755 160.488 225.035 160.56 224.1L161.064 218.054C161.208 217.19 160.344 216.471 159.263 216.471Z" stroke="#515873" stroke-miterlimit="10"/>
<path d="M174.539 216.471H167.118C166.037 216.471 165.1 217.19 165.028 218.054L164.596 224.1C164.524 224.963 165.389 225.755 166.469 225.755H174.034C175.115 225.755 176.052 225.035 176.124 224.1L176.412 218.054C176.412 217.19 175.619 216.471 174.539 216.471Z" stroke="#515873" stroke-miterlimit="10"/>
<path d="M189.74 216.471H182.319C181.239 216.471 180.302 217.19 180.302 218.054L180.086 224.1C180.014 224.963 180.951 225.755 182.031 225.755H189.596C190.677 225.755 191.614 225.035 191.614 224.1L191.686 218.054C191.686 217.19 190.821 216.471 189.74 216.471Z" stroke="#515873" stroke-miterlimit="10"/>
<path d="M204.943 216.471H197.521C196.441 216.471 195.576 217.19 195.576 218.054V224.1C195.576 224.963 196.441 225.755 197.594 225.755H205.159C206.239 225.755 207.176 225.035 207.104 224.1L206.96 218.054C206.888 217.19 206.023 216.471 204.943 216.471Z" stroke="#515873" stroke-miterlimit="10"/>
<path d="M220.144 216.471H212.723C211.642 216.471 210.777 217.19 210.777 218.054L210.921 224.1C210.921 224.963 211.858 225.755 213.011 225.755H220.576C221.657 225.755 222.521 225.035 222.521 224.1L222.161 218.054C222.161 217.19 221.224 216.471 220.144 216.471Z" stroke="#515873" stroke-miterlimit="10"/>
<path d="M235.347 216.471H227.926C226.846 216.471 225.981 217.19 226.053 218.054L226.413 224.1C226.485 224.963 227.422 225.755 228.503 225.755H236.068C237.149 225.755 238.013 225.035 237.941 224.1L237.365 218.054C237.365 217.19 236.428 216.471 235.347 216.471Z" stroke="#515873" stroke-miterlimit="10"/>
<path d="M250.549 216.471H243.128C242.047 216.471 241.255 217.19 241.327 218.054L241.903 224.1C241.975 224.963 242.984 225.755 244.065 225.755H251.702C252.783 225.755 253.647 225.035 253.503 224.1L252.783 218.054C252.638 217.19 251.63 216.471 250.549 216.471Z" stroke="#515873" stroke-miterlimit="10"/>
<path d="M265.751 216.471H258.33C257.249 216.471 256.457 217.19 256.601 218.054L257.393 224.1C257.538 224.963 258.474 225.755 259.627 225.755H267.192C268.273 225.755 269.065 225.035 268.921 224.1L267.985 218.054C267.841 217.19 266.832 216.471 265.751 216.471Z" stroke="#515873" stroke-miterlimit="10"/>
<path d="M289.598 216.471H273.604C272.523 216.471 271.73 217.19 271.874 218.054L272.883 224.1C273.027 224.963 274.036 225.755 275.189 225.755H291.544C292.624 225.755 293.417 225.035 293.201 224.1L291.904 218.054C291.688 217.19 290.679 216.471 289.598 216.471Z" stroke="#515873" stroke-miterlimit="10"/>
<path d="M120.069 228.705H103.641C102.561 228.705 101.48 229.425 101.264 230.36L99.895 236.766C99.6788 237.702 100.471 238.493 101.624 238.493H118.411C119.564 238.493 120.573 237.702 120.789 236.766L121.87 230.36C122.014 229.425 121.221 228.705 120.069 228.705Z" stroke="#515873" stroke-miterlimit="10"/>
<path d="M243.127 255.264H224.539C223.386 255.264 222.449 256.127 222.521 257.135L222.882 264.332C222.954 265.412 223.962 266.275 225.187 266.275H244.208C245.433 266.275 246.298 265.412 246.226 264.332L245.505 257.135C245.361 256.055 244.352 255.264 243.127 255.264Z" stroke="#515873" stroke-miterlimit="10"/>
<path d="M128.067 241.66H100.905C99.7519 241.66 98.6712 242.452 98.4551 243.387L97.0141 250.153C96.7979 251.16 97.5905 251.952 98.7433 251.952H126.482C127.635 251.952 128.716 251.16 128.86 250.153L129.868 243.387C130.012 242.452 129.22 241.66 128.067 241.66Z" stroke="#515873" stroke-miterlimit="10"/>
<path d="M284.265 74.4688H111.857C107.439 74.4688 103.857 78.0505 103.857 82.4688V184.935C103.857 189.353 107.439 192.935 111.857 192.935H284.265C288.683 192.935 292.265 189.353 292.265 184.935V82.4688C292.265 78.0505 288.683 74.4688 284.265 74.4688Z" fill="#22273C"/>
<path d="M229.5 130.969C234.832 130.825 232.321 130.609 237.725 130.465C238.229 130.465 238.806 130.465 239.238 130.825C239.598 131.113 239.67 131.616 239.742 132.048C240.319 135.071 240.895 138.094 241.472 141.117" stroke="#8D64FF" stroke-miterlimit="10"/>
<path d="M229.5 152.705C234.76 152.489 233.979 152.345 239.239 152.129C239.599 152.129 240.031 152.129 240.392 152.345C240.824 152.633 240.896 153.208 240.968 153.712C241.4 158.319 241.905 162.853 242.337 167.459" stroke="#8D64FF" stroke-miterlimit="10"/>
<path d="M223.5 168.754C225.878 168.754 223.658 168.754 226.035 168.682C226.468 168.682 226.9 168.682 227.188 168.898C227.693 169.257 227.765 169.905 227.837 170.553C227.981 172.496 228.053 174.439 228.197 176.383" stroke="#8D64FF" stroke-miterlimit="10"/>
<path d="M168.5 130.969C163.168 130.825 164.236 130.609 158.832 130.465C158.328 130.465 157.752 130.465 157.319 130.825C156.959 131.113 156.887 131.616 156.815 132.048C156.239 135.071 155.662 138.094 155.086 141.117" stroke="#8D64FF" stroke-miterlimit="10"/>
<path d="M168.5 152.705C163.24 152.489 162.578 152.345 157.319 152.129C156.959 152.129 156.526 152.129 156.166 152.345C155.734 152.633 155.662 153.208 155.59 153.712C155.157 158.319 154.653 162.853 154.221 167.459" stroke="#8D64FF" stroke-miterlimit="10"/>
<path d="M175 168.754C172.622 168.754 174.898 168.754 172.521 168.682C172.089 168.682 171.656 168.682 171.368 168.898C170.864 169.257 170.792 169.905 170.72 170.553C170.576 172.496 170.503 174.439 170.359 176.383" stroke="#8D64FF" stroke-miterlimit="10"/>
<path d="M185.5 95.002C182.114 92.0511 180.23 90.5931 176.844 87.5703" stroke="#8D64FF" stroke-miterlimit="10"/>
<path d="M212 94.502C213.801 90.6155 214.96 88.2172 216.905 84.4746" stroke="#8D64FF" stroke-miterlimit="10"/>
<path d="M168.914 149.752V149.75V149.749V149.747V149.745V149.744V149.742V149.74V149.738V149.737V149.735V149.733V149.732V149.73V149.728V149.727V149.725V149.723V149.722V149.72V149.718V149.717V149.715V149.713V149.711V149.71V149.708V149.706V149.705V149.703V149.701V149.7V149.698V149.696V149.695V149.693V149.691V149.69V149.688V149.686V149.684V149.683V149.681V149.679V149.678V149.676V149.674V149.673V149.671V149.669V149.668V149.666V149.664V149.663V149.661V149.659V149.658V149.656V149.654V149.652V149.651V149.649V149.647V149.646V149.644V149.642V149.641V149.639V149.637V149.636V149.634V149.632V149.631V149.629V149.627V149.625V149.624V149.622V149.62V149.619V149.617V149.615V149.614V149.612V149.61V149.609V149.607V149.605V149.604V149.602V149.6V149.598V149.597V149.595V149.593V149.592V149.59V149.588V149.587V149.585V149.583V149.582V149.58V149.578V149.577V149.575V149.573V149.571V149.57V149.568V149.566V149.565V149.563V149.561V149.56V149.558V149.556V149.555V149.553V149.551V149.55V149.548V149.546V149.544V149.543V149.541V149.539V149.538V149.536V149.534V149.533V149.531V149.529V149.528V149.526V149.524V149.523V149.521V149.519V149.517V149.516V149.514V149.512V149.511V149.509V149.507V149.506V149.504V149.502V149.501V149.499V149.497V149.496V149.494V149.492V149.491V149.489V149.487V149.485V149.484V149.482V149.48V149.479V149.477V149.475V149.474V149.472V149.47V149.469V149.467V149.465V149.464V149.462V149.46V149.458V149.457V149.455V149.453V149.452V149.45V149.448V149.447V149.445V149.443V149.442V149.44V149.438V149.437V149.435V149.433V149.431V149.43V149.428V149.426V149.425V149.423V149.421V149.42V149.418V149.416V149.415V149.413V149.411V149.41V149.408V149.406V149.404V149.403V149.401V149.399V149.398V149.396V149.394V149.393V149.391V149.389V149.388V149.386V149.384V149.383V149.381V149.379V149.377V149.376V149.374V149.372V149.371V149.369V149.367V149.366V149.364V149.362V149.361V149.359V149.357V149.356V149.354V149.352V149.35V149.349V149.347V149.345V149.344V149.342V149.34V149.339V149.337V149.335V149.334V149.332V149.33V149.329V149.327V149.325V149.324V149.322V149.32V149.318V149.317V149.315V149.313V149.312V149.31V149.308V149.307V149.305V149.303V149.302V149.3V149.298V149.297V149.295V149.293V149.291V149.29V149.288V149.286V149.285V149.283V149.281V149.28V149.278V149.276V149.275V149.273V149.271V149.27V149.268V149.266V149.264V149.263V149.261V149.259V149.258V149.256V149.254V149.253V149.251V149.249V149.248V149.246V149.244V149.243V149.241V149.239V149.237V149.236V149.234V149.232V149.231V149.229V149.227V149.226V149.224V149.222V149.221V149.219V149.217V149.216V149.214V149.212V149.21V149.209V149.207V149.205V149.204V149.202V149.2V149.199V149.197V149.195V149.194V149.192V149.19V149.189V149.187V149.185V149.184V149.182V149.18V149.178V149.177V149.175V149.173V149.172V149.17V149.168V149.167V149.165V149.163V149.162V149.16V149.158V149.157V149.155V149.153V149.151V149.15V149.148V149.146V149.145V149.143V149.141V149.14V149.138V149.136V149.135V149.133V149.131V149.13V149.128V149.126V149.124V149.123V149.121V149.119V149.118V149.116V149.114V149.113V149.111V149.109V149.108V149.106V149.104V149.103V149.101V149.099V149.097V149.096V149.094V149.092V149.091V149.089V149.087V149.086V149.084V149.082V149.081V149.079V149.077V149.076V149.074V149.072V149.07V149.069V149.067V149.065V149.064V149.062V149.06V149.059V149.057V149.055V149.054V149.052V149.05V149.049V149.047V149.045V149.043V149.042V149.04V149.038V149.037V149.035V149.033V149.032V149.03V149.028V149.027V149.025V149.023V149.022V149.02V149.018V149.017V149.015V149.013V149.011V149.01V149.008V149.006V149.005V149.003V149.001V149V148.998V148.996V148.995V148.993V148.991V148.99V148.988V148.986V148.984V148.983V148.981V148.979V148.978V148.976V148.974V148.973V148.971V148.969V148.968V148.966V148.964V148.963V148.961V148.959V148.957V148.956V148.954V148.952V148.951V148.949V148.947V148.946V148.944V148.942V148.941V148.939V148.937V148.936V148.934V148.932V148.93V148.929V148.927V148.925V148.924V148.922V148.92V148.919V148.917V148.915V148.914V148.912V148.91V148.909V148.907V148.905V148.903V148.902V148.9V148.898V148.897V148.895V148.893V148.892V148.89V148.888V118.656H196.229V180.786C180.825 178.837 168.914 165.712 168.914 149.752Z" stroke="#8D64FF"/>
<path d="M202.271 118.656H229.587V148.888V148.89V148.892V148.893V148.895V148.897V148.898V148.9V148.902V148.903V148.905V148.907V148.909V148.91V148.912V148.914V148.915V148.917V148.919V148.92V148.922V148.924V148.925V148.927V148.929V148.93V148.932V148.934V148.936V148.937V148.939V148.941V148.942V148.944V148.946V148.947V148.949V148.951V148.952V148.954V148.956V148.957V148.959V148.961V148.963V148.964V148.966V148.968V148.969V148.971V148.973V148.974V148.976V148.978V148.979V148.981V148.983V148.985V148.986V148.988V148.99V148.991V148.993V148.995V148.996V148.998V149V149.001V149.003V149.005V149.007V149.008V149.01V149.012V149.013V149.015V149.017V149.018V149.02V149.022V149.024V149.025V149.027V149.029V149.03V149.032V149.034V149.035V149.037V149.039V149.041V149.042V149.044V149.046V149.047V149.049V149.051V149.052V149.054V149.056V149.058V149.059V149.061V149.063V149.064V149.066V149.068V149.069V149.071V149.073V149.075V149.076V149.078V149.08V149.081V149.083V149.085V149.087V149.088V149.09V149.092V149.093V149.095V149.097V149.098V149.1V149.102V149.104V149.105V149.107V149.109V149.11V149.112V149.114V149.116V149.117V149.119V149.121V149.122V149.124V149.126V149.128V149.129V149.131V149.133V149.135V149.136V149.138V149.14V149.141V149.143V149.145V149.147V149.148V149.15V149.152V149.153V149.155V149.157V149.159V149.16V149.162V149.164V149.166V149.167V149.169V149.171V149.172V149.174V149.176V149.178V149.179V149.181V149.183V149.185V149.186V149.188V149.19V149.192V149.193V149.195V149.197V149.199V149.2V149.202V149.204V149.205V149.207V149.209V149.211V149.212V149.214V149.216V149.218V149.219V149.221V149.223V149.225V149.226V149.228V149.23V149.232V149.233V149.235V149.237V149.239V149.24V149.242V149.244V149.246V149.247V149.249V149.251V149.253V149.255V149.256V149.258V149.26V149.262V149.263V149.265V149.267V149.269V149.27V149.272V149.274V149.276V149.277V149.279V149.281V149.283V149.285V149.286V149.288V149.29V149.292V149.293V149.295V149.297V149.299V149.301V149.302V149.304V149.306V149.308V149.309V149.311V149.313V149.315V149.317V149.318V149.32V149.322V149.324V149.326V149.327V149.329V149.331V149.333V149.335V149.336V149.338V149.34V149.342V149.343V149.345V149.347V149.349V149.351V149.352V149.354V149.356V149.358V149.36V149.362V149.363V149.365V149.367V149.369V149.371V149.372V149.374V149.376V149.378V149.38V149.381V149.383V149.385V149.387V149.389V149.391V149.392V149.394V149.396V149.398V149.4V149.402V149.403V149.405V149.407V149.409V149.411V149.412V149.414V149.416V149.418V149.42V149.422V149.424V149.425V149.427V149.429V149.431V149.433V149.435V149.436V149.438V149.44V149.442V149.444V149.446V149.448V149.449V149.451V149.453V149.455V149.457V149.459V149.461V149.462V149.464V149.466V149.468V149.47V149.472V149.474V149.475V149.477V149.479V149.481V149.483V149.485V149.487V149.489V149.49V149.492V149.494V149.496V149.498V149.5V149.502V149.504V149.505V149.507V149.509V149.511V149.513V149.515V149.517V149.519V149.521V149.522V149.524V149.526V149.528V149.53V149.532V149.534V149.536V149.538V149.54V149.541V149.543V149.545V149.547V149.549V149.551V149.553V149.555V149.557V149.559V149.561V149.563V149.564V149.566V149.568V149.57V149.572V149.574V149.576V149.578V149.58V149.582V149.584V149.586V149.588V149.59V149.592V149.593V149.595V149.597V149.599V149.601V149.603V149.605V149.607V149.609V149.611V149.613V149.615V149.617V149.619V149.621V149.623V149.625V149.627V149.629V149.631V149.633V149.635V149.636V149.638V149.64V149.642V149.644V149.646V149.648V149.65V149.652V149.654V149.656V149.658V149.66V149.662V149.664V149.666V149.668V149.67V149.672V149.674V149.676V149.678V149.68V149.682V149.684V149.686V149.688V149.69V149.692V149.694V149.696V149.698V149.7V149.702V149.704V149.706V149.708V149.71V149.712V149.714V149.716V149.718V149.72V149.723V149.725V149.727V149.729V149.731V149.733V149.735V149.737V149.739V149.741V149.743V149.745V149.747V149.749V149.751V149.753V149.755V149.757V149.759V149.761V149.763V149.766V149.768V149.77V149.772V149.774V149.776V149.778V149.78V149.782V149.784V149.786V149.788V149.79V149.792V149.795V149.797V149.799V149.801V149.803V149.805V149.807V149.809V149.811V149.813V149.816V149.818V149.82V149.822V149.824C229.587 165.784 217.676 178.909 202.271 180.857V118.656Z" stroke="#8D64FF"/>
<path d="M222.305 112.907H176.556C176.822 100.532 186.941 90.5879 199.395 90.5879C211.92 90.5879 222.039 100.532 222.305 112.907Z" stroke="#8D64FF"/>
<path d="M61.641 205.887C63.4796 200.414 70.5534 198.984 74.3738 203.313L104.384 237.316C108.204 241.645 105.906 248.486 100.247 249.63L55.7944 258.618C50.1354 259.762 45.3599 254.351 47.1985 248.878L61.641 205.887Z" fill="#292453" stroke="#7950ED"/>
<path d="M70.0684 219.07L73.2246 234.104" stroke="#7950ED" stroke-width="2" stroke-linecap="round" stroke-linejoin="round"/>
<path d="M75.0156 242.023L75.0431 242.018" stroke="#7950ED" stroke-width="4" stroke-linecap="round" stroke-linejoin="round"/>
</svg>
