<svg width="150" height="150" viewBox="0 0 150 150" fill="none" xmlns="http://www.w3.org/2000/svg">
<path d="M133.813 118.347C131.305 119.556 128.244 118.404 126.977 115.775L136.062 111.398C137.328 114.027 136.322 117.138 133.813 118.347Z" fill="#FFBD70"/>
<path d="M82.9934 122.13C82.3315 123.276 80.8741 123.668 79.7405 123.014C78.6069 122.359 78.2176 120.901 78.8796 119.755C79.5415 118.608 80.9989 118.216 82.1325 118.871C83.2662 119.525 83.6554 120.983 82.9934 122.13Z" stroke="#414168"/>
<path d="M71.6597 50.2978C72.5764 50.8271 73.7512 50.5087 74.2836 49.5865C74.8161 48.6643 74.5045 47.4877 73.5877 46.9584C72.6709 46.4291 71.4961 46.7476 70.9637 47.6697C70.4313 48.5919 70.7429 49.7685 71.6597 50.2978Z" fill="#F685A1"/>
<line x1="139.701" y1="57.3876" x2="133.44" y2="59.5573" stroke="#414168"/>
<line x1="142.331" y1="12.3751" x2="135.331" y2="18.5448" stroke="#414168"/>
<line x1="77.5867" y1="13.4827" x2="80.3676" y2="22.3891" stroke="#414168"/>
<line x1="8.62415" y1="18.1062" x2="13.0367" y2="26.3274" stroke="#414168"/>
<line x1="108.477" y1="120.851" x2="111.258" y2="129.757" stroke="#414168"/>
<path d="M51.9546 52.5951L54.5548 62.6242L44.5692 59.8615L51.9546 52.5951Z" fill="#A787FF"/>
<path d="M18.7332 56.5907L19.1895 53.0898L21.9933 55.2354L18.7332 56.5907Z" stroke="#414168" stroke-linecap="round" stroke-linejoin="round"/>
<rect x="139" y="75.9783" width="4" height="4" transform="rotate(-29.6402 139 75.9783)" fill="#31C587"/>
<path d="M42.8874 128.681C57.5723 126.48 67.6851 112.745 65.4751 98.0036C63.265 83.2622 49.569 73.0967 34.8842 75.2983C20.1993 77.4998 10.0865 91.2348 12.2965 105.976C14.5066 120.717 28.2026 130.883 42.8874 128.681Z" fill="#20A4F3"/>
<path d="M55.2401 94.4027C57.1107 94.8559 57.1045 96.7643 55.9424 98.1124C54.4016 99.8596 50.9948 100.859 48.7839 101.387C47.607 101.661 46.4823 101.634 45.3074 101.272C44.8499 101.145 44.3304 100.929 43.9871 100.589C43.8703 100.46 43.7535 100.331 43.7248 100.14C43.6674 99.757 44.0056 99.4129 44.3104 99.1715C44.9274 98.7367 45.7969 98.3618 46.483 98.0633" stroke="white" stroke-miterlimit="10" stroke-linecap="round" stroke-linejoin="round"/>
<path d="M45.8331 95.0304C45.1875 95.2739 44.5967 95.5581 44.0203 95.938C43.7083 96.1315 43.4106 96.4207 43.4679 96.8033C43.4895 96.9468 43.6063 97.0761 43.7231 97.2053C44.0664 97.5451 44.4763 97.6793 44.9338 97.8063C45.999 98.0868 47.0355 98.176 48.11 97.8681C50.1303 97.3696 53.306 96.4533 54.7182 94.8232C55.7994 93.5851 55.5361 91.1791 53.1602 90.606C52.3 90.3926 51.907 90.6961 51.0636 90.9204C48.0308 91.8152 45.1507 93.0785 42.223 94.3489C42.5028 91.6658 41.0693 88.6038 39.3099 86.6177C38.7807 86.0123 38.1561 85.4212 37.4173 85.0429C36.6784 84.6646 35.8325 84.5468 35.0368 84.7639C34.9415 84.7782 34.8534 84.8404 34.8201 84.9432C34.7867 85.046 34.8011 85.1417 34.8631 85.2302C35.8888 87.5219 37.1742 89.9214 37.4113 92.478C37.6459 94.6927 35.7547 96.0522 34.0992 97.0341C29.6614 99.6069 25.3261 102.213 20.4662 103.92" stroke="white" stroke-miterlimit="10" stroke-linecap="round" stroke-linejoin="round"/>
<path d="M49.9824 108.739C39.2198 113.972 37.1923 114.422 26.1172 118.871" stroke="white" stroke-miterlimit="10" stroke-linecap="round" stroke-linejoin="round"/>
<path d="M55.8081 98.5237C56.3609 98.6365 56.902 98.9955 57.1714 99.4931C57.9323 100.993 56.5129 102.575 55.2981 103.247C53.9951 103.98 52.6157 104.529 51.2077 104.887C49.7044 105.259 48.3225 105.466 46.7736 105.209C46.3232 105.13 45.8181 105.01 45.6177 104.649C45.3267 104.008 45.9483 103.279 46.4366 102.961C47.0607 102.574 47.6299 102.146 48.254 101.759C48.3898 101.69 48.5184 101.573 48.6065 101.511" stroke="white" stroke-miterlimit="10" stroke-linecap="round" stroke-linejoin="round"/>
<path d="M55.4422 103.225C55.7424 103.278 56.0831 103.276 56.3906 103.376C56.9029 103.544 57.3702 104.061 57.5372 104.525C57.7544 105.324 56.9971 106.122 56.2039 106.681C53.9458 108.194 51.137 108.957 48.4967 108.57C48.1488 108.525 47.8486 108.472 47.534 108.323C45.8585 107.548 48.2693 106.404 49.0364 105.995C49.6676 105.656 50.3465 105.31 50.9706 104.923" stroke="white" stroke-miterlimit="10" stroke-linecap="round" stroke-linejoin="round"/>
<path d="M107.99 58.1574C95.2931 58.1574 85 47.8247 85 35.0787C85 22.3327 95.2931 12 107.99 12C120.687 12 130.98 22.3327 130.98 35.0787C130.98 47.8247 120.687 58.1574 107.99 58.1574Z" fill="#20A4F3"/>
<path d="M93.199 30.736C91.6745 31.3564 91.9217 32.9694 93.0754 33.962C94.5998 35.2442 97.6075 35.6578 99.5439 35.8232C100.574 35.9059 101.522 35.7405 102.469 35.2855C102.84 35.1201 103.252 34.8719 103.499 34.5411C103.582 34.417 103.664 34.2929 103.664 34.1275C103.664 33.7966 103.334 33.5484 103.046 33.383C102.469 33.0935 101.686 32.8867 101.068 32.7212" stroke="white" stroke-miterlimit="10" stroke-linecap="round" stroke-linejoin="round"/>
<path d="M101.234 30.0741C101.811 30.1982 102.347 30.3636 102.882 30.6118C103.171 30.7359 103.459 30.9427 103.459 31.2735C103.459 31.3976 103.377 31.5217 103.294 31.6458C103.047 31.9767 102.718 32.1421 102.347 32.3075C101.481 32.6798 100.616 32.8866 99.6686 32.7625C97.897 32.5971 95.0953 32.2248 93.6945 31.0254C92.6232 30.1155 92.5408 28.0475 94.4773 27.2617C95.1777 26.9721 95.5485 27.1789 96.2901 27.2617C98.9682 27.6339 101.564 28.337 104.201 29.0401C103.624 26.8067 104.448 24.0356 105.684 22.1331C106.055 21.554 106.508 20.975 107.085 20.5614C107.662 20.1478 108.362 19.941 109.062 20.0237C109.145 20.0237 109.227 20.0651 109.268 20.1478C109.31 20.2305 109.31 20.3132 109.268 20.3959C108.692 22.4639 107.909 24.656 108.032 26.8481C108.115 28.7506 109.887 29.6605 111.411 30.2809C115.49 31.8939 119.486 33.5483 123.812 34.3755" stroke="white" stroke-miterlimit="10" stroke-linecap="round" stroke-linejoin="round"/>
<path d="M99.4619 42.1924C109.227 45.253 110.998 45.3771 120.928 47.7346" stroke="white" stroke-miterlimit="10" stroke-linecap="round" stroke-linejoin="round"/>
<path d="M93.241 34.2927C92.7878 34.4582 92.3758 34.8304 92.211 35.2854C91.7578 36.6502 93.1586 37.8083 94.271 38.2219C95.4659 38.6769 96.7019 38.9664 97.9379 39.0904C99.2564 39.2145 100.451 39.2145 101.728 38.8009C102.099 38.6769 102.511 38.5114 102.635 38.1805C102.8 37.6015 102.182 37.0638 101.728 36.857C101.152 36.6089 100.616 36.3193 100.039 36.0712C99.9156 36.0298 99.792 35.9471 99.7096 35.9058" stroke="white" stroke-miterlimit="10" stroke-linecap="round" stroke-linejoin="round"/>
<path d="M94.1459 38.2219C93.8987 38.3046 93.6103 38.346 93.363 38.4701C92.951 38.6769 92.6214 39.1732 92.539 39.5868C92.4566 40.2899 93.1982 40.8689 93.9399 41.2412C96.0411 42.2338 98.5132 42.5233 100.697 41.8616C100.985 41.7789 101.232 41.6961 101.48 41.5307C102.798 40.6621 100.614 40.0004 99.914 39.7522C99.3372 39.5454 98.7192 39.3386 98.1424 39.0905" stroke="white" stroke-miterlimit="10" stroke-linecap="round" stroke-linejoin="round"/>
<path d="M104.442 108.044C114.64 105.85 121.12 95.772 118.917 85.5353C116.714 75.2985 106.662 68.779 96.4643 70.9736C86.2667 73.1682 79.7859 83.2458 81.9889 93.4826C84.192 103.719 94.2446 110.239 104.442 108.044Z" fill="#F685A1"/>
<path d="M99.0293 83.2118C99.5884 82.4312 100.081 81.6647 100.662 80.9837C102.2 79.1234 104.166 78.2832 106.572 78.843C109.043 79.3885 110.713 80.8713 111.455 83.3531C112.615 87.1351 111.618 90.5471 109.682 93.7789C107.973 96.6145 105.773 99.1037 103.472 101.441C103.302 101.617 102.945 101.728 102.751 101.631C99.2446 100.3 95.8278 98.7416 92.8377 96.4308C90.224 94.4214 88.4654 91.8804 87.9231 88.5562C87.2111 84.1217 91.1815 80.2087 95.3944 81.2832C96.201 81.4919 96.9441 81.8881 97.68 82.251C98.1226 82.5381 98.5465 82.8987 99.0293 83.2118Z" stroke="white" stroke-miterlimit="10" stroke-linecap="round" stroke-linejoin="round"/>
<path d="M31.0345 39.6793C37.9203 41.9229 45.3281 38.1381 47.5803 31.2258C49.8326 24.3135 46.0763 16.8912 39.1905 14.6476C32.3047 12.404 24.8969 16.1887 22.6446 23.101C20.3924 30.0133 24.1486 37.4357 31.0345 39.6793Z" fill="#F685A1"/>
<path d="M36.4566 22.8875C37.0647 22.6142 37.6281 22.3264 38.2142 22.1204C39.787 21.5412 41.26 21.7234 42.5082 22.8992C43.801 24.0896 44.2851 25.5623 43.8637 27.3106C43.2394 29.9853 41.4498 31.6848 39.1597 32.9483C37.1438 34.0531 34.9547 34.7789 32.7576 35.3779C32.5943 35.424 32.3412 35.3663 32.2587 35.2402C30.6192 33.2174 29.113 31.089 28.1254 28.6583C27.2586 26.5399 27.0904 24.401 27.9257 22.2168C29.0468 19.307 32.7957 18.3452 34.9487 20.4609C35.3598 20.8678 35.6674 21.365 35.9823 21.8398C36.1477 22.1666 36.2762 22.531 36.4566 22.8875Z" stroke="white" stroke-miterlimit="10" stroke-linecap="round" stroke-linejoin="round"/>
</svg>
