<svg width="150" height="150" viewBox="0 0 150 150" fill="none" xmlns="http://www.w3.org/2000/svg">
<path d="M64.9806 98.0783C67.15 112.548 57.2232 126.027 42.8133 128.188C28.4033 130.348 14.9604 120.373 12.791 105.903C10.6216 91.4326 20.5484 77.9537 34.9583 75.7934C49.3683 73.633 62.8112 83.6083 64.9806 98.0783Z" fill="white" fill-opacity="0.1" stroke="white"/>
<path d="M55.2401 94.4023C57.1107 94.8555 57.1045 96.7639 55.9424 98.1119C54.4016 99.8591 50.9948 100.859 48.7839 101.386C47.607 101.66 46.4823 101.633 45.3074 101.271C44.8499 101.144 44.3304 100.929 43.9871 100.589C43.8703 100.46 43.7535 100.331 43.7248 100.139C43.6674 99.7565 44.0056 99.4124 44.3104 99.171C44.9274 98.7362 45.7969 98.3613 46.483 98.0628" stroke="white" stroke-miterlimit="10" stroke-linecap="round" stroke-linejoin="round"/>
<path d="M45.8331 95.0305C45.1875 95.274 44.5967 95.5582 44.0203 95.9381C43.7083 96.1316 43.4106 96.4208 43.4679 96.8035C43.4895 96.947 43.6063 97.0762 43.7231 97.2054C44.0664 97.5452 44.4763 97.6794 44.9338 97.8064C45.999 98.0869 47.0355 98.1761 48.11 97.8683C50.1303 97.3697 53.306 96.4534 54.7182 94.8234C55.7994 93.5853 55.5361 91.1793 53.1602 90.6062C52.3 90.3928 51.907 90.6962 51.0636 90.9205C48.0308 91.8154 45.1507 93.0786 42.223 94.349C42.5028 91.6659 41.0693 88.6039 39.3099 86.6178C38.7807 86.0124 38.1561 85.4213 37.4173 85.043C36.6784 84.6647 35.8325 84.547 35.0368 84.7641C34.9415 84.7784 34.8534 84.8405 34.8201 84.9433C34.7867 85.0461 34.8011 85.1418 34.8631 85.2303C35.8888 87.522 37.1742 89.9215 37.4113 92.4781C37.6459 94.6928 35.7547 96.0524 34.0992 97.0342C29.6614 99.607 25.3261 102.213 20.4662 103.92" stroke="white" stroke-miterlimit="10" stroke-linecap="round" stroke-linejoin="round"/>
<path d="M49.9824 108.739C39.2198 113.972 37.1923 114.423 26.1172 118.871" stroke="white" stroke-miterlimit="10" stroke-linecap="round" stroke-linejoin="round"/>
<path d="M55.8081 98.5247C56.3609 98.6374 56.902 98.9965 57.1714 99.4941C57.9323 100.994 56.5129 102.576 55.2981 103.248C53.9951 103.981 52.6157 104.53 51.2077 104.888C49.7044 105.26 48.3225 105.467 46.7736 105.21C46.3232 105.131 45.8181 105.011 45.6177 104.65C45.3267 104.009 45.9483 103.28 46.4366 102.962C47.0607 102.575 47.6299 102.147 48.254 101.76C48.3898 101.691 48.5184 101.574 48.6065 101.512" stroke="white" stroke-miterlimit="10" stroke-linecap="round" stroke-linejoin="round"/>
<path d="M55.4422 103.225C55.7424 103.278 56.0831 103.275 56.3906 103.376C56.9029 103.544 57.3702 104.061 57.5372 104.525C57.7544 105.324 56.9971 106.122 56.2039 106.681C53.9458 108.193 51.137 108.957 48.4967 108.57C48.1488 108.524 47.8486 108.472 47.534 108.323C45.8585 107.547 48.2693 106.403 49.0364 105.995C49.6676 105.656 50.3465 105.309 50.9706 104.922" stroke="white" stroke-miterlimit="10" stroke-linecap="round" stroke-linejoin="round"/>
<path d="M75.5 35.0787C75.5 47.5504 85.571 57.6574 97.9902 57.6574C110.409 57.6574 120.48 47.5504 120.48 35.0787C120.48 22.607 110.409 12.5 97.9902 12.5C85.571 12.5 75.5 22.607 75.5 35.0787Z" fill="white" fill-opacity="0.1" stroke="white"/>
<path d="M83.199 30.7363C81.6745 31.3567 81.9217 32.9698 83.0754 33.9624C84.5998 35.2445 87.6075 35.6581 89.5439 35.8236C90.574 35.9063 91.5216 35.7408 92.4692 35.2859C92.84 35.1205 93.2521 34.8723 93.4993 34.5414C93.5817 34.4173 93.6641 34.2933 93.6641 34.1278C93.6641 33.7969 93.3345 33.5488 93.046 33.3833C92.4692 33.0938 91.6864 32.887 91.0684 32.7216" stroke="white" stroke-miterlimit="10" stroke-linecap="round" stroke-linejoin="round"/>
<path d="M91.2343 30.0742C91.8111 30.1983 92.3467 30.3638 92.8823 30.6119C93.1707 30.736 93.4591 30.9428 93.4591 31.2737C93.4591 31.3977 93.3767 31.5218 93.2943 31.6459C93.0471 31.9768 92.7175 32.1422 92.3467 32.3077C91.4815 32.6799 90.6163 32.8867 89.6686 32.7626C87.897 32.5972 85.0953 32.2249 83.6945 31.0255C82.6232 30.1156 82.5408 28.0476 84.4773 27.2618C85.1777 26.9723 85.5485 27.1791 86.2901 27.2618C88.9682 27.634 91.5639 28.3371 94.2008 29.0402C93.6239 26.8068 94.448 24.0357 95.684 22.1332C96.0548 21.5541 96.508 20.9751 97.0848 20.5615C97.6617 20.1479 98.3621 19.9411 99.0625 20.0238C99.1449 20.0238 99.2273 20.0652 99.2685 20.1479C99.3097 20.2306 99.3097 20.3134 99.2685 20.3961C98.6917 22.4641 97.9089 24.6561 98.0325 26.8482C98.1149 28.7507 99.8865 29.6606 101.411 30.281C105.49 31.8941 109.486 33.5484 113.812 34.3756" stroke="white" stroke-miterlimit="10" stroke-linecap="round" stroke-linejoin="round"/>
<path d="M89.4619 42.1934C99.2266 45.254 100.998 45.3781 110.928 47.7356" stroke="white" stroke-miterlimit="10" stroke-linecap="round" stroke-linejoin="round"/>
<path d="M83.241 34.293C82.7878 34.4584 82.3758 34.8306 82.211 35.2856C81.7578 36.6505 83.1586 37.8085 84.271 38.2221C85.4659 38.6771 86.7019 38.9666 87.9379 39.0907C89.2564 39.2148 90.4512 39.2148 91.7284 38.8012C92.0992 38.6771 92.5113 38.5117 92.6349 38.1808C92.7997 37.6017 92.1816 37.0641 91.7284 36.8573C91.1516 36.6091 90.616 36.3196 90.0392 36.0714C89.9156 36.0301 89.792 35.9474 89.7096 35.906" stroke="white" stroke-miterlimit="10" stroke-linecap="round" stroke-linejoin="round"/>
<path d="M84.1459 38.2227C83.8987 38.3054 83.6103 38.3467 83.363 38.4708C82.951 38.6776 82.6214 39.1739 82.539 39.5875C82.4566 40.2906 83.1982 40.8697 83.9399 41.2419C86.0411 42.2345 88.5132 42.5241 90.6969 41.8623C90.9853 41.7796 91.2325 41.6969 91.4797 41.5314C92.7981 40.6629 90.6144 40.0011 89.914 39.753C89.3372 39.5462 88.7192 39.3394 88.1424 39.0912" stroke="white" stroke-miterlimit="10" stroke-linecap="round" stroke-linejoin="round"/>
<path d="M118.429 85.6405C120.574 95.609 114.263 105.419 104.337 107.555C94.4111 109.692 84.6231 103.346 82.4777 93.3774C80.3324 83.4088 86.6437 73.5985 96.5695 71.4624C106.495 69.3263 116.283 75.6719 118.429 85.6405Z" fill="#5D30D9" fill-opacity="0.2" stroke="#7950ED"/>
<path d="M99.0293 83.2122C99.5884 82.4315 100.081 81.6651 100.662 80.9841C102.2 79.1237 104.166 78.2836 106.572 78.8433C109.043 79.3888 110.713 80.8716 111.455 83.3534C112.615 87.1354 111.618 90.5475 109.682 93.7793C107.973 96.6149 105.773 99.104 103.472 101.441C103.302 101.617 102.945 101.729 102.751 101.631C99.2446 100.301 95.8278 98.7419 92.8377 96.4312C90.224 94.4217 88.4654 91.8807 87.9231 88.5566C87.2111 84.1221 91.1815 80.2091 95.3944 81.2835C96.201 81.4922 96.9441 81.8884 97.68 82.2514C98.1226 82.5384 98.5465 82.8991 99.0293 83.2122Z" stroke="#7950ED" stroke-miterlimit="10" stroke-linecap="round" stroke-linejoin="round"/>
<path d="M60.5385 36.4857C58.3713 43.1372 51.2445 46.7762 44.623 44.6187C38.0014 42.4612 34.3864 35.3222 36.5536 28.6707C38.7209 22.0193 45.8477 18.3803 52.4692 20.5378C59.0907 22.6953 62.7058 29.8343 60.5385 36.4857Z" fill="#5D30D9" fill-opacity="0.2" stroke="#7950ED"/>
<path d="M49.8902 28.3016C50.4983 28.0283 51.0616 27.7404 51.6478 27.5344C53.2206 26.9552 54.6936 27.1374 55.9418 28.3133C57.2346 29.5037 57.7187 30.9764 57.2973 32.7247C56.673 35.3994 54.8834 37.0989 52.5933 38.3624C50.5774 39.4671 48.3883 40.1929 46.1912 40.792C46.0279 40.838 45.7748 40.7804 45.6923 40.6543C44.0528 38.6314 42.5465 36.5031 41.559 34.0724C40.6921 31.9539 40.524 29.815 41.3593 27.6309C42.4804 24.7211 46.2293 23.7592 48.3822 25.875C48.7934 26.2819 49.101 26.7791 49.4159 27.2538C49.5813 27.5806 49.7097 27.945 49.8902 28.3016Z" stroke="#7950ED" stroke-miterlimit="10" stroke-linecap="round" stroke-linejoin="round"/>
<path d="M25.5364 53.4114C27.9998 57.6814 26.5473 63.1291 22.2978 65.5807C18.0482 68.0324 12.6051 66.5627 10.1417 62.2928C7.67828 58.0228 9.13075 52.575 13.3803 50.1234C17.6299 47.6718 23.073 49.1414 25.5364 53.4114Z" fill="#5D30D9" fill-opacity="0.2" stroke="#7950ED"/>
<path d="M16.2062 55.0893C16.3518 54.6348 16.4683 54.1972 16.6393 53.7867C17.084 52.6724 17.8861 51.9757 19.1094 51.8743C20.3618 51.7561 21.3773 52.2035 22.106 53.2647C23.2305 54.8774 23.2783 56.6433 22.8545 58.467C22.4773 60.0687 21.8157 61.5811 21.0827 63.0372C21.029 63.1461 20.8772 63.2532 20.7706 63.2367C18.9092 63.1409 17.0555 62.9237 15.2891 62.2856C13.7467 61.7328 12.5279 60.7983 11.7654 59.3083C10.7535 57.3187 12.0363 54.8631 14.1929 54.7301C14.6063 54.7061 15.0181 54.7804 15.4216 54.8401C15.6747 54.9085 15.9301 55.0146 16.2062 55.0893Z" stroke="#7950ED" stroke-miterlimit="10" stroke-linecap="round" stroke-linejoin="round"/>
</svg>
