<svg width="700" height="560" viewBox="0 0 700 560" fill="none" xmlns="http://www.w3.org/2000/svg">
<g clip-path="url(#clip0)">
<g filter="url(#filter0_d)">
<path d="M0 40C0 35.5817 3.58172 32 8 32H612C616.418 32 620 35.5817 620 40V373C620 377.418 616.418 381 612 381H7.99999C3.58171 381 0 377.418 0 373V40Z" fill="#22273C"/>
<path d="M8 32.5H612C616.142 32.5 619.5 35.8579 619.5 40V373C619.5 377.142 616.142 380.5 612 380.5H7.99999C3.85786 380.5 0.5 377.142 0.5 373V40C0.5 35.8579 3.85786 32.5 8 32.5Z" stroke="#373D57"/>
</g>
<path d="M260.272 53.416V57.848L257.344 53.416H256.616V59H257.344V54.56L260.272 59H261V53.416H260.272ZM261.969 56.792C261.969 58.152 262.873 59.072 264.041 59.072C264.849 59.072 265.417 58.656 265.681 58.184V59H266.417V54.616H265.681V55.416C265.425 54.96 264.865 54.544 264.049 54.544C262.873 54.544 261.969 55.424 261.969 56.792ZM265.681 56.8C265.681 57.832 264.993 58.432 264.193 58.432C263.393 58.432 262.713 57.824 262.713 56.792C262.713 55.76 263.393 55.176 264.193 55.176C264.993 55.176 265.681 55.784 265.681 56.8ZM273.975 59H274.695V56.416C274.695 55.16 273.919 54.536 272.919 54.536C272.247 54.536 271.623 54.88 271.367 55.512C271.079 54.856 270.479 54.536 269.759 54.536C269.183 54.536 268.663 54.784 268.375 55.248V54.616H267.647V59H268.375V56.584C268.375 55.64 268.879 55.168 269.615 55.168C270.335 55.168 270.815 55.624 270.815 56.52V59H271.535V56.584C271.535 55.64 272.039 55.168 272.775 55.168C273.495 55.168 273.975 55.624 273.975 56.52V59ZM277.753 55.16C278.505 55.16 279.145 55.632 279.137 56.488H276.369C276.449 55.632 277.041 55.16 277.753 55.16ZM279.801 57.648H279.017C278.857 58.12 278.441 58.456 277.785 58.456C277.041 58.456 276.417 57.968 276.361 57.08H279.865C279.881 56.928 279.889 56.8 279.889 56.64C279.889 55.44 279.057 54.544 277.785 54.544C276.505 54.544 275.617 55.416 275.617 56.8C275.617 58.192 276.537 59.072 277.785 59.072C278.873 59.072 279.577 58.448 279.801 57.648Z" fill="#868A9E"/>
<rect x="256" y="70" width="188" height="24" rx="4" fill="#15192C" stroke="#2C3249"/>
<path d="M265.414 82.7816C265.414 84.5916 266.594 85.4216 268.034 85.4216C269.474 85.4216 270.664 84.5916 270.664 82.7816V78.3816H269.754V82.7916C269.754 84.0716 269.074 84.6216 268.044 84.6216C267.014 84.6216 266.324 84.0716 266.324 82.7916V78.3816H265.414V82.7816ZM276.122 83.8616C276.082 81.9016 272.902 82.6116 272.902 81.3116C272.902 80.8716 273.302 80.5516 273.972 80.5516C274.702 80.5516 275.122 80.9516 275.162 81.5016H276.072C276.012 80.4316 275.212 79.7816 274.002 79.7816C272.782 79.7816 271.992 80.4716 271.992 81.3116C271.992 83.3516 275.232 82.6416 275.232 83.8616C275.232 84.3116 274.832 84.6716 274.112 84.6716C273.342 84.6716 272.872 84.2716 272.822 83.7416H271.882C271.942 84.7416 272.842 85.4416 274.122 85.4416C275.332 85.4416 276.122 84.7616 276.122 83.8616ZM279.737 80.5516C280.677 80.5516 281.477 81.1416 281.467 82.2116H278.007C278.107 81.1416 278.847 80.5516 279.737 80.5516ZM282.297 83.6616H281.317C281.117 84.2516 280.597 84.6716 279.777 84.6716C278.847 84.6716 278.067 84.0616 277.997 82.9516H282.377C282.397 82.7616 282.407 82.6016 282.407 82.4016C282.407 80.9016 281.367 79.7816 279.777 79.7816C278.177 79.7816 277.067 80.8716 277.067 82.6016C277.067 84.3416 278.217 85.4416 279.777 85.4416C281.137 85.4416 282.017 84.6616 282.297 83.6616ZM284.518 82.3716C284.518 81.1016 285.178 80.7116 286.048 80.7116H286.288V79.7716C285.418 79.7716 284.828 80.1516 284.518 80.7616V79.8716H283.608V85.3516H284.518V82.3716Z" fill="#53DBEE"/>
<path d="M258.352 114.424H256.616V120H258.352C260.184 120 261.312 118.952 261.312 117.224C261.312 115.496 260.184 114.424 258.352 114.424ZM257.344 119.4V115.016H258.352C259.808 115.016 260.568 115.864 260.568 117.224C260.568 118.584 259.808 119.4 258.352 119.4H257.344ZM262.272 120H263V115.616H262.272V120ZM262.648 114.904C262.912 114.904 263.128 114.688 263.128 114.408C263.128 114.128 262.912 113.912 262.648 113.912C262.368 113.912 262.152 114.128 262.152 114.408C262.152 114.688 262.368 114.904 262.648 114.904ZM267.393 118.808C267.361 117.24 264.817 117.808 264.817 116.768C264.817 116.416 265.137 116.16 265.673 116.16C266.257 116.16 266.593 116.48 266.625 116.92H267.353C267.305 116.064 266.665 115.544 265.697 115.544C264.721 115.544 264.089 116.096 264.089 116.768C264.089 118.4 266.681 117.832 266.681 118.808C266.681 119.168 266.361 119.456 265.785 119.456C265.169 119.456 264.793 119.136 264.753 118.712H264.001C264.049 119.512 264.769 120.072 265.793 120.072C266.761 120.072 267.393 119.528 267.393 118.808ZM269.149 116.424V115.616H268.421V122.08H269.149V119.192C269.421 119.64 269.989 120.072 270.789 120.072C271.965 120.072 272.869 119.152 272.869 117.792C272.869 116.424 271.965 115.544 270.789 115.544C269.989 115.544 269.413 115.96 269.149 116.424ZM272.125 117.792C272.125 118.824 271.445 119.432 270.637 119.432C269.845 119.432 269.149 118.832 269.149 117.8C269.149 116.784 269.845 116.176 270.637 116.176C271.445 116.176 272.125 116.76 272.125 117.792ZM273.827 120H274.555V114.08H273.827V120ZM275.524 117.792C275.524 119.152 276.428 120.072 277.596 120.072C278.404 120.072 278.972 119.656 279.236 119.184V120H279.972V115.616H279.236V116.416C278.98 115.96 278.42 115.544 277.604 115.544C276.428 115.544 275.524 116.424 275.524 117.792ZM279.236 117.8C279.236 118.832 278.548 119.432 277.748 119.432C276.948 119.432 276.268 118.824 276.268 117.792C276.268 116.76 276.948 116.176 277.748 116.176C278.548 116.176 279.236 116.784 279.236 117.8ZM282.866 119.168L281.49 115.616H280.682L282.45 119.952L281.586 122.064H282.338L284.978 115.616H284.226L282.866 119.168ZM291.499 114.416V118.848L288.571 114.416H287.843V120H288.571V115.56L291.499 120H292.227V114.416H291.499ZM293.196 117.792C293.196 119.152 294.1 120.072 295.268 120.072C296.076 120.072 296.644 119.656 296.908 119.184V120H297.644V115.616H296.908V116.416C296.652 115.96 296.092 115.544 295.276 115.544C294.1 115.544 293.196 116.424 293.196 117.792ZM296.908 117.8C296.908 118.832 296.22 119.432 295.42 119.432C294.62 119.432 293.94 118.824 293.94 117.792C293.94 116.76 294.62 116.176 295.42 116.176C296.22 116.176 296.908 116.784 296.908 117.8ZM305.202 120H305.922V117.416C305.922 116.16 305.146 115.536 304.146 115.536C303.474 115.536 302.85 115.88 302.594 116.512C302.306 115.856 301.706 115.536 300.986 115.536C300.41 115.536 299.89 115.784 299.602 116.248V115.616H298.874V120H299.602V117.584C299.602 116.64 300.106 116.168 300.842 116.168C301.562 116.168 302.042 116.624 302.042 117.52V120H302.762V117.584C302.762 116.64 303.266 116.168 304.002 116.168C304.722 116.168 305.202 116.624 305.202 117.52V120ZM308.98 116.16C309.732 116.16 310.372 116.632 310.364 117.488H307.596C307.676 116.632 308.268 116.16 308.98 116.16ZM311.028 118.648H310.244C310.084 119.12 309.668 119.456 309.012 119.456C308.268 119.456 307.644 118.968 307.588 118.08H311.092C311.108 117.928 311.116 117.8 311.116 117.64C311.116 116.44 310.284 115.544 309.012 115.544C307.732 115.544 306.844 116.416 306.844 117.8C306.844 119.192 307.764 120.072 309.012 120.072C310.1 120.072 310.804 119.448 311.028 118.648Z" fill="#868A9E"/>
<rect x="256" y="131" width="188" height="24" rx="4" fill="#15192C" stroke="#2C3249"/>
<path d="M265.414 143.782C265.414 145.592 266.594 146.422 268.034 146.422C269.474 146.422 270.664 145.592 270.664 143.782V139.382H269.754V143.792C269.754 145.072 269.074 145.622 268.044 145.622C267.014 145.622 266.324 145.072 266.324 143.792V139.382H265.414V143.782ZM276.122 144.862C276.082 142.902 272.902 143.612 272.902 142.312C272.902 141.872 273.302 141.552 273.972 141.552C274.702 141.552 275.122 141.952 275.162 142.502H276.072C276.012 141.432 275.212 140.782 274.002 140.782C272.782 140.782 271.992 141.472 271.992 142.312C271.992 144.352 275.232 143.642 275.232 144.862C275.232 145.312 274.832 145.672 274.112 145.672C273.342 145.672 272.872 145.272 272.822 144.742H271.882C271.942 145.742 272.842 146.442 274.122 146.442C275.332 146.442 276.122 145.762 276.122 144.862ZM279.737 141.552C280.677 141.552 281.477 142.142 281.467 143.212H278.007C278.107 142.142 278.847 141.552 279.737 141.552ZM282.297 144.662H281.317C281.117 145.252 280.597 145.672 279.777 145.672C278.847 145.672 278.067 145.062 277.997 143.952H282.377C282.397 143.762 282.407 143.602 282.407 143.402C282.407 141.902 281.367 140.782 279.777 140.782C278.177 140.782 277.067 141.872 277.067 143.602C277.067 145.342 278.217 146.442 279.777 146.442C281.137 146.442 282.017 145.662 282.297 144.662ZM284.518 143.372C284.518 142.102 285.178 141.712 286.048 141.712H286.288V140.772C285.418 140.772 284.828 141.152 284.518 141.762V140.872H283.608V146.352H284.518V143.372Z" fill="white"/>
<rect x="256" y="192" width="348" height="64" rx="4" fill="#15192C" stroke="#2C3249"/>
<path d="M264.34 204.77H266.25V211H267.16V204.77H269.06V204.03H264.34V204.77ZM270.18 211H271.09V207.97C271.09 206.79 271.73 206.21 272.66 206.21C273.58 206.21 274.19 206.78 274.19 207.9V211H275.09V207.77C275.09 206.2 274.12 205.42 272.9 205.42C272.13 205.42 271.45 205.73 271.09 206.31V203.6H270.18V211ZM276.577 211H277.487V205.52H276.577V211ZM277.047 204.63C277.377 204.63 277.647 204.36 277.647 204.01C277.647 203.66 277.377 203.39 277.047 203.39C276.697 203.39 276.427 203.66 276.427 204.01C276.427 204.36 276.697 204.63 277.047 204.63ZM282.978 209.51C282.938 207.55 279.758 208.26 279.758 206.96C279.758 206.52 280.158 206.2 280.828 206.2C281.558 206.2 281.978 206.6 282.018 207.15H282.928C282.868 206.08 282.068 205.43 280.858 205.43C279.638 205.43 278.848 206.12 278.848 206.96C278.848 209 282.088 208.29 282.088 209.51C282.088 209.96 281.688 210.32 280.968 210.32C280.198 210.32 279.728 209.92 279.678 209.39H278.738C278.798 210.39 279.698 211.09 280.978 211.09C282.188 211.09 282.978 210.41 282.978 209.51ZM286.928 211H287.838V205.52H286.928V211ZM287.398 204.63C287.728 204.63 287.998 204.36 287.998 204.01C287.998 203.66 287.728 203.39 287.398 203.39C287.048 203.39 286.778 203.66 286.778 204.01C286.778 204.36 287.048 204.63 287.398 204.63ZM293.329 209.51C293.289 207.55 290.109 208.26 290.109 206.96C290.109 206.52 290.509 206.2 291.179 206.2C291.909 206.2 292.329 206.6 292.369 207.15H293.279C293.219 206.08 292.419 205.43 291.209 205.43C289.989 205.43 289.199 206.12 289.199 206.96C289.199 209 292.439 208.29 292.439 209.51C292.439 209.96 292.039 210.32 291.319 210.32C290.549 210.32 290.079 209.92 290.029 209.39H289.089C289.149 210.39 290.049 211.09 291.329 211.09C292.539 211.09 293.329 210.41 293.329 209.51ZM296.94 208.24C296.94 209.94 298.07 211.09 299.53 211.09C300.54 211.09 301.25 210.57 301.58 209.98V211H302.5V205.52H301.58V206.52C301.26 205.95 300.56 205.43 299.54 205.43C298.07 205.43 296.94 206.53 296.94 208.24ZM301.58 208.25C301.58 209.54 300.72 210.29 299.72 210.29C298.72 210.29 297.87 209.53 297.87 208.24C297.87 206.95 298.72 206.22 299.72 206.22C300.72 206.22 301.58 206.98 301.58 208.25ZM306.364 208.24C306.364 209.94 307.494 211.09 308.964 211.09C309.964 211.09 310.674 210.58 311.004 209.97V211H311.924V203.6H311.004V206.5C310.624 205.87 309.834 205.43 308.974 205.43C307.494 205.43 306.364 206.53 306.364 208.24ZM311.004 208.25C311.004 209.54 310.144 210.29 309.144 210.29C308.144 210.29 307.294 209.53 307.294 208.24C307.294 206.95 308.144 206.22 309.144 206.22C310.144 206.22 311.004 206.98 311.004 208.25ZM315.791 206.2C316.731 206.2 317.531 206.79 317.521 207.86H314.061C314.161 206.79 314.901 206.2 315.791 206.2ZM318.351 209.31H317.371C317.171 209.9 316.651 210.32 315.831 210.32C314.901 210.32 314.121 209.71 314.051 208.6H318.431C318.451 208.41 318.461 208.25 318.461 208.05C318.461 206.55 317.421 205.43 315.831 205.43C314.231 205.43 313.121 206.52 313.121 208.25C313.121 209.99 314.271 211.09 315.831 211.09C317.191 211.09 318.071 210.31 318.351 209.31ZM323.603 209.51C323.563 207.55 320.383 208.26 320.383 206.96C320.383 206.52 320.783 206.2 321.453 206.2C322.183 206.2 322.603 206.6 322.643 207.15H323.553C323.493 206.08 322.693 205.43 321.483 205.43C320.263 205.43 319.473 206.12 319.473 206.96C319.473 209 322.713 208.29 322.713 209.51C322.713 209.96 322.313 210.32 321.593 210.32C320.823 210.32 320.353 209.92 320.303 209.39H319.363C319.423 210.39 320.323 211.09 321.603 211.09C322.813 211.09 323.603 210.41 323.603 209.51ZM324.547 208.25C324.547 209.99 325.657 211.09 327.217 211.09C328.577 211.09 329.467 210.33 329.747 209.24H328.767C328.567 209.93 328.027 210.32 327.217 210.32C326.217 210.32 325.477 209.61 325.477 208.25C325.477 206.91 326.217 206.2 327.217 206.2C328.027 206.2 328.577 206.62 328.767 207.28H329.747C329.467 206.13 328.577 205.43 327.217 205.43C325.657 205.43 324.547 206.53 324.547 208.25ZM331.871 208.02C331.871 206.75 332.531 206.36 333.401 206.36H333.641V205.42C332.771 205.42 332.181 205.8 331.871 206.41V205.52H330.961V211H331.871V208.02ZM334.692 211H335.602V205.52H334.692V211ZM335.162 204.63C335.492 204.63 335.762 204.36 335.762 204.01C335.762 203.66 335.492 203.39 335.162 203.39C334.812 203.39 334.542 203.66 334.542 204.01C334.542 204.36 334.812 204.63 335.162 204.63ZM338.063 206.53V205.52H337.153V213.6H338.063V209.99C338.403 210.55 339.113 211.09 340.113 211.09C341.583 211.09 342.713 209.94 342.713 208.24C342.713 206.53 341.583 205.43 340.113 205.43C339.113 205.43 338.393 205.95 338.063 206.53ZM341.783 208.24C341.783 209.53 340.933 210.29 339.923 210.29C338.933 210.29 338.063 209.54 338.063 208.25C338.063 206.98 338.933 206.22 339.923 206.22C340.933 206.22 341.783 206.95 341.783 208.24ZM344.111 209.5C344.111 210.6 344.661 211 345.631 211H346.451V210.23H345.781C345.221 210.23 345.021 210.04 345.021 209.5V206.27H346.451V205.52H345.021V204.14H344.111V205.52H343.401V206.27H344.111V209.5ZM347.553 211H348.463V205.52H347.553V211ZM348.023 204.63C348.353 204.63 348.623 204.36 348.623 204.01C348.623 203.66 348.353 203.39 348.023 203.39C347.673 203.39 347.403 203.66 347.403 204.01C347.403 204.36 347.673 204.63 348.023 204.63ZM355.214 208.25C355.214 206.52 354.004 205.43 352.444 205.43C350.894 205.43 349.674 206.52 349.674 208.25C349.674 209.99 350.854 211.09 352.404 211.09C353.964 211.09 355.214 209.99 355.214 208.25ZM350.604 208.25C350.604 206.87 351.474 206.22 352.434 206.22C353.374 206.22 354.284 206.87 354.284 208.25C354.284 209.64 353.354 210.29 352.404 210.29C351.454 210.29 350.604 209.64 350.604 208.25ZM360.421 211H361.321V207.77C361.321 206.2 360.351 205.42 359.081 205.42C358.341 205.42 357.681 205.73 357.321 206.3V205.52H356.411V211H357.321V207.97C357.321 206.79 357.961 206.21 358.891 206.21C359.811 206.21 360.421 206.78 360.421 207.9V211ZM370.673 208.25C370.673 206.52 369.463 205.43 367.903 205.43C366.353 205.43 365.133 206.52 365.133 208.25C365.133 209.99 366.313 211.09 367.863 211.09C369.423 211.09 370.673 209.99 370.673 208.25ZM366.063 208.25C366.063 206.87 366.933 206.22 367.893 206.22C368.833 206.22 369.743 206.87 369.743 208.25C369.743 209.64 368.813 210.29 367.863 210.29C366.913 210.29 366.063 209.64 366.063 208.25ZM372.04 211H372.95V206.27H374.1V205.52H372.95V205.13C372.95 204.42 373.22 204.12 374.04 204.12V203.36C372.64 203.36 372.04 203.91 372.04 205.13V205.52H371.33V206.27H372.04V211ZM378.027 209.5C378.027 210.6 378.577 211 379.547 211H380.367V210.23H379.697C379.137 210.23 378.937 210.04 378.937 209.5V206.27H380.367V205.52H378.937V204.14H378.027V205.52H377.317V206.27H378.027V209.5ZM381.469 211H382.379V207.97C382.379 206.79 383.019 206.21 383.949 206.21C384.869 206.21 385.479 206.78 385.479 207.9V211H386.379V207.77C386.379 206.2 385.409 205.42 384.189 205.42C383.419 205.42 382.739 205.73 382.379 206.31V203.6H381.469V211ZM390.196 206.2C391.136 206.2 391.936 206.79 391.926 207.86H388.466C388.566 206.79 389.306 206.2 390.196 206.2ZM392.756 209.31H391.776C391.576 209.9 391.056 210.32 390.236 210.32C389.306 210.32 388.526 209.71 388.456 208.6H392.836C392.856 208.41 392.866 208.25 392.866 208.05C392.866 206.55 391.826 205.43 390.236 205.43C388.636 205.43 387.526 206.52 387.526 208.25C387.526 209.99 388.676 211.09 390.236 211.09C391.596 211.09 392.476 210.31 392.756 209.31ZM396.733 211H397.643V205.52H396.733V211ZM397.203 204.63C397.533 204.63 397.803 204.36 397.803 204.01C397.803 203.66 397.533 203.39 397.203 203.39C396.853 203.39 396.583 203.66 396.583 204.01C396.583 204.36 396.853 204.63 397.203 204.63ZM399.394 209.5C399.394 210.6 399.944 211 400.914 211H401.734V210.23H401.064C400.504 210.23 400.304 210.04 400.304 209.5V206.27H401.734V205.52H400.304V204.14H399.394V205.52H398.684V206.27H399.394V209.5ZM405.166 206.2C406.106 206.2 406.906 206.79 406.896 207.86H403.436C403.536 206.79 404.276 206.2 405.166 206.2ZM407.726 209.31H406.746C406.546 209.9 406.026 210.32 405.206 210.32C404.276 210.32 403.496 209.71 403.426 208.6H407.806C407.826 208.41 407.836 208.25 407.836 208.05C407.836 206.55 406.796 205.43 405.206 205.43C403.606 205.43 402.496 206.52 402.496 208.25C402.496 209.99 403.646 211.09 405.206 211.09C406.566 211.09 407.446 210.31 407.726 209.31ZM416.948 211H417.848V207.77C417.848 206.2 416.878 205.42 415.628 205.42C414.788 205.42 414.008 205.85 413.688 206.64C413.328 205.82 412.578 205.42 411.678 205.42C410.958 205.42 410.308 205.73 409.948 206.31V205.52H409.038V211H409.948V207.98C409.948 206.8 410.578 206.21 411.498 206.21C412.398 206.21 412.998 206.78 412.998 207.9V211H413.898V207.98C413.898 206.8 414.528 206.21 415.448 206.21C416.348 206.21 416.948 206.78 416.948 207.9V211ZM420.23 210.44C420.23 210.09 419.96 209.82 419.63 209.82C419.28 209.82 419.01 210.09 419.01 210.44C419.01 210.79 419.28 211.06 419.63 211.06C419.96 211.06 420.23 210.79 420.23 210.44ZM424.106 211H425.016V204.03H424.106V211ZM426.767 209.5C426.767 210.6 427.317 211 428.287 211H429.107V210.23H428.437C427.877 210.23 427.677 210.04 427.677 209.5V206.27H429.107V205.52H427.677V204.14H426.767V205.52H426.057V206.27H426.767V209.5ZM432.535 208.25C432.535 209.99 433.645 211.09 435.205 211.09C436.565 211.09 437.455 210.33 437.735 209.24H436.755C436.555 209.93 436.015 210.32 435.205 210.32C434.205 210.32 433.465 209.61 433.465 208.25C433.465 206.91 434.205 206.2 435.205 206.2C436.015 206.2 436.565 206.62 436.755 207.28H437.735C437.455 206.13 436.565 205.43 435.205 205.43C433.645 205.43 432.535 206.53 432.535 208.25ZM438.61 208.24C438.61 209.94 439.74 211.09 441.2 211.09C442.21 211.09 442.92 210.57 443.25 209.98V211H444.17V205.52H443.25V206.52C442.93 205.95 442.23 205.43 441.21 205.43C439.74 205.43 438.61 206.53 438.61 208.24ZM443.25 208.25C443.25 209.54 442.39 210.29 441.39 210.29C440.39 210.29 439.54 209.53 439.54 208.24C439.54 206.95 440.39 206.22 441.39 206.22C442.39 206.22 443.25 206.98 443.25 208.25ZM449.718 211H450.618V207.77C450.618 206.2 449.648 205.42 448.378 205.42C447.638 205.42 446.978 205.73 446.618 206.3V205.52H445.708V211H446.618V207.97C446.618 206.79 447.258 206.21 448.188 206.21C449.108 206.21 449.718 206.78 449.718 207.9V211ZM454.77 211H455.68V207.97C455.68 206.79 456.32 206.21 457.25 206.21C458.17 206.21 458.78 206.78 458.78 207.9V211H459.68V207.77C459.68 206.2 458.71 205.42 457.49 205.42C456.72 205.42 456.04 205.73 455.68 206.31V203.6H454.77V211ZM466.366 208.25C466.366 206.52 465.156 205.43 463.596 205.43C462.046 205.43 460.826 206.52 460.826 208.25C460.826 209.99 462.006 211.09 463.556 211.09C465.116 211.09 466.366 209.99 466.366 208.25ZM461.756 208.25C461.756 206.87 462.626 206.22 463.586 206.22C464.526 206.22 465.436 206.87 465.436 208.25C465.436 209.64 464.506 210.29 463.556 210.29C462.606 210.29 461.756 209.64 461.756 208.25ZM467.563 211H468.473V203.6H467.563V211ZM469.684 208.24C469.684 209.94 470.814 211.09 472.284 211.09C473.284 211.09 473.994 210.58 474.324 209.97V211H475.244V203.6H474.324V206.5C473.944 205.87 473.154 205.43 472.294 205.43C470.814 205.43 469.684 206.53 469.684 208.24ZM474.324 208.25C474.324 209.54 473.464 210.29 472.464 210.29C471.464 210.29 470.614 209.53 470.614 208.24C470.614 206.95 471.464 206.22 472.464 206.22C473.464 206.22 474.324 206.98 474.324 208.25ZM487.358 211H488.258V207.77C488.258 206.2 487.288 205.42 486.038 205.42C485.198 205.42 484.418 205.85 484.098 206.64C483.738 205.82 482.988 205.42 482.088 205.42C481.368 205.42 480.718 205.73 480.358 206.31V205.52H479.448V211H480.358V207.98C480.358 206.8 480.988 206.21 481.908 206.21C482.808 206.21 483.408 206.78 483.408 207.9V211H484.308V207.98C484.308 206.8 484.938 206.21 485.858 206.21C486.758 206.21 487.358 206.78 487.358 207.9V211ZM494.61 205.52H493.7V208.53C493.7 209.71 493.07 210.29 492.13 210.29C491.21 210.29 490.6 209.72 490.6 208.61V205.52H489.7V208.73C489.7 210.3 490.69 211.08 491.95 211.08C492.68 211.08 493.35 210.76 493.7 210.19V211H494.61V205.52ZM496.147 211H497.057V203.6H496.147V211ZM498.808 209.5C498.808 210.6 499.358 211 500.328 211H501.148V210.23H500.478C499.918 210.23 499.718 210.04 499.718 209.5V206.27H501.148V205.52H499.718V204.14H498.808V205.52H498.098V206.27H498.808V209.5ZM502.25 211H503.16V205.52H502.25V211ZM502.72 204.63C503.05 204.63 503.32 204.36 503.32 204.01C503.32 203.66 503.05 203.39 502.72 203.39C502.37 203.39 502.1 203.66 502.1 204.01C502.1 204.36 502.37 204.63 502.72 204.63ZM505.621 206.53V205.52H504.711V213.6H505.621V209.99C505.961 210.55 506.671 211.09 507.671 211.09C509.141 211.09 510.271 209.94 510.271 208.24C510.271 206.53 509.141 205.43 507.671 205.43C506.671 205.43 505.951 205.95 505.621 206.53ZM509.341 208.24C509.341 209.53 508.491 210.29 507.481 210.29C506.491 210.29 505.621 209.54 505.621 208.25C505.621 206.98 506.491 206.22 507.481 206.22C508.491 206.22 509.341 206.95 509.341 208.24ZM511.469 211H512.379V203.6H511.469V211ZM516.26 206.2C517.2 206.2 518 206.79 517.99 207.86H514.53C514.63 206.79 515.37 206.2 516.26 206.2ZM518.82 209.31H517.84C517.64 209.9 517.12 210.32 516.3 210.32C515.37 210.32 514.59 209.71 514.52 208.6H518.9C518.92 208.41 518.93 208.25 518.93 208.05C518.93 206.55 517.89 205.43 516.3 205.43C514.7 205.43 513.59 206.52 513.59 208.25C513.59 209.99 514.74 211.09 516.3 211.09C517.66 211.09 518.54 210.31 518.82 209.31ZM522.797 211H523.707V203.6H522.797V211ZM525.258 211H526.168V205.52H525.258V211ZM525.728 204.63C526.058 204.63 526.328 204.36 526.328 204.01C526.328 203.66 526.058 203.39 525.728 203.39C525.378 203.39 525.108 203.66 525.108 204.01C525.108 204.36 525.378 204.63 525.728 204.63ZM531.729 211H532.629V207.77C532.629 206.2 531.659 205.42 530.389 205.42C529.649 205.42 528.989 205.73 528.629 206.3V205.52H527.719V211H528.629V207.97C528.629 206.79 529.269 206.21 530.199 206.21C531.119 206.21 531.729 206.78 531.729 207.9V211ZM536.446 206.2C537.386 206.2 538.186 206.79 538.176 207.86H534.716C534.816 206.79 535.556 206.2 536.446 206.2ZM539.006 209.31H538.026C537.826 209.9 537.306 210.32 536.486 210.32C535.556 210.32 534.776 209.71 534.706 208.6H539.086C539.106 208.41 539.116 208.25 539.116 208.05C539.116 206.55 538.076 205.43 536.486 205.43C534.886 205.43 533.776 206.52 533.776 208.25C533.776 209.99 534.926 211.09 536.486 211.09C537.846 211.09 538.726 210.31 539.006 209.31ZM544.257 209.51C544.217 207.55 541.037 208.26 541.037 206.96C541.037 206.52 541.437 206.2 542.107 206.2C542.837 206.2 543.257 206.6 543.297 207.15H544.207C544.147 206.08 543.347 205.43 542.137 205.43C540.917 205.43 540.127 206.12 540.127 206.96C540.127 209 543.367 208.29 543.367 209.51C543.367 209.96 542.967 210.32 542.247 210.32C541.477 210.32 541.007 209.92 540.957 209.39H540.017C540.077 210.39 540.977 211.09 542.257 211.09C543.467 211.09 544.257 210.41 544.257 209.51ZM546.431 210.44C546.431 210.09 546.161 209.82 545.831 209.82C545.481 209.82 545.211 210.09 545.211 210.44C545.211 210.79 545.481 211.06 545.831 211.06C546.161 211.06 546.431 210.79 546.431 210.44Z" fill="#868A9E"/>
<path d="M258.352 175.424H256.616V181H258.352C260.184 181 261.312 179.952 261.312 178.224C261.312 176.496 260.184 175.424 258.352 175.424ZM257.344 180.4V176.016H258.352C259.808 176.016 260.568 176.864 260.568 178.224C260.568 179.584 259.808 180.4 258.352 180.4H257.344ZM264.136 177.16C264.888 177.16 265.528 177.632 265.52 178.488H262.752C262.832 177.632 263.424 177.16 264.136 177.16ZM266.184 179.648H265.4C265.24 180.12 264.824 180.456 264.168 180.456C263.424 180.456 262.8 179.968 262.744 179.08H266.248C266.264 178.928 266.272 178.8 266.272 178.64C266.272 177.44 265.44 176.544 264.168 176.544C262.888 176.544 262 177.416 262 178.8C262 180.192 262.92 181.072 264.168 181.072C265.256 181.072 265.96 180.448 266.184 179.648ZM270.385 179.808C270.353 178.24 267.809 178.808 267.809 177.768C267.809 177.416 268.129 177.16 268.665 177.16C269.249 177.16 269.585 177.48 269.617 177.92H270.345C270.297 177.064 269.657 176.544 268.689 176.544C267.713 176.544 267.081 177.096 267.081 177.768C267.081 179.4 269.673 178.832 269.673 179.808C269.673 180.168 269.353 180.456 268.777 180.456C268.161 180.456 267.785 180.136 267.745 179.712H266.993C267.041 180.512 267.761 181.072 268.785 181.072C269.753 181.072 270.385 180.528 270.385 179.808ZM271.141 178.8C271.141 180.192 272.029 181.072 273.277 181.072C274.365 181.072 275.077 180.464 275.301 179.592H274.517C274.357 180.144 273.925 180.456 273.277 180.456C272.477 180.456 271.885 179.888 271.885 178.8C271.885 177.728 272.477 177.16 273.277 177.16C273.925 177.16 274.365 177.496 274.517 178.024H275.301C275.077 177.104 274.365 176.544 273.277 176.544C272.029 176.544 271.141 177.424 271.141 178.8ZM277 178.616C277 177.6 277.528 177.288 278.224 177.288H278.416V176.536C277.72 176.536 277.248 176.84 277 177.328V176.616H276.272V181H277V178.616ZM279.257 181H279.985V176.616H279.257V181ZM279.633 175.904C279.897 175.904 280.113 175.688 280.113 175.408C280.113 175.128 279.897 174.912 279.633 174.912C279.353 174.912 279.137 175.128 279.137 175.408C279.137 175.688 279.353 175.904 279.633 175.904ZM281.953 177.424V176.616H281.225V183.08H281.953V180.192C282.225 180.64 282.793 181.072 283.593 181.072C284.769 181.072 285.673 180.152 285.673 178.792C285.673 177.424 284.769 176.544 283.593 176.544C282.793 176.544 282.217 176.96 281.953 177.424ZM284.929 178.792C284.929 179.824 284.249 180.432 283.441 180.432C282.649 180.432 281.953 179.832 281.953 178.8C281.953 177.784 282.649 177.176 283.441 177.176C284.249 177.176 284.929 177.76 284.929 178.792ZM286.792 179.8C286.792 180.68 287.232 181 288.008 181H288.664V180.384H288.128C287.68 180.384 287.52 180.232 287.52 179.8V177.216H288.664V176.616H287.52V175.512H286.792V176.616H286.224V177.216H286.792V179.8ZM289.546 181H290.274V176.616H289.546V181ZM289.922 175.904C290.186 175.904 290.402 175.688 290.402 175.408C290.402 175.128 290.186 174.912 289.922 174.912C289.642 174.912 289.426 175.128 289.426 175.408C289.426 175.688 289.642 175.904 289.922 175.904ZM295.674 178.8C295.674 177.416 294.706 176.544 293.458 176.544C292.218 176.544 291.242 177.416 291.242 178.8C291.242 180.192 292.186 181.072 293.426 181.072C294.674 181.072 295.674 180.192 295.674 178.8ZM291.986 178.8C291.986 177.696 292.682 177.176 293.45 177.176C294.202 177.176 294.93 177.696 294.93 178.8C294.93 179.912 294.186 180.432 293.426 180.432C292.666 180.432 291.986 179.912 291.986 178.8ZM299.84 181H300.56V178.416C300.56 177.16 299.784 176.536 298.768 176.536C298.176 176.536 297.648 176.784 297.36 177.24V176.616H296.632V181H297.36V178.576C297.36 177.632 297.872 177.168 298.616 177.168C299.352 177.168 299.84 177.624 299.84 178.52V181Z" fill="#868A9E"/>
<path d="M592 245.5L594 243.5M594 240.5L589 245.5" stroke="white" stroke-opacity="0.5"/>
<g filter="url(#filter1_d)">
<rect width="240" height="436" rx="8" fill="#22273C"/>
<rect x="8.25" y="16" width="223.5" height="32" rx="4" fill="#15192C" stroke="#373D57"/>
<g clip-path="url(#clip1)">
<path fill-rule="evenodd" clip-rule="evenodd" d="M19.5352 31.2782C19.5352 29.2023 21.218 27.5195 23.2938 27.5195C25.3697 27.5195 27.0525 29.2023 27.0525 31.2782C27.0525 33.3541 25.3697 35.0369 23.2938 35.0369C21.218 35.0369 19.5352 33.3541 19.5352 31.2782ZM23.2938 26.0195C20.3895 26.0195 18.0352 28.3739 18.0352 31.2782C18.0352 34.1825 20.3895 36.5369 23.2938 36.5369C24.4754 36.5369 25.566 36.1472 26.444 35.4893L28.3993 37.4446C28.6922 37.7375 29.167 37.7375 29.4599 37.4446C29.7528 37.1517 29.7528 36.6768 29.4599 36.3839L27.5047 34.4287C28.1627 33.5506 28.5525 32.4599 28.5525 31.2782C28.5525 28.3739 26.1981 26.0195 23.2938 26.0195Z" fill="#A3A8B8"/>
<path d="M43.3156 34.1C43.3156 31.52 39.5556 32.64 39.5556 30.84C39.5556 30.09 40.1456 29.7 40.8956 29.72C41.7456 29.73 42.1856 30.26 42.2456 30.73H43.2456C43.1356 29.67 42.2656 28.94 40.9356 28.94C39.5556 28.94 38.6256 29.72 38.6256 30.87C38.6256 33.46 42.3956 32.26 42.3956 34.14C42.3956 34.8 41.8756 35.3 40.9956 35.3C40.0256 35.3 39.6156 34.72 39.5556 34.14H38.5856C38.6056 35.29 39.5956 36.07 40.9956 36.07C42.5056 36.07 43.3156 35.09 43.3156 34.1ZM46.9848 31.2C47.9248 31.2 48.7248 31.79 48.7148 32.86H45.2548C45.3548 31.79 46.0948 31.2 46.9848 31.2ZM49.5448 34.31H48.5648C48.3648 34.9 47.8448 35.32 47.0248 35.32C46.0948 35.32 45.3148 34.71 45.2448 33.6H49.6248C49.6448 33.41 49.6548 33.25 49.6548 33.05C49.6548 31.55 48.6148 30.43 47.0248 30.43C45.4248 30.43 44.3148 31.52 44.3148 33.25C44.3148 34.99 45.4648 36.09 47.0248 36.09C48.3848 36.09 49.2648 35.31 49.5448 34.31ZM50.5159 33.24C50.5159 34.94 51.6459 36.09 53.1059 36.09C54.1159 36.09 54.8259 35.57 55.1559 34.98V36H56.0759V30.52H55.1559V31.52C54.8359 30.95 54.1359 30.43 53.1159 30.43C51.6459 30.43 50.5159 31.53 50.5159 33.24ZM55.1559 33.25C55.1559 34.54 54.2959 35.29 53.2959 35.29C52.2959 35.29 51.4459 34.53 51.4459 33.24C51.4459 31.95 52.2959 31.22 53.2959 31.22C54.2959 31.22 55.1559 31.98 55.1559 33.25ZM58.5238 33.02C58.5238 31.75 59.1838 31.36 60.0538 31.36H60.2938V30.42C59.4238 30.42 58.8338 30.8 58.5238 31.41V30.52H57.6138V36H58.5238V33.02ZM61.0042 33.25C61.0042 34.99 62.1142 36.09 63.6742 36.09C65.0342 36.09 65.9242 35.33 66.2042 34.24H65.2242C65.0242 34.93 64.4842 35.32 63.6742 35.32C62.6742 35.32 61.9342 34.61 61.9342 33.25C61.9342 31.91 62.6742 31.2 63.6742 31.2C64.4842 31.2 65.0342 31.62 65.2242 32.28H66.2042C65.9242 31.13 65.0342 30.43 63.6742 30.43C62.1142 30.43 61.0042 31.53 61.0042 33.25ZM67.4184 36H68.3284V32.97C68.3284 31.79 68.9684 31.21 69.8984 31.21C70.8184 31.21 71.4284 31.78 71.4284 32.9V36H72.3284V32.77C72.3284 31.2 71.3584 30.42 70.1384 30.42C69.3684 30.42 68.6884 30.73 68.3284 31.31V28.6H67.4184V36Z" fill="#A3A8B8"/>
</g>
<path d="M28.6667 71.334H19.3333C18.597 71.334 18 71.9309 18 72.6673V77.334C18 78.0704 18.597 78.6673 19.3333 78.6673H28.6667C29.403 78.6673 30 78.0704 30 77.334V72.6673C30 71.9309 29.403 71.334 28.6667 71.334Z" stroke="white" stroke-linecap="round" stroke-linejoin="round"/>
<path d="M20.666 71.334V68.6673C20.666 67.7833 21.0172 66.9354 21.6423 66.3103C22.2674 65.6852 23.1153 65.334 23.9993 65.334C24.8834 65.334 25.7312 65.6852 26.3564 66.3103C26.9815 66.9354 27.3327 67.7833 27.3327 68.6673V71.334" stroke="white" stroke-linecap="round" stroke-linejoin="round"/>
<path d="M45.4 70.096C45.4 71.032 44.86 71.704 43.624 71.704H42.016V68.536H43.624C44.872 68.536 45.4 69.148 45.4 70.096ZM40.924 67.636V76H42.016V72.58H43.336L45.328 76H46.636L44.536 72.496C45.94 72.184 46.528 71.164 46.528 70.096C46.528 68.728 45.592 67.636 43.624 67.636H40.924ZM54.4648 72.7C54.4648 70.624 53.0128 69.316 51.1408 69.316C49.2808 69.316 47.8168 70.624 47.8168 72.7C47.8168 74.788 49.2328 76.108 51.0928 76.108C52.9648 76.108 54.4648 74.788 54.4648 72.7ZM48.9328 72.7C48.9328 71.044 49.9768 70.264 51.1288 70.264C52.2568 70.264 53.3488 71.044 53.3488 72.7C53.3488 74.368 52.2328 75.148 51.0928 75.148C49.9528 75.148 48.9328 74.368 48.9328 72.7ZM55.9006 76H56.9926V67.12H55.9006V76ZM61.6497 70.24C62.7777 70.24 63.7377 70.948 63.7257 72.232H59.5737C59.6937 70.948 60.5817 70.24 61.6497 70.24ZM64.7217 73.972H63.5457C63.3057 74.68 62.6817 75.184 61.6977 75.184C60.5817 75.184 59.6457 74.452 59.5617 73.12H64.8177C64.8417 72.892 64.8537 72.7 64.8537 72.46C64.8537 70.66 63.6057 69.316 61.6977 69.316C59.7777 69.316 58.4457 70.624 58.4457 72.7C58.4457 74.788 59.8257 76.108 61.6977 76.108C63.3297 76.108 64.3857 75.172 64.7217 73.972ZM71.0231 74.212C70.9751 71.86 67.1591 72.712 67.1591 71.152C67.1591 70.624 67.6391 70.24 68.4431 70.24C69.3191 70.24 69.8231 70.72 69.8711 71.38H70.9631C70.8911 70.096 69.9311 69.316 68.4791 69.316C67.0151 69.316 66.0671 70.144 66.0671 71.152C66.0671 73.6 69.9551 72.748 69.9551 74.212C69.9551 74.752 69.4751 75.184 68.6111 75.184C67.6871 75.184 67.1231 74.704 67.0631 74.068H65.9351C66.0071 75.268 67.0871 76.108 68.6231 76.108C70.0751 76.108 71.0231 75.292 71.0231 74.212Z" fill="white"/>
<path d="M91.3327 70.0007L87.9993 73.334L84.666 70.0007" stroke="white" stroke-linecap="round" stroke-linejoin="round"/>
<path d="M203 64C203 61.7909 204.791 60 207 60H223C225.209 60 227 61.7909 227 64V80C227 82.2091 225.209 84 223 84H207C204.791 84 203 82.2091 203 80V64Z" fill="#7950ED"/>
<path d="M215 67.334V76.6673" stroke="white" stroke-width="2" stroke-linecap="round" stroke-linejoin="round"/>
<path d="M210.334 72H219.667" stroke="white" stroke-width="2" stroke-linecap="round" stroke-linejoin="round"/>
<path d="M8 100C8 95.5817 11.5817 92 16 92H224C228.418 92 232 95.5817 232 100V116C232 120.418 228.418 124 224 124H16C11.5817 124 8 120.418 8 116V100Z" fill="#373D57"/>
<path d="M32.9 108.916C32.9 111.088 34.316 112.084 36.044 112.084C37.772 112.084 39.2 111.088 39.2 108.916V103.636H38.108V108.928C38.108 110.464 37.292 111.124 36.056 111.124C34.82 111.124 33.992 110.464 33.992 108.928V103.636H32.9V108.916ZM45.7497 110.212C45.7017 107.86 41.8857 108.712 41.8857 107.152C41.8857 106.624 42.3657 106.24 43.1697 106.24C44.0457 106.24 44.5497 106.72 44.5977 107.38H45.6897C45.6177 106.096 44.6577 105.316 43.2057 105.316C41.7417 105.316 40.7937 106.144 40.7937 107.152C40.7937 109.6 44.6817 108.748 44.6817 110.212C44.6817 110.752 44.2017 111.184 43.3377 111.184C42.4137 111.184 41.8497 110.704 41.7897 110.068H40.6617C40.7337 111.268 41.8137 112.108 43.3497 112.108C44.8017 112.108 45.7497 111.292 45.7497 110.212ZM50.0872 106.24C51.2152 106.24 52.1752 106.948 52.1632 108.232H48.0112C48.1312 106.948 49.0192 106.24 50.0872 106.24ZM53.1592 109.972H51.9832C51.7432 110.68 51.1192 111.184 50.1352 111.184C49.0192 111.184 48.0832 110.452 47.9992 109.12H53.2552C53.2792 108.892 53.2912 108.7 53.2912 108.46C53.2912 106.66 52.0432 105.316 50.1352 105.316C48.2152 105.316 46.8832 106.624 46.8832 108.7C46.8832 110.788 48.2632 112.108 50.1352 112.108C51.7672 112.108 52.8232 111.172 53.1592 109.972ZM55.8246 108.424C55.8246 106.9 56.6166 106.432 57.6606 106.432H57.9486V105.304C56.9046 105.304 56.1966 105.76 55.8246 106.492V105.424H54.7326V112H55.8246V108.424Z" fill="white"/>
<path d="M38.54 148H39.692L36.68 139.684H35.42L32.396 148H33.548L34.22 146.14H37.868L38.54 148ZM37.556 145.252H34.532L36.044 141.028L37.556 145.252ZM40.6019 144.688C40.6019 146.728 41.9579 148.108 43.7219 148.108C44.9219 148.108 45.7739 147.496 46.1699 146.764V148H47.2739V139.12H46.1699V142.6C45.7139 141.844 44.7659 141.316 43.7339 141.316C41.9579 141.316 40.6019 142.636 40.6019 144.688ZM46.1699 144.7C46.1699 146.248 45.1379 147.148 43.9379 147.148C42.7379 147.148 41.7179 146.236 41.7179 144.688C41.7179 143.14 42.7379 142.264 43.9379 142.264C45.1379 142.264 46.1699 143.176 46.1699 144.7ZM58.6113 148H59.6913V144.124C59.6913 142.24 58.5273 141.304 57.0273 141.304C56.0193 141.304 55.0833 141.82 54.6993 142.768C54.2673 141.784 53.3673 141.304 52.2873 141.304C51.4233 141.304 50.6433 141.676 50.2113 142.372V141.424H49.1193V148H50.2113V144.376C50.2113 142.96 50.9673 142.252 52.0713 142.252C53.1513 142.252 53.8713 142.936 53.8713 144.28V148H54.9513V144.376C54.9513 142.96 55.7073 142.252 56.8113 142.252C57.8913 142.252 58.6113 142.936 58.6113 144.28V148ZM61.4826 148H62.5746V141.424H61.4826V148ZM62.0466 140.356C62.4426 140.356 62.7666 140.032 62.7666 139.612C62.7666 139.192 62.4426 138.868 62.0466 138.868C61.6266 138.868 61.3026 139.192 61.3026 139.612C61.3026 140.032 61.6266 140.356 62.0466 140.356ZM69.2477 148H70.3277V144.124C70.3277 142.24 69.1637 141.304 67.6397 141.304C66.7517 141.304 65.9597 141.676 65.5277 142.36V141.424H64.4357V148H65.5277V144.364C65.5277 142.948 66.2957 142.252 67.4117 142.252C68.5157 142.252 69.2477 142.936 69.2477 144.28V148Z" fill="#A3A8B8"/>
<path d="M32.924 184H34.016V177.796L36.788 184H37.556L40.316 177.808V184H41.408V175.696H40.244L37.172 182.56L34.1 175.696H32.924V184ZM42.8519 180.688C42.8519 182.728 44.2079 184.108 45.9599 184.108C47.1719 184.108 48.0239 183.484 48.4199 182.776V184H49.5239V177.424H48.4199V178.624C48.0359 177.94 47.1959 177.316 45.9719 177.316C44.2079 177.316 42.8519 178.636 42.8519 180.688ZM48.4199 180.7C48.4199 182.248 47.3879 183.148 46.1879 183.148C44.9879 183.148 43.9679 182.236 43.9679 180.688C43.9679 179.14 44.9879 178.264 46.1879 178.264C47.3879 178.264 48.4199 179.176 48.4199 180.7ZM56.1813 184H57.2613V180.124C57.2613 178.24 56.0973 177.304 54.5733 177.304C53.6853 177.304 52.8933 177.676 52.4613 178.36V177.424H51.3693V184H52.4613V180.364C52.4613 178.948 53.2293 178.252 54.3453 178.252C55.4493 178.252 56.1813 178.936 56.1813 180.28V184ZM58.6371 180.688C58.6371 182.728 59.9931 184.108 61.7451 184.108C62.9571 184.108 63.8091 183.484 64.2051 182.776V184H65.3091V177.424H64.2051V178.624C63.8211 177.94 62.9811 177.316 61.7571 177.316C59.9931 177.316 58.6371 178.636 58.6371 180.688ZM64.2051 180.7C64.2051 182.248 63.1731 183.148 61.9731 183.148C60.7731 183.148 59.7531 182.236 59.7531 180.688C59.7531 179.14 60.7731 178.264 61.9731 178.264C63.1731 178.264 64.2051 179.176 64.2051 180.7ZM66.7465 180.688C66.7465 182.728 68.1025 184.108 69.8665 184.108C71.0665 184.108 71.9185 183.472 72.3145 182.764V184.144C72.3145 185.548 71.4385 186.292 70.2745 186.292C69.1945 186.292 68.4145 185.752 68.1745 184.96H67.0945C67.3105 186.364 68.5465 187.24 70.2745 187.24C72.2065 187.24 73.4185 185.956 73.4185 184.144V177.424H72.3145V178.624C71.9305 177.916 71.0665 177.316 69.8665 177.316C68.1025 177.316 66.7465 178.636 66.7465 180.688ZM72.3145 180.7C72.3145 182.248 71.2825 183.148 70.0825 183.148C68.8825 183.148 67.8625 182.236 67.8625 180.688C67.8625 179.14 68.8825 178.264 70.0825 178.264C71.2825 178.264 72.3145 179.176 72.3145 180.7ZM78.0598 178.24C79.1878 178.24 80.1478 178.948 80.1358 180.232H75.9838C76.1038 178.948 76.9918 178.24 78.0598 178.24ZM81.1318 181.972H79.9558C79.7158 182.68 79.0918 183.184 78.1078 183.184C76.9918 183.184 76.0558 182.452 75.9718 181.12H81.2278C81.2518 180.892 81.2638 180.7 81.2638 180.46C81.2638 178.66 80.0158 177.316 78.1078 177.316C76.1878 177.316 74.8558 178.624 74.8558 180.7C74.8558 182.788 76.2358 184.108 78.1078 184.108C79.7398 184.108 80.7958 183.172 81.1318 181.972ZM83.7973 180.424C83.7973 178.9 84.5893 178.432 85.6333 178.432H85.9213V177.304C84.8773 177.304 84.1693 177.76 83.7973 178.492V177.424H82.7053V184H83.7973V180.424Z" fill="#A3A8B8"/>
<path d="M8 208C8 203.582 11.5817 200 16 200H224C228.418 200 232 203.582 232 208V224C232 228.418 228.418 232 224 232H16C11.5817 232 8 228.418 8 224V208Z" fill="#22273C"/>
<path d="M30.54 220H31.692L28.68 211.684H27.42L24.396 220H25.548L26.22 218.14H29.868L30.54 220ZM29.556 217.252H26.532L28.044 213.028L29.556 217.252ZM32.6019 216.688C32.6019 218.728 33.9579 220.108 35.7219 220.108C36.9219 220.108 37.7739 219.496 38.1699 218.764V220H39.2739V211.12H38.1699V214.6C37.7139 213.844 36.7659 213.316 35.7339 213.316C33.9579 213.316 32.6019 214.636 32.6019 216.688ZM38.1699 216.7C38.1699 218.248 37.1379 219.148 35.9379 219.148C34.7379 219.148 33.7179 218.236 33.7179 216.688C33.7179 215.14 34.7379 214.264 35.9379 214.264C37.1379 214.264 38.1699 215.176 38.1699 216.7ZM40.7113 216.688C40.7113 218.728 42.0673 220.108 43.8313 220.108C45.0313 220.108 45.8833 219.496 46.2793 218.764V220H47.3833V211.12H46.2793V214.6C45.8233 213.844 44.8753 213.316 43.8433 213.316C42.0673 213.316 40.7113 214.636 40.7113 216.688ZM46.2793 216.7C46.2793 218.248 45.2473 219.148 44.0473 219.148C42.8473 219.148 41.8273 218.236 41.8273 216.688C41.8273 215.14 42.8473 214.264 44.0473 214.264C45.2473 214.264 46.2793 215.176 46.2793 216.7ZM53.5199 216.424C53.5199 214.9 54.3119 214.432 55.3559 214.432H55.6439V213.304C54.5999 213.304 53.8919 213.76 53.5199 214.492V213.424H52.4279V220H53.5199V216.424ZM63.1445 216.7C63.1445 214.624 61.6925 213.316 59.8205 213.316C57.9605 213.316 56.4965 214.624 56.4965 216.7C56.4965 218.788 57.9125 220.108 59.7725 220.108C61.6445 220.108 63.1445 218.788 63.1445 216.7ZM57.6125 216.7C57.6125 215.044 58.6565 214.264 59.8085 214.264C60.9365 214.264 62.0285 215.044 62.0285 216.7C62.0285 218.368 60.9125 219.148 59.7725 219.148C58.6325 219.148 57.6125 218.368 57.6125 216.7ZM64.5803 220H65.6723V211.12H64.5803V220ZM70.3294 214.24C71.4574 214.24 72.4174 214.948 72.4054 216.232H68.2534C68.3734 214.948 69.2614 214.24 70.3294 214.24ZM73.4014 217.972H72.2254C71.9854 218.68 71.3614 219.184 70.3774 219.184C69.2614 219.184 68.3254 218.452 68.2414 217.12H73.4974C73.5214 216.892 73.5334 216.7 73.5334 216.46C73.5334 214.66 72.2854 213.316 70.3774 213.316C68.4574 213.316 67.1254 214.624 67.1254 216.7C67.1254 218.788 68.5054 220.108 70.3774 220.108C72.0094 220.108 73.0654 219.172 73.4014 217.972ZM82.986 220H84.066V216.124C84.066 214.24 82.902 213.304 81.378 213.304C80.49 213.304 79.698 213.676 79.266 214.36V213.424H78.174V220H79.266V216.364C79.266 214.948 80.034 214.252 81.15 214.252C82.254 214.252 82.986 214.936 82.986 216.28V220ZM85.4418 216.688C85.4418 218.728 86.7978 220.108 88.5498 220.108C89.7618 220.108 90.6138 219.484 91.0098 218.776V220H92.1138V213.424H91.0098V214.624C90.6258 213.94 89.7858 213.316 88.5618 213.316C86.7978 213.316 85.4418 214.636 85.4418 216.688ZM91.0098 216.7C91.0098 218.248 89.9778 219.148 88.7778 219.148C87.5778 219.148 86.5578 218.236 86.5578 216.688C86.5578 215.14 87.5778 214.264 88.7778 214.264C89.9778 214.264 91.0098 215.176 91.0098 216.7ZM103.451 220H104.531V216.124C104.531 214.24 103.367 213.304 101.867 213.304C100.859 213.304 99.9232 213.82 99.5392 214.768C99.1072 213.784 98.2072 213.304 97.1272 213.304C96.2632 213.304 95.4832 213.676 95.0512 214.372V213.424H93.9592V220H95.0512V216.376C95.0512 214.96 95.8072 214.252 96.9112 214.252C97.9912 214.252 98.7112 214.936 98.7112 216.28V220H99.7912V216.376C99.7912 214.96 100.547 214.252 101.651 214.252C102.731 214.252 103.451 214.936 103.451 216.28V220ZM109.118 214.24C110.246 214.24 111.206 214.948 111.194 216.232H107.042C107.162 214.948 108.05 214.24 109.118 214.24ZM112.19 217.972H111.014C110.774 218.68 110.15 219.184 109.166 219.184C108.05 219.184 107.114 218.452 107.03 217.12H112.286C112.31 216.892 112.322 216.7 112.322 216.46C112.322 214.66 111.074 213.316 109.166 213.316C107.246 213.316 105.914 214.624 105.914 216.7C105.914 218.788 107.294 220.108 109.166 220.108C110.798 220.108 111.854 219.172 112.19 217.972Z" fill="#686F8C"/>
<path d="M16 231.5C14.9821 231.5 14.0128 231.298 13.1292 230.931L12.7462 231.855C13.7491 232.271 14.8484 232.5 16 232.5V231.5ZM9.06891 226.871C8.70249 225.987 8.5 225.018 8.5 224H7.5C7.5 225.152 7.72929 226.251 8.14518 227.254L9.06891 226.871ZM8.5 224V222H7.5V224H8.5ZM8.5 218V214H7.5V218H8.5ZM8.5 210V208H7.5V210H8.5ZM8.5 208C8.5 206.982 8.70249 206.013 9.06891 205.129L8.14518 204.746C7.72929 205.749 7.5 206.848 7.5 208H8.5ZM13.1292 201.069C14.0128 200.702 14.9821 200.5 16 200.5V199.5C14.8484 199.5 13.7491 199.729 12.7462 200.145L13.1292 201.069ZM16 200.5H18.4762V199.5H16V200.5ZM23.4286 200.5H28.381V199.5H23.4286V200.5ZM33.3333 200.5H38.2857V199.5H33.3333V200.5ZM43.2381 200.5H48.1905V199.5H43.2381V200.5ZM53.1429 200.5H58.0952V199.5H53.1429V200.5ZM63.0476 200.5H68V199.5H63.0476V200.5ZM72.9524 200.5H77.9048V199.5H72.9524V200.5ZM82.8571 200.5H87.8095V199.5H82.8571V200.5ZM92.7619 200.5H97.7143V199.5H92.7619V200.5ZM102.667 200.5H107.619V199.5H102.667V200.5ZM112.571 200.5H117.524V199.5H112.571V200.5ZM122.476 200.5H127.429V199.5H122.476V200.5ZM132.381 200.5H137.333V199.5H132.381V200.5ZM142.286 200.5H147.238V199.5H142.286V200.5ZM152.19 200.5H157.143V199.5H152.19V200.5ZM162.095 200.5H167.048V199.5H162.095V200.5ZM172 200.5H176.952V199.5H172V200.5ZM181.905 200.5H186.857V199.5H181.905V200.5ZM191.809 200.5H196.762V199.5H191.809V200.5ZM201.714 200.5H206.667V199.5H201.714V200.5ZM211.619 200.5H216.571V199.5H211.619V200.5ZM221.524 200.5H224V199.5H221.524V200.5ZM224 200.5C225.018 200.5 225.987 200.702 226.871 201.069L227.254 200.145C226.251 199.729 225.152 199.5 224 199.5V200.5ZM230.931 205.129C231.298 206.013 231.5 206.982 231.5 208H232.5C232.5 206.848 232.271 205.749 231.855 204.746L230.931 205.129ZM231.5 208V210H232.5V208H231.5ZM231.5 214V218H232.5V214H231.5ZM231.5 222V224H232.5V222H231.5ZM231.5 224C231.5 225.018 231.298 225.987 230.931 226.871L231.855 227.254C232.271 226.251 232.5 225.152 232.5 224H231.5ZM226.871 230.931C225.987 231.298 225.018 231.5 224 231.5V232.5C225.152 232.5 226.251 232.271 227.254 231.855L226.871 230.931ZM224 231.5H221.524V232.5H224V231.5ZM216.571 231.5H211.619V232.5H216.571V231.5ZM206.667 231.5H201.714V232.5H206.667V231.5ZM196.762 231.5H191.81V232.5H196.762V231.5ZM186.857 231.5H181.905V232.5H186.857V231.5ZM176.952 231.5H172V232.5H176.952V231.5ZM167.048 231.5H162.095V232.5H167.048V231.5ZM157.143 231.5H152.19V232.5H157.143V231.5ZM147.238 231.5H142.286V232.5H147.238V231.5ZM137.333 231.5H132.381V232.5H137.333V231.5ZM127.429 231.5H122.476V232.5H127.429V231.5ZM117.524 231.5H112.571V232.5H117.524V231.5ZM107.619 231.5H102.667V232.5H107.619V231.5ZM97.7143 231.5H92.7619V232.5H97.7143V231.5ZM87.8096 231.5H82.8572V232.5H87.8096V231.5ZM77.9048 231.5H72.9524V232.5H77.9048V231.5ZM68.0001 231.5H63.0477V232.5H68.0001V231.5ZM58.0953 231.5H53.1429V232.5H58.0953V231.5ZM48.1905 231.5H43.2382V232.5H48.1905V231.5ZM38.2858 231.5H33.3334V232.5H38.2858V231.5ZM28.381 231.5H23.4287V232.5H28.381V231.5ZM18.4763 231.5H16V232.5H18.4763V231.5ZM16 231C15.049 231 14.1447 230.811 13.3207 230.469L12.5546 232.317C13.6172 232.757 14.7815 233 16 233V231ZM9.53077 226.679C9.18908 225.855 9 224.951 9 224H7C7 225.218 7.24269 226.383 7.68332 227.445L9.53077 226.679ZM9 224V222H7V224H9ZM9 218V214H7V218H9ZM9 210V208H7V210H9ZM9 208C9 207.049 9.18908 206.145 9.53077 205.321L7.68332 204.555C7.24269 205.617 7 206.782 7 208H9ZM13.3208 201.531C14.1447 201.189 15.049 201 16 201V199C14.7815 199 13.6172 199.243 12.5546 199.683L13.3208 201.531ZM16 201H18.4762V199H16V201ZM23.4286 201H28.381V199H23.4286V201ZM33.3333 201H38.2857V199H33.3333V201ZM43.2381 201H48.1905V199H43.2381V201ZM53.1429 201H58.0952V199H53.1429V201ZM63.0476 201H68V199H63.0476V201ZM72.9524 201H77.9048V199H72.9524V201ZM82.8571 201H87.8095V199H82.8571V201ZM92.7619 201H97.7143V199H92.7619V201ZM102.667 201H107.619V199H102.667V201ZM112.571 201H117.524V199H112.571V201ZM122.476 201H127.429V199H122.476V201ZM132.381 201H137.333V199H132.381V201ZM142.286 201H147.238V199H142.286V201ZM152.19 201H157.143V199H152.19V201ZM162.095 201H167.048V199H162.095V201ZM172 201H176.952V199H172V201ZM181.905 201H186.857V199H181.905V201ZM191.809 201H196.762V199H191.809V201ZM201.714 201H206.667V199H201.714V201ZM211.619 201H216.571V199H211.619V201ZM221.524 201H224V199H221.524V201ZM224 201C224.951 201 225.855 201.189 226.679 201.531L227.445 199.683C226.383 199.243 225.218 199 224 199V201ZM230.469 205.321C230.811 206.145 231 207.049 231 208H233C233 206.782 232.757 205.617 232.317 204.555L230.469 205.321ZM231 208V210H233V208H231ZM231 214V218H233V214H231ZM231 222V224H233V222H231ZM231 224C231 224.951 230.811 225.855 230.469 226.679L232.317 227.445C232.757 226.383 233 225.218 233 224H231ZM226.679 230.469C225.855 230.811 224.951 231 224 231V233C225.218 233 226.383 232.757 227.445 232.317L226.679 230.469ZM224 231H221.524V233H224V231ZM216.571 231H211.619V233H216.571V231ZM206.667 231H201.714V233H206.667V231ZM196.762 231H191.81V233H196.762V231ZM186.857 231H181.905V233H186.857V231ZM176.952 231H172V233H176.952V231ZM167.048 231H162.095V233H167.048V231ZM157.143 231H152.19V233H157.143V231ZM147.238 231H142.286V233H147.238V231ZM137.333 231H132.381V233H137.333V231ZM127.429 231H122.476V233H127.429V231ZM117.524 231H112.571V233H117.524V231ZM107.619 231H102.667V233H107.619V231ZM97.7143 231H92.7619V233H97.7143V231ZM87.8096 231H82.8572V233H87.8096V231ZM77.9048 231H72.9524V233H77.9048V231ZM68.0001 231H63.0477V233H68.0001V231ZM58.0953 231H53.1429V233H58.0953V231ZM48.1905 231H43.2382V233H48.1905V231ZM38.2858 231H33.3334V233H38.2858V231ZM28.381 231H23.4287V233H28.381V231ZM18.4763 231H16V233H18.4763V231Z" fill="#444B66"/>
<rect x="0.5" y="0.5" width="239" height="435" rx="7.5" stroke="#373D57"/>
</g>
</g>
<defs>
<filter id="filter0_d" x="-20" y="14" width="660" height="389" filterUnits="userSpaceOnUse" color-interpolation-filters="sRGB">
<feFlood flood-opacity="0" result="BackgroundImageFix"/>
<feColorMatrix in="SourceAlpha" type="matrix" values="0 0 0 0 0 0 0 0 0 0 0 0 0 0 0 0 0 0 127 0"/>
<feOffset dy="2"/>
<feGaussianBlur stdDeviation="10"/>
<feColorMatrix type="matrix" values="0 0 0 0 0.0438865 0 0 0 0 0.0438865 0 0 0 0 0.0868652 0 0 0 0.18 0"/>
<feBlend mode="normal" in2="BackgroundImageFix" result="effect1_dropShadow"/>
<feBlend mode="normal" in="SourceGraphic" in2="effect1_dropShadow" result="shape"/>
</filter>
<filter id="filter1_d" x="-20" y="-20" width="280" height="476" filterUnits="userSpaceOnUse" color-interpolation-filters="sRGB">
<feFlood flood-opacity="0" result="BackgroundImageFix"/>
<feColorMatrix in="SourceAlpha" type="matrix" values="0 0 0 0 0 0 0 0 0 0 0 0 0 0 0 0 0 0 127 0"/>
<feOffset/>
<feGaussianBlur stdDeviation="10"/>
<feColorMatrix type="matrix" values="0 0 0 0 0.0479859 0 0 0 0 0.05982 0 0 0 0 0.116032 0 0 0 0.24 0"/>
<feBlend mode="normal" in2="BackgroundImageFix" result="effect1_dropShadow"/>
<feBlend mode="normal" in="SourceGraphic" in2="effect1_dropShadow" result="shape"/>
</filter>
<clipPath id="clip0">
<rect width="700" height="560" fill="white"/>
</clipPath>
<clipPath id="clip1">
<rect width="70.9674" height="21.3333" fill="white" transform="translate(16.0156 21.334)"/>
</clipPath>
</defs>
</svg>
