<svg width="700" height="560" viewBox="0 0 700 560" fill="none" xmlns="http://www.w3.org/2000/svg">
<line x1="321" y1="121.5" x2="343" y2="121.5" stroke="#A3A8B8"/>
<line x1="359" y1="121.5" x2="380" y2="121.5" stroke="#A3A8B8"/>
<circle cx="351" cy="122" r="8.5" stroke="#A3A8B8"/>
<path d="M20.5 207C20.5 202.858 23.8579 199.5 28 199.5H672C676.142 199.5 679.5 202.858 679.5 207V353C679.5 357.142 676.142 360.5 672 360.5H28C23.8579 360.5 20.5 357.142 20.5 353V207Z" fill="#22273C" stroke="#373D57"/>
<rect x="36" y="218" width="33" height="16" rx="8" fill="#7950ED" stroke="#7950ED"/>
<rect x="55.1055" y="219.777" width="12.1579" height="12.4444" rx="6.07895" fill="white"/>
<path d="M91.36 227.72C91.36 224.624 86.848 225.968 86.848 223.808C86.848 222.908 87.556 222.44 88.456 222.464C89.476 222.476 90.004 223.112 90.076 223.676H91.276C91.144 222.404 90.1 221.528 88.504 221.528C86.848 221.528 85.732 222.464 85.732 223.844C85.732 226.952 90.256 225.512 90.256 227.768C90.256 228.56 89.632 229.16 88.576 229.16C87.412 229.16 86.92 228.464 86.848 227.768H85.684C85.708 229.148 86.896 230.084 88.576 230.084C90.388 230.084 91.36 228.908 91.36 227.72ZM95.463 228.752L93.399 223.424H92.187L94.839 229.928L93.543 233.096H94.671L98.631 223.424H97.503L95.463 228.752ZM104.541 230H105.621V226.124C105.621 224.24 104.457 223.304 102.933 223.304C102.045 223.304 101.253 223.676 100.821 224.36V223.424H99.7287V230H100.821V226.364C100.821 224.948 101.589 224.252 102.705 224.252C103.809 224.252 104.541 224.936 104.541 226.28V230ZM106.996 226.7C106.996 228.788 108.328 230.108 110.2 230.108C111.832 230.108 112.9 229.196 113.236 227.888H112.06C111.82 228.716 111.172 229.184 110.2 229.184C109 229.184 108.112 228.332 108.112 226.7C108.112 225.092 109 224.24 110.2 224.24C111.172 224.24 111.832 224.744 112.06 225.536H113.236C112.9 224.156 111.832 223.316 110.2 223.316C108.328 223.316 106.996 224.636 106.996 226.7ZM119.177 230H120.305L121.889 224.78L123.473 230H124.601L126.653 223.424H125.573L124.085 228.956L122.489 223.424H121.373L119.741 228.944L118.229 223.424H117.113L119.177 230ZM127.737 230H128.829V223.424H127.737V230ZM128.301 222.356C128.697 222.356 129.021 222.032 129.021 221.612C129.021 221.192 128.697 220.868 128.301 220.868C127.881 220.868 127.557 221.192 127.557 221.612C127.557 222.032 127.881 222.356 128.301 222.356ZM130.93 228.2C130.93 229.52 131.59 230 132.754 230H133.738V229.076H132.934C132.262 229.076 132.022 228.848 132.022 228.2V224.324H133.738V223.424H132.022V221.768H130.93V223.424H130.078V224.324H130.93V228.2ZM135.061 230H136.153V226.364C136.153 224.948 136.921 224.252 138.037 224.252C139.141 224.252 139.873 224.936 139.873 226.28V230H140.953V226.124C140.953 224.24 139.789 223.304 138.325 223.304C137.401 223.304 136.585 223.676 136.153 224.372V221.12H135.061V230ZM149.728 221.54C147.376 221.54 145.528 223.304 145.528 225.812C145.528 228.32 147.376 230.072 149.728 230.072C151.996 230.072 153.64 228.404 153.832 226.328V225.488H149.332V226.376H152.668C152.5 228.032 151.372 229.088 149.728 229.088C147.964 229.088 146.644 227.816 146.644 225.812C146.644 223.796 147.964 222.524 149.728 222.524C150.904 222.524 151.816 223.088 152.272 224.06H153.58C152.956 222.452 151.492 221.54 149.728 221.54ZM155.276 230H156.368V223.424H155.276V230ZM155.84 222.356C156.236 222.356 156.56 222.032 156.56 221.612C156.56 221.192 156.236 220.868 155.84 220.868C155.42 220.868 155.096 221.192 155.096 221.612C155.096 222.032 155.42 222.356 155.84 222.356ZM158.469 228.2C158.469 229.52 159.129 230 160.293 230H161.277V229.076H160.473C159.801 229.076 159.561 228.848 159.561 228.2V224.324H161.277V223.424H159.561V221.768H158.469V223.424H157.617V224.324H158.469V228.2ZM167.952 230H169.044V221.636H167.952V225.308H163.692V221.636H162.6V230H163.692V226.208H167.952V230ZM176.729 223.424H175.637V227.036C175.637 228.452 174.881 229.148 173.753 229.148C172.649 229.148 171.917 228.464 171.917 227.132V223.424H170.837V227.276C170.837 229.16 172.025 230.096 173.537 230.096C174.413 230.096 175.217 229.712 175.637 229.028V230H176.729V223.424ZM179.664 224.648V221.12H178.572V230H179.664V228.788C180.072 229.508 180.924 230.108 182.124 230.108C183.888 230.108 185.244 228.728 185.244 226.688C185.244 224.636 183.9 223.316 182.124 223.316C180.96 223.316 180.084 223.916 179.664 224.648ZM184.128 226.688C184.128 228.236 183.108 229.148 181.896 229.148C180.708 229.148 179.664 228.248 179.664 226.7C179.664 225.176 180.708 224.264 181.896 224.264C183.108 224.264 184.128 225.14 184.128 226.688Z" fill="white"/>
<rect x="36" y="261" width="621" height="64" rx="4" fill="#373D57"/>
<rect x="550" y="281" width="87" height="24" rx="4" fill="#7950ED"/>
<path d="M568.774 292.812C568.774 295.32 570.682 297.072 573.034 297.072C574.774 297.072 576.274 296.208 576.91 294.576H575.266C574.822 295.464 574.03 295.884 573.034 295.884C571.378 295.884 570.178 294.696 570.178 292.812C570.178 290.928 571.378 289.752 573.034 289.752C574.03 289.752 574.822 290.172 575.266 291.06H576.91C576.274 289.428 574.774 288.552 573.034 288.552C570.682 288.552 568.774 290.316 568.774 292.812ZM578.872 297H580.24V293.304C580.24 292.092 580.9 291.468 581.908 291.468C582.904 291.468 583.564 292.092 583.564 293.304V297H584.92V293.1C584.92 291.252 583.768 290.28 582.292 290.28C581.44 290.28 580.696 290.604 580.24 291.156V288.12H578.872V297ZM586.569 293.664C586.569 295.704 587.949 297.108 589.665 297.108C590.769 297.108 591.561 296.58 591.981 296.016V297H593.361V290.388H591.981V291.348C591.573 290.808 590.805 290.28 589.689 290.28C587.949 290.28 586.569 291.624 586.569 293.664ZM591.981 293.688C591.981 295.116 591.009 295.92 589.977 295.92C588.957 295.92 587.973 295.092 587.973 293.664C587.973 292.236 588.957 291.468 589.977 291.468C591.009 291.468 591.981 292.272 591.981 293.688ZM600.21 297H601.566V293.1C601.566 291.252 600.402 290.28 598.854 290.28C598.062 290.28 597.33 290.604 596.886 291.144V290.388H595.518V297H596.886V293.304C596.886 292.092 597.546 291.468 598.554 291.468C599.55 291.468 600.21 292.092 600.21 293.304V297ZM603.214 293.664C603.214 295.704 604.594 297.108 606.334 297.108C607.414 297.108 608.206 296.568 608.626 296.004V297.108C608.626 298.428 607.834 299.076 606.778 299.076C605.83 299.076 605.098 298.608 604.894 297.924H603.538C603.706 299.388 605.014 300.264 606.778 300.264C608.842 300.264 610.006 298.908 610.006 297.108V290.388H608.626V291.348C608.218 290.784 607.414 290.28 606.334 290.28C604.594 290.28 603.214 291.624 603.214 293.664ZM608.626 293.688C608.626 295.116 607.654 295.92 606.622 295.92C605.602 295.92 604.618 295.092 604.618 293.664C604.618 292.236 605.602 291.468 606.622 291.468C607.654 291.468 608.626 292.272 608.626 293.688ZM614.947 291.432C615.967 291.432 616.771 292.08 616.795 293.1H613.135C613.279 292.056 614.023 291.432 614.947 291.432ZM618.043 295.032H616.567C616.315 295.548 615.847 295.956 615.007 295.956C613.999 295.956 613.219 295.296 613.123 294.204H618.175C618.211 293.976 618.223 293.76 618.223 293.532C618.223 291.588 616.891 290.28 615.007 290.28C613.051 290.28 611.707 291.612 611.707 293.688C611.707 295.764 613.111 297.108 615.007 297.108C616.627 297.108 617.671 296.184 618.043 295.032Z" fill="white"/>
<path d="M52.8603 285H54.0123L51.0003 276.684H49.7403L46.7163 285H47.8683L48.5403 283.14H52.1883L52.8603 285ZM51.8763 282.252H48.8523L50.3643 278.028L51.8763 282.252ZM64.8223 285H65.9023V281.124C65.9023 279.24 64.7383 278.304 63.2383 278.304C62.2303 278.304 61.2943 278.82 60.9103 279.768C60.4783 278.784 59.5783 278.304 58.4983 278.304C57.6343 278.304 56.8543 278.676 56.4223 279.372V278.424H55.3303V285H56.4223V281.376C56.4223 279.96 57.1783 279.252 58.2823 279.252C59.3623 279.252 60.0823 279.936 60.0823 281.28V285H61.1623V281.376C61.1623 279.96 61.9183 279.252 63.0223 279.252C64.1023 279.252 64.8223 279.936 64.8223 281.28V285ZM68.7855 279.636V278.424H67.6935V288.12H68.7855V283.788C69.1935 284.46 70.0455 285.108 71.2455 285.108C73.0095 285.108 74.3655 283.728 74.3655 281.688C74.3655 279.636 73.0095 278.316 71.2455 278.316C70.0455 278.316 69.1815 278.94 68.7855 279.636ZM73.2495 281.688C73.2495 283.236 72.2295 284.148 71.0175 284.148C69.8295 284.148 68.7855 283.248 68.7855 281.7C68.7855 280.176 69.8295 279.264 71.0175 279.264C72.2295 279.264 73.2495 280.14 73.2495 281.688ZM75.8029 285H76.8949V276.12H75.8029V285ZM78.756 285H79.848V278.424H78.756V285ZM79.32 277.356C79.716 277.356 80.04 277.032 80.04 276.612C80.04 276.192 79.716 275.868 79.32 275.868C78.9 275.868 78.576 276.192 78.576 276.612C78.576 277.032 78.9 277.356 79.32 277.356ZM81.3012 281.7C81.3012 283.788 82.6332 285.108 84.5052 285.108C86.1372 285.108 87.2052 284.196 87.5412 282.888H86.3652C86.1252 283.716 85.4772 284.184 84.5052 284.184C83.3052 284.184 82.4172 283.332 82.4172 281.7C82.4172 280.092 83.3052 279.24 84.5052 279.24C85.4772 279.24 86.1372 279.744 86.3652 280.536H87.5412C87.2052 279.156 86.1372 278.316 84.5052 278.316C82.6332 278.316 81.3012 279.636 81.3012 281.7ZM88.5902 281.688C88.5902 283.728 89.9462 285.108 91.6982 285.108C92.9102 285.108 93.7622 284.484 94.1582 283.776V285H95.2622V278.424H94.1582V279.624C93.7742 278.94 92.9342 278.316 91.7102 278.316C89.9462 278.316 88.5902 279.636 88.5902 281.688ZM94.1582 281.7C94.1582 283.248 93.1262 284.148 91.9262 284.148C90.7262 284.148 89.7062 283.236 89.7062 281.688C89.7062 280.14 90.7262 279.264 91.9262 279.264C93.1262 279.264 94.1582 280.176 94.1582 281.7ZM97.3476 283.2C97.3476 284.52 98.0076 285 99.1716 285H100.156V284.076H99.3516C98.6796 284.076 98.4396 283.848 98.4396 283.2V279.324H100.156V278.424H98.4396V276.768H97.3476V278.424H96.4956V279.324H97.3476V283.2ZM101.479 285H102.571V278.424H101.479V285ZM102.043 277.356C102.439 277.356 102.763 277.032 102.763 276.612C102.763 276.192 102.439 275.868 102.043 275.868C101.623 275.868 101.299 276.192 101.299 276.612C101.299 277.032 101.623 277.356 102.043 277.356ZM110.672 281.7C110.672 279.624 109.22 278.316 107.348 278.316C105.488 278.316 104.024 279.624 104.024 281.7C104.024 283.788 105.44 285.108 107.3 285.108C109.172 285.108 110.672 283.788 110.672 281.7ZM105.14 281.7C105.14 280.044 106.184 279.264 107.336 279.264C108.464 279.264 109.556 280.044 109.556 281.7C109.556 283.368 108.44 284.148 107.3 284.148C106.16 284.148 105.14 283.368 105.14 281.7ZM116.92 285H118V281.124C118 279.24 116.836 278.304 115.312 278.304C114.424 278.304 113.632 278.676 113.2 279.36V278.424H112.108V285H113.2V281.364C113.2 279.948 113.968 279.252 115.084 279.252C116.188 279.252 116.92 279.936 116.92 281.28V285ZM119.495 287.04H120.575L123.863 273.696H122.771L119.495 287.04ZM131.106 285H132.258L129.246 276.684H127.986L124.962 285H126.114L126.786 283.14H130.434L131.106 285ZM130.122 282.252H127.098L128.61 278.028L130.122 282.252ZM143.068 285H144.148V281.124C144.148 279.24 142.984 278.304 141.484 278.304C140.476 278.304 139.54 278.82 139.156 279.768C138.724 278.784 137.824 278.304 136.744 278.304C135.88 278.304 135.1 278.676 134.668 279.372V278.424H133.576V285H134.668V281.376C134.668 279.96 135.424 279.252 136.528 279.252C137.608 279.252 138.328 279.936 138.328 281.28V285H139.408V281.376C139.408 279.96 140.164 279.252 141.268 279.252C142.348 279.252 143.068 279.936 143.068 281.28V285ZM147.032 279.636V278.424H145.94V288.12H147.032V283.788C147.44 284.46 148.292 285.108 149.492 285.108C151.256 285.108 152.612 283.728 152.612 281.688C152.612 279.636 151.256 278.316 149.492 278.316C148.292 278.316 147.428 278.94 147.032 279.636ZM151.496 281.688C151.496 283.236 150.476 284.148 149.264 284.148C148.076 284.148 147.032 283.248 147.032 281.7C147.032 280.176 148.076 279.264 149.264 279.264C150.476 279.264 151.496 280.14 151.496 281.688ZM154.049 285H155.141V276.12H154.049V285ZM157.002 285H158.094V278.424H157.002V285ZM157.566 277.356C157.962 277.356 158.286 277.032 158.286 276.612C158.286 276.192 157.962 275.868 157.566 275.868C157.146 275.868 156.822 276.192 156.822 276.612C156.822 277.032 157.146 277.356 157.566 277.356ZM159.547 281.7C159.547 283.788 160.879 285.108 162.751 285.108C164.383 285.108 165.451 284.196 165.787 282.888H164.611C164.371 283.716 163.723 284.184 162.751 284.184C161.551 284.184 160.663 283.332 160.663 281.7C160.663 280.092 161.551 279.24 162.751 279.24C163.723 279.24 164.383 279.744 164.611 280.536H165.787C165.451 279.156 164.383 278.316 162.751 278.316C160.879 278.316 159.547 279.636 159.547 281.7ZM166.836 281.688C166.836 283.728 168.192 285.108 169.944 285.108C171.156 285.108 172.008 284.484 172.404 283.776V285H173.508V278.424H172.404V279.624C172.02 278.94 171.18 278.316 169.956 278.316C168.192 278.316 166.836 279.636 166.836 281.688ZM172.404 281.7C172.404 283.248 171.372 284.148 170.172 284.148C168.972 284.148 167.952 283.236 167.952 281.688C167.952 280.14 168.972 279.264 170.172 279.264C171.372 279.264 172.404 280.176 172.404 281.7ZM174.946 281.7C174.946 283.788 176.278 285.108 178.15 285.108C179.782 285.108 180.85 284.196 181.186 282.888H180.01C179.77 283.716 179.122 284.184 178.15 284.184C176.95 284.184 176.062 283.332 176.062 281.7C176.062 280.092 176.95 279.24 178.15 279.24C179.122 279.24 179.782 279.744 180.01 280.536H181.186C180.85 279.156 179.782 278.316 178.15 278.316C176.278 278.316 174.946 279.636 174.946 281.7ZM182.883 283.2C182.883 284.52 183.543 285 184.707 285H185.691V284.076H184.887C184.215 284.076 183.975 283.848 183.975 283.2V279.324H185.691V278.424H183.975V276.768H182.883V278.424H182.031V279.324H182.883V283.2ZM187.014 285H188.106V278.424H187.014V285ZM187.578 277.356C187.974 277.356 188.298 277.032 188.298 276.612C188.298 276.192 187.974 275.868 187.578 275.868C187.158 275.868 186.834 276.192 186.834 276.612C186.834 277.032 187.158 277.356 187.578 277.356ZM196.207 281.7C196.207 279.624 194.755 278.316 192.883 278.316C191.023 278.316 189.559 279.624 189.559 281.7C189.559 283.788 190.975 285.108 192.835 285.108C194.707 285.108 196.207 283.788 196.207 281.7ZM190.675 281.7C190.675 280.044 191.719 279.264 192.871 279.264C193.999 279.264 195.091 280.044 195.091 281.7C195.091 283.368 193.975 284.148 192.835 284.148C191.695 284.148 190.675 283.368 190.675 281.7ZM202.455 285H203.535V281.124C203.535 279.24 202.371 278.304 200.847 278.304C199.959 278.304 199.167 278.676 198.735 279.36V278.424H197.643V285H198.735V281.364C198.735 279.948 199.503 279.252 200.619 279.252C201.723 279.252 202.455 279.936 202.455 281.28V285Z" fill="white"/>
<rect x="213.82" y="272.5" width="70" height="19" rx="9.5" fill="#A787FF" fill-opacity="0.09" stroke="#A787FF"/>
<path d="M229.502 281.5H222.502C221.95 281.5 221.502 281.948 221.502 282.5V286C221.502 286.552 221.95 287 222.502 287H229.502C230.054 287 230.502 286.552 230.502 286V282.5C230.502 281.948 230.054 281.5 229.502 281.5Z" stroke="#A787FF" stroke-linecap="round" stroke-linejoin="round"/>
<path d="M223.502 281.5V279.5C223.502 278.837 223.765 278.201 224.234 277.732C224.703 277.263 225.339 277 226.002 277C226.665 277 227.301 277.263 227.77 277.732C228.239 278.201 228.502 278.837 228.502 279.5V281.5" stroke="#A787FF" stroke-linecap="round" stroke-linejoin="round"/>
<path d="M237.892 281.3V280.49H236.752V288.62H237.892V285.2C238.252 285.63 238.902 286.09 239.812 286.09C241.262 286.09 242.402 284.92 242.402 283.22C242.402 281.52 241.262 280.4 239.812 280.4C238.912 280.4 238.242 280.84 237.892 281.3ZM241.242 283.22C241.242 284.41 240.422 285.1 239.562 285.1C238.712 285.1 237.892 284.43 237.892 283.24C237.892 282.06 238.712 281.39 239.562 281.39C240.422 281.39 241.242 282.03 241.242 283.22ZM244.969 283.1C244.969 281.93 245.489 281.58 246.329 281.58H246.619V280.4C245.839 280.4 245.289 280.74 244.969 281.29V280.49H243.829V286H244.969V283.1ZM247.967 286H249.107V280.49H247.967V286ZM248.547 279.76C248.947 279.76 249.267 279.44 249.267 279.03C249.267 278.62 248.947 278.3 248.547 278.3C248.137 278.3 247.817 278.62 247.817 279.03C247.817 279.44 248.137 279.76 248.547 279.76ZM250.254 280.49L252.344 286H253.704L255.804 280.49H254.594L253.034 284.98L251.474 280.49H250.254ZM256.586 283.22C256.586 284.92 257.736 286.09 259.166 286.09C260.086 286.09 260.746 285.65 261.096 285.18V286H262.246V280.49H261.096V281.29C260.756 280.84 260.116 280.4 259.186 280.4C257.736 280.4 256.586 281.52 256.586 283.22ZM261.096 283.24C261.096 284.43 260.286 285.1 259.426 285.1C258.576 285.1 257.756 284.41 257.756 283.22C257.756 282.03 258.576 281.39 259.426 281.39C260.286 281.39 261.096 282.06 261.096 283.24ZM264.223 284.47C264.223 285.59 264.833 286 265.813 286H266.713V285.05H266.013C265.533 285.05 265.373 284.88 265.373 284.47V281.42H266.713V280.49H265.373V279.12H264.223V280.49H263.573V281.42H264.223V284.47ZM270.384 281.36C271.234 281.36 271.904 281.9 271.924 282.75H268.874C268.994 281.88 269.614 281.36 270.384 281.36ZM272.964 284.36H271.734C271.524 284.79 271.134 285.13 270.434 285.13C269.594 285.13 268.944 284.58 268.864 283.67H273.074C273.104 283.48 273.114 283.3 273.114 283.11C273.114 281.49 272.004 280.4 270.434 280.4C268.804 280.4 267.684 281.51 267.684 283.24C267.684 284.97 268.854 286.09 270.434 286.09C271.784 286.09 272.654 285.32 272.964 284.36Z" fill="#A787FF"/>
<path d="M46.7503 308.24C46.7503 309.94 47.8803 311.09 49.3503 311.09C50.3503 311.09 51.0603 310.56 51.3903 309.97V311.12C51.3903 312.29 50.6603 312.91 49.6903 312.91C48.7903 312.91 48.1403 312.46 47.9403 311.8H47.0403C47.2203 312.97 48.2503 313.7 49.6903 313.7C51.3003 313.7 52.3103 312.63 52.3103 311.12V305.52H51.3903V306.52C51.0703 305.93 50.3503 305.43 49.3503 305.43C47.8803 305.43 46.7503 306.53 46.7503 308.24ZM51.3903 308.25C51.3903 309.54 50.5303 310.29 49.5303 310.29C48.5303 310.29 47.6803 309.53 47.6803 308.24C47.6803 306.95 48.5303 306.22 49.5303 306.22C50.5303 306.22 51.3903 306.98 51.3903 308.25ZM53.8481 311H54.7581V305.52H53.8481V311ZM54.3181 304.63C54.6481 304.63 54.9181 304.36 54.9181 304.01C54.9181 303.66 54.6481 303.39 54.3181 303.39C53.9681 303.39 53.6981 303.66 53.6981 304.01C53.6981 304.36 53.9681 304.63 54.3181 304.63ZM56.5091 309.5C56.5091 310.6 57.0591 311 58.0291 311H58.8491V310.23H58.1791C57.6191 310.23 57.4191 310.04 57.4191 309.5V306.27H58.8491V305.52H57.4191V304.14H56.5091V305.52H55.7991V306.27H56.5091V309.5ZM59.9516 311H60.8616V307.97C60.8616 306.79 61.5016 306.21 62.4316 306.21C63.3516 306.21 63.9616 306.78 63.9616 307.9V311H64.8616V307.77C64.8616 306.2 63.8916 305.42 62.6716 305.42C61.9016 305.42 61.2216 305.73 60.8616 306.31V303.6H59.9516V311ZM71.2081 305.52H70.2981V308.53C70.2981 309.71 69.6681 310.29 68.7281 310.29C67.8081 310.29 67.1981 309.72 67.1981 308.61V305.52H66.2981V308.73C66.2981 310.3 67.2881 311.08 68.5481 311.08C69.2781 311.08 69.9481 310.76 70.2981 310.19V311H71.2081V305.52ZM73.6546 306.54V303.6H72.7446V311H73.6546V309.99C73.9946 310.59 74.7046 311.09 75.7046 311.09C77.1746 311.09 78.3046 309.94 78.3046 308.24C78.3046 306.53 77.1846 305.43 75.7046 305.43C74.7346 305.43 74.0046 305.93 73.6546 306.54ZM77.3746 308.24C77.3746 309.53 76.5246 310.29 75.5146 310.29C74.5246 310.29 73.6546 309.54 73.6546 308.25C73.6546 306.98 74.5246 306.22 75.5146 306.22C76.5246 306.22 77.3746 306.95 77.3746 308.24ZM80.3924 310.44C80.3924 310.09 80.1224 309.82 79.7924 309.82C79.4424 309.82 79.1724 310.09 79.1724 310.44C79.1724 310.79 79.4424 311.06 79.7924 311.06C80.1224 311.06 80.3924 310.79 80.3924 310.44ZM81.262 308.25C81.262 309.99 82.372 311.09 83.932 311.09C85.292 311.09 86.182 310.33 86.462 309.24H85.482C85.282 309.93 84.742 310.32 83.932 310.32C82.932 310.32 82.192 309.61 82.192 308.25C82.192 306.91 82.932 306.2 83.932 306.2C84.742 306.2 85.292 306.62 85.482 307.28H86.462C86.182 306.13 85.292 305.43 83.932 305.43C82.372 305.43 81.262 306.53 81.262 308.25ZM92.8763 308.25C92.8763 306.52 91.6663 305.43 90.1063 305.43C88.5563 305.43 87.3363 306.52 87.3363 308.25C87.3363 309.99 88.5163 311.09 90.0663 311.09C91.6263 311.09 92.8763 309.99 92.8763 308.25ZM88.2663 308.25C88.2663 306.87 89.1363 306.22 90.0963 306.22C91.0363 306.22 91.9463 306.87 91.9463 308.25C91.9463 309.64 91.0163 310.29 90.0663 310.29C89.1163 310.29 88.2663 309.64 88.2663 308.25ZM101.983 311H102.883V307.77C102.883 306.2 101.913 305.42 100.663 305.42C99.8227 305.42 99.0427 305.85 98.7227 306.64C98.3627 305.82 97.6127 305.42 96.7127 305.42C95.9927 305.42 95.3427 305.73 94.9827 306.31V305.52H94.0727V311H94.9827V307.98C94.9827 306.8 95.6127 306.21 96.5327 306.21C97.4327 306.21 98.0327 306.78 98.0327 307.9V311H98.9327V307.98C98.9327 306.8 99.5627 306.21 100.483 306.21C101.383 306.21 101.983 306.78 101.983 307.9V311ZM104.135 312.7H105.035L107.775 301.58H106.865L104.135 312.7ZM110.041 308.02C110.041 306.75 110.701 306.36 111.571 306.36H111.811V305.42C110.941 305.42 110.351 305.8 110.041 306.41V305.52H109.131V311H110.041V308.02ZM115.192 306.2C116.132 306.2 116.932 306.79 116.922 307.86H113.462C113.562 306.79 114.302 306.2 115.192 306.2ZM117.752 309.31H116.772C116.572 309.9 116.052 310.32 115.232 310.32C114.302 310.32 113.522 309.71 113.452 308.6H117.832C117.852 308.41 117.862 308.25 117.862 308.05C117.862 306.55 116.822 305.43 115.232 305.43C113.632 305.43 112.522 306.52 112.522 308.25C112.522 309.99 113.672 311.09 115.232 311.09C116.592 311.09 117.472 310.31 117.752 309.31ZM119.973 306.53V305.52H119.063V313.6H119.973V309.99C120.313 310.55 121.023 311.09 122.023 311.09C123.493 311.09 124.623 309.94 124.623 308.24C124.623 306.53 123.493 305.43 122.023 305.43C121.023 305.43 120.303 305.95 119.973 306.53ZM123.693 308.24C123.693 309.53 122.843 310.29 121.833 310.29C120.843 310.29 119.973 309.54 119.973 308.25C119.973 306.98 120.843 306.22 121.833 306.22C122.843 306.22 123.693 306.95 123.693 308.24ZM131.021 308.25C131.021 306.52 129.811 305.43 128.251 305.43C126.701 305.43 125.481 306.52 125.481 308.25C125.481 309.99 126.661 311.09 128.211 311.09C129.771 311.09 131.021 309.99 131.021 308.25ZM126.411 308.25C126.411 306.87 127.281 306.22 128.241 306.22C129.181 306.22 130.091 306.87 130.091 308.25C130.091 309.64 129.161 310.29 128.211 310.29C127.261 310.29 126.411 309.64 126.411 308.25ZM136.157 309.51C136.117 307.55 132.937 308.26 132.937 306.96C132.937 306.52 133.337 306.2 134.007 306.2C134.737 306.2 135.157 306.6 135.197 307.15H136.107C136.047 306.08 135.247 305.43 134.037 305.43C132.817 305.43 132.027 306.12 132.027 306.96C132.027 309 135.267 308.29 135.267 309.51C135.267 309.96 134.867 310.32 134.147 310.32C133.377 310.32 132.907 309.92 132.857 309.39H131.917C131.977 310.39 132.877 311.09 134.157 311.09C135.367 311.09 136.157 310.41 136.157 309.51ZM137.202 312.7H138.102L140.842 301.58H139.932L137.202 312.7ZM141.858 308.24C141.858 309.94 142.988 311.09 144.448 311.09C145.458 311.09 146.168 310.57 146.498 309.98V311H147.418V305.52H146.498V306.52C146.178 305.95 145.478 305.43 144.458 305.43C142.988 305.43 141.858 306.53 141.858 308.24ZM146.498 308.25C146.498 309.54 145.638 310.29 144.638 310.29C143.638 310.29 142.788 309.53 142.788 308.24C142.788 306.95 143.638 306.22 144.638 306.22C145.638 306.22 146.498 306.98 146.498 308.25ZM156.866 311H157.766V307.77C157.766 306.2 156.796 305.42 155.546 305.42C154.706 305.42 153.926 305.85 153.606 306.64C153.246 305.82 152.496 305.42 151.596 305.42C150.876 305.42 150.226 305.73 149.866 306.31V305.52H148.956V311H149.866V307.98C149.866 306.8 150.496 306.21 151.416 306.21C152.316 306.21 152.916 306.78 152.916 307.9V311H153.816V307.98C153.816 306.8 154.446 306.21 155.366 306.21C156.266 306.21 156.866 306.78 156.866 307.9V311ZM160.168 306.53V305.52H159.258V313.6H160.168V309.99C160.508 310.55 161.218 311.09 162.218 311.09C163.688 311.09 164.818 309.94 164.818 308.24C164.818 306.53 163.688 305.43 162.218 305.43C161.218 305.43 160.498 305.95 160.168 306.53ZM163.888 308.24C163.888 309.53 163.038 310.29 162.028 310.29C161.038 310.29 160.168 309.54 160.168 308.25C160.168 306.98 161.038 306.22 162.028 306.22C163.038 306.22 163.888 306.95 163.888 308.24ZM166.016 311H166.926V303.6H166.016V311ZM168.477 311H169.387V305.52H168.477V311ZM168.947 304.63C169.277 304.63 169.547 304.36 169.547 304.01C169.547 303.66 169.277 303.39 168.947 303.39C168.597 303.39 168.327 303.66 168.327 304.01C168.327 304.36 168.597 304.63 168.947 304.63ZM170.598 308.25C170.598 309.99 171.708 311.09 173.268 311.09C174.628 311.09 175.518 310.33 175.798 309.24H174.818C174.618 309.93 174.078 310.32 173.268 310.32C172.268 310.32 171.528 309.61 171.528 308.25C171.528 306.91 172.268 306.2 173.268 306.2C174.078 306.2 174.628 306.62 174.818 307.28H175.798C175.518 306.13 174.628 305.43 173.268 305.43C171.708 305.43 170.598 306.53 170.598 308.25ZM176.672 308.24C176.672 309.94 177.802 311.09 179.262 311.09C180.272 311.09 180.982 310.57 181.312 309.98V311H182.232V305.52H181.312V306.52C180.992 305.95 180.292 305.43 179.272 305.43C177.802 305.43 176.672 306.53 176.672 308.24ZM181.312 308.25C181.312 309.54 180.452 310.29 179.452 310.29C178.452 310.29 177.602 309.53 177.602 308.24C177.602 306.95 178.452 306.22 179.452 306.22C180.452 306.22 181.312 306.98 181.312 308.25ZM183.97 309.5C183.97 310.6 184.52 311 185.49 311H186.31V310.23H185.64C185.08 310.23 184.88 310.04 184.88 309.5V306.27H186.31V305.52H184.88V304.14H183.97V305.52H183.26V306.27H183.97V309.5ZM187.413 311H188.323V305.52H187.413V311ZM187.883 304.63C188.213 304.63 188.483 304.36 188.483 304.01C188.483 303.66 188.213 303.39 187.883 303.39C187.533 303.39 187.263 303.66 187.263 304.01C187.263 304.36 187.533 304.63 187.883 304.63ZM195.074 308.25C195.074 306.52 193.864 305.43 192.304 305.43C190.754 305.43 189.534 306.52 189.534 308.25C189.534 309.99 190.714 311.09 192.264 311.09C193.824 311.09 195.074 309.99 195.074 308.25ZM190.464 308.25C190.464 306.87 191.334 306.22 192.294 306.22C193.234 306.22 194.144 306.87 194.144 308.25C194.144 309.64 193.214 310.29 192.264 310.29C191.314 310.29 190.464 309.64 190.464 308.25ZM200.28 311H201.18V307.77C201.18 306.2 200.21 305.42 198.94 305.42C198.2 305.42 197.54 305.73 197.18 306.3V305.52H196.27V311H197.18V307.97C197.18 306.79 197.82 306.21 198.75 306.21C199.67 306.21 200.28 306.78 200.28 307.9V311ZM202.426 312.7H203.326L206.066 301.58H205.156L202.426 312.7ZM207.082 308.24C207.082 309.94 208.212 311.09 209.672 311.09C210.682 311.09 211.392 310.57 211.722 309.98V311H212.642V305.52H211.722V306.52C211.402 305.95 210.702 305.43 209.682 305.43C208.212 305.43 207.082 306.53 207.082 308.24ZM211.722 308.25C211.722 309.54 210.862 310.29 209.862 310.29C208.862 310.29 208.012 309.53 208.012 308.24C208.012 306.95 208.862 306.22 209.862 306.22C210.862 306.22 211.722 306.98 211.722 308.25ZM222.09 311H222.99V307.77C222.99 306.2 222.02 305.42 220.77 305.42C219.93 305.42 219.15 305.85 218.83 306.64C218.47 305.82 217.72 305.42 216.82 305.42C216.1 305.42 215.45 305.73 215.09 306.31V305.52H214.18V311H215.09V307.98C215.09 306.8 215.72 306.21 216.64 306.21C217.54 306.21 218.14 306.78 218.14 307.9V311H219.04V307.98C219.04 306.8 219.67 306.21 220.59 306.21C221.49 306.21 222.09 306.78 222.09 307.9V311ZM225.393 306.53V305.52H224.483V313.6H225.393V309.99C225.733 310.55 226.443 311.09 227.443 311.09C228.913 311.09 230.043 309.94 230.043 308.24C230.043 306.53 228.913 305.43 227.443 305.43C226.443 305.43 225.723 305.95 225.393 306.53ZM229.113 308.24C229.113 309.53 228.263 310.29 227.253 310.29C226.263 310.29 225.393 309.54 225.393 308.25C225.393 306.98 226.263 306.22 227.253 306.22C228.263 306.22 229.113 306.95 229.113 308.24ZM231.241 311H232.151V303.6H231.241V311ZM233.702 311H234.612V305.52H233.702V311ZM234.172 304.63C234.502 304.63 234.772 304.36 234.772 304.01C234.772 303.66 234.502 303.39 234.172 303.39C233.822 303.39 233.552 303.66 233.552 304.01C233.552 304.36 233.822 304.63 234.172 304.63ZM235.823 308.25C235.823 309.99 236.933 311.09 238.493 311.09C239.853 311.09 240.743 310.33 241.023 309.24H240.043C239.843 309.93 239.303 310.32 238.493 310.32C237.493 310.32 236.753 309.61 236.753 308.25C236.753 306.91 237.493 306.2 238.493 306.2C239.303 306.2 239.853 306.62 240.043 307.28H241.023C240.743 306.13 239.853 305.43 238.493 305.43C236.933 305.43 235.823 306.53 235.823 308.25ZM241.897 308.24C241.897 309.94 243.027 311.09 244.487 311.09C245.497 311.09 246.207 310.57 246.537 309.98V311H247.457V305.52H246.537V306.52C246.217 305.95 245.517 305.43 244.497 305.43C243.027 305.43 241.897 306.53 241.897 308.24ZM246.537 308.25C246.537 309.54 245.677 310.29 244.677 310.29C243.677 310.29 242.827 309.53 242.827 308.24C242.827 306.95 243.677 306.22 244.677 306.22C245.677 306.22 246.537 306.98 246.537 308.25ZM248.655 308.25C248.655 309.99 249.765 311.09 251.325 311.09C252.685 311.09 253.575 310.33 253.855 309.24H252.875C252.675 309.93 252.135 310.32 251.325 310.32C250.325 310.32 249.585 309.61 249.585 308.25C249.585 306.91 250.325 306.2 251.325 306.2C252.135 306.2 252.685 306.62 252.875 307.28H253.855C253.575 306.13 252.685 305.43 251.325 305.43C249.765 305.43 248.655 306.53 248.655 308.25ZM255.269 309.5C255.269 310.6 255.819 311 256.789 311H257.609V310.23H256.939C256.379 310.23 256.179 310.04 256.179 309.5V306.27H257.609V305.52H256.179V304.14H255.269V305.52H254.559V306.27H255.269V309.5ZM258.711 311H259.621V305.52H258.711V311ZM259.181 304.63C259.511 304.63 259.781 304.36 259.781 304.01C259.781 303.66 259.511 303.39 259.181 303.39C258.831 303.39 258.561 303.66 258.561 304.01C258.561 304.36 258.831 304.63 259.181 304.63ZM266.372 308.25C266.372 306.52 265.162 305.43 263.602 305.43C262.052 305.43 260.832 306.52 260.832 308.25C260.832 309.99 262.012 311.09 263.562 311.09C265.122 311.09 266.372 309.99 266.372 308.25ZM261.762 308.25C261.762 306.87 262.632 306.22 263.592 306.22C264.532 306.22 265.442 306.87 265.442 308.25C265.442 309.64 264.512 310.29 263.562 310.29C262.612 310.29 261.762 309.64 261.762 308.25ZM271.579 311H272.479V307.77C272.479 306.2 271.509 305.42 270.239 305.42C269.499 305.42 268.839 305.73 268.479 306.3V305.52H267.569V311H268.479V307.97C268.479 306.79 269.119 306.21 270.049 306.21C270.969 306.21 271.579 306.78 271.579 307.9V311Z" fill="#A3A8B8"/>
<path d="M46.3203 312H273.199V312.5H46.3203V312Z" fill="#A3A8B8"/>
<g filter="url(#filter0_d)">
<ellipse cx="417.451" cy="122" rx="38.3226" ry="38.3226" fill="#22273C"/>
<path d="M455.274 122C455.274 142.889 438.34 159.823 417.451 159.823C396.563 159.823 379.629 142.889 379.629 122C379.629 101.111 396.563 84.1777 417.451 84.1777C438.34 84.1777 455.274 101.111 455.274 122Z" stroke="#373D57"/>
</g>
<path fill-rule="evenodd" clip-rule="evenodd" d="M399.229 121.157C399.229 110.985 407.414 102.762 417.541 102.762C427.637 102.762 435.853 110.985 435.823 121.157C435.823 129.289 430.578 136.172 423.301 138.608C422.392 138.791 422.058 138.212 422.058 137.725C422.058 137.523 422.061 137.17 422.066 136.699L422.066 136.698C422.075 135.748 422.088 134.317 422.088 132.669C422.088 130.933 421.512 129.837 420.845 129.258C424.938 128.801 429.213 127.248 429.213 120.182C429.213 118.172 428.516 116.528 427.333 115.249C427.515 114.792 428.152 112.904 427.152 110.376C427.152 110.376 425.605 109.888 422.119 112.264C420.663 111.868 419.087 111.655 417.541 111.655C415.994 111.655 414.418 111.868 412.963 112.264C409.476 109.888 407.93 110.376 407.93 110.376C406.929 112.904 407.566 114.792 407.748 115.249C406.596 116.528 405.868 118.172 405.868 120.182C405.868 127.248 410.143 128.832 414.206 129.258C413.69 129.715 413.205 130.537 413.054 131.725C411.992 132.212 409.355 133.004 407.718 130.202C407.718 130.202 406.747 128.436 404.898 128.314C404.898 128.314 403.109 128.314 404.777 129.441C404.777 129.441 405.989 129.989 406.808 132.121C406.808 132.121 407.869 135.41 412.963 134.314C412.963 135.309 412.976 136.279 412.985 136.95L412.985 136.95L412.985 136.95L412.985 136.951L412.985 136.951L412.985 136.951V136.951L412.985 136.951C412.989 137.306 412.993 137.577 412.993 137.725C412.993 138.212 412.659 138.791 411.75 138.608C404.474 136.172 399.229 129.289 399.229 121.157ZM405.869 129.228C405.99 129.289 406.142 129.258 406.172 129.167C406.202 129.076 406.142 128.954 406.02 128.893C405.899 128.832 405.747 128.862 405.717 128.954C405.656 129.045 405.747 129.167 405.869 129.228ZM406.899 129.989C406.808 130.081 406.626 130.02 406.535 129.898C406.414 129.776 406.383 129.593 406.474 129.502C406.565 129.41 406.717 129.471 406.838 129.593C406.959 129.745 406.99 129.928 406.899 129.989ZM407.233 130.903C407.324 131.055 407.506 131.147 407.627 131.055C407.748 130.964 407.748 130.781 407.627 130.629C407.536 130.476 407.354 130.385 407.233 130.476C407.112 130.537 407.112 130.751 407.233 130.903ZM408.627 132.091C408.536 132.213 408.324 132.182 408.142 132.03C407.99 131.878 407.93 131.664 408.051 131.573C408.142 131.451 408.354 131.482 408.536 131.634C408.688 131.756 408.718 131.969 408.627 132.091ZM409.537 132.822C409.749 132.882 409.962 132.822 409.992 132.669C410.022 132.517 409.901 132.365 409.689 132.304C409.476 132.243 409.264 132.304 409.234 132.456C409.204 132.578 409.325 132.761 409.537 132.822ZM411.477 132.791C411.477 132.943 411.295 133.065 411.083 133.065C410.871 133.065 410.689 132.943 410.689 132.791C410.689 132.639 410.871 132.517 411.083 132.517C411.295 132.517 411.477 132.639 411.477 132.791ZM412.538 132.883C412.75 132.852 412.902 132.7 412.872 132.548C412.841 132.395 412.659 132.304 412.447 132.334C412.235 132.365 412.083 132.517 412.114 132.669C412.144 132.822 412.326 132.913 412.538 132.883Z" fill="white"/>
<g filter="url(#filter1_d)">
<ellipse cx="283.323" cy="122" rx="38.3226" ry="38.3226" fill="#22273C"/>
<path d="M321.145 122C321.145 142.889 304.211 159.823 283.323 159.823C262.434 159.823 245.5 142.889 245.5 122C245.5 101.111 262.434 84.1777 283.323 84.1777C304.211 84.1777 321.145 101.111 321.145 122Z" stroke="#373D57"/>
</g>
<path d="M264.758 120.867C264.758 129.739 271.37 136.99 279.891 138.014V103.721C271.37 104.744 264.758 112.038 264.758 120.867Z" fill="white"/>
<path d="M299.094 120.867C299.094 111.995 292.397 104.659 283.834 103.721V138.056H299.094V121.379C299.094 121.208 299.094 121.038 299.094 120.867Z" fill="white"/>
<defs>
<filter id="filter0_d" x="359.129" y="63.6777" width="116.645" height="116.645" filterUnits="userSpaceOnUse" color-interpolation-filters="sRGB">
<feFlood flood-opacity="0" result="BackgroundImageFix"/>
<feColorMatrix in="SourceAlpha" type="matrix" values="0 0 0 0 0 0 0 0 0 0 0 0 0 0 0 0 0 0 127 0"/>
<feOffset/>
<feGaussianBlur stdDeviation="10"/>
<feColorMatrix type="matrix" values="0 0 0 0 0.0479859 0 0 0 0 0.05982 0 0 0 0 0.116032 0 0 0 0.24 0"/>
<feBlend mode="normal" in2="BackgroundImageFix" result="effect1_dropShadow"/>
<feBlend mode="normal" in="SourceGraphic" in2="effect1_dropShadow" result="shape"/>
</filter>
<filter id="filter1_d" x="225" y="63.6777" width="116.645" height="116.645" filterUnits="userSpaceOnUse" color-interpolation-filters="sRGB">
<feFlood flood-opacity="0" result="BackgroundImageFix"/>
<feColorMatrix in="SourceAlpha" type="matrix" values="0 0 0 0 0 0 0 0 0 0 0 0 0 0 0 0 0 0 127 0"/>
<feOffset/>
<feGaussianBlur stdDeviation="10"/>
<feColorMatrix type="matrix" values="0 0 0 0 0.0479859 0 0 0 0 0.05982 0 0 0 0 0.116032 0 0 0 0.24 0"/>
<feBlend mode="normal" in2="BackgroundImageFix" result="effect1_dropShadow"/>
<feBlend mode="normal" in="SourceGraphic" in2="effect1_dropShadow" result="shape"/>
</filter>
</defs>
</svg>
