<svg width="700" height="560" viewBox="0 0 700 560" fill="none" xmlns="http://www.w3.org/2000/svg">
<path d="M28 126.5H672C676.142 126.5 679.5 129.858 679.5 134V426C679.5 430.142 676.142 433.5 672 433.5H28C23.8579 433.5 20.5 430.142 20.5 426V134C20.5 129.858 23.8579 126.5 28 126.5Z" fill="#22273C" stroke="#373D57"/>
<g filter="url(#filter0_i)">
<rect x="40" y="147" width="46.0952" height="22" rx="11" fill="#7950ED"/>
</g>
<rect x="40" y="147" width="46.0952" height="22" rx="11" stroke="#7950ED"/>
<g filter="url(#filter1_d)">
<rect x="66.6865" y="149.444" width="16.9825" height="17.1111" rx="8.49123" fill="white"/>
</g>
<path d="M110.575 160.96C110.575 156.832 104.559 158.624 104.559 155.744C104.559 154.544 105.503 153.92 106.703 153.952C108.063 153.968 108.767 154.816 108.863 155.568H110.463C110.287 153.872 108.895 152.704 106.767 152.704C104.559 152.704 103.071 153.952 103.071 155.792C103.071 159.936 109.103 158.016 109.103 161.024C109.103 162.08 108.271 162.88 106.863 162.88C105.311 162.88 104.655 161.952 104.559 161.024H103.007C103.039 162.864 104.623 164.112 106.863 164.112C109.279 164.112 110.575 162.544 110.575 160.96ZM116.046 162.336L113.294 155.232H111.678L115.214 163.904L113.486 168.128H114.99L120.27 155.232H118.766L116.046 162.336ZM128.149 164H129.589V158.832C129.589 156.32 128.037 155.072 126.005 155.072C124.821 155.072 123.765 155.568 123.189 156.48V155.232H121.733V164H123.189V159.152C123.189 157.264 124.213 156.336 125.701 156.336C127.173 156.336 128.149 157.248 128.149 159.04V164ZM131.424 159.6C131.424 162.384 133.2 164.144 135.696 164.144C137.872 164.144 139.296 162.928 139.744 161.184H138.176C137.856 162.288 136.992 162.912 135.696 162.912C134.096 162.912 132.912 161.776 132.912 159.6C132.912 157.456 134.096 156.32 135.696 156.32C136.992 156.32 137.872 156.992 138.176 158.048H139.744C139.296 156.208 137.872 155.088 135.696 155.088C133.2 155.088 131.424 156.848 131.424 159.6ZM147.664 164H149.168L151.28 157.04L153.392 164H154.896L157.632 155.232H156.192L154.208 162.608L152.08 155.232H150.592L148.416 162.592L146.4 155.232H144.912L147.664 164ZM159.077 164H160.533V155.232H159.077V164ZM159.829 153.808C160.357 153.808 160.789 153.376 160.789 152.816C160.789 152.256 160.357 151.824 159.829 151.824C159.269 151.824 158.837 152.256 158.837 152.816C158.837 153.376 159.269 153.808 159.829 153.808ZM163.335 161.6C163.335 163.36 164.215 164 165.767 164H167.079V162.768H166.007C165.111 162.768 164.791 162.464 164.791 161.6V156.432H167.079V155.232H164.791V153.024H163.335V155.232H162.199V156.432H163.335V161.6ZM168.843 164H170.299V159.152C170.299 157.264 171.323 156.336 172.811 156.336C174.283 156.336 175.259 157.248 175.259 159.04V164H176.699V158.832C176.699 156.32 175.147 155.072 173.195 155.072C171.963 155.072 170.875 155.568 170.299 156.496V152.16H168.843V164ZM188.399 152.72C185.263 152.72 182.799 155.072 182.799 158.416C182.799 161.76 185.263 164.096 188.399 164.096C191.423 164.096 193.615 161.872 193.871 159.104V157.984H187.871V159.168H192.319C192.095 161.376 190.591 162.784 188.399 162.784C186.047 162.784 184.287 161.088 184.287 158.416C184.287 155.728 186.047 154.032 188.399 154.032C189.967 154.032 191.183 154.784 191.791 156.08H193.535C192.703 153.936 190.751 152.72 188.399 152.72ZM195.796 164H197.252V155.232H195.796V164ZM196.548 153.808C197.076 153.808 197.508 153.376 197.508 152.816C197.508 152.256 197.076 151.824 196.548 151.824C195.988 151.824 195.556 152.256 195.556 152.816C195.556 153.376 195.988 153.808 196.548 153.808ZM200.053 161.6C200.053 163.36 200.933 164 202.485 164H203.797V162.768H202.725C201.829 162.768 201.509 162.464 201.509 161.6V156.432H203.797V155.232H201.509V153.024H200.053V155.232H198.917V156.432H200.053V161.6ZM212.698 164H214.154V152.848H212.698V157.744H207.018V152.848H205.562V164H207.018V158.944H212.698V164ZM224.4 155.232H222.944V160.048C222.944 161.936 221.936 162.864 220.432 162.864C218.96 162.864 217.984 161.952 217.984 160.176V155.232H216.544V160.368C216.544 162.88 218.128 164.128 220.144 164.128C221.312 164.128 222.384 163.616 222.944 162.704V164H224.4V155.232ZM228.314 156.864V152.16H226.858V164H228.314V162.384C228.858 163.344 229.994 164.144 231.594 164.144C233.946 164.144 235.754 162.304 235.754 159.584C235.754 156.848 233.962 155.088 231.594 155.088C230.042 155.088 228.874 155.888 228.314 156.864ZM234.266 159.584C234.266 161.648 232.906 162.864 231.29 162.864C229.706 162.864 228.314 161.664 228.314 159.6C228.314 157.568 229.706 156.352 231.29 156.352C232.906 156.352 234.266 157.52 234.266 159.584Z" fill="#A3A8B8"/>
<rect x="40" y="192" width="621" height="64" rx="4" fill="#373D57"/>
<rect x="554" y="212" width="87" height="24" rx="4" fill="#7950ED"/>
<path d="M572.774 223.812C572.774 226.32 574.682 228.072 577.034 228.072C578.774 228.072 580.274 227.208 580.91 225.576H579.266C578.822 226.464 578.03 226.884 577.034 226.884C575.378 226.884 574.178 225.696 574.178 223.812C574.178 221.928 575.378 220.752 577.034 220.752C578.03 220.752 578.822 221.172 579.266 222.06H580.91C580.274 220.428 578.774 219.552 577.034 219.552C574.682 219.552 572.774 221.316 572.774 223.812ZM582.872 228H584.24V224.304C584.24 223.092 584.9 222.468 585.908 222.468C586.904 222.468 587.564 223.092 587.564 224.304V228H588.92V224.1C588.92 222.252 587.768 221.28 586.292 221.28C585.44 221.28 584.696 221.604 584.24 222.156V219.12H582.872V228ZM590.569 224.664C590.569 226.704 591.949 228.108 593.665 228.108C594.769 228.108 595.561 227.58 595.981 227.016V228H597.361V221.388H595.981V222.348C595.573 221.808 594.805 221.28 593.689 221.28C591.949 221.28 590.569 222.624 590.569 224.664ZM595.981 224.688C595.981 226.116 595.009 226.92 593.977 226.92C592.957 226.92 591.973 226.092 591.973 224.664C591.973 223.236 592.957 222.468 593.977 222.468C595.009 222.468 595.981 223.272 595.981 224.688ZM604.21 228H605.566V224.1C605.566 222.252 604.402 221.28 602.854 221.28C602.062 221.28 601.33 221.604 600.886 222.144V221.388H599.518V228H600.886V224.304C600.886 223.092 601.546 222.468 602.554 222.468C603.55 222.468 604.21 223.092 604.21 224.304V228ZM607.214 224.664C607.214 226.704 608.594 228.108 610.334 228.108C611.414 228.108 612.206 227.568 612.626 227.004V228.108C612.626 229.428 611.834 230.076 610.778 230.076C609.83 230.076 609.098 229.608 608.894 228.924H607.538C607.706 230.388 609.014 231.264 610.778 231.264C612.842 231.264 614.006 229.908 614.006 228.108V221.388H612.626V222.348C612.218 221.784 611.414 221.28 610.334 221.28C608.594 221.28 607.214 222.624 607.214 224.664ZM612.626 224.688C612.626 226.116 611.654 226.92 610.622 226.92C609.602 226.92 608.618 226.092 608.618 224.664C608.618 223.236 609.602 222.468 610.622 222.468C611.654 222.468 612.626 223.272 612.626 224.688ZM618.947 222.432C619.967 222.432 620.771 223.08 620.795 224.1H617.135C617.279 223.056 618.023 222.432 618.947 222.432ZM622.043 226.032H620.567C620.315 226.548 619.847 226.956 619.007 226.956C617.999 226.956 617.219 226.296 617.123 225.204H622.175C622.211 224.976 622.223 224.76 622.223 224.532C622.223 222.588 620.891 221.28 619.007 221.28C617.051 221.28 615.707 222.612 615.707 224.688C615.707 226.764 617.111 228.108 619.007 228.108C620.627 228.108 621.671 227.184 622.043 226.032Z" fill="white"/>
<path d="M56.8613 216H58.0133L55.0013 207.684H53.7413L50.7173 216H51.8693L52.5413 214.14H56.1893L56.8613 216ZM55.8773 213.252H52.8533L54.3653 209.028L55.8773 213.252ZM68.8232 216H69.9032V212.124C69.9032 210.24 68.7392 209.304 67.2392 209.304C66.2312 209.304 65.2952 209.82 64.9112 210.768C64.4792 209.784 63.5792 209.304 62.4992 209.304C61.6352 209.304 60.8552 209.676 60.4232 210.372V209.424H59.3312V216H60.4232V212.376C60.4232 210.96 61.1792 210.252 62.2832 210.252C63.3632 210.252 64.0832 210.936 64.0832 212.28V216H65.1632V212.376C65.1632 210.96 65.9192 210.252 67.0232 210.252C68.1032 210.252 68.8232 210.936 68.8232 212.28V216ZM72.7865 210.636V209.424H71.6945V219.12H72.7865V214.788C73.1945 215.46 74.0465 216.108 75.2465 216.108C77.0105 216.108 78.3665 214.728 78.3665 212.688C78.3665 210.636 77.0105 209.316 75.2465 209.316C74.0465 209.316 73.1825 209.94 72.7865 210.636ZM77.2505 212.688C77.2505 214.236 76.2305 215.148 75.0185 215.148C73.8305 215.148 72.7865 214.248 72.7865 212.7C72.7865 211.176 73.8305 210.264 75.0185 210.264C76.2305 210.264 77.2505 211.14 77.2505 212.688ZM79.8039 216H80.8959V207.12H79.8039V216ZM82.757 216H83.849V209.424H82.757V216ZM83.321 208.356C83.717 208.356 84.041 208.032 84.041 207.612C84.041 207.192 83.717 206.868 83.321 206.868C82.901 206.868 82.577 207.192 82.577 207.612C82.577 208.032 82.901 208.356 83.321 208.356ZM85.3021 212.7C85.3021 214.788 86.6341 216.108 88.5061 216.108C90.1381 216.108 91.2061 215.196 91.5421 213.888H90.3661C90.1261 214.716 89.4781 215.184 88.5061 215.184C87.3061 215.184 86.4181 214.332 86.4181 212.7C86.4181 211.092 87.3061 210.24 88.5061 210.24C89.4781 210.24 90.1381 210.744 90.3661 211.536H91.5421C91.2061 210.156 90.1381 209.316 88.5061 209.316C86.6341 209.316 85.3021 210.636 85.3021 212.7ZM92.5912 212.688C92.5912 214.728 93.9472 216.108 95.6992 216.108C96.9112 216.108 97.7632 215.484 98.1592 214.776V216H99.2632V209.424H98.1592V210.624C97.7752 209.94 96.9352 209.316 95.7112 209.316C93.9472 209.316 92.5912 210.636 92.5912 212.688ZM98.1592 212.7C98.1592 214.248 97.1272 215.148 95.9272 215.148C94.7272 215.148 93.7072 214.236 93.7072 212.688C93.7072 211.14 94.7272 210.264 95.9272 210.264C97.1272 210.264 98.1592 211.176 98.1592 212.7ZM101.349 214.2C101.349 215.52 102.009 216 103.173 216H104.157V215.076H103.353C102.681 215.076 102.441 214.848 102.441 214.2V210.324H104.157V209.424H102.441V207.768H101.349V209.424H100.497V210.324H101.349V214.2ZM105.48 216H106.572V209.424H105.48V216ZM106.044 208.356C106.44 208.356 106.764 208.032 106.764 207.612C106.764 207.192 106.44 206.868 106.044 206.868C105.624 206.868 105.3 207.192 105.3 207.612C105.3 208.032 105.624 208.356 106.044 208.356ZM114.673 212.7C114.673 210.624 113.221 209.316 111.349 209.316C109.489 209.316 108.025 210.624 108.025 212.7C108.025 214.788 109.441 216.108 111.301 216.108C113.173 216.108 114.673 214.788 114.673 212.7ZM109.141 212.7C109.141 211.044 110.185 210.264 111.337 210.264C112.465 210.264 113.557 211.044 113.557 212.7C113.557 214.368 112.441 215.148 111.301 215.148C110.161 215.148 109.141 214.368 109.141 212.7ZM120.921 216H122.001V212.124C122.001 210.24 120.837 209.304 119.313 209.304C118.425 209.304 117.633 209.676 117.201 210.36V209.424H116.109V216H117.201V212.364C117.201 210.948 117.969 210.252 119.085 210.252C120.189 210.252 120.921 210.936 120.921 212.28V216ZM123.496 218.04H124.576L127.864 204.696H126.772L123.496 218.04ZM135.107 216H136.259L133.247 207.684H131.987L128.963 216H130.115L130.787 214.14H134.435L135.107 216ZM134.123 213.252H131.099L132.611 209.028L134.123 213.252ZM147.069 216H148.149V212.124C148.149 210.24 146.985 209.304 145.485 209.304C144.477 209.304 143.541 209.82 143.157 210.768C142.725 209.784 141.825 209.304 140.745 209.304C139.881 209.304 139.101 209.676 138.669 210.372V209.424H137.577V216H138.669V212.376C138.669 210.96 139.425 210.252 140.529 210.252C141.609 210.252 142.329 210.936 142.329 212.28V216H143.409V212.376C143.409 210.96 144.165 210.252 145.269 210.252C146.349 210.252 147.069 210.936 147.069 212.28V216ZM151.033 210.636V209.424H149.941V219.12H151.033V214.788C151.441 215.46 152.293 216.108 153.493 216.108C155.257 216.108 156.613 214.728 156.613 212.688C156.613 210.636 155.257 209.316 153.493 209.316C152.293 209.316 151.429 209.94 151.033 210.636ZM155.497 212.688C155.497 214.236 154.477 215.148 153.265 215.148C152.077 215.148 151.033 214.248 151.033 212.7C151.033 211.176 152.077 210.264 153.265 210.264C154.477 210.264 155.497 211.14 155.497 212.688ZM158.05 216H159.142V207.12H158.05V216ZM161.003 216H162.095V209.424H161.003V216ZM161.567 208.356C161.963 208.356 162.287 208.032 162.287 207.612C162.287 207.192 161.963 206.868 161.567 206.868C161.147 206.868 160.823 207.192 160.823 207.612C160.823 208.032 161.147 208.356 161.567 208.356ZM163.548 212.7C163.548 214.788 164.88 216.108 166.752 216.108C168.384 216.108 169.452 215.196 169.788 213.888H168.612C168.372 214.716 167.724 215.184 166.752 215.184C165.552 215.184 164.664 214.332 164.664 212.7C164.664 211.092 165.552 210.24 166.752 210.24C167.724 210.24 168.384 210.744 168.612 211.536H169.788C169.452 210.156 168.384 209.316 166.752 209.316C164.88 209.316 163.548 210.636 163.548 212.7ZM170.837 212.688C170.837 214.728 172.193 216.108 173.945 216.108C175.157 216.108 176.009 215.484 176.405 214.776V216H177.509V209.424H176.405V210.624C176.021 209.94 175.181 209.316 173.957 209.316C172.193 209.316 170.837 210.636 170.837 212.688ZM176.405 212.7C176.405 214.248 175.373 215.148 174.173 215.148C172.973 215.148 171.953 214.236 171.953 212.688C171.953 211.14 172.973 210.264 174.173 210.264C175.373 210.264 176.405 211.176 176.405 212.7ZM178.947 212.7C178.947 214.788 180.279 216.108 182.151 216.108C183.783 216.108 184.851 215.196 185.187 213.888H184.011C183.771 214.716 183.123 215.184 182.151 215.184C180.951 215.184 180.063 214.332 180.063 212.7C180.063 211.092 180.951 210.24 182.151 210.24C183.123 210.24 183.783 210.744 184.011 211.536H185.187C184.851 210.156 183.783 209.316 182.151 209.316C180.279 209.316 178.947 210.636 178.947 212.7ZM186.884 214.2C186.884 215.52 187.544 216 188.708 216H189.692V215.076H188.888C188.216 215.076 187.976 214.848 187.976 214.2V210.324H189.692V209.424H187.976V207.768H186.884V209.424H186.032V210.324H186.884V214.2ZM191.015 216H192.107V209.424H191.015V216ZM191.579 208.356C191.975 208.356 192.299 208.032 192.299 207.612C192.299 207.192 191.975 206.868 191.579 206.868C191.159 206.868 190.835 207.192 190.835 207.612C190.835 208.032 191.159 208.356 191.579 208.356ZM200.208 212.7C200.208 210.624 198.756 209.316 196.884 209.316C195.024 209.316 193.56 210.624 193.56 212.7C193.56 214.788 194.976 216.108 196.836 216.108C198.708 216.108 200.208 214.788 200.208 212.7ZM194.676 212.7C194.676 211.044 195.72 210.264 196.872 210.264C198 210.264 199.092 211.044 199.092 212.7C199.092 214.368 197.976 215.148 196.836 215.148C195.696 215.148 194.676 214.368 194.676 212.7ZM206.456 216H207.536V212.124C207.536 210.24 206.372 209.304 204.848 209.304C203.96 209.304 203.168 209.676 202.736 210.36V209.424H201.644V216H202.736V212.364C202.736 210.948 203.504 210.252 204.62 210.252C205.724 210.252 206.456 210.936 206.456 212.28V216Z" fill="white"/>
<rect x="217.821" y="203.5" width="70" height="19" rx="9.5" fill="#A787FF" fill-opacity="0.09" stroke="#A787FF"/>
<path d="M233.503 212.5H226.503C225.951 212.5 225.503 212.948 225.503 213.5V217C225.503 217.552 225.951 218 226.503 218H233.503C234.056 218 234.503 217.552 234.503 217V213.5C234.503 212.948 234.056 212.5 233.503 212.5Z" stroke="#A787FF" stroke-linecap="round" stroke-linejoin="round"/>
<path d="M227.503 212.5V210.5C227.503 209.837 227.767 209.201 228.236 208.732C228.704 208.263 229.34 208 230.003 208C230.666 208 231.302 208.263 231.771 208.732C232.24 209.201 232.503 209.837 232.503 210.5V212.5" stroke="#A787FF" stroke-linecap="round" stroke-linejoin="round"/>
<path d="M241.893 212.3V211.49H240.753V219.62H241.893V216.2C242.253 216.63 242.903 217.09 243.813 217.09C245.263 217.09 246.403 215.92 246.403 214.22C246.403 212.52 245.263 211.4 243.813 211.4C242.913 211.4 242.243 211.84 241.893 212.3ZM245.243 214.22C245.243 215.41 244.423 216.1 243.563 216.1C242.713 216.1 241.893 215.43 241.893 214.24C241.893 213.06 242.713 212.39 243.563 212.39C244.423 212.39 245.243 213.03 245.243 214.22ZM248.971 214.1C248.971 212.93 249.491 212.58 250.331 212.58H250.621V211.4C249.841 211.4 249.291 211.74 248.971 212.29V211.49H247.831V217H248.971V214.1ZM251.969 217H253.109V211.49H251.969V217ZM252.549 210.76C252.949 210.76 253.269 210.44 253.269 210.03C253.269 209.62 252.949 209.3 252.549 209.3C252.139 209.3 251.819 209.62 251.819 210.03C251.819 210.44 252.139 210.76 252.549 210.76ZM254.255 211.49L256.345 217H257.705L259.805 211.49H258.595L257.035 215.98L255.475 211.49H254.255ZM260.587 214.22C260.587 215.92 261.737 217.09 263.167 217.09C264.087 217.09 264.747 216.65 265.097 216.18V217H266.247V211.49H265.097V212.29C264.757 211.84 264.117 211.4 263.187 211.4C261.737 211.4 260.587 212.52 260.587 214.22ZM265.097 214.24C265.097 215.43 264.287 216.1 263.427 216.1C262.577 216.1 261.757 215.41 261.757 214.22C261.757 213.03 262.577 212.39 263.427 212.39C264.287 212.39 265.097 213.06 265.097 214.24ZM268.224 215.47C268.224 216.59 268.834 217 269.814 217H270.714V216.05H270.014C269.534 216.05 269.374 215.88 269.374 215.47V212.42H270.714V211.49H269.374V210.12H268.224V211.49H267.574V212.42H268.224V215.47ZM274.385 212.36C275.235 212.36 275.905 212.9 275.925 213.75H272.875C272.995 212.88 273.615 212.36 274.385 212.36ZM276.965 215.36H275.735C275.525 215.79 275.135 216.13 274.435 216.13C273.595 216.13 272.945 215.58 272.865 214.67H277.075C277.105 214.48 277.115 214.3 277.115 214.11C277.115 212.49 276.005 211.4 274.435 211.4C272.805 211.4 271.685 212.51 271.685 214.24C271.685 215.97 272.855 217.09 274.435 217.09C275.785 217.09 276.655 216.32 276.965 215.36Z" fill="#A787FF"/>
<path d="M50.7513 239.24C50.7513 240.94 51.8813 242.09 53.3513 242.09C54.3513 242.09 55.0613 241.56 55.3913 240.97V242.12C55.3913 243.29 54.6613 243.91 53.6913 243.91C52.7913 243.91 52.1413 243.46 51.9413 242.8H51.0413C51.2213 243.97 52.2513 244.7 53.6913 244.7C55.3013 244.7 56.3113 243.63 56.3113 242.12V236.52H55.3913V237.52C55.0713 236.93 54.3513 236.43 53.3513 236.43C51.8813 236.43 50.7513 237.53 50.7513 239.24ZM55.3913 239.25C55.3913 240.54 54.5313 241.29 53.5313 241.29C52.5313 241.29 51.6813 240.53 51.6813 239.24C51.6813 237.95 52.5313 237.22 53.5313 237.22C54.5313 237.22 55.3913 237.98 55.3913 239.25ZM57.8491 242H58.7591V236.52H57.8491V242ZM58.3191 235.63C58.6491 235.63 58.9191 235.36 58.9191 235.01C58.9191 234.66 58.6491 234.39 58.3191 234.39C57.9691 234.39 57.6991 234.66 57.6991 235.01C57.6991 235.36 57.9691 235.63 58.3191 235.63ZM60.51 240.5C60.51 241.6 61.06 242 62.03 242H62.85V241.23H62.18C61.62 241.23 61.42 241.04 61.42 240.5V237.27H62.85V236.52H61.42V235.14H60.51V236.52H59.8V237.27H60.51V240.5ZM63.9526 242H64.8626V238.97C64.8626 237.79 65.5026 237.21 66.4326 237.21C67.3526 237.21 67.9626 237.78 67.9626 238.9V242H68.8626V238.77C68.8626 237.2 67.8926 236.42 66.6726 236.42C65.9026 236.42 65.2226 236.73 64.8626 237.31V234.6H63.9526V242ZM75.2091 236.52H74.2991V239.53C74.2991 240.71 73.6691 241.29 72.7291 241.29C71.8091 241.29 71.1991 240.72 71.1991 239.61V236.52H70.2991V239.73C70.2991 241.3 71.2891 242.08 72.5491 242.08C73.2791 242.08 73.9491 241.76 74.2991 241.19V242H75.2091V236.52ZM77.6556 237.54V234.6H76.7456V242H77.6556V240.99C77.9956 241.59 78.7056 242.09 79.7056 242.09C81.1756 242.09 82.3056 240.94 82.3056 239.24C82.3056 237.53 81.1856 236.43 79.7056 236.43C78.7356 236.43 78.0056 236.93 77.6556 237.54ZM81.3756 239.24C81.3756 240.53 80.5256 241.29 79.5156 241.29C78.5256 241.29 77.6556 240.54 77.6556 239.25C77.6556 237.98 78.5256 237.22 79.5156 237.22C80.5256 237.22 81.3756 237.95 81.3756 239.24ZM84.3934 241.44C84.3934 241.09 84.1234 240.82 83.7934 240.82C83.4434 240.82 83.1734 241.09 83.1734 241.44C83.1734 241.79 83.4434 242.06 83.7934 242.06C84.1234 242.06 84.3934 241.79 84.3934 241.44ZM85.263 239.25C85.263 240.99 86.373 242.09 87.933 242.09C89.293 242.09 90.183 241.33 90.463 240.24H89.483C89.283 240.93 88.743 241.32 87.933 241.32C86.933 241.32 86.193 240.61 86.193 239.25C86.193 237.91 86.933 237.2 87.933 237.2C88.743 237.2 89.293 237.62 89.483 238.28H90.463C90.183 237.13 89.293 236.43 87.933 236.43C86.373 236.43 85.263 237.53 85.263 239.25ZM96.8772 239.25C96.8772 237.52 95.6672 236.43 94.1072 236.43C92.5572 236.43 91.3372 237.52 91.3372 239.25C91.3372 240.99 92.5172 242.09 94.0672 242.09C95.6272 242.09 96.8772 240.99 96.8772 239.25ZM92.2672 239.25C92.2672 237.87 93.1372 237.22 94.0972 237.22C95.0372 237.22 95.9472 237.87 95.9472 239.25C95.9472 240.64 95.0172 241.29 94.0672 241.29C93.1172 241.29 92.2672 240.64 92.2672 239.25ZM105.984 242H106.884V238.77C106.884 237.2 105.914 236.42 104.664 236.42C103.824 236.42 103.044 236.85 102.724 237.64C102.364 236.82 101.614 236.42 100.714 236.42C99.9937 236.42 99.3437 236.73 98.9837 237.31V236.52H98.0737V242H98.9837V238.98C98.9837 237.8 99.6137 237.21 100.534 237.21C101.434 237.21 102.034 237.78 102.034 238.9V242H102.934V238.98C102.934 237.8 103.564 237.21 104.484 237.21C105.384 237.21 105.984 237.78 105.984 238.9V242ZM108.136 243.7H109.036L111.776 232.58H110.866L108.136 243.7ZM114.042 239.02C114.042 237.75 114.702 237.36 115.572 237.36H115.812V236.42C114.942 236.42 114.352 236.8 114.042 237.41V236.52H113.132V242H114.042V239.02ZM119.193 237.2C120.133 237.2 120.933 237.79 120.923 238.86H117.463C117.563 237.79 118.303 237.2 119.193 237.2ZM121.753 240.31H120.773C120.573 240.9 120.053 241.32 119.233 241.32C118.303 241.32 117.523 240.71 117.453 239.6H121.833C121.853 239.41 121.863 239.25 121.863 239.05C121.863 237.55 120.823 236.43 119.233 236.43C117.633 236.43 116.523 237.52 116.523 239.25C116.523 240.99 117.673 242.09 119.233 242.09C120.593 242.09 121.473 241.31 121.753 240.31ZM123.974 237.53V236.52H123.064V244.6H123.974V240.99C124.314 241.55 125.024 242.09 126.024 242.09C127.494 242.09 128.624 240.94 128.624 239.24C128.624 237.53 127.494 236.43 126.024 236.43C125.024 236.43 124.304 236.95 123.974 237.53ZM127.694 239.24C127.694 240.53 126.844 241.29 125.834 241.29C124.844 241.29 123.974 240.54 123.974 239.25C123.974 237.98 124.844 237.22 125.834 237.22C126.844 237.22 127.694 237.95 127.694 239.24ZM135.022 239.25C135.022 237.52 133.812 236.43 132.252 236.43C130.702 236.43 129.482 237.52 129.482 239.25C129.482 240.99 130.662 242.09 132.212 242.09C133.772 242.09 135.022 240.99 135.022 239.25ZM130.412 239.25C130.412 237.87 131.282 237.22 132.242 237.22C133.182 237.22 134.092 237.87 134.092 239.25C134.092 240.64 133.162 241.29 132.212 241.29C131.262 241.29 130.412 240.64 130.412 239.25ZM140.158 240.51C140.118 238.55 136.938 239.26 136.938 237.96C136.938 237.52 137.338 237.2 138.008 237.2C138.738 237.2 139.158 237.6 139.198 238.15H140.108C140.048 237.08 139.248 236.43 138.038 236.43C136.818 236.43 136.028 237.12 136.028 237.96C136.028 240 139.268 239.29 139.268 240.51C139.268 240.96 138.868 241.32 138.148 241.32C137.378 241.32 136.908 240.92 136.858 240.39H135.918C135.978 241.39 136.878 242.09 138.158 242.09C139.368 242.09 140.158 241.41 140.158 240.51ZM141.203 243.7H142.103L144.843 232.58H143.933L141.203 243.7ZM145.859 239.24C145.859 240.94 146.989 242.09 148.449 242.09C149.459 242.09 150.169 241.57 150.499 240.98V242H151.419V236.52H150.499V237.52C150.179 236.95 149.479 236.43 148.459 236.43C146.989 236.43 145.859 237.53 145.859 239.24ZM150.499 239.25C150.499 240.54 149.639 241.29 148.639 241.29C147.639 241.29 146.789 240.53 146.789 239.24C146.789 237.95 147.639 237.22 148.639 237.22C149.639 237.22 150.499 237.98 150.499 239.25ZM160.867 242H161.767V238.77C161.767 237.2 160.797 236.42 159.547 236.42C158.707 236.42 157.927 236.85 157.607 237.64C157.247 236.82 156.497 236.42 155.597 236.42C154.877 236.42 154.227 236.73 153.867 237.31V236.52H152.957V242H153.867V238.98C153.867 237.8 154.497 237.21 155.417 237.21C156.317 237.21 156.917 237.78 156.917 238.9V242H157.817V238.98C157.817 237.8 158.447 237.21 159.367 237.21C160.267 237.21 160.867 237.78 160.867 238.9V242ZM164.169 237.53V236.52H163.259V244.6H164.169V240.99C164.509 241.55 165.219 242.09 166.219 242.09C167.689 242.09 168.819 240.94 168.819 239.24C168.819 237.53 167.689 236.43 166.219 236.43C165.219 236.43 164.499 236.95 164.169 237.53ZM167.889 239.24C167.889 240.53 167.039 241.29 166.029 241.29C165.039 241.29 164.169 240.54 164.169 239.25C164.169 237.98 165.039 237.22 166.029 237.22C167.039 237.22 167.889 237.95 167.889 239.24ZM170.017 242H170.927V234.6H170.017V242ZM172.478 242H173.388V236.52H172.478V242ZM172.948 235.63C173.278 235.63 173.548 235.36 173.548 235.01C173.548 234.66 173.278 234.39 172.948 234.39C172.598 234.39 172.328 234.66 172.328 235.01C172.328 235.36 172.598 235.63 172.948 235.63ZM174.599 239.25C174.599 240.99 175.709 242.09 177.269 242.09C178.629 242.09 179.519 241.33 179.799 240.24H178.819C178.619 240.93 178.079 241.32 177.269 241.32C176.269 241.32 175.529 240.61 175.529 239.25C175.529 237.91 176.269 237.2 177.269 237.2C178.079 237.2 178.629 237.62 178.819 238.28H179.799C179.519 237.13 178.629 236.43 177.269 236.43C175.709 236.43 174.599 237.53 174.599 239.25ZM180.673 239.24C180.673 240.94 181.803 242.09 183.263 242.09C184.273 242.09 184.983 241.57 185.313 240.98V242H186.233V236.52H185.313V237.52C184.993 236.95 184.293 236.43 183.273 236.43C181.803 236.43 180.673 237.53 180.673 239.24ZM185.313 239.25C185.313 240.54 184.453 241.29 183.453 241.29C182.453 241.29 181.603 240.53 181.603 239.24C181.603 237.95 182.453 237.22 183.453 237.22C184.453 237.22 185.313 237.98 185.313 239.25ZM187.971 240.5C187.971 241.6 188.521 242 189.491 242H190.311V241.23H189.641C189.081 241.23 188.881 241.04 188.881 240.5V237.27H190.311V236.52H188.881V235.14H187.971V236.52H187.261V237.27H187.971V240.5ZM191.414 242H192.324V236.52H191.414V242ZM191.884 235.63C192.214 235.63 192.484 235.36 192.484 235.01C192.484 234.66 192.214 234.39 191.884 234.39C191.534 234.39 191.264 234.66 191.264 235.01C191.264 235.36 191.534 235.63 191.884 235.63ZM199.074 239.25C199.074 237.52 197.864 236.43 196.304 236.43C194.754 236.43 193.534 237.52 193.534 239.25C193.534 240.99 194.714 242.09 196.264 242.09C197.824 242.09 199.074 240.99 199.074 239.25ZM194.464 239.25C194.464 237.87 195.334 237.22 196.294 237.22C197.234 237.22 198.144 237.87 198.144 239.25C198.144 240.64 197.214 241.29 196.264 241.29C195.314 241.29 194.464 240.64 194.464 239.25ZM204.281 242H205.181V238.77C205.181 237.2 204.211 236.42 202.941 236.42C202.201 236.42 201.541 236.73 201.181 237.3V236.52H200.271V242H201.181V238.97C201.181 237.79 201.821 237.21 202.751 237.21C203.671 237.21 204.281 237.78 204.281 238.9V242ZM206.427 243.7H207.327L210.067 232.58H209.157L206.427 243.7ZM211.083 239.24C211.083 240.94 212.213 242.09 213.673 242.09C214.683 242.09 215.393 241.57 215.723 240.98V242H216.643V236.52H215.723V237.52C215.403 236.95 214.703 236.43 213.683 236.43C212.213 236.43 211.083 237.53 211.083 239.24ZM215.723 239.25C215.723 240.54 214.863 241.29 213.863 241.29C212.863 241.29 212.013 240.53 212.013 239.24C212.013 237.95 212.863 237.22 213.863 237.22C214.863 237.22 215.723 237.98 215.723 239.25ZM226.091 242H226.991V238.77C226.991 237.2 226.021 236.42 224.771 236.42C223.931 236.42 223.151 236.85 222.831 237.64C222.471 236.82 221.721 236.42 220.821 236.42C220.101 236.42 219.451 236.73 219.091 237.31V236.52H218.181V242H219.091V238.98C219.091 237.8 219.721 237.21 220.641 237.21C221.541 237.21 222.141 237.78 222.141 238.9V242H223.041V238.98C223.041 237.8 223.671 237.21 224.591 237.21C225.491 237.21 226.091 237.78 226.091 238.9V242ZM229.394 237.53V236.52H228.484V244.6H229.394V240.99C229.734 241.55 230.444 242.09 231.444 242.09C232.914 242.09 234.044 240.94 234.044 239.24C234.044 237.53 232.914 236.43 231.444 236.43C230.444 236.43 229.724 236.95 229.394 237.53ZM233.114 239.24C233.114 240.53 232.264 241.29 231.254 241.29C230.264 241.29 229.394 240.54 229.394 239.25C229.394 237.98 230.264 237.22 231.254 237.22C232.264 237.22 233.114 237.95 233.114 239.24ZM235.242 242H236.152V234.6H235.242V242ZM237.703 242H238.613V236.52H237.703V242ZM238.173 235.63C238.503 235.63 238.773 235.36 238.773 235.01C238.773 234.66 238.503 234.39 238.173 234.39C237.823 234.39 237.553 234.66 237.553 235.01C237.553 235.36 237.823 235.63 238.173 235.63ZM239.824 239.25C239.824 240.99 240.934 242.09 242.494 242.09C243.854 242.09 244.744 241.33 245.024 240.24H244.044C243.844 240.93 243.304 241.32 242.494 241.32C241.494 241.32 240.754 240.61 240.754 239.25C240.754 237.91 241.494 237.2 242.494 237.2C243.304 237.2 243.854 237.62 244.044 238.28H245.024C244.744 237.13 243.854 236.43 242.494 236.43C240.934 236.43 239.824 237.53 239.824 239.25ZM245.898 239.24C245.898 240.94 247.028 242.09 248.488 242.09C249.498 242.09 250.208 241.57 250.538 240.98V242H251.458V236.52H250.538V237.52C250.218 236.95 249.518 236.43 248.498 236.43C247.028 236.43 245.898 237.53 245.898 239.24ZM250.538 239.25C250.538 240.54 249.678 241.29 248.678 241.29C247.678 241.29 246.828 240.53 246.828 239.24C246.828 237.95 247.678 237.22 248.678 237.22C249.678 237.22 250.538 237.98 250.538 239.25ZM252.656 239.25C252.656 240.99 253.766 242.09 255.326 242.09C256.686 242.09 257.576 241.33 257.856 240.24H256.876C256.676 240.93 256.136 241.32 255.326 241.32C254.326 241.32 253.586 240.61 253.586 239.25C253.586 237.91 254.326 237.2 255.326 237.2C256.136 237.2 256.686 237.62 256.876 238.28H257.856C257.576 237.13 256.686 236.43 255.326 236.43C253.766 236.43 252.656 237.53 252.656 239.25ZM259.27 240.5C259.27 241.6 259.82 242 260.79 242H261.61V241.23H260.94C260.38 241.23 260.18 241.04 260.18 240.5V237.27H261.61V236.52H260.18V235.14H259.27V236.52H258.56V237.27H259.27V240.5ZM262.712 242H263.622V236.52H262.712V242ZM263.182 235.63C263.512 235.63 263.782 235.36 263.782 235.01C263.782 234.66 263.512 234.39 263.182 234.39C262.832 234.39 262.562 234.66 262.562 235.01C262.562 235.36 262.832 235.63 263.182 235.63ZM270.373 239.25C270.373 237.52 269.163 236.43 267.603 236.43C266.053 236.43 264.833 237.52 264.833 239.25C264.833 240.99 266.013 242.09 267.563 242.09C269.123 242.09 270.373 240.99 270.373 239.25ZM265.763 239.25C265.763 237.87 266.633 237.22 267.593 237.22C268.533 237.22 269.443 237.87 269.443 239.25C269.443 240.64 268.513 241.29 267.563 241.29C266.613 241.29 265.763 240.64 265.763 239.25ZM275.58 242H276.48V238.77C276.48 237.2 275.51 236.42 274.24 236.42C273.5 236.42 272.84 236.73 272.48 237.3V236.52H271.57V242H272.48V238.97C272.48 237.79 273.12 237.21 274.05 237.21C274.97 237.21 275.58 237.78 275.58 238.9V242Z" fill="#A3A8B8"/>
<path d="M50.3213 243H277.2V243.5H50.3213V243Z" fill="#A3A8B8"/>
<rect x="40" y="271" width="621" height="64" rx="4" fill="#373D57"/>
<rect x="52" y="283" width="203" height="16" rx="4" fill="#444B66"/>
<rect x="52" y="307" width="290" height="16" rx="4" fill="#444B66"/>
<rect x="40" y="351" width="621" height="64" rx="4" fill="#373D57"/>
<rect x="52" y="363" width="203" height="16" rx="4" fill="#444B66"/>
<rect x="52" y="387" width="290" height="16" rx="4" fill="#444B66"/>
<defs>
<filter id="filter0_i" x="39.5" y="146.5" width="47.0952" height="25" filterUnits="userSpaceOnUse" color-interpolation-filters="sRGB">
<feFlood flood-opacity="0" result="BackgroundImageFix"/>
<feBlend mode="normal" in="SourceGraphic" in2="BackgroundImageFix" result="shape"/>
<feColorMatrix in="SourceAlpha" type="matrix" values="0 0 0 0 0 0 0 0 0 0 0 0 0 0 0 0 0 0 127 0" result="hardAlpha"/>
<feOffset dy="2"/>
<feGaussianBlur stdDeviation="1"/>
<feComposite in2="hardAlpha" operator="arithmetic" k2="-1" k3="1"/>
<feColorMatrix type="matrix" values="0 0 0 0 0.119145 0 0 0 0 0.0569014 0 0 0 0 0.295247 0 0 0 0.29 0"/>
<feBlend mode="normal" in2="shape" result="effect1_innerShadow"/>
</filter>
<filter id="filter1_d" x="46.6865" y="133.444" width="56.9825" height="57.1111" filterUnits="userSpaceOnUse" color-interpolation-filters="sRGB">
<feFlood flood-opacity="0" result="BackgroundImageFix"/>
<feColorMatrix in="SourceAlpha" type="matrix" values="0 0 0 0 0 0 0 0 0 0 0 0 0 0 0 0 0 0 127 0"/>
<feOffset dy="4"/>
<feGaussianBlur stdDeviation="10"/>
<feColorMatrix type="matrix" values="0 0 0 0 0.177453 0 0 0 0 0.0798565 0 0 0 0 0.453581 0 0 0 0.38 0"/>
<feBlend mode="normal" in2="BackgroundImageFix" result="effect1_dropShadow"/>
<feBlend mode="normal" in="SourceGraphic" in2="effect1_dropShadow" result="shape"/>
</filter>
</defs>
</svg>
