<svg width="700" height="560" viewBox="0 0 700 560" fill="none" xmlns="http://www.w3.org/2000/svg">
<path d="M28 167.5H672C676.142 167.5 679.5 170.858 679.5 175V421C679.5 425.142 676.142 428.5 672 428.5H28C23.8579 428.5 20.5 425.142 20.5 421V175C20.5 170.858 23.8579 167.5 28 167.5Z" fill="#22273C" stroke="#373D57"/>
<rect x="40" y="187" width="621" height="64" rx="4" fill="#373D57"/>
<rect x="554" y="207" width="87" height="24" rx="4" fill="#7950ED"/>
<path d="M572.774 218.812C572.774 221.32 574.682 223.072 577.034 223.072C578.774 223.072 580.274 222.208 580.91 220.576H579.266C578.822 221.464 578.03 221.884 577.034 221.884C575.378 221.884 574.178 220.696 574.178 218.812C574.178 216.928 575.378 215.752 577.034 215.752C578.03 215.752 578.822 216.172 579.266 217.06H580.91C580.274 215.428 578.774 214.552 577.034 214.552C574.682 214.552 572.774 216.316 572.774 218.812ZM582.872 223H584.24V219.304C584.24 218.092 584.9 217.468 585.908 217.468C586.904 217.468 587.564 218.092 587.564 219.304V223H588.92V219.1C588.92 217.252 587.768 216.28 586.292 216.28C585.44 216.28 584.696 216.604 584.24 217.156V214.12H582.872V223ZM590.569 219.664C590.569 221.704 591.949 223.108 593.665 223.108C594.769 223.108 595.561 222.58 595.981 222.016V223H597.361V216.388H595.981V217.348C595.573 216.808 594.805 216.28 593.689 216.28C591.949 216.28 590.569 217.624 590.569 219.664ZM595.981 219.688C595.981 221.116 595.009 221.92 593.977 221.92C592.957 221.92 591.973 221.092 591.973 219.664C591.973 218.236 592.957 217.468 593.977 217.468C595.009 217.468 595.981 218.272 595.981 219.688ZM604.21 223H605.566V219.1C605.566 217.252 604.402 216.28 602.854 216.28C602.062 216.28 601.33 216.604 600.886 217.144V216.388H599.518V223H600.886V219.304C600.886 218.092 601.546 217.468 602.554 217.468C603.55 217.468 604.21 218.092 604.21 219.304V223ZM607.214 219.664C607.214 221.704 608.594 223.108 610.334 223.108C611.414 223.108 612.206 222.568 612.626 222.004V223.108C612.626 224.428 611.834 225.076 610.778 225.076C609.83 225.076 609.098 224.608 608.894 223.924H607.538C607.706 225.388 609.014 226.264 610.778 226.264C612.842 226.264 614.006 224.908 614.006 223.108V216.388H612.626V217.348C612.218 216.784 611.414 216.28 610.334 216.28C608.594 216.28 607.214 217.624 607.214 219.664ZM612.626 219.688C612.626 221.116 611.654 221.92 610.622 221.92C609.602 221.92 608.618 221.092 608.618 219.664C608.618 218.236 609.602 217.468 610.622 217.468C611.654 217.468 612.626 218.272 612.626 219.688ZM618.947 217.432C619.967 217.432 620.771 218.08 620.795 219.1H617.135C617.279 218.056 618.023 217.432 618.947 217.432ZM622.043 221.032H620.567C620.315 221.548 619.847 221.956 619.007 221.956C617.999 221.956 617.219 221.296 617.123 220.204H622.175C622.211 219.976 622.223 219.76 622.223 219.532C622.223 217.588 620.891 216.28 619.007 216.28C617.051 216.28 615.707 217.612 615.707 219.688C615.707 221.764 617.111 223.108 619.007 223.108C620.627 223.108 621.671 222.184 622.043 221.032Z" fill="white"/>
<path d="M56.8603 211H58.0123L55.0003 202.684H53.7403L50.7163 211H51.8683L52.5403 209.14H56.1883L56.8603 211ZM55.8763 208.252H52.8523L54.3643 204.028L55.8763 208.252ZM68.8223 211H69.9023V207.124C69.9023 205.24 68.7383 204.304 67.2383 204.304C66.2303 204.304 65.2943 204.82 64.9103 205.768C64.4783 204.784 63.5783 204.304 62.4983 204.304C61.6343 204.304 60.8543 204.676 60.4223 205.372V204.424H59.3303V211H60.4223V207.376C60.4223 205.96 61.1783 205.252 62.2823 205.252C63.3623 205.252 64.0823 205.936 64.0823 207.28V211H65.1623V207.376C65.1623 205.96 65.9183 205.252 67.0223 205.252C68.1023 205.252 68.8223 205.936 68.8223 207.28V211ZM72.7855 205.636V204.424H71.6935V214.12H72.7855V209.788C73.1935 210.46 74.0455 211.108 75.2455 211.108C77.0095 211.108 78.3655 209.728 78.3655 207.688C78.3655 205.636 77.0095 204.316 75.2455 204.316C74.0455 204.316 73.1815 204.94 72.7855 205.636ZM77.2495 207.688C77.2495 209.236 76.2295 210.148 75.0175 210.148C73.8295 210.148 72.7855 209.248 72.7855 207.7C72.7855 206.176 73.8295 205.264 75.0175 205.264C76.2295 205.264 77.2495 206.14 77.2495 207.688ZM79.8029 211H80.8949V202.12H79.8029V211ZM82.756 211H83.848V204.424H82.756V211ZM83.32 203.356C83.716 203.356 84.04 203.032 84.04 202.612C84.04 202.192 83.716 201.868 83.32 201.868C82.9 201.868 82.576 202.192 82.576 202.612C82.576 203.032 82.9 203.356 83.32 203.356ZM85.3012 207.7C85.3012 209.788 86.6332 211.108 88.5052 211.108C90.1372 211.108 91.2052 210.196 91.5412 208.888H90.3652C90.1252 209.716 89.4772 210.184 88.5052 210.184C87.3052 210.184 86.4172 209.332 86.4172 207.7C86.4172 206.092 87.3052 205.24 88.5052 205.24C89.4772 205.24 90.1372 205.744 90.3652 206.536H91.5412C91.2052 205.156 90.1372 204.316 88.5052 204.316C86.6332 204.316 85.3012 205.636 85.3012 207.7ZM92.5902 207.688C92.5902 209.728 93.9462 211.108 95.6982 211.108C96.9102 211.108 97.7622 210.484 98.1582 209.776V211H99.2622V204.424H98.1582V205.624C97.7742 204.94 96.9342 204.316 95.7102 204.316C93.9462 204.316 92.5902 205.636 92.5902 207.688ZM98.1582 207.7C98.1582 209.248 97.1262 210.148 95.9262 210.148C94.7262 210.148 93.7062 209.236 93.7062 207.688C93.7062 206.14 94.7262 205.264 95.9262 205.264C97.1262 205.264 98.1582 206.176 98.1582 207.7ZM101.348 209.2C101.348 210.52 102.008 211 103.172 211H104.156V210.076H103.352C102.68 210.076 102.44 209.848 102.44 209.2V205.324H104.156V204.424H102.44V202.768H101.348V204.424H100.496V205.324H101.348V209.2ZM105.479 211H106.571V204.424H105.479V211ZM106.043 203.356C106.439 203.356 106.763 203.032 106.763 202.612C106.763 202.192 106.439 201.868 106.043 201.868C105.623 201.868 105.299 202.192 105.299 202.612C105.299 203.032 105.623 203.356 106.043 203.356ZM114.672 207.7C114.672 205.624 113.22 204.316 111.348 204.316C109.488 204.316 108.024 205.624 108.024 207.7C108.024 209.788 109.44 211.108 111.3 211.108C113.172 211.108 114.672 209.788 114.672 207.7ZM109.14 207.7C109.14 206.044 110.184 205.264 111.336 205.264C112.464 205.264 113.556 206.044 113.556 207.7C113.556 209.368 112.44 210.148 111.3 210.148C110.16 210.148 109.14 209.368 109.14 207.7ZM120.92 211H122V207.124C122 205.24 120.836 204.304 119.312 204.304C118.424 204.304 117.632 204.676 117.2 205.36V204.424H116.108V211H117.2V207.364C117.2 205.948 117.968 205.252 119.084 205.252C120.188 205.252 120.92 205.936 120.92 207.28V211ZM123.495 213.04H124.575L127.863 199.696H126.771L123.495 213.04ZM135.106 211H136.258L133.246 202.684H131.986L128.962 211H130.114L130.786 209.14H134.434L135.106 211ZM134.122 208.252H131.098L132.61 204.028L134.122 208.252ZM147.068 211H148.148V207.124C148.148 205.24 146.984 204.304 145.484 204.304C144.476 204.304 143.54 204.82 143.156 205.768C142.724 204.784 141.824 204.304 140.744 204.304C139.88 204.304 139.1 204.676 138.668 205.372V204.424H137.576V211H138.668V207.376C138.668 205.96 139.424 205.252 140.528 205.252C141.608 205.252 142.328 205.936 142.328 207.28V211H143.408V207.376C143.408 205.96 144.164 205.252 145.268 205.252C146.348 205.252 147.068 205.936 147.068 207.28V211ZM151.032 205.636V204.424H149.94V214.12H151.032V209.788C151.44 210.46 152.292 211.108 153.492 211.108C155.256 211.108 156.612 209.728 156.612 207.688C156.612 205.636 155.256 204.316 153.492 204.316C152.292 204.316 151.428 204.94 151.032 205.636ZM155.496 207.688C155.496 209.236 154.476 210.148 153.264 210.148C152.076 210.148 151.032 209.248 151.032 207.7C151.032 206.176 152.076 205.264 153.264 205.264C154.476 205.264 155.496 206.14 155.496 207.688ZM158.049 211H159.141V202.12H158.049V211ZM161.002 211H162.094V204.424H161.002V211ZM161.566 203.356C161.962 203.356 162.286 203.032 162.286 202.612C162.286 202.192 161.962 201.868 161.566 201.868C161.146 201.868 160.822 202.192 160.822 202.612C160.822 203.032 161.146 203.356 161.566 203.356ZM163.547 207.7C163.547 209.788 164.879 211.108 166.751 211.108C168.383 211.108 169.451 210.196 169.787 208.888H168.611C168.371 209.716 167.723 210.184 166.751 210.184C165.551 210.184 164.663 209.332 164.663 207.7C164.663 206.092 165.551 205.24 166.751 205.24C167.723 205.24 168.383 205.744 168.611 206.536H169.787C169.451 205.156 168.383 204.316 166.751 204.316C164.879 204.316 163.547 205.636 163.547 207.7ZM170.836 207.688C170.836 209.728 172.192 211.108 173.944 211.108C175.156 211.108 176.008 210.484 176.404 209.776V211H177.508V204.424H176.404V205.624C176.02 204.94 175.18 204.316 173.956 204.316C172.192 204.316 170.836 205.636 170.836 207.688ZM176.404 207.7C176.404 209.248 175.372 210.148 174.172 210.148C172.972 210.148 171.952 209.236 171.952 207.688C171.952 206.14 172.972 205.264 174.172 205.264C175.372 205.264 176.404 206.176 176.404 207.7ZM178.946 207.7C178.946 209.788 180.278 211.108 182.15 211.108C183.782 211.108 184.85 210.196 185.186 208.888H184.01C183.77 209.716 183.122 210.184 182.15 210.184C180.95 210.184 180.062 209.332 180.062 207.7C180.062 206.092 180.95 205.24 182.15 205.24C183.122 205.24 183.782 205.744 184.01 206.536H185.186C184.85 205.156 183.782 204.316 182.15 204.316C180.278 204.316 178.946 205.636 178.946 207.7ZM186.883 209.2C186.883 210.52 187.543 211 188.707 211H189.691V210.076H188.887C188.215 210.076 187.975 209.848 187.975 209.2V205.324H189.691V204.424H187.975V202.768H186.883V204.424H186.031V205.324H186.883V209.2ZM191.014 211H192.106V204.424H191.014V211ZM191.578 203.356C191.974 203.356 192.298 203.032 192.298 202.612C192.298 202.192 191.974 201.868 191.578 201.868C191.158 201.868 190.834 202.192 190.834 202.612C190.834 203.032 191.158 203.356 191.578 203.356ZM200.207 207.7C200.207 205.624 198.755 204.316 196.883 204.316C195.023 204.316 193.559 205.624 193.559 207.7C193.559 209.788 194.975 211.108 196.835 211.108C198.707 211.108 200.207 209.788 200.207 207.7ZM194.675 207.7C194.675 206.044 195.719 205.264 196.871 205.264C197.999 205.264 199.091 206.044 199.091 207.7C199.091 209.368 197.975 210.148 196.835 210.148C195.695 210.148 194.675 209.368 194.675 207.7ZM206.455 211H207.535V207.124C207.535 205.24 206.371 204.304 204.847 204.304C203.959 204.304 203.167 204.676 202.735 205.36V204.424H201.643V211H202.735V207.364C202.735 205.948 203.503 205.252 204.619 205.252C205.723 205.252 206.455 205.936 206.455 207.28V211Z" fill="white"/>
<rect x="217.82" y="198.5" width="70" height="19" rx="9.5" fill="#A787FF" fill-opacity="0.09" stroke="#A787FF"/>
<path d="M233.502 207.5H226.502C225.95 207.5 225.502 207.948 225.502 208.5V212C225.502 212.552 225.95 213 226.502 213H233.502C234.054 213 234.502 212.552 234.502 212V208.5C234.502 207.948 234.054 207.5 233.502 207.5Z" stroke="#A787FF" stroke-linecap="round" stroke-linejoin="round"/>
<path d="M227.502 207.5V205.5C227.502 204.837 227.765 204.201 228.234 203.732C228.703 203.263 229.339 203 230.002 203C230.665 203 231.301 203.263 231.77 203.732C232.239 204.201 232.502 204.837 232.502 205.5V207.5" stroke="#A787FF" stroke-linecap="round" stroke-linejoin="round"/>
<path d="M241.892 207.3V206.49H240.752V214.62H241.892V211.2C242.252 211.63 242.902 212.09 243.812 212.09C245.262 212.09 246.402 210.92 246.402 209.22C246.402 207.52 245.262 206.4 243.812 206.4C242.912 206.4 242.242 206.84 241.892 207.3ZM245.242 209.22C245.242 210.41 244.422 211.1 243.562 211.1C242.712 211.1 241.892 210.43 241.892 209.24C241.892 208.06 242.712 207.39 243.562 207.39C244.422 207.39 245.242 208.03 245.242 209.22ZM248.969 209.1C248.969 207.93 249.489 207.58 250.329 207.58H250.619V206.4C249.839 206.4 249.289 206.74 248.969 207.29V206.49H247.829V212H248.969V209.1ZM251.967 212H253.107V206.49H251.967V212ZM252.547 205.76C252.947 205.76 253.267 205.44 253.267 205.03C253.267 204.62 252.947 204.3 252.547 204.3C252.137 204.3 251.817 204.62 251.817 205.03C251.817 205.44 252.137 205.76 252.547 205.76ZM254.254 206.49L256.344 212H257.704L259.804 206.49H258.594L257.034 210.98L255.474 206.49H254.254ZM260.586 209.22C260.586 210.92 261.736 212.09 263.166 212.09C264.086 212.09 264.746 211.65 265.096 211.18V212H266.246V206.49H265.096V207.29C264.756 206.84 264.116 206.4 263.186 206.4C261.736 206.4 260.586 207.52 260.586 209.22ZM265.096 209.24C265.096 210.43 264.286 211.1 263.426 211.1C262.576 211.1 261.756 210.41 261.756 209.22C261.756 208.03 262.576 207.39 263.426 207.39C264.286 207.39 265.096 208.06 265.096 209.24ZM268.223 210.47C268.223 211.59 268.833 212 269.813 212H270.713V211.05H270.013C269.533 211.05 269.373 210.88 269.373 210.47V207.42H270.713V206.49H269.373V205.12H268.223V206.49H267.573V207.42H268.223V210.47ZM274.384 207.36C275.234 207.36 275.904 207.9 275.924 208.75H272.874C272.994 207.88 273.614 207.36 274.384 207.36ZM276.964 210.36H275.734C275.524 210.79 275.134 211.13 274.434 211.13C273.594 211.13 272.944 210.58 272.864 209.67H277.074C277.104 209.48 277.114 209.3 277.114 209.11C277.114 207.49 276.004 206.4 274.434 206.4C272.804 206.4 271.684 207.51 271.684 209.24C271.684 210.97 272.854 212.09 274.434 212.09C275.784 212.09 276.654 211.32 276.964 210.36Z" fill="#A787FF"/>
<path d="M50.7503 234.24C50.7503 235.94 51.8803 237.09 53.3503 237.09C54.3503 237.09 55.0603 236.56 55.3903 235.97V237.12C55.3903 238.29 54.6603 238.91 53.6903 238.91C52.7903 238.91 52.1403 238.46 51.9403 237.8H51.0403C51.2203 238.97 52.2503 239.7 53.6903 239.7C55.3003 239.7 56.3103 238.63 56.3103 237.12V231.52H55.3903V232.52C55.0703 231.93 54.3503 231.43 53.3503 231.43C51.8803 231.43 50.7503 232.53 50.7503 234.24ZM55.3903 234.25C55.3903 235.54 54.5303 236.29 53.5303 236.29C52.5303 236.29 51.6803 235.53 51.6803 234.24C51.6803 232.95 52.5303 232.22 53.5303 232.22C54.5303 232.22 55.3903 232.98 55.3903 234.25ZM57.8481 237H58.7581V231.52H57.8481V237ZM58.3181 230.63C58.6481 230.63 58.9181 230.36 58.9181 230.01C58.9181 229.66 58.6481 229.39 58.3181 229.39C57.9681 229.39 57.6981 229.66 57.6981 230.01C57.6981 230.36 57.9681 230.63 58.3181 230.63ZM60.5091 235.5C60.5091 236.6 61.0591 237 62.0291 237H62.8491V236.23H62.1791C61.6191 236.23 61.4191 236.04 61.4191 235.5V232.27H62.8491V231.52H61.4191V230.14H60.5091V231.52H59.7991V232.27H60.5091V235.5ZM63.9516 237H64.8616V233.97C64.8616 232.79 65.5016 232.21 66.4316 232.21C67.3516 232.21 67.9616 232.78 67.9616 233.9V237H68.8616V233.77C68.8616 232.2 67.8916 231.42 66.6716 231.42C65.9016 231.42 65.2216 231.73 64.8616 232.31V229.6H63.9516V237ZM75.2081 231.52H74.2981V234.53C74.2981 235.71 73.6681 236.29 72.7281 236.29C71.8081 236.29 71.1981 235.72 71.1981 234.61V231.52H70.2981V234.73C70.2981 236.3 71.2881 237.08 72.5481 237.08C73.2781 237.08 73.9481 236.76 74.2981 236.19V237H75.2081V231.52ZM77.6546 232.54V229.6H76.7446V237H77.6546V235.99C77.9946 236.59 78.7046 237.09 79.7046 237.09C81.1746 237.09 82.3046 235.94 82.3046 234.24C82.3046 232.53 81.1846 231.43 79.7046 231.43C78.7346 231.43 78.0046 231.93 77.6546 232.54ZM81.3746 234.24C81.3746 235.53 80.5246 236.29 79.5146 236.29C78.5246 236.29 77.6546 235.54 77.6546 234.25C77.6546 232.98 78.5246 232.22 79.5146 232.22C80.5246 232.22 81.3746 232.95 81.3746 234.24ZM84.3924 236.44C84.3924 236.09 84.1224 235.82 83.7924 235.82C83.4424 235.82 83.1724 236.09 83.1724 236.44C83.1724 236.79 83.4424 237.06 83.7924 237.06C84.1224 237.06 84.3924 236.79 84.3924 236.44ZM85.262 234.25C85.262 235.99 86.372 237.09 87.932 237.09C89.292 237.09 90.182 236.33 90.462 235.24H89.482C89.282 235.93 88.742 236.32 87.932 236.32C86.932 236.32 86.192 235.61 86.192 234.25C86.192 232.91 86.932 232.2 87.932 232.2C88.742 232.2 89.292 232.62 89.482 233.28H90.462C90.182 232.13 89.292 231.43 87.932 231.43C86.372 231.43 85.262 232.53 85.262 234.25ZM96.8763 234.25C96.8763 232.52 95.6663 231.43 94.1063 231.43C92.5563 231.43 91.3363 232.52 91.3363 234.25C91.3363 235.99 92.5163 237.09 94.0663 237.09C95.6263 237.09 96.8763 235.99 96.8763 234.25ZM92.2663 234.25C92.2663 232.87 93.1363 232.22 94.0963 232.22C95.0363 232.22 95.9463 232.87 95.9463 234.25C95.9463 235.64 95.0163 236.29 94.0663 236.29C93.1163 236.29 92.2663 235.64 92.2663 234.25ZM105.983 237H106.883V233.77C106.883 232.2 105.913 231.42 104.663 231.42C103.823 231.42 103.043 231.85 102.723 232.64C102.363 231.82 101.613 231.42 100.713 231.42C99.9927 231.42 99.3427 231.73 98.9827 232.31V231.52H98.0727V237H98.9827V233.98C98.9827 232.8 99.6127 232.21 100.533 232.21C101.433 232.21 102.033 232.78 102.033 233.9V237H102.933V233.98C102.933 232.8 103.563 232.21 104.483 232.21C105.383 232.21 105.983 232.78 105.983 233.9V237ZM108.135 238.7H109.035L111.775 227.58H110.865L108.135 238.7ZM114.041 234.02C114.041 232.75 114.701 232.36 115.571 232.36H115.811V231.42C114.941 231.42 114.351 231.8 114.041 232.41V231.52H113.131V237H114.041V234.02ZM119.192 232.2C120.132 232.2 120.932 232.79 120.922 233.86H117.462C117.562 232.79 118.302 232.2 119.192 232.2ZM121.752 235.31H120.772C120.572 235.9 120.052 236.32 119.232 236.32C118.302 236.32 117.522 235.71 117.452 234.6H121.832C121.852 234.41 121.862 234.25 121.862 234.05C121.862 232.55 120.822 231.43 119.232 231.43C117.632 231.43 116.522 232.52 116.522 234.25C116.522 235.99 117.672 237.09 119.232 237.09C120.592 237.09 121.472 236.31 121.752 235.31ZM123.973 232.53V231.52H123.063V239.6H123.973V235.99C124.313 236.55 125.023 237.09 126.023 237.09C127.493 237.09 128.623 235.94 128.623 234.24C128.623 232.53 127.493 231.43 126.023 231.43C125.023 231.43 124.303 231.95 123.973 232.53ZM127.693 234.24C127.693 235.53 126.843 236.29 125.833 236.29C124.843 236.29 123.973 235.54 123.973 234.25C123.973 232.98 124.843 232.22 125.833 232.22C126.843 232.22 127.693 232.95 127.693 234.24ZM135.021 234.25C135.021 232.52 133.811 231.43 132.251 231.43C130.701 231.43 129.481 232.52 129.481 234.25C129.481 235.99 130.661 237.09 132.211 237.09C133.771 237.09 135.021 235.99 135.021 234.25ZM130.411 234.25C130.411 232.87 131.281 232.22 132.241 232.22C133.181 232.22 134.091 232.87 134.091 234.25C134.091 235.64 133.161 236.29 132.211 236.29C131.261 236.29 130.411 235.64 130.411 234.25ZM140.157 235.51C140.117 233.55 136.937 234.26 136.937 232.96C136.937 232.52 137.337 232.2 138.007 232.2C138.737 232.2 139.157 232.6 139.197 233.15H140.107C140.047 232.08 139.247 231.43 138.037 231.43C136.817 231.43 136.027 232.12 136.027 232.96C136.027 235 139.267 234.29 139.267 235.51C139.267 235.96 138.867 236.32 138.147 236.32C137.377 236.32 136.907 235.92 136.857 235.39H135.917C135.977 236.39 136.877 237.09 138.157 237.09C139.367 237.09 140.157 236.41 140.157 235.51ZM141.202 238.7H142.102L144.842 227.58H143.932L141.202 238.7ZM145.858 234.24C145.858 235.94 146.988 237.09 148.448 237.09C149.458 237.09 150.168 236.57 150.498 235.98V237H151.418V231.52H150.498V232.52C150.178 231.95 149.478 231.43 148.458 231.43C146.988 231.43 145.858 232.53 145.858 234.24ZM150.498 234.25C150.498 235.54 149.638 236.29 148.638 236.29C147.638 236.29 146.788 235.53 146.788 234.24C146.788 232.95 147.638 232.22 148.638 232.22C149.638 232.22 150.498 232.98 150.498 234.25ZM160.866 237H161.766V233.77C161.766 232.2 160.796 231.42 159.546 231.42C158.706 231.42 157.926 231.85 157.606 232.64C157.246 231.82 156.496 231.42 155.596 231.42C154.876 231.42 154.226 231.73 153.866 232.31V231.52H152.956V237H153.866V233.98C153.866 232.8 154.496 232.21 155.416 232.21C156.316 232.21 156.916 232.78 156.916 233.9V237H157.816V233.98C157.816 232.8 158.446 232.21 159.366 232.21C160.266 232.21 160.866 232.78 160.866 233.9V237ZM164.168 232.53V231.52H163.258V239.6H164.168V235.99C164.508 236.55 165.218 237.09 166.218 237.09C167.688 237.09 168.818 235.94 168.818 234.24C168.818 232.53 167.688 231.43 166.218 231.43C165.218 231.43 164.498 231.95 164.168 232.53ZM167.888 234.24C167.888 235.53 167.038 236.29 166.028 236.29C165.038 236.29 164.168 235.54 164.168 234.25C164.168 232.98 165.038 232.22 166.028 232.22C167.038 232.22 167.888 232.95 167.888 234.24ZM170.016 237H170.926V229.6H170.016V237ZM172.477 237H173.387V231.52H172.477V237ZM172.947 230.63C173.277 230.63 173.547 230.36 173.547 230.01C173.547 229.66 173.277 229.39 172.947 229.39C172.597 229.39 172.327 229.66 172.327 230.01C172.327 230.36 172.597 230.63 172.947 230.63ZM174.598 234.25C174.598 235.99 175.708 237.09 177.268 237.09C178.628 237.09 179.518 236.33 179.798 235.24H178.818C178.618 235.93 178.078 236.32 177.268 236.32C176.268 236.32 175.528 235.61 175.528 234.25C175.528 232.91 176.268 232.2 177.268 232.2C178.078 232.2 178.628 232.62 178.818 233.28H179.798C179.518 232.13 178.628 231.43 177.268 231.43C175.708 231.43 174.598 232.53 174.598 234.25ZM180.672 234.24C180.672 235.94 181.802 237.09 183.262 237.09C184.272 237.09 184.982 236.57 185.312 235.98V237H186.232V231.52H185.312V232.52C184.992 231.95 184.292 231.43 183.272 231.43C181.802 231.43 180.672 232.53 180.672 234.24ZM185.312 234.25C185.312 235.54 184.452 236.29 183.452 236.29C182.452 236.29 181.602 235.53 181.602 234.24C181.602 232.95 182.452 232.22 183.452 232.22C184.452 232.22 185.312 232.98 185.312 234.25ZM187.97 235.5C187.97 236.6 188.52 237 189.49 237H190.31V236.23H189.64C189.08 236.23 188.88 236.04 188.88 235.5V232.27H190.31V231.52H188.88V230.14H187.97V231.52H187.26V232.27H187.97V235.5ZM191.413 237H192.323V231.52H191.413V237ZM191.883 230.63C192.213 230.63 192.483 230.36 192.483 230.01C192.483 229.66 192.213 229.39 191.883 229.39C191.533 229.39 191.263 229.66 191.263 230.01C191.263 230.36 191.533 230.63 191.883 230.63ZM199.074 234.25C199.074 232.52 197.864 231.43 196.304 231.43C194.754 231.43 193.534 232.52 193.534 234.25C193.534 235.99 194.714 237.09 196.264 237.09C197.824 237.09 199.074 235.99 199.074 234.25ZM194.464 234.25C194.464 232.87 195.334 232.22 196.294 232.22C197.234 232.22 198.144 232.87 198.144 234.25C198.144 235.64 197.214 236.29 196.264 236.29C195.314 236.29 194.464 235.64 194.464 234.25ZM204.28 237H205.18V233.77C205.18 232.2 204.21 231.42 202.94 231.42C202.2 231.42 201.54 231.73 201.18 232.3V231.52H200.27V237H201.18V233.97C201.18 232.79 201.82 232.21 202.75 232.21C203.67 232.21 204.28 232.78 204.28 233.9V237ZM206.426 238.7H207.326L210.066 227.58H209.156L206.426 238.7ZM211.082 234.24C211.082 235.94 212.212 237.09 213.672 237.09C214.682 237.09 215.392 236.57 215.722 235.98V237H216.642V231.52H215.722V232.52C215.402 231.95 214.702 231.43 213.682 231.43C212.212 231.43 211.082 232.53 211.082 234.24ZM215.722 234.25C215.722 235.54 214.862 236.29 213.862 236.29C212.862 236.29 212.012 235.53 212.012 234.24C212.012 232.95 212.862 232.22 213.862 232.22C214.862 232.22 215.722 232.98 215.722 234.25ZM226.09 237H226.99V233.77C226.99 232.2 226.02 231.42 224.77 231.42C223.93 231.42 223.15 231.85 222.83 232.64C222.47 231.82 221.72 231.42 220.82 231.42C220.1 231.42 219.45 231.73 219.09 232.31V231.52H218.18V237H219.09V233.98C219.09 232.8 219.72 232.21 220.64 232.21C221.54 232.21 222.14 232.78 222.14 233.9V237H223.04V233.98C223.04 232.8 223.67 232.21 224.59 232.21C225.49 232.21 226.09 232.78 226.09 233.9V237ZM229.393 232.53V231.52H228.483V239.6H229.393V235.99C229.733 236.55 230.443 237.09 231.443 237.09C232.913 237.09 234.043 235.94 234.043 234.24C234.043 232.53 232.913 231.43 231.443 231.43C230.443 231.43 229.723 231.95 229.393 232.53ZM233.113 234.24C233.113 235.53 232.263 236.29 231.253 236.29C230.263 236.29 229.393 235.54 229.393 234.25C229.393 232.98 230.263 232.22 231.253 232.22C232.263 232.22 233.113 232.95 233.113 234.24ZM235.241 237H236.151V229.6H235.241V237ZM237.702 237H238.612V231.52H237.702V237ZM238.172 230.63C238.502 230.63 238.772 230.36 238.772 230.01C238.772 229.66 238.502 229.39 238.172 229.39C237.822 229.39 237.552 229.66 237.552 230.01C237.552 230.36 237.822 230.63 238.172 230.63ZM239.823 234.25C239.823 235.99 240.933 237.09 242.493 237.09C243.853 237.09 244.743 236.33 245.023 235.24H244.043C243.843 235.93 243.303 236.32 242.493 236.32C241.493 236.32 240.753 235.61 240.753 234.25C240.753 232.91 241.493 232.2 242.493 232.2C243.303 232.2 243.853 232.62 244.043 233.28H245.023C244.743 232.13 243.853 231.43 242.493 231.43C240.933 231.43 239.823 232.53 239.823 234.25ZM245.897 234.24C245.897 235.94 247.027 237.09 248.487 237.09C249.497 237.09 250.207 236.57 250.537 235.98V237H251.457V231.52H250.537V232.52C250.217 231.95 249.517 231.43 248.497 231.43C247.027 231.43 245.897 232.53 245.897 234.24ZM250.537 234.25C250.537 235.54 249.677 236.29 248.677 236.29C247.677 236.29 246.827 235.53 246.827 234.24C246.827 232.95 247.677 232.22 248.677 232.22C249.677 232.22 250.537 232.98 250.537 234.25ZM252.655 234.25C252.655 235.99 253.765 237.09 255.325 237.09C256.685 237.09 257.575 236.33 257.855 235.24H256.875C256.675 235.93 256.135 236.32 255.325 236.32C254.325 236.32 253.585 235.61 253.585 234.25C253.585 232.91 254.325 232.2 255.325 232.2C256.135 232.2 256.685 232.62 256.875 233.28H257.855C257.575 232.13 256.685 231.43 255.325 231.43C253.765 231.43 252.655 232.53 252.655 234.25ZM259.269 235.5C259.269 236.6 259.819 237 260.789 237H261.609V236.23H260.939C260.379 236.23 260.179 236.04 260.179 235.5V232.27H261.609V231.52H260.179V230.14H259.269V231.52H258.559V232.27H259.269V235.5ZM262.711 237H263.621V231.52H262.711V237ZM263.181 230.63C263.511 230.63 263.781 230.36 263.781 230.01C263.781 229.66 263.511 229.39 263.181 229.39C262.831 229.39 262.561 229.66 262.561 230.01C262.561 230.36 262.831 230.63 263.181 230.63ZM270.372 234.25C270.372 232.52 269.162 231.43 267.602 231.43C266.052 231.43 264.832 232.52 264.832 234.25C264.832 235.99 266.012 237.09 267.562 237.09C269.122 237.09 270.372 235.99 270.372 234.25ZM265.762 234.25C265.762 232.87 266.632 232.22 267.592 232.22C268.532 232.22 269.442 232.87 269.442 234.25C269.442 235.64 268.512 236.29 267.562 236.29C266.612 236.29 265.762 235.64 265.762 234.25ZM275.579 237H276.479V233.77C276.479 232.2 275.509 231.42 274.239 231.42C273.499 231.42 272.839 231.73 272.479 232.3V231.52H271.569V237H272.479V233.97C272.479 232.79 273.119 232.21 274.049 232.21C274.969 232.21 275.579 232.78 275.579 233.9V237Z" fill="#A3A8B8"/>
<path d="M50.3203 238H277.199V238.5H50.3203V238Z" fill="#A3A8B8"/>
<rect x="40" y="266" width="621" height="64" rx="4" fill="#373D57"/>
<rect x="52" y="278" width="203" height="16" rx="4" fill="#444B66"/>
<rect x="52" y="302" width="290" height="16" rx="4" fill="#444B66"/>
<rect x="40" y="346" width="621" height="64" rx="4" fill="#373D57"/>
<rect x="52" y="358" width="203" height="16" rx="4" fill="#444B66"/>
<rect x="52" y="382" width="290" height="16" rx="4" fill="#444B66"/>
<g filter="url(#filter0_i)">
<rect x="224" y="112" width="73" height="35" rx="17.5" fill="#7950ED"/>
</g>
<rect x="224" y="112" width="73" height="35" rx="17.5" stroke="#7950ED"/>
<g filter="url(#filter1_d)">
<rect x="266.264" y="115.889" width="26.8947" height="27.2222" rx="13.4474" fill="white"/>
</g>
<path d="M324.54 132.58C324.54 127.936 317.772 129.952 317.772 126.712C317.772 125.362 318.834 124.66 320.184 124.696C321.714 124.714 322.506 125.668 322.614 126.514H324.414C324.216 124.606 322.65 123.292 320.256 123.292C317.772 123.292 316.098 124.696 316.098 126.766C316.098 131.428 322.884 129.268 322.884 132.652C322.884 133.84 321.948 134.74 320.364 134.74C318.618 134.74 317.88 133.696 317.772 132.652H316.026C316.062 134.722 317.844 136.126 320.364 136.126C323.082 136.126 324.54 134.362 324.54 132.58ZM330.694 134.128L327.598 126.136H325.78L329.758 135.892L327.814 140.644H329.506L335.446 126.136H333.754L330.694 134.128ZM344.311 136H345.931V130.186C345.931 127.36 344.185 125.956 341.899 125.956C340.567 125.956 339.379 126.514 338.731 127.54V126.136H337.093V136H338.731V130.546C338.731 128.422 339.883 127.378 341.557 127.378C343.213 127.378 344.311 128.404 344.311 130.42V136ZM347.995 131.05C347.995 134.182 349.993 136.162 352.801 136.162C355.249 136.162 356.851 134.794 357.355 132.832H355.591C355.231 134.074 354.259 134.776 352.801 134.776C351.001 134.776 349.669 133.498 349.669 131.05C349.669 128.638 351.001 127.36 352.801 127.36C354.259 127.36 355.249 128.116 355.591 129.304H357.355C356.851 127.234 355.249 125.974 352.801 125.974C349.993 125.974 347.995 127.954 347.995 131.05ZM366.265 136H367.957L370.333 128.17L372.709 136H374.401L377.479 126.136H375.859L373.627 134.434L371.233 126.136H369.559L367.111 134.416L364.843 126.136H363.169L366.265 136ZM379.105 136H380.743V126.136H379.105V136ZM379.951 124.534C380.545 124.534 381.031 124.048 381.031 123.418C381.031 122.788 380.545 122.302 379.951 122.302C379.321 122.302 378.835 122.788 378.835 123.418C378.835 124.048 379.321 124.534 379.951 124.534ZM383.894 133.3C383.894 135.28 384.884 136 386.63 136H388.106V134.614H386.9C385.892 134.614 385.532 134.272 385.532 133.3V127.486H388.106V126.136H385.532V123.652H383.894V126.136H382.616V127.486H383.894V133.3ZM390.091 136H391.729V130.546C391.729 128.422 392.881 127.378 394.555 127.378C396.211 127.378 397.309 128.404 397.309 130.42V136H398.929V130.186C398.929 127.36 397.183 125.956 394.987 125.956C393.601 125.956 392.377 126.514 391.729 127.558V122.68H390.091V136ZM412.092 123.31C408.564 123.31 405.792 125.956 405.792 129.718C405.792 133.48 408.564 136.108 412.092 136.108C415.494 136.108 417.96 133.606 418.248 130.492V129.232H411.498V130.564H416.502C416.25 133.048 414.558 134.632 412.092 134.632C409.446 134.632 407.466 132.724 407.466 129.718C407.466 126.694 409.446 124.786 412.092 124.786C413.856 124.786 415.224 125.632 415.908 127.09H417.87C416.934 124.678 414.738 123.31 412.092 123.31ZM420.413 136H422.051V126.136H420.413V136ZM421.259 124.534C421.853 124.534 422.339 124.048 422.339 123.418C422.339 122.788 421.853 122.302 421.259 122.302C420.629 122.302 420.143 122.788 420.143 123.418C420.143 124.048 420.629 124.534 421.259 124.534ZM425.203 133.3C425.203 135.28 426.193 136 427.939 136H429.415V134.614H428.209C427.201 134.614 426.841 134.272 426.841 133.3V127.486H429.415V126.136H426.841V123.652H425.203V126.136H423.925V127.486H425.203V133.3ZM439.428 136H441.066V123.454H439.428V128.962H433.038V123.454H431.4V136H433.038V130.312H439.428V136ZM452.593 126.136H450.955V131.554C450.955 133.678 449.821 134.722 448.129 134.722C446.473 134.722 445.375 133.696 445.375 131.698V126.136H443.755V131.914C443.755 134.74 445.537 136.144 447.805 136.144C449.119 136.144 450.325 135.568 450.955 134.542V136H452.593V126.136ZM456.997 127.972V122.68H455.359V136H456.997V134.182C457.609 135.262 458.887 136.162 460.687 136.162C463.333 136.162 465.367 134.092 465.367 131.032C465.367 127.954 463.351 125.974 460.687 125.974C458.941 125.974 457.627 126.874 456.997 127.972ZM463.693 131.032C463.693 133.354 462.163 134.722 460.345 134.722C458.563 134.722 456.997 133.372 456.997 131.05C456.997 128.764 458.563 127.396 460.345 127.396C462.163 127.396 463.693 128.71 463.693 131.032Z" fill="#A3A8B8"/>
<defs>
<filter id="filter0_i" x="223.5" y="111.5" width="74" height="38" filterUnits="userSpaceOnUse" color-interpolation-filters="sRGB">
<feFlood flood-opacity="0" result="BackgroundImageFix"/>
<feBlend mode="normal" in="SourceGraphic" in2="BackgroundImageFix" result="shape"/>
<feColorMatrix in="SourceAlpha" type="matrix" values="0 0 0 0 0 0 0 0 0 0 0 0 0 0 0 0 0 0 127 0" result="hardAlpha"/>
<feOffset dy="2"/>
<feGaussianBlur stdDeviation="1"/>
<feComposite in2="hardAlpha" operator="arithmetic" k2="-1" k3="1"/>
<feColorMatrix type="matrix" values="0 0 0 0 0.119145 0 0 0 0 0.0569014 0 0 0 0 0.295247 0 0 0 0.29 0"/>
<feBlend mode="normal" in2="shape" result="effect1_innerShadow"/>
</filter>
<filter id="filter1_d" x="246.264" y="99.8887" width="66.8947" height="67.2222" filterUnits="userSpaceOnUse" color-interpolation-filters="sRGB">
<feFlood flood-opacity="0" result="BackgroundImageFix"/>
<feColorMatrix in="SourceAlpha" type="matrix" values="0 0 0 0 0 0 0 0 0 0 0 0 0 0 0 0 0 0 127 0"/>
<feOffset dy="4"/>
<feGaussianBlur stdDeviation="10"/>
<feColorMatrix type="matrix" values="0 0 0 0 0.177453 0 0 0 0 0.0798565 0 0 0 0 0.453581 0 0 0 0.38 0"/>
<feBlend mode="normal" in2="BackgroundImageFix" result="effect1_dropShadow"/>
<feBlend mode="normal" in="SourceGraphic" in2="effect1_dropShadow" result="shape"/>
</filter>
</defs>
</svg>
