<svg width="56" height="56" viewBox="0 0 56 56" fill="none" xmlns="http://www.w3.org/2000/svg">
<g clip-path="url(#clip0)">
<path d="M51.7584 8.7924L51.7585 8.79244L51.7654 8.79135C52.9054 8.61201 54.061 8.74867 55.2406 9.21524C55.0751 11.308 54.4932 13.0649 53.2062 14.3496C52.2975 15.2495 51.2639 15.8835 50.1006 16.3042C49.8194 16.4049 49.543 16.4891 49.2465 16.5793C49.0888 16.6273 48.9253 16.6771 48.7524 16.732L48.4127 16.8399L48.4039 17.1963C48.4016 17.2929 48.397 17.383 48.3923 17.4759L48.3916 17.4887C48.3869 17.5818 48.382 17.6802 48.3807 17.7794C48.2254 21.975 47.5083 25.9643 46.1107 29.6849C44.8751 32.9466 43.1685 35.8225 41.0323 38.3033C38.8952 40.7852 36.4383 42.7681 33.7159 44.3407L33.7144 44.3416C32.2383 45.2012 30.7322 45.9445 29.1529 46.5343L29.1245 46.5449L29.0976 46.5589C29.0008 46.609 28.9135 46.6719 28.8498 46.7199L28.8425 46.7222L28.835 46.7246L28.8276 46.727L28.8201 46.7293L28.8126 46.7317L28.8052 46.7341L28.7977 46.7364L28.7903 46.7388L28.7828 46.7412L28.7754 46.7435L28.7679 46.7459L28.7604 46.7483L28.753 46.7506L28.7455 46.753L28.7381 46.7554L28.7306 46.7578L28.7232 46.7601L28.7157 46.7625L28.7082 46.7649L28.7008 46.7672L28.6933 46.7696L28.6859 46.772L28.6784 46.7743L28.6709 46.7767L28.6635 46.7791L28.656 46.7814L28.6486 46.7838L28.6411 46.7862L28.6336 46.7886L28.6262 46.7909L28.6187 46.7933L28.6112 46.7957L28.6038 46.798L28.5963 46.8004L28.5889 46.8028L28.5814 46.8051L28.5739 46.8075L28.5665 46.8099L28.559 46.8123L28.5515 46.8146L28.5441 46.817L28.5366 46.8194L28.5291 46.8217L28.5217 46.8241L28.5142 46.8265L28.5067 46.8289L28.4993 46.8312L28.4918 46.8336L28.4843 46.836L28.4769 46.8383L28.4694 46.8407L28.4619 46.8431L28.4545 46.8455L28.447 46.8478L28.4395 46.8502L28.4321 46.8526L28.4246 46.8549L28.4171 46.8573L28.4097 46.8597L28.4022 46.8621L28.3947 46.8644L28.3873 46.8668L28.3798 46.8692L28.3723 46.8715L28.3648 46.8739L28.3574 46.8763L28.3499 46.8787L28.3424 46.881L28.335 46.8834L28.3275 46.8858L28.32 46.8882L28.3125 46.8905L28.3051 46.8929L28.2976 46.8953L28.2901 46.8977L28.2827 46.9L28.2752 46.9024L28.2677 46.9048L28.2602 46.9071L28.2528 46.9095L28.2453 46.9119L28.2378 46.9143L28.2303 46.9166L28.2229 46.919L28.2154 46.9214L28.2079 46.9238L28.2004 46.9261L28.193 46.9285L28.1855 46.9309L28.178 46.9333L28.1705 46.9356L28.1631 46.938L28.1556 46.9404L28.1481 46.9428L28.1406 46.9451L28.1332 46.9475L28.1257 46.9499L28.1182 46.9523L28.1107 46.9546L28.1033 46.957L28.0958 46.9594L28.0883 46.9618L28.0808 46.9641L28.0733 46.9665L28.0659 46.9689L28.0584 46.9713L28.0509 46.9736L28.0434 46.976L28.0359 46.9784L28.0285 46.9808L28.021 46.9831L28.0135 46.9855L28.006 46.9879L27.9986 46.9903L27.9911 46.9926L27.9836 46.995L27.9761 46.9974L27.9686 46.9998L27.9612 47.0021L27.9537 47.0045L27.9462 47.0069L27.9387 47.0093L27.9312 47.0116L27.9237 47.014L27.9163 47.0164L27.9088 47.0188L27.9013 47.0211L27.8938 47.0235L27.8863 47.0259L27.8789 47.0283L27.8714 47.0307L27.8639 47.033L27.8564 47.0354L27.8489 47.0378L27.8414 47.0402L27.834 47.0425L27.8265 47.0449L27.819 47.0473L27.8115 47.0497L27.804 47.052L27.7965 47.0544L27.7891 47.0568L27.7816 47.0592L27.7741 47.0615L27.7666 47.0639L27.7591 47.0663L27.7516 47.0687L27.7442 47.0711L27.7367 47.0734L27.7292 47.0758L27.7217 47.0782L27.7142 47.0806L27.7067 47.0829L27.6992 47.0853L27.6918 47.0877L27.6843 47.0901L27.6768 47.0925L27.6693 47.0948L27.6618 47.0972L27.6543 47.0996L27.6469 47.102L27.6394 47.1043L27.6319 47.1067L27.6244 47.1091L27.6169 47.1115L27.6094 47.1138L27.6019 47.1162L27.5944 47.1186L27.587 47.121L27.5795 47.1234L27.572 47.1257L27.5645 47.1281L27.557 47.1305L27.5495 47.1329L27.542 47.1353L27.5346 47.1376L27.5271 47.14L27.5196 47.1424L27.5121 47.1448L27.5046 47.1471L27.4971 47.1495L27.4896 47.1519L27.4821 47.1543L27.4747 47.1567L27.4672 47.159L27.4597 47.1614L27.4522 47.1638L27.4447 47.1662L27.4372 47.1685L27.4297 47.1709L27.4222 47.1733L27.4147 47.1757L27.4073 47.1781L27.3998 47.1804L27.3923 47.1828L27.3848 47.1852L27.3773 47.1876L27.3698 47.1899L27.3623 47.1923L27.3548 47.1947L27.3473 47.1971L27.3399 47.1995L27.3324 47.2018L27.3249 47.2042L27.3174 47.2066L27.3099 47.209L27.3024 47.2114L27.2949 47.2137L27.2874 47.2161L27.2799 47.2185L27.2725 47.2209L27.265 47.2233L27.2575 47.2256L27.25 47.228L27.2425 47.2304L27.235 47.2328L27.2275 47.2351L27.22 47.2375L27.2125 47.2399L27.205 47.2423L27.1976 47.2447L27.1901 47.247L27.1826 47.2494L27.1751 47.2518L27.1676 47.2542L27.1601 47.2566L27.1526 47.2589L27.1451 47.2613L27.1376 47.2637L27.1301 47.2661L27.1227 47.2684L27.1152 47.2708L27.1077 47.2732L27.1002 47.2756L27.0927 47.278L27.0852 47.2803L27.0777 47.2827L27.0702 47.2851L27.0627 47.2875L27.0553 47.2899L27.0478 47.2922L27.0403 47.2946L27.0328 47.297L27.0253 47.2994L27.0178 47.3018L27.0103 47.3041L27.0028 47.3065L26.9953 47.3089L26.9878 47.3113L26.9803 47.3136L26.9729 47.316L26.9654 47.3184L26.9579 47.3208L26.9504 47.3232L26.9429 47.3255L26.9354 47.3279L26.9279 47.3303L26.9204 47.3327L26.9129 47.3351L26.9054 47.3374L26.898 47.3398L26.8905 47.3422L26.883 47.3446L26.8755 47.347L26.868 47.3493L26.8605 47.3517L26.853 47.3541L26.8455 47.3565L26.838 47.3588L26.8305 47.3612L26.8231 47.3636L26.8156 47.366L26.8081 47.3684L26.8006 47.3707L26.7931 47.3731L26.7856 47.3755L26.7781 47.3779L26.7706 47.3803L26.7631 47.3826L26.7557 47.385L26.7482 47.3874L26.7407 47.3898L26.7332 47.3921L26.7257 47.3945L26.7182 47.3969L26.7107 47.3993L26.7032 47.4017L26.6957 47.404L26.6883 47.4064L26.6808 47.4088L26.6733 47.4112L26.6658 47.4136L26.6583 47.4159L26.6508 47.4183L26.6433 47.4207L26.6358 47.4231L26.6283 47.4254L26.6209 47.4278L26.6134 47.4302L26.6059 47.4326L26.5984 47.435L26.5909 47.4373L26.5834 47.4397L26.5759 47.4421L26.5684 47.4445L26.5609 47.4469L26.5535 47.4492L26.546 47.4516L26.5385 47.454L26.531 47.4564L26.5235 47.4587L26.516 47.4611L26.5085 47.4635L26.501 47.4659L26.4936 47.4683L26.4861 47.4706L26.4786 47.473L26.4711 47.4754L26.4636 47.4778L26.4561 47.4801L26.4486 47.4825L26.4412 47.4849L26.4337 47.4873L26.4262 47.4897L26.4187 47.492L26.4112 47.4944L26.4037 47.4968L26.3962 47.4992L26.3887 47.5015L26.3813 47.5039L26.3738 47.5063L26.3663 47.5087L26.3588 47.5111L26.3513 47.5134L26.3438 47.5158L26.3364 47.5182L26.3289 47.5206L26.3214 47.5229L26.3139 47.5253L26.3064 47.5277L26.2989 47.5301L26.2914 47.5324L26.284 47.5348L26.2765 47.5372L26.269 47.5396L26.2615 47.542L26.254 47.5443L26.2465 47.5467L26.2391 47.5491L26.2316 47.5515L26.2241 47.5538L26.2166 47.5562L26.2091 47.5586L26.2016 47.561L26.1942 47.5633L26.1867 47.5657L26.1792 47.5681L26.1717 47.5705L26.1642 47.5729L26.1567 47.5752L26.1493 47.5776L26.1418 47.58L26.1343 47.5824L26.1268 47.5847L26.1193 47.5871L26.1119 47.5895L26.1044 47.5919L26.0969 47.5942L26.0894 47.5966L26.0819 47.599L26.0744 47.6014L26.067 47.6037L26.0595 47.6061L26.052 47.6085L26.0445 47.6109L26.037 47.6132L26.0296 47.6156L26.0221 47.618L26.0146 47.6204L26.0071 47.6227L25.9996 47.6251L25.9922 47.6275L25.9847 47.6299L25.9772 47.6322L25.9697 47.6346L25.9623 47.637L25.9548 47.6394L25.9473 47.6417L25.9398 47.6441L25.9323 47.6465L25.9249 47.6489L25.9174 47.6512L25.9099 47.6536L25.9024 47.656L25.895 47.6584L25.8875 47.6607L25.88 47.6631L25.8725 47.6655L25.8651 47.6679L25.8576 47.6702L25.8501 47.6726L25.8426 47.675L25.8352 47.6774L25.8277 47.6797L25.8202 47.6821L25.8127 47.6845L25.8053 47.6869L25.7978 47.6892L25.7903 47.6916L25.7828 47.694L25.7754 47.6964L25.7679 47.6987L25.7604 47.7011L25.7529 47.7035L25.7455 47.7059L25.738 47.7082L25.7305 47.7106L25.7231 47.713L25.7156 47.7153L25.7081 47.7177L25.7006 47.7201L25.6932 47.7225L25.6857 47.7248L25.6782 47.7272L25.6708 47.7296L25.6633 47.732L25.6558 47.7343L25.6483 47.7367L25.6409 47.7391L25.6334 47.7414L25.6259 47.7438L25.6185 47.7462L25.611 47.7486L25.6035 47.7509L25.5961 47.7533L25.5886 47.7557L25.5811 47.758L25.5737 47.7604L25.5662 47.7628L25.5587 47.7652L25.5513 47.7675L25.5438 47.7699L25.5363 47.7723L25.5289 47.7746L25.5214 47.777L25.5139 47.7794L25.5065 47.7818L25.499 47.7841L25.4915 47.7865L25.4841 47.7889L25.4766 47.7912L25.4691 47.7936L25.4617 47.796L25.4542 47.7984L25.4467 47.8007L25.4393 47.8031L25.4318 47.8055L25.4244 47.8078L25.4169 47.8102L25.4094 47.8126L25.402 47.8149L25.3945 47.8173L25.387 47.8197L25.3796 47.8221L25.3721 47.8244L25.3647 47.8268L25.3572 47.8292L25.3497 47.8315L25.3423 47.8339L25.3348 47.8363L25.3274 47.8386L25.3199 47.841L25.3124 47.8434L25.305 47.8458L25.2975 47.8481L25.2901 47.8505L25.2826 47.8529L25.2752 47.8552L25.2677 47.8576L25.2602 47.86L25.2528 47.8623L25.2453 47.8647L25.2379 47.8671L25.2304 47.8694L25.223 47.8718L25.2155 47.8742L25.208 47.8765L25.2006 47.8789L25.1931 47.8813L25.1857 47.8836L25.1782 47.886L25.1708 47.8884L25.1633 47.8907L25.1559 47.8931L25.1484 47.8955L25.1431 47.8972C24.7424 47.9548 24.323 48.0176 23.9189 48.0924C20.5898 48.6755 17.2602 48.4374 13.9116 47.0526C11.6915 46.1292 9.63796 44.7693 7.83809 42.8893C6.36938 41.3444 5.09451 39.6094 4.16625 37.5973L4.16585 37.5964C3.69643 36.584 3.25616 35.5679 2.87037 34.5379L2.86906 34.5345C2.49991 33.5706 2.27954 32.5493 2.10315 31.4634L2.10328 31.4634L2.10424 31.4631L2.1052 31.4628L2.10616 31.4625L2.10712 31.4622L2.10807 31.4619L2.10903 31.4615L2.10999 31.4612L2.11095 31.4609L2.1119 31.4606L2.11286 31.4603L2.11382 31.46L2.11478 31.4597L2.11573 31.4594L2.11669 31.4591L2.11765 31.4588L2.1186 31.4585L2.11956 31.4582L2.12052 31.4579L2.12147 31.4576L2.12243 31.4573L2.12338 31.457L2.12434 31.4567L2.1253 31.4564L2.12625 31.4561L2.12721 31.4558L2.12816 31.4555L2.12912 31.4552L2.13007 31.4549L2.13103 31.4546L2.13198 31.4543L2.13294 31.454L2.13389 31.4537L2.13485 31.4533L2.1358 31.453L2.13676 31.4527L2.13771 31.4524L2.13867 31.4521L2.13962 31.4518L2.14057 31.4515L2.14153 31.4512L2.14248 31.4509L2.14344 31.4506L2.14439 31.4503L2.14534 31.45L2.1463 31.4497L2.14725 31.4494L2.1482 31.4491L2.14916 31.4488L2.15011 31.4485L2.15107 31.4482L2.15202 31.4479L2.15297 31.4476L2.15392 31.4473L2.15488 31.447L2.15583 31.4467L2.15678 31.4464L2.15774 31.4461L2.15869 31.4458L2.15964 31.4455L2.16059 31.4452L2.16155 31.4449L2.1625 31.4446L2.16345 31.4443L2.1644 31.444L2.16536 31.4437L2.16631 31.4434L2.16726 31.4431L2.16821 31.4428L2.16917 31.4424L2.17012 31.4421L2.17107 31.4418L2.17202 31.4415L2.17297 31.4412L2.17393 31.4409L2.17488 31.4406L2.17583 31.4403L2.17678 31.44L2.17773 31.4397L2.17869 31.4394L2.17964 31.4391L2.18059 31.4388L2.18154 31.4385L2.18249 31.4382L2.18344 31.4379L2.1844 31.4376L2.18535 31.4373L2.1863 31.437L2.18725 31.4367L2.1882 31.4364L2.18915 31.4361L2.1901 31.4358L2.19106 31.4355L2.19201 31.4352L2.19296 31.4349L2.19391 31.4346L2.19486 31.4343L2.19581 31.434L2.19676 31.4337L2.19771 31.4334L2.19866 31.4331L2.19962 31.4328L2.20057 31.4325L2.20152 31.4322L2.20247 31.4319L2.20342 31.4316L2.20437 31.4313L2.20532 31.431L2.20627 31.4307L2.20723 31.4304L2.20818 31.4301L2.27975 31.4073L2.35132 31.3846L2.42289 31.3619L2.49447 31.3391L2.56604 31.3164L2.63762 31.2937L2.70919 31.2709L2.78076 31.2482L2.85234 31.2255L2.92391 31.2027L2.99549 31.18L3.06707 31.1573L3.13864 31.1345L3.21022 31.1118L3.2818 31.0891L3.35337 31.0663L3.42495 31.0436L3.49653 31.0209L3.56811 30.9981L3.63968 30.9754L3.71126 30.9527L3.78284 30.9299L3.85442 30.9072L3.926 30.8845L3.99758 30.8617L4.06916 30.839L4.14074 30.8163L4.21232 30.7935L4.2839 30.7708L4.35548 30.7481L4.42706 30.7253L4.49864 30.7026L4.57022 30.6799L4.64181 30.6571L4.71339 30.6344L4.78497 30.6117L4.85655 30.5889L4.92814 30.5662L4.99972 30.5434L5.0713 30.5207L5.14289 30.498L5.21447 30.4752L5.28606 30.4525L5.35764 30.4298L5.42923 30.407L5.50081 30.3843L5.5724 30.3616L5.64398 30.3388L5.71557 30.3161L5.78715 30.2934L5.85874 30.2706L5.93033 30.2479L6.00191 30.2251L6.0735 30.2024L6.14509 30.1797L6.21668 30.1569L6.28826 30.1342L6.35985 30.1115L6.43144 30.0887L6.50303 30.066L6.57462 30.0433L6.64621 30.0205L6.7178 29.9978L6.78939 29.975L6.86098 29.9523L6.93257 29.9296L7.00416 29.9068L7.07575 29.8841L7.14734 29.8614L7.21893 29.8386L7.29052 29.8159L7.36211 29.7931L7.4337 29.7704L7.50529 29.7477L7.57689 29.7249L7.64848 29.7022L7.72007 29.6795L7.79166 29.6567L7.86326 29.634L7.93485 29.6112L8.00644 29.5885L8.07804 29.5658L8.14963 29.543L8.22122 29.5203L8.29282 29.4975L8.36441 29.4748L8.43601 29.4521L8.5076 29.4293L8.5792 29.4066L8.65079 29.3838L8.72239 29.3611L8.79398 29.3384L8.86558 29.3156L8.93717 29.2929L9.00877 29.2702L9.08037 29.2474L9.15196 29.2247L9.22356 29.2019L9.29516 29.1792L9.36675 29.1565L9.43835 29.1337L9.50995 29.111L9.58155 29.0882L9.65314 29.0655L9.72474 29.0428L9.79634 29.02L9.86794 28.9973L9.93954 28.9745L10.0111 28.9518L10.0827 28.9291L10.1543 28.9063L10.2259 28.8836L10.2975 28.8608L10.3691 28.8381L10.4407 28.8154L10.5123 28.7926L10.5839 28.7699L10.6555 28.7471L10.7271 28.7244L10.7987 28.7017L10.8703 28.6789L10.9419 28.6562L11.0135 28.6334L11.0851 28.6107L11.1567 28.5879L11.2283 28.5652L11.2999 28.5425L11.3715 28.5197L11.4431 28.497L11.5148 28.4742L11.5864 28.4515L11.658 28.4288L11.7296 28.406L11.8012 28.3833L11.8728 28.3605L11.9444 28.3378L12.016 28.3151L12.0876 28.2923L12.1592 28.2696L12.2308 28.2468L12.3024 28.2241L12.374 28.2013L12.4456 28.1786L12.5172 28.1559L12.5888 28.1331L12.6604 28.1104L12.732 28.0876L12.8036 28.0649L12.8752 28.0421L12.9468 28.0194L13.0184 27.9967L13.09 27.9739L13.1616 27.9512L13.2332 27.9284L13.3049 27.9057L13.3765 27.883L13.4481 27.8602L13.5197 27.8375L13.5913 27.8147L13.6629 27.792L13.7345 27.7692L13.8061 27.7465L13.8777 27.7238L13.9493 27.701L14.0209 27.6783L14.0925 27.6555L14.1641 27.6328L14.2357 27.61L14.3073 27.5873L14.379 27.5646L14.4506 27.5418L14.5222 27.5191L14.5938 27.4963L14.6654 27.4736L14.737 27.4508L14.8086 27.4281L14.8802 27.4054L14.9518 27.3826L15.0234 27.3599L15.095 27.3371L15.1666 27.3144L15.2383 27.2916L15.3099 27.2689L15.3815 27.2462L15.4531 27.2234L15.5247 27.2007L15.5963 27.1779L15.6679 27.1552L15.7395 27.1324L15.8111 27.1097L15.8827 27.0869L15.9543 27.0642L16.0259 27.0415L16.0976 27.0187L16.1692 26.996L16.2408 26.9732L16.3124 26.9505L16.384 26.9277L16.4556 26.905L16.5272 26.8823L16.5988 26.8595L16.6704 26.8368L16.742 26.814L16.8137 26.7913L16.8853 26.7685L16.9569 26.7458L17.0285 26.723L17.1001 26.7003L17.1717 26.6776L17.2433 26.6548L17.3149 26.6321L17.3865 26.6093L17.4582 26.5866L17.5298 26.5638L17.6014 26.5411L17.673 26.5184L17.7446 26.4956L17.8162 26.4729L17.8878 26.4501L17.9594 26.4274L18.031 26.4046L18.1027 26.3819L18.1743 26.3591L18.2459 26.3364L18.3175 26.3137L18.3891 26.2909L18.4607 26.2682L18.5323 26.2454L18.6039 26.2227L18.6755 26.1999L18.7472 26.1772L18.8188 26.1544L18.8904 26.1317L18.962 26.109L19.0336 26.0862L19.1052 26.0635L19.1768 26.0407L19.2484 26.018L19.32 25.9952L19.3917 25.9725L19.4633 25.9497L19.5349 25.927L19.6065 25.9043L19.6781 25.8815L19.7497 25.8588L19.8213 25.836L19.8929 25.8133L19.9646 25.7905L20.0362 25.7678L20.1078 25.745L20.1794 25.7223L20.251 25.6996L20.3226 25.6768L20.3942 25.6541L20.4658 25.6313L20.5375 25.6086L20.6091 25.5858L20.6807 25.5631L20.7523 25.5403L20.8239 25.5176L20.8955 25.4949L20.9671 25.4721L21.0387 25.4494L21.1103 25.4266L21.182 25.4039L21.2536 25.3811L21.3252 25.3584L21.3968 25.3357L21.4684 25.3129L21.54 25.2902L21.6116 25.2674L21.6832 25.2447L21.7549 25.2219L21.8265 25.1992L21.8981 25.1764L21.9697 25.1537L22.0413 25.131L22.1129 25.1082L22.1845 25.0855L22.2561 25.0627L22.3277 25.04L22.3994 25.0172L22.471 24.9945L22.5426 24.9717L22.6142 24.949L22.6858 24.9263L22.7574 24.9035L22.829 24.8808L22.9006 24.858L22.9722 24.8353L23.0439 24.8125L23.1155 24.7898L23.1871 24.767L23.2587 24.7443L23.3303 24.7216L23.4019 24.6988L23.4735 24.6761L23.5451 24.6533L23.6167 24.6306L23.6884 24.6078L23.76 24.5851L23.8316 24.5623L23.9032 24.5396L23.9748 24.5169L24.0464 24.4941L24.118 24.4714L24.1896 24.4486L24.2612 24.4259L24.3329 24.4031L24.4045 24.3804L24.4761 24.3577L24.5477 24.3349L24.6193 24.3122L24.6909 24.2894L24.7625 24.2667L24.8341 24.2439L24.9057 24.2212L24.9773 24.1984L25.049 24.1757L25.1206 24.153L25.1922 24.1302L25.2638 24.1075L25.3354 24.0847L25.407 24.062L25.4786 24.0392L25.5502 24.0165L25.6218 23.9938L25.6934 23.971L25.765 23.9483L25.8367 23.9255L25.9083 23.9028L25.9799 23.88L26.0515 23.8573L26.1231 23.8346L26.1947 23.8118L26.2663 23.7891L26.3379 23.7663L26.4095 23.7436L26.4811 23.7208L26.5527 23.6981L26.6243 23.6754L26.6959 23.6526L26.7676 23.6299L26.8392 23.6071L26.9108 23.5844L26.9824 23.5616L27.054 23.5389L27.1256 23.5162L27.1972 23.4934L27.2688 23.4707L27.3404 23.4479L27.412 23.4252L27.4836 23.4024L27.5552 23.3797L27.6268 23.357L27.6984 23.3342L27.77 23.3115L27.8417 23.2887L27.9133 23.266L27.9849 23.2432L28.0565 23.2205L28.1281 23.1978L28.1997 23.175L28.2713 23.1523L28.3429 23.1295L28.4145 23.1068L28.4861 23.084L28.5577 23.0613L28.6293 23.0386L28.7009 23.0158L28.7725 22.9931L28.8441 22.9703L28.9157 22.9476L28.9873 22.9249L29.0589 22.9021L29.1305 22.8794L29.2021 22.8566L29.2737 22.8339L29.3453 22.8111L29.4169 22.7884L29.4886 22.7657L29.5602 22.7429L29.6318 22.7202L29.7034 22.6974L29.775 22.6747L29.8466 22.652L29.9182 22.6292L29.9898 22.6065L30.0614 22.5837L30.133 22.561L30.2046 22.5383L30.2762 22.5155L30.3478 22.4928L30.4194 22.47L30.491 22.4473L30.5626 22.4246L30.6342 22.4018L30.7058 22.3791L30.7774 22.3563L30.849 22.3336L30.9206 22.3108L30.9922 22.2881L31.0638 22.2654L31.1354 22.2426L31.207 22.2199L31.2786 22.1971L31.3502 22.1744L31.4218 22.1517L31.4934 22.1289L31.565 22.1062L31.6366 22.0834L31.7081 22.0607L31.7797 22.038L31.8513 22.0152L31.9229 21.9925L31.9945 21.9698L32.0661 21.947L32.1377 21.9243L32.2093 21.9015L32.2809 21.8788L32.3525 21.8561L32.4241 21.8333L32.4957 21.8106L32.5673 21.7878L32.6389 21.7651L32.7105 21.7424L32.7821 21.7196L32.8537 21.6969L32.9253 21.6741L32.9969 21.6514L33.0685 21.6287L33.1401 21.6059L33.2116 21.5832L33.2832 21.5605L33.3548 21.5377L33.4264 21.515L33.498 21.4922L33.5696 21.4695L33.6412 21.4468L33.7128 21.424L33.7844 21.4013L33.856 21.3785L33.9276 21.3558L33.9992 21.3331L34.0707 21.3103L34.1423 21.2876L34.2139 21.2649L34.2855 21.2421L34.3571 21.2194L34.4287 21.1966L34.5003 21.1739L34.5719 21.1512L34.6435 21.1284L34.7151 21.1057L34.7866 21.083L34.8582 21.0602L34.9298 21.0375L35.0014 21.0148L35.073 20.992L35.1446 20.9693L35.2162 20.9465L35.2877 20.9238L35.3593 20.9011L35.4309 20.8783L35.5025 20.8556L35.5741 20.8329L35.6457 20.8101L35.7173 20.7874L35.7888 20.7647L35.8604 20.7419L35.932 20.7192L36.0036 20.6965L36.0752 20.6737L36.1468 20.651L36.2183 20.6282L36.2899 20.6055L36.3615 20.5828L36.4331 20.56L36.5047 20.5373L36.5763 20.5146L36.6478 20.4918L36.7194 20.4691L36.791 20.4464L36.8626 20.4236L36.9342 20.4009L37.0057 20.3782L37.0773 20.3554L37.1489 20.3327L37.2205 20.31L37.2921 20.2872L37.3636 20.2645L37.4352 20.2418L37.5068 20.219L37.5784 20.1963L37.65 20.1736L37.7215 20.1508L37.7931 20.1281L37.8647 20.1054L37.9363 20.0826L38.0078 20.0599L38.0794 20.0372L38.151 20.0144L38.2226 19.9917L38.2941 19.969L38.3657 19.9462L38.4373 19.9235L38.5089 19.9008L38.5804 19.878L38.652 19.8553L38.7236 19.8326L38.7952 19.8098L38.8667 19.7871C40.1132 19.3912 41.3324 18.8752 42.4592 18.0818L42.461 18.0806C42.7994 17.8401 43.0903 17.552 43.3522 17.2759C43.4351 17.1885 43.5138 17.1038 43.5904 17.0214C43.7659 16.8326 43.9304 16.6557 44.1092 16.485L44.1093 16.4851L44.1176 16.4769C44.2195 16.3749 44.331 16.2497 44.4328 16.1355C44.491 16.0701 44.546 16.0084 44.5942 15.9566L44.9279 15.5982L44.5766 15.2571C42.8287 13.5604 41.7758 11.4685 41.3145 8.97557C41.0152 7.34401 41.0565 5.81629 41.5527 4.38139C41.7942 4.49733 42.0397 4.62025 42.2814 4.74515L42.2844 4.74671C43.6787 5.4553 44.9605 6.35839 46.0356 7.64473C46.5423 8.25633 46.9783 8.91966 47.3207 9.64285C47.3597 9.72816 47.4059 9.80375 47.4396 9.85853L47.4511 9.87731C47.4833 9.9296 47.5085 9.97056 47.5335 10.0176L47.7956 10.5097L48.2563 10.1958C49.3405 9.45738 50.5047 8.97153 51.7584 8.7924Z" stroke="white"/>
<path d="M15.4622 35.0372L15.462 35.0374C14.8764 35.974 13.6529 35.8013 13.2231 35.0577C13.2067 35.0293 13.1903 34.994 13.1688 34.9421C13.1647 34.9321 13.1597 34.9196 13.154 34.9057C13.1405 34.8722 13.1234 34.8299 13.106 34.79C12.9502 34.2559 13.2246 33.6356 13.7704 33.3642C14.1159 33.1955 14.4346 33.1543 14.7742 33.2419L14.7742 33.242L14.7769 33.2426C15.488 33.4218 15.9443 34.267 15.4622 35.0372Z" stroke="white"/>
<path d="M21.1027 33.0843C23.5782 32.2981 26.0537 31.5118 28.5291 30.7256C29.2325 30.5022 29.9224 30.2831 30.6258 30.0597C30.5251 29.9772 30.419 29.8773 30.3318 29.7904C30.6454 31.8093 30.4305 33.8052 29.7372 35.514C29.0064 37.2921 27.7471 38.5318 26.2746 39.3812C25.3587 39.9202 24.3607 40.2944 23.3762 40.6643C23.1247 40.7633 23.2899 41.2834 23.5414 41.1844C25.3806 40.5048 27.2193 39.73 28.6314 38.1746C29.7634 36.9562 30.5163 35.2475 30.7968 33.3644C30.9699 32.2216 30.9557 31.0046 30.7817 29.8002C30.7592 29.6356 30.6229 29.488 30.4877 29.531C28.0122 30.3172 25.5368 31.1034 23.0613 31.8897C22.3579 32.1131 21.668 32.3322 20.9646 32.5556C20.6805 32.6458 20.8457 33.1659 21.1027 33.0843Z" fill="white" stroke="white" stroke-width="0.5" stroke-linecap="round" stroke-linejoin="round"/>
</g>
<defs>
<clipPath id="clip0">
<rect width="56" height="56" fill="white"/>
</clipPath>
</defs>
</svg>
