<svg width="56" height="56" viewBox="0 0 56 56" fill="none" xmlns="http://www.w3.org/2000/svg">
<path d="M37.3327 51.334V42.304C37.4202 41.1914 37.2699 40.0729 36.8917 39.0228C36.5135 37.9728 35.9162 37.0153 35.1393 36.214C42.466 35.3973 50.166 32.6207 50.166 19.8807C50.1654 16.6229 48.9123 13.4901 46.666 11.1307C47.7297 8.28052 47.6545 5.13015 46.456 2.334C46.456 2.334 43.7027 1.51733 37.3327 5.78733C31.9847 4.33792 26.3473 4.33792 20.9993 5.78733C14.6293 1.51733 11.876 2.334 11.876 2.334C10.6776 5.13015 10.6024 8.28052 11.666 11.1307C9.40298 13.5076 8.14857 16.6687 8.16602 19.9507C8.16602 32.5973 15.866 35.374 23.1927 36.284C22.425 37.0773 21.833 38.0233 21.4551 39.0605C21.0772 40.0977 20.9219 41.2028 20.9993 42.304V51.334M20.9993 44.334C9.33268 47.834 9.33268 38.5007 4.66602 37.334L20.9993 44.334Z" stroke="white" stroke-width="2" stroke-linecap="round" stroke-linejoin="round"/>
</svg>
