<svg width="200" height="154" viewBox="0 0 200 154" fill="none" xmlns="http://www.w3.org/2000/svg">
<path d="M94 55C69.7047 55 50 75.199 50 100.112C50 120.044 62.606 136.954 80.0923 142.92C82.2887 143.337 83 141.939 83 140.751V132.353C70.7607 135.082 68.2123 127.029 68.2123 127.029C66.2103 121.815 63.3247 120.428 63.3247 120.428C59.3317 117.627 63.629 117.687 63.629 117.687C68.0473 118.003 70.372 122.338 70.372 122.338C74.2953 129.232 80.6643 127.24 83.176 126.086C83.5683 123.172 84.7087 121.18 85.97 120.056C76.1983 118.909 65.9243 115.041 65.9243 97.759C65.9243 92.8305 67.644 88.8079 70.4563 85.6501C70.0017 84.511 68.4947 79.9208 70.8853 73.7103C70.8853 73.7103 74.5813 72.4998 82.989 78.3344C86.498 77.3344 90.26 76.8344 94 76.8156C97.74 76.8344 101.506 77.3344 105.022 78.3344C113.422 72.4998 117.111 73.7103 117.111 73.7103C119.505 79.9246 117.998 84.5147 117.544 85.6501C120.367 88.8079 122.072 92.8342 122.072 97.759C122.072 115.086 111.78 118.902 101.982 120.018C103.559 121.417 105 124.161 105 128.371V140.751C105 141.95 105.704 143.36 107.937 142.916C125.409 136.943 138 120.037 138 100.112C138 75.199 118.299 55 94 55Z" fill="#121242"/>
<path d="M20.5 20L25.1025 34.1652H39.9967L27.9471 42.9197L32.5496 57.0848L20.5 48.3303L8.4504 57.0848L13.0529 42.9197L1.00334 34.1652H15.8975L20.5 20Z" fill="#F5B82E"/>
<path d="M173.5 14L179.45 32.3111H198.703L183.127 43.6279L189.076 61.9389L173.5 50.6221L157.924 61.9389L163.873 43.6279L148.297 32.3111H167.55L173.5 14Z" fill="#F5B82E"/>
<path d="M116 0L119.368 10.3647H130.266L121.449 16.7705L124.817 27.1353L116 20.7295L107.183 27.1353L110.551 16.7705L101.734 10.3647H112.632L116 0Z" fill="#F5B82E"/>
<path d="M173 84L176.368 94.3647H187.266L178.449 100.771L181.817 111.135L173 104.729L164.183 111.135L167.551 100.771L158.734 94.3647H169.632L173 84Z" fill="#F5B82E"/>
<path d="M24 128L26.9187 136.983H36.3637L28.7225 142.534L31.6412 151.517L24 145.966L16.3588 151.517L19.2775 142.534L11.6363 136.983H21.0813L24 128Z" fill="#F5B82E"/>
</svg>
