<svg width="16" height="15" viewBox="0 0 16 15" fill="none" xmlns="http://www.w3.org/2000/svg">
<path d="M7.58756 0.601794C7.78617 0.312008 8.21383 0.312007 8.41244 0.601793L10.7209 3.97006C10.7859 4.06492 10.8816 4.13447 10.9919 4.16699L14.9087 5.32158C15.2456 5.42091 15.3778 5.82765 15.1636 6.10608L12.6735 9.34237C12.6034 9.43351 12.5668 9.54605 12.57 9.66101L12.6822 13.7429C12.6919 14.094 12.3459 14.3454 12.0149 14.2277L8.16752 12.8596C8.05917 12.821 7.94083 12.821 7.83248 12.8596L3.98511 14.2277C3.65411 14.3454 3.30812 14.094 3.31778 13.7429L3.43004 9.66101C3.4332 9.54605 3.39664 9.43351 3.32651 9.34237L0.836438 6.10608C0.622207 5.82765 0.754362 5.42091 1.09134 5.32158L5.00809 4.16699C5.1184 4.13447 5.21413 4.06492 5.27915 3.97006L7.58756 0.601794Z" fill="#F5B82E"/>
</svg>
