<svg width="1920" height="969" viewBox="0 0 1920 969" fill="none" xmlns="http://www.w3.org/2000/svg">
<rect width="1920" height="969" fill="white"/>
<rect x="200" y="150" width="1520" height="340" rx="4" fill="#121242"/>
<mask id="mask0" mask-type="alpha" maskUnits="userSpaceOnUse" x="200" y="150" width="1520" height="340">
<rect x="200" y="150" width="1520" height="340" rx="4" fill="#121242"/>
</mask>
<g mask="url(#mask0)">
<path opacity="0.02" d="M705.334 -445L404.543 -173.118C520.872 -44.4193 495.947 167.16 350.041 299.043C203.574 431.433 -8.87922 434.417 -125.209 305.718L-426 577.599C-177.741 852.256 276.364 845.878 588.94 563.345C901.516 280.811 953.593 -170.343 705.334 -445Z" fill="white"/>
<path opacity="0.02" d="M2077.11 483.271L1912.03 275.818C1812.29 355.188 1666.36 337.301 1586.28 236.671C1505.9 135.653 1521.93 -10.481 1621.29 -89.5467L1456.21 -297C1243.35 -127.617 1209.9 184.087 1381.45 399.667C1552.99 615.248 1864.25 652.655 2077.11 483.271Z" fill="white"/>
<path opacity="0.1" d="M2051.5 -19.5C2051.5 327.899 1776.59 609.5 1437.5 609.5C1098.41 609.5 823.5 327.899 823.5 -19.5C823.5 -366.899 1098.41 -648.5 1437.5 -648.5C1776.59 -648.5 2051.5 -366.899 2051.5 -19.5Z" stroke="white"/>
<circle opacity="0.1" cx="325.5" cy="784.5" r="414" stroke="white"/>
<circle opacity="0.1" cx="1758.5" cy="647.5" r="414" stroke="white"/>
</g>
<path d="M526.431 299.12V341H548.631V334.34H534.831V299.12H526.431ZM586.07 324.38C586.07 313.88 578.57 307.22 568.97 307.22C559.37 307.22 551.87 313.88 551.87 324.38C551.87 334.82 559.13 341.54 568.73 341.54C578.39 341.54 586.07 334.82 586.07 324.38ZM560.39 324.38C560.39 317.72 564.41 314.54 568.85 314.54C573.29 314.54 577.43 317.72 577.43 324.38C577.43 330.98 573.17 334.22 568.73 334.22C564.23 334.22 560.39 330.98 560.39 324.38ZM598.292 341H607.412L613.472 317.78L619.532 341H628.592L638.312 307.76H630.272L624.392 333.02L618.152 307.76H609.272L602.912 333.08L597.032 307.76H588.512L598.292 341ZM642.977 323.12H668.417V316.04H642.977V323.12ZM675.797 320C675.797 332.54 684.977 341.36 697.037 341.36C706.337 341.36 713.897 336.44 716.717 327.8H707.057C705.077 331.88 701.477 333.86 696.977 333.86C689.657 333.86 684.437 328.46 684.437 320C684.437 311.48 689.657 306.14 696.977 306.14C701.477 306.14 705.077 308.12 707.057 312.14H716.717C713.897 303.56 706.337 298.58 697.037 298.58C684.977 298.58 675.797 307.46 675.797 320ZM755.992 324.38C755.992 313.88 748.492 307.22 738.892 307.22C729.292 307.22 721.792 313.88 721.792 324.38C721.792 334.82 729.052 341.54 738.652 341.54C748.312 341.54 755.992 334.82 755.992 324.38ZM730.312 324.38C730.312 317.72 734.332 314.54 738.772 314.54C743.212 314.54 747.352 317.72 747.352 324.38C747.352 330.98 743.092 334.22 738.652 334.22C734.152 334.22 730.312 330.98 730.312 324.38ZM759.994 324.26C759.994 334.64 766.714 341.54 775.174 341.54C780.394 341.54 784.114 339.14 786.094 336.08V341H794.614V296.6H786.094V312.38C783.814 309.26 779.614 307.22 775.234 307.22C766.714 307.22 759.994 313.88 759.994 324.26ZM786.154 324.38C786.154 330.68 781.954 334.16 777.334 334.16C772.834 334.16 768.574 330.56 768.574 324.26C768.574 317.96 772.834 314.6 777.334 314.6C781.954 314.6 786.154 318.08 786.154 324.38ZM817.098 314.12C821.418 314.12 824.898 316.88 825.018 321.26H809.238C809.898 316.7 813.078 314.12 817.098 314.12ZM832.878 330.56H823.818C822.738 332.78 820.758 334.58 817.158 334.58C812.958 334.58 809.598 331.82 809.178 326.9H833.478C833.658 325.82 833.718 324.74 833.718 323.66C833.718 313.76 826.938 307.22 817.338 307.22C807.498 307.22 800.658 313.88 800.658 324.38C800.658 334.82 807.678 341.54 817.338 341.54C825.558 341.54 831.078 336.68 832.878 330.56Z" fill="white"/>
<path d="M1030.34 319.94C1030.34 307.4 1020.86 298.52 1008.92 298.52C997.096 298.52 987.436 307.4 987.436 319.94C987.436 332.54 997.096 341.42 1008.92 341.42C1020.8 341.42 1030.34 332.54 1030.34 319.94ZM996.076 319.94C996.076 311.42 1001.3 306.08 1008.92 306.08C1016.48 306.08 1021.7 311.42 1021.7 319.94C1021.7 328.46 1016.48 333.92 1008.92 333.92C1001.3 333.92 996.076 328.46 996.076 319.94ZM1044.99 312.56V307.76H1036.59V356.84H1044.99V336.26C1047.03 338.96 1050.75 341.54 1055.97 341.54C1064.49 341.54 1071.15 334.64 1071.15 324.26C1071.15 313.88 1064.49 307.22 1055.97 307.22C1050.81 307.22 1046.97 309.74 1044.99 312.56ZM1062.57 324.26C1062.57 330.56 1058.31 334.16 1053.75 334.16C1049.25 334.16 1044.99 330.68 1044.99 324.38C1044.99 318.08 1049.25 314.6 1053.75 314.6C1058.31 314.6 1062.57 317.96 1062.57 324.26ZM1091.53 314.12C1095.85 314.12 1099.33 316.88 1099.45 321.26H1083.67C1084.33 316.7 1087.51 314.12 1091.53 314.12ZM1107.31 330.56H1098.25C1097.17 332.78 1095.19 334.58 1091.59 334.58C1087.39 334.58 1084.03 331.82 1083.61 326.9H1107.91C1108.09 325.82 1108.15 324.74 1108.15 323.66C1108.15 313.76 1101.37 307.22 1091.77 307.22C1081.93 307.22 1075.09 313.88 1075.09 324.38C1075.09 334.82 1082.11 341.54 1091.77 341.54C1099.99 341.54 1105.51 336.68 1107.31 330.56ZM1137.56 341H1145.96V321.5C1145.96 312.32 1140.44 307.28 1132.7 307.28C1128.44 307.28 1124.84 309.08 1122.68 311.9V307.76H1114.28V341H1122.68V322.64C1122.68 317.3 1125.62 314.42 1130.18 314.42C1134.62 314.42 1137.56 317.3 1137.56 322.64V341ZM1154.07 323.12H1179.51V316.04H1154.07V323.12ZM1218.21 328.88C1218.21 314.12 1196.73 318.8 1196.73 310.4C1196.73 306.98 1199.19 305.36 1202.49 305.48C1206.09 305.54 1208.31 307.7 1208.49 310.46H1217.73C1217.19 302.9 1211.31 298.52 1202.73 298.52C1194.09 298.52 1187.97 303.08 1187.97 310.64C1187.91 325.82 1209.51 320.36 1209.51 329.42C1209.51 332.42 1207.17 334.52 1203.21 334.52C1199.31 334.52 1197.09 332.3 1196.85 328.94H1187.85C1187.97 336.86 1194.69 341.42 1203.39 341.42C1212.93 341.42 1218.21 335.48 1218.21 328.88ZM1257.59 324.38C1257.59 313.88 1250.09 307.22 1240.49 307.22C1230.89 307.22 1223.39 313.88 1223.39 324.38C1223.39 334.82 1230.65 341.54 1240.25 341.54C1249.91 341.54 1257.59 334.82 1257.59 324.38ZM1231.91 324.38C1231.91 317.72 1235.93 314.54 1240.37 314.54C1244.81 314.54 1248.95 317.72 1248.95 324.38C1248.95 330.98 1244.69 334.22 1240.25 334.22C1235.75 334.22 1231.91 330.98 1231.91 324.38ZM1295.13 307.76H1286.67V326.06C1286.67 331.4 1283.79 334.28 1279.23 334.28C1274.79 334.28 1271.85 331.4 1271.85 326.06V307.76H1263.45V327.26C1263.45 336.38 1269.03 341.42 1276.77 341.42C1280.91 341.42 1284.57 339.62 1286.67 336.8V341H1295.13V307.76ZM1311.82 324.44C1311.82 318.02 1314.82 316.1 1319.8 316.1H1322.02V307.28C1317.4 307.28 1313.92 309.5 1311.82 312.92V307.76H1303.42V341H1311.82V324.44ZM1325.52 324.38C1325.52 334.82 1332.36 341.54 1341.96 341.54C1350.24 341.54 1355.82 336.86 1357.62 329.78H1348.56C1347.54 332.78 1345.38 334.34 1341.9 334.34C1337.22 334.34 1334.1 330.86 1334.1 324.38C1334.1 317.9 1337.22 314.36 1341.9 314.36C1345.38 314.36 1347.6 316.16 1348.56 318.98H1357.62C1355.82 311.54 1350.24 307.22 1341.96 307.22C1332.36 307.22 1325.52 313.94 1325.52 324.38ZM1378.05 314.12C1382.37 314.12 1385.85 316.88 1385.97 321.26H1370.19C1370.85 316.7 1374.03 314.12 1378.05 314.12ZM1393.83 330.56H1384.77C1383.69 332.78 1381.71 334.58 1378.11 334.58C1373.91 334.58 1370.55 331.82 1370.13 326.9H1394.43C1394.61 325.82 1394.67 324.74 1394.67 323.66C1394.67 313.76 1387.89 307.22 1378.29 307.22C1368.45 307.22 1361.61 313.88 1361.61 324.38C1361.61 334.82 1368.63 341.54 1378.29 341.54C1386.51 341.54 1392.03 336.68 1393.83 330.56Z" fill="white"/>
<g clip-path="url(#clip0)">
<path d="M910.571 359C906.238 354.157 902.235 349.362 897.809 344.895C891.64 338.642 885.141 332.765 878.925 326.559C874.122 321.857 870.307 316.45 868.612 309.774C865.316 296.798 875.393 282.317 888.767 281.094C893.429 280.671 897.668 282.034 901.435 284.667C904.637 286.924 907.557 289.51 910.665 292.002C912.643 290.262 914.668 288.335 916.834 286.595C933.41 273.101 949.939 286.783 952.576 300.465C953.989 307.752 951.87 314.241 947.584 319.883C944.147 324.396 940.144 328.581 935.953 332.436C927.288 340.429 919.094 348.798 911.607 357.872C911.324 358.201 910.994 358.53 910.571 359Z" fill="#7950ED"/>
</g>
<path d="M206.336 919.672C205.248 919.672 204.283 919.912 203.44 920.392C202.608 920.872 201.957 921.544 201.488 922.408C201.019 923.261 200.784 924.237 200.784 925.336C200.784 926.435 201.019 927.416 201.488 928.28C201.957 929.144 202.608 929.816 203.44 930.296C204.283 930.776 205.248 931.016 206.336 931.016C207.424 931.016 208.384 930.776 209.216 930.296C210.059 929.816 210.709 929.144 211.168 928.28C211.637 927.416 211.872 926.435 211.872 925.336C211.872 924.237 211.637 923.261 211.168 922.408C210.709 921.544 210.059 920.872 209.216 920.392C208.384 919.912 207.424 919.672 206.336 919.672ZM206.336 920.216C207.328 920.216 208.197 920.435 208.944 920.872C209.691 921.299 210.267 921.901 210.672 922.68C211.077 923.459 211.28 924.344 211.28 925.336C211.28 926.328 211.077 927.213 210.672 927.992C210.267 928.76 209.691 929.363 208.944 929.8C208.197 930.237 207.328 930.456 206.336 930.456C205.344 930.456 204.475 930.237 203.728 929.8C202.981 929.363 202.405 928.76 202 927.992C201.595 927.213 201.392 926.328 201.392 925.336C201.392 924.344 201.595 923.459 202 922.68C202.405 921.901 202.981 921.299 203.728 920.872C204.475 920.435 205.344 920.216 206.336 920.216ZM206.4 921.624C207.189 921.624 207.888 921.859 208.496 922.328C209.104 922.787 209.504 923.427 209.696 924.248H208.432C208.272 923.747 208 923.357 207.616 923.08C207.243 922.803 206.816 922.664 206.336 922.664C205.707 922.664 205.173 922.899 204.736 923.368C204.299 923.827 204.08 924.488 204.08 925.352C204.08 925.917 204.181 926.403 204.384 926.808C204.597 927.213 204.875 927.517 205.216 927.72C205.557 927.923 205.931 928.024 206.336 928.024C206.816 928.024 207.243 927.885 207.616 927.608C208 927.32 208.272 926.925 208.432 926.424H209.696C209.515 927.245 209.115 927.891 208.496 928.36C207.888 928.819 207.189 929.048 206.4 929.048C205.749 929.048 205.157 928.904 204.624 928.616C204.091 928.328 203.669 927.907 203.36 927.352C203.051 926.787 202.896 926.115 202.896 925.336C202.896 924.568 203.051 923.907 203.36 923.352C203.669 922.787 204.091 922.36 204.624 922.072C205.157 921.773 205.749 921.624 206.4 921.624ZM213.344 929.88C215.157 928.664 216.608 927.459 217.696 926.264C218.784 925.059 219.328 923.939 219.328 922.904C219.328 922.264 219.163 921.752 218.832 921.368C218.512 920.973 217.989 920.776 217.264 920.776C216.517 920.776 215.952 921.016 215.568 921.496C215.184 921.965 214.971 922.616 214.928 923.448H213.488C213.563 922.189 213.952 921.224 214.656 920.552C215.36 919.869 216.267 919.528 217.376 919.528C218.432 919.528 219.269 919.811 219.888 920.376C220.507 920.941 220.816 921.741 220.816 922.776C220.816 923.629 220.539 924.499 219.984 925.384C219.44 926.259 218.752 927.075 217.92 927.832C217.099 928.579 216.251 929.213 215.376 929.736H221.104V930.936H213.344V929.88ZM222.662 925.288C222.662 927.101 222.961 928.515 223.558 929.528C224.155 930.541 225.19 931.048 226.662 931.048C228.134 931.048 229.169 930.541 229.766 929.528C230.374 928.515 230.678 927.101 230.678 925.288C230.678 923.496 230.374 922.093 229.766 921.08C229.169 920.067 228.134 919.56 226.662 919.56C225.19 919.56 224.155 920.067 223.558 921.08C222.961 922.083 222.662 923.485 222.662 925.288ZM229.238 925.288C229.238 926.216 229.169 926.995 229.03 927.624C228.902 928.243 228.651 928.739 228.278 929.112C227.905 929.485 227.366 929.672 226.662 929.672C225.969 929.672 225.435 929.485 225.062 929.112C224.689 928.739 224.433 928.243 224.294 927.624C224.166 926.995 224.102 926.216 224.102 925.288C224.102 924.371 224.166 923.603 224.294 922.984C224.433 922.365 224.689 921.875 225.062 921.512C225.435 921.139 225.969 920.952 226.662 920.952C227.366 920.952 227.905 921.139 228.278 921.512C228.651 921.875 228.902 922.365 229.03 922.984C229.169 923.603 229.238 924.371 229.238 925.288ZM232.25 929.88C234.063 928.664 235.514 927.459 236.602 926.264C237.69 925.059 238.234 923.939 238.234 922.904C238.234 922.264 238.069 921.752 237.738 921.368C237.418 920.973 236.895 920.776 236.17 920.776C235.423 920.776 234.858 921.016 234.474 921.496C234.09 921.965 233.877 922.616 233.834 923.448H232.394C232.469 922.189 232.858 921.224 233.562 920.552C234.266 919.869 235.173 919.528 236.282 919.528C237.338 919.528 238.175 919.811 238.794 920.376C239.413 920.941 239.722 921.741 239.722 922.776C239.722 923.629 239.445 924.499 238.89 925.384C238.346 926.259 237.658 927.075 236.826 927.832C236.005 928.579 235.157 929.213 234.282 929.736H240.01V930.936H232.25V929.88ZM241.568 925.288C241.568 927.101 241.867 928.515 242.464 929.528C243.062 930.541 244.096 931.048 245.568 931.048C247.04 931.048 248.075 930.541 248.672 929.528C249.28 928.515 249.584 927.101 249.584 925.288C249.584 923.496 249.28 922.093 248.672 921.08C248.075 920.067 247.04 919.56 245.568 919.56C244.096 919.56 243.062 920.067 242.464 921.08C241.867 922.083 241.568 923.485 241.568 925.288ZM248.144 925.288C248.144 926.216 248.075 926.995 247.936 927.624C247.808 928.243 247.558 928.739 247.184 929.112C246.811 929.485 246.272 929.672 245.568 929.672C244.875 929.672 244.342 929.485 243.968 929.112C243.595 928.739 243.339 928.243 243.2 927.624C243.072 926.995 243.008 926.216 243.008 925.288C243.008 924.371 243.072 923.603 243.2 922.984C243.339 922.365 243.595 921.875 243.968 921.512C244.342 921.139 244.875 920.952 245.568 920.952C246.272 920.952 246.811 921.139 247.184 921.512C247.558 921.875 247.808 922.365 247.936 922.984C248.075 923.603 248.144 924.371 248.144 925.288ZM259.206 922.104C260.059 922.104 260.779 922.317 261.366 922.744C261.963 923.171 262.379 923.741 262.614 924.456V922.216H264.07V931H262.614V928.76C262.379 929.475 261.963 930.045 261.366 930.472C260.779 930.899 260.059 931.112 259.206 931.112C258.427 931.112 257.734 930.931 257.126 930.568C256.518 930.205 256.038 929.688 255.686 929.016C255.344 928.333 255.174 927.533 255.174 926.616C255.174 925.699 255.344 924.899 255.686 924.216C256.038 923.533 256.518 923.011 257.126 922.648C257.734 922.285 258.427 922.104 259.206 922.104ZM259.622 923.4C258.726 923.4 258.006 923.688 257.462 924.264C256.928 924.829 256.662 925.613 256.662 926.616C256.662 927.619 256.928 928.408 257.462 928.984C258.006 929.549 258.726 929.832 259.622 929.832C260.198 929.832 260.71 929.699 261.158 929.432C261.616 929.165 261.974 928.792 262.23 928.312C262.486 927.821 262.614 927.256 262.614 926.616C262.614 925.976 262.486 925.411 262.23 924.92C261.974 924.429 261.616 924.056 261.158 923.8C260.71 923.533 260.198 923.4 259.622 923.4ZM277.187 922.072C278.211 922.072 279.032 922.403 279.651 923.064C280.28 923.715 280.595 924.659 280.595 925.896V931H279.139V926.024C279.139 925.16 278.925 924.499 278.499 924.04C278.083 923.581 277.507 923.352 276.771 923.352C276.003 923.352 275.384 923.608 274.915 924.12C274.456 924.621 274.227 925.363 274.227 926.344V931H272.771V926.024C272.771 925.16 272.557 924.499 272.131 924.04C271.704 923.581 271.128 923.352 270.403 923.352C269.624 923.352 269 923.608 268.531 924.12C268.072 924.621 267.843 925.363 267.843 926.344V931H266.387V922.216H267.843V924.216C268.056 923.523 268.435 922.995 268.979 922.632C269.533 922.259 270.168 922.072 270.883 922.072C271.629 922.072 272.275 922.264 272.819 922.648C273.373 923.021 273.768 923.576 274.003 924.312C274.248 923.597 274.659 923.048 275.235 922.664C275.811 922.269 276.461 922.072 277.187 922.072ZM287.704 922.104C288.482 922.104 289.176 922.285 289.784 922.648C290.392 923.011 290.866 923.533 291.208 924.216C291.56 924.899 291.736 925.699 291.736 926.616C291.736 927.533 291.56 928.333 291.208 929.016C290.866 929.688 290.392 930.205 289.784 930.568C289.176 930.931 288.482 931.112 287.704 931.112C286.85 931.112 286.125 930.899 285.528 930.472C284.941 930.035 284.536 929.464 284.312 928.76V935.16H282.856V922.216H284.312V924.456C284.536 923.752 284.941 923.187 285.528 922.76C286.125 922.323 286.85 922.104 287.704 922.104ZM287.288 923.4C286.722 923.4 286.21 923.533 285.752 923.8C285.293 924.056 284.936 924.429 284.68 924.92C284.424 925.411 284.296 925.976 284.296 926.616C284.296 927.256 284.424 927.821 284.68 928.312C284.936 928.792 285.293 929.165 285.752 929.432C286.21 929.699 286.722 929.832 287.288 929.832C288.194 929.832 288.914 929.549 289.448 928.984C289.992 928.408 290.264 927.619 290.264 926.616C290.264 925.613 289.992 924.829 289.448 924.264C288.914 923.688 288.194 923.4 287.288 923.4ZM295.093 919.16V931H293.637V919.16H295.093ZM297.178 919.64C297.178 919.373 297.268 919.16 297.45 919C297.631 918.829 297.871 918.744 298.17 918.744C298.468 918.744 298.708 918.829 298.89 919C299.071 919.16 299.162 919.373 299.162 919.64C299.162 919.907 299.071 920.125 298.89 920.296C298.708 920.456 298.468 920.536 298.17 920.536C297.871 920.536 297.631 920.456 297.45 920.296C297.268 920.125 297.178 919.907 297.178 919.64ZM298.89 922.216V931H297.434V922.216H298.89ZM305.119 922.104C306.239 922.104 307.167 922.403 307.903 923C308.639 923.597 309.092 924.397 309.263 925.4H307.727C307.62 924.771 307.327 924.28 306.847 923.928C306.377 923.565 305.791 923.384 305.087 923.384C304.575 923.384 304.105 923.501 303.679 923.736C303.263 923.971 302.927 924.333 302.671 924.824C302.415 925.304 302.287 925.901 302.287 926.616C302.287 927.331 302.415 927.933 302.671 928.424C302.927 928.904 303.263 929.261 303.679 929.496C304.105 929.731 304.575 929.848 305.087 929.848C305.791 929.848 306.377 929.667 306.847 929.304C307.327 928.941 307.62 928.445 307.727 927.816H309.263C309.092 928.829 308.639 929.635 307.903 930.232C307.167 930.819 306.239 931.112 305.119 931.112C304.276 931.112 303.529 930.931 302.879 930.568C302.228 930.205 301.716 929.688 301.343 929.016C300.98 928.333 300.799 927.533 300.799 926.616C300.799 925.699 300.98 924.899 301.343 924.216C301.716 923.533 302.228 923.011 302.879 922.648C303.529 922.285 304.276 922.104 305.119 922.104ZM314.768 922.104C315.621 922.104 316.341 922.317 316.928 922.744C317.525 923.171 317.941 923.741 318.176 924.456V922.216H319.632V931H318.176V928.76C317.941 929.475 317.525 930.045 316.928 930.472C316.341 930.899 315.621 931.112 314.768 931.112C313.989 931.112 313.296 930.931 312.688 930.568C312.08 930.205 311.6 929.688 311.248 929.016C310.907 928.333 310.736 927.533 310.736 926.616C310.736 925.699 310.907 924.899 311.248 924.216C311.6 923.533 312.08 923.011 312.688 922.648C313.296 922.285 313.989 922.104 314.768 922.104ZM315.184 923.4C314.288 923.4 313.568 923.688 313.024 924.264C312.491 924.829 312.224 925.613 312.224 926.616C312.224 927.619 312.491 928.408 313.024 928.984C313.568 929.549 314.288 929.832 315.184 929.832C315.76 929.832 316.272 929.699 316.72 929.432C317.179 929.165 317.536 928.792 317.792 928.312C318.048 927.821 318.176 927.256 318.176 926.616C318.176 925.976 318.048 925.411 317.792 924.92C317.536 924.429 317.179 924.056 316.72 923.8C316.272 923.533 315.76 923.4 315.184 923.4ZM326.141 929.72V931H325.053C324.157 931 323.485 930.787 323.037 930.36C322.6 929.933 322.381 929.219 322.381 928.216V923.48H321.069V922.216H322.381V920.024H323.853V922.216H326.125V923.48H323.853V928.248C323.853 928.813 323.955 929.203 324.157 929.416C324.371 929.619 324.733 929.72 325.245 929.72H326.141ZM327.662 919.64C327.662 919.373 327.753 919.16 327.934 919C328.115 918.829 328.355 918.744 328.654 918.744C328.953 918.744 329.193 918.829 329.374 919C329.555 919.16 329.646 919.373 329.646 919.64C329.646 919.907 329.555 920.125 329.374 920.296C329.193 920.456 328.953 920.536 328.654 920.536C328.355 920.536 328.115 920.456 327.934 920.296C327.753 920.125 327.662 919.907 327.662 919.64ZM329.374 922.216V931H327.918V922.216H329.374ZM335.699 922.104C336.542 922.104 337.294 922.285 337.955 922.648C338.627 923.011 339.15 923.533 339.523 924.216C339.907 924.899 340.099 925.699 340.099 926.616C340.099 927.533 339.907 928.333 339.523 929.016C339.15 929.688 338.627 930.205 337.955 930.568C337.294 930.931 336.542 931.112 335.699 931.112C334.856 931.112 334.099 930.931 333.427 930.568C332.766 930.205 332.243 929.688 331.859 929.016C331.475 928.333 331.283 927.533 331.283 926.616C331.283 925.699 331.475 924.899 331.859 924.216C332.243 923.533 332.766 923.011 333.427 922.648C334.099 922.285 334.856 922.104 335.699 922.104ZM335.699 923.384C335.176 923.384 334.691 923.501 334.243 923.736C333.806 923.971 333.448 924.333 333.171 924.824C332.904 925.304 332.771 925.901 332.771 926.616C332.771 927.32 332.904 927.917 333.171 928.408C333.448 928.888 333.806 929.245 334.243 929.48C334.691 929.715 335.176 929.832 335.699 929.832C336.222 929.832 336.702 929.715 337.139 929.48C337.587 929.245 337.944 928.888 338.211 928.408C338.488 927.917 338.627 927.32 338.627 926.616C338.627 925.901 338.488 925.304 338.211 924.824C337.944 924.333 337.587 923.971 337.139 923.736C336.702 923.501 336.222 923.384 335.699 923.384ZM346.62 922.072C347.644 922.072 348.471 922.403 349.1 923.064C349.729 923.715 350.044 924.659 350.044 925.896V931H348.588V926.024C348.588 925.149 348.364 924.477 347.916 924.008C347.468 923.539 346.86 923.304 346.092 923.304C345.292 923.304 344.652 923.565 344.172 924.088C343.692 924.6 343.452 925.352 343.452 926.344V931H341.996V922.216H343.452V924.296C343.676 923.581 344.071 923.032 344.636 922.648C345.212 922.264 345.873 922.072 346.62 922.072Z" fill="#A0A0B3"/>
<path d="M1614.7 926.456V931H1613.25V919.72H1616.83C1618.12 919.72 1619.09 920.024 1619.73 920.632C1620.37 921.229 1620.69 922.051 1620.69 923.096C1620.69 924.152 1620.36 924.979 1619.69 925.576C1619.03 926.163 1618.08 926.456 1616.83 926.456H1614.7ZM1616.7 925.24C1617.59 925.24 1618.22 925.053 1618.61 924.68C1619 924.307 1619.2 923.779 1619.2 923.096C1619.2 922.392 1619 921.859 1618.61 921.496C1618.22 921.123 1617.59 920.936 1616.7 920.936H1614.7V925.24H1616.7ZM1623.84 923.992C1624.13 923.384 1624.55 922.915 1625.11 922.584C1625.66 922.243 1626.32 922.072 1627.09 922.072V923.656H1626.64C1625.82 923.656 1625.15 923.869 1624.63 924.296C1624.1 924.712 1623.84 925.405 1623.84 926.376V931H1622.39V922.216H1623.84V923.992ZM1628.27 919.64C1628.27 919.373 1628.36 919.16 1628.54 919C1628.72 918.829 1628.96 918.744 1629.26 918.744C1629.56 918.744 1629.8 918.829 1629.98 919C1630.16 919.16 1630.26 919.373 1630.26 919.64C1630.26 919.907 1630.16 920.125 1629.98 920.296C1629.8 920.456 1629.56 920.536 1629.26 920.536C1628.96 920.536 1628.72 920.456 1628.54 920.296C1628.36 920.125 1628.27 919.907 1628.27 919.64ZM1629.98 922.216V931H1628.53V922.216H1629.98ZM1635.73 929.448L1638.45 922.216H1640.02L1636.58 931H1634.85L1631.41 922.216H1632.98L1635.73 929.448ZM1645.05 922.104C1645.9 922.104 1646.62 922.317 1647.21 922.744C1647.81 923.171 1648.22 923.741 1648.46 924.456V922.216H1649.91V931H1648.46V928.76C1648.22 929.475 1647.81 930.045 1647.21 930.472C1646.62 930.899 1645.9 931.112 1645.05 931.112C1644.27 931.112 1643.58 930.931 1642.97 930.568C1642.36 930.205 1641.88 929.688 1641.53 929.016C1641.19 928.333 1641.02 927.533 1641.02 926.616C1641.02 925.699 1641.19 924.899 1641.53 924.216C1641.88 923.533 1642.36 923.011 1642.97 922.648C1643.58 922.285 1644.27 922.104 1645.05 922.104ZM1645.47 923.4C1644.57 923.4 1643.85 923.688 1643.31 924.264C1642.77 924.829 1642.51 925.613 1642.51 926.616C1642.51 927.619 1642.77 928.408 1643.31 928.984C1643.85 929.549 1644.57 929.832 1645.47 929.832C1646.04 929.832 1646.55 929.699 1647 929.432C1647.46 929.165 1647.82 928.792 1648.07 928.312C1648.33 927.821 1648.46 927.256 1648.46 926.616C1648.46 925.976 1648.33 925.411 1648.07 924.92C1647.82 924.429 1647.46 924.056 1647 923.8C1646.55 923.533 1646.04 923.4 1645.47 923.4ZM1656.12 922.104C1657.24 922.104 1658.17 922.403 1658.9 923C1659.64 923.597 1660.09 924.397 1660.26 925.4H1658.73C1658.62 924.771 1658.33 924.28 1657.85 923.928C1657.38 923.565 1656.79 923.384 1656.09 923.384C1655.57 923.384 1655.11 923.501 1654.68 923.736C1654.26 923.971 1653.93 924.333 1653.67 924.824C1653.41 925.304 1653.29 925.901 1653.29 926.616C1653.29 927.331 1653.41 927.933 1653.67 928.424C1653.93 928.904 1654.26 929.261 1654.68 929.496C1655.11 929.731 1655.57 929.848 1656.09 929.848C1656.79 929.848 1657.38 929.667 1657.85 929.304C1658.33 928.941 1658.62 928.445 1658.73 927.816H1660.26C1660.09 928.829 1659.64 929.635 1658.9 930.232C1658.17 930.819 1657.24 931.112 1656.12 931.112C1655.28 931.112 1654.53 930.931 1653.88 930.568C1653.23 930.205 1652.72 929.688 1652.34 929.016C1651.98 928.333 1651.8 927.533 1651.8 926.616C1651.8 925.699 1651.98 924.899 1652.34 924.216C1652.72 923.533 1653.23 923.011 1653.88 922.648C1654.53 922.285 1655.28 922.104 1656.12 922.104ZM1662.78 922.216L1665.62 929.128L1668.26 922.216H1669.88L1664.66 935.16H1663.02L1664.84 930.856L1661.14 922.216H1662.78ZM1676.62 926.456V931H1675.17V919.72H1678.75C1680.04 919.72 1681.01 920.024 1681.65 920.632C1682.29 921.229 1682.61 922.051 1682.61 923.096C1682.61 924.152 1682.28 924.979 1681.62 925.576C1680.95 926.163 1680 926.456 1678.75 926.456H1676.62ZM1678.62 925.24C1679.51 925.24 1680.14 925.053 1680.53 924.68C1680.92 924.307 1681.12 923.779 1681.12 923.096C1681.12 922.392 1680.92 921.859 1680.53 921.496C1680.14 921.123 1679.51 920.936 1678.62 920.936H1676.62V925.24H1678.62ZM1688.29 922.104C1689.14 922.104 1689.89 922.285 1690.55 922.648C1691.22 923.011 1691.74 923.533 1692.12 924.216C1692.5 924.899 1692.69 925.699 1692.69 926.616C1692.69 927.533 1692.5 928.333 1692.12 929.016C1691.74 929.688 1691.22 930.205 1690.55 930.568C1689.89 930.931 1689.14 931.112 1688.29 931.112C1687.45 931.112 1686.69 930.931 1686.02 930.568C1685.36 930.205 1684.84 929.688 1684.45 929.016C1684.07 928.333 1683.88 927.533 1683.88 926.616C1683.88 925.699 1684.07 924.899 1684.45 924.216C1684.84 923.533 1685.36 923.011 1686.02 922.648C1686.69 922.285 1687.45 922.104 1688.29 922.104ZM1688.29 923.384C1687.77 923.384 1687.28 923.501 1686.84 923.736C1686.4 923.971 1686.04 924.333 1685.76 924.824C1685.5 925.304 1685.36 925.901 1685.36 926.616C1685.36 927.32 1685.5 927.917 1685.76 928.408C1686.04 928.888 1686.4 929.245 1686.84 929.48C1687.28 929.715 1687.77 929.832 1688.29 929.832C1688.82 929.832 1689.3 929.715 1689.73 929.48C1690.18 929.245 1690.54 928.888 1690.8 928.408C1691.08 927.917 1691.22 927.32 1691.22 926.616C1691.22 925.901 1691.08 925.304 1690.8 924.824C1690.54 924.333 1690.18 923.971 1689.73 923.736C1689.3 923.501 1688.82 923.384 1688.29 923.384ZM1696.05 919.16V931H1694.59V919.16H1696.05ZM1698.13 919.64C1698.13 919.373 1698.22 919.16 1698.4 919C1698.58 918.829 1698.82 918.744 1699.12 918.744C1699.42 918.744 1699.66 918.829 1699.84 919C1700.02 919.16 1700.11 919.373 1700.11 919.64C1700.11 919.907 1700.02 920.125 1699.84 920.296C1699.66 920.456 1699.42 920.536 1699.12 920.536C1698.82 920.536 1698.58 920.456 1698.4 920.296C1698.22 920.125 1698.13 919.907 1698.13 919.64ZM1699.84 922.216V931H1698.39V922.216H1699.84ZM1706.07 922.104C1707.19 922.104 1708.12 922.403 1708.86 923C1709.59 923.597 1710.04 924.397 1710.22 925.4H1708.68C1708.57 924.771 1708.28 924.28 1707.8 923.928C1707.33 923.565 1706.74 923.384 1706.04 923.384C1705.53 923.384 1705.06 923.501 1704.63 923.736C1704.22 923.971 1703.88 924.333 1703.62 924.824C1703.37 925.304 1703.24 925.901 1703.24 926.616C1703.24 927.331 1703.37 927.933 1703.62 928.424C1703.88 928.904 1704.22 929.261 1704.63 929.496C1705.06 929.731 1705.53 929.848 1706.04 929.848C1706.74 929.848 1707.33 929.667 1707.8 929.304C1708.28 928.941 1708.57 928.445 1708.68 927.816H1710.22C1710.04 928.829 1709.59 929.635 1708.86 930.232C1708.12 930.819 1707.19 931.112 1706.07 931.112C1705.23 931.112 1704.48 930.931 1703.83 930.568C1703.18 930.205 1702.67 929.688 1702.3 929.016C1701.93 928.333 1701.75 927.533 1701.75 926.616C1701.75 925.699 1701.93 924.899 1702.3 924.216C1702.67 923.533 1703.18 923.011 1703.83 922.648C1704.48 922.285 1705.23 922.104 1706.07 922.104ZM1712.73 922.216L1715.58 929.128L1718.22 922.216H1719.83L1714.62 935.16H1712.97L1714.79 930.856L1711.1 922.216H1712.73Z" fill="#A0A0B3"/>
<path d="M1612.08 932.6H1719.99V933.4H1612.08V932.6Z" fill="#A0A0B3"/>
<path d="M259.4 624.64L249.02 667H238.58L230.66 636.28L222.68 667H212.3L201.92 624.64H211.1L217.58 657.46L225.98 624.64H235.28L243.74 657.46L250.22 624.64H259.4ZM296.448 649.12C296.448 649.96 296.348 650.92 296.148 652H271.788C271.908 654.96 272.708 657.14 274.188 658.54C275.668 659.94 277.508 660.64 279.708 660.64C281.668 660.64 283.288 660.16 284.568 659.2C285.888 658.24 286.728 656.94 287.088 655.3H296.028C295.588 657.62 294.648 659.7 293.208 661.54C291.768 663.38 289.908 664.82 287.628 665.86C285.388 666.9 282.888 667.42 280.128 667.42C276.888 667.42 274.008 666.74 271.488 665.38C268.968 663.98 267.008 662 265.608 659.44C264.208 656.88 263.508 653.86 263.508 650.38C263.508 646.9 264.208 643.88 265.608 641.32C267.008 638.72 268.968 636.74 271.488 635.38C274.008 634.02 276.888 633.34 280.128 633.34C283.408 633.34 286.268 634.02 288.708 635.38C291.188 636.74 293.088 638.62 294.408 641.02C295.768 643.38 296.448 646.08 296.448 649.12ZM287.928 648.28C288.048 645.56 287.328 643.5 285.768 642.1C284.248 640.7 282.368 640 280.128 640C277.848 640 275.928 640.7 274.368 642.1C272.808 643.5 271.948 645.56 271.788 648.28H287.928ZM363.1 633.76L354.16 667H344.8L337.66 642.82L330.34 667H320.98L312.1 633.76H320.56L325.96 659.44L333.34 633.76H342.28L349.72 659.44L355.18 633.76H363.1ZM382.677 633.34C385.917 633.34 388.817 634.02 391.377 635.38C393.977 636.74 396.017 638.72 397.497 641.32C398.977 643.88 399.717 646.9 399.717 650.38C399.717 653.86 398.977 656.88 397.497 659.44C396.017 662 393.977 663.98 391.377 665.38C388.817 666.74 385.917 667.42 382.677 667.42C379.437 667.42 376.517 666.74 373.917 665.38C371.357 663.98 369.337 662 367.857 659.44C366.377 656.88 365.637 653.86 365.637 650.38C365.637 646.9 366.377 643.88 367.857 641.32C369.337 638.72 371.357 636.74 373.917 635.38C376.517 634.02 379.437 633.34 382.677 633.34ZM382.677 640.66C380.317 640.66 378.317 641.5 376.677 643.18C375.037 644.82 374.217 647.22 374.217 650.38C374.217 653.54 375.037 655.96 376.677 657.64C378.317 659.28 380.317 660.1 382.677 660.1C385.037 660.1 387.037 659.28 388.677 657.64C390.317 655.96 391.137 653.54 391.137 650.38C391.137 647.22 390.317 644.82 388.677 643.18C387.037 641.5 385.037 640.66 382.677 640.66ZM437.495 633.76V667H429.035V660.28C428.155 662.52 426.695 664.28 424.655 665.56C422.655 666.8 420.335 667.42 417.695 667.42C413.855 667.42 410.795 666.16 408.515 663.64C406.235 661.12 405.095 657.6 405.095 653.08V633.76H413.495V652.12C413.495 654.76 414.175 656.82 415.535 658.3C416.895 659.74 418.735 660.46 421.055 660.46C423.495 660.46 425.435 659.68 426.875 658.12C428.315 656.56 429.035 654.32 429.035 651.4V633.76H437.495ZM453.648 622.6V667H445.188V622.6H453.648ZM474.321 633.34C477.121 633.34 479.501 634 481.461 635.32C483.461 636.64 484.901 638.42 485.781 640.66V622.6H494.181V667H485.781V660.04C484.901 662.28 483.461 664.08 481.461 665.44C479.501 666.76 477.121 667.42 474.321 667.42C471.521 667.42 469.001 666.74 466.761 665.38C464.521 664.02 462.761 662.06 461.481 659.5C460.241 656.9 459.621 653.86 459.621 650.38C459.621 646.9 460.241 643.88 461.481 641.32C462.761 638.72 464.521 636.74 466.761 635.38C469.001 634.02 471.521 633.34 474.321 633.34ZM476.961 640.72C474.321 640.72 472.201 641.58 470.601 643.3C469.001 645.02 468.201 647.38 468.201 650.38C468.201 653.38 469.001 655.74 470.601 657.46C472.201 659.14 474.321 659.98 476.961 659.98C479.521 659.98 481.621 659.12 483.261 657.4C484.941 655.64 485.781 653.3 485.781 650.38C485.781 647.42 484.941 645.08 483.261 643.36C481.621 641.6 479.521 640.72 476.961 640.72ZM674.061 659.74V667H669.621C665.901 667 663.041 666.1 661.041 664.3C659.081 662.5 658.101 659.5 658.101 655.3V640.9H653.481V633.76H658.101V625.54H666.561V633.76H674.001V640.9H666.561V655.42C666.561 657.02 666.881 658.14 667.521 658.78C668.161 659.42 669.241 659.74 670.761 659.74H674.061ZM695.509 633.34C698.749 633.34 701.649 634.02 704.209 635.38C706.809 636.74 708.849 638.72 710.329 641.32C711.809 643.88 712.549 646.9 712.549 650.38C712.549 653.86 711.809 656.88 710.329 659.44C708.849 662 706.809 663.98 704.209 665.38C701.649 666.74 698.749 667.42 695.509 667.42C692.269 667.42 689.349 666.74 686.749 665.38C684.189 663.98 682.169 662 680.689 659.44C679.209 656.88 678.469 653.86 678.469 650.38C678.469 646.9 679.209 643.88 680.689 641.32C682.169 638.72 684.189 636.74 686.749 635.38C689.349 634.02 692.269 633.34 695.509 633.34ZM695.509 640.66C693.149 640.66 691.149 641.5 689.509 643.18C687.869 644.82 687.049 647.22 687.049 650.38C687.049 653.54 687.869 655.96 689.509 657.64C691.149 659.28 693.149 660.1 695.509 660.1C697.869 660.1 699.869 659.28 701.509 657.64C703.149 655.96 703.969 653.54 703.969 650.38C703.969 647.22 703.149 644.82 701.509 643.18C699.869 641.5 697.869 640.66 695.509 640.66ZM223.64 705.28C227.48 705.28 230.54 706.54 232.82 709.06C235.1 711.58 236.24 715.12 236.24 719.68V739H227.84V720.64C227.84 718 227.16 715.96 225.8 714.52C224.44 713.04 222.58 712.3 220.22 712.3C217.82 712.3 215.9 713.08 214.46 714.64C213.02 716.2 212.3 718.44 212.3 721.36V739H203.84V694.6H212.3V712.42C213.18 710.18 214.62 708.44 216.62 707.2C218.66 705.92 221 705.28 223.64 705.28ZM274.944 721.12C274.944 721.96 274.844 722.92 274.644 724H250.284C250.404 726.96 251.204 729.14 252.684 730.54C254.164 731.94 256.004 732.64 258.204 732.64C260.164 732.64 261.784 732.16 263.064 731.2C264.384 730.24 265.224 728.94 265.584 727.3H274.524C274.084 729.62 273.144 731.7 271.704 733.54C270.264 735.38 268.404 736.82 266.124 737.86C263.884 738.9 261.384 739.42 258.624 739.42C255.384 739.42 252.504 738.74 249.984 737.38C247.464 735.98 245.504 734 244.104 731.44C242.704 728.88 242.004 725.86 242.004 722.38C242.004 718.9 242.704 715.88 244.104 713.32C245.504 710.72 247.464 708.74 249.984 707.38C252.504 706.02 255.384 705.34 258.624 705.34C261.904 705.34 264.764 706.02 267.204 707.38C269.684 708.74 271.584 710.62 272.904 713.02C274.264 715.38 274.944 718.08 274.944 721.12ZM266.424 720.28C266.544 717.56 265.824 715.5 264.264 714.1C262.744 712.7 260.864 712 258.624 712C256.344 712 254.424 712.7 252.864 714.1C251.304 715.5 250.444 717.56 250.284 720.28H266.424ZM293.969 705.34C296.769 705.34 299.169 706 301.169 707.32C303.169 708.64 304.589 710.42 305.429 712.66V705.76H313.829V739H305.429V732.04C304.589 734.28 303.169 736.08 301.169 737.44C299.169 738.76 296.769 739.42 293.969 739.42C291.169 739.42 288.649 738.74 286.409 737.38C284.169 736.02 282.409 734.06 281.129 731.5C279.889 728.9 279.269 725.86 279.269 722.38C279.269 718.9 279.889 715.88 281.129 713.32C282.409 710.72 284.169 708.74 286.409 707.38C288.649 706.02 291.169 705.34 293.969 705.34ZM296.609 712.72C293.969 712.72 291.849 713.58 290.249 715.3C288.649 717.02 287.849 719.38 287.849 722.38C287.849 725.38 288.649 727.74 290.249 729.46C291.849 731.14 293.969 731.98 296.609 731.98C299.169 731.98 301.269 731.12 302.909 729.4C304.589 727.64 305.429 725.3 305.429 722.38C305.429 719.42 304.589 717.08 302.909 715.36C301.269 713.6 299.169 712.72 296.609 712.72ZM329.956 712.12C331.196 710 332.836 708.34 334.876 707.14C336.916 705.9 339.196 705.28 341.716 705.28V714.34H339.256C333.056 714.34 329.956 717.22 329.956 722.98V739H321.496V705.76H329.956V712.12ZM375.905 700C373.425 699.84 371.685 700.2 370.685 701.08C369.685 701.96 369.185 703.5 369.185 705.7V705.76H375.905V712.9H369.185V739H360.725V712.9H356.465V705.76H360.725V704.98C360.725 701.02 361.845 697.98 364.085 695.86C366.365 693.7 369.725 692.62 374.165 692.62C374.925 692.62 375.505 692.64 375.905 692.68V700ZM389.429 712.12C390.669 710 392.309 708.34 394.349 707.14C396.389 705.9 398.669 705.28 401.189 705.28V714.34H398.729C392.529 714.34 389.429 717.22 389.429 722.98V739H380.969V705.76H389.429V712.12ZM421.231 705.34C424.471 705.34 427.371 706.02 429.931 707.38C432.531 708.74 434.571 710.72 436.051 713.32C437.531 715.88 438.271 718.9 438.271 722.38C438.271 725.86 437.531 728.88 436.051 731.44C434.571 734 432.531 735.98 429.931 737.38C427.371 738.74 424.471 739.42 421.231 739.42C417.991 739.42 415.071 738.74 412.471 737.38C409.911 735.98 407.891 734 406.411 731.44C404.931 728.88 404.191 725.86 404.191 722.38C404.191 718.9 404.931 715.88 406.411 713.32C407.891 710.72 409.911 708.74 412.471 707.38C415.071 706.02 417.991 705.34 421.231 705.34ZM421.231 712.66C418.871 712.66 416.871 713.5 415.231 715.18C413.591 716.82 412.771 719.22 412.771 722.38C412.771 725.54 413.591 727.96 415.231 729.64C416.871 731.28 418.871 732.1 421.231 732.1C423.591 732.1 425.591 731.28 427.231 729.64C428.871 727.96 429.691 725.54 429.691 722.38C429.691 719.22 428.871 716.82 427.231 715.18C425.591 713.5 423.591 712.66 421.231 712.66ZM486.55 705.28C490.59 705.28 493.77 706.54 496.09 709.06C498.45 711.54 499.63 715.08 499.63 719.68V739H491.23V720.64C491.23 718.08 490.57 716.12 489.25 714.76C487.97 713.36 486.19 712.66 483.91 712.66C481.55 712.66 479.67 713.4 478.27 714.88C476.87 716.36 476.17 718.52 476.17 721.36V739H467.77V720.64C467.77 718.08 467.11 716.12 465.79 714.76C464.51 713.36 462.73 712.66 460.45 712.66C458.09 712.66 456.21 713.4 454.81 714.88C453.41 716.36 452.71 718.52 452.71 721.36V739H444.25V705.76H452.71V712.06C453.59 709.9 454.97 708.24 456.85 707.08C458.77 705.88 460.99 705.28 463.51 705.28C466.19 705.28 468.51 705.92 470.47 707.2C472.47 708.48 473.97 710.32 474.97 712.72C476.01 710.44 477.55 708.64 479.59 707.32C481.67 705.96 483.99 705.28 486.55 705.28ZM525.829 705.76L534.889 728.32L543.289 705.76H552.589L532.249 754.84H522.889L530.389 738.04L516.409 705.76H525.829ZM571.934 705.34C575.174 705.34 578.074 706.02 580.634 707.38C583.234 708.74 585.274 710.72 586.754 713.32C588.234 715.88 588.974 718.9 588.974 722.38C588.974 725.86 588.234 728.88 586.754 731.44C585.274 734 583.234 735.98 580.634 737.38C578.074 738.74 575.174 739.42 571.934 739.42C568.694 739.42 565.774 738.74 563.174 737.38C560.614 735.98 558.594 734 557.114 731.44C555.634 728.88 554.894 725.86 554.894 722.38C554.894 718.9 555.634 715.88 557.114 713.32C558.594 710.72 560.614 708.74 563.174 707.38C565.774 706.02 568.694 705.34 571.934 705.34ZM571.934 712.66C569.574 712.66 567.574 713.5 565.934 715.18C564.294 716.82 563.474 719.22 563.474 722.38C563.474 725.54 564.294 727.96 565.934 729.64C567.574 731.28 569.574 732.1 571.934 732.1C574.294 732.1 576.294 731.28 577.934 729.64C579.574 727.96 580.394 725.54 580.394 722.38C580.394 719.22 579.574 716.82 577.934 715.18C576.294 713.5 574.294 712.66 571.934 712.66ZM626.753 705.76V739H618.293V732.28C617.413 734.52 615.953 736.28 613.913 737.56C611.913 738.8 609.593 739.42 606.953 739.42C603.113 739.42 600.053 738.16 597.773 735.64C595.493 733.12 594.353 729.6 594.353 725.08V705.76H602.753V724.12C602.753 726.76 603.433 728.82 604.793 730.3C606.153 731.74 607.993 732.46 610.313 732.46C612.753 732.46 614.693 731.68 616.133 730.12C617.573 728.56 618.293 726.32 618.293 723.4V705.76H626.753ZM641.465 730.18V739H632.345V730.18H641.465Z" fill="#121242"/>
<path d="M523.374 622.6V667H514.914V622.6H523.374ZM546.388 633.34C549.628 633.34 552.528 634.02 555.088 635.38C557.688 636.74 559.728 638.72 561.208 641.32C562.688 643.88 563.428 646.9 563.428 650.38C563.428 653.86 562.688 656.88 561.208 659.44C559.728 662 557.688 663.98 555.088 665.38C552.528 666.74 549.628 667.42 546.388 667.42C543.148 667.42 540.228 666.74 537.628 665.38C535.068 663.98 533.048 662 531.568 659.44C530.088 656.88 529.348 653.86 529.348 650.38C529.348 646.9 530.088 643.88 531.568 641.32C533.048 638.72 535.068 636.74 537.628 635.38C540.228 634.02 543.148 633.34 546.388 633.34ZM546.388 640.66C544.028 640.66 542.028 641.5 540.388 643.18C538.748 644.82 537.928 647.22 537.928 650.38C537.928 653.54 538.748 655.96 540.388 657.64C542.028 659.28 544.028 660.1 546.388 660.1C548.748 660.1 550.748 659.28 552.388 657.64C554.028 655.96 554.848 653.54 554.848 650.38C554.848 647.22 554.028 644.82 552.388 643.18C550.748 641.5 548.748 640.66 546.388 640.66ZM583.866 658.54L592.266 633.76H601.266L588.966 667H578.646L566.346 633.76H575.406L583.866 658.54ZM637.229 649.12C637.229 649.96 637.129 650.92 636.929 652H612.569C612.689 654.96 613.489 657.14 614.969 658.54C616.449 659.94 618.289 660.64 620.489 660.64C622.449 660.64 624.069 660.16 625.349 659.2C626.669 658.24 627.509 656.94 627.869 655.3H636.809C636.369 657.62 635.429 659.7 633.989 661.54C632.549 663.38 630.689 664.82 628.409 665.86C626.169 666.9 623.669 667.42 620.909 667.42C617.669 667.42 614.789 666.74 612.269 665.38C609.749 663.98 607.789 662 606.389 659.44C604.989 656.88 604.289 653.86 604.289 650.38C604.289 646.9 604.989 643.88 606.389 641.32C607.789 638.72 609.749 636.74 612.269 635.38C614.789 634.02 617.669 633.34 620.909 633.34C624.189 633.34 627.049 634.02 629.489 635.38C631.969 636.74 633.869 638.62 635.189 641.02C636.549 643.38 637.229 646.08 637.229 649.12ZM628.709 648.28C628.829 645.56 628.109 643.5 626.549 642.1C625.029 640.7 623.149 640 620.909 640C618.629 640 616.709 640.7 615.149 642.1C613.589 643.5 612.729 645.56 612.569 648.28H628.709Z" fill="#7950ED"/>
<path d="M1208.77 713.05C1208.77 716.182 1210.77 718.162 1213.58 718.162C1216.03 718.162 1217.63 716.794 1218.13 714.832H1216.37C1216.01 716.074 1215.04 716.776 1213.58 716.776C1211.78 716.776 1210.45 715.498 1210.45 713.05C1210.45 710.638 1211.78 709.36 1213.58 709.36C1215.04 709.36 1216.03 710.116 1216.37 711.304H1218.13C1217.63 709.234 1216.03 707.974 1213.58 707.974C1210.77 707.974 1208.77 709.954 1208.77 713.05ZM1229.68 713.05C1229.68 709.936 1227.5 707.974 1224.69 707.974C1221.9 707.974 1219.71 709.936 1219.71 713.05C1219.71 716.182 1221.83 718.162 1224.62 718.162C1227.43 718.162 1229.68 716.182 1229.68 713.05ZM1221.38 713.05C1221.38 710.566 1222.95 709.396 1224.68 709.396C1226.37 709.396 1228.01 710.566 1228.01 713.05C1228.01 715.552 1226.33 716.722 1224.62 716.722C1222.91 716.722 1221.38 715.552 1221.38 713.05ZM1239.05 718H1240.67V712.186C1240.67 709.36 1238.93 707.956 1236.64 707.956C1235.31 707.956 1234.12 708.514 1233.47 709.54V708.136H1231.83V718H1233.47V712.546C1233.47 710.422 1234.62 709.378 1236.3 709.378C1237.95 709.378 1239.05 710.404 1239.05 712.42V718ZM1243.71 715.3C1243.71 717.28 1244.7 718 1246.44 718H1247.92V716.614H1246.71C1245.7 716.614 1245.34 716.272 1245.34 715.3V709.486H1247.92V708.136H1245.34V705.652H1243.71V708.136H1242.43V709.486H1243.71V715.3ZM1249.29 713.032C1249.29 716.092 1251.33 718.162 1253.95 718.162C1255.77 718.162 1257.05 717.226 1257.64 716.164V718H1259.3V708.136H1257.64V709.936C1257.07 708.91 1255.81 707.974 1253.97 707.974C1251.33 707.974 1249.29 709.954 1249.29 713.032ZM1257.64 713.05C1257.64 715.372 1256.1 716.722 1254.3 716.722C1252.5 716.722 1250.97 715.354 1250.97 713.032C1250.97 710.71 1252.5 709.396 1254.3 709.396C1256.1 709.396 1257.64 710.764 1257.64 713.05ZM1261.46 713.05C1261.46 716.182 1263.45 718.162 1266.26 718.162C1268.71 718.162 1270.31 716.794 1270.82 714.832H1269.05C1268.69 716.074 1267.72 716.776 1266.26 716.776C1264.46 716.776 1263.13 715.498 1263.13 713.05C1263.13 710.638 1264.46 709.36 1266.26 709.36C1267.72 709.36 1268.71 710.116 1269.05 711.304H1270.82C1270.31 709.234 1268.71 707.974 1266.26 707.974C1263.45 707.974 1261.46 709.954 1261.46 713.05ZM1273.36 715.3C1273.36 717.28 1274.35 718 1276.1 718H1277.57V716.614H1276.37C1275.36 716.614 1275 716.272 1275 715.3V709.486H1277.57V708.136H1275V705.652H1273.36V708.136H1272.08V709.486H1273.36V715.3ZM1291.19 718.126C1293.69 718.126 1295.09 715.246 1295.09 712.474C1295.09 708.91 1292.63 706.462 1288.56 706.462C1283.27 706.462 1279.47 710.476 1279.47 715.606C1279.47 719.26 1282.04 721.582 1285.93 721.582C1287.17 721.582 1288.38 721.366 1289.46 720.916L1289.24 719.8C1288.32 720.232 1287.24 720.412 1286.25 720.412C1282.87 720.412 1280.82 718.666 1280.84 715.462C1280.84 711.052 1284 707.614 1288.36 707.614C1291.8 707.614 1293.76 709.432 1293.76 712.564C1293.76 714.454 1292.99 717.01 1291.44 717.01C1290.52 717.01 1290.38 716.326 1290.54 715.3L1291.44 710.098H1290.02L1289.82 711.214C1289.42 710.35 1288.65 709.918 1287.51 709.918C1284.89 709.918 1283.09 712.348 1283.09 715.03C1283.09 716.902 1284.17 718.126 1286.02 718.126C1287.28 718.126 1288.5 717.496 1289.24 716.452C1289.33 717.46 1289.96 718.126 1291.19 718.126ZM1289.46 713.554C1289.35 715.408 1288.09 716.848 1286.51 716.848C1285.25 716.848 1284.62 716.002 1284.62 714.778C1284.62 712.996 1285.71 711.178 1287.51 711.178C1288.92 711.178 1289.57 712.24 1289.46 713.554ZM1297.17 713.032C1297.17 716.092 1299.21 718.162 1301.84 718.162C1303.65 718.162 1304.93 717.226 1305.53 716.164V718H1307.18V708.136H1305.53V709.936C1304.95 708.91 1303.69 707.974 1301.85 707.974C1299.21 707.974 1297.17 709.954 1297.17 713.032ZM1305.53 713.05C1305.53 715.372 1303.98 716.722 1302.18 716.722C1300.38 716.722 1298.85 715.354 1298.85 713.032C1298.85 710.71 1300.38 709.396 1302.18 709.396C1303.98 709.396 1305.53 710.764 1305.53 713.05ZM1324.19 718H1325.81V712.186C1325.81 709.36 1324.06 707.956 1321.81 707.956C1320.3 707.956 1318.9 708.73 1318.32 710.152C1317.67 708.676 1316.32 707.956 1314.7 707.956C1313.41 707.956 1312.24 708.514 1311.59 709.558V708.136H1309.95V718H1311.59V712.564C1311.59 710.44 1312.72 709.378 1314.38 709.378C1316 709.378 1317.08 710.404 1317.08 712.42V718H1318.7V712.564C1318.7 710.44 1319.83 709.378 1321.49 709.378C1323.11 709.378 1324.19 710.404 1324.19 712.42V718ZM1330.13 709.954V708.136H1328.5V722.68H1330.13V716.182C1330.75 717.19 1332.02 718.162 1333.82 718.162C1336.47 718.162 1338.5 716.092 1338.5 713.032C1338.5 709.954 1336.47 707.974 1333.82 707.974C1332.02 707.974 1330.73 708.91 1330.13 709.954ZM1336.83 713.032C1336.83 715.354 1335.3 716.722 1333.48 716.722C1331.7 716.722 1330.13 715.372 1330.13 713.05C1330.13 710.764 1331.7 709.396 1333.48 709.396C1335.3 709.396 1336.83 710.71 1336.83 713.032ZM1340.66 718H1342.3V704.68H1340.66V718ZM1345.09 718H1346.73V708.136H1345.09V718ZM1345.94 706.534C1346.53 706.534 1347.02 706.048 1347.02 705.418C1347.02 704.788 1346.53 704.302 1345.94 704.302C1345.31 704.302 1344.82 704.788 1344.82 705.418C1344.82 706.048 1345.31 706.534 1345.94 706.534ZM1348.91 713.05C1348.91 716.182 1350.9 718.162 1353.71 718.162C1356.16 718.162 1357.76 716.794 1358.27 714.832H1356.5C1356.14 716.074 1355.17 716.776 1353.71 716.776C1351.91 716.776 1350.58 715.498 1350.58 713.05C1350.58 710.638 1351.91 709.36 1353.71 709.36C1355.17 709.36 1356.16 710.116 1356.5 711.304H1358.27C1357.76 709.234 1356.16 707.974 1353.71 707.974C1350.9 707.974 1348.91 709.954 1348.91 713.05ZM1359.84 713.032C1359.84 716.092 1361.87 718.162 1364.5 718.162C1366.32 718.162 1367.6 717.226 1368.19 716.164V718H1369.85V708.136H1368.19V709.936C1367.62 708.91 1366.36 707.974 1364.52 707.974C1361.87 707.974 1359.84 709.954 1359.84 713.032ZM1368.19 713.05C1368.19 715.372 1366.64 716.722 1364.84 716.722C1363.04 716.722 1361.51 715.354 1361.51 713.032C1361.51 710.71 1363.04 709.396 1364.84 709.396C1366.64 709.396 1368.19 710.764 1368.19 713.05ZM1372.98 715.3C1372.98 717.28 1373.97 718 1375.71 718H1377.19V716.614H1375.98C1374.97 716.614 1374.61 716.272 1374.61 715.3V709.486H1377.19V708.136H1374.61V705.652H1372.98V708.136H1371.7V709.486H1372.98V715.3ZM1379.17 718H1380.81V708.136H1379.17V718ZM1380.02 706.534C1380.61 706.534 1381.1 706.048 1381.1 705.418C1381.1 704.788 1380.61 704.302 1380.02 704.302C1379.39 704.302 1378.9 704.788 1378.9 705.418C1378.9 706.048 1379.39 706.534 1380.02 706.534ZM1392.96 713.05C1392.96 709.936 1390.78 707.974 1387.98 707.974C1385.19 707.974 1382.99 709.936 1382.99 713.05C1382.99 716.182 1385.11 718.162 1387.9 718.162C1390.71 718.162 1392.96 716.182 1392.96 713.05ZM1384.66 713.05C1384.66 710.566 1386.23 709.396 1387.96 709.396C1389.65 709.396 1391.29 710.566 1391.29 713.05C1391.29 715.552 1389.61 716.722 1387.9 716.722C1386.19 716.722 1384.66 715.552 1384.66 713.05ZM1402.33 718H1403.95V712.186C1403.95 709.36 1402.21 707.956 1399.92 707.956C1398.59 707.956 1397.4 708.514 1396.75 709.54V708.136H1395.12V718H1396.75V712.546C1396.75 710.422 1397.91 709.378 1399.58 709.378C1401.24 709.378 1402.33 710.404 1402.33 712.42V718ZM1408.23 716.992C1408.23 716.362 1407.75 715.876 1407.15 715.876C1406.52 715.876 1406.04 716.362 1406.04 716.992C1406.04 717.622 1406.52 718.108 1407.15 718.108C1407.75 718.108 1408.23 717.622 1408.23 716.992ZM1409.8 713.05C1409.8 716.182 1411.8 718.162 1414.6 718.162C1417.05 718.162 1418.65 716.794 1419.16 714.832H1417.39C1417.03 716.074 1416.06 716.776 1414.6 716.776C1412.8 716.776 1411.47 715.498 1411.47 713.05C1411.47 710.638 1412.8 709.36 1414.6 709.36C1416.06 709.36 1417.05 710.116 1417.39 711.304H1419.16C1418.65 709.234 1417.05 707.974 1414.6 707.974C1411.8 707.974 1409.8 709.954 1409.8 713.05ZM1430.7 713.05C1430.7 709.936 1428.53 707.974 1425.72 707.974C1422.93 707.974 1420.73 709.936 1420.73 713.05C1420.73 716.182 1422.86 718.162 1425.65 718.162C1428.45 718.162 1430.7 716.182 1430.7 713.05ZM1422.41 713.05C1422.41 710.566 1423.97 709.396 1425.7 709.396C1427.39 709.396 1429.03 710.566 1429.03 713.05C1429.03 715.552 1427.36 716.722 1425.65 716.722C1423.94 716.722 1422.41 715.552 1422.41 713.05ZM1447.09 718H1448.71V712.186C1448.71 709.36 1446.97 707.956 1444.72 707.956C1443.21 707.956 1441.8 708.73 1441.23 710.152C1440.58 708.676 1439.23 707.956 1437.61 707.956C1436.31 707.956 1435.14 708.514 1434.49 709.558V708.136H1432.86V718H1434.49V712.564C1434.49 710.44 1435.63 709.378 1437.28 709.378C1438.9 709.378 1439.98 710.404 1439.98 712.42V718H1441.6V712.564C1441.6 710.44 1442.74 709.378 1444.39 709.378C1446.01 709.378 1447.09 710.404 1447.09 712.42V718Z" fill="#71718E"/>
<path d="M1208.94 661.718C1208.94 665.48 1211.8 668.108 1215.33 668.108C1217.94 668.108 1220.19 666.812 1221.14 664.364H1218.68C1218.01 665.696 1216.82 666.326 1215.33 666.326C1212.84 666.326 1211.04 664.544 1211.04 661.718C1211.04 658.892 1212.84 657.128 1215.33 657.128C1216.82 657.128 1218.01 657.758 1218.68 659.09H1221.14C1220.19 656.642 1217.94 655.328 1215.33 655.328C1211.8 655.328 1208.94 657.974 1208.94 661.718ZM1232.99 663.032C1232.99 659.918 1230.76 657.92 1227.94 657.92C1225.11 657.92 1222.88 659.918 1222.88 663.032C1222.88 666.146 1225.02 668.162 1227.85 668.162C1230.69 668.162 1232.99 666.146 1232.99 663.032ZM1224.97 663.032C1224.97 660.782 1226.35 659.702 1227.9 659.702C1229.43 659.702 1230.89 660.782 1230.89 663.032C1230.89 665.282 1229.38 666.38 1227.85 666.38C1226.3 666.38 1224.97 665.282 1224.97 663.032ZM1242.06 668H1244.09V662.15C1244.09 659.378 1242.35 657.92 1240.03 657.92C1238.84 657.92 1237.74 658.406 1237.07 659.216V658.082H1235.02V668H1237.07V662.456C1237.07 660.638 1238.06 659.702 1239.58 659.702C1241.07 659.702 1242.06 660.638 1242.06 662.456V668ZM1247.04 665.246C1247.04 667.262 1248.13 668 1249.9 668H1251.52V666.29H1250.26C1249.39 666.29 1249.11 665.984 1249.11 665.246V659.756H1251.52V658.082H1249.11V655.616H1247.04V658.082H1245.87V659.756H1247.04V665.246ZM1252.72 662.996C1252.72 666.056 1254.79 668.162 1257.37 668.162C1259.02 668.162 1260.21 667.37 1260.84 666.524V668H1262.91V658.082H1260.84V659.522C1260.23 658.712 1259.08 657.92 1257.4 657.92C1254.79 657.92 1252.72 659.936 1252.72 662.996ZM1260.84 663.032C1260.84 665.174 1259.38 666.38 1257.84 666.38C1256.31 666.38 1254.83 665.138 1254.83 662.996C1254.83 660.854 1256.31 659.702 1257.84 659.702C1259.38 659.702 1260.84 660.908 1260.84 663.032ZM1264.92 663.032C1264.92 666.146 1266.94 668.162 1269.78 668.162C1272.21 668.162 1273.8 666.812 1274.36 664.868H1272.14C1271.76 665.894 1271.01 666.434 1269.78 666.434C1268.13 666.434 1267.03 665.21 1267.03 663.032C1267.03 660.872 1268.13 659.648 1269.78 659.648C1271.01 659.648 1271.8 660.26 1272.14 661.214H1274.36C1273.8 659.126 1272.21 657.92 1269.78 657.92C1266.94 657.92 1264.92 659.936 1264.92 663.032ZM1276.72 665.246C1276.72 667.262 1277.82 668 1279.59 668H1281.21V666.29H1279.95C1279.08 666.29 1278.79 665.984 1278.79 665.246V659.756H1281.21V658.082H1278.79V655.616H1276.72V658.082H1275.55V659.756H1276.72V665.246ZM1296.76 658.082H1294.7V663.608C1294.7 665.426 1293.71 666.362 1292.2 666.362C1290.71 666.362 1289.72 665.426 1289.72 663.608V658.082H1287.68V663.914C1287.68 666.686 1289.45 668.144 1291.77 668.144C1292.94 668.144 1294.06 667.658 1294.7 666.812V668H1296.76V658.082ZM1306.86 665.228C1306.75 661.646 1301.16 662.762 1301.16 660.764C1301.16 660.098 1301.73 659.648 1302.83 659.648C1303.95 659.648 1304.61 660.242 1304.68 661.106H1306.74C1306.63 659.126 1305.15 657.92 1302.9 657.92C1300.56 657.92 1299.09 659.198 1299.09 660.782C1299.09 664.418 1304.85 663.302 1304.85 665.246C1304.85 665.93 1304.22 666.434 1303.03 666.434C1301.89 666.434 1301.12 665.768 1301.05 664.958H1298.92C1299.01 666.758 1300.69 668.162 1303.06 668.162C1305.4 668.162 1306.86 666.902 1306.86 665.228Z" fill="#121242"/>
<g opacity="0.5">
<path d="M1707.3 699C1707.77 699 1708.24 699 1708.7 699C1708.76 699.015 1708.82 699.03 1708.88 699.046C1710.35 699.137 1711.75 699.487 1713.07 700.142C1716.77 701.954 1719.03 704.878 1719.82 708.929C1719.91 709.386 1719.94 709.858 1720 710.315C1720 710.787 1720 711.259 1720 711.716C1719.98 711.777 1719.97 711.853 1719.95 711.914C1719.83 713.589 1719.41 715.173 1718.58 716.635C1716.38 720.563 1713.01 722.711 1708.5 722.985C1706.34 723.122 1704.28 722.65 1702.4 721.599C1698.45 719.391 1696.3 716.01 1696.02 711.503C1695.88 709.34 1696.35 707.269 1697.4 705.365C1699.27 701.985 1702.11 699.914 1705.91 699.183C1706.37 699.107 1706.83 699.061 1707.3 699ZM1716.18 704.208C1715.51 704.589 1714.85 704.848 1714.17 705.015C1714 705.061 1713.89 705.03 1713.76 704.909C1712.69 703.949 1711.46 703.69 1710.13 704.162C1708.79 704.65 1708 705.655 1707.82 707.086C1707.77 707.482 1707.8 707.893 1707.8 708.305C1704.88 708.107 1702.46 706.858 1700.54 704.604C1700.14 705.305 1699.99 706.036 1700.08 706.797C1700.2 707.848 1700.72 708.685 1701.59 709.31C1701.57 709.34 1701.56 709.355 1701.54 709.386C1701.04 709.249 1700.54 709.112 1700.02 708.959C1700.02 709.766 1700.28 710.497 1700.8 711.152C1701.31 711.792 1701.98 712.203 1702.78 712.431C1702.53 712.477 1702.29 712.523 1702.03 712.538C1701.79 712.553 1701.54 712.538 1701.28 712.538C1701.51 713.239 1701.94 713.802 1702.52 714.244C1703.1 714.685 1703.77 714.914 1704.51 714.975C1703.01 716.147 1701.3 716.604 1699.41 716.482C1699.84 716.726 1700.25 716.97 1700.68 717.168C1702.67 718.051 1704.73 718.249 1706.86 717.838C1709.4 717.35 1711.43 716.025 1712.92 713.924C1714.26 712.051 1714.93 709.934 1714.88 707.619C1714.88 707.528 1714.94 707.421 1715.01 707.345C1715.25 707.117 1715.52 706.919 1715.75 706.675C1716.06 706.355 1716.33 706.02 1716.62 705.67C1715.95 705.853 1715.33 706.02 1714.7 706.188C1714.69 706.157 1714.69 706.142 1714.67 706.112C1715.39 705.67 1715.89 705.061 1716.18 704.208Z" fill="#121242"/>
</g>
<g opacity="0.5">
<path d="M1660.76 724C1654.91 724 1649.07 724 1643.23 724C1643.19 723.986 1643.16 723.967 1643.12 723.958C1641.67 723.718 1640.7 722.901 1640.19 721.53C1640.1 721.286 1640.06 721.023 1639.99 720.765C1640 714.923 1640 709.077 1640 703.235C1640.01 703.198 1640.03 703.165 1640.04 703.127C1640.34 701.282 1641.8 700.005 1643.66 700.005C1649.21 699.995 1654.78 700 1660.34 700.009C1660.75 700.009 1661.17 700.08 1661.55 700.211C1663.07 700.732 1663.99 702.075 1663.99 703.71C1664 707.527 1663.99 711.35 1663.99 715.167C1663.99 716.886 1664 718.605 1663.99 720.323C1663.99 721.948 1663.04 723.281 1661.53 723.807C1661.28 723.892 1661.02 723.934 1660.76 724ZM1653.93 719.065C1653.93 718.943 1653.93 718.839 1653.93 718.741C1653.94 716.717 1653.93 714.693 1653.97 712.674C1653.98 711.861 1654.44 711.284 1655.18 710.96C1656.1 710.561 1657.08 710.918 1657.46 711.805C1657.61 712.153 1657.7 712.556 1657.7 712.937C1657.73 714.881 1657.72 716.825 1657.73 718.769C1657.73 718.863 1657.73 718.952 1657.73 719.051C1658.94 719.051 1660.13 719.051 1661.33 719.051C1661.33 718.938 1661.33 718.844 1661.33 718.755C1661.33 716.928 1661.34 715.101 1661.33 713.27C1661.33 712.796 1661.32 712.317 1661.27 711.843C1661.17 710.969 1660.91 710.147 1660.38 709.434C1659.72 708.56 1658.82 708.114 1657.75 707.997C1656.22 707.828 1654.96 708.274 1654.06 709.57C1654.03 709.612 1654.02 709.664 1654.01 709.715C1653.98 709.692 1653.95 709.673 1653.92 709.65C1653.92 709.175 1653.92 708.706 1653.92 708.227C1652.71 708.227 1651.53 708.227 1650.34 708.227C1650.34 711.847 1650.34 715.449 1650.34 719.055C1651.54 719.065 1652.72 719.065 1653.93 719.065ZM1648.32 719.065C1648.32 715.444 1648.32 711.843 1648.32 708.232C1647.12 708.232 1645.93 708.232 1644.75 708.232C1644.75 711.847 1644.75 715.454 1644.75 719.065C1645.94 719.065 1647.12 719.065 1648.32 719.065ZM1646.54 702.968C1646.3 703.015 1646.05 703.033 1645.81 703.109C1645.14 703.32 1644.7 703.775 1644.56 704.466C1644.43 705.17 1644.6 705.799 1645.17 706.278C1645.67 706.705 1646.27 706.771 1646.91 706.71C1648.04 706.597 1648.81 705.48 1648.5 704.39C1648.24 703.498 1647.53 702.991 1646.54 702.968Z" fill="#121242"/>
</g>
<path d="M1578.58 668H1580.63V662.528H1584.77V660.854H1580.63V657.164H1585.94V655.49H1578.58V668ZM1597.29 663.032C1597.29 659.918 1595.06 657.92 1592.23 657.92C1589.41 657.92 1587.17 659.918 1587.17 663.032C1587.17 666.146 1589.32 668.162 1592.14 668.162C1594.99 668.162 1597.29 666.146 1597.29 663.032ZM1589.26 663.032C1589.26 660.782 1590.65 659.702 1592.2 659.702C1593.73 659.702 1595.18 660.782 1595.18 663.032C1595.18 665.282 1593.67 666.38 1592.14 666.38C1590.59 666.38 1589.26 665.282 1589.26 663.032ZM1599.32 668H1601.37V654.68H1599.32V668ZM1604.06 668H1606.12V654.68H1604.06V668ZM1618.26 663.032C1618.26 659.918 1616.03 657.92 1613.2 657.92C1610.38 657.92 1608.14 659.918 1608.14 663.032C1608.14 666.146 1610.29 668.162 1613.11 668.162C1615.96 668.162 1618.26 666.146 1618.26 663.032ZM1610.23 663.032C1610.23 660.782 1611.62 659.702 1613.17 659.702C1614.7 659.702 1616.15 660.782 1616.15 663.032C1616.15 665.282 1614.64 666.38 1613.11 666.38C1611.56 666.38 1610.23 665.282 1610.23 663.032ZM1622.22 668H1624.38L1626.37 660.674L1628.37 668H1630.53L1633.61 658.082H1631.59L1629.54 666.02L1627.53 658.082H1625.38L1623.28 666.056L1621.21 658.082H1619.12L1622.22 668ZM1648.8 658.082H1646.75V663.608C1646.75 665.426 1645.76 666.362 1644.25 666.362C1642.75 666.362 1641.76 665.426 1641.76 663.608V658.082H1639.73V663.914C1639.73 666.686 1641.49 668.144 1643.81 668.144C1644.98 668.144 1646.1 667.658 1646.75 666.812V668H1648.8V658.082ZM1658.91 665.228C1658.8 661.646 1653.2 662.762 1653.2 660.764C1653.2 660.098 1653.78 659.648 1654.87 659.648C1655.99 659.648 1656.66 660.242 1656.73 661.106H1658.78C1658.67 659.126 1657.2 657.92 1654.95 657.92C1652.61 657.92 1651.13 659.198 1651.13 660.782C1651.13 664.418 1656.89 663.302 1656.89 665.246C1656.89 665.93 1656.26 666.434 1655.07 666.434C1653.94 666.434 1653.16 665.768 1653.09 664.958H1650.97C1651.06 666.758 1652.73 668.162 1655.11 668.162C1657.45 668.162 1658.91 666.902 1658.91 665.228Z" fill="#121242"/>
<g opacity="0.5">
<path d="M1595.48 699.521C1588.59 699.521 1583 705.029 1583 711.824C1583 717.26 1586.58 721.872 1591.54 723.499C1592.16 723.613 1592.36 723.231 1592.36 722.907V720.617C1588.89 721.361 1588.17 719.165 1588.17 719.165C1587.6 717.743 1586.78 717.364 1586.78 717.364C1585.65 716.601 1586.87 716.617 1586.87 716.617C1588.12 716.703 1588.78 717.885 1588.78 717.885C1589.89 719.766 1591.7 719.222 1592.41 718.908C1592.52 718.113 1592.84 717.57 1593.2 717.263C1590.43 716.95 1587.52 715.895 1587.52 711.182C1587.52 709.838 1588 708.741 1588.8 707.88C1588.67 707.569 1588.25 706.317 1588.92 704.623C1588.92 704.623 1589.97 704.293 1592.36 705.884C1593.35 705.612 1594.42 705.475 1595.48 705.47C1596.54 705.475 1597.61 705.612 1598.61 705.884C1600.99 704.293 1602.04 704.623 1602.04 704.623C1602.71 706.318 1602.29 707.57 1602.16 707.88C1602.96 708.741 1603.44 709.839 1603.44 711.182C1603.44 715.908 1600.52 716.948 1597.74 717.253C1598.19 717.634 1598.6 718.383 1598.6 719.531V722.907C1598.6 723.234 1598.8 723.619 1599.43 723.498C1604.39 721.869 1607.96 717.258 1607.96 711.824C1607.96 705.029 1602.37 699.521 1595.48 699.521Z" fill="#121242"/>
</g>
<line x1="201" y1="881.5" x2="1720" y2="881.5" stroke="#D0D0D9"/>
<defs>
<clipPath id="clip0">
<rect width="85" height="78" fill="white" transform="translate(868 281)"/>
</clipPath>
</defs>
</svg>
