<svg width="56" height="56" viewBox="0 0 56 56" fill="none" xmlns="http://www.w3.org/2000/svg">
<path d="M9.71912 47.1134C9.71912 47.094 9.72025 47.0745 9.72252 47.0552C10.2221 42.794 12.8184 38.35 16.806 36.8872C14.7194 28.6194 14.7642 16.2117 26.8992 3.92356L26.8991 3.92354L26.9024 3.92027L27.682 3.14538C27.7766 3.05138 27.9048 2.99905 28.0381 3.00001C28.1715 3.00098 28.2989 3.05517 28.3921 3.15053L29.1946 3.97168L29.1959 3.97302C41.1432 16.2901 41.1238 28.6041 38.9156 36.8604C42.9474 38.2869 45.5838 42.7755 46.0942 47.066C46.111 47.2078 46.0664 47.3502 45.9715 47.457C45.8766 47.5639 45.7406 47.625 45.5977 47.625H34.5568C33.8631 50.6815 31.1544 52.9567 27.9084 52.9567C24.662 52.9567 21.9544 50.6708 21.2603 47.625H10.2191C9.94297 47.625 9.71912 47.4012 9.71912 47.125V47.1134Z" stroke="white" stroke-linecap="round" stroke-linejoin="round"/>
<path d="M33.641 20.1356C33.641 23.306 31.075 25.8747 27.9113 25.8747C24.7476 25.8747 22.1816 23.306 22.1816 20.1356C22.1816 16.9653 24.7476 14.3965 27.9113 14.3965C31.075 14.3965 33.641 16.9653 33.641 20.1356Z" stroke="white"/>
</svg>
