<svg width="62" height="62" viewBox="0 0 62 62" fill="none" xmlns="http://www.w3.org/2000/svg">
<path d="M41.3327 56.8348V46.8373C41.4296 45.6055 41.2632 44.3672 40.8445 43.2046C40.4258 42.0421 39.7644 40.982 38.9043 40.0948C47.016 39.1907 55.541 36.1165 55.541 22.0115C55.5404 18.4047 54.153 14.9363 51.666 12.324C52.8436 9.16848 52.7604 5.68058 51.4335 2.58484C51.4335 2.58484 48.3852 1.68067 41.3327 6.40817C35.4117 4.80346 29.1703 4.80346 23.2493 6.40817C16.1968 1.68067 13.1485 2.58484 13.1485 2.58484C11.8217 5.68058 11.7384 9.16848 12.916 12.324C10.4105 14.9556 9.0217 18.4555 9.04102 22.089C9.04102 36.0907 17.566 39.1648 25.6777 40.1723C24.8278 41.0506 24.1723 42.098 23.7539 43.2463C23.3355 44.3946 23.1636 45.6182 23.2493 46.8373V56.8348M23.2493 49.0848C10.3327 52.9598 10.3327 42.6265 5.16602 41.3348L23.2493 49.0848Z" stroke="white" stroke-width="2" stroke-linecap="round" stroke-linejoin="round"/>
</svg>
