<svg width="62" height="62" viewBox="0 0 62 62" fill="none" xmlns="http://www.w3.org/2000/svg">
<path fill-rule="evenodd" clip-rule="evenodd" d="M26.1975 5.89647C24.6216 5.60841 23.043 5.31583 21.4645 5.02326L21.4642 5.0232L21.4639 5.02315C19.8855 4.73061 18.3071 4.43807 16.7314 4.15004C16.2069 4.0415 15.6891 4.36275 15.6048 4.84481C15.4918 5.31926 15.8143 5.83281 16.2345 5.92896L16.4297 5.96655C16.9984 6.07611 17.5846 6.18903 18.1392 6.28129C18.3009 6.30891 18.4699 6.33843 18.6388 6.36795C18.8078 6.39747 18.9767 6.427 19.1385 6.45461C20.2517 6.65823 21.3935 6.86945 22.5354 7.08067L22.5382 7.0812L24.651 7.47952C14.3235 10.5218 6.78125 19.9565 6.78125 31.1257C6.78125 42.4863 14.5836 52.0508 25.1809 54.9458C25.697 55.0868 26.2297 54.7827 26.3707 54.2666C26.5117 53.7504 26.2076 53.2178 25.6915 53.0768C15.8947 50.4005 8.71875 41.5701 8.71875 31.1257C8.71875 21.1376 15.2812 12.6269 24.4204 9.58216L24.0657 10.5893C23.4616 12.3093 22.8653 14.0007 22.2508 15.7025C22.1217 16.0657 22.2013 16.4537 22.4421 16.701C22.6618 16.9121 22.9881 17.014 23.3033 16.9294C23.3867 16.9057 23.47 16.8819 23.5429 16.8401C23.7797 16.7042 23.9535 16.4599 24.0749 16.1252C24.7744 14.1096 25.492 12.0835 26.1943 10.1145C26.5016 9.26353 26.8165 8.38408 27.1133 7.51508C27.2347 7.18041 27.3477 6.70596 27.1693 6.39879C27.0014 6.10968 26.5421 5.98785 26.1975 5.89647ZM37.5831 8.07005C37.7279 7.55501 38.2629 7.25491 38.7779 7.39977C49.2508 10.3453 56.951 19.861 56.951 31.1458C56.951 42.0689 49.7365 51.3344 39.7763 54.5885L40.7834 55.1057C41.818 55.6325 42.8527 56.1593 43.862 56.6706C44.0091 56.743 44.1626 56.8193 44.3161 56.8955C44.4695 56.9717 44.6229 57.0479 44.77 57.1202C45.2749 57.3659 45.8041 57.6403 46.3176 57.9066L46.4943 57.9982C46.8694 58.2096 47.0311 58.7932 46.7866 59.2159C46.5674 59.654 45.979 59.815 45.5074 59.5622C44.0796 58.839 42.6506 58.1108 41.2216 57.3825C39.7927 56.6544 38.3638 55.9262 36.9362 55.2031C36.6322 55.0178 36.2269 54.7707 36.149 54.446C36.0662 54.101 36.3107 53.6783 36.5231 53.392C37.057 52.6433 37.6113 51.8898 38.1501 51.1614C39.3883 49.4735 40.6578 47.7352 41.9067 46.0018C42.1191 45.7155 42.3559 45.5306 42.6218 45.4675C42.7036 45.4481 42.7903 45.449 42.877 45.4499H42.8771C43.2034 45.4583 43.4869 45.6484 43.637 45.9132C43.7967 46.2185 43.7617 46.6129 43.5337 46.9244C42.4562 48.3811 41.3991 49.8331 40.3265 51.3101L39.3149 52.7005C48.4442 49.6539 55.0135 41.1385 55.0135 31.1458C55.0135 20.7698 47.9305 11.9867 38.2533 9.26491C37.7383 9.12005 37.4382 8.58509 37.5831 8.07005ZM30.4472 36.3011C29.8645 37.4233 29.2872 38.5351 28.7161 39.6356C28.5622 39.9026 28.2545 40.3223 27.6584 40.2079C27.3122 40.1125 27.043 39.8073 26.9661 39.4257C26.9757 39.4066 26.9853 39.3828 26.9949 39.3589C27.0045 39.3351 27.0141 39.3112 27.0238 39.2922C27.1007 39.0823 27.1776 38.8916 27.2545 38.7199C29.2738 34.8282 31.2738 30.9747 33.6777 26.3772C34.3469 25.0679 34.9263 23.9904 35.52 22.8862L35.5816 22.7716C35.8316 22.3138 36.2932 22.1802 36.7547 22.4092C37.1778 22.619 37.2932 23.0769 37.0624 23.5347C34.8092 27.9 32.5916 32.1709 30.4472 36.3011ZM16.0385 32.1199C17.1538 33.0641 18.2691 34.0131 19.3845 34.9621L19.3877 34.9649C20.5021 35.9131 21.6165 36.8613 22.7309 37.8048C23.0963 38.1291 23.654 38.11 23.9425 37.7666C24.2502 37.4423 24.2309 36.8891 23.9425 36.622L23.8051 36.5034C23.4052 36.1583 22.993 35.8025 22.5963 35.4774C22.4809 35.382 22.3607 35.2819 22.2405 35.1817C22.1203 35.0816 22.0001 34.9814 21.8847 34.886C21.0963 34.2183 20.2886 33.5316 19.4808 32.8448L17.6539 31.2805L19.8847 29.3728C21.154 28.2854 22.404 27.2171 23.6732 26.1488C23.9425 25.9199 24.0579 25.5765 23.9809 25.2713C23.904 25.0042 23.6925 24.7753 23.404 24.699C23.3271 24.6799 23.2501 24.6608 23.1732 24.6608C22.9232 24.6608 22.6732 24.7753 22.4232 24.9851C20.9424 26.2633 19.4424 27.5414 17.9808 28.7814C17.3462 29.3156 16.6923 29.8688 16.0577 30.422C15.8077 30.6319 15.5 30.9562 15.5 31.2805C15.5 31.5857 15.8077 31.891 16.0385 32.1199ZM40.2475 37.6145C39.9398 37.2139 40.0168 36.7179 40.4398 36.3554C40.8501 36.0057 41.2603 35.6581 41.6705 35.3105C42.4911 34.6152 43.3116 33.92 44.1322 33.2077L46.3823 31.281L44.4784 29.6594C44.0118 29.2583 43.5452 28.8628 43.0817 28.4697C42.6854 28.1338 42.2914 27.7997 41.9014 27.4656L41.1514 26.8361C41.0072 26.7121 40.8679 26.593 40.7286 26.4738C40.5891 26.3545 40.4495 26.2352 40.3052 26.1111C39.9398 25.8059 39.8821 25.2908 40.1706 24.9474C40.3437 24.7567 40.5552 24.6231 40.7668 24.6041H40.8437C41.0168 24.6041 41.1706 24.6804 41.3245 24.7948C42.2441 25.5412 43.1637 26.3164 44.058 27.0703C44.1923 27.1835 44.326 27.2963 44.4591 27.4084C44.7234 27.6443 44.9967 27.8712 45.2666 28.0952C45.3896 28.1973 45.5118 28.2988 45.6322 28.4004C45.7572 28.5053 45.8822 28.615 46.0072 28.7247C46.1323 28.8344 46.2573 28.944 46.3823 29.049L46.4592 29.1144C46.9738 29.5521 47.5059 30.0046 48.0554 30.4225C48.3631 30.6514 48.5361 30.9376 48.5361 31.2428C48.5361 31.529 48.4015 31.8342 48.1323 32.044C46.69 33.2268 45.2476 34.4477 43.8437 35.6496C43.4495 35.9834 43.0505 36.322 42.6514 36.6606C42.2524 36.9992 41.8533 37.3379 41.4591 37.6717C41.2668 37.8434 41.0168 37.9197 40.786 37.9006C40.5745 37.8815 40.3821 37.7671 40.2475 37.6145Z" fill="white"/>
</svg>
