<svg width="62" height="62" viewBox="0 0 62 62" fill="none" xmlns="http://www.w3.org/2000/svg">
<path d="M40.1013 17.9958C49.773 17.4718 57.1562 14.6747 57.1562 11.3027C57.1562 7.55755 48.048 4.52148 36.8125 4.52148C25.577 4.52148 16.4688 7.55755 16.4688 11.3027C16.4688 11.8384 16.6551 12.3596 17.0074 12.8595" stroke="white" stroke-linecap="round" stroke-linejoin="round"/>
<path d="M57.156 27.125C57.156 30.4841 49.9101 33.2635 40.2832 33.8091" stroke="white" stroke-linecap="round" stroke-linejoin="round"/>
<path d="M57.1562 11.3027V42.9486C57.1562 46.3145 49.8808 49.0983 40.2246 49.636" stroke="white" stroke-linecap="round" stroke-linejoin="round"/>
<path d="M37.9897 13.7168H4.875C4.04657 13.7168 3.375 14.3884 3.375 15.2168V55.1897C3.375 56.0182 4.04657 56.6897 4.875 56.6897H37.9897C38.8182 56.6897 39.4897 56.0182 39.4897 55.1897V15.2168C39.4897 14.3884 38.8182 13.7168 37.9897 13.7168Z" stroke="white" stroke-linecap="round" stroke-linejoin="round"/>
<path d="M7.36719 38.6466C7.83948 39.0934 7.9533 39.4475 8.29965 39.9883C9.59844 38.7185 10.2975 37.8327 11.4546 36.4375" fill="white"/>
<path d="M7.36719 38.6466C7.83948 39.0934 7.9533 39.4475 8.29965 39.9883C9.59844 38.7185 10.2975 37.8327 11.4546 36.4375" stroke="white" stroke-miterlimit="10" stroke-linecap="round" stroke-linejoin="round"/>
<path d="M16.1172 39.166C22.8407 39.166 26.88 39.166 33.6035 39.166H16.1172Z" fill="white"/>
<path d="M16.1172 39.166C22.8407 39.166 26.88 39.166 33.6035 39.166" stroke="white" stroke-miterlimit="10" stroke-linecap="round" stroke-linejoin="round"/>
<path d="M7.36719 47.2716C7.83948 47.7184 7.9533 47.7632 8.29965 48.3041C9.59844 47.0343 10.2975 46.4577 11.4546 45.0625" fill="white"/>
<path d="M7.36719 47.2716C7.83948 47.7184 7.9533 47.7632 8.29965 48.3041C9.59844 47.0343 10.2975 46.4577 11.4546 45.0625" stroke="white" stroke-miterlimit="10" stroke-linecap="round" stroke-linejoin="round"/>
<path d="M16.1172 47.3516C22.8407 47.3516 26.88 47.3516 33.6035 47.3516H16.1172Z" fill="white"/>
<path d="M16.1172 47.3516C22.8407 47.3516 26.88 47.3516 33.6035 47.3516" stroke="white" stroke-miterlimit="10" stroke-linecap="round" stroke-linejoin="round"/>
<path d="M7.36719 25.6328C10.626 25.6407 12.5939 25.6566 15.8527 25.6645L7.36719 25.6328Z" fill="white"/>
<path d="M7.36719 25.6328C10.626 25.6407 12.5939 25.6566 15.8527 25.6645" stroke="white" stroke-miterlimit="10" stroke-linecap="round" stroke-linejoin="round"/>
<path d="M7.06445 19.8125C17.4391 19.8204 23.6812 19.8362 34.0637 19.8441L7.06445 19.8125Z" fill="white"/>
<path d="M7.06445 19.8125C17.4391 19.8204 23.6812 19.8362 34.0637 19.8441" stroke="white" stroke-miterlimit="10" stroke-linecap="round" stroke-linejoin="round"/>
</svg>
