<svg width="62" height="62" viewBox="0 0 62 62" fill="none" xmlns="http://www.w3.org/2000/svg">
<path d="M21.4175 58.125L21.2912 58.6088C21.3324 58.6195 21.3749 58.625 21.4175 58.625V58.125ZM14.2934 53.7834L14.6073 53.3943L14.607 53.3941L14.2934 53.7834ZM25.6301 48.5078L25.1456 48.3844L25.6301 48.5078ZM27.4446 41.8342L26.9758 41.6605C26.9732 41.6675 26.9708 41.6745 26.9685 41.6815L27.4446 41.8342ZM27.6142 41.4523L27.1604 41.2424H27.1604L27.6142 41.4523ZM28.045 40.4134L28.5248 40.5542C28.6015 40.2927 28.4547 40.0179 28.1947 39.9364L28.045 40.4134ZM33.5248 40.5384L33.3973 40.0549C33.1367 40.1237 32.9775 40.3865 33.0373 40.6492L33.5248 40.5384ZM34.8519 44.0472L35.3102 43.8474L34.8519 44.0472ZM34.9173 44.1975L34.4586 44.3965L34.4596 44.3989L34.9173 44.1975ZM36.4214 47.6197L35.9636 47.8208L36.4214 47.6197ZM39.1634 53.8498L39.6211 53.6485L39.6207 53.6477L39.1634 53.8498ZM40.8412 57.0894L41.256 56.8102L41.2533 56.8063L40.8412 57.0894ZM41.3058 57.501L41.1812 57.9852C41.1869 57.9867 41.1925 57.988 41.1981 57.9893L41.3058 57.501ZM41.8607 57.408L42.0332 57.8775L42.0443 57.8731L41.8607 57.408ZM57.8126 27.2694L57.3183 27.3444L57.3183 27.3445L57.8126 27.2694ZM31.2519 3.87538L31.2493 4.37538L31.2494 4.37538L31.2519 3.87538ZM11.3895 12.293L11.7475 12.642L11.7476 12.6419L11.3895 12.293ZM4.11046 28.1191L4.60632 28.1833L4.60638 28.1828L4.11046 28.1191ZM8.09844 46.7466L8.52416 46.4844L8.5237 46.4837L8.09844 46.7466ZM21.5438 57.6412C19.1258 57.0099 16.6052 55.0063 14.6073 53.3943L13.9794 54.1726C15.9308 55.747 18.6243 57.9124 21.2912 58.6088L21.5438 57.6412ZM22.3693 57.625H21.4175V58.625H22.3693V57.625ZM25.1456 48.3844C24.5375 50.7714 23.9285 53.1613 23.3711 54.9549C23.0916 55.8542 22.8314 56.5827 22.5977 57.0796C22.4797 57.3307 22.3798 57.4978 22.3023 57.5945C22.2033 57.718 22.2256 57.625 22.3693 57.625V58.625C22.7158 58.625 22.954 58.3803 23.0826 58.2199C23.2326 58.0326 23.3718 57.7834 23.5027 57.5051C23.7668 56.9434 24.0434 56.161 24.3261 55.2517C24.8929 53.4278 25.5089 51.0092 26.1147 48.6313L25.1456 48.3844ZM26.9685 41.6815C26.4061 43.4357 25.776 45.9099 25.1456 48.3844L26.1147 48.6313C26.7481 46.1448 27.3698 43.7053 27.9208 41.9868L26.9685 41.6815ZM27.1604 41.2424C27.0884 41.3982 27.0128 41.5605 26.9758 41.6605L27.9135 42.0078C27.9331 41.9549 27.9856 41.8403 28.068 41.6622L27.1604 41.2424ZM27.5653 40.2726C27.4919 40.5228 27.3148 40.9086 27.1604 41.2424L28.068 41.6622C28.2097 41.3559 28.4257 40.8921 28.5248 40.5542L27.5653 40.2726ZM28.1947 39.9364C24.394 38.7438 21.6378 35.1934 21.6378 31.0005H20.6378C20.6378 35.6428 23.6897 39.5709 27.8954 40.8905L28.1947 39.9364ZM21.6378 31.0005C21.6378 25.8291 25.83 21.6369 31.0014 21.6369V20.6369C25.2777 20.6369 20.6378 25.2768 20.6378 31.0005H21.6378ZM31.0014 21.6369C36.1728 21.6369 40.365 25.8291 40.365 31.0005H41.365C41.365 25.2768 36.7251 20.6369 31.0014 20.6369V21.6369ZM40.365 31.0005C40.365 35.3432 37.4083 38.9966 33.3973 40.0549L33.6524 41.0218C38.0915 39.8505 41.365 35.8084 41.365 31.0005H40.365ZM35.3102 43.8474C34.9688 43.0639 34.2196 41.339 34.0124 40.4276L33.0373 40.6492C33.2706 41.6754 34.0704 43.5055 34.3935 44.2469L35.3102 43.8474ZM35.3759 43.9984C35.3566 43.9538 35.3345 43.9031 35.3102 43.8474L34.3935 44.2469C34.4178 44.3028 34.4396 44.3527 34.4586 44.3965L35.3759 43.9984ZM36.8792 47.4186C36.3787 46.2792 35.8776 45.1385 35.3749 43.9961L34.4596 44.3989C34.9621 45.5409 35.4631 46.6813 35.9636 47.8208L36.8792 47.4186ZM39.6207 53.6477C38.7039 51.5728 37.7925 49.4978 36.8792 47.4186L35.9636 47.8208C36.8768 49.8998 37.7887 51.9758 38.706 54.0519L39.6207 53.6477ZM41.2533 56.8063C40.6 55.8552 40.1139 54.7693 39.6211 53.6485L38.7057 54.0511C39.1937 55.1608 39.7143 56.332 40.429 57.3725L41.2533 56.8063ZM41.4303 57.0167C41.4393 57.019 41.4266 57.0194 41.3904 56.9838C41.3522 56.9461 41.3106 56.8913 41.256 56.8102L40.4263 57.3685C40.5325 57.5263 40.7682 57.879 41.1812 57.9852L41.4303 57.0167ZM41.6883 56.9387C41.5969 56.9723 41.5338 56.9937 41.4792 57.0053C41.4268 57.0164 41.4102 57.012 41.4134 57.0127L41.1981 57.9893C41.5448 58.0657 41.8777 57.9345 42.0332 57.8774L41.6883 56.9387ZM57.3183 27.3445C59.1226 39.2131 52.8566 52.5296 41.6771 56.943L42.0443 57.8731C53.7345 53.2581 60.168 39.4366 58.307 27.1942L57.3183 27.3445ZM31.2494 4.37538C44.0821 4.44047 55.3407 14.3163 57.3183 27.3444L58.307 27.1943C56.2579 13.6951 44.5953 3.44306 31.2545 3.37539L31.2494 4.37538ZM11.7476 12.6419C16.9081 7.3462 23.9804 4.33629 31.2493 4.37538L31.2546 3.37539C23.7073 3.33481 16.3765 6.45885 11.0314 11.944L11.7476 12.6419ZM4.60638 28.1828C5.39552 22.0418 7.42327 17.0775 11.7475 12.642L11.0315 11.9439C6.52794 16.5633 4.42574 21.7426 3.61454 28.0554L4.60638 28.1828ZM8.5237 46.4837C5.17754 41.0725 3.78202 34.5497 4.60632 28.1833L3.6146 28.0549C2.7611 34.6468 4.20493 41.401 7.67318 47.0096L8.5237 46.4837ZM14.607 53.3941C12.2124 51.465 10.1465 49.1182 8.52416 46.4844L7.67272 47.0089C9.35435 49.739 11.4958 52.1719 13.9797 54.1728L14.607 53.3941Z" fill="white"/>
</svg>
