<svg width="66" height="71" viewBox="0 0 66 71" fill="none" xmlns="http://www.w3.org/2000/svg">
<path d="M4.31646 43.7897C4.31991 43.7837 4.32349 43.7778 4.32718 43.772C4.33429 43.7608 4.34185 43.7499 4.34983 43.7392C7.21784 39.9246 12.2759 37.1689 17.0336 38.082C19.5251 28.9504 26.4302 17.0562 45.3286 12.2408L45.3286 12.2408L45.3331 12.2397L46.5388 11.9443C46.8016 11.8799 47.0679 12.0363 47.1398 12.2971L47.4841 13.5466L47.4846 13.5484C52.5607 32.2433 45.7001 44.0435 38.9226 50.6858C42.1568 54.3391 42.3151 60.1636 40.4399 64.5896C40.384 64.7216 40.2741 64.8232 40.1383 64.8687C40.0024 64.9142 39.8536 64.8992 39.7295 64.8276L28.678 58.447C26.3076 60.9997 22.3614 61.6223 19.1572 59.7723C15.9526 57.9222 14.5256 54.1835 15.5448 50.8645L4.49306 44.4838C4.25392 44.3457 4.17198 44.04 4.31005 43.8008L4.31646 43.7897Z" stroke="white" stroke-linecap="round" stroke-linejoin="round"/>
<path d="M42.8777 32.0328C41.0647 35.1731 37.0107 36.2389 33.818 34.3956C30.6254 32.5523 29.5214 28.5085 31.3344 25.3683C33.1474 22.2281 37.2014 21.1622 40.3941 23.0055C43.5868 24.8488 44.6908 28.8926 42.8777 32.0328Z" stroke="white"/>
</svg>
