<svg width="62" height="62" viewBox="0 0 62 62" fill="none" xmlns="http://www.w3.org/2000/svg">
<line x1="37.6749" y1="14.9749" x2="47.1419" y2="44.2217" stroke="white"/>
<line y1="-0.5" x2="30.9669" y2="-0.5" transform="matrix(0.948935 0.315471 -0.316986 0.94843 15.1602 39.5508)" stroke="white"/>
<line x1="33.2477" y1="12.6635" x2="12.3683" y2="31.3654" stroke="white"/>
<path d="M51.2314 44.3744C47.4242 44.3744 44.3378 47.4526 44.3378 51.2497C44.3378 55.0468 47.4241 58.125 51.2314 58.125C55.0386 58.125 58.125 55.0468 58.125 51.2497C58.125 47.4526 55.0386 44.3744 51.2314 44.3744Z" stroke="white" stroke-miterlimit="10"/>
<path d="M9.62642 30.5412C6.45372 30.5412 3.88174 33.1063 3.88174 36.2706C3.88174 39.4349 6.45372 42 9.62642 42C12.7991 42 15.3711 39.4349 15.3711 36.2706C15.3711 33.1063 12.7991 30.5412 9.62642 30.5412Z" stroke="white" stroke-miterlimit="10"/>
<path d="M37.478 3.87714C34.3053 3.87714 31.7333 6.44228 31.7333 9.60654C31.7333 12.7708 34.3053 15.3359 37.478 15.3359C40.6507 15.3359 43.2227 12.7708 43.2227 9.60654C43.2227 6.44228 40.6507 3.87714 37.478 3.87714Z" stroke="white" stroke-miterlimit="10"/>
</svg>
