<svg width="62" height="62" viewBox="0 0 62 62" fill="none" xmlns="http://www.w3.org/2000/svg">
<path d="M3.875 51.8718C3.875 39.2191 14.0112 28.9453 26.528 28.9453C33.9062 28.9453 38.75 32.9376 39.7188 33.9064" stroke="white" stroke-linecap="round" stroke-linejoin="round"/>
<path d="M35.8047 19.375C35.8047 24.4491 31.6913 28.5625 26.6172 28.5625C21.5431 28.5625 17.4297 24.4491 17.4297 19.375C17.4297 14.3009 21.5431 10.1875 26.6172 10.1875C31.6913 10.1875 35.8047 14.3009 35.8047 19.375Z" stroke="white"/>
<path d="M57.1983 35.0195H39.3607C37.9534 35.0195 36.8125 36.4864 36.8125 38.2958V49.7628C36.8125 51.5723 37.9534 53.0391 39.3607 53.0391H57.1983C58.6057 53.0391 59.7465 51.5723 59.7465 49.7628V38.2958C59.7465 36.4864 58.6057 35.0195 57.1983 35.0195Z" stroke="white" stroke-linecap="round" stroke-linejoin="round"/>
<path d="M40.0938 35.0191V28.4666C40.0917 26.4353 40.8445 24.4758 42.2059 22.9684C43.5674 21.461 45.4404 20.5132 47.4613 20.3091C49.4823 20.1049 51.507 20.659 53.1424 21.8637C54.7778 23.0684 55.9072 24.8378 56.3114 26.8284" stroke="white" stroke-linecap="round" stroke-linejoin="round"/>
</svg>
