<svg width="62" height="62" viewBox="0 0 62 62" fill="none" xmlns="http://www.w3.org/2000/svg">
<path d="M23.8145 31.623C26.3047 31.623 44.3371 31.623 46.4584 31.623" stroke="white" stroke-miterlimit="10"/>
<path d="M52.47 36.923C55.5934 36.923 58.1255 34.396 58.1255 31.2789C58.1255 28.1617 55.5934 25.6348 52.47 25.6348C49.3465 25.6348 46.8145 28.1617 46.8145 31.2789C46.8145 34.396 49.3465 36.923 52.47 36.923Z" stroke="white" stroke-miterlimit="10"/>
<path d="M23.1211 25.8144C26.8129 24.2987 41.1535 17.3457 43.275 16.2871" stroke="white" stroke-miterlimit="10"/>
<path d="M48.1633 19.0401C51.2868 19.0401 53.8189 16.5132 53.8189 13.396C53.8189 10.2789 51.2868 7.75195 48.1633 7.75195C45.0399 7.75195 42.5078 10.2789 42.5078 13.396C42.5078 16.5132 45.0399 19.0401 48.1633 19.0401Z" stroke="white" stroke-miterlimit="10"/>
<path d="M20.998 37.4609C23.1195 38.5195 40.0912 45.9297 42.2127 46.9882" stroke="white" stroke-miterlimit="10"/>
<path d="M48.1633 54.253C51.2868 54.253 53.8189 51.7261 53.8189 48.6089C53.8189 45.4918 51.2868 42.9648 48.1633 42.9648C45.0399 42.9648 42.5078 45.4918 42.5078 48.6089C42.5078 51.7261 45.0399 54.253 48.1633 54.253Z" stroke="white" stroke-miterlimit="10"/>
<path d="M13.9348 41.0673C19.4907 41.0673 23.9947 36.5724 23.9947 31.0278C23.9947 25.4831 19.4907 20.9883 13.9348 20.9883C8.37894 20.9883 3.875 25.4831 3.875 31.0278C3.875 36.5724 8.37894 41.0673 13.9348 41.0673Z" stroke="white" stroke-miterlimit="10"/>
</svg>
