<svg width="62" height="63" viewBox="0 0 62 63" fill="none" xmlns="http://www.w3.org/2000/svg">
<path d="M58.051 33.1048C57.6888 27.7323 55.8539 22.8417 52.5946 18.5774C49.7698 14.8673 46.1966 12.0485 41.9715 10.1934C38.7846 8.79612 35.5253 8.02518 32.3383 7.92881C30.6483 7.88063 28.91 7.88063 27.2441 7.85654C26.4474 7.85654 25.6265 7.85654 24.8298 7.85654C24.6608 7.85654 24.5159 7.83245 24.3469 7.83245C24.2745 7.83245 24.1779 7.80836 24.0572 7.80836L22.2464 7.6879L24.6366 5.20644C25.7955 4.00184 26.9061 2.84544 28.0167 1.68903C28.1616 1.54448 28.2581 1.37583 28.3064 1.25537C28.4513 0.845812 28.3064 0.436251 27.9926 0.219424C27.389 -0.166045 27.0027 0.0748732 26.7612 0.2917C26.4232 0.604894 26.1335 0.918088 25.7955 1.27947C25.6265 1.4722 25.4575 1.64084 25.2885 1.83358C24.6125 2.55633 23.9123 3.255 23.2363 3.97775C21.9326 5.3028 20.6288 6.65195 19.3251 8.00109C18.7457 8.60339 18.7457 9.03704 19.3251 9.63933C20.2667 10.6512 21.2807 11.7112 22.6086 13.0604L23.4053 13.8795C24.4676 15.0118 25.6024 16.1682 26.6888 17.2764C27.0992 17.7101 27.6787 17.7342 28.0891 17.3246C28.4996 16.9151 28.4754 16.4091 28.0167 15.9273C27.4855 15.3491 26.9544 14.795 26.3991 14.2409C25.7472 13.5422 25.0712 12.8676 24.3711 12.1208L22.0774 9.7357H24.8781C25.5058 9.7357 26.1577 9.7357 26.7854 9.7357C28.1616 9.7357 29.5619 9.7357 30.9622 9.7357C38.1086 9.80798 44.1927 12.3858 49.0455 17.3969C54.0432 22.5767 56.4092 28.8405 56.0954 35.9958C55.7815 42.9343 52.9809 48.8368 47.7901 53.5106C42.8407 57.9917 36.9014 60.1599 30.1413 59.9431C24.1296 59.7745 18.7698 57.6303 14.1826 53.5829C11.5751 51.2941 9.52293 48.4995 8.07433 45.2953C6.09458 40.9587 5.41856 36.309 6.04629 31.4906C6.45673 28.431 7.42246 25.5159 9.04006 22.5526C9.18492 22.2635 9.23321 21.9744 9.16078 21.7334C9.08835 21.5166 8.94349 21.3239 8.7262 21.2275C8.53305 21.1311 8.36405 21.083 8.21919 21.083C7.78461 21.083 7.49489 21.4443 7.35003 21.6853C6.26358 23.5885 5.44271 25.6122 4.86327 27.7564C3.10081 34.2612 3.68025 40.6214 6.57744 46.6926C8.87106 51.511 12.396 55.3657 17.0798 58.1603C21.2566 60.6659 25.8921 61.9668 30.8415 62.015C34.3905 62.0391 37.9155 61.3645 41.2955 59.9913C45.8827 58.1121 49.6974 55.197 52.6187 51.3182C56.6507 45.9216 58.4855 39.8023 58.051 33.1048Z" fill="white"/>
<path d="M26.8591 45.5341C30.2151 39.0293 33.74 32.2113 37.3373 25.2005C37.6271 24.6223 37.4822 24.0441 36.951 23.7791C36.3716 23.49 35.7922 23.6587 35.4783 24.2369C34.7057 25.6824 33.9573 27.0797 33.0881 28.7902C30.0702 34.5964 27.5593 39.4629 25.0243 44.3777C24.9277 44.5945 24.8311 44.8354 24.7345 45.1004C24.7104 45.1486 24.6863 45.2209 24.6621 45.269C24.7587 45.7509 25.0967 46.1364 25.5313 46.2568C26.2797 46.4014 26.666 45.8713 26.8591 45.5341Z" fill="white"/>
<path d="M10.9455 36.0449C13.7462 38.43 16.5468 40.8392 19.3474 43.2243C19.8061 43.6338 20.5063 43.6098 20.8684 43.1761C21.2547 42.7665 21.2306 42.0679 20.8684 41.7306C20.3131 41.2488 19.7337 40.7428 19.1784 40.2851C18.8887 40.0442 18.5748 39.7792 18.2851 39.5382C17.2952 38.695 16.2812 37.8277 15.2672 36.9604L12.9736 34.9849L15.7742 32.5757C17.3677 31.2025 18.937 29.8533 20.5304 28.5042C20.8684 28.2151 21.0133 27.7814 20.9167 27.3959C20.8202 27.0587 20.5546 26.7696 20.1924 26.6732C20.0959 26.6491 19.9993 26.625 19.9027 26.625C19.5888 26.625 19.275 26.7696 18.9611 27.0346C17.1021 28.6487 15.2189 30.2629 13.384 31.8288C12.5873 32.5034 11.7664 33.2021 10.9697 33.9007C10.6558 34.1657 10.2695 34.5753 10.2695 34.9849C10.2695 35.3703 10.6558 35.7558 10.9455 36.0449Z" fill="white"/>
<path d="M41.5836 41.3914C41.0524 41.8491 40.9559 42.4755 41.3422 42.9814C41.5112 43.1742 41.7526 43.3187 42.0182 43.3428C42.3079 43.3669 42.6218 43.2705 42.8632 43.0537C43.8531 42.2105 44.8671 41.3432 45.857 40.5C47.6194 38.9822 49.4302 37.4403 51.2409 35.9466C51.5789 35.6816 51.7479 35.2961 51.7479 34.9347C51.7479 34.5493 51.5306 34.1879 51.1443 33.8988C50.42 33.3447 49.7199 32.7424 49.0439 32.1642C48.73 31.8992 48.4161 31.6101 48.1023 31.3451C47.6194 30.9355 47.1124 30.5259 46.6295 30.0923C45.35 29.0082 44.0221 27.8758 42.6942 26.7917C42.501 26.6471 42.3079 26.5508 42.0906 26.5508C42.0665 26.5508 42.0423 26.5508 41.994 26.5508C41.7285 26.5749 41.4629 26.7435 41.2456 26.9844C40.8834 27.4181 40.9559 28.0686 41.4146 28.454C41.7767 28.7672 42.1147 29.0563 42.4769 29.3695C42.7908 29.6345 43.1046 29.8995 43.4185 30.1646C44.4808 31.08 45.5672 31.9955 46.6537 32.9351L49.0439 34.9829L46.2191 37.4162C44.6739 38.7653 43.1288 40.0663 41.5836 41.3914Z" fill="white"/>
</svg>
