<svg width="62" height="62" viewBox="0 0 62 62" fill="none" xmlns="http://www.w3.org/2000/svg">
<path d="M29.2894 12.5938L14.2812 39.7188M34.6494 12.5938L49.4063 39.2647M15.5 42.625H47.4688" stroke="white"/>
<path d="M27.5459 10.2785L14.5312 17.7187M36.2836 10.2168L48.6966 17.313M52.3125 25.1876V37.7814M48.4375 44.8516L36.1783 51.8478M27.5015 51.7007L14.9936 44.5626M11.625 37.7814V25.1876" stroke="white" stroke-miterlimit="10"/>
<path d="M31.8887 58.7715C34.5638 58.7715 36.7324 56.6029 36.7324 53.9277C36.7324 51.2526 34.5638 49.084 31.8887 49.084C29.2135 49.084 27.0449 51.2526 27.0449 53.9277C27.0449 56.6029 29.2135 58.7715 31.8887 58.7715Z" stroke="white" stroke-miterlimit="10"/>
<path d="M31.8887 13.5625C34.5638 13.5625 36.7324 11.3939 36.7324 8.71875C36.7324 6.04362 34.5638 3.875 31.8887 3.875C29.2135 3.875 27.0449 6.04362 27.0449 8.71875C27.0449 11.3939 29.2135 13.5625 31.8887 13.5625Z" stroke="white" stroke-miterlimit="10"/>
<path d="M52.6992 24.8613C55.3743 24.8613 57.543 22.6927 57.543 20.0176C57.543 17.3424 55.3743 15.1738 52.6992 15.1738C50.0241 15.1738 47.8555 17.3424 47.8555 20.0176C47.8555 22.6927 50.0241 24.8613 52.6992 24.8613Z" stroke="white" stroke-miterlimit="10"/>
<path d="M52.6992 47.4688C55.3743 47.4688 57.543 45.3001 57.543 42.625C57.543 39.9499 55.3743 37.7812 52.6992 37.7812C50.0241 37.7812 47.8555 39.9499 47.8555 42.625C47.8555 45.3001 50.0241 47.4688 52.6992 47.4688Z" stroke="white" stroke-miterlimit="10"/>
<path d="M10.6563 24.8613C13.3314 24.8613 15.5 22.6927 15.5 20.0176C15.5 17.3424 13.3314 15.1738 10.6563 15.1738C7.98112 15.1738 5.8125 17.3424 5.8125 20.0176C5.8125 22.6927 7.98112 24.8613 10.6563 24.8613Z" stroke="white" stroke-miterlimit="10"/>
<path d="M10.6563 47.4688C13.3314 47.4688 15.5 45.3001 15.5 42.625C15.5 39.9499 13.3314 37.7812 10.6563 37.7812C7.98112 37.7812 5.8125 39.9499 5.8125 42.625C5.8125 45.3001 7.98112 47.4688 10.6563 47.4688Z" stroke="white" stroke-miterlimit="10"/>
</svg>
