<svg width="172" height="36" viewBox="0 0 172 36" fill="none" xmlns="http://www.w3.org/2000/svg">
<path d="M0 18.0221C0 27.0425 6.60814 34.4521 15.1108 35.4876V0.556641C6.60814 1.59214 0 9.00174 0 18.0221Z" fill="#7950ED"/>
<path d="M34.3038 18.0217C34.3038 8.95529 27.628 1.49967 19.0352 0.533203V35.5332H34.2812V18.5049C34.3038 18.3439 34.3038 18.1828 34.3038 18.0217Z" fill="#7950ED"/>
<path d="M49.5166 18.0449C51.366 18.0449 52.629 18.9424 53.3056 19.9088V18.229H56.2376V29.9417H53.3056V28.2389C52.629 29.2514 51.3209 30.1488 49.4941 30.1488C46.5847 30.1488 44.2617 27.7096 44.2617 24.0508C44.2617 20.3921 46.5847 18.0449 49.5166 18.0449ZM50.2609 20.6452C48.7047 20.6452 47.2388 21.8418 47.2388 24.0508C47.2388 26.2599 48.7047 27.5485 50.2609 27.5485C51.8622 27.5485 53.3056 26.329 53.3056 24.0969C53.3056 21.8648 51.8622 20.6452 50.2609 20.6452Z" fill="white"/>
<path d="M75.2505 23.474C75.2505 21.6101 74.2356 20.6437 72.7019 20.6437C71.1458 20.6437 70.1309 21.6101 70.1309 23.474V29.9402H67.2215V23.474C67.2215 21.6101 66.2066 20.6437 64.6729 20.6437C63.0942 20.6437 62.0793 21.6101 62.0793 23.474V29.9402H59.1699V18.2275H62.0793V19.6542C62.801 18.6877 64.0189 18.0664 65.4623 18.0664C67.244 18.0664 68.71 18.8488 69.4994 20.2985C70.2436 18.9638 71.7547 18.0664 73.4462 18.0664C76.1977 18.0664 78.1599 19.8383 78.1599 23.0828V29.9632H75.2505V23.474Z" fill="white"/>
<path d="M87.7218 18.0449C90.6763 18.0449 92.9767 20.3921 92.9767 24.0508C92.9767 27.7096 90.6763 30.1488 87.7218 30.1488C85.9175 30.1488 84.632 29.2284 83.9328 28.2849V35.5334H81.0234V18.229H83.9328V19.9318C84.6094 18.9193 85.9401 18.0449 87.7218 18.0449ZM86.955 20.6452C85.3988 20.6452 83.9328 21.8648 83.9328 24.0969C83.9328 26.3289 85.3988 27.5485 86.955 27.5485C88.5337 27.5485 89.9997 26.2829 89.9997 24.0508C89.9997 21.8188 88.5337 20.6452 86.955 20.6452Z" fill="white"/>
<path d="M95.1875 14.293H98.0969V29.9636H95.1875V14.293Z" fill="white"/>
<path d="M100.734 15.0989C100.734 14.1324 101.479 13.373 102.516 13.373C103.531 13.373 104.298 14.1324 104.298 15.0989C104.298 16.0654 103.531 16.8247 102.516 16.8247C101.479 16.8247 100.734 16.0654 100.734 15.0989ZM101.05 18.2284H103.96V29.9411H101.05V18.2284Z" fill="white"/>
<path d="M111.853 18.0449C114.718 18.0449 116.635 19.5637 117.266 22.1869H114.131C113.793 21.1975 113.026 20.5531 111.831 20.5531C110.207 20.5531 109.124 21.7957 109.124 24.0969C109.124 26.375 110.207 27.6176 111.831 27.6176C113.026 27.6176 113.77 27.0653 114.131 26.0068H117.266C116.635 28.515 114.718 30.1488 111.853 30.1488C108.538 30.1488 106.17 27.7787 106.17 24.0969C106.17 20.4151 108.538 18.0449 111.853 18.0449Z" fill="white"/>
<path d="M124.011 18.0449C125.86 18.0449 127.123 18.9424 127.8 19.9088V18.229H130.732V29.9417H127.8V28.2389C127.123 29.2514 125.815 30.1488 123.988 30.1488C121.079 30.1488 118.756 27.7096 118.756 24.0508C118.756 20.3921 121.079 18.0449 124.011 18.0449ZM124.755 20.6452C123.199 20.6452 121.733 21.8418 121.733 24.0508C121.733 26.2599 123.199 27.5485 124.755 27.5485C126.356 27.5485 127.8 26.329 127.8 24.0969C127.8 21.8648 126.356 20.6452 124.755 20.6452Z" fill="white"/>
<path d="M134.137 20.6667H132.762V18.2275H134.137V15.3281H137.069V18.2275H139.64V20.6667H137.047V26.3275C137.047 27.1098 137.363 27.455 138.265 27.455H139.618V29.9632H137.791C135.603 29.9632 134.115 29.0198 134.115 26.3275V20.6667H134.137Z" fill="white"/>
<path d="M141.512 15.0989C141.512 14.1324 142.256 13.373 143.293 13.373C144.308 13.373 145.075 14.1324 145.075 15.0989C145.075 16.0654 144.308 16.8247 143.293 16.8247C142.256 16.8247 141.512 16.0654 141.512 15.0989ZM141.827 18.2284H144.737V29.9411H141.827V18.2284Z" fill="white"/>
<path d="M152.788 30.1488C149.472 30.1488 146.969 27.7787 146.969 24.0969C146.969 20.3921 149.562 18.0449 152.878 18.0449C156.193 18.0449 158.787 20.3921 158.787 24.0969C158.787 27.7787 156.148 30.1488 152.788 30.1488ZM152.788 27.5716C154.321 27.5716 155.787 26.421 155.787 24.0969C155.787 21.7497 154.366 20.6222 152.81 20.6222C151.254 20.6222 149.878 21.7497 149.878 24.0969C149.923 26.421 151.231 27.5716 152.788 27.5716Z" fill="white"/>
<path d="M169.071 23.4756C169.071 21.5886 168.056 20.5762 166.523 20.5762C164.944 20.5762 163.929 21.5886 163.929 23.4756V29.9417H161.02V18.229H163.929V19.6787C164.673 18.6892 165.914 18.0449 167.402 18.0449C170.086 18.0449 171.98 19.8168 171.98 23.0614V29.9417H169.071V23.4756Z" fill="white"/>
</svg>
