<svg width="130" height="27" viewBox="0 0 130 27" fill="none" xmlns="http://www.w3.org/2000/svg">
<path d="M0 13.2195C0 20.038 4.99507 25.6389 11.4222 26.4216V0.0174255C4.99507 0.800159 0 6.40105 0 13.2195Z" fill="white"/>
<path d="M25.9302 13.2195C25.9302 6.36623 20.884 0.730551 14.3887 0V26.4564H25.9131V13.5848C25.9302 13.463 25.9302 13.3413 25.9302 13.2195Z" fill="white"/>
<path d="M37.4292 13.2369C38.8272 13.2369 39.7818 13.9153 40.2933 14.6458V13.3761H42.5095V22.2297H40.2933V20.9425C39.7818 21.7078 38.7931 22.3862 37.4122 22.3862C35.213 22.3862 33.457 20.5424 33.457 17.7768C33.457 15.0111 35.213 13.2369 37.4292 13.2369ZM37.9918 15.2024C36.8155 15.2024 35.7074 16.1069 35.7074 17.7768C35.7074 19.4466 36.8155 20.4207 37.9918 20.4207C39.2022 20.4207 40.2933 19.4988 40.2933 17.8116C40.2933 16.1243 39.2022 15.2024 37.9918 15.2024Z" fill="white"/>
<path d="M56.8818 17.3419C56.8818 15.933 56.1146 15.2024 54.9554 15.2024C53.7791 15.2024 53.0119 15.933 53.0119 17.3419V22.2296H50.8127V17.3419C50.8127 15.933 50.0455 15.2024 48.8863 15.2024C47.6929 15.2024 46.9258 15.933 46.9258 17.3419V22.2296H44.7266V13.3761H46.9258V14.4545C47.4713 13.7239 48.3919 13.2543 49.483 13.2543C50.8298 13.2543 51.9379 13.8457 52.5346 14.9415C53.0971 13.9327 54.2394 13.2543 55.518 13.2543C57.5978 13.2543 59.081 14.5936 59.081 17.0462V22.247H56.8818V17.3419Z" fill="white"/>
<path d="M66.3074 13.2369C68.5407 13.2369 70.2796 15.0111 70.2796 17.7768C70.2796 20.5424 68.5407 22.3862 66.3074 22.3862C64.9436 22.3862 63.9718 21.6904 63.4433 20.9773V26.4564H61.2441V13.3761H63.4433V14.6632C63.9548 13.8979 64.9606 13.2369 66.3074 13.2369ZM65.7278 15.2024C64.5515 15.2024 63.4433 16.1243 63.4433 17.8116C63.4433 19.4988 64.5515 20.4207 65.7278 20.4207C66.9211 20.4207 68.0293 19.464 68.0293 17.7768C68.0293 16.0895 66.9211 15.2024 65.7278 15.2024Z" fill="white"/>
<path d="M71.9512 10.4017H74.1504V22.247H71.9512V10.4017Z" fill="white"/>
<path d="M76.1445 11.0105C76.1445 10.2799 76.7071 9.7059 77.4913 9.7059C78.2585 9.7059 78.8381 10.2799 78.8381 11.0105C78.8381 11.741 78.2585 12.315 77.4913 12.315C76.7071 12.315 76.1445 11.741 76.1445 11.0105ZM76.3832 13.3761H78.5824V22.2296H76.3832V13.3761Z" fill="white"/>
<path d="M84.55 13.2369C86.7151 13.2369 88.1642 14.3849 88.6415 16.3678H86.2718C86.0161 15.6199 85.4365 15.1329 84.5329 15.1329C83.3055 15.1329 82.4872 16.0721 82.4872 17.8116C82.4872 19.5336 83.3055 20.4728 84.5329 20.4728C85.4365 20.4728 85.9991 20.0554 86.2718 19.2553H88.6415C88.1642 21.1512 86.7151 22.3862 84.55 22.3862C82.0439 22.3862 80.2539 20.5946 80.2539 17.8116C80.2539 15.0285 82.0439 13.2369 84.55 13.2369Z" fill="white"/>
<path d="M93.7398 13.2369C95.1377 13.2369 96.0924 13.9153 96.6038 14.6458V13.3761H98.8201V22.2297H96.6038V20.9425C96.0924 21.7078 95.1036 22.3862 93.7227 22.3862C91.5235 22.3862 89.7676 20.5424 89.7676 17.7768C89.7676 15.0111 91.5235 13.2369 93.7398 13.2369ZM94.3023 15.2024C93.126 15.2024 92.0179 16.1069 92.0179 17.7768C92.0179 19.4466 93.126 20.4207 94.3023 20.4207C95.5127 20.4207 96.6038 19.4988 96.6038 17.8116C96.6038 16.1243 95.5127 15.2024 94.3023 15.2024Z" fill="white"/>
<path d="M101.393 15.2198H100.354V13.3761H101.393V11.1844H103.61V13.3761H105.553V15.2198H103.593V19.4988C103.593 20.0902 103.831 20.3511 104.513 20.3511H105.536V22.247H104.155C102.502 22.247 101.376 21.5339 101.376 19.4988V15.2198H101.393Z" fill="white"/>
<path d="M106.969 11.0105C106.969 10.2799 107.531 9.7059 108.316 9.7059C109.083 9.7059 109.662 10.2799 109.662 11.0105C109.662 11.741 109.083 12.315 108.316 12.315C107.531 12.315 106.969 11.741 106.969 11.0105ZM107.207 13.3761H109.407V22.2296H107.207V13.3761Z" fill="white"/>
<path d="M115.492 22.3862C112.986 22.3862 111.094 20.5946 111.094 17.8116C111.094 15.0111 113.054 13.2369 115.56 13.2369C118.066 13.2369 120.027 15.0111 120.027 17.8116C120.027 20.5946 118.032 22.3862 115.492 22.3862ZM115.492 20.4381C116.651 20.4381 117.76 19.5684 117.76 17.8116C117.76 16.0374 116.686 15.185 115.509 15.185C114.333 15.185 113.293 16.0374 113.293 17.8116C113.327 19.5684 114.316 20.4381 115.492 20.4381Z" fill="white"/>
<path d="M127.801 17.3419C127.801 15.9156 127.034 15.1503 125.875 15.1503C124.681 15.1503 123.914 15.9156 123.914 17.3419V22.2296H121.715V13.3761H123.914V14.4719C124.477 13.7239 125.414 13.2369 126.539 13.2369C128.568 13.2369 130 14.5763 130 17.0288V22.2296H127.801V17.3419Z" fill="white"/>
</svg>
