<svg width="33" height="32" viewBox="0 0 33 32" fill="none" xmlns="http://www.w3.org/2000/svg">
<path d="M16.582 0C7.74736 0 0.582031 7.34511 0.582031 16.4045C0.582031 23.6525 5.16603 29.8015 11.5247 31.971C12.3234 32.1227 12.582 31.6142 12.582 31.1822V28.1282C8.13136 29.1207 7.2047 26.1925 7.2047 26.1925C6.4767 24.2964 5.42736 23.792 5.42736 23.792C3.97536 22.7735 5.53803 22.7954 5.53803 22.7954C7.1447 22.9102 7.99003 24.4864 7.99003 24.4864C9.4167 26.9936 11.7327 26.2691 12.646 25.8494C12.7887 24.7899 13.2034 24.0654 13.662 23.6566C10.1087 23.2397 6.3727 21.833 6.3727 15.5487C6.3727 13.7565 6.99803 12.2938 8.0207 11.1455C7.85536 10.7313 7.30736 9.06211 8.1767 6.80376C8.1767 6.80376 9.5207 6.36357 12.578 8.48522C13.854 8.12159 15.222 7.93977 16.582 7.93294C17.942 7.93977 19.3114 8.12159 20.59 8.48522C23.6447 6.36357 24.986 6.80376 24.986 6.80376C25.8567 9.06348 25.3087 10.7326 25.1434 11.1455C26.17 12.2938 26.79 13.7579 26.79 15.5487C26.79 21.8494 23.0474 23.237 19.4847 23.643C20.058 24.1515 20.582 25.1494 20.582 26.6805V31.1822C20.582 31.6183 20.838 32.1309 21.65 31.9696C28.0034 29.7974 32.582 23.6498 32.582 16.4045C32.582 7.34511 25.418 0 16.582 0Z" fill="#121242"/>
</svg>
