<svg width="33" height="33" viewBox="0 0 33 33" fill="none" xmlns="http://www.w3.org/2000/svg">
<g clip-path="url(#clip0)">
<path d="M15.537 0C16.1861 0 16.8352 0 17.4634 0C17.5471 0.0209391 17.6309 0.0418782 17.7146 0.0628173C19.7248 0.188452 21.6512 0.670051 23.4729 1.57043C28.5611 4.06218 31.6601 8.08249 32.7489 13.6523C32.8745 14.2805 32.9164 14.9296 33.0002 15.5577C33.0002 16.2069 33.0002 16.856 33.0002 17.4841C32.9792 17.5679 32.9583 17.6726 32.9374 17.7563C32.7698 20.0596 32.1836 22.2373 31.0528 24.2475C28.0167 29.6497 23.3891 32.6022 17.1912 32.9791C14.2178 33.1675 11.391 32.5184 8.7946 31.0736C3.37137 28.0374 0.418962 23.389 0.0211189 17.191C-0.167333 14.2176 0.481779 11.3699 1.92658 8.75254C4.50208 4.10406 8.39675 1.25635 13.6315 0.251269C14.2597 0.146574 14.8879 0.0837563 15.537 0ZM27.7445 7.16117C26.8231 7.68464 25.9228 8.04061 24.9805 8.27094C24.7502 8.33376 24.6036 8.29188 24.4152 8.12437C22.9494 6.8052 21.2534 6.44924 19.4317 7.09835C17.589 7.7684 16.5002 9.15038 16.2489 11.1187C16.1861 11.6631 16.228 12.2284 16.228 12.7938C12.2077 12.5216 8.87835 10.8046 6.24003 7.70558C5.69561 8.66878 5.48622 9.67386 5.61185 10.7208C5.77937 12.1656 6.4913 13.3173 7.68482 14.1758C7.66389 14.2176 7.64295 14.2386 7.62201 14.2805C6.93102 14.092 6.24003 13.9036 5.5281 13.6942C5.5281 14.8039 5.88406 15.809 6.59599 16.7094C7.30792 17.5888 8.22924 18.1542 9.31807 18.4683C8.98305 18.5311 8.64802 18.5939 8.29206 18.6148C7.95703 18.6358 7.62201 18.6148 7.26604 18.6148C7.58013 19.578 8.16642 20.3528 8.96211 20.96C9.75779 21.5673 10.6791 21.8813 11.7051 21.9651C9.63216 23.5774 7.28698 24.2056 4.69054 24.0381C5.27683 24.3731 5.84219 24.7081 6.42848 24.9803C9.1715 26.1948 11.9983 26.467 14.9297 25.9016C18.4266 25.2316 21.2115 23.4099 23.2635 20.5203C25.1061 17.9448 26.0275 15.0343 25.9646 11.8515C25.9646 11.7259 26.0484 11.5793 26.1322 11.4746C26.4672 11.1605 26.8441 10.8883 27.1582 10.5533C27.577 10.1136 27.9539 9.65292 28.3517 9.17132C27.4304 9.42259 26.5719 9.65292 25.7134 9.88325C25.6924 9.84137 25.6924 9.82043 25.6715 9.77855C26.6556 9.17132 27.3466 8.33376 27.7445 7.16117Z" fill="#121242"/>
</g>
<defs>
<clipPath id="clip0">
<rect width="33" height="33" fill="white"/>
</clipPath>
</defs>
</svg>
