<svg width="400" height="400" viewBox="0 0 400 400" fill="none" xmlns="http://www.w3.org/2000/svg">
<g clip-path="url(#clip0)">
<ellipse cx="203.035" cy="191.348" rx="60" ry="59.1133" stroke="#8F5BFF" stroke-width="2"/>
<path d="M173.266 366.785L143.036 385.337" stroke="url(#paint0_linear)" stroke-width="2" stroke-miterlimit="10"/>
<path d="M258.934 6.14258L228.978 23.4909" stroke="url(#paint1_linear)" stroke-width="2" stroke-miterlimit="10"/>
<path d="M294.227 238.617L313.723 249.707" stroke="white" stroke-width="2"/>
<path fill-rule="evenodd" clip-rule="evenodd" d="M293.906 238.39C295.977 234.856 294.748 230.337 291.161 228.297C287.574 226.256 282.987 227.467 280.916 231.001C278.845 234.535 280.074 239.055 283.661 241.095C287.248 243.135 291.835 241.925 293.906 238.39Z" stroke="#7950ED" stroke-width="1.5"/>
<path d="M280.229 231.082L263.036 221.303" stroke="url(#paint2_linear)" stroke-width="2"/>
<path d="M339.721 294.918C356.289 294.918 369.721 281.685 369.721 265.361C369.721 249.038 356.289 235.805 339.721 235.805C323.152 235.805 309.721 249.038 309.721 265.361C309.721 281.685 323.152 294.918 339.721 294.918Z" stroke="white" stroke-width="2" stroke-miterlimit="10"/>
<path d="M111.844 245.867L92.3476 256.957" stroke="white" stroke-width="2"/>
<path fill-rule="evenodd" clip-rule="evenodd" d="M112.164 245.64C110.093 242.106 111.322 237.587 114.909 235.547C118.496 233.506 123.083 234.717 125.154 238.251C127.225 241.785 125.996 246.305 122.409 248.345C118.822 250.385 114.235 249.175 112.164 245.64Z" stroke="#7950ED" stroke-width="1.5"/>
<path d="M125.842 238.332L143.034 228.553" stroke="url(#paint3_linear)" stroke-width="2"/>
<path d="M66.3496 302.168C49.7811 302.168 36.3496 288.935 36.3496 272.611C36.3496 256.288 49.7811 243.055 66.3496 243.055C82.9181 243.055 96.3496 256.288 96.3496 272.611C96.3496 288.935 82.9181 302.168 66.3496 302.168Z" stroke="white" stroke-width="2" stroke-miterlimit="10"/>
<path d="M297.912 144.711L317.408 133.621" stroke="white" stroke-width="2"/>
<path fill-rule="evenodd" clip-rule="evenodd" d="M297.592 144.938C299.663 148.472 298.434 152.991 294.847 155.032C291.26 157.072 286.673 155.861 284.602 152.327C282.53 148.793 283.76 144.274 287.347 142.233C290.934 140.193 295.521 141.404 297.592 144.938Z" stroke="#7950ED" stroke-width="1.5"/>
<path d="M283.914 152.246L266.722 162.025" stroke="url(#paint4_linear)" stroke-width="2"/>
<path d="M343.406 88.4102C359.975 88.4102 373.406 101.643 373.406 117.967C373.406 134.29 359.975 147.523 343.406 147.523C326.838 147.523 313.406 134.29 313.406 117.967C313.406 101.643 326.838 88.4102 343.406 88.4102Z" stroke="white" stroke-width="2" stroke-miterlimit="10"/>
<path d="M111.844 144.018L92.3476 132.928" stroke="white" stroke-width="2"/>
<path fill-rule="evenodd" clip-rule="evenodd" d="M112.164 144.244C110.093 147.779 111.322 152.298 114.909 154.338C118.496 156.379 123.083 155.168 125.154 151.634C127.225 148.099 125.996 143.58 122.409 141.54C118.822 139.499 114.235 140.71 112.164 144.244Z" stroke="#7950ED" stroke-width="1.5"/>
<path d="M125.842 151.553L143.034 161.332" stroke="url(#paint5_linear)" stroke-width="2"/>
<path d="M66.3496 87.7168C49.7811 87.7168 36.3496 100.95 36.3496 117.273C36.3496 133.597 49.7811 146.83 66.3496 146.83C82.9181 146.83 96.3496 133.597 96.3496 117.273C96.3496 100.95 82.9181 87.7168 66.3496 87.7168Z" stroke="white" stroke-width="2" stroke-miterlimit="10"/>
<path d="M202.215 89.9473L202.215 67.7677" stroke="white" stroke-width="2"/>
<path fill-rule="evenodd" clip-rule="evenodd" d="M202.176 90.333C198.034 90.333 194.676 93.6412 194.676 97.7222C194.676 101.803 198.034 105.111 202.176 105.111C206.318 105.111 209.676 101.803 209.676 97.7222C209.676 93.6412 206.318 90.333 202.176 90.333Z" stroke="#7950ED" stroke-width="1.5"/>
<path d="M202.59 105.658L202.59 125.217" stroke="url(#paint6_linear)" stroke-width="2"/>
<path d="M228.886 23.049C220.562 8.87381 202.215 3.96784 187.905 12.0912C173.595 20.2146 168.742 38.2911 177.066 52.4663C185.389 66.6415 203.737 71.5475 218.047 63.4242C232.356 55.3008 237.209 37.2242 228.886 23.049Z" stroke="white" stroke-width="2" stroke-miterlimit="10"/>
<path d="M199.523 298.006L199.523 320.185" stroke="white" stroke-width="2"/>
<path fill-rule="evenodd" clip-rule="evenodd" d="M199.148 297.54C203.291 297.54 206.648 294.232 206.648 290.151C206.648 286.07 203.291 282.762 199.148 282.762C195.006 282.762 191.648 286.07 191.648 290.151C191.648 294.232 195.006 297.54 199.148 297.54Z" stroke="#7950ED" stroke-width="1.5"/>
<path d="M199.157 282.107L199.148 262.737" stroke="url(#paint7_linear)" stroke-width="2"/>
<path d="M172.851 364.904C181.174 379.079 199.522 383.985 213.831 375.862C228.141 367.739 232.994 349.662 224.67 335.487C216.347 321.312 197.999 316.406 183.69 324.529C169.38 332.652 164.527 350.729 172.851 364.904Z" stroke="white" stroke-width="2" stroke-miterlimit="10"/>
</g>
<defs>
<linearGradient id="paint0_linear" x1="161.537" y1="374.52" x2="143.999" y2="385.337" gradientUnits="userSpaceOnUse">
<stop stop-color="white"/>
<stop offset="1" stop-color="white" stop-opacity="0"/>
</linearGradient>
<linearGradient id="paint1_linear" x1="241.089" y1="16.307" x2="258.934" y2="6.14258" gradientUnits="userSpaceOnUse">
<stop stop-color="white"/>
<stop offset="1" stop-color="white" stop-opacity="0"/>
</linearGradient>
<linearGradient id="paint2_linear" x1="276.536" y1="229.036" x2="263.317" y2="221.488" gradientUnits="userSpaceOnUse">
<stop stop-color="white"/>
<stop offset="1" stop-color="white" stop-opacity="0"/>
</linearGradient>
<linearGradient id="paint3_linear" x1="129.534" y1="236.286" x2="142.753" y2="228.738" gradientUnits="userSpaceOnUse">
<stop stop-color="white"/>
<stop offset="1" stop-color="white" stop-opacity="0"/>
</linearGradient>
<linearGradient id="paint4_linear" x1="280.222" y1="154.292" x2="267.003" y2="161.84" gradientUnits="userSpaceOnUse">
<stop stop-color="white"/>
<stop offset="1" stop-color="white" stop-opacity="0"/>
</linearGradient>
<linearGradient id="paint5_linear" x1="129.534" y1="153.599" x2="142.753" y2="161.147" gradientUnits="userSpaceOnUse">
<stop stop-color="white"/>
<stop offset="1" stop-color="white" stop-opacity="0"/>
</linearGradient>
<linearGradient id="paint6_linear" x1="202.637" y1="109.832" x2="202.803" y2="124.882" gradientUnits="userSpaceOnUse">
<stop stop-color="white"/>
<stop offset="1" stop-color="white" stop-opacity="0"/>
</linearGradient>
<linearGradient id="paint7_linear" x1="199.103" y1="278.121" x2="198.938" y2="263.07" gradientUnits="userSpaceOnUse">
<stop stop-color="white"/>
<stop offset="1" stop-color="white" stop-opacity="0"/>
</linearGradient>
<clipPath id="clip0">
<rect width="400" height="400" fill="white"/>
</clipPath>
</defs>
</svg>
