<svg width="400" height="400" viewBox="0 0 400 400" fill="none" xmlns="http://www.w3.org/2000/svg">
<g clip-path="url(#clip0)">
<path fill-rule="evenodd" clip-rule="evenodd" d="M366.252 321.549C366.252 337.913 352.792 351.152 336.22 351.152C319.647 351.152 306.187 337.913 306.187 321.549C306.187 305.186 319.647 291.946 336.22 291.946C352.792 291.946 366.252 305.186 366.252 321.549ZM336.22 349.152C351.716 349.152 364.252 336.78 364.252 321.549C364.252 306.318 351.716 293.946 336.22 293.946C320.724 293.946 308.187 306.318 308.187 321.549C308.187 336.78 320.724 349.152 336.22 349.152Z" fill="#7950ED"/>
<path fill-rule="evenodd" clip-rule="evenodd" d="M100.045 320.565C100.045 336.928 86.5849 350.168 70.0127 350.168C53.4404 350.168 39.9804 336.928 39.9804 320.565C39.9804 304.201 53.4404 290.962 70.0127 290.962C86.5849 290.962 100.045 304.201 100.045 320.565ZM70.0127 348.168C85.5085 348.168 98.0449 335.796 98.0449 320.565C98.0449 305.334 85.5085 292.962 70.0127 292.962C54.5168 292.962 41.9804 305.334 41.9804 320.565C41.9804 335.796 54.5168 348.168 70.0127 348.168Z" fill="#7950ED"/>
<path fill-rule="evenodd" clip-rule="evenodd" d="M243.097 79.5407C242.011 95.8689 227.702 108.214 211.165 107.147C194.628 106.08 182.075 92.0021 183.16 75.6739C184.245 59.3456 198.555 47.0005 215.092 48.0674C231.629 49.1343 244.182 63.2124 243.097 79.5407ZM211.298 105.152C226.76 106.149 240.09 94.6104 241.101 79.4119C242.111 64.2134 230.422 51.0605 214.959 50.063C199.497 49.0654 186.166 60.6042 185.156 75.8026C184.146 91.0011 195.835 104.154 211.298 105.152Z" fill="#7950ED"/>
<circle cx="139.41" cy="201.686" r="7.5" stroke="white" stroke-width="1.5"/>
<circle cx="275.238" cy="202.481" r="7.5" transform="rotate(63.7465 275.238 202.481)" stroke="white" stroke-width="1.5"/>
<path d="M184.939 324.84H92.9395" stroke="url(#paint0_linear)" stroke-width="2"/>
<path d="M142.912 195.346L189.889 116.236" stroke="url(#paint1_linear)" stroke-width="2"/>
<path d="M278.814 209.377L319.51 291.887" stroke="url(#paint2_linear)" stroke-width="2"/>
<circle cx="192.439" cy="325.342" r="7.5" stroke="white" stroke-width="1.5"/>
<path d="M334.189 265.34C367.327 265.34 394.189 292.203 394.189 325.34C394.189 358.477 367.327 385.34 334.189 385.34C301.052 385.34 274.189 358.477 274.189 325.34H224.689H199.939" stroke="white" stroke-width="2"/>
<path d="M119.904 354.038C103.336 382.736 66.6403 392.569 37.9428 376C9.24521 359.431 -0.587302 322.736 15.9812 294.038C32.5498 265.341 69.2452 255.508 97.9428 272.077L122.693 229.209L135.068 207.775" stroke="white" stroke-width="2"/>
<path d="M158.451 102.178C143.793 72.4591 156.002 36.4846 185.721 21.8266C215.44 7.16868 251.414 19.378 266.072 49.0968C280.73 78.8157 268.521 114.79 238.802 129.448L260.698 173.842L271.646 196.039" stroke="white" stroke-width="2"/>
</g>
<defs>
<linearGradient id="paint0_linear" x1="138.939" y1="324.84" x2="100.973" y2="325.163" gradientUnits="userSpaceOnUse">
<stop stop-color="white"/>
<stop offset="1" stop-color="white" stop-opacity="0"/>
</linearGradient>
<linearGradient id="paint1_linear" x1="171.537" y1="145.767" x2="194.729" y2="104.597" gradientUnits="userSpaceOnUse">
<stop stop-color="white"/>
<stop offset="1" stop-color="white" stop-opacity="0"/>
</linearGradient>
<linearGradient id="paint2_linear" x1="299.162" y1="250.632" x2="316.246" y2="284.539" gradientUnits="userSpaceOnUse">
<stop stop-color="white"/>
<stop offset="1" stop-color="white" stop-opacity="0"/>
</linearGradient>
<clipPath id="clip0">
<rect width="400" height="400" fill="white"/>
</clipPath>
</defs>
</svg>
