<svg width="1920" height="1024" viewBox="0 0 1920 1024" fill="none" xmlns="http://www.w3.org/2000/svg">
<mask id="mask0" mask-type="alpha" maskUnits="userSpaceOnUse" x="0" y="-1" width="1920" height="1025">
<rect y="-0.000488281" width="1920" height="1024" fill="white"/>
</mask>
<g mask="url(#mask0)">
<rect y="-0.000488281" width="1920" height="1024" fill="white"/>
<path d="M-9.48537e-06 -0.000473022L215 -0.00048242C215 119.896 118.792 217 0 217L-9.48537e-06 -0.000473022Z" fill="#7950ED"/>
<path d="M521.752 503.487C521.504 459.326 521.132 415.166 520.511 370.882C520.139 348.677 519.767 326.597 519.27 304.393C519.022 295.586 518.774 286.654 517.781 277.847C517.16 273.009 517.036 265.567 513.685 261.597C512.693 260.481 511.328 259.737 509.838 260.357C509.714 260.481 509.466 260.481 509.342 260.605C509.838 259.488 509.342 257.876 507.729 258C458.087 262.962 408.198 267.924 358.432 272.885C357.439 273.009 356.571 273.63 356.571 274.746C355.95 330.319 355.206 386.015 354.461 441.588C353.716 496.788 353.096 551.988 352.351 607.189C351.607 662.761 350.986 718.458 350.241 774.03C349.869 801.693 349.497 829.231 349.249 856.893C349.124 863.964 349.124 871.034 349 878.105C348.876 883.687 348.628 889.393 349.497 894.851C349.993 898.324 350.986 902.17 354.833 903.038C361.287 904.279 368.236 904.527 374.938 905.147C396.656 907.132 418.498 908.248 440.34 908C460.693 907.876 481.17 906.759 501.523 905.767C507.108 905.519 512.693 905.147 518.277 904.899C519.27 904.899 520.139 904.03 520.139 903.038C520.511 858.63 520.883 814.097 521.132 769.689C521.38 725.404 521.628 681.12 521.752 636.96C522 592.427 522 548.019 521.752 503.487ZM395.043 902.914C383.005 902.17 370.843 901.053 358.805 899.689C357.315 899.565 355.578 899.689 354.585 898.572C353.84 897.704 353.592 895.843 353.468 894.727C352.972 891.874 352.848 889.021 352.848 886.168C352.723 879.593 352.972 873.143 353.096 866.569C353.468 839.403 353.716 812.237 354.089 785.07C354.709 730.49 355.454 675.91 356.074 621.33C356.695 566.998 357.439 512.666 358.06 458.334C358.68 404.002 359.425 349.67 360.046 295.214C360.17 289.011 360.17 282.685 360.294 276.359C409.439 271.521 458.708 266.683 507.853 261.721C508.225 261.721 508.597 261.597 508.845 261.349C508.225 262.714 509.218 264.574 510.831 263.954C510.955 264.078 511.203 264.326 511.203 264.574C511.576 265.691 512.072 266.683 512.32 267.924C513.189 271.397 513.685 274.994 514.058 278.467C515.051 286.903 515.299 295.462 515.547 303.897C516.043 325.481 516.416 346.941 516.664 368.525C517.284 411.693 517.781 454.737 517.905 497.904C518.153 541.072 518.153 584.24 518.153 627.408C518.029 670.824 517.905 714.24 517.533 757.656C517.284 800.824 516.912 843.992 516.54 887.16C516.54 891.874 516.416 896.712 516.416 901.425C476.082 903.286 435.624 905.643 395.043 902.914Z" fill="#121242"/>
<path d="M1653 706.999C1486.76 706.999 1352 848.928 1352 1024L1954 1024C1954 848.928 1819.24 707 1653 706.999Z" fill="#A787FF"/>
<path d="M2160.92 366.728L2048.14 171.383C1952.92 226.355 1831.34 193.533 1776.63 98.7764C1721.71 3.65535 1754.29 -117.684 1849.5 -172.656L1736.72 -368C1533.53 -250.685 1463.9 8.67073 1581.1 211.668C1698.3 414.666 1957.72 484.043 2160.92 366.728Z" fill="#F4F4F7"/>
<path d="M1784.42 476.434C1782.31 476.107 1782.47 463.851 1782.47 462.381C1780.85 431.006 1781.82 399.304 1782.47 367.93C1782.96 347.013 1781.33 323.972 1785.07 303.383C1751.1 297.827 1714.69 299.134 1680.39 299.134C1656.99 299.134 1632.28 299.461 1609.04 302.729C1605.3 303.383 1612.78 343.091 1614.08 347.83C1617.98 361.72 1623.67 375.12 1631.14 387.539C1662.84 440.974 1722.49 476.597 1784.42 476.434Z" stroke="#121242" stroke-width="4" stroke-miterlimit="10"/>
</g>
</svg>
