<svg width="1920" height="1003" viewBox="0 0 1920 1003" fill="none" xmlns="http://www.w3.org/2000/svg">
<mask id="mask0" mask-type="alpha" maskUnits="userSpaceOnUse" x="0" y="0" width="1920" height="1003">
<rect width="1920" height="1003" transform="matrix(1 0 0 -1 0 1003)" fill="white"/>
</mask>
<g mask="url(#mask0)">
<rect width="1920" height="1010" transform="matrix(1 0 0 -1 0 1003)" fill="#F4F4F7"/>
<path d="M1748 603.889C1748 737.479 1861.34 845.778 2001.14 845.778V362C1861.34 362 1748 470.299 1748 603.889Z" fill="white"/>
<rect x="1742" y="861" width="84" height="84" fill="#41CADD"/>
<path d="M1890.01 801.694C1853.37 801.848 1816.74 802.078 1780.01 802.461C1761.59 802.691 1743.27 802.921 1724.85 803.227C1717.55 803.381 1710.14 803.534 1702.83 804.147C1698.82 804.53 1692.64 804.607 1689.35 806.676C1688.42 807.289 1687.81 808.132 1688.32 809.052C1688.42 809.129 1688.42 809.282 1688.53 809.359C1687.6 809.052 1686.26 809.359 1686.37 810.355C1690.48 841.012 1694.6 871.822 1698.71 902.555C1698.82 903.169 1699.33 903.705 1700.26 903.705C1746.36 904.088 1792.56 904.548 1838.66 905.008C1884.45 905.468 1930.24 905.851 1976.03 906.311C2022.13 906.771 2068.33 907.154 2114.43 907.614C2137.38 907.844 2160.22 908.074 2183.17 908.227C2189.03 908.304 2194.9 908.304 2200.76 908.38C2205.39 908.457 2210.13 908.61 2214.65 908.074C2217.53 907.767 2220.72 907.154 2221.45 904.778C2222.47 900.793 2222.68 896.501 2223.19 892.362C2224.84 878.95 2225.77 865.461 2225.56 851.972C2225.46 839.402 2224.53 826.756 2223.71 814.187C2223.5 810.738 2223.19 807.289 2222.99 803.84C2222.99 803.227 2222.27 802.691 2221.45 802.691C2184.61 802.461 2147.67 802.231 2110.83 802.078C2074.09 801.924 2037.36 801.771 2000.73 801.694C1963.78 801.541 1926.95 801.541 1890.01 801.694ZM2221.34 879.946C2220.72 887.38 2219.8 894.891 2218.67 902.325C2218.56 903.245 2218.67 904.318 2217.74 904.931C2217.02 905.391 2215.48 905.544 2214.55 905.621C2212.18 905.928 2209.82 906.004 2207.45 906.004C2202 906.081 2196.65 905.928 2191.19 905.851C2168.66 905.621 2146.12 905.468 2123.59 905.238C2078.31 904.855 2033.04 904.395 1987.76 904.012C1942.69 903.628 1897.62 903.169 1852.55 902.785C1807.48 902.402 1762.41 901.942 1717.24 901.559C1712.09 901.482 1706.84 901.482 1701.6 901.406C1697.58 871.056 1693.57 840.629 1689.45 810.278C1689.45 810.048 1689.35 809.818 1689.15 809.665C1690.28 810.048 1691.82 809.435 1691.31 808.439C1691.41 808.362 1691.61 808.209 1691.82 808.209C1692.75 807.979 1693.57 807.672 1694.6 807.519C1697.48 806.983 1700.46 806.676 1703.35 806.446C1710.34 805.833 1717.44 805.68 1724.44 805.526C1742.34 805.22 1760.15 804.99 1778.05 804.837C1813.86 804.453 1849.57 804.147 1885.37 804.07C1921.18 803.917 1956.99 803.917 1992.8 803.917C2028.82 803.994 2064.83 804.07 2100.85 804.3C2136.66 804.453 2172.46 804.683 2208.27 804.913C2212.18 804.913 2216.2 804.99 2220.11 804.99C2221.65 829.899 2223.61 854.884 2221.34 879.946Z" fill="#414168"/>
<path d="M-308 315.352L-308 170L204 170L204 315.352L-308 315.352Z" fill="white"/>
<path d="M0.250008 169L5.67488e-07 84.2984L87 84L0.250008 169Z" fill="#41CADD"/>
<path d="M29.3525 26.0003C30.4981 26.1771 30.41 32.808 30.41 33.6038C31.2912 50.5789 30.7625 67.7309 30.41 84.706C30.1456 96.0228 31.0268 108.489 29 119.629C47.4179 122.635 67.1576 121.928 85.7517 121.928C98.4415 121.928 111.836 121.751 124.438 119.983C126.465 119.629 122.411 98.1447 121.706 95.5807C119.591 88.0657 116.507 80.8159 112.453 74.0966C95.269 45.1858 62.9276 25.9119 29.3525 26.0003Z" stroke="#414168" stroke-width="2" stroke-miterlimit="10"/>
</g>
</svg>
