<svg width="1520" height="340" viewBox="0 0 1520 340" fill="none" xmlns="http://www.w3.org/2000/svg">
<mask id="mask0" mask-type="alpha" maskUnits="userSpaceOnUse" x="0" y="0" width="1520" height="340">
<rect width="1520" height="340" rx="4" fill="#121242"/>
</mask>
<g mask="url(#mask0)">
<path opacity="0.02" d="M505.334 -595L204.543 -323.118C320.872 -194.419 295.947 17.1601 150.041 149.043C3.5735 281.433 -208.879 284.417 -325.209 155.718L-626 427.599C-377.741 702.256 76.3641 695.878 388.94 413.345C701.516 130.811 753.593 -320.343 505.334 -595Z" fill="white"/>
<path opacity="0.02" d="M1877.11 333.271L1712.03 125.818C1612.29 205.188 1466.36 187.301 1386.28 86.6705C1305.9 -14.3467 1321.93 -160.481 1421.29 -239.547L1256.21 -447C1043.35 -277.617 1009.9 34.0866 1181.45 249.667C1352.99 465.248 1664.25 502.655 1877.11 333.271Z" fill="white"/>
<path opacity="0.1" d="M1851.5 -169.5C1851.5 177.899 1576.59 459.5 1237.5 459.5C898.408 459.5 623.5 177.899 623.5 -169.5C623.5 -516.899 898.408 -798.5 1237.5 -798.5C1576.59 -798.5 1851.5 -516.899 1851.5 -169.5Z" stroke="white"/>
<circle opacity="0.1" cx="125.5" cy="634.5" r="414" stroke="white"/>
<circle opacity="0.1" cx="1558.5" cy="497.5" r="414" stroke="white"/>
</g>
</svg>
