<svg width="312" height="376" viewBox="0 0 312 376" fill="none" xmlns="http://www.w3.org/2000/svg">
<mask id="mask0" mask-type="alpha" maskUnits="userSpaceOnUse" x="0" y="0" width="312" height="376">
<rect width="312" height="376" rx="4" fill="#A787FF"/>
</mask>
<g mask="url(#mask0)">
<path opacity="0.5" d="M-23.9668 268L-23.9668 345.57C9.22524 345.57 36.0587 376.251 36.0587 413.878C36.0587 451.65 9.22524 482.187 -23.9668 482.187L-23.9668 559.757C46.8683 559.757 104.223 494.488 104.223 413.878C104.223 333.269 46.8683 268 -23.9668 268Z" fill="#7950ED"/>
<path d="M87.9906 315.656C87.9906 327.019 78.9391 336.258 67.8049 336.258C56.6707 336.258 47.6191 327.019 47.6191 315.656C47.6191 304.292 56.6707 295.054 67.8049 295.054C78.9792 295.054 87.9906 304.292 87.9906 315.656Z" fill="#5D30D9"/>
<path d="M65.0467 407.221C64.975 389.888 64.8676 372.556 64.6885 355.175C64.5811 346.46 64.4736 337.794 64.3304 329.079C64.2588 325.623 64.1871 322.117 63.9006 318.661C63.7216 316.762 63.6857 313.841 62.7188 312.283C62.4323 311.845 62.0383 311.552 61.6085 311.796C61.5727 311.845 61.5011 311.845 61.4653 311.893C61.6085 311.455 61.4653 310.822 60.9997 310.871C46.6742 312.818 32.277 314.766 17.9157 316.713C17.6292 316.762 17.3785 317.005 17.3785 317.443C17.1994 339.255 16.9845 361.115 16.7697 382.926C16.5548 404.592 16.3757 426.257 16.1608 447.922C15.9459 469.734 15.7669 491.594 15.552 513.405C15.4445 524.262 15.3371 535.07 15.2655 545.927C15.2297 548.702 15.2297 551.478 15.1938 554.253C15.158 556.444 15.0864 558.683 15.3371 560.825C15.4804 562.189 15.7669 563.698 16.8771 564.039C18.7394 564.525 20.745 564.623 22.6789 564.866C28.9463 565.645 35.2496 566.083 41.5528 565.986C47.4263 565.937 53.3356 565.499 59.209 565.11C60.8206 565.012 62.4323 564.866 64.0439 564.769C64.3304 564.769 64.5811 564.428 64.5811 564.039C64.6885 546.609 64.796 529.131 64.8676 511.701C64.9392 494.32 65.0109 476.939 65.0467 459.607C65.1183 442.129 65.1183 424.699 65.0467 407.221ZM28.4808 563.99C25.0068 563.698 21.4971 563.26 18.0231 562.724C17.5934 562.675 17.092 562.724 16.8055 562.286C16.5906 561.945 16.519 561.215 16.4831 560.777C16.3399 559.657 16.3041 558.537 16.3041 557.417C16.2683 554.837 16.3399 552.305 16.3757 549.725C16.4831 539.063 16.5548 528.4 16.6622 517.738C16.8413 496.316 17.0562 474.894 17.2352 453.472C17.4143 432.148 17.6292 410.823 17.8083 389.499C17.9873 368.174 18.2022 346.85 18.3813 325.477C18.4171 323.042 18.4171 320.559 18.4529 318.076C32.6352 316.178 46.8533 314.279 61.0355 312.331C61.143 312.331 61.2504 312.283 61.322 312.185C61.143 312.721 61.4295 313.451 61.8951 313.208C61.9309 313.256 62.0025 313.354 62.0025 313.451C62.1099 313.889 62.2532 314.279 62.3248 314.766C62.5755 316.129 62.7188 317.541 62.8262 318.904C63.1127 322.215 63.1844 325.574 63.256 328.885C63.3992 337.356 63.5067 345.779 63.5783 354.25C63.7574 371.193 63.9006 388.087 63.9364 405.03C64.0081 421.973 64.0081 438.915 64.0081 455.858C63.9723 472.898 63.9364 489.938 63.829 506.978C63.7574 523.921 63.6499 540.864 63.5425 557.807C63.5425 559.657 63.5067 561.556 63.5067 563.406C51.8672 564.136 40.1919 565.061 28.4808 563.99Z" fill="white"/>
<path opacity="0.5" d="M432.743 151.542L381.429 87.0566C350.425 111.728 305.064 106.168 280.173 74.8877C255.186 43.4872 260.17 -1.93762 291.056 -26.5147L239.742 -91C173.576 -38.3484 163.177 58.5424 216.501 125.554C269.825 192.566 366.576 204.193 432.743 151.542Z" fill="#7950ED"/>
<rect x="228.072" y="60.665" width="136.88" height="47.6934" fill="#5D30D9"/>
<path d="M292.829 84.6781C292.147 84.5741 292.199 80.6754 292.199 80.2075C291.675 70.2267 291.99 60.1419 292.199 50.161C292.357 43.5071 291.832 36.1775 293.039 29.6276C282.07 27.8601 270.312 28.276 259.238 28.276C251.68 28.276 243.702 28.38 236.196 29.4196C234.989 29.6276 237.403 42.2595 237.823 43.7671C239.083 48.1857 240.92 52.4483 243.334 56.3991C253.569 73.3977 272.832 84.7301 292.829 84.6781Z" stroke="white" stroke-width="2" stroke-miterlimit="10"/>
</g>
</svg>
