<svg width="1520" height="340" viewBox="0 0 1520 340" fill="none" xmlns="http://www.w3.org/2000/svg">
<mask id="mask0" mask-type="alpha" maskUnits="userSpaceOnUse" x="0" y="0" width="1520" height="340">
<rect width="1520" height="340" rx="4" fill="#A787FF"/>
</mask>
<g mask="url(#mask0)">
<path opacity="0.5" d="M-59 0L-59 186.377C20.75 186.377 85.2222 260.093 85.2222 350.5C85.2222 441.254 20.75 514.623 -59 514.623L-59 701C111.194 701 249 544.179 249 350.5C249 156.821 111.194 -7.43944e-06 -59 0Z" fill="#7950ED"/>
<path opacity="0.5" d="M1778.73 341.544L1671.14 206.336C1606.14 258.065 1511.03 246.407 1458.84 180.821C1406.45 114.983 1416.9 19.7394 1481.66 -31.7919L1374.06 -167C1235.33 -56.6041 1213.53 146.549 1325.33 287.055C1437.14 427.56 1640 451.94 1778.73 341.544Z" fill="#7950ED"/>
<rect x="1349.6" y="151" width="287" height="100" fill="#5D30D9"/>
<path d="M1485.37 201.349C1483.94 201.131 1484.05 192.956 1484.05 191.975C1482.95 171.048 1483.61 149.903 1484.05 128.976C1484.38 115.025 1483.28 99.6566 1485.81 85.9232C1462.81 82.2173 1438.16 83.0893 1414.94 83.0893C1399.09 83.0893 1382.37 83.3073 1366.63 85.4872C1364.1 85.9232 1369.16 112.409 1370.04 115.57C1372.68 124.834 1376.53 133.772 1381.6 142.056C1403.06 177.697 1443.44 201.458 1485.37 201.349Z" stroke="white" stroke-width="2" stroke-miterlimit="10"/>
<path d="M210 114.5C210 141.804 188.252 164 161.5 164C134.748 164 113 141.804 113 114.5C113 87.1964 134.748 65 161.5 65C188.348 65 210 87.1964 210 114.5Z" fill="#5D30D9"/>
<path d="M154.871 334.505C154.699 292.861 154.441 251.217 154.01 209.456C153.752 188.517 153.494 167.695 153.15 146.756C152.978 138.451 152.806 130.028 152.117 121.723C151.687 117.161 151.601 110.142 149.278 106.399C148.589 105.346 147.643 104.644 146.61 105.229C146.524 105.346 146.352 105.346 146.266 105.463C146.61 104.41 146.266 102.889 145.147 103.006C110.728 107.685 76.1358 112.365 41.6301 117.044C40.9417 117.161 40.3393 117.746 40.3393 118.798C39.9091 171.204 39.3928 223.727 38.8765 276.133C38.3602 328.188 37.9299 380.243 37.4137 432.298C36.8974 484.703 36.4671 537.226 35.9508 589.632C35.6927 615.718 35.4345 641.687 35.2624 667.773C35.1764 674.441 35.1764 681.108 35.0903 687.776C35.0043 693.04 34.8322 698.421 35.4345 703.568C35.7787 706.844 36.4671 710.47 39.1346 711.289C43.6092 712.458 48.428 712.692 53.0746 713.277C68.1332 715.149 83.2779 716.202 98.4226 715.968C112.535 715.851 126.733 714.798 140.845 713.862C144.717 713.628 148.589 713.277 152.462 713.043C153.15 713.043 153.752 712.224 153.752 711.289C154.01 669.411 154.269 627.416 154.441 585.538C154.613 543.777 154.785 502.016 154.871 460.372C155.043 418.377 155.043 376.499 154.871 334.505ZM67.0146 711.172C58.6678 710.47 50.235 709.417 41.8882 708.13C40.8556 708.013 39.6509 708.13 38.9625 707.077C38.4462 706.259 38.2741 704.504 38.1881 703.451C37.8439 700.761 37.7579 698.07 37.7579 695.38C37.6718 689.18 37.8439 683.097 37.9299 676.897C38.1881 651.279 38.3602 625.661 38.6183 600.043C39.0486 548.573 39.5649 497.103 39.9951 445.633C40.4254 394.397 40.9417 343.161 41.3719 291.925C41.8022 240.689 42.3185 189.453 42.7487 138.1C42.8348 132.251 42.8348 126.285 42.9208 120.319C76.9963 115.757 111.158 111.195 145.233 106.516C145.492 106.516 145.75 106.399 145.922 106.165C145.492 107.452 146.18 109.206 147.299 108.621C147.385 108.738 147.557 108.972 147.557 109.206C147.815 110.259 148.159 111.195 148.331 112.365C148.934 115.64 149.278 119.032 149.536 122.308C150.224 130.262 150.396 138.334 150.568 146.288C150.913 166.642 151.171 186.879 151.343 207.233C151.773 247.941 152.117 288.532 152.203 329.241C152.376 369.949 152.376 410.657 152.376 451.365C152.289 492.307 152.203 533.249 151.945 574.191C151.773 614.899 151.515 655.607 151.257 696.316C151.257 700.761 151.171 705.323 151.171 709.768C123.205 711.523 95.1527 713.745 67.0146 711.172Z" fill="white"/>
</g>
</svg>
