<svg width="1920" height="936" viewBox="0 0 1920 936" fill="none" xmlns="http://www.w3.org/2000/svg">
<mask id="mask0" mask-type="alpha" maskUnits="userSpaceOnUse" x="0" y="0" width="1920" height="936">
<rect width="1920" height="936" transform="matrix(1 0 0 -1 0 936)" fill="white"/>
</mask>
<g mask="url(#mask0)">
<path opacity="0.7" d="M-131.037 24.2028C-147.456 32.7498 -147.969 52.6928 -146.429 82.6072C-145.403 96.8522 -131.55 271.591 -135.655 271.591C-42.2732 271.591 44.4382 322.873 83.9458 400.745C147.568 527.051 45.4644 700.365 -102.817 717.933C-137.707 722.207 -142.325 722.207 -144.89 756.87C-146.943 780.136 -141.299 803.878 -141.299 827.145C-140.785 869.405 -138.733 911.665 -131.55 953.925C-11.4881 1003.31 152.186 907.866 233.254 831.418C290.719 777.287 331.766 692.767 355.368 620.593C378.97 549.368 387.692 476.718 372.3 403.594C337.923 240.727 210.165 103.025 41.8728 46.0451C-0.713272 31.8001 -45.8648 21.8287 -91.0162 18.9797C-110 17.5552 -122.828 19.4545 -131.037 24.2028Z" stroke="#F4F4F7" stroke-width="2" stroke-miterlimit="10"/>
<path opacity="0.7" d="M2101.83 1355.09C2134.92 1337.85 2135.95 1297.64 2132.85 1237.31C2130.78 1208.58 2102.87 856.21 2111.14 856.21C1922.96 856.21 1748.22 752.795 1668.6 595.759C1540.39 341.053 1746.15 -8.44952 2044.96 -43.8785C2115.27 -52.4964 2124.58 -52.4963 2129.75 -122.397C2133.88 -169.316 2122.51 -217.193 2122.51 -264.113C2121.48 -349.334 2117.34 -434.555 2102.87 -519.776C1860.92 -619.36 1531.09 -426.895 1367.72 -272.731C1251.92 -163.571 1169.2 6.87109 1121.64 152.417C1074.08 296.048 1056.5 442.552 1087.52 590.013C1156.79 918.45 1414.25 1196.14 1753.39 1311.04C1839.21 1339.77 1930.19 1359.88 2021.18 1365.62C2059.44 1368.49 2085.29 1364.66 2101.83 1355.09Z" stroke="#F4F4F7" stroke-width="2" stroke-miterlimit="10"/>
<path opacity="0.5" d="M2065.59 223.214L1962.92 116.359C1906.62 162.727 1820.5 157.948 1770.7 106.115C1720.7 54.0829 1725.8 -25.4663 1782.09 -71.8337L1679.42 -178.689C1559.28 -79.7362 1548.39 90.2953 1655.08 201.337C1761.78 312.379 1945.45 322.167 2065.59 223.214Z" fill="#F4F4F7"/>
</g>
</svg>
