<svg width="150" height="150" viewBox="0 0 150 150" fill="none" xmlns="http://www.w3.org/2000/svg">
<path d="M30.1932 29.727C32.509 28.7736 35.1963 29.9683 36.1954 32.3952L27.809 35.8475C26.8099 33.4206 27.8774 30.6803 30.1932 29.727Z" fill="#F5B82E"/>
<path d="M45.8213 134.486C44.8149 136.229 42.5852 136.826 40.8408 135.819C39.0965 134.812 38.4988 132.583 39.5051 130.84C40.5115 129.096 42.7413 128.499 44.4856 129.506C46.23 130.513 46.8277 132.743 45.8213 134.486Z" stroke="#414168"/>
<path d="M91.9 30.2144C91.3739 31.1256 90.2164 31.4363 89.3167 30.9169C88.417 30.3975 88.1074 29.2396 88.6334 28.3285C89.1595 27.4173 90.317 27.1066 91.2167 27.626C92.1164 28.1454 92.426 29.3033 91.9 30.2144Z" stroke="#414168"/>
<path d="M86.1217 132.726C85.8165 133.255 85.1464 133.433 84.6271 133.134C84.1079 132.834 83.9275 132.164 84.2326 131.636C84.5378 131.107 85.2079 130.929 85.7271 131.228C86.2464 131.528 86.4268 132.198 86.1217 132.726Z" stroke="#414168"/>
<path d="M18.3771 76.5666C19.1379 77.0058 20.1129 76.7416 20.5547 75.9763C20.9965 75.211 20.7379 74.2346 19.9771 73.7953C19.2164 73.3561 18.2414 73.6204 17.7996 74.3856C17.3578 75.1509 17.6164 76.1274 18.3771 76.5666Z" fill="#31C587"/>
<path d="M14.5994 102.173L11.1816 101.184L10.1841 104.61L13.6018 105.599L14.5994 102.173Z" fill="#7950ED"/>
<path d="M120.784 79.968L113.984 78L112 84.8158L118.799 86.7838L120.784 79.968Z" fill="#F685A1"/>
<path d="M125.009 52.2918L116.109 46.9718L125.166 41.9741L125.009 52.2918Z" stroke="#414168"/>
<line x1="45.3791" y1="26.674" x2="49.6717" y2="31.6663" stroke="#414168"/>
<line x1="22.4218" y1="54.3887" x2="16.9436" y2="48.9104" stroke="#414168"/>
<line x1="111.204" y1="109.543" x2="117.309" y2="112.266" stroke="#414168"/>
<path d="M77.5 55.5488C67.9306 55.5488 57.306 53.7806 51 49.2996V61.7254C51 67.1511 62.8514 71.5836 77.5 71.5836C92.1486 71.5836 104 67.1753 104 61.6527V49.2754C97.694 53.7806 87.094 55.5488 77.5 55.5488Z" fill="#A787FF" stroke="white" stroke-miterlimit="10"/>
<path d="M77.5 69.7664C67.9306 69.7664 57.306 67.9498 51 63.3477V76.1368C51 81.732 62.8514 86.2615 77.5 86.2615C92.1486 86.2615 104 81.732 104 76.0641V63.3477C97.694 67.9498 87.094 69.7664 77.5 69.7664Z" fill="#A787FF" stroke="white" stroke-miterlimit="10"/>
<path d="M77.5 82.6792C67.9306 82.6792 57.306 81.1774 51 77.3262V87.9838C51 92.6343 62.8514 96.4372 77.5 96.4372C92.1486 96.4372 104 92.6586 104 87.9353V77.3504C97.694 81.1532 87.094 82.6792 77.5 82.6792Z" fill="#A787FF" stroke="white" stroke-miterlimit="10"/>
<path d="M77.5 57.6819C92.1355 57.6819 104 53.7237 104 48.841C104 43.9582 92.1355 40 77.5 40C62.8645 40 51 43.9582 51 48.841C51 53.7237 62.8645 57.6819 77.5 57.6819Z" fill="#A787FF" stroke="white" stroke-miterlimit="10"/>
<path d="M77.25 63H32C31.4477 63 31 63.4477 31 64V119C31 119.552 31.4477 120 32 120H77.25C77.8023 120 78.25 119.552 78.25 119V64C78.25 63.4477 77.8023 63 77.25 63Z" fill="#41CADD"/>
<path d="M35.5664 87.5247C37.187 87.4928 38.7652 87.3544 40.3963 87.4928C40.1527 87.4715 40.3963 82.969 40.3963 82.5432C40.3963 82.0642 40.3751 82.0642 39.8032 82.0748C39.3159 82.0855 38.8393 82.1068 38.3521 82.1174C37.3459 82.1387 36.3396 82.1494 35.3334 82.1494C35.3864 83.8737 35.1216 85.8429 35.5664 87.5247Z" stroke="white" stroke-miterlimit="10" stroke-linecap="round" stroke-linejoin="round"/>
<path d="M37 84C37.6355 84.6067 37.7887 85.0876 38.2547 85.822C40.0024 84.0977 40.943 82.8947 42.5 81" stroke="white" stroke-miterlimit="10" stroke-linecap="round" stroke-linejoin="round"/>
<path d="M43.2129 84.8613C54.1436 84.872 60.7105 84.8826 71.6413 84.9039" stroke="white" stroke-miterlimit="10" stroke-linecap="round" stroke-linejoin="round"/>
<path d="M35.5664 97.0931C37.187 97.0611 38.7652 96.9228 40.3963 97.0611C40.1527 97.0399 40.3963 92.5373 40.3963 92.1116C40.3963 91.6326 40.3751 91.6326 39.8032 91.6432C39.3159 91.6539 38.8393 91.6751 38.3521 91.6858C37.3459 91.7071 36.3396 91.7177 35.3334 91.7177C35.3864 93.4527 35.1216 95.4219 35.5664 97.0931Z" stroke="white" stroke-miterlimit="10" stroke-linecap="round" stroke-linejoin="round"/>
<path d="M37 94C37.6355 94.6067 37.7887 94.6676 38.2547 95.4021C40.0024 93.6777 40.943 92.8947 42.5 91" stroke="white" stroke-miterlimit="10" stroke-linecap="round" stroke-linejoin="round"/>
<path d="M43.2129 94.4316C54.1436 94.4423 60.7105 94.4529 71.6413 94.4742" stroke="white" stroke-miterlimit="10" stroke-linecap="round" stroke-linejoin="round"/>
<path d="M35.5664 105.884C37.187 105.852 38.7652 105.714 40.3963 105.852C40.1527 105.831 40.3963 101.328 40.3963 100.903C40.3963 100.424 40.3751 100.424 39.8032 100.434C39.3159 100.445 38.8393 100.466 38.3521 100.477C37.3459 100.498 36.3396 100.509 35.3334 100.509C35.3864 102.244 35.1216 104.213 35.5664 105.884Z" stroke="white" stroke-miterlimit="10" stroke-linecap="round" stroke-linejoin="round"/>
<path d="M43.2129 104.809C54.1436 104.819 60.7105 104.841 71.6413 104.851" stroke="white" stroke-miterlimit="10" stroke-linecap="round" stroke-linejoin="round"/>
<path d="M43.2129 101.746C47.5979 101.757 50.2458 101.778 54.6309 101.789" stroke="white" stroke-miterlimit="10" stroke-linecap="round" stroke-linejoin="round"/>
<path d="M35.3008 76.3262C42.0266 76.3368 46.0726 76.3581 52.7984 76.3687" stroke="white" stroke-miterlimit="10" stroke-linecap="round" stroke-linejoin="round"/>
<path d="M35.3008 72.3145C45.7655 72.3251 52.0676 72.3464 62.5323 72.357" stroke="white" stroke-miterlimit="10" stroke-linecap="round" stroke-linejoin="round"/>
<path d="M35.3008 67.5664C49.2608 67.5771 57.6601 67.5983 71.6306 67.609" stroke="white" stroke-miterlimit="10" stroke-linecap="round" stroke-linejoin="round"/>
<path d="M35.3008 110.686C49.2608 110.696 57.6601 110.717 71.6306 110.728" stroke="white" stroke-miterlimit="10" stroke-linecap="round" stroke-linejoin="round"/>
<path d="M35.3008 114.699C49.2608 114.71 57.6601 114.731 71.6306 114.742" stroke="white" stroke-miterlimit="10" stroke-linecap="round" stroke-linejoin="round"/>
</svg>
