<svg width="150" height="150" viewBox="0 0 150 150" fill="none" xmlns="http://www.w3.org/2000/svg">
<path d="M104.632 124.875L95.0182 134.489L85.4043 124.875" stroke="#7950ED" stroke-linecap="round" stroke-linejoin="round"/>
<path d="M47.0594 61.2793L56.6733 51.6654L66.2871 61.2793" stroke="white" stroke-linecap="round" stroke-linejoin="round"/>
<path d="M94.9849 133.317L95.0217 100.869" stroke="#7950ED" stroke-linecap="round" stroke-linejoin="round"/>
<path d="M56.7065 52.8374L56.6697 85.2854" stroke="white" stroke-linecap="round" stroke-linejoin="round"/>
<path d="M94.9849 85.3482L95.0217 52.9001" stroke="url(#paint0_linear)" stroke-linecap="round" stroke-linejoin="round"/>
<path d="M56.7065 100.804L56.6697 133.252" stroke="url(#paint1_linear)" stroke-linecap="round" stroke-linejoin="round"/>
<path d="M115.919 74.4861C123.057 73.9515 128.691 67.976 128.691 60.6796C128.691 53.0373 122.524 46.8417 114.886 46.8102C114.103 46.8102 113.352 46.8731 112.632 46.9989C112.131 38.476 105.088 31.7457 96.4787 31.7457C93.8804 31.7457 91.4386 32.3747 89.2473 33.4755C85.4281 23.0027 75.4105 15.5176 63.6399 15.5176C48.864 15.5176 36.843 27.3427 36.3734 42.0613C28.1402 42.8161 21.6914 49.798 21.6914 58.258C21.6914 67.2212 28.9228 74.5176 37.876 74.5176" stroke="#7950ED" stroke-linecap="round" stroke-linejoin="round"/>
<circle cx="94.6914" cy="93.5176" r="7.5" stroke="#7950ED"/>
<path d="M49.1914 93.5176C49.1914 89.3754 52.5493 86.0176 56.6914 86.0176C60.8335 86.0176 64.1914 89.3754 64.1914 93.5176C64.1914 97.6597 60.8335 101.018 56.6914 101.018C52.5493 101.018 49.1914 97.6597 49.1914 93.5176Z" stroke="white"/>
<defs>
<linearGradient id="paint0_linear" x1="95.0033" y1="77.1207" x2="95.0033" y2="55.4833" gradientUnits="userSpaceOnUse">
<stop stop-color="#7950ED"/>
<stop offset="1" stop-color="#7950ED" stop-opacity="0"/>
</linearGradient>
<linearGradient id="paint1_linear" x1="56.6886" y1="101.567" x2="56.6886" y2="133.917" gradientUnits="userSpaceOnUse">
<stop stop-color="white"/>
<stop offset="1" stop-color="white" stop-opacity="0"/>
</linearGradient>
</defs>
</svg>
