<svg width="150" height="150" viewBox="0 0 150 150" fill="none" xmlns="http://www.w3.org/2000/svg">
<path d="M107.11 31.0147C108.828 32.0066 111.025 31.4186 112.016 29.7014C113.008 27.9841 112.419 25.7879 110.701 24.796C108.983 23.8041 106.786 24.3921 105.795 26.1094C104.803 27.8266 105.392 30.0228 107.11 31.0147Z" fill="#41CADD"/>
<path d="M75.9 34.2144C75.3739 35.1256 74.2164 35.4363 73.3167 34.9169C72.417 34.3975 72.1074 33.2396 72.6334 32.3285C73.1595 31.4173 74.317 31.1066 75.2167 31.626C76.1164 32.1454 76.426 33.3033 75.9 34.2144Z" stroke="#414168"/>
<path d="M13.0667 114.35C14.2079 115.009 15.6703 114.612 16.333 113.464C16.9957 112.317 16.6079 110.852 15.4667 110.193C14.3255 109.534 12.8631 109.931 12.2004 111.078C11.5377 112.226 11.9255 113.691 13.0667 114.35Z" fill="#144BC1"/>
<line x1="98.5" y1="117.748" x2="98.5" y2="110" stroke="#414168"/>
<path d="M84.0351 130.861L81.873 128L79.0004 130.164L81.1625 133.025L84.0351 130.861Z" fill="#F5B82E"/>
<path d="M128.035 42.8609L125.873 40L123 42.1637L125.163 45.0246L128.035 42.8609Z" fill="#144BC1"/>
<path d="M53.7861 19.6471L57.0651 15.6263L58.8831 20.4726L53.7861 19.6471Z" stroke="#414168"/>
<path d="M15.6494 42.0792L21.5566 45.6606L15.53 49.0027L15.6494 42.0792Z" fill="#F685A1"/>
<path d="M43.858 115.684L41.98 120.52L38.7551 116.472L43.858 115.684Z" stroke="#414168"/>
<path d="M14.1217 88.7263C13.8165 89.2548 13.1464 89.4334 12.6271 89.1336C12.1079 88.8338 11.9275 88.1642 12.2326 87.6356C12.5378 87.1071 13.2079 86.9285 13.7271 87.2283C14.2464 87.5281 14.4268 88.1978 14.1217 88.7263Z" stroke="#414168"/>
<line x1="41.5" y1="37.584" x2="41.5" y2="30.9999" stroke="#414168"/>
<line x1="47.5" y1="48" x2="47.5" y2="38" stroke="#414168"/>
<line y1="-0.5" x2="7.74743" y2="-0.5" transform="matrix(-4.37114e-08 -1 1 1.31798e-06 108 127.748)" stroke="#414168"/>
<path d="M127.112 119.22C126.441 120.383 124.954 120.781 123.79 120.11C122.627 119.438 122.228 117.951 122.899 116.788C123.57 115.626 125.058 115.227 126.221 115.899C127.384 116.571 127.783 118.058 127.112 119.22Z" stroke="#414168"/>
<path d="M65.2921 72.64C60.2661 71.0599 55.6462 75.2394 54.0471 79.7502C52.4225 84.3884 52.3971 89.995 56.0778 93.6647C57.9562 95.5251 60.3169 96.8503 62.8045 97.6403C65.2667 98.4304 67.8559 98.6852 70.4196 98.7107C73.0595 98.7362 75.6741 98.5323 78.314 98.3794C81.4108 98.201 84.5076 98.1245 87.6045 97.9971C94.2804 97.7423 100.956 97.411 107.632 97.0542C108.445 97.0032 109.282 96.9523 110.095 96.9013C110.577 96.8758 110.577 96.1113 110.095 96.1368C103.596 96.519 97.1234 96.8503 90.6251 97.1052C87.4268 97.2326 84.2284 97.3345 81.0301 97.462C78.4663 97.5639 75.8771 97.7933 73.3134 97.8952C68.3635 98.0991 63.1852 97.7678 58.9207 94.939C56.8393 93.5628 55.0878 91.7534 54.3009 89.3324C53.5648 87.0897 53.6155 84.6432 54.0978 82.3496C54.6055 79.9541 55.5447 77.7114 57.22 75.902C58.7938 74.1945 60.9768 72.9458 63.3375 73.0477C63.9214 73.0732 64.5052 73.1752 65.089 73.3536C65.5459 73.5319 65.749 72.7929 65.2921 72.64Z" fill="#414168"/>
<path d="M65.4441 72.8948C64.8095 70.958 65.1903 68.8428 65.7741 66.9315C66.3579 65.0201 67.221 63.2362 68.2617 61.5542C70.4701 58.0119 73.4908 54.8773 77.0445 52.6601C78.796 51.5643 80.6744 50.6978 82.7051 50.2391C84.7612 49.7549 86.8934 49.6529 89.0003 49.8823C93.1886 50.3155 97.1485 52.074 100.398 54.7243C103.52 57.2473 106.033 60.5093 107.86 64.0772C108.089 64.5359 108.317 64.9691 108.52 65.4279C108.724 65.8611 109.384 65.4788 109.18 65.0456C107.429 61.2739 104.992 57.757 101.895 54.9792C98.6969 52.0994 94.7878 50.0607 90.5233 49.3216C88.3403 48.9394 86.1319 48.8884 83.9489 49.2197C81.8167 49.551 79.786 50.2646 77.9076 51.2839C74.1254 53.3482 70.8762 56.4318 68.414 59.9487C67.221 61.6561 66.231 63.4656 65.4949 65.4279C64.7587 67.3647 64.2003 69.5309 64.4287 71.6461C64.4795 72.1303 64.581 72.6145 64.7333 73.0987C64.8603 73.5574 65.5964 73.3791 65.4441 72.8948Z" fill="#414168"/>
<path d="M109.08 65.8355C111.72 63.2616 115.857 63.44 119.132 64.4594C120.706 64.969 122.203 65.6571 123.371 66.8804C124.513 68.1291 125.275 69.6837 125.706 71.3147C126.163 73.1241 126.239 75.0609 125.706 76.8703C125.579 77.3545 126.316 77.5584 126.442 77.0742C127.432 73.6338 126.569 69.5817 124.336 66.8039C123.777 66.1158 123.143 65.5042 122.406 65.02C121.67 64.5358 120.833 64.2045 120.02 63.8987C118.218 63.2361 116.264 62.8793 114.334 62.9558C112.202 63.0322 110.095 63.7203 108.547 65.2494C108.192 65.6571 108.725 66.1923 109.08 65.8355Z" fill="#414168"/>
<path d="M126.569 77.1508C127.228 75.8766 129.132 76.055 130.3 76.2588C131.874 76.5137 133.371 77.1253 134.691 78.0173C137.382 79.8522 139.057 82.9358 139.032 86.2233C139.032 87.9563 138.474 89.6128 137.61 91.1163C136.773 92.569 135.707 93.8942 134.437 94.99C133.194 96.0604 131.721 96.8504 130.122 97.2072C128.32 97.6149 126.442 97.5639 124.614 97.5385C120.07 97.4365 115.552 97.4875 111.008 97.7169C110.526 97.7423 110.526 98.5069 111.008 98.4814C115.298 98.2775 119.588 98.2011 123.903 98.2775C125.858 98.3285 127.838 98.4049 129.792 98.0481C131.569 97.7423 133.194 96.9778 134.615 95.831C135.986 94.7352 137.154 93.359 138.067 91.8554C139.032 90.3008 139.692 88.5424 139.819 86.682C140.022 83.2161 138.397 79.8267 135.656 77.7115C134.311 76.6921 132.762 75.953 131.112 75.5962C129.716 75.2904 127.888 75.0356 126.645 75.9275C126.34 76.1314 126.112 76.4117 125.934 76.743C125.68 77.2018 126.315 77.584 126.569 77.1508Z" fill="#414168"/>
<path d="M20.5069 68.025C17.4609 67.0821 14.694 69.5031 13.6787 72.2045C12.6633 74.9568 12.6125 78.3718 14.7448 80.6144C16.9532 82.959 20.2277 83.749 23.3245 83.8C24.8983 83.8255 26.4467 83.7235 27.9951 83.6216C29.8228 83.5197 31.6504 83.4687 33.5034 83.3922C38.0218 83.2138 42.5655 83.01 47.0838 82.7296C47.5661 82.7041 47.5661 81.9396 47.0838 81.9651C43.2762 82.1945 39.4686 82.3728 35.6357 82.5258C33.7573 82.6022 31.8789 82.6787 30.0005 82.7296C28.4774 82.7806 26.929 82.908 25.406 82.9845C22.5122 83.1119 19.4916 82.959 16.9532 81.3789C15.684 80.5889 14.5925 79.5441 14.1102 78.0914C13.6533 76.7917 13.6787 75.3646 13.9579 74.0139C14.2879 72.4339 14.9225 70.9558 16.1155 69.8344C17.2578 68.7641 18.7808 68.2034 20.3292 68.6876C20.7608 68.8915 20.9638 68.1525 20.5069 68.025Z" fill="#414168"/>
<path d="M20.7107 68.2796C20.3553 67.1328 20.5837 65.9095 20.9137 64.7882C21.2691 63.6669 21.7768 62.622 22.386 61.6281C23.6806 59.5639 25.432 57.7545 27.4881 56.4802C29.6204 55.1296 32.0572 54.5689 34.5448 54.8238C36.9817 55.0786 39.317 56.1235 41.2208 57.678C43.3023 59.36 44.8761 61.5772 45.9929 63.9982C46.196 64.4314 46.856 64.0492 46.6529 63.6159C44.5207 59.0032 40.5354 55.0531 35.3825 54.1866C32.7934 53.7279 30.1534 54.1102 27.8181 55.3844C25.5336 56.6332 23.6044 58.4935 22.1321 60.6342C21.3452 61.7556 20.7107 63.0043 20.2791 64.304C19.8222 65.6292 19.543 67.1328 19.9745 68.509C20.1268 68.9422 20.863 68.7383 20.7107 68.2796Z" fill="#414168"/>
<path d="M46.5761 64.2273C48.0991 62.7492 50.4852 62.8512 52.389 63.4373C53.3028 63.7176 54.1912 64.1254 54.8512 64.839C55.5112 65.5525 55.9681 66.47 56.1965 67.4129C56.4758 68.4578 56.5011 69.5791 56.1965 70.6494C56.0696 71.1336 56.8058 71.3375 56.9327 70.8533C57.5419 68.7381 57.0088 66.2916 55.6127 64.5841C54.9273 63.7176 54.0135 63.2079 52.9728 62.8512C51.8813 62.4689 50.6882 62.2395 49.546 62.2905C48.2514 62.3415 46.9822 62.7747 46.0176 63.6921C45.6876 64.0489 46.2207 64.5841 46.5761 64.2273Z" fill="#414168"/>
<path d="M56.9842 70.9299C57.3903 70.2163 58.5072 70.3692 59.1672 70.4967C60.081 70.6751 60.9441 71.0318 61.7056 71.5925C63.254 72.6883 64.1678 74.5232 64.0917 76.4346C64.0155 78.3969 62.7463 80.2573 61.2741 81.4805C60.5126 82.0921 59.6495 82.5254 58.6849 82.7038C57.6188 82.9077 56.5273 82.8567 55.4612 82.8312C52.8466 82.7802 50.2067 82.8057 47.5922 82.9331C47.1099 82.9586 47.1099 83.7232 47.5922 83.6977C50.1813 83.5703 52.7705 83.5193 55.3343 83.5957C56.5273 83.6212 57.7203 83.6722 58.888 83.4428C59.9541 83.239 60.9187 82.7547 61.7818 82.0667C63.4063 80.7415 64.7517 78.6517 64.8532 76.511C64.9547 74.3958 63.9394 72.357 62.264 71.0828C61.3502 70.3947 60.2333 69.9105 59.0911 69.7576C58.1265 69.6047 56.8573 69.6047 56.3242 70.5986C56.0958 70.9809 56.7558 71.3631 56.9842 70.9299Z" fill="#414168"/>
<path d="M114.125 91.6298C114.125 97.5422 109.556 102.384 103.769 102.817V102.843H40.4867C33.2269 102.843 27.3633 96.9306 27.3633 89.6675C27.3633 82.8121 32.5923 77.1545 39.2683 76.5429C39.6491 64.6161 49.3964 55.0339 61.3776 55.0339C70.9219 55.0339 79.0447 61.0993 82.1416 69.5856C83.9184 68.6937 85.8984 68.184 88.0052 68.184C94.9858 68.184 100.697 73.6377 101.103 80.544C101.687 80.442 102.296 80.3911 102.931 80.3911C109.125 80.4166 114.125 85.437 114.125 91.6298Z" fill="#A787FF"/>
<path d="M47.9217 73.4338C47.5409 71.4206 48.1248 69.3053 49.1401 67.5724C49.6478 66.6804 50.3078 65.8904 51.0947 65.2533C51.9831 64.5397 53.0746 64.081 54.1661 63.7752C55.613 63.3929 57.136 63.3419 58.6083 63.6223C59.0906 63.7242 59.2937 62.9852 58.8114 62.8832C56.2222 62.3735 53.2015 62.7813 51.0185 64.3613C49.1909 65.6865 47.8963 67.7508 47.3633 69.917C47.0587 71.1402 46.9825 72.389 47.211 73.6377C47.2617 74.1219 47.9979 73.918 47.9217 73.4338Z" fill="white"/>
<path d="M86.587 75.0562C88.0847 74.4191 89.9123 74.8523 91.08 75.9227C92.3238 77.095 92.8568 78.8279 92.7553 80.5099C92.7299 80.9941 93.4914 80.9941 93.5168 80.5099C93.6437 78.5731 92.9838 76.5343 91.4861 75.2601C90.0392 74.0113 87.9831 73.629 86.2063 74.3936C85.7493 74.572 86.1301 75.2346 86.587 75.0562Z" fill="white"/>
<path d="M68.9916 93.0059L60.5387 81.2065C60.4118 81.0282 60.158 81.0282 60.0311 81.2065L51.2483 92.802C51.096 93.0059 51.2483 93.3117 51.5021 93.3117L57.2388 93.3882V114.693H63.7879V93.4646L68.7631 93.5156C68.9916 93.5411 69.1439 93.2353 68.9916 93.0059Z" fill="#414168"/>
<path d="M72.8992 107.073L81.352 118.873C81.4789 119.051 81.7328 119.051 81.8597 118.873L90.6425 107.277C90.7948 107.073 90.6425 106.768 90.3887 106.768L84.6519 106.691V85.386H78.1029V106.615L73.1277 106.564C72.8992 106.538 72.7469 106.844 72.8992 107.073Z" fill="#414168"/>
<path d="M59.192 81.1079C59.5915 80.5602 60.4085 80.5602 60.808 81.1079L69.2333 92.6608C69.7152 93.3216 69.2432 94.25 68.4253 94.25H51.5747C50.7568 94.25 50.2848 93.3216 50.7667 92.6608L59.192 81.1079Z" fill="white"/>
<path d="M82.808 118.892C82.4085 119.44 81.5915 119.44 81.192 118.892L72.7667 107.339C72.2848 106.679 72.7568 105.75 73.5747 105.75L90.4253 105.75C91.2432 105.75 91.7152 106.679 91.2333 107.339L82.808 118.892Z" fill="#41CADD"/>
</svg>
