<svg width="150" height="150" viewBox="0 0 150 150" fill="none" xmlns="http://www.w3.org/2000/svg">
<path d="M47 54C46.0515 53.645 45.3965 53.5 44.366 53.5H42.1902C41.5442 50.9642 40.2092 48.663 38.3371 46.8577C36.465 45.0524 34.1307 43.8155 31.5996 43.2875C29.0684 42.7595 26.4419 42.9616 24.0184 43.8708C21.595 44.78 19.4717 46.3599 17.89 48.4309C16.3083 50.5019 15.3315 52.9811 15.0706 55.5866C14.8097 58.1922 15.2752 60.8196 16.4142 63.1704C17.5531 65.5213 19.3199 67.5012 21.5138 68.8852C23.7076 70.2693 26.2405 71.0019 28.8247 71H34" stroke="#515873" stroke-linecap="round" stroke-linejoin="round"/>
<path d="M90.5 58.5C92.3826 56.4096 94.7455 55.0709 97.3917 54.0885C100.453 52.952 103.771 52.6994 106.968 53.3594C110.165 54.0194 113.114 55.5655 115.478 57.8221C117.843 60.0787 119.529 62.9553 120.346 66.125H123.094C125.986 66.125 128.76 67.2773 130.806 69.3285C132.851 71.3797 134 74.1617 134 77.0625C134 79.9633 132.851 82.7453 130.806 84.7965C128.76 86.8477 125.986 88 123.094 88H114.67" stroke="#515873" stroke-linecap="round" stroke-linejoin="round"/>
<path d="M106.731 92.3182L106.41 92.3422H43.4867C36.5056 92.3422 30.8633 86.6562 30.8633 79.6667C30.8633 73.0697 35.8955 67.6281 42.3139 67.0401L42.7539 66.9998L42.768 66.5581C43.1403 54.8976 52.6699 45.5332 64.3776 45.5332C73.7043 45.5332 81.6444 51.46 84.6719 59.7563L84.8643 60.2835L85.3659 60.0317C87.0771 59.1727 88.9806 58.6832 91.0052 58.6832C97.719 58.6832 103.213 63.9286 103.604 70.5726L103.637 71.1322L104.189 71.0358C104.742 70.9392 105.322 70.8904 105.93 70.8903C111.848 70.9152 116.625 75.712 116.625 81.629C116.625 87.2782 112.259 91.9043 106.731 92.3182Z" stroke="#7950ED"/>
<path d="M56.1858 84.1094L63.964 76.3312L71.7422 84.1094" stroke="white" stroke-linecap="round" stroke-linejoin="round"/>
<path d="M90.0739 99.8125L82.2958 107.591L74.5176 99.8125" stroke="white" stroke-linecap="round" stroke-linejoin="round"/>
<path d="M63.9642 76.3334V107.592" stroke="white" stroke-linecap="round" stroke-linejoin="round"/>
<path d="M82.2975 107.592L82.2975 76.3334" stroke="white" stroke-linecap="round" stroke-linejoin="round"/>
</svg>
