<svg width="110" height="110" viewBox="0 0 110 110" fill="none" xmlns="http://www.w3.org/2000/svg">
<path d="M93.0005 60.8461C93.0005 65.6362 89.1485 69.559 84.2694 69.91V69.9307H30.9201C24.8212 69.9307 19.8564 65.1406 19.8564 59.2357C19.8564 53.6817 24.2648 49.0982 29.8929 48.6026C30.2139 38.94 38.4313 31.1975 48.532 31.1975C56.5783 31.1975 63.4261 36.1114 66.0369 42.9868C67.5349 42.2641 69.2041 41.8512 70.9802 41.8512C76.8651 41.8512 81.68 46.2696 82.0224 51.8648C82.5146 51.7822 83.0282 51.7409 83.5632 51.7409C88.7847 51.7409 93.0005 55.8083 93.0005 60.8461Z" fill="#A787FF"/>
<path d="M29.7639 49.1394C25.3342 47.7974 21.2897 51.3073 19.8987 55.127C18.4863 58.9879 18.5077 63.654 21.6963 66.6891C23.3012 68.2169 25.3556 69.3319 27.517 69.9926C29.6141 70.6326 31.8397 70.8597 34.0225 70.8804C36.248 70.901 38.4522 70.7358 40.6778 70.612C43.2885 70.4674 45.8993 70.4055 48.51 70.3023C54.1381 70.0958 59.7663 69.8274 65.3944 69.5383C66.0792 69.497 66.7853 69.4557 67.4701 69.4144C67.8125 69.3938 68.1121 69.146 68.1121 68.795C68.1121 68.4647 67.8125 68.155 67.4701 68.1756C61.9918 68.4853 56.5349 68.7538 51.0566 68.9602C48.3602 69.0635 45.6639 69.146 42.9675 69.2493C40.8062 69.3319 38.6234 69.5177 36.462 69.6003C32.3105 69.7448 28.052 69.497 24.4996 67.2465C23.6008 66.6891 22.7662 66.0284 22.0814 65.2232C21.4823 64.5418 21.0329 63.716 20.7547 62.8695C20.1555 61.0938 20.1769 59.1943 20.5835 57.3774C21.0115 55.4779 21.7605 53.723 23.13 52.2777C24.4354 50.9357 26.1688 49.9859 28.052 50.0479C28.5227 50.0685 28.9507 50.1511 29.4429 50.2956C30.2133 50.5847 30.5557 49.3872 29.7639 49.1394Z" fill="#121242"/>
<path d="M30.1282 49.5734C29.6146 48.0868 29.9356 46.4145 30.4064 44.9072C30.8772 43.4 31.6048 41.9754 32.4608 40.6127C34.3011 37.8048 36.8263 35.3065 39.758 33.5516C41.2132 32.6844 42.7754 32.0031 44.4446 31.6108C46.1565 31.2185 47.9327 31.1566 49.6661 31.3217C53.09 31.6727 56.3856 33.0561 59.0605 35.1414C61.6713 37.1854 63.7684 39.7869 65.3092 42.6568C65.5018 43.0284 65.6944 43.3794 65.8656 43.751C66.0154 44.0607 66.4648 44.1227 66.743 43.9781C67.064 43.7923 67.1282 43.4413 66.9784 43.1316C65.5018 40.0553 63.4046 37.1854 60.7725 34.9143C58.0333 32.5605 54.695 30.8675 51.0356 30.2481C49.1311 29.9384 47.2265 29.8971 45.3219 30.1655C43.503 30.4339 41.7696 31.0327 40.1432 31.8792C36.9119 33.5722 34.1299 36.1118 32.0328 39.0229C31.027 40.4269 30.171 41.9341 29.5504 43.5239C28.9298 45.1137 28.4376 46.91 28.6302 48.6443C28.673 49.0779 28.7586 49.4908 28.887 49.9037C28.994 50.2134 29.3364 50.4199 29.6788 50.3373C29.9998 50.2547 30.2352 49.8831 30.1282 49.5734Z" fill="#121242"/>
<path d="M66.8278 44.1636C67.2986 43.7094 67.9406 43.3171 68.5184 43.09C69.1818 42.8216 69.9308 42.677 70.5728 42.6151C72.1136 42.4912 73.5259 42.6977 75.0025 43.1313C76.3079 43.5236 77.4849 44.0397 78.4265 45.0101C79.3466 45.9599 79.9672 47.178 80.3096 48.4788C80.6948 49.9034 80.7376 51.4106 80.3096 52.8146C80.0742 53.5785 81.3154 53.9088 81.5508 53.1449C82.4282 50.2544 81.6364 46.8683 79.689 44.5353C79.2182 43.9571 78.6405 43.4616 77.9985 43.0487C77.3565 42.6358 76.6289 42.3673 75.9013 42.0989C74.3605 41.5621 72.6699 41.2524 71.0222 41.335C69.139 41.4176 67.2986 41.9957 65.929 43.2758C65.3299 43.8333 66.2286 44.7211 66.8278 44.1636Z" fill="#121242"/>
<path d="M81.6152 53.2687C81.7222 53.0622 81.8292 52.959 82.0432 52.8351C82.2358 52.7319 82.4712 52.6699 82.7494 52.608C83.1988 52.5254 83.8836 52.5874 84.3972 52.6699C85.7026 52.8764 86.9223 53.3513 88.0137 54.0533C90.1965 55.4779 91.5447 57.8936 91.5233 60.4331C91.5233 61.7958 91.0739 63.0759 90.3677 64.2321C89.6615 65.3883 88.7841 66.4413 87.7355 67.3084C86.7297 68.155 85.5314 68.7537 84.226 69.0221C82.728 69.3525 81.1872 69.3112 79.6679 69.2699C75.8373 69.1873 72.0282 69.2286 68.1977 69.4144C67.8553 69.435 67.5557 69.6828 67.5557 70.0338C67.5557 70.3641 67.8553 70.6738 68.1977 70.6532C71.8142 70.488 75.4307 70.4261 79.0687 70.488C80.7592 70.5293 82.4498 70.5913 84.119 70.3022C85.6812 70.0338 87.0935 69.3731 88.3347 68.4234C89.5117 67.5149 90.4961 66.3587 91.3093 65.1405C92.1652 63.8191 92.7216 62.3532 92.8286 60.8047C92.9998 57.8729 91.5661 55.0443 89.1693 53.2687C88.0137 52.4222 86.6655 51.8234 85.2532 51.5137C83.9906 51.2453 82.3642 51.0389 81.23 51.8028C80.9304 52.0093 80.695 52.257 80.5238 52.5667C80.3526 52.8558 80.4382 53.2481 80.7592 53.4132C81.016 53.6403 81.444 53.5578 81.6152 53.2687Z" fill="#121242"/>
<path d="M35.349 47.7561C35.2848 47.4464 35.2634 47.0128 35.2634 46.6206C35.2848 46.2076 35.3276 45.9186 35.4132 45.5263C35.6058 44.7004 35.9054 43.9778 36.3334 43.2552C36.7614 42.5532 37.275 41.9544 37.9384 41.4383C38.5804 40.9427 39.522 40.5504 40.3779 40.3233C41.5335 40.0343 42.7747 39.993 43.9517 40.1995C44.2941 40.2614 44.6365 40.1169 44.7435 39.7659C44.8291 39.4562 44.6365 39.0639 44.2941 39.0019C42.0257 38.5684 39.3936 38.8987 37.4676 40.2201C35.8626 41.335 34.7284 43.0693 34.2362 44.9069C33.9581 45.9392 33.8939 47.0335 34.1078 48.0865C34.172 48.4168 34.5786 48.6026 34.8996 48.5201C35.2634 48.4168 35.4132 48.0865 35.349 47.7561Z" fill="white"/>
<path d="M69.717 48.8298C70.8084 48.3756 72.2207 48.706 73.1195 49.4905C74.1253 50.3783 74.5105 51.6997 74.4249 53.0005C74.4035 53.3308 74.7459 53.6199 75.0669 53.6199C75.4307 53.6199 75.6875 53.3308 75.7089 53.0005C75.8159 51.3694 75.2167 49.5938 73.9113 48.5201C72.5631 47.4259 70.7014 47.0955 69.075 47.7769C68.754 47.9007 68.6898 48.355 68.8396 48.6234C69.0108 48.9124 69.396 48.9537 69.717 48.8298Z" fill="white"/>
<path d="M54.3597 62.4213C54.3576 62.4186 54.3555 62.4158 54.3535 62.4131L54.3597 62.4213ZM55.5501 61.5086L48.4286 51.9553C48.4283 51.9549 48.428 51.9545 48.4277 51.9541C48.0237 51.4101 47.2142 51.4063 46.8046 51.9426L39.3842 61.3095L39.3842 61.3095L39.38 61.3149C38.838 62.0121 39.3979 62.933 40.1796 62.9381L44.2724 62.9905V79.5107C44.2724 79.9249 44.6082 80.2607 45.0224 80.2607H50.5436C50.9578 80.2607 51.2936 79.9249 51.2936 79.5107V63.0694L54.7067 63.103C55.5759 63.1552 56.0461 62.1596 55.5501 61.5086Z" fill="#E1D6FF" stroke="#121242" stroke-width="1.5" stroke-linecap="round" stroke-linejoin="round"/>
<path d="M57.63 73.7638C57.6351 73.7711 57.6403 73.7784 57.6457 73.7857L64.7703 83.3431C64.7706 83.3435 64.7709 83.3439 64.7712 83.3443C65.1754 83.8887 65.9856 83.8922 66.395 83.3548L73.7944 73.9668L73.7944 73.9668L73.7975 73.9629C74.3395 73.2657 73.7796 72.3447 72.9978 72.3397L68.905 72.2872V55.7671C68.905 55.3529 68.5693 55.0171 68.155 55.0171H62.6339C62.2197 55.0171 61.8839 55.3529 61.8839 55.7671V72.2083L58.447 72.1745L58.447 72.1745H58.4396C57.6033 72.1745 57.1802 73.1129 57.63 73.7638Z" fill="white" stroke="#121242" stroke-width="1.5" stroke-linecap="round" stroke-linejoin="round"/>
</svg>
