<svg width="110" height="110" viewBox="0 0 110 110" fill="none" xmlns="http://www.w3.org/2000/svg">
<path d="M86.3622 31.1011H22.001V69.9823H86.3622V31.1011Z" fill="#A787FF" stroke="#121242" stroke-width="1.5" stroke-linecap="round" stroke-linejoin="round"/>
<path d="M27.8709 36.6758C27.8709 37.3311 27.3512 37.8554 26.7016 37.8554C26.0519 37.8554 25.5322 37.3311 25.5322 36.6758C25.5322 36.0204 26.0519 35.4961 26.7016 35.4961C27.3512 35.4961 27.8709 36.0204 27.8709 36.6758Z" fill="#E1E1E1"/>
<path d="M32.6551 36.6758C32.6551 37.3311 32.1354 37.8554 31.4858 37.8554C30.8361 37.8554 30.3164 37.3311 30.3164 36.6758C30.3164 36.0204 30.8361 35.4961 31.4858 35.4961C32.1236 35.4961 32.6551 36.0204 32.6551 36.6758Z" fill="#F0F0F0"/>
<path d="M37.4383 36.6758C37.4383 37.3311 36.9186 37.8554 36.269 37.8554C35.6193 37.8554 35.0996 37.3311 35.0996 36.6758C35.0996 36.0204 35.6193 35.4961 36.269 35.4961C36.9068 35.4961 37.4383 36.0204 37.4383 36.6758Z" fill="#F5F5F5"/>
<path d="M26.6288 43.5914C27.7154 43.5299 28.8021 43.4685 29.8888 43.4224C30.0777 43.407 30.2431 43.2227 30.2431 42.9616C30.2431 42.7158 30.0777 42.4854 29.8888 42.5007C28.8021 42.5622 27.7154 42.6236 26.6288 42.6697C26.4398 42.6851 26.2744 42.8694 26.2744 43.1305C26.2744 43.361 26.4398 43.5914 26.6288 43.5914Z" fill="white"/>
<path d="M32.8661 43.5144C35.63 43.3454 38.3939 43.2072 41.1696 43.0996C43.9335 42.9921 46.7092 42.9307 49.4731 42.8999C51.0204 42.8846 52.5796 42.8692 54.1269 42.8846C54.5875 42.8846 54.5875 41.9629 54.1269 41.9629C51.363 41.9475 48.5873 41.9783 45.8234 42.0397C43.0594 42.1012 40.2837 42.1933 37.5198 42.3316C35.9725 42.4084 34.4252 42.5005 32.8661 42.5927C32.6771 42.6081 32.5117 42.7924 32.5117 43.0536C32.5117 43.2993 32.6771 43.5298 32.8661 43.5144Z" fill="white"/>
<path d="M56.9978 43.0535C58.9113 43.0535 60.8248 43.0535 62.7383 43.0535C63.1989 43.0535 63.1989 42.1318 62.7383 42.1318C60.8248 42.1318 58.9113 42.1318 56.9978 42.1318C56.5372 42.1318 56.5372 43.0535 56.9978 43.0535Z" fill="white"/>
<path d="M65.0984 43.3304C67.7442 43.2997 70.39 43.1768 73.0358 42.9924C73.7917 42.931 74.5359 42.8849 75.2918 42.8081C75.4808 42.7927 75.6462 42.6084 75.6462 42.3473C75.6462 42.1168 75.4808 41.8711 75.2918 41.8864C72.646 42.1168 70.012 42.2858 67.3663 42.3626C66.6103 42.378 65.8662 42.4087 65.1102 42.4087C64.6496 42.4087 64.6378 43.3304 65.0984 43.3304Z" fill="white"/>
<path d="M30.5848 46.6486C31.9313 46.7254 33.2897 46.6946 34.6362 46.541C34.8252 46.5257 34.9905 46.3413 34.9905 46.0802C34.9905 45.8498 34.8252 45.604 34.6362 45.6193C33.2897 45.773 31.9313 45.8037 30.5848 45.7269C30.3958 45.7115 30.2305 45.9419 30.2305 46.1877C30.2305 46.4489 30.3958 46.6332 30.5848 46.6486Z" fill="white"/>
<path d="M37.3181 46.6945C40.7081 46.6637 44.098 46.633 47.4879 46.6023C48.4446 46.5869 49.4132 46.5869 50.3699 46.5716C50.8306 46.5716 50.8306 45.6499 50.3699 45.6499C46.98 45.6806 43.5901 45.7113 40.2002 45.7421C39.2434 45.7574 38.2749 45.7574 37.3181 45.7728C36.8575 45.7728 36.8575 46.6945 37.3181 46.6945Z" fill="white"/>
<path d="M52.449 46.7711C55.0003 46.8326 57.5398 46.8326 60.0911 46.7711C60.8116 46.7558 61.5203 46.7251 62.2408 46.6943C62.7014 46.679 62.7014 45.7573 62.2408 45.7727C59.7013 45.8802 57.15 45.9263 54.5987 45.8955C53.8782 45.8802 53.1577 45.8802 52.449 45.8495C51.9884 45.8341 51.9884 46.7558 52.449 46.7711Z" fill="white"/>
<path d="M64.6042 46.6485C68.313 46.8022 72.0219 46.8022 75.7307 46.6639C76.7701 46.6178 77.8095 46.5717 78.8489 46.5103C79.0379 46.4949 79.2033 46.3106 79.2033 46.0495C79.2033 45.8037 79.0379 45.5733 78.8489 45.5886C75.1401 45.8037 71.4313 45.8805 67.7225 45.8037C66.683 45.7883 65.6436 45.7576 64.6042 45.7115C64.1554 45.7115 64.1554 46.6332 64.6042 46.6485Z" fill="white"/>
<path d="M77.361 49.1677C74.9751 49.2599 72.5892 49.3367 70.2032 49.4289C69.53 49.4596 68.8449 49.475 68.1717 49.5057C67.711 49.5211 67.711 50.4427 68.1717 50.4274C70.5576 50.3352 72.9435 50.2584 75.3295 50.1662C76.0027 50.1355 76.6878 50.1201 77.361 50.0894C77.8217 50.0587 77.8217 49.137 77.361 49.1677Z" fill="white"/>
<path d="M65.0055 49.3522C62.4069 49.3983 59.8202 49.4444 57.2216 49.4905C54.6231 49.5366 52.0127 49.5827 49.4142 49.6287C47.9496 49.6595 46.4849 49.6748 45.0203 49.7056C44.5596 49.7209 44.5596 50.6426 45.0203 50.6272C47.6188 50.5812 50.2056 50.5351 52.8041 50.489C55.4027 50.4429 58.013 50.3968 60.6116 50.3507C62.0762 50.32 63.5408 50.3046 65.0055 50.2739C65.4543 50.2586 65.4661 49.3369 65.0055 49.3522Z" fill="white"/>
<path d="M42.3625 49.4749C40.3191 49.3981 38.2757 49.4288 36.2323 49.5978C36.0433 49.6132 35.8779 49.7975 35.8779 50.0586C35.8779 50.2891 36.0433 50.5348 36.2323 50.5195C38.2757 50.3659 40.3191 50.3198 42.3625 50.3966C42.8113 50.4273 42.8113 49.5056 42.3625 49.4749Z" fill="white"/>
<path d="M33.7513 49.2443C32.8654 49.3672 31.9678 49.3826 31.0819 49.3211C30.8929 49.3058 30.7275 49.5362 30.7275 49.782C30.7275 50.0431 30.8929 50.2275 31.0819 50.2428C31.9678 50.3043 32.8654 50.2889 33.7513 50.166C33.9403 50.1353 34.1056 49.9663 34.1056 49.7052C34.1056 49.4748 33.9521 49.229 33.7513 49.2443Z" fill="white"/>
<path d="M30.2906 52.3018C29.4284 52.3018 28.5779 52.3018 27.7157 52.3018C27.5267 52.3018 27.3613 52.5168 27.3613 52.7626C27.3613 53.0084 27.5267 53.2234 27.7157 53.2234C28.5779 53.2234 29.4284 53.2234 30.2906 53.2234C30.4796 53.2234 30.6449 53.0084 30.6449 52.7626C30.6449 52.5015 30.4796 52.3018 30.2906 52.3018Z" fill="white"/>
<path d="M32.6648 53.2234C35.0271 53.2542 37.4013 53.2234 39.7636 53.1466C40.425 53.1313 41.0983 53.1006 41.7597 53.0698C42.2204 53.0545 42.2204 52.1328 41.7597 52.1481C39.3974 52.2557 37.0233 52.3171 34.661 52.3171C33.9995 52.3171 33.3263 52.3171 32.6648 52.3018C32.2042 52.2864 32.2042 53.2081 32.6648 53.2234Z" fill="white"/>
<path d="M43.8386 53.4074C45.7993 53.3766 47.76 53.3305 49.7207 53.2998C51.6933 53.2691 53.6658 53.223 55.6383 53.1923C56.7486 53.1769 57.8589 53.1462 58.9692 53.1309C59.4298 53.1155 59.4298 52.1938 58.9692 52.2092C57.0085 52.2399 55.0478 52.286 53.087 52.3167C51.1145 52.3474 49.142 52.3935 47.1694 52.4242C46.0592 52.4396 44.9489 52.4703 43.8386 52.4857C43.3897 52.501 43.3897 53.4227 43.8386 53.4074Z" fill="white"/>
<path d="M61.9343 53.346C63.8832 53.346 65.8203 53.346 67.7692 53.346C68.2298 53.346 68.2298 52.4243 67.7692 52.4243C65.8203 52.4243 63.8832 52.4243 61.9343 52.4243C61.4854 52.4243 61.4854 53.346 61.9343 53.346Z" fill="white"/>
<path d="M27.5175 56.1265C28.3089 55.9729 29.1003 55.9114 29.9035 55.9114C30.0925 55.9114 30.2578 55.6964 30.2578 55.4506C30.2578 55.2048 30.0925 54.9897 29.9035 54.9897C29.0412 54.9897 28.1908 55.0666 27.3286 55.2355C27.1396 55.2663 27.0333 55.5888 27.0805 55.8039C27.1396 56.065 27.3286 56.1572 27.5175 56.1265Z" fill="white"/>
<path d="M32.7705 56.1112C36.2785 56.2955 39.7865 56.3109 43.2827 56.1419C44.2631 56.0958 45.2435 56.0344 46.212 55.9576C46.401 55.9422 46.5664 55.7579 46.5664 55.4967C46.5664 55.2509 46.401 55.0205 46.212 55.0359C42.7158 55.297 39.2078 55.3892 35.6997 55.297C34.7194 55.2663 33.739 55.2356 32.7586 55.1741C32.5697 55.1588 32.4043 55.3892 32.4043 55.635C32.4161 55.9115 32.5697 56.0958 32.7705 56.1112Z" fill="white"/>
<path d="M48.1961 55.9876C50.1922 56.0797 52.1884 56.1412 54.1845 56.1719C56.1689 56.2026 58.1532 56.1873 60.1376 56.1565C61.2715 56.1412 62.3936 56.0951 63.5275 56.049C63.9881 56.0337 63.9881 55.112 63.5275 55.1273C61.5313 55.2042 59.5352 55.2502 57.539 55.2656C55.5547 55.281 53.5703 55.2502 51.586 55.2042C50.4521 55.1734 49.33 55.1273 48.1961 55.0813C47.7354 55.0352 47.7354 55.9568 48.1961 55.9876Z" fill="white"/>
<path d="M65.1931 56.2647C68.4885 56.2955 71.7839 56.2647 75.0793 56.2187C76.0006 56.2033 76.9219 56.1879 77.8432 56.1572C78.3039 56.1419 78.3039 55.2202 77.8432 55.2355C74.5478 55.3123 71.2524 55.3584 67.957 55.3584C67.0357 55.3584 66.1144 55.3584 65.1931 55.3431C64.7442 55.3277 64.7442 56.2494 65.1931 56.2647Z" fill="white"/>
<path d="M27.1257 59.1375C28.0824 59.1375 29.0392 59.1375 29.9959 59.1375C30.4566 59.1375 30.4566 58.2158 29.9959 58.2158C29.0392 58.2158 28.0824 58.2158 27.1257 58.2158C26.6769 58.2158 26.6769 59.1375 27.1257 59.1375Z" fill="white"/>
<path d="M33.0662 59.4905C35.6293 59.5059 38.1924 59.5213 40.7555 59.552C43.3068 59.5674 45.8581 59.5827 48.4094 59.6134C49.8504 59.6288 51.2914 59.6288 52.7443 59.6442C53.2049 59.6442 53.2049 58.7225 52.7443 58.7225C50.1811 58.7071 47.618 58.6917 45.0549 58.661C42.5036 58.6457 39.9523 58.6303 37.401 58.5996C35.96 58.5842 34.519 58.5842 33.0662 58.5688C32.6055 58.5688 32.6055 59.4905 33.0662 59.4905Z" fill="white"/>
<path d="M55.4138 59.4902C59.288 59.521 63.1622 59.5517 67.0364 59.5824C68.1349 59.5978 69.2452 59.5978 70.3437 59.6131C70.8043 59.6131 70.8043 58.6914 70.3437 58.6914C66.4695 58.6607 62.5953 58.63 58.7211 58.5993C57.6226 58.5839 56.5123 58.5839 55.4138 58.5685C54.9532 58.5532 54.9532 59.4749 55.4138 59.4902Z" fill="white"/>
<path d="M72.4236 59.5213C74.8922 59.5213 77.3727 59.5213 79.8413 59.5213C80.3019 59.5213 80.3019 58.5996 79.8413 58.5996C77.3727 58.5996 74.8922 58.5996 72.4236 58.5996C71.963 58.5996 71.963 59.5213 72.4236 59.5213Z" fill="white"/>
<path d="M30.3973 62.8553C32.1336 63.0857 33.8935 63.1625 35.6416 63.1165C36.1023 63.1011 36.1023 62.1794 35.6416 62.1948C33.8935 62.2562 32.1454 62.164 30.3973 61.9336C30.2083 61.9029 30.043 62.164 30.043 62.3945C30.043 62.671 30.1965 62.84 30.3973 62.8553Z" fill="white"/>
<path d="M80.6315 62.5169C79.1551 62.7781 77.655 62.7781 76.1786 62.5477C75.9896 62.5169 75.8242 62.7781 75.8242 63.0085C75.8242 63.285 75.9896 63.4386 76.1786 63.4693C77.7259 63.7151 79.285 63.669 80.8205 63.3925C81.0095 63.3618 81.1158 63.0392 81.0686 62.8242C81.0213 62.5784 80.8323 62.4862 80.6315 62.5169Z" fill="white"/>
<path d="M70.1569 36.5942L61.499 71.5075L86.575 77.8348L93.0005 51.9179L87.201 40.8958L70.1569 36.5942Z" fill="white" stroke="#121242" stroke-width="1.5" stroke-linecap="round" stroke-linejoin="round"/>
<path d="M93.0006 51.9176L87.2011 40.8955L84.9688 49.8919L93.0006 51.9176Z" fill="#A787FF" stroke="#121242" stroke-width="1.5" stroke-linecap="round" stroke-linejoin="round"/>
<path d="M73.7013 54.5394C72.2013 55.1948 70.5831 55.6118 68.9649 55.8144C68.7287 55.8501 68.4924 56.1004 68.6578 56.3506C68.9767 56.8272 69.4256 57.1728 69.8862 57.5064C70.3705 57.8639 70.8666 58.2214 71.3508 58.5789C72.3548 59.3176 73.347 60.0564 74.351 60.7833C74.5045 60.9024 74.7408 60.8071 74.8353 60.6522C74.9416 60.4735 74.8589 60.2828 74.7053 60.1637C73.7368 59.4487 72.7682 58.7338 71.7997 58.0307C71.3272 57.6852 70.8429 57.3277 70.3705 56.9821C69.9807 56.6962 69.5555 56.3983 69.272 55.9812C69.1657 56.16 69.0712 56.3387 68.9649 56.5174C70.7248 56.291 72.4375 55.8501 74.0675 55.1352C74.2447 55.0637 74.2801 54.8016 74.1974 54.6467C74.0793 54.4798 73.8785 54.456 73.7013 54.5394Z" fill="#121242" stroke="#121242" stroke-width="0.5" stroke-linecap="round" stroke-linejoin="round"/>
<path d="M82.2883 54.9323C80.3866 57.1487 78.4613 59.3888 76.1817 61.2358C75.5557 61.7482 74.8942 62.2129 74.2091 62.6538C73.8194 62.8921 74.1737 63.5117 74.5635 63.2734C77.0793 61.6886 79.1818 59.5557 81.1425 57.3393C81.6977 56.7078 82.241 56.0762 82.7962 55.4447C82.9261 55.3017 82.9379 55.0872 82.7962 54.9442C82.6662 54.8013 82.4182 54.7774 82.2883 54.9323Z" fill="#121242" stroke="#121242" stroke-width="0.5" stroke-linecap="round" stroke-linejoin="round"/>
<path d="M82.5711 58.7218C83.8467 59.3653 84.9807 60.2351 85.9492 61.2837C85.9728 61.0931 85.9964 60.9143 86.0201 60.7237C85.6539 60.9382 85.2287 61.0216 84.8035 61.0454C84.331 61.0811 83.8704 61.0811 83.3979 61.1169C82.3703 61.2003 81.3663 61.379 80.3741 61.6412C79.9371 61.7603 80.1261 62.4515 80.5631 62.3323C81.5435 62.0702 82.5593 61.8914 83.5751 61.8199C84.52 61.7484 85.5358 61.8438 86.3862 61.3433C86.587 61.2241 86.6106 60.9501 86.4571 60.7832C85.4531 59.687 84.2601 58.7695 82.9372 58.1141C82.7719 58.0307 82.5593 58.0664 82.453 58.2452C82.3467 58.4001 82.3939 58.6384 82.5711 58.7218Z" fill="#121242" stroke="#121242" stroke-width="0.5" stroke-linecap="round" stroke-linejoin="round"/>
<path d="M36.7235 77.8971C36.7181 77.8899 36.7129 77.8826 36.7077 77.8752C36.271 77.2431 36.6811 76.3277 37.4979 76.3277H37.5052L37.5052 76.3278L40.5174 76.3574V61.658C40.5174 61.2437 40.8532 60.908 41.2674 60.908H46.2294C46.6436 60.908 46.9794 61.2437 46.9794 61.658V76.4301L50.5823 76.4762L50.5855 76.4762L50.5759 77.2262C50.7682 77.2262 50.8836 77.4488 50.7682 77.5973L36.7235 77.8971ZM36.7235 77.8971L43.1264 86.4864M36.7235 77.8971L43.1264 86.4864M43.1264 86.4864C43.1267 86.4869 43.1271 86.4873 43.1274 86.4878C43.5208 87.0173 44.3091 87.0208 44.7077 86.4983L43.1264 86.4864Z" fill="#E1D6FF" stroke="#121242" stroke-width="1.5" stroke-linecap="round" stroke-linejoin="round"/>
</svg>
