<svg width="150" height="150" viewBox="0 0 150 150" fill="none" xmlns="http://www.w3.org/2000/svg">
<path d="M70.5045 45.9586C68.5686 44.6966 68.0714 42.0288 69.3939 40.0001L76.4045 44.5702C75.0819 46.599 72.4404 47.2206 70.5045 45.9586Z" fill="#F5B82E"/>
<path d="M122.708 34.0474C122.211 34.9093 121.108 35.2047 120.245 34.7066C119.382 34.2085 119.087 33.1059 119.585 32.244C120.082 31.3821 121.185 31.0866 122.048 31.5847C122.91 32.0828 123.206 33.1855 122.708 34.0474Z" stroke="#414168"/>
<path d="M42.9 34.2144C42.3739 35.1256 41.2164 35.4363 40.3167 34.9169C39.417 34.3975 39.1074 33.2396 39.6334 32.3285C40.1595 31.4173 41.317 31.1066 42.2167 31.626C43.1164 32.1454 43.426 33.3033 42.9 34.2144Z" stroke="#414168"/>
<path d="M87.1217 115.726C86.8165 116.255 86.1464 116.433 85.6271 116.134C85.1079 115.834 84.9275 115.164 85.2326 114.636C85.5378 114.107 86.2079 113.929 86.7271 114.228C87.2464 114.528 87.4268 115.198 87.1217 115.726Z" stroke="#414168"/>
<path d="M10.3771 60.5666C11.1379 61.0058 12.1129 60.7416 12.5547 59.9763C12.9965 59.211 12.7379 58.2346 11.9771 57.7953C11.2164 57.3561 10.2414 57.6204 9.79961 58.3856C9.35778 59.1509 9.61636 60.1274 10.3771 60.5666Z" fill="#31C587"/>
<path d="M103.881 126.458C105.471 127.377 107.51 126.824 108.434 125.224C109.358 123.623 108.817 121.582 107.226 120.663C105.635 119.745 103.597 120.297 102.673 121.897C101.749 123.498 102.29 125.54 103.881 126.458Z" fill="#144BC1"/>
<path d="M142.702 93.3653L137.984 92L136.607 96.7287L141.325 98.094L142.702 93.3653Z" fill="#F685A1"/>
<path d="M106.035 39.904L102.912 39L102 42.1309L105.124 43.0349L106.035 39.904Z" fill="#144BC1"/>
<line x1="22.5058" y1="79.4981" x2="16.4777" y2="82.146" stroke="#414168"/>
<line x1="88.5014" y1="36.6891" x2="89.075" y2="28.9629" stroke="#414168"/>
<line x1="126.805" y1="58.5593" x2="133.94" y2="55.5396" stroke="#414168"/>
<path d="M117 53H33V103H117V53Z" fill="#A787FF"/>
<path d="M22.1236 97.2011L21.1787 103.189L16.4653 99.3768L22.1236 97.2011Z" fill="#F685A1"/>
<path d="M40.6617 57.8573C40.6617 58.7001 39.9834 59.3743 39.1355 59.3743C38.2877 59.3743 37.6094 58.7001 37.6094 57.8573C37.6094 57.0146 38.2877 56.3403 39.1355 56.3403C39.9834 56.3403 40.6617 57.0146 40.6617 57.8573Z" fill="white"/>
<path d="M46.9058 57.8573C46.9058 58.7001 46.2275 59.3743 45.3797 59.3743C44.5318 59.3743 43.8535 58.7001 43.8535 57.8573C43.8535 57.0146 44.5318 56.3403 45.3797 56.3403C46.2121 56.3403 46.9058 57.0146 46.9058 57.8573Z" fill="white"/>
<path d="M53.148 57.8573C53.148 58.7001 52.4697 59.3743 51.6219 59.3743C50.774 59.3743 50.0957 58.7001 50.0957 57.8573C50.0957 57.0146 50.774 56.3403 51.6219 56.3403C52.4543 56.3403 53.148 57.0146 53.148 57.8573Z" fill="white"/>
<path d="M39.0445 73.6863C40.4627 73.625 41.881 73.5638 43.2992 73.5178C43.5459 73.5025 43.7617 73.3186 43.7617 73.0581C43.7617 72.8129 43.5459 72.5831 43.2992 72.5984C41.881 72.6597 40.4627 72.721 39.0445 72.7669C38.7979 72.7823 38.582 72.9661 38.582 73.2266C38.582 73.4565 38.7979 73.6863 39.0445 73.6863Z" fill="white"/>
<path d="M47.1832 73.6099C50.7904 73.4414 54.3977 73.3034 58.0204 73.1962C61.6277 73.0889 65.2503 73.0276 68.8576 72.997C70.8771 72.9817 72.9119 72.9663 74.9314 72.9817C75.5326 72.9817 75.5326 72.0623 74.9314 72.0623C71.3241 72.0469 67.7014 72.0776 64.0942 72.1389C60.4869 72.2002 56.8642 72.2921 53.2569 72.43C51.2375 72.5066 49.218 72.5986 47.1832 72.6905C46.9365 72.7058 46.7207 72.8897 46.7207 73.1502C46.7207 73.3954 46.9365 73.6252 47.1832 73.6099Z" fill="white"/>
<path d="M78.6775 73.1501C81.1748 73.1501 83.6721 73.1501 86.1695 73.1501C86.7707 73.1501 86.7707 72.2307 86.1695 72.2307C83.6721 72.2307 81.1748 72.2307 78.6775 72.2307C78.0763 72.2307 78.0763 73.1501 78.6775 73.1501Z" fill="white"/>
<path d="M89.2538 73.4259C92.7069 73.3953 96.16 73.2727 99.6131 73.0888C100.6 73.0275 101.571 72.9816 102.558 72.9049C102.804 72.8896 103.02 72.7057 103.02 72.4452C103.02 72.2154 102.804 71.9702 102.558 71.9855C99.1044 72.2154 95.6667 72.384 92.2136 72.4606C91.227 72.4759 90.2558 72.5065 89.2692 72.5065C88.668 72.5065 88.6526 73.4259 89.2538 73.4259Z" fill="white"/>
<path d="M44.2086 76.7358C45.966 76.8125 47.7388 76.7818 49.4961 76.6286C49.7428 76.6133 49.9586 76.4294 49.9586 76.1689C49.9586 75.939 49.7428 75.6939 49.4961 75.7092C47.7388 75.8624 45.966 75.8931 44.2086 75.8164C43.9619 75.8011 43.7461 76.031 43.7461 76.2761C43.7461 76.5366 43.9619 76.7205 44.2086 76.7358Z" fill="white"/>
<path d="M52.9958 76.7817C57.4201 76.7511 61.8444 76.7204 66.2687 76.6898C67.5174 76.6745 68.7815 76.6745 70.0301 76.6591C70.6313 76.6591 70.6313 75.7397 70.0301 75.7397C65.6058 75.7704 61.1815 75.801 56.7573 75.8317C55.5086 75.847 54.2445 75.847 52.9958 75.8623C52.3946 75.8623 52.3946 76.7817 52.9958 76.7817Z" fill="white"/>
<path d="M72.7419 76.8583C76.0717 76.9196 79.3861 76.9196 82.7159 76.8583C83.6562 76.8429 84.5812 76.8123 85.5215 76.7816C86.1227 76.7663 86.1227 75.8469 85.5215 75.8622C82.2071 75.9695 78.8774 76.0155 75.5476 75.9848C74.6072 75.9695 73.6669 75.9695 72.7419 75.9389C72.1407 75.9235 72.1407 76.8429 72.7419 76.8583Z" fill="white"/>
<path d="M88.6054 76.7358C93.4459 76.889 98.2864 76.889 103.127 76.7511C104.484 76.7051 105.84 76.6592 107.197 76.5979C107.443 76.5825 107.659 76.3987 107.659 76.1382C107.659 75.893 107.443 75.6631 107.197 75.6785C102.356 75.893 97.5156 75.9696 92.6751 75.893C91.3185 75.8777 89.9619 75.847 88.6054 75.801C88.0196 75.801 88.0196 76.7204 88.6054 76.7358Z" fill="white"/>
<path d="M105.255 79.2488C102.141 79.3407 99.0269 79.4174 95.913 79.5093C95.0343 79.5399 94.1401 79.5553 93.2615 79.5859C92.6602 79.6012 92.6602 80.5207 93.2615 80.5053C96.3754 80.4134 99.4894 80.3368 102.603 80.2448C103.482 80.2142 104.376 80.1989 105.255 80.1682C105.856 80.1376 105.856 79.2181 105.255 79.2488Z" fill="white"/>
<path d="M89.1299 79.4326C85.7385 79.4785 82.3625 79.5245 78.971 79.5705C75.5796 79.6164 72.1727 79.6624 68.7812 79.7084C66.8697 79.739 64.9582 79.7544 63.0466 79.785C62.4454 79.8003 62.4454 80.7197 63.0466 80.7044C66.4381 80.6584 69.8141 80.6125 73.2055 80.5665C76.597 80.5205 80.0039 80.4745 83.3953 80.4286C85.3068 80.3979 87.2184 80.3826 89.1299 80.352C89.7157 80.3366 89.7311 79.4172 89.1299 79.4326Z" fill="white"/>
<path d="M59.5784 79.5554C56.9115 79.4788 54.2446 79.5094 51.5777 79.678C51.3311 79.6933 51.1152 79.8772 51.1152 80.1377C51.1152 80.3675 51.3311 80.6127 51.5777 80.5974C54.2446 80.4441 56.9115 80.3982 59.5784 80.4748C60.1642 80.5054 60.1642 79.586 59.5784 79.5554Z" fill="white"/>
<path d="M48.3409 79.3254C47.1848 79.448 46.0132 79.4633 44.857 79.402C44.6104 79.3867 44.3945 79.6165 44.3945 79.8617C44.3945 80.1222 44.6104 80.3061 44.857 80.3214C46.0132 80.3827 47.1848 80.3674 48.3409 80.2448C48.5876 80.2141 48.8034 80.0456 48.8034 79.7851C48.8034 79.5552 48.603 79.3101 48.3409 79.3254Z" fill="white"/>
<path d="M43.8231 82.3748C42.6977 82.3748 41.5878 82.3748 40.4625 82.3748C40.2158 82.3748 40 82.5893 40 82.8345C40 83.0796 40.2158 83.2942 40.4625 83.2942C41.5878 83.2942 42.6977 83.2942 43.8231 83.2942C44.0697 83.2942 44.2856 83.0796 44.2856 82.8345C44.2856 82.574 44.0697 82.3748 43.8231 82.3748Z" fill="white"/>
<path d="M46.9216 83.2943C50.0047 83.3249 53.1033 83.2943 56.1864 83.2176C57.0497 83.2023 57.9284 83.1717 58.7917 83.141C59.3929 83.1257 59.3929 82.2063 58.7917 82.2216C55.7085 82.3289 52.61 82.3902 49.5269 82.3902C48.6636 82.3902 47.7849 82.3902 46.9216 82.3749C46.3204 82.3595 46.3204 83.2789 46.9216 83.2943Z" fill="white"/>
<path d="M61.5058 83.4781C64.0648 83.4475 66.6238 83.4015 69.1828 83.3709C71.7572 83.3402 74.3316 83.2942 76.906 83.2636C78.3551 83.2483 79.8042 83.2176 81.2532 83.2023C81.8544 83.187 81.8544 82.2676 81.2532 82.2829C78.6942 82.3136 76.1352 82.3595 73.5762 82.3902C71.0018 82.4208 68.4274 82.4668 65.853 82.4974C64.4039 82.5128 62.9548 82.5434 61.5058 82.5587C60.92 82.574 60.92 83.4934 61.5058 83.4781Z" fill="white"/>
<path d="M85.121 83.4167C87.6646 83.4167 90.1927 83.4167 92.7363 83.4167C93.3375 83.4167 93.3375 82.4973 92.7363 82.4973C90.1927 82.4973 87.6646 82.4973 85.121 82.4973C84.5352 82.4973 84.5352 83.4167 85.121 83.4167Z" fill="white"/>
<path d="M40.2002 86.1903C41.2331 86.0371 42.2659 85.9758 43.3142 85.9758C43.5608 85.9758 43.7766 85.7613 43.7766 85.5161C43.7766 85.2709 43.5608 85.0564 43.3142 85.0564C42.1888 85.0564 41.0789 85.133 39.9535 85.3016C39.7069 85.3322 39.5682 85.654 39.6298 85.8685C39.7069 86.129 39.9536 86.221 40.2002 86.1903Z" fill="white"/>
<path d="M47.0599 86.1749C51.6384 86.3588 56.2168 86.3741 60.7799 86.2056C62.0594 86.1596 63.3389 86.0983 64.6029 86.0217C64.8496 86.0064 65.0654 85.8225 65.0654 85.562C65.0654 85.3168 64.8496 85.087 64.6029 85.1023C60.0399 85.3628 55.4615 85.4547 50.883 85.3628C49.6035 85.3321 48.324 85.3015 47.0445 85.2402C46.7979 85.2249 46.582 85.4547 46.582 85.6999C46.5974 85.9757 46.7979 86.1596 47.0599 86.1749Z" fill="white"/>
<path d="M67.1931 86.0525C69.7983 86.1444 72.4036 86.2057 75.0088 86.2364C77.5987 86.267 80.1885 86.2517 82.7783 86.221C84.2582 86.2057 85.7227 86.1597 87.2026 86.1138C87.8038 86.0984 87.8038 85.179 87.2026 85.1944C84.5974 85.271 81.9921 85.317 79.3869 85.3323C76.7971 85.3476 74.2072 85.317 71.6174 85.271C70.1375 85.2403 68.673 85.1944 67.1931 85.1484C66.5919 85.1024 66.5919 86.0218 67.1931 86.0525Z" fill="white"/>
<path d="M89.3768 86.3281C93.6778 86.3588 97.9788 86.3281 102.28 86.2822C103.482 86.2668 104.685 86.2515 105.887 86.2209C106.488 86.2055 106.488 85.2861 105.887 85.3015C101.586 85.3781 97.2851 85.424 92.9841 85.424C91.7817 85.424 90.5793 85.424 89.3768 85.4087C88.7911 85.3934 88.7911 86.3128 89.3768 86.3281Z" fill="white"/>
<path d="M39.6933 89.1936C40.9419 89.1936 42.1906 89.1936 43.4393 89.1936C44.0405 89.1936 44.0405 88.2742 43.4393 88.2742C42.1906 88.2742 40.9419 88.2742 39.6933 88.2742C39.1075 88.2742 39.1075 89.1936 39.6933 89.1936Z" fill="white"/>
<path d="M47.447 89.5461C50.7922 89.5614 54.1374 89.5768 57.4826 89.6074C60.8124 89.6227 64.1422 89.638 67.472 89.6687C69.3527 89.684 71.2334 89.684 73.1295 89.6993C73.7307 89.6993 73.7307 88.7799 73.1295 88.7799C69.7843 88.7646 66.4391 88.7493 63.0939 88.7186C59.7641 88.7033 56.4343 88.688 53.1046 88.6574C51.2238 88.642 49.3431 88.642 47.447 88.6267C46.8458 88.6267 46.8458 89.5461 47.447 89.5461Z" fill="white"/>
<path d="M76.613 89.5461C81.6694 89.5767 86.7257 89.6074 91.782 89.638C93.2157 89.6533 94.6648 89.6533 96.0984 89.6687C96.6996 89.6687 96.6996 88.7492 96.0984 88.7492C91.0421 88.7186 85.9857 88.6879 80.9294 88.6573C79.4957 88.642 78.0467 88.642 76.613 88.6267C76.0118 88.6113 76.0118 89.5307 76.613 89.5461Z" fill="white"/>
<path d="M98.8103 89.5766C102.032 89.5766 105.269 89.5766 108.491 89.5766C109.093 89.5766 109.093 88.6572 108.491 88.6572C105.269 88.6572 102.032 88.6572 98.8103 88.6572C98.2091 88.6572 98.2091 89.5766 98.8103 89.5766Z" fill="white"/>
<path d="M43.9625 92.9018C46.2286 93.1317 48.5255 93.2083 50.807 93.1623C51.4082 93.147 51.4082 92.2276 50.807 92.2429C48.5255 92.3042 46.244 92.2123 43.9625 91.9824C43.7158 91.9518 43.5 92.2123 43.5 92.4421C43.5 92.718 43.7004 92.8865 43.9625 92.9018Z" fill="white"/>
<path d="M109.524 92.5648C107.597 92.8253 105.639 92.8253 103.712 92.5954C103.466 92.5648 103.25 92.8253 103.25 93.0551C103.25 93.3309 103.466 93.4842 103.712 93.5148C105.732 93.76 107.767 93.714 109.771 93.4382C110.017 93.4075 110.156 93.0858 110.095 92.8712C110.033 92.6261 109.786 92.5341 109.524 92.5648Z" fill="white"/>
<path d="M42.3289 116.667C40.2983 119.093 37.8822 121.291 35.1409 123.154C36.0041 123.639 37.0482 123.801 38.0922 123.963C41.4855 124.507 44.8788 125.052 48.2878 125.627" stroke="#414168" stroke-miterlimit="10" stroke-linecap="round" stroke-linejoin="round"/>
<path d="M57.3303 109.741C55.6199 116.712 53.8798 123.775 50.1989 129.9" stroke="#414168" stroke-miterlimit="10" stroke-linecap="round" stroke-linejoin="round"/>
<path d="M60.443 115.019C63.1561 114.985 65.905 115.472 68.5512 116.437C67.8116 117.625 66.5756 118.217 65.4171 118.886C63.3588 120.052 61.4405 121.418 59.6472 123.028" stroke="#414168" stroke-miterlimit="10" stroke-linecap="round" stroke-linejoin="round"/>
<path d="M27.376 44.59L39.6645 83.3424L67.6721 74.5225L58.5436 45.7474L46.4135 38.5895L27.376 44.59Z" fill="#41CADD"/>
<path d="M58.5432 45.7477L46.4132 38.5898L49.5839 48.5845L58.5432 45.7477Z" fill="#414168"/>
<path d="M54.9966 53.7458C54.1127 53.4049 53.1301 53.6598 52.2414 53.9283C51.3697 54.1924 50.4779 54.5187 49.7879 55.1348C49.0979 55.7509 48.6496 56.7414 48.8559 57.6762C49.1407 58.9137 50.4574 59.5985 51.6572 59.7625C53.7024 60.0493 56.1573 59.5456 57.5032 61.6672C57.9867 62.4161 58.1637 63.3775 57.9942 64.2577C57.9403 64.5377 57.8479 64.8088 57.6646 65.0084C57.5275 65.177 57.3381 65.2831 57.1656 65.3849C56.1598 65.9688 55.0709 66.4413 53.9236 66.5488C52.7716 66.6385 51.5303 66.3143 50.6833 65.4887" stroke="white" stroke-miterlimit="10" stroke-linecap="round" stroke-linejoin="round"/>
<path d="M42.5769 55.8244C43.6964 58.3992 44.617 61.0625 45.35 63.7776C45.8087 65.4895 46.1513 67.4474 45.1573 68.9605C44.2172 70.3773 42.4053 70.9528 40.7166 71.4192" stroke="white" stroke-miterlimit="10" stroke-linecap="round" stroke-linejoin="round"/>
<path d="M105.373 66.5391L93.3922 105.388L121.434 114.097L130.327 85.2484L124.437 72.4547L105.373 66.5391Z" fill="#41CADD"/>
<path d="M130.328 85.2483L124.437 72.4546L121.348 82.4749L130.328 85.2483Z" fill="#414168"/>
<path d="M103.436 82.8822C108.47 84.459 110.086 84.7791 115.119 86.3559" stroke="white" stroke-miterlimit="10" stroke-linecap="round" stroke-linejoin="round"/>
<path d="M108.914 84.4658C108.012 88.8971 106.771 93.2826 105.226 97.5361" stroke="white" stroke-miterlimit="10" stroke-linecap="round" stroke-linejoin="round"/>
<path d="M123.423 90.1941C122.891 89.4103 121.938 89.0599 121.055 88.7742C120.188 88.4946 119.269 88.2547 118.351 88.3678C117.433 88.481 116.5 89.0396 116.137 89.9254C115.666 91.1046 116.358 92.4176 117.25 93.2359C118.768 94.6369 121.072 95.6217 120.969 98.1321C120.94 99.023 120.538 99.914 119.897 100.541C119.693 100.74 119.463 100.91 119.198 100.97C118.99 101.03 118.774 101.01 118.574 100.995C117.415 100.902 116.251 100.67 115.246 100.104C114.248 99.5217 113.413 98.548 113.187 97.3869" stroke="white" stroke-miterlimit="10" stroke-linecap="round" stroke-linejoin="round"/>
</svg>
