<svg width="110" height="110" viewBox="0 0 110 110" fill="none" xmlns="http://www.w3.org/2000/svg">
<path d="M86.3622 31.1011H22.001V69.9823H86.3622V31.1011Z" fill="#A787FF"/>
<path fill-rule="evenodd" clip-rule="evenodd" d="M21.251 31.1011C21.251 30.6869 21.5868 30.3511 22.001 30.3511H86.3622C86.7764 30.3511 87.1122 30.6869 87.1122 31.1011V69.9823C87.1122 70.3965 86.7764 70.7323 86.3622 70.7323H22.001C21.5868 70.7323 21.251 70.3965 21.251 69.9823V31.1011ZM22.751 31.8511V69.2323H85.6122V31.8511H22.751Z" fill="#121242"/>
<path fill-rule="evenodd" clip-rule="evenodd" d="M27.8709 36.6758C27.8709 37.3311 27.3512 37.8554 26.7016 37.8554C26.0519 37.8554 25.5322 37.3311 25.5322 36.6758C25.5322 36.0204 26.0519 35.4961 26.7016 35.4961C27.3512 35.4961 27.8709 36.0204 27.8709 36.6758ZM32.6541 36.6758C32.6541 37.3311 32.1344 37.8554 31.4848 37.8554C30.8351 37.8554 30.3154 37.3311 30.3154 36.6758C30.3154 36.0204 30.8351 35.4961 31.4848 35.4961C32.1226 35.4961 32.6541 36.0204 32.6541 36.6758ZM36.268 37.8554C36.9176 37.8554 37.4373 37.3311 37.4373 36.6758C37.4373 36.0204 36.9058 35.4961 36.268 35.4961C35.6183 35.4961 35.0986 36.0204 35.0986 36.6758C35.0986 37.3311 35.6183 37.8554 36.268 37.8554ZM26.6288 43.5914L26.6291 43.5914C27.7156 43.5299 28.8022 43.4685 29.8888 43.4224C30.0777 43.407 30.2431 43.2227 30.2431 42.9616C30.2431 42.7158 30.0777 42.4854 29.8888 42.5007C28.8021 42.5622 27.7154 42.6236 26.6288 42.6697C26.4398 42.6851 26.2744 42.8694 26.2744 43.1305C26.2744 43.361 26.4398 43.5914 26.6288 43.5914ZM41.1696 43.0996C38.3939 43.2072 35.63 43.3454 32.8661 43.5144C32.6771 43.5298 32.5117 43.2993 32.5117 43.0536C32.5117 42.7924 32.6771 42.6081 32.8661 42.5927L33.0694 42.5807H33.0694C34.5598 42.4926 36.0398 42.405 37.5198 42.3316C40.2837 42.1933 43.0594 42.1012 45.8234 42.0397C48.5873 41.9783 51.363 41.9475 54.1269 41.9629C54.5875 41.9629 54.5875 42.8846 54.1269 42.8846C52.5796 42.8692 51.0204 42.8846 49.4731 42.8999C46.7092 42.9307 43.9335 42.9921 41.1696 43.0996ZM56.9969 43.0535H62.7373C63.1979 43.0535 63.1979 42.1318 62.7373 42.1318H56.9969C56.5362 42.1318 56.5362 43.0535 56.9969 43.0535ZM73.0358 42.9924C70.39 43.1768 67.7442 43.2997 65.0984 43.3304C64.6378 43.3304 64.6496 42.4087 65.1102 42.4087C65.6124 42.4087 66.1094 42.3952 66.6081 42.3815L66.6082 42.3815C66.8601 42.3747 67.1125 42.3678 67.3663 42.3626C70.012 42.2858 72.646 42.1168 75.2918 41.8864C75.4808 41.8711 75.6462 42.1168 75.6462 42.3473C75.6462 42.6084 75.4808 42.7927 75.2918 42.8081C74.7828 42.8598 74.2792 42.8976 73.7736 42.9355C73.5284 42.9539 73.2827 42.9724 73.0358 42.9924ZM30.5848 46.6486C31.9313 46.7254 33.2897 46.6946 34.6362 46.541C34.8252 46.5257 34.9905 46.3413 34.9905 46.0802C34.9905 45.8498 34.8252 45.604 34.6362 45.6193C33.2897 45.773 31.9313 45.8037 30.5848 45.7269C30.3958 45.7115 30.2305 45.9419 30.2305 46.1877C30.2305 46.4489 30.3958 46.6332 30.5848 46.6486ZM47.4879 46.6023L37.3181 46.6945C36.8575 46.6945 36.8575 45.7728 37.3181 45.7728C37.7964 45.7651 38.2776 45.7613 38.7588 45.7574L38.7592 45.7574L38.7595 45.7574C39.2407 45.7536 39.7219 45.7498 40.2002 45.7421L50.3699 45.6499C50.8306 45.6499 50.8306 46.5716 50.3699 46.5716C49.8915 46.5793 49.4102 46.5831 48.9289 46.5869C48.4476 46.5908 47.9663 46.5946 47.4879 46.6023ZM52.449 46.7711C55.0003 46.8326 57.5398 46.8326 60.0911 46.7711C60.7894 46.7563 61.4766 46.7269 62.1742 46.6972L62.1743 46.6972L62.2408 46.6943C62.7014 46.679 62.7014 45.7573 62.2408 45.7727C59.7013 45.8802 57.15 45.9263 54.5987 45.8955C54.3606 45.8905 54.1225 45.8871 53.8849 45.8837L53.8847 45.8837L53.8845 45.8837L53.8843 45.8837L53.8841 45.8837L53.8839 45.8837L53.8837 45.8837L53.8836 45.8837L53.8834 45.8837L53.8832 45.8837L53.883 45.8837L53.8828 45.8837L53.8826 45.8837L53.8824 45.8836L53.8822 45.8836L53.882 45.8836L53.8819 45.8836L53.8817 45.8836L53.8815 45.8836L53.8813 45.8836C53.4009 45.8768 52.9223 45.87 52.449 45.8495C51.9884 45.8341 51.9884 46.7558 52.449 46.7711ZM75.7297 46.6639C72.0209 46.8022 68.3121 46.8022 64.6032 46.6486C64.1544 46.6332 64.1544 45.7115 64.6032 45.7115C65.6426 45.7576 66.6821 45.7883 67.7215 45.8037C71.4303 45.8805 75.1391 45.8037 78.848 45.5886C79.037 45.5733 79.2023 45.8037 79.2023 46.0495C79.2023 46.3106 79.037 46.4949 78.848 46.5103C77.8085 46.5717 76.7691 46.6178 75.7297 46.6639ZM73.7813 49.2983L73.7812 49.2983C72.5882 49.3406 71.3952 49.3828 70.2023 49.4289C69.8656 49.4442 69.5261 49.4558 69.1865 49.4673C68.8469 49.4788 68.5073 49.4903 68.1707 49.5057C67.71 49.5211 67.71 50.4427 68.1707 50.4274C69.3636 50.3813 70.5566 50.339 71.7496 50.2968C72.9425 50.2546 74.1355 50.2123 75.3285 50.1662C75.6651 50.1509 76.0047 50.1393 76.3443 50.1278C76.6839 50.1163 77.0234 50.1048 77.3601 50.0894C77.8207 50.0587 77.8207 49.137 77.3601 49.1677C76.1678 49.2138 74.9756 49.256 73.7833 49.2982L73.7832 49.2982L73.7831 49.2982L73.7829 49.2982L73.7828 49.2982L73.7827 49.2982L73.7826 49.2983L73.7824 49.2983L73.7823 49.2983L73.7822 49.2983L73.7821 49.2983L73.7819 49.2983L73.7818 49.2983L73.7817 49.2983L73.7816 49.2983L73.7814 49.2983L73.7813 49.2983ZM57.2216 49.4905L65.0055 49.3522C65.4661 49.3369 65.4543 50.2586 65.0055 50.2739C64.2731 50.2893 63.5408 50.3008 62.8085 50.3123C62.0762 50.3239 61.3439 50.3354 60.6116 50.3507L52.8041 50.489L45.0203 50.6272C44.5596 50.6426 44.5596 49.7209 45.0203 49.7056C45.7526 49.6902 46.4849 49.6787 47.2172 49.6672C47.9496 49.6556 48.6819 49.6441 49.4142 49.6287L57.2216 49.4905ZM42.3625 49.4749C40.3191 49.3981 38.2757 49.4288 36.2323 49.5978C36.0433 49.6132 35.8779 49.7975 35.8779 50.0586C35.8779 50.2891 36.0433 50.5348 36.2323 50.5195C38.2757 50.3659 40.3191 50.3198 42.3625 50.3966C42.8113 50.4273 42.8113 49.5056 42.3625 49.4749ZM31.0819 49.3211C31.9678 49.3826 32.8654 49.3672 33.7513 49.2443C33.9521 49.229 34.1056 49.4748 34.1056 49.7052C34.1056 49.9663 33.9403 50.1353 33.7513 50.166C32.8654 50.2889 31.9678 50.3043 31.0819 50.2428C30.8929 50.2275 30.7275 50.0431 30.7275 49.782C30.7275 49.5362 30.8929 49.3058 31.0819 49.3211ZM30.2906 52.3018H27.7157C27.5267 52.3018 27.3613 52.5168 27.3613 52.7626C27.3613 53.0084 27.5267 53.2234 27.7157 53.2234H30.2906C30.4796 53.2234 30.6449 53.0084 30.6449 52.7626C30.6449 52.5015 30.4796 52.3018 30.2906 52.3018ZM39.7636 53.1466C37.4013 53.2234 35.0271 53.2542 32.6648 53.2234C32.2042 53.2081 32.2042 52.2864 32.6648 52.3018C33.3263 52.3171 33.9995 52.3171 34.661 52.3171C37.0233 52.3171 39.3974 52.2557 41.7597 52.1481C42.2204 52.1328 42.2204 53.0545 41.7597 53.0698C41.0983 53.1006 40.425 53.1313 39.7636 53.1466ZM43.8386 53.4074C44.819 53.392 45.7994 53.3728 46.7798 53.3536L46.7813 53.3536C47.7611 53.3344 48.7409 53.3152 49.7207 53.2998C50.707 53.2845 51.6933 53.2653 52.6795 53.2461C53.6658 53.2269 54.6521 53.2077 55.6383 53.1923C56.1932 53.1846 56.7481 53.1731 57.3029 53.1616L57.3038 53.1616C57.8589 53.1501 58.414 53.1385 58.9692 53.1308C59.4298 53.1155 59.4298 52.1938 58.9692 52.2092C57.9888 52.2245 57.0085 52.2437 56.0281 52.2629C55.0478 52.2821 54.0674 52.3013 53.087 52.3167C52.1008 52.3321 51.1146 52.3513 50.1284 52.3705C49.1421 52.3897 48.1558 52.4089 47.1694 52.4242C46.6146 52.4319 46.0597 52.4434 45.5048 52.4549L45.504 52.455C44.9489 52.4665 44.3937 52.478 43.8386 52.4857C43.3897 52.501 43.3897 53.4227 43.8386 53.4074ZM67.7682 53.346H61.9333C61.4845 53.346 61.4845 52.4243 61.9333 52.4243H67.7682C68.2289 52.4243 68.2289 53.346 67.7682 53.346ZM27.5175 56.1265C28.3089 55.9729 29.1003 55.9114 29.9035 55.9114C30.0925 55.9114 30.2578 55.6964 30.2578 55.4506C30.2578 55.2048 30.0925 54.9897 29.9035 54.9897C29.0412 54.9897 28.1908 55.0666 27.3286 55.2355C27.1396 55.2663 27.0333 55.5888 27.0805 55.8039C27.1396 56.065 27.3286 56.1572 27.5175 56.1265ZM43.2827 56.1419C39.7865 56.3109 36.2785 56.2955 32.7705 56.1112C32.5697 56.0958 32.4161 55.9115 32.4043 55.635C32.4043 55.3892 32.5697 55.1588 32.7586 55.1741C33.7389 55.2356 34.7192 55.2663 35.6995 55.297L35.6997 55.297C39.2078 55.3892 42.7158 55.297 46.212 55.0359C46.401 55.0205 46.5664 55.2509 46.5664 55.4967C46.5664 55.7579 46.401 55.9422 46.212 55.9576C45.2435 56.0344 44.2631 56.0958 43.2827 56.1419ZM48.1961 55.9876C50.1922 56.0797 52.1884 56.1412 54.1845 56.1719C56.1689 56.2026 58.1532 56.1873 60.1376 56.1565C61.2542 56.1414 62.3595 56.0965 63.4758 56.0511L63.4759 56.0511L63.5275 56.049C63.9881 56.0337 63.9881 55.112 63.5275 55.1273C61.5313 55.2042 59.5352 55.2502 57.539 55.2656C55.5547 55.281 53.5703 55.2502 51.586 55.2042C50.4855 55.1743 49.3961 55.13 48.2962 55.0853L48.2961 55.0853L48.1961 55.0813C47.7354 55.0352 47.7354 55.9569 48.1961 55.9876ZM75.0784 56.2187C71.7829 56.2647 68.4875 56.2955 65.1921 56.2647C64.7433 56.2494 64.7433 55.3277 65.1921 55.3431C66.1134 55.3584 67.0347 55.3584 67.956 55.3584C71.2514 55.3584 74.5468 55.3123 77.8423 55.2355C78.3029 55.2202 78.3029 56.1419 77.8423 56.1572C76.9211 56.1879 75.9999 56.2033 75.0787 56.2187L75.0784 56.2187ZM27.1247 59.1375H29.9949C30.4556 59.1375 30.4556 58.2158 29.9949 58.2158H27.1247C26.6759 58.2158 26.6759 59.1375 27.1247 59.1375ZM40.7555 59.552C38.1924 59.5213 35.6293 59.5059 33.0662 59.4905C32.6055 59.4905 32.6055 58.5688 33.0662 58.5688C33.791 58.5765 34.5128 58.5804 35.2331 58.5842H35.2333H35.2334H35.2335H35.2336C35.9571 58.588 36.6791 58.5919 37.401 58.5996C39.9523 58.6303 42.5036 58.6457 45.0549 58.661C47.6177 58.6917 50.1805 58.7071 52.7433 58.7225L52.7442 58.7225C53.2049 58.7225 53.2049 59.6442 52.7442 59.6442C52.0195 59.6365 51.2977 59.6327 50.5773 59.6288H50.5772H50.5771H50.577H50.5768L50.5759 59.6288C49.8528 59.625 49.1311 59.6211 48.4094 59.6134C45.8581 59.5827 43.3068 59.5674 40.7555 59.552ZM55.4129 59.4902L67.0354 59.5824C67.5844 59.5901 68.1363 59.5939 68.6883 59.5978L68.6891 59.5978L68.6899 59.5978C69.2418 59.6016 69.7937 59.6054 70.3427 59.6131C70.8033 59.6131 70.8033 58.6914 70.3427 58.6914L58.7201 58.5993C58.1708 58.5916 57.6186 58.5877 57.0664 58.5839C56.5142 58.5801 55.9621 58.5762 55.4129 58.5686C54.9522 58.5532 54.9522 59.4749 55.4129 59.4902ZM79.8403 59.5213H72.4226C71.962 59.5213 71.962 58.5996 72.4226 58.5996H79.8403C80.3009 58.5996 80.3009 59.5213 79.8403 59.5213ZM30.3973 62.8553C32.1336 63.0857 33.8935 63.1625 35.6416 63.1165C36.1023 63.1011 36.1023 62.1794 35.6416 62.1948C33.8935 62.2562 32.1454 62.164 30.3973 61.9336C30.2083 61.9029 30.043 62.164 30.043 62.3945C30.043 62.671 30.1965 62.84 30.3973 62.8553ZM76.1776 62.5477C77.654 62.7781 79.1541 62.7781 80.6306 62.5169C80.8314 62.4862 81.0203 62.5784 81.0676 62.8242C81.1148 63.0392 81.0085 63.3618 80.8195 63.3925C79.284 63.669 77.7249 63.7151 76.1776 63.4693C75.9886 63.4386 75.8232 63.285 75.8232 63.0085C75.8232 62.7781 75.9886 62.5169 76.1776 62.5477Z" fill="white"/>
<path d="M70.1569 36.5942L61.499 71.5075L86.575 77.8348L93.0005 51.9179L87.201 40.8958L70.1569 36.5942Z" fill="white"/>
<path fill-rule="evenodd" clip-rule="evenodd" d="M69.7713 35.9511C69.9424 35.8485 70.1472 35.8182 70.3406 35.867L87.3847 40.1686C87.5912 40.2207 87.7657 40.3582 87.8649 40.5466L93.6644 51.5687C93.75 51.7314 93.7728 51.9199 93.7286 52.0984L87.3031 78.0153C87.2551 78.2088 87.132 78.3753 86.9609 78.4779C86.7899 78.5805 86.585 78.6108 86.3917 78.562L61.3157 72.2347C60.9152 72.1337 60.6718 71.7279 60.7712 71.327L69.4291 36.4137C69.4771 36.2201 69.6003 36.0536 69.7713 35.9511ZM70.7038 37.5057L62.4069 70.963L86.0284 76.9233L92.204 52.0145L86.6932 41.5412L70.7038 37.5057Z" fill="#121242"/>
<path d="M93.0006 51.9176L87.2011 40.8955L84.9688 49.8919L93.0006 51.9176Z" fill="#A787FF" stroke="#121242" stroke-width="1.5" stroke-linecap="round" stroke-linejoin="round"/>
<path d="M73.7013 54.5394C72.2013 55.1948 70.5831 55.6118 68.9649 55.8144C68.7287 55.8501 68.4924 56.1004 68.6578 56.3506C68.9767 56.8272 69.4256 57.1728 69.8862 57.5064C70.3705 57.8639 70.8666 58.2214 71.3508 58.5789C72.3548 59.3176 73.347 60.0564 74.351 60.7833C74.5045 60.9024 74.7408 60.8071 74.8353 60.6522C74.9416 60.4735 74.8589 60.2828 74.7053 60.1637C73.7368 59.4487 72.7682 58.7338 71.7997 58.0307C71.3272 57.6852 70.8429 57.3277 70.3705 56.9821C69.9807 56.6962 69.5555 56.3983 69.272 55.9812C69.1657 56.16 69.0712 56.3387 68.9649 56.5174C70.7248 56.291 72.4375 55.8501 74.0675 55.1352C74.2447 55.0637 74.2801 54.8016 74.1974 54.6467C74.0793 54.4798 73.8785 54.456 73.7013 54.5394Z" fill="#121242"/>
<path fill-rule="evenodd" clip-rule="evenodd" d="M73.5984 54.3115C73.8556 54.1921 74.1971 54.2135 74.4015 54.5021C74.4076 54.5107 74.4131 54.5196 74.418 54.5289C74.4908 54.6651 74.506 54.8313 74.4741 54.9759C74.4423 55.1205 74.3513 55.2883 74.1651 55.3653C72.8965 55.9215 71.5798 56.3135 70.2321 56.5693C70.3063 56.6251 70.3821 56.6806 70.4587 56.7367C70.4785 56.7513 70.4985 56.7659 70.5184 56.7805L70.3705 56.9821L70.5181 56.7803C70.7546 56.9532 70.994 57.1291 71.2331 57.3048L71.2332 57.3049C71.4723 57.4806 71.7111 57.6561 71.947 57.8286C72.9163 58.5322 73.8855 59.2476 74.8537 59.9624L74.8539 59.9624L74.8587 59.966L74.8586 59.9661C75.0684 60.1289 75.2456 60.4513 75.0502 60.7799L75.0487 60.7823L75.0487 60.7823C74.9677 60.9151 74.8339 61.0138 74.6903 61.0589C74.5455 61.1044 74.3588 61.1034 74.2016 60.9836C73.4958 60.4726 72.7953 59.9554 72.0935 59.4372C71.797 59.2182 71.5002 58.999 71.2027 58.7801L71.2024 58.7799C70.961 58.6017 70.7165 58.4234 70.4713 58.2446L70.471 58.2444C70.2264 58.066 69.9811 57.8871 69.7387 57.7082C69.2787 57.375 68.7962 57.0069 68.4501 56.4896L68.4493 56.4884L68.4493 56.4884C68.3031 56.2672 68.337 56.0309 68.4551 55.8599C68.5638 55.7026 68.744 55.5949 68.9275 55.5671L68.9339 55.5662L68.9339 55.5663C70.53 55.3665 72.1235 54.9555 73.5984 54.3115ZM69.7369 56.1501C71.1933 55.9045 72.6102 55.5014 73.9671 54.9062L73.9711 54.9044C73.9741 54.9012 73.9807 54.8915 73.9858 54.8683C73.99 54.8495 73.9911 54.8279 73.9887 54.8072C73.9872 54.7948 73.9848 54.7847 73.9822 54.777C73.9643 54.7573 73.9453 54.7485 73.9254 54.7448C73.8976 54.7396 73.8564 54.7427 73.8079 54.7655L73.8015 54.7685L73.8015 54.7684C72.4589 55.355 71.0254 55.7528 69.5827 55.9796C69.631 56.0387 69.6825 56.0953 69.7369 56.1501ZM68.9183 56.0952C68.8971 56.1093 68.8788 56.1263 68.8665 56.1441C68.8548 56.1611 68.8528 56.1722 68.8526 56.1771C68.8525 56.1793 68.8522 56.1867 68.8592 56.2003C68.8729 56.176 68.8866 56.1515 68.9005 56.1268L68.9012 56.1256C68.9069 56.1155 68.9126 56.1054 68.9183 56.0952ZM69.3065 56.7232C69.3962 56.7103 69.4858 56.6969 69.5752 56.6829C69.7647 56.849 69.9635 56.9942 70.1464 57.1279C70.1722 57.1467 70.1976 57.1653 70.2226 57.1836L70.2229 57.1839C70.4589 57.3564 70.6979 57.532 70.9371 57.7078L70.9372 57.7079C71.1763 57.8836 71.4157 58.0595 71.6521 58.2324L71.6529 58.233C72.6196 58.9346 73.5864 59.6483 74.5541 60.3627C74.5979 60.3972 74.621 60.4338 74.6292 60.4602C74.6356 60.4805 74.6354 60.4985 74.6212 60.523C74.6153 60.5323 74.605 60.5443 74.5897 60.5559C74.574 60.5679 74.5566 60.5768 74.5404 60.5819C74.5241 60.5871 74.513 60.5871 74.5078 60.5865L74.5053 60.5861L74.5046 60.5859C74.5046 60.5859 74.5046 60.5859 74.5043 60.5857L74.5044 60.5856L74.4976 60.5807C73.7929 60.0705 73.0945 59.5547 72.3926 59.0365C72.0957 58.8172 71.7981 58.5975 71.4992 58.3775M73.9696 54.9058C73.9696 54.9057 73.9699 54.9054 73.9706 54.905Z" fill="#121242"/>
<path d="M82.2883 54.9323C80.3866 57.1487 78.4613 59.3888 76.1817 61.2358C75.5557 61.7482 74.8942 62.2129 74.2091 62.6538C73.8194 62.8921 74.1737 63.5117 74.5635 63.2734C77.0793 61.6886 79.1818 59.5557 81.1425 57.3393C81.6977 56.7078 82.241 56.0762 82.7962 55.4447C82.9261 55.3017 82.9379 55.0872 82.7962 54.9442C82.6662 54.8013 82.4182 54.7774 82.2883 54.9323Z" fill="#121242"/>
<path fill-rule="evenodd" clip-rule="evenodd" d="M82.9774 54.7721C83.2203 55.021 83.1877 55.384 82.9828 55.6112C82.7061 55.9259 82.4324 56.2407 82.1581 56.5561L82.158 56.5562L82.1579 56.5563C81.8834 56.872 81.6084 57.1882 81.3303 57.5045L81.3298 57.5051C79.3648 59.7262 77.2434 61.8808 74.6968 63.485L74.6939 63.4868L74.6939 63.4868C74.5354 63.5837 74.3626 63.6007 74.2073 63.547C74.0592 63.4959 73.9463 63.3877 73.877 63.2665C73.8075 63.1451 73.7722 62.9939 73.7991 62.8413C73.827 62.6833 73.9195 62.539 74.076 62.4422C74.7548 62.0053 75.4073 61.5466 76.0233 61.0424L76.0243 61.0416C78.2831 59.2115 80.1939 56.9894 82.0978 54.7705C82.3449 54.4775 82.768 54.5465 82.9774 54.7721ZM82.5304 55.0764C82.5007 55.075 82.4867 55.0849 82.4798 55.0931L82.478 55.0952C80.5789 57.3086 78.6395 59.5663 76.3396 61.4297C75.7043 61.9496 75.0348 62.4198 74.3445 62.8641L74.3396 62.8672L74.3396 62.8672C74.3029 62.8896 74.2944 62.9113 74.2915 62.9282C74.2874 62.9513 74.2919 62.9848 74.311 63.0183C74.3303 63.052 74.3547 63.069 74.3705 63.0744C74.379 63.0773 74.3964 63.0823 74.432 63.0609C76.9162 61.4956 78.9992 59.3849 80.9551 57.174C81.232 56.859 81.5061 56.5438 81.7807 56.228L81.7811 56.2276C82.0555 55.9121 82.3305 55.5959 82.6084 55.2797L82.6111 55.2767L82.6111 55.2767C82.637 55.2482 82.6477 55.2165 82.6481 55.1904C82.6485 55.1664 82.6407 55.1426 82.6186 55.1203L82.611 55.1126L82.6111 55.1125C82.5935 55.093 82.5627 55.0779 82.5304 55.0764Z" fill="#121242"/>
<path d="M82.5701 58.7218C83.8458 59.3653 84.9797 60.2351 85.9482 61.2837C85.9718 61.0931 85.9955 60.9143 86.0191 60.7237C85.6529 60.9382 85.2277 61.0216 84.8025 61.0454C84.33 61.0811 83.8694 61.0811 83.3969 61.1169C82.3693 61.2003 81.3653 61.379 80.3732 61.6412C79.9361 61.7603 80.1251 62.4515 80.5621 62.3323C81.5425 62.0702 82.5583 61.8914 83.5741 61.8199C84.519 61.7484 85.5348 61.8438 86.3852 61.3433C86.586 61.2241 86.6097 60.9501 86.4561 60.7832C85.4521 59.687 84.2592 58.7695 82.9363 58.1141C82.7709 58.0307 82.5583 58.0664 82.452 58.2452C82.3457 58.4001 82.3929 58.6384 82.5701 58.7218Z" fill="#121242"/>
<path fill-rule="evenodd" clip-rule="evenodd" d="M83.048 57.8904C84.4 58.5603 85.6172 59.497 86.6405 60.6143C86.8893 60.8852 86.8648 61.3493 86.5128 61.5582L86.512 61.5587C86.0427 61.8349 85.5355 61.9418 85.0399 61.9912C84.7922 62.0158 84.5431 62.0265 84.3016 62.0354C84.2721 62.0365 84.2427 62.0376 84.2134 62.0386C84.001 62.0464 83.7952 62.0538 83.5929 62.0691L83.5916 62.0692C82.5931 62.1395 81.593 62.3153 80.6267 62.5737L80.5621 62.3322L80.6279 62.5734C80.4486 62.6223 80.2787 62.5894 80.1448 62.4971C80.0169 62.4089 79.9355 62.2764 79.8987 62.142C79.862 62.0076 79.8647 61.8521 79.93 61.711C79.9984 61.5634 80.1281 61.4488 80.3074 61.3999L80.3093 61.3994L80.3093 61.3994C81.3147 61.1338 82.3333 60.9523 83.3767 60.8676L83.378 60.8675C83.6189 60.8493 83.8561 60.8402 84.088 60.8313L84.0901 60.8313C84.3241 60.8223 84.5528 60.8135 84.7836 60.796L84.7885 60.7957L84.7885 60.7957C84.8872 60.7902 84.9844 60.7813 85.0797 60.7684C84.2946 60.044 83.4179 59.4297 82.4601 58.9463C82.1323 58.7892 82.0652 58.3759 82.2411 58.1107C82.4266 57.8068 82.7876 57.7595 83.048 57.8904ZM85.5167 61.1927C85.2851 61.2519 85.0488 61.2818 84.8189 61.2948C84.5789 61.3129 84.3425 61.3219 84.1114 61.3308L84.1093 61.3309C83.8755 61.3398 83.647 61.3486 83.4164 61.3661C82.4052 61.4482 81.4165 61.6241 80.4381 61.8825C80.3996 61.8932 80.3891 61.9095 80.3837 61.9212C80.3752 61.9396 80.3705 61.9717 80.381 62.0101C80.3915 62.0484 80.4119 62.0739 80.4287 62.0855C80.4395 62.0929 80.4571 62.1017 80.4964 62.091L80.4975 62.0907C81.4917 61.8249 82.523 61.6432 83.5559 61.5705C83.7685 61.5544 83.9845 61.5466 84.1957 61.539C84.2249 61.5379 84.2541 61.5368 84.2831 61.5358C84.5244 61.5268 84.7596 61.5166 84.9903 61.4936C85.2323 61.4695 85.4646 61.4317 85.6858 61.3688C85.63 61.3095 85.5736 61.2508 85.5167 61.1927ZM86.2168 61.1517C86.2307 61.1439 86.2446 61.1359 86.2584 61.1278L86.3852 61.3432L86.2576 61.1282C86.2854 61.1118 86.3014 61.0859 86.3051 61.0529C86.3091 61.018 86.298 60.9806 86.2722 60.9525L86.2717 60.952C86.2631 60.9426 86.2545 60.9332 86.2459 60.9238C86.2411 60.961 86.2364 60.9979 86.2317 61.0347L86.2316 61.0353C86.2267 61.0741 86.2217 61.1128 86.2168 61.1517ZM85.862 60.5254C85.7952 60.5626 85.7258 60.5953 85.6541 60.6239C84.7769 59.7712 83.7816 59.0528 82.6827 58.4985L82.6827 58.4984L82.6766 58.4956C82.6671 58.4911 82.6543 58.4798 82.6483 58.4539C82.6419 58.4263 82.6482 58.4009 82.6581 58.3866C82.6612 58.3821 82.6641 58.3776 82.6668 58.3729C82.6842 58.3437 82.7063 58.3301 82.7302 58.3244C82.7571 58.3179 82.7913 58.3209 82.8237 58.3372L82.8237 58.3373L82.8253 58.3381C83.9437 58.8921 84.9686 59.6386 85.862 60.5254Z" fill="#121242"/>
<path d="M37.3248 77.4488L43.7292 86.0401C43.8253 86.17 44.0176 86.17 44.1138 86.0401L50.7682 77.5973C50.8836 77.4488 50.7682 77.2262 50.5759 77.2262L46.2294 77.1705V61.658H41.2674V77.1148L37.4979 77.0777C37.3248 77.0777 37.2094 77.2818 37.3248 77.4488Z" fill="#E1D6FF"/>
<path fill-rule="evenodd" clip-rule="evenodd" d="M36.1219 78.3453C36.1112 78.3309 36.1007 78.3163 36.0905 78.3016C35.3324 77.2044 36.0372 75.5777 37.4977 75.5777L37.5124 75.5778L39.7672 75.6V61.658C39.7672 60.8295 40.4388 60.158 41.2672 60.158H46.2292C47.0576 60.158 47.7292 60.8295 47.7292 61.658V75.6896L50.59 75.7262C51.9173 75.7375 52.8945 77.3059 51.9523 78.5179L51.9461 78.5258L45.2999 86.9583C44.5985 87.8714 43.2161 87.8639 42.5258 86.9359C42.525 86.9348 42.5242 86.9337 42.5234 86.9327L36.1219 78.3453ZM43.729 86.0401C43.8251 86.17 44.0174 86.17 44.1136 86.0401L50.768 77.5973C50.8834 77.4488 50.768 77.2262 50.5757 77.2262L46.2292 77.1705V61.658H41.2672V77.1148L37.4977 77.0777C37.3246 77.0777 37.2092 77.2818 37.3246 77.4488L43.729 86.0401ZM44.9345 85.1476L44.9316 85.1436C44.9326 85.145 44.9336 85.1463 44.9345 85.1476Z" fill="#121242"/>
</svg>
