<svg width="150" height="150" viewBox="0 0 150 150" fill="none" xmlns="http://www.w3.org/2000/svg">
<path d="M122.593 72.0721V55.0215C122.593 52.8123 120.803 51.0215 118.593 51.0215H54.4557M103.205 106.418H33.5273C31.3182 106.418 29.5273 104.627 29.5273 102.418V70.4102" stroke="#515873"/>
<line x1="92.0723" y1="72.6797" x2="111.015" y2="72.6797" stroke="#7950ED" stroke-linecap="round" stroke-linejoin="round"/>
<line x1="79.8848" y1="72.6797" x2="87.7482" y2="72.6797" stroke="#7950ED" stroke-linecap="round" stroke-linejoin="round"/>
<line x1="55.5098" y1="72.6816" x2="74.4525" y2="72.6816" stroke="#7950ED" stroke-linecap="round" stroke-linejoin="round"/>
<line x1="104.5" y1="76.5" x2="109.5" y2="76.5" stroke="#7950ED" stroke-linecap="round" stroke-linejoin="round"/>
<line x1="74.3418" y1="76.9141" x2="98.8242" y2="76.9141" stroke="#7950ED" stroke-linecap="round" stroke-linejoin="round"/>
<line x1="49.9687" y1="76.9141" x2="67.8035" y2="76.9141" stroke="#7950ED" stroke-linecap="round" stroke-linejoin="round"/>
<line x1="96.5" y1="81.5" x2="108.5" y2="81.5" stroke="#7950ED" stroke-linecap="round" stroke-linejoin="round"/>
<line x1="74.3438" y1="81.1484" x2="91.0706" y2="81.1484" stroke="#7950ED" stroke-linecap="round" stroke-linejoin="round"/>
<line x1="54.4023" y1="81.1484" x2="68.9133" y2="81.1484" stroke="#7950ED" stroke-linecap="round" stroke-linejoin="round"/>
<line x1="44.4297" y1="81.1484" x2="50.0773" y2="81.1484" stroke="#7950ED" stroke-linecap="round" stroke-linejoin="round"/>
<line x1="100.5" y1="85.5" x2="107.5" y2="85.5" stroke="#7950ED" stroke-linecap="round" stroke-linejoin="round"/>
<line x1="64.373" y1="85.3848" x2="81.0999" y2="85.3848" stroke="#7950ED" stroke-linecap="round" stroke-linejoin="round"/>
<line x1="85.4238" y1="85.3848" x2="96.611" y2="85.3848" stroke="#7950ED" stroke-linecap="round" stroke-linejoin="round"/>
<line x1="54.4023" y1="85.3848" x2="60.0499" y2="85.3848" stroke="#7950ED" stroke-linecap="round" stroke-linejoin="round"/>
<line x1="39.998" y1="85.3848" x2="50.0773" y2="85.3848" stroke="#7950ED" stroke-linecap="round" stroke-linejoin="round"/>
<line x1="100.5" y1="90.5" x2="106.5" y2="90.5" stroke="#7950ED" stroke-linecap="round" stroke-linejoin="round"/>
<line x1="73.2363" y1="90.6797" x2="96.6108" y2="90.6797" stroke="#7950ED" stroke-linecap="round" stroke-linejoin="round"/>
<line x1="62.1582" y1="90.6797" x2="67.8058" y2="90.6797" stroke="#7950ED" stroke-linecap="round" stroke-linejoin="round"/>
<line x1="39.998" y1="90.6797" x2="57.8328" y2="90.6797" stroke="#7950ED" stroke-linecap="round" stroke-linejoin="round"/>
<path d="M30.5668 74.4377L23.1245 42.3245C22.6875 40.4391 23.8637 38.557 25.7498 38.1234L39.7088 34.9138C40.6763 34.6914 41.6928 34.8903 42.5051 35.461L51.4071 41.7153C52.1123 42.2107 52.6099 42.9489 52.8046 43.7885L58.4247 68.0253C58.862 69.9112 57.6853 71.7938 55.7985 72.2271L34.7598 77.0587C32.8785 77.4908 31.0026 76.3182 30.5668 74.4377Z" stroke="white"/>
<path d="M36.9813 62.1951C36.1762 62.3706 35.5093 62.2785 34.9806 61.9188C34.4502 61.5514 34.0972 60.9651 33.9218 60.16L34.9184 59.9428C35.0267 60.4022 35.2339 60.7706 35.5399 61.0477C35.8443 61.3171 36.2544 61.3956 36.7703 61.2831C37.2862 61.1707 37.6195 60.9343 37.7702 60.5739C37.9287 60.2118 37.9569 59.7963 37.8546 59.3273L36.5922 53.5353L37.5771 53.3207L38.8395 59.1127C39.0184 59.9334 38.9454 60.6125 38.6204 61.1501C38.2937 61.6798 37.7474 62.0281 36.9813 62.1951ZM45.1723 60.4098C44.5939 60.5359 44.0659 60.5363 43.5883 60.4111C43.1185 60.2843 42.7238 60.051 42.4041 59.7113C42.0922 59.3699 41.8753 58.9382 41.7534 58.4162L42.7851 58.1913C42.8952 58.6586 43.1401 59.0309 43.5199 59.3084C43.9058 59.5764 44.3919 59.6465 44.9781 59.5187C45.5175 59.4011 45.9036 59.1819 46.1366 58.8609C46.3757 58.5304 46.4552 58.1815 46.3752 57.8141C46.3087 57.5092 46.183 57.2705 45.998 57.098C45.8113 56.9176 45.5407 56.7842 45.1861 56.6977C44.8377 56.6017 44.379 56.5256 43.81 56.4695C43.0102 56.4064 42.3957 56.2169 41.9666 55.901C41.5375 55.5852 41.2599 55.138 41.1338 54.5596C41.0487 54.1688 41.0736 53.7949 41.2087 53.438C41.3438 53.081 41.5832 52.7709 41.927 52.5076C42.2709 52.2444 42.7164 52.0531 43.2635 51.9339C43.7794 51.8214 44.2501 51.8212 44.6757 51.9331C45.1075 52.0355 45.4663 52.2357 45.7523 52.5336C46.0461 52.8298 46.2416 53.2007 46.3387 53.6462L45.307 53.8711C45.2592 53.6523 45.1538 53.4501 44.9905 53.2646C44.8273 53.0791 44.6131 52.9416 44.3479 52.852C44.0828 52.7624 43.7704 52.7568 43.4108 52.8352C42.9809 52.9289 42.6444 53.1127 42.4012 53.3868C42.1562 53.6531 42.073 53.966 42.1513 54.3256C42.211 54.5991 42.3238 54.8161 42.4897 54.9764C42.6635 55.1351 42.9159 55.2602 43.247 55.3518C43.5764 55.4355 44.0139 55.508 44.5594 55.5693C45.0703 55.6217 45.5168 55.7168 45.8989 55.8545C46.2871 55.9828 46.6044 56.1798 46.8506 56.4454C47.1046 56.7094 47.2811 57.068 47.3799 57.5214C47.477 57.9669 47.4497 58.3864 47.298 58.7797C47.1462 59.173 46.8893 59.5156 46.5271 59.8074C46.1633 60.0914 45.7117 60.2922 45.1723 60.4098Z" fill="white"/>
<path d="M42.3721 43.7366L40.3785 35.1394L41.3341 35.1394L51.7562 42.1627L51.8128 43.0917L44.1713 44.8592C43.3645 45.0458 42.5591 44.5433 42.3721 43.7366Z" stroke="white"/>
<path d="M103.083 104.755L111.315 72.8351C111.798 70.961 113.711 69.835 115.584 70.3215L129.447 73.9224C130.408 74.172 131.218 74.8179 131.675 75.6993L136.681 85.3582C137.078 86.1234 137.178 87.0079 136.963 87.8425L130.753 111.935C130.27 113.81 128.357 114.936 126.483 114.449L105.591 109.016C103.723 108.531 102.601 106.624 103.083 104.755Z" stroke="white"/>
<path d="M114.995 96.561L116.96 89.3354L114.784 88.7434L115.023 87.8633L120.349 89.3119L120.11 90.1919L117.933 89.5999L115.968 96.8255L114.995 96.561ZM123.626 99.0573C123.055 98.9019 122.586 98.6584 122.221 98.3268C121.863 97.9973 121.62 97.6081 121.494 97.1591C121.375 96.7122 121.382 96.2292 121.515 95.7098L122.534 95.9869C122.415 96.4522 122.461 96.8956 122.669 97.3172C122.888 97.7331 123.287 98.0198 123.866 98.1772C124.398 98.3221 124.842 98.306 125.197 98.1289C125.562 97.9462 125.793 97.6734 125.892 97.3106C125.974 97.0095 125.973 96.7398 125.888 96.5013C125.806 96.255 125.628 96.0117 125.353 95.7712C125.088 95.5252 124.717 95.2458 124.238 94.9332C123.558 94.5078 123.1 94.056 122.865 93.5776C122.631 93.0993 122.591 92.5744 122.746 92.0032C122.851 91.6172 123.046 91.2971 123.331 91.0429C123.616 90.7887 123.971 90.6243 124.398 90.5496C124.824 90.4749 125.308 90.511 125.848 90.658C126.358 90.7965 126.775 91.0137 127.101 91.3096C127.437 91.5998 127.662 91.9431 127.779 92.3395C127.902 92.7379 127.904 93.1571 127.785 93.5972L126.766 93.3201C126.825 93.1039 126.824 92.8759 126.765 92.636C126.706 92.396 126.58 92.1751 126.386 91.9732C126.192 91.7712 125.918 91.622 125.563 91.5254C125.138 91.41 124.754 91.4176 124.412 91.5484C124.072 91.6714 123.854 91.9105 123.757 92.2656C123.684 92.5358 123.683 92.7803 123.757 92.9991C123.837 93.2201 124.003 93.4477 124.255 93.6818C124.508 93.9083 124.863 94.1746 125.318 94.4809C125.747 94.7634 126.099 95.054 126.375 95.3527C126.66 95.6457 126.85 95.967 126.946 96.3163C127.049 96.6678 127.04 97.0673 126.918 97.5151C126.799 97.9551 126.581 98.3145 126.264 98.5933C125.948 98.8721 125.562 99.0572 125.106 99.1488C124.652 99.2326 124.159 99.2021 123.626 99.0573Z" fill="white"/>
<path d="M127.735 82.9763L129.938 74.4303L130.785 74.8717L136.785 85.9148L136.406 86.7649L128.812 84.803C128.01 84.5959 127.528 83.7782 127.735 82.9763Z" stroke="white"/>
</svg>
