<svg width="150" height="150" viewBox="0 0 150 150" fill="none" xmlns="http://www.w3.org/2000/svg">
<path d="M6.92571 33.7723C9.64607 31.689 13.6213 32.3112 15.8046 35.1621L5.95313 42.7065C3.76991 39.8556 4.20535 35.8555 6.92571 33.7723Z" fill="#F5B82E"/>
<path d="M95.6605 34.5661C95.1345 34.0401 95.1345 33.1869 95.6611 32.6603C96.1877 32.1337 97.0409 32.1337 97.5669 32.6597C98.0928 33.1857 98.0929 34.0389 97.5663 34.5655C97.0397 35.0921 96.1865 35.092 95.6605 34.5661Z" stroke="#414168"/>
<path d="M8.30753 102.307C7.58584 103.028 7.58558 104.198 8.30695 104.92C9.02832 105.641 10.1981 105.641 10.9198 104.919C11.6415 104.197 11.6418 103.028 10.9204 102.306C10.199 101.585 9.02922 101.585 8.30753 102.307Z" fill="#F685A1"/>
<path d="M129.048 51.0489C127.917 52.1804 127.922 54.0204 129.06 55.1586C130.198 56.2968 132.038 56.3022 133.17 55.1707C134.301 54.0391 134.296 52.1991 133.158 51.0609C132.02 49.9228 130.18 49.9174 129.048 51.0489Z" fill="#144BC1"/>
<path d="M76.7283 123.752C76.1628 123.187 76.1631 122.277 76.7203 121.719C77.2774 121.162 78.1875 121.162 78.753 121.727C79.3185 122.293 79.3182 123.203 78.761 123.76C78.2039 124.317 77.2938 124.318 76.7283 123.752Z" stroke="#414168"/>
<path d="M72.2444 35.8024L77.7812 33.5564L75.5377 27.9999L70.0008 30.246L72.2444 35.8024Z" fill="#F685A1"/>
<path d="M112 109.346L118.54 105.614L118.54 113.141L112 109.346Z" fill="#FFBD70"/>
<line x1="38.3013" y1="98.399" x2="31.3022" y2="103.685" stroke="#414168"/>
<line x1="38.375" y1="29.883" x2="33.0307" y2="22.9281" stroke="#414168"/>
<line x1="119.354" y1="25.3536" x2="113.354" y2="31.3536" stroke="#414168"/>
<line x1="137.646" y1="104.354" x2="129.646" y2="96.3536" stroke="#414168"/>
<line x1="25.6679" y1="59.7846" x2="33.0283" y2="68.6474" stroke="#414168"/>
<line x1="54.5493" y1="104.059" x2="53.4962" y2="112.974" stroke="#414168"/>
<line x1="136.224" y1="65.4472" x2="130.224" y2="68.4471" stroke="#414168"/>
<line x1="95.8578" y1="16.1783" x2="93.4664" y2="22.4452" stroke="#414168"/>
<line x1="9.34961" y1="67.8896" x2="3.54059" y2="71.2434" stroke="#414168"/>
<path d="M54.2041 11.9724L59.368 16.1985L53.1311 18.5259L54.2041 11.9724Z" stroke="#414168"/>
<path d="M117.538 43H19V87.0373H117.538V43Z" fill="#A787FF"/>
<path d="M30.2168 48.9043C29.9137 59.5358 30.1812 70.1849 31.0014 80.7813" stroke="white" stroke-miterlimit="10" stroke-linecap="round" stroke-linejoin="round"/>
<path d="M41.1836 48.9043C40.8805 59.5358 41.148 70.1849 41.9682 80.7813" stroke="white" stroke-miterlimit="10" stroke-linecap="round" stroke-linejoin="round"/>
<path d="M52.291 48.9043C51.9879 59.5358 52.2554 70.1849 53.0756 80.7813" stroke="white" stroke-miterlimit="10" stroke-linecap="round" stroke-linejoin="round"/>
<path d="M63.2754 48.9043C62.9723 59.5358 63.2398 70.1849 64.06 80.7813" stroke="white" stroke-miterlimit="10" stroke-linecap="round" stroke-linejoin="round"/>
<path d="M74.3867 48.9043C74.0836 59.5358 74.3511 70.1849 75.1713 80.7813" stroke="white" stroke-miterlimit="10" stroke-linecap="round" stroke-linejoin="round"/>
<path d="M85.3535 48.9043C85.0504 59.5358 85.3179 70.1849 86.1381 80.7813" stroke="white" stroke-miterlimit="10" stroke-linecap="round" stroke-linejoin="round"/>
<path d="M96.8184 48.9043C96.5152 59.5358 96.7827 70.1849 97.603 80.7813" stroke="white" stroke-miterlimit="10" stroke-linecap="round" stroke-linejoin="round"/>
<path d="M107.803 48.9043C107.5 59.5358 107.767 70.1849 108.587 80.7813" stroke="white" stroke-miterlimit="10" stroke-linecap="round" stroke-linejoin="round"/>
<path d="M129.086 75.7144C127.41 75.486 125.733 75.609 124.075 76.0132C124.039 75.855 123.986 75.732 123.968 75.609C123.825 74.7479 123.54 73.922 123.148 73.1312C122.31 71.4618 121.061 70.1263 119.617 68.9665C119.207 68.6326 118.779 68.2987 118.369 68C116.871 69.4234 116.086 71.1455 115.783 73.0961C115.373 75.7672 115.855 78.2449 117.37 80.5469C117.103 80.67 116.871 80.793 116.621 80.8984C115.783 81.2323 114.999 81.6892 114.125 81.9176C112.556 82.3218 110.969 82.4448 109.364 82.4448C93.2617 82.4448 77.1418 82.4448 61.0397 82.4448C60.8257 82.4448 60.6117 82.4448 60.3621 82.4448C60.1125 83.7276 59.9341 84.9753 60.0233 86.2229C60.0946 87.3652 60.2373 88.5074 60.4156 89.6496C60.7722 91.9692 61.6638 94.1131 62.8585 96.1164C64.3386 98.5766 66.3357 100.597 68.7074 102.232C72.2916 104.692 76.3037 105.992 80.619 106.467C81.1361 106.519 81.6711 106.59 82.1882 106.66C83.8644 106.66 85.5584 106.66 87.2346 106.66C87.3594 106.625 87.4664 106.59 87.5912 106.572C89.7489 106.484 91.8709 106.221 93.9928 105.834C97.9158 105.131 101.678 103.936 105.245 102.144C108.811 100.351 112.003 98.0318 114.767 95.1851C117.905 91.9341 120.313 88.2087 122.114 84.1142C122.185 83.9385 122.274 83.7628 122.363 83.5519C122.987 83.5519 123.576 83.5695 124.164 83.5519C125.805 83.4992 127.374 83.1829 128.89 82.5502C131.226 81.5662 132.706 79.7737 133.74 77.5596C132.331 76.5404 130.78 75.9253 129.086 75.7144Z" fill="#41CADD"/>
<path d="M76.323 94.324C74.8608 95.5366 72.935 94.6052 72.614 93.1818C72.5784 93.0237 72.5784 92.8655 72.5605 92.7249C72.5605 91.7057 73.3808 90.827 74.4329 90.6689C75.0392 90.581 75.5919 90.6689 76.1091 90.9852C77.2146 91.653 77.5534 93.3048 76.323 94.324Z" fill="white"/>
<path d="M83.4146 93.5272C86.6778 93.5272 89.941 93.5272 93.2042 93.5272C94.1315 93.5272 95.0409 93.5272 95.9681 93.5272C95.879 93.4217 95.7898 93.2987 95.7185 93.1933C95.3262 95.1439 94.3098 96.9187 92.8298 98.2894C91.2784 99.7128 89.2991 100.486 87.2127 100.837C85.911 101.066 84.5737 101.119 83.2541 101.171C82.9153 101.189 82.9153 101.716 83.2541 101.699C85.7149 101.611 88.2113 101.435 90.4938 100.416C92.3126 99.6249 93.864 98.2718 94.9161 96.62C95.558 95.6183 96.0038 94.4937 96.2534 93.3339C96.2891 93.1757 96.1821 93 96.0038 93C92.7406 93 89.4774 93 86.2142 93C85.2869 93 84.3775 93 83.4502 93C83.0758 93 83.0758 93.5272 83.4146 93.5272Z" fill="white" stroke="white" stroke-width="0.5" stroke-linecap="round" stroke-linejoin="round"/>
</svg>
