<svg width="110" height="110" viewBox="0 0 110 110" fill="none" xmlns="http://www.w3.org/2000/svg">
<path d="M89.3827 34H15.1816V68.3633H89.3827V34Z" fill="#A787FF" stroke="#121242" stroke-width="1.5" stroke-linecap="round" stroke-linejoin="round"/>
<path d="M23.2243 38.6071C23.1303 41.8433 23.1169 45.0931 23.1572 48.3292C23.1974 51.5654 23.3049 54.8015 23.4794 58.0376C23.5734 59.8477 23.6943 61.6714 23.8285 63.4814C23.842 63.7008 24.0031 63.8928 24.2314 63.8928C24.4328 63.8928 24.6476 63.7008 24.6342 63.4814C24.3925 60.2453 24.2179 57.0229 24.0971 53.7868C23.9897 50.5506 23.936 47.3008 23.9494 44.0647C23.9628 42.2409 23.9897 40.4309 24.0434 38.6071C24.0434 38.0724 23.2377 38.0724 23.2243 38.6071Z" fill="#121242" stroke="#121242" stroke-width="0.5"/>
<path d="M31.4831 38.6071C31.3891 41.8433 31.3757 45.0931 31.4159 48.3292C31.4562 51.5654 31.5636 54.8015 31.7382 58.0376C31.8322 59.8477 31.953 61.6714 32.0873 63.4814C32.1008 63.7008 32.2619 63.8928 32.4901 63.8928C32.6916 63.8928 32.9064 63.7008 32.893 63.4814C32.6513 60.2453 32.4767 57.0229 32.3559 53.7868C32.2485 50.5506 32.1947 47.3008 32.2082 44.0647C32.2216 42.2409 32.2485 40.4309 32.3022 38.6071C32.3022 38.0724 31.4965 38.0724 31.4831 38.6071Z" fill="#121242" stroke="#121242" stroke-width="0.5"/>
<path d="M39.8483 38.6071C39.7543 41.8433 39.7409 45.0931 39.7812 48.3292C39.8215 51.5654 39.9289 54.8015 40.1034 58.0376C40.1974 59.8477 40.3183 61.6714 40.4526 63.4814C40.466 63.7008 40.6271 63.8928 40.8554 63.8928C41.0568 63.8928 41.2717 63.7008 41.2582 63.4814C41.0165 60.2453 40.842 57.0229 40.7211 53.7868C40.6137 50.5506 40.56 47.3008 40.5734 44.0647C40.5868 42.2409 40.6137 40.4309 40.6674 38.6071C40.6674 38.0724 39.8617 38.0724 39.8483 38.6071Z" fill="#121242" stroke="#121242" stroke-width="0.5"/>
<path d="M48.1198 38.6071C48.0258 41.8433 48.0124 45.0931 48.0527 48.3292C48.0929 51.5654 48.2004 54.8015 48.3749 58.0376C48.4689 59.8477 48.5898 61.6714 48.724 63.4814C48.7375 63.7008 48.8986 63.8928 49.1269 63.8928C49.3283 63.8928 49.5431 63.7008 49.5297 63.4814C49.288 60.2453 49.1134 57.0229 48.9926 53.7868C48.8852 50.5506 48.8315 47.3008 48.8449 44.0647C48.8583 42.2409 48.8852 40.4309 48.9389 38.6071C48.9389 38.0724 48.1332 38.0724 48.1198 38.6071Z" fill="#121242" stroke="#121242" stroke-width="0.5"/>
<path d="M56.485 38.6071C56.391 41.8433 56.3776 45.0931 56.4179 48.3292C56.4582 51.5654 56.5656 54.8015 56.7402 58.0376C56.8341 59.8477 56.955 61.6714 57.0893 63.4814C57.1027 63.7008 57.2638 63.8928 57.4921 63.8928C57.6935 63.8928 57.9083 63.7008 57.8949 63.4814C57.6532 60.2453 57.4787 57.0229 57.3578 53.7868C57.2504 50.5506 57.1967 47.3008 57.2101 44.0647C57.2235 42.2409 57.2504 40.4309 57.3041 38.6071C57.3041 38.0724 56.4985 38.0724 56.485 38.6071Z" fill="#121242" stroke="#121242" stroke-width="0.5"/>
<path d="M64.7428 38.6071C64.6489 41.8433 64.6354 45.0931 64.6757 48.3292C64.716 51.5654 64.8234 54.8015 64.998 58.0376C65.092 59.8477 65.2128 61.6714 65.3471 63.4814C65.3605 63.7008 65.5217 63.8928 65.7499 63.8928C65.9513 63.8928 66.1662 63.7008 66.1528 63.4814C65.9111 60.2453 65.7365 57.0229 65.6156 53.7868C65.5082 50.5506 65.4545 47.3008 65.4679 44.0647C65.4814 42.2409 65.5082 40.4309 65.5619 38.6071C65.5619 38.0724 64.7563 38.0724 64.7428 38.6071Z" fill="#121242" stroke="#121242" stroke-width="0.5"/>
<path d="M73.3776 38.6071C73.2836 41.8433 73.2702 45.0931 73.3105 48.3292C73.3508 51.5654 73.4582 54.8015 73.6327 58.0376C73.7267 59.8477 73.8476 61.6714 73.9819 63.4814C73.9953 63.7008 74.1564 63.8928 74.3847 63.8928C74.5861 63.8928 74.8009 63.7008 74.7875 63.4814C74.5458 60.2453 74.3713 57.0229 74.2504 53.7868C74.143 50.5506 74.0893 47.3008 74.1027 44.0647C74.1161 42.2409 74.143 40.4309 74.1967 38.6071C74.1967 38.0724 73.391 38.0724 73.3776 38.6071Z" fill="#121242" stroke="#121242" stroke-width="0.5"/>
<path d="M81.6481 38.6071C81.5541 41.8433 81.5407 45.0931 81.581 48.3292C81.6213 51.5654 81.7287 54.8015 81.9032 58.0376C81.9972 59.8477 82.1181 61.6714 82.2524 63.4814C82.2658 63.7008 82.4269 63.8928 82.6552 63.8928C82.8566 63.8928 83.0715 63.7008 83.058 63.4814C82.8163 60.2453 82.6418 57.0229 82.5209 53.7868C82.4135 50.5506 82.3598 47.3008 82.3732 44.0647C82.3866 42.2409 82.4135 40.4309 82.4672 38.6071C82.4672 38.0724 81.6615 38.0724 81.6481 38.6071Z" fill="#121242" stroke="#121242" stroke-width="0.5"/>
<path d="M99.8647 57.3844C98.4409 57.1819 97.0171 57.2909 95.6085 57.6492C95.5782 57.509 95.5327 57.4 95.5176 57.2909C95.3964 56.5276 95.1541 55.7954 94.8208 55.0943C94.1089 53.6144 93.0487 52.4304 91.8218 51.4022C91.4734 51.1062 91.1099 50.8102 90.7615 50.5454C89.4892 51.8073 88.8227 53.334 88.5652 55.0632C88.2169 57.4311 88.6258 59.6277 89.9133 61.6685C89.6861 61.7775 89.4892 61.8866 89.2771 61.98C88.5652 62.276 87.8988 62.6811 87.1566 62.8836C85.8237 63.2419 84.4756 63.3509 83.1124 63.3509C69.4349 63.3509 55.7423 63.3509 42.0648 63.3509C41.883 63.3509 41.7013 63.3509 41.4892 63.3509C41.2772 64.4882 41.1257 65.5943 41.2014 66.7003C41.262 67.7129 41.3832 68.7255 41.5347 69.7381C41.8376 71.7945 42.5949 73.6951 43.6098 75.471C44.8669 77.652 46.5634 79.4435 48.5779 80.8924C51.6224 83.0733 55.0304 84.2262 58.6959 84.6468C59.1352 84.6935 59.5896 84.7558 60.0288 84.8181C61.4526 84.8181 62.8915 84.8181 64.3153 84.8181C64.4214 84.787 64.5122 84.7558 64.6183 84.7402C66.451 84.6623 68.2535 84.4287 70.0559 84.0859C73.3882 83.4628 76.5842 82.4035 79.6135 80.8145C82.6429 79.2255 85.3541 77.1691 87.7019 74.6454C90.3677 71.7633 92.4125 68.4607 93.9423 64.8309C94.0029 64.6751 94.0787 64.5193 94.1544 64.3324C94.6845 64.3324 95.1844 64.348 95.6842 64.3324C97.0777 64.2857 98.4106 64.0052 99.6981 63.4444C101.682 62.572 102.939 60.983 103.818 59.0201C102.621 58.1166 101.304 57.5713 99.8647 57.3844Z" fill="white"/>
<path d="M55.733 73.559C54.2116 74.9086 52.208 73.8719 51.874 72.2875C51.8369 72.1115 51.8369 71.9355 51.8184 71.779C51.8184 70.6445 52.6718 69.6664 53.7664 69.4904C54.3972 69.3926 54.9723 69.4904 55.5103 69.8425C56.6606 70.5858 57.0131 72.4245 55.733 73.559Z" fill="#E1D6FF"/>
<path d="M90.9808 61.7584C90.3786 59.0438 90.1733 56.1003 90.9123 53.3858C91.1176 52.6499 91.3913 51.9468 91.7334 51.2763C91.4871 51.2436 91.2271 51.1945 90.9808 51.1618C91.5008 53.5166 93.5536 54.5632 94.4431 56.6236C94.6758 57.1469 94.7989 57.7356 94.7031 58.3243C94.6621 58.586 94.7579 58.8476 94.9905 58.9294C95.1958 58.9948 95.4558 58.8476 95.4969 58.586C95.7022 57.2614 95.2232 56.0513 94.5389 55.0374C93.9231 54.1053 93.1157 53.3858 92.4861 52.47C92.1577 51.9958 91.9114 51.4725 91.7745 50.9002C91.6787 50.475 91.2134 50.426 91.0218 50.7857C89.667 53.3858 89.4343 56.5419 89.7765 59.5344C89.8723 60.3684 90.0228 61.2024 90.2007 62.02C90.3239 62.6251 91.1176 62.3634 90.9808 61.7584Z" fill="#121242" stroke="#121242" stroke-width="0.5" stroke-linecap="round" stroke-linejoin="round"/>
<path d="M93.6687 58.6134C95.3029 58.4435 96.9685 58.4152 98.6184 58.5143C99.3569 58.5568 100.095 58.6417 100.818 58.7267C101.305 58.7833 101.808 58.8541 102.295 58.9816C102.39 59.0099 102.484 59.0382 102.578 59.0665C102.641 59.0948 102.515 59.0382 102.562 59.0665C102.578 59.0807 102.61 59.0807 102.625 59.0948C102.672 59.109 102.72 59.1373 102.767 59.1656C102.782 59.1798 102.798 59.194 102.814 59.194C102.798 59.1798 102.735 59.1232 102.798 59.1798C102.83 59.2081 102.845 59.2223 102.877 59.2506C102.892 59.2648 102.924 59.3072 102.892 59.2648C102.845 59.2081 102.892 59.2648 102.892 59.2789C102.892 59.2931 102.908 59.3214 102.924 59.3214C102.971 59.3497 102.861 59.2364 102.908 59.3072C102.924 59.3214 102.924 59.3497 102.924 59.3639C102.924 59.3497 102.924 59.2648 102.924 59.3355C102.924 59.3639 102.908 59.4771 102.924 59.3639C102.908 59.4063 102.908 59.4347 102.892 59.4771C102.892 59.5055 102.877 59.5196 102.861 59.5479C102.845 59.5904 102.892 59.4913 102.845 59.5621C102.704 59.7886 102.547 59.9869 102.342 60.171C101.384 61.0913 100.158 61.7993 98.8227 62.2241C97.2985 62.7055 95.6329 62.8471 94.0459 62.5497C93.7945 62.5073 93.543 62.6205 93.4645 62.8471C93.4016 63.0595 93.543 63.3285 93.7944 63.371C96.9528 63.9515 100.394 63.0595 102.72 61.0347C103.175 60.6382 103.709 60.1568 103.804 59.5763C103.882 59.0948 103.631 58.6984 103.175 58.4435C102.735 58.217 102.217 58.1178 101.73 58.0329C101.038 57.9196 100.331 57.8347 99.624 57.778C97.6442 57.5798 95.6329 57.5939 93.653 57.7922C93.4016 57.8205 93.1816 57.9621 93.1816 58.217C93.1974 58.401 93.4016 58.6417 93.6687 58.6134Z" fill="#121242" stroke="#121242" stroke-width="0.5" stroke-linecap="round" stroke-linejoin="round"/>
<path d="M93.4584 62.7107C92.2959 67.2809 89.5935 71.212 86.3324 74.3919C83.0411 77.6039 79.1761 80.1287 75.0847 82.0143C70.1931 84.2834 64.8033 85.418 59.4587 84.9386C57.0129 84.7149 54.552 84.1556 52.3176 83.037C50.2945 82.0143 48.4979 80.5921 46.9429 78.9142C45.2821 77.1245 43.8177 75.095 43.0175 72.7141C42.2324 70.365 42.0513 67.8722 42.0815 65.3953C42.0815 64.7561 42.1117 64.117 42.1419 63.4778C42.172 62.8546 41.2662 62.8546 41.236 63.4778C41.1303 66.0825 41.1303 68.7191 41.6889 71.2759C41.9607 72.5383 42.3834 73.7528 42.942 74.9033C43.5308 76.0858 44.2706 77.1564 45.0859 78.1791C46.5956 80.0648 48.362 81.7586 50.37 83.021C52.4535 84.3473 54.7634 85.1623 57.1488 85.5778C62.6896 86.5685 68.4569 85.7695 73.6957 83.6602C78.0438 81.9024 82.1806 79.3936 85.7436 76.2296C89.2462 73.1295 92.2657 69.2465 93.851 64.6603C94.0472 64.101 94.2133 63.5417 94.3492 62.9664C94.4851 62.3592 93.6094 62.1035 93.4584 62.7107Z" fill="#121242" stroke="#121242" stroke-width="0.5" stroke-linecap="round" stroke-linejoin="round"/>
<path d="M41.6233 64.09C48.0582 64.252 54.4932 64.414 60.9281 64.576C67.317 64.738 73.7059 64.9325 80.0641 64.2034C81.8456 63.9928 83.6271 63.7336 85.3933 63.4258C87.1133 63.1179 88.8488 62.8101 90.4767 62.1459C90.7071 62.0487 90.876 61.8218 90.7992 61.5464C90.7378 61.3196 90.4614 61.109 90.231 61.2062C88.772 61.8056 87.2362 62.0973 85.7004 62.3889C84.18 62.6805 82.6442 62.9235 81.093 63.1179C77.9447 63.523 74.7809 63.7174 71.6019 63.766C68.3921 63.8146 65.1823 63.7174 61.9725 63.6364C58.7627 63.5554 55.5682 63.4744 52.3584 63.3934C48.7647 63.2961 45.1709 63.2151 41.5925 63.1179C41.0397 63.1017 41.0397 64.0738 41.6233 64.09Z" fill="#121242" stroke="#121242" stroke-width="0.5" stroke-linecap="round" stroke-linejoin="round"/>
<path d="M52.7959 71.8246C52.7959 71.5151 52.8773 71.2707 53.0728 70.9938C53.1542 70.8635 53.0402 71.0264 53.1054 70.9612C53.138 70.9286 53.1542 70.896 53.1868 70.8635C53.2031 70.8472 53.2357 70.8146 53.252 70.7983C53.252 70.7983 53.366 70.7006 53.3008 70.7494C53.366 70.7006 53.4312 70.6517 53.5126 70.6191C53.5452 70.6028 53.5778 70.5865 53.594 70.5702C53.6429 70.5539 53.6592 70.5377 53.6103 70.5539C53.6266 70.5377 53.6592 70.5377 53.6755 70.5214C54.2782 70.3259 54.8483 70.4725 55.2718 70.9612C55.2229 70.9123 55.2718 70.9612 55.2881 70.9775C55.3206 71.0101 55.3369 71.0589 55.3695 71.1078C55.3858 71.1404 55.4021 71.1567 55.4184 71.1893C55.4184 71.1893 55.4835 71.3359 55.451 71.2544C55.4835 71.3359 55.4998 71.4173 55.5324 71.4988C55.5487 71.5313 55.5487 71.5639 55.5487 71.5965C55.565 71.6617 55.565 71.6617 55.5487 71.6128C55.5487 71.6454 55.5487 71.6617 55.5487 71.6942C55.5487 71.7757 55.5487 71.8571 55.5487 71.9223C55.5487 71.9223 55.5324 72.0852 55.5487 72.0038C55.5487 72.0363 55.5324 72.0689 55.5324 72.1015C55.5161 72.1829 55.4835 72.2644 55.4672 72.3458C55.4184 72.4925 55.5161 72.2807 55.4347 72.411C55.4184 72.4599 55.3858 72.4924 55.3695 72.5413C55.2229 72.802 55.0437 72.9649 54.718 73.1115C54.7343 73.0952 54.7831 73.0789 54.7017 73.1115C54.6528 73.1278 54.6039 73.1441 54.5551 73.1603C54.5225 73.1766 54.4899 73.1766 54.4573 73.1929C54.4736 73.1929 54.3107 73.2255 54.3759 73.2092C54.4411 73.1929 54.2782 73.2092 54.2945 73.2092C54.2456 73.2092 54.213 73.2092 54.1641 73.2092C54.1153 73.2092 54.0827 73.2092 54.0338 73.2092C53.9198 73.2092 54.0501 73.2255 53.9687 73.1929C53.7406 73.144 53.6592 73.1115 53.48 73.0137C53.4474 72.9974 53.4311 72.9811 53.3986 72.9649C53.366 72.9486 53.3497 72.9323 53.3171 72.916C53.3497 72.9486 53.3497 72.9323 53.3008 72.8997C53.2357 72.8508 53.1868 72.7857 53.1217 72.7205C52.9262 72.5087 52.7959 72.1341 52.7959 71.8246C52.7796 71.1893 51.8023 71.1893 51.8186 71.8246C51.8348 72.8182 52.4538 73.6979 53.3823 74.04C54.2782 74.3821 55.3695 74.0889 55.9885 73.3395C56.6237 72.5739 56.7378 71.4662 56.2165 70.6028C55.6953 69.7394 54.7017 69.3159 53.7243 69.4951C52.6167 69.6906 51.8348 70.7168 51.8186 71.8083C51.8186 72.4599 52.7959 72.4599 52.7959 71.8246Z" fill="#121242"/>
<path d="M52.7959 71.8246C52.7959 71.5151 52.8773 71.2707 53.0728 70.9938C53.1542 70.8635 53.0402 71.0264 53.1054 70.9612C53.138 70.9286 53.1542 70.896 53.1868 70.8635C53.2031 70.8472 53.2357 70.8146 53.252 70.7983C53.252 70.7983 53.366 70.7006 53.3008 70.7494C53.366 70.7006 53.4312 70.6517 53.5126 70.6191C53.5452 70.6028 53.5778 70.5865 53.594 70.5702C53.6429 70.5539 53.6592 70.5377 53.6103 70.5539C53.6266 70.5377 53.6592 70.5377 53.6755 70.5214C54.2782 70.3259 54.8483 70.4725 55.2718 70.9612C55.2229 70.9123 55.2718 70.9612 55.2881 70.9775C55.3206 71.0101 55.3369 71.0589 55.3695 71.1078C55.3858 71.1404 55.4021 71.1567 55.4184 71.1893C55.4184 71.1893 55.4835 71.3359 55.451 71.2544C55.4835 71.3359 55.4998 71.4173 55.5324 71.4988C55.5487 71.5313 55.5487 71.5639 55.5487 71.5965C55.565 71.6617 55.565 71.6617 55.5487 71.6128C55.5487 71.6454 55.5487 71.6617 55.5487 71.6942C55.5487 71.7757 55.5487 71.8571 55.5487 71.9223C55.5487 71.9223 55.5324 72.0852 55.5487 72.0038C55.5487 72.0363 55.5324 72.0689 55.5324 72.1015C55.5161 72.1829 55.4835 72.2644 55.4672 72.3458C55.4184 72.4925 55.5161 72.2807 55.4347 72.411C55.4184 72.4599 55.3858 72.4924 55.3695 72.5413C55.2229 72.802 55.0437 72.9649 54.718 73.1115C54.7343 73.0952 54.7831 73.0789 54.7017 73.1115C54.6528 73.1278 54.6039 73.1441 54.5551 73.1603C54.5225 73.1766 54.4899 73.1766 54.4573 73.1929C54.4736 73.1929 54.3107 73.2255 54.3759 73.2092C54.4411 73.1929 54.2782 73.2092 54.2945 73.2092C54.2456 73.2092 54.213 73.2092 54.1641 73.2092C54.1153 73.2092 54.0827 73.2092 54.0338 73.2092C53.9198 73.2092 54.0501 73.2255 53.9687 73.1929C53.7406 73.144 53.6592 73.1115 53.48 73.0137C53.4474 72.9974 53.4311 72.9811 53.3986 72.9649C53.366 72.9486 53.3497 72.9323 53.3171 72.916C53.3497 72.9486 53.3497 72.9323 53.3008 72.8997C53.2357 72.8508 53.1868 72.7857 53.1217 72.7205C52.9262 72.5087 52.7959 72.1341 52.7959 71.8246ZM52.7959 71.8246C52.7796 71.1893 51.8023 71.1893 51.8186 71.8246C51.8348 72.8182 52.4538 73.6979 53.3823 74.04C54.2782 74.3821 55.3695 74.0889 55.9885 73.3395C56.6237 72.5739 56.7378 71.4662 56.2165 70.6028C55.6953 69.7394 54.7017 69.3159 53.7243 69.4951C52.6167 69.6906 51.8348 70.7168 51.8186 71.8083C51.8186 72.4599 52.7959 72.4599 52.7959 71.8246Z" stroke="#121242" stroke-width="0.5" stroke-linecap="round" stroke-linejoin="round"/>
<path d="M61.8834 73.9436C64.6785 73.9436 67.4736 73.9436 70.2686 73.9436C71.0629 73.9436 71.8418 73.9436 72.636 73.9436C72.4833 73.7391 72.3458 73.5504 72.1931 73.346C71.8571 75.0601 71.017 76.617 69.7646 77.7965C68.4816 79.0231 66.8015 79.7151 65.0603 80.0296C63.9606 80.2183 62.8456 80.2812 61.7307 80.3284C61.4863 80.3441 61.2725 80.5328 61.2725 80.8002C61.2725 81.0518 61.4863 81.2877 61.7307 81.272C63.8843 81.1934 66.0531 81.0204 68.0539 80.0925C69.6424 79.3691 71.0018 78.1267 71.9182 76.6013C72.4833 75.6892 72.8651 74.667 73.079 73.5976C73.1401 73.2988 72.9568 73 72.636 73C69.841 73 67.0459 73 64.2508 73C63.4566 73 62.6776 73 61.8834 73C61.2877 73 61.2877 73.9436 61.8834 73.9436Z" fill="#121242" stroke="#121242" stroke-width="0.5" stroke-linecap="round" stroke-linejoin="round"/>
</svg>
