<svg width="150" height="150" viewBox="0 0 150 150" fill="none" xmlns="http://www.w3.org/2000/svg">
<path d="M51.9331 113.806C30.8887 102.019 22.0519 77.1617 29.8302 55.265M89.5073 118.308C101.745 114.977 112.704 106.997 119.498 95.2288C126.817 82.5518 127.811 68.0361 123.465 55.265" stroke="url(#paint0_linear)" stroke-miterlimit="10" stroke-linecap="round" stroke-linejoin="round"/>
<path d="M118.552 44.9829C118.207 44.4367 117.85 43.8967 117.482 43.3632C113.391 37.4323 107.903 32.3156 101.162 28.54C79.2658 16.2761 51.78 22.4338 36.9998 41.9829C36.298 42.9111 35.6249 43.8694 34.9824 44.8574" stroke="url(#paint1_linear)" stroke-miterlimit="10" stroke-linecap="round" stroke-linejoin="round"/>
<path d="M130.06 36.8092C129.906 37.5117 129.741 38.2087 129.562 38.9001C127.706 46.1636 124.678 52.9597 120.692 59.0728C114.274 68.9227 105.375 77.0064 94.8789 82.4338C94.6886 82.5261 94.4983 82.6269 94.3079 82.7277C91.2961 84.3651 88.8414 86.901 87.3047 89.9744C86.1767 92.2248 85.5441 94.7664 85.5441 97.4563C85.5441 99.1945 85.81 100.871 86.2998 102.447C86.8932 104.348 87.8141 106.1 89.0009 107.642H65.7212C66.5721 106.035 67.1935 104.289 67.5462 102.447C67.7617 101.308 67.8765 100.132 67.8765 98.9314C67.8765 96.3534 67.353 93.8987 66.4069 91.665C66.3874 91.6119 66.365 91.5587 66.3426 91.5083C66.127 90.9765 65.8751 90.4642 65.5924 89.9716C63.7982 86.8423 60.6181 84.7622 57.867 82.7752C56.7028 81.9344 56.2257 81.6196 55.2684 81.0962C54.3111 80.5728 53.3746 79.8446 52.4481 79.2652C51.2725 78.5291 50.15 77.7118 49.0304 76.8916C46.4161 74.9771 43.9389 72.875 41.6241 70.6106C38.1729 67.2321 35.0799 63.4898 32.4152 59.4619C28.1551 53.0241 24.9642 45.8221 23.0888 38.1051C23.0608 37.9876 23.0328 37.87 23.0048 37.7525C22.9908 37.6601 22.9824 37.5649 22.9824 37.467C22.9824 36.3697 23.8725 35.4824 24.9698 35.4824C25.5436 35.4824 26.0614 35.7259 26.4197 36.115C26.4812 36.2102 26.5456 36.3025 26.61 36.3977C26.6576 36.4677 26.7052 36.5377 26.7583 36.6076C26.7611 36.6104 26.7611 36.6132 26.7611 36.616C32.4404 44.8005 41.904 50.1607 52.6216 50.1607C53.0555 50.1607 53.4893 50.1523 53.9204 50.1355C53.9372 50.1327 53.954 50.1327 53.9707 50.1327C54.2395 50.1243 54.5082 50.1215 54.7769 50.1215C62.1048 50.1215 68.8505 52.6294 74.1995 56.8308C74.2023 56.8336 74.2079 56.8364 74.2107 56.8392C75.0952 57.5362 75.9405 58.2807 76.7467 59.07C77.4912 58.3367 78.2749 57.6481 79.0895 56.996C79.0923 56.996 79.0951 56.9932 79.0979 56.9876C79.2966 56.8616 79.4841 56.716 79.6577 56.5537C79.6605 56.5509 79.6633 56.5481 79.6661 56.5481C84.5728 52.8058 90.6041 50.3762 97.177 50.1607C98.3727 50.1607 99.3997 50.1607 100.942 50.337C101.46 50.337 101.893 50.365 102.403 50.337C112.171 49.8668 120.77 44.9432 126.209 37.5509C126.679 36.9155 127.124 36.2634 127.541 35.5916C127.743 35.5216 127.961 35.4824 128.188 35.4824C129.053 35.4824 129.792 36.0366 130.06 36.8092Z" stroke="white" stroke-miterlimit="10"/>
<defs>
<linearGradient id="paint0_linear" x1="76.9824" y1="65.9824" x2="76.9824" y2="113.482" gradientUnits="userSpaceOnUse">
<stop stop-color="#8F5BFF"/>
<stop offset="1" stop-color="#8F5BFF" stop-opacity="0"/>
</linearGradient>
<linearGradient id="paint1_linear" x1="76.9824" y1="65.9824" x2="76.9824" y2="113.482" gradientUnits="userSpaceOnUse">
<stop stop-color="#8F5BFF"/>
<stop offset="1" stop-color="#8F5BFF" stop-opacity="0"/>
</linearGradient>
</defs>
</svg>
