<svg width="150" height="150" viewBox="0 0 150 150" fill="none" xmlns="http://www.w3.org/2000/svg">
<path d="M117.538 70V47C117.538 44.7909 115.748 43 113.538 43H23C20.7909 43 19 44.7909 19 47V83.0373C19 85.2465 20.7909 87.0373 23 87.0373H60.5" stroke="#8D64FF"/>
<line x1="29.5" y1="53.5" x2="29.5" y2="76.5" stroke="#515873" stroke-linecap="round" stroke-linejoin="round"/>
<line x1="40.0879" y1="53.5" x2="40.0879" y2="76.5" stroke="#515873" stroke-linecap="round" stroke-linejoin="round"/>
<line x1="51.6367" y1="53.5" x2="51.6367" y2="76.5" stroke="#515873" stroke-linecap="round" stroke-linejoin="round"/>
<line x1="62.2246" y1="53.5" x2="62.2246" y2="76.5" stroke="#515873" stroke-linecap="round" stroke-linejoin="round"/>
<line x1="73.7754" y1="53.5" x2="73.7754" y2="76.5" stroke="#515873" stroke-linecap="round" stroke-linejoin="round"/>
<line x1="84.3633" y1="53.5" x2="84.3633" y2="76.5" stroke="#515873" stroke-linecap="round" stroke-linejoin="round"/>
<line x1="95.9121" y1="53.5" x2="95.9121" y2="76.5" stroke="#515873" stroke-linecap="round" stroke-linejoin="round"/>
<line x1="106.5" y1="53.5" x2="106.5" y2="76.5" stroke="#515873" stroke-linecap="round" stroke-linejoin="round"/>
<path d="M129.024 76.2106L129.018 76.2099C127.543 76.0088 126.063 76.0909 124.588 76.4084C124.351 76.4594 124.105 76.4161 123.905 76.3016C123.703 76.1861 123.518 75.9777 123.474 75.6868C123.341 74.8831 123.073 74.106 122.7 73.3545C121.905 71.7697 120.713 70.4874 119.304 69.3564L119.301 69.3543C119.112 69.2003 118.92 69.0465 118.727 68.8965C118.539 68.7499 118.299 68.7818 118.17 68.9297C117.114 70.1451 116.527 71.5663 116.277 73.172L129.024 76.2106ZM129.024 76.2106C130.376 76.3789 131.631 76.8175 132.791 77.5276C132.969 77.6362 133.034 77.8671 132.929 78.0607C131.959 79.858 130.638 81.271 128.696 82.0891C127.241 82.6963 125.733 83.0012 124.148 83.0521C123.769 83.0634 123.388 83.0598 122.984 83.0558L122.983 83.0558C122.425 83.0504 121.879 83.3723 121.653 83.9188C119.874 87.962 117.499 91.6347 114.407 94.8376C111.684 97.6427 108.538 99.9292 105.02 101.697C101.501 103.466 97.785 104.647 93.9047 105.342L93.9032 105.342C91.7996 105.725 89.7011 105.986 87.5709 106.073L87.5461 106.074L87.5215 106.077C87.4099 106.093 87.3132 106.118 87.2321 106.141C87.1854 106.154 87.1399 106.16 87.0965 106.16H87.087H87.0774H87.0678H87.0583H87.0487H87.0392H87.0296H87.02H87.0105H87.0009H86.9914H86.9818H86.9722H86.9627H86.9531H86.9435H86.934H86.9244H86.9149H86.9053H86.8957H86.8862H86.8766H86.867H86.8575H86.8479H86.8383H86.8288H86.8192H86.8096H86.8001H86.7905H86.7809H86.7714H86.7618H86.7522H86.7427H86.7331H86.7235H86.7139H86.7044H86.6948H86.6852H86.6757H86.6661H86.6565H86.6469H86.6374H86.6278H86.6182H86.6087H86.5991H86.5895H86.5799H86.5704H86.5608H86.5512H86.5416H86.532H86.5225H86.5129H86.5033H86.4937H86.4842H86.4746H86.465H86.4554H86.4459H86.4363H86.4267H86.4171H86.4075H86.398H86.3884H86.3788H86.3692H86.3596H86.3501H86.3405H86.3309H86.3213H86.3117H86.3021H86.2926H86.283H86.2734H86.2638H86.2542H86.2446H86.2351H86.2255H86.2159H86.2063H86.1967H86.1871H86.1776H86.168H86.1584H86.1488H86.1392H86.1296H86.12H86.1104H86.1009H86.0913H86.0817H86.0721H86.0625H86.0529H86.0433H86.0337H86.0242H86.0146H86.005H85.9954H85.9858H85.9762H85.9666H85.957H85.9474H85.9379H85.9283H85.9187H85.9091H85.8995H85.8899H85.8803H85.8707H85.8611H85.8515H85.8419H85.8323H85.8228H85.8132H85.8036H85.794H85.7844H85.7748H85.7652H85.7556H85.746H85.7364H85.7268H85.7172H85.7076H85.698H85.6884H85.6788H85.6692H85.6596H85.6501H85.6405H85.6309H85.6213H85.6117H85.6021H85.5925H85.5829H85.5733H85.5637H85.5541H85.5445H85.5349H85.5253H85.5157H85.5061H85.4965H85.4869H85.4773H85.4677H85.4581H85.4485H85.4389H85.4293H85.4197H85.4101H85.4005H85.3909H85.3813H85.3717H85.3621H85.3525H85.3429H85.3333H85.3237H85.3141H85.3045H85.2949H85.2853H85.2757H85.2661H85.2565H85.2469H85.2373H85.2277H85.2181H85.2085H85.1989H85.1893H85.1797H85.1701H85.1605H85.1509H85.1413H85.1317H85.1221H85.1125H85.1029H85.0933H85.0837H85.0741H85.0645H85.0549H85.0453H85.0357H85.0261H85.0165H85.0069H84.9973H84.9877H84.9781H84.9685H84.9589H84.9493H84.9397H84.9301H84.9205H84.9109H84.9013H84.8917H84.8821H84.8725H84.8629H84.8533H84.8437H84.8341H84.8245H84.8149H84.8053H84.7957H84.7861H84.7764H84.7668H84.7572H84.7476H84.738H84.7284H84.7188H84.7092H84.6996H84.69H84.6804H84.6708H84.6612H84.6516H84.642H84.6324H84.6228H84.6132H84.6036H84.594H84.5844H84.5748H84.5652H84.5556H84.546H84.5364H84.5268H84.5172H84.5076H84.498H84.4884H84.4788H84.4692H84.4596H84.45H84.4404H84.4308H84.4212H84.4116H84.402H84.3924H84.3828H84.3731H84.3635H84.3539H84.3443H84.3347H84.3251H84.3155H84.3059H84.2963H84.2867H84.2771H84.2675H84.2579H84.2483H84.2387H84.2291H84.2195H84.2099H84.2003H84.1907H84.1811H84.1715H84.1619H84.1523H84.1427H84.1331H84.1235H84.1139H84.1043H84.0947H84.0851H84.0755H84.0659H84.0563H84.0467H84.0371H84.0275H84.0179H84.0083H83.9987H83.9891H83.9795H83.9699H83.9603H83.9507H83.9411H83.9316H83.922H83.9124H83.9028H83.8932H83.8836H83.874H83.8644H83.8548H83.8452H83.8356H83.826H83.8164H83.8068H83.7972H83.7876H83.778H83.7684H83.7588H83.7492H83.7396H83.73H83.7204H83.7108H83.7012H83.6916H83.6821H83.6725H83.6629H83.6533H83.6437H83.6341H83.6245H83.6149H83.6053H83.5957H83.5861H83.5765H83.5669H83.5573H83.5478H83.5382H83.5286H83.519H83.5094H83.4998H83.4902H83.4806H83.471H83.4614H83.4518H83.4423H83.4327H83.4231H83.4135H83.4039H83.3943H83.3847H83.3751H83.3655H83.356H83.3464H83.3368H83.3272H83.3176H83.308H83.2984H83.2888H83.2793H83.2697H83.2601H83.2505H83.2409H83.2313H83.2217H83.2122H83.2026H83.193H83.1834H83.1738H83.1642H83.1547H83.1451H83.1355H83.1259H83.1163H83.1067H83.0972H83.0876H83.078H83.0684H83.0588H83.0493H83.0397H83.0301H83.0205H83.0109H83.0014H82.9918H82.9822H82.9726H82.963H82.9535H82.9439H82.9343H82.9247H82.9151H82.9056H82.896H82.8864H82.8768H82.8673H82.8577H82.8481H82.8385H82.829H82.8194H82.8098H82.8002H82.7907H82.7811H82.7715H82.762H82.7524H82.7428H82.7332H82.7237H82.7141H82.7045H82.695H82.6854H82.6758H82.6662H82.6567H82.6471H82.6375H82.628H82.6184H82.6088H82.5993H82.5897H82.5801H82.5706H82.561H82.5514H82.5419H82.5323H82.5227H82.5132H82.5036H82.4941H82.4845H82.4749H82.4654H82.4558H82.4462H82.4367H82.4271H82.4176H82.408H82.3984H82.3889H82.3793H82.3698H82.3602H82.3506H82.3411H82.3315H82.322H82.3124H82.3029H82.2933H82.2837H82.2742H82.2646H82.2551H82.2455H82.236H82.2264H82.222C81.7151 106.091 81.1859 106.022 80.6718 105.97C76.4245 105.502 72.4952 104.225 68.9911 101.82C66.671 100.221 64.7264 98.251 63.2875 95.8595C62.117 93.8967 61.2542 91.814 60.9098 89.5737L60.9096 89.5725C60.7328 88.4398 60.5924 87.3138 60.5223 86.1918L60.5223 86.1918L60.522 86.1873C60.4525 85.2139 60.5545 84.228 60.7321 83.196C60.7563 83.0551 60.8824 82.9448 61.0397 82.9448H61.1341H61.2284H61.3228H61.4171H61.5115H61.6058H61.7002H61.7945H61.8889H61.9832H62.0776H62.1719H62.2663H62.3606H62.455H62.5493H62.6437H62.738H62.8324H62.9268H63.0211H63.1155H63.2098H63.3042H63.3985H63.4929H63.5873H63.6816H63.776H63.8703H63.9647H64.0591H64.1534H64.2478H64.3421H64.4365H64.5309H64.6252H64.7196H64.8139H64.9083H65.0027H65.097H65.1914H65.2858H65.3801H65.4745H65.5689H65.6632H65.7576H65.852H65.9463H66.0407H66.1351H66.2294H66.3238H66.4182H66.5125H66.6069H66.7013H66.7957H66.89H66.9844H67.0788H67.1731H67.2675H67.3619H67.4562H67.5506H67.645H67.7394H67.8337H67.9281H68.0225H68.1169H68.2112H68.3056H68.4H68.4944H68.5887H68.6831H68.7775H68.8719H68.9662H69.0606H69.155H69.2494H69.3438H69.4381H69.5325H69.6269H69.7213H69.8156H69.91H70.0044H70.0988H70.1932H70.2875H70.3819H70.4763H70.5707H70.6651H70.7595H70.8538H70.9482H71.0426H71.137H71.2314H71.3257H71.4201H71.5145H71.6089H71.7033H71.7977H71.8921H71.9864H72.0808H72.1752H72.2696H72.364H72.4584H72.5527H72.6471H72.7415H72.8359H72.9303H73.0247H73.1191H73.2135H73.3078H73.4022H73.4966H73.591H73.6854H73.7798H73.8742H73.9686H74.063H74.1573H74.2517H74.3461H74.4405H74.5349H74.6293H74.7237H74.8181H74.9125H75.0069H75.1012H75.1956H75.29H75.3844H75.4788H75.5732H75.6676H75.762H75.8564H75.9508H76.0452H76.1396H76.234H76.3284H76.4227H76.5171H76.6115H76.7059H76.8003H76.8947H76.9891H77.0835H77.1779H77.2723H77.3667H77.4611H77.5555H77.6499H77.7443H77.8387H77.9331H78.0275H78.1219H78.2162H78.3106H78.405H78.4994H78.5938H78.6882H78.7826H78.877H78.9714H79.0658H79.1602H79.2546H79.349H79.4434H79.5378H79.6322H79.7266H79.821H79.9154H80.0098H80.1042H80.1986H80.293H80.3874H80.4818H80.5762H80.6706H80.765H80.8594H80.9538H81.0482H81.1426H81.237H81.3314H81.4258H81.5202H81.6146H81.709H81.8034H81.8978H81.9922H82.0866H82.181H82.2754H82.3698H82.4642H82.5586H82.653H82.7474H82.8418H82.9362H83.0306H83.125H83.2194H83.3138H83.4082H83.5026H83.597H83.6914H83.7858H83.8802H83.9746H84.069H84.1634H84.2578H84.3522H84.4466H84.541H84.6354H84.7298H84.8242H84.9186H85.013H85.1074H85.2018H85.2962H85.3906H85.485H85.5794H85.6738H85.7682H85.8626H85.957H86.0514H86.1458H86.2402H86.3346H86.429H86.5234H86.6178H86.7122H86.8066H86.901H86.9954H87.0898H87.1842H87.2786H87.373H87.4674H87.5618H87.6562H87.7506H87.845H87.9394H88.0338H88.1282H88.2226H88.317H88.4114H88.5058H88.6002H88.6946H88.789H88.8834H88.9778H89.0722H89.1666H89.261H89.3554H89.4498H89.5442H89.6386H89.733H89.8274H89.9218H90.0162H90.1106H90.205H90.2994H90.3938H90.4882H90.5826H90.677H90.7714H90.8658H90.9601H91.0545H91.1489H91.2433H91.3377H91.4321H91.5265H91.6209H91.7153H91.8097H91.9041H91.9985H92.0929H92.1873H92.2817H92.3761H92.4705H92.5649H92.6593H92.7537H92.8481H92.9425H93.0369H93.1313H93.2257H93.3201H93.4144H93.5088H93.6032H93.6976H93.792H93.8864H93.9808H94.0752H94.1696H94.264H94.3584H94.4528H94.5472H94.6416H94.736H94.8303H94.9247H95.0191H95.1135H95.2079H95.3023H95.3967H95.4911H95.5855H95.6799H95.7743H95.8687H95.963H96.0574H96.1518H96.2462H96.3406H96.435H96.5294H96.6238H96.7182H96.8125H96.9069H97.0013H97.0957H97.1901H97.2845H97.3789H97.4733H97.5676H97.662H97.7564H97.8508H97.9452H98.0396H98.134H98.2283H98.3227H98.4171H98.5115H98.6059H98.7003H98.7947H98.889H98.9834H99.0778H99.1722H99.2666H99.361H99.4553H99.5497H99.6441H99.7385H99.8329H99.9272H100.022H100.116H100.21H100.305H100.399H100.494H100.588H100.682H100.777H100.871H100.965H101.06H101.154H101.249H101.343H101.437H101.532H101.626H101.72H101.815H101.909H102.004H102.098H102.192H102.287H102.381H102.475H102.57H102.664H102.759H102.853H102.947H103.042H103.136H103.23H103.325H103.419H103.514H103.608H103.702H103.797H103.891H103.985H104.08H104.174H104.268H104.363H104.457H104.552H104.646H104.74H104.835H104.929H105.023H105.118H105.212H105.307H105.401H105.495H105.59H105.684H105.778H105.873H105.967H106.061H106.156H106.25H106.345H106.439H106.533H106.628H106.722H106.816H106.911H107.005H107.099H107.194H107.288H107.382H107.477H107.571H107.666H107.76H107.854H107.949H108.043H108.137H108.232H108.326H108.42H108.515H108.609H108.703H108.798H108.892H108.986H109.081H109.175H109.27H109.364C110.993 82.9448 112.626 82.8201 114.25 82.4018L114.251 82.4014C114.73 82.2764 115.175 82.0912 115.592 81.9035C115.721 81.8455 115.845 81.7881 115.967 81.7318C116.251 81.6009 116.523 81.476 116.806 81.3629L116.621 80.8984M129.024 76.2106L116.621 80.8984M116.621 80.8984L116.816 81.359C117.538 81.0542 117.709 80.1901 117.377 79.5961C116.261 77.6006 115.925 75.4711 116.277 73.1729L116.621 80.8984Z" stroke="white"/>
<path d="M76.0041 93.939L76.0039 93.9392C74.8526 94.8939 73.3475 94.1616 73.1018 93.0718C73.0914 93.0259 73.0848 92.9734 73.0787 92.9034C73.0774 92.8888 73.0761 92.8713 73.0746 92.8521C73.0709 92.8063 73.0665 92.7506 73.0608 92.6981C73.0753 91.9643 73.6812 91.2881 74.5059 91.1635C75.0129 91.0903 75.4445 91.1648 75.8482 91.4117L75.8482 91.4117L75.8506 91.4132C76.6975 91.9248 76.9378 93.1655 76.0041 93.939Z" stroke="white"/>
<path d="M83.4146 93.5272C86.6778 93.5272 89.941 93.5272 93.2042 93.5272C94.1315 93.5272 95.0409 93.5272 95.9681 93.5272C95.879 93.4217 95.7898 93.2987 95.7185 93.1933C95.3262 95.1439 94.3098 96.9187 92.8297 98.2894C91.2784 99.7128 89.2991 100.486 87.2127 100.837C85.911 101.066 84.5737 101.119 83.2541 101.171C82.9153 101.189 82.9153 101.716 83.2541 101.699C85.7149 101.611 88.2113 101.435 90.4938 100.416C92.3126 99.6249 93.864 98.2718 94.9161 96.62C95.558 95.6183 96.0038 94.4937 96.2534 93.3339C96.2891 93.1757 96.1821 93 96.0038 93C92.7406 93 89.4774 93 86.2142 93C85.2869 93 84.3775 93 83.4502 93C83.0758 93 83.0758 93.5272 83.4146 93.5272Z" fill="white" stroke="white" stroke-width="0.5" stroke-linecap="round" stroke-linejoin="round"/>
</svg>
