<svg width="150" height="150" viewBox="0 0 150 150" fill="none" xmlns="http://www.w3.org/2000/svg">
<path d="M83.3784 127.54C84.6919 124.481 88.3563 123.116 91.5629 124.492L86.8062 135.573C83.5996 134.197 82.0648 130.6 83.3784 127.54Z" fill="#F5B82E"/>
<path d="M140.267 65.3859C139.406 64.525 139.406 63.1287 140.267 62.267C141.129 61.4054 142.525 61.4053 143.386 62.2662C144.247 63.1271 144.247 64.5234 143.385 65.3851C142.524 66.2467 141.127 66.2468 140.267 65.3859Z" stroke="#414168"/>
<path d="M114.726 129.752C114.161 129.186 114.161 128.276 114.718 127.719C115.275 127.162 116.186 127.162 116.751 127.727C117.317 128.293 117.316 129.203 116.759 129.76C116.202 130.317 115.292 130.317 114.726 129.752Z" stroke="#414168"/>
<path d="M99.6345 19.6865L103.67 18.0496L102.035 13.9999L97.9993 15.6368L99.6345 19.6865Z" fill="#41CADD"/>
<path d="M41.0004 124.664L43.627 129.327L48.3028 126.663L45.6763 122L41.0004 124.664Z" fill="#144BC1"/>
<path d="M53.5289 21.4032L43.8136 30.2576L40.9388 17.4349L53.5289 21.4032Z" fill="#F685A1"/>
<line x1="124.457" y1="33.6837" x2="131.802" y2="24.8081" stroke="#414168"/>
<line x1="141.663" y1="100.497" x2="135.771" y2="97.4439" stroke="#414168"/>
<line y1="-0.5" x2="9.40838" y2="-0.5" transform="matrix(-0.76468 -0.64441 0.644411 -0.764679 17.6738 44.3835)" stroke="#414168"/>
<path d="M16.206 89.9724L21.37 94.1985L15.1331 96.5259L16.206 89.9724Z" stroke="#414168"/>
<path d="M61.8691 112C58.1198 111.046 54.2754 108.048 51.3635 105.758C47.7664 102.933 44.6642 99.4964 42.2281 95.6403C37.2037 87.7182 35.1101 78.1735 36.3472 68.8579C37.5272 59.9049 40.5723 52.6128 47.0813 46.1033C54.8273 38.3529 65.4472 33.9433 76.3715 34.0006C95.67 34.096 112.57 48.5658 115.539 67.6361C118.242 84.9694 108.878 104.479 92.0158 110.969C91.7494 111.065 91.4639 111.16 91.1975 111.103C90.893 111.026 90.6836 110.759 90.5123 110.511C89.5036 109.079 88.7614 107.457 88.0381 105.853C85.9446 101.234 83.8701 96.6139 81.7766 91.9752C81.3008 90.9062 80.806 89.799 80.7679 88.6154C80.7108 85.542 82.9376 85.2939 84.955 84.2249C87.0485 83.1368 88.2475 81.0178 89.0468 78.7844C90.0746 75.8828 90.1126 72.943 89.1801 70.0032C87.2959 64.0282 81.6244 60.0385 75.4199 60.2867C69.2155 60.554 63.9627 64.9445 62.4972 71.0913C61.3172 75.9973 63.3346 83.8622 68.6826 85.3702C69.7103 85.6566 70.8522 86.2293 70.9855 87.2983C71.0426 87.7373 70.9093 88.1764 70.7571 88.5773C68.3591 95.8694 65.961 103.162 63.563 110.435" stroke="#414168" stroke-miterlimit="10" stroke-linecap="round" stroke-linejoin="round"/>
<path d="M104.087 83.5137C99.6267 83.5137 96.0117 87.1409 96.0117 91.6166C96.0117 95.3075 98.464 98.4257 101.846 99.4014V108.459H106.349V99.4014C109.711 98.4257 112.184 95.3075 112.184 91.6166C112.163 87.1409 108.548 83.5137 104.087 83.5137Z" fill="white"/>
<path d="M121.988 57.3284C121.988 46.5103 113.553 37.3255 102.75 37.0073C91.7154 36.7103 82.6251 45.4921 82.3926 56.4375H89.0517C89.2842 49.3527 95.0978 43.6679 102.201 43.6679C109.452 43.6679 115.35 49.586 115.35 56.8617V70.692H121.988V57.3284Z" fill="#A787FF" stroke="#A787FF"/>
<path d="M118.635 70.5962H117.257H90.9377V70.575H84.2997V70.5962H78V119.256H130.195V70.5962H123.895L122.479 70.596L118.635 70.5962ZM106.349 99.402V108.46H101.846V99.402C98.4848 98.4263 96.0114 95.3081 96.0114 91.6172C96.0114 87.1415 99.6263 83.5143 104.087 83.5143C108.547 83.5143 112.162 87.1415 112.162 91.6172C112.162 95.3081 109.71 98.4263 106.349 99.402Z" fill="#A787FF"/>
<path d="M26.9649 74.7277L35.3122 110.746L61.3394 104.769L55.1377 78.0235L44.6567 70.6599L26.9649 74.7277Z" fill="#41CADD"/>
<path d="M55.1378 78.0236L44.6568 70.66L46.8109 79.9496L55.1378 78.0236Z" fill="#414168"/>
<path d="M38.9015 89.685C37.7993 91.0018 36.488 92.1949 35.0001 93.2059C35.4686 93.4694 36.0353 93.5571 36.602 93.6449C38.4437 93.9404 40.2855 94.236 42.1357 94.5482" stroke="white" stroke-miterlimit="10" stroke-linecap="round" stroke-linejoin="round"/>
<path d="M47.0442 85.9261C46.1159 89.7095 45.1714 93.5431 43.1736 96.8671" stroke="white" stroke-miterlimit="10" stroke-linecap="round" stroke-linejoin="round"/>
<path d="M48.7339 88.7906C50.2064 88.772 51.6984 89.0366 53.1347 89.5602C52.7333 90.205 52.0624 90.5265 51.4336 90.8894C50.3165 91.5226 49.2753 92.2636 48.3019 93.1375" stroke="white" stroke-miterlimit="10" stroke-linecap="round" stroke-linejoin="round"/>
</svg>
