<svg width="150" height="150" viewBox="0 0 150 150" fill="none" xmlns="http://www.w3.org/2000/svg">
<path d="M95 38.8223C89.3903 35.7741 83.0234 34.0334 76.3715 34.0006C65.4472 33.9433 54.8273 38.3529 47.0813 46.1033C40.5723 52.6128 37.5272 59.9049 36.3472 68.8579C36.1643 70.2356 36.0542 71.6183 36.0156 73M101.5 43.2152C108.814 49.2586 114.014 57.8404 115.539 67.6361C115.718 68.7798 115.844 69.933 115.918 71.0913M89.4809 71.0913C89.3954 70.7287 89.2952 70.366 89.1801 70.0032C87.2959 64.0282 81.6244 60.0385 75.4199 60.2867C69.2155 60.554 63.9627 64.9445 62.4972 71.0913C61.3172 75.9973 63.3346 83.8622 68.6826 85.3702C69.7103 85.6566 70.8523 86.2293 70.9855 87.2983C71.0426 87.7373 70.9094 88.1764 70.7571 88.5773C68.7345 94.7277 65.507 101.992 63.1071 108.479C62.378 110.45 60.2722 111.604 58.3892 110.67C56.0927 109.531 53.8817 107.972 52 106.5" stroke="#515873" stroke-miterlimit="10" stroke-linecap="round" stroke-linejoin="round"/>
<mask id="path-2-inside-1" fill="white">
<path fill-rule="evenodd" clip-rule="evenodd" d="M102.75 37.0073C113.553 37.3255 121.988 46.5103 121.988 57.3284V70.5953L122.479 70.5953L123.895 70.5954C127.374 70.5954 130.195 73.4159 130.195 76.8952V111.256C130.195 115.674 126.613 119.256 122.195 119.256H86C81.5817 119.256 78 115.674 78 111.256V76.8952C78 73.4159 80.8205 70.5954 84.2997 70.5954V70.5742H90.9377V70.5954H115.35V56.8617C115.35 49.586 109.452 43.6679 102.201 43.6679C95.7536 43.6679 90.3688 48.3514 89.2555 54.5142C89.0637 55.5761 88.1953 56.4375 87.1163 56.4375H84.4355C83.3143 56.4375 82.4019 55.5132 82.5398 54.4005C83.7758 44.4238 92.4091 36.729 102.75 37.0073ZM106.349 106.207V99.4013C109.71 98.4256 112.162 95.3074 112.162 91.6165C112.162 87.1408 108.547 83.5135 104.087 83.5135C99.6263 83.5135 96.0114 87.1408 96.0114 91.6165C96.0114 95.3074 98.4848 98.4256 101.846 99.4013V106.207C101.846 107.451 102.854 108.459 104.097 108.459C105.341 108.459 106.349 107.451 106.349 106.207Z"/>
</mask>
<path d="M102.75 37.0073L102.78 36.0077L102.777 36.0077L102.75 37.0073ZM121.988 70.5953H120.988V71.5953L121.988 71.5953L121.988 70.5953ZM122.479 70.5953L122.479 69.5953L122.479 69.5953L122.479 70.5953ZM123.895 70.5954L123.895 71.5954H123.895V70.5954ZM84.2997 70.5954V71.5954H85.2997V70.5954H84.2997ZM84.2997 70.5742V69.5742H83.2997V70.5742H84.2997ZM90.9377 70.5742H91.9377V69.5742H90.9377V70.5742ZM90.9377 70.5954H89.9377V71.5954H90.9377V70.5954ZM115.35 70.5954V71.5954H116.35V70.5954H115.35ZM89.2555 54.5142L90.2395 54.692L90.2395 54.692L89.2555 54.5142ZM82.5398 54.4005L83.5322 54.5234L83.5322 54.5234L82.5398 54.4005ZM106.349 99.4013L106.07 98.441L105.349 98.6503V99.4013H106.349ZM101.846 99.4013H102.846V98.6503L102.125 98.441L101.846 99.4013ZM122.988 57.3284C122.988 46.002 114.155 36.3428 102.78 36.0077L102.721 38.0069C112.951 38.3082 120.988 47.0186 120.988 57.3284H122.988ZM122.988 70.5953V57.3284H120.988V70.5953H122.988ZM122.479 69.5953L121.988 69.5953L121.988 71.5953L122.479 71.5953L122.479 69.5953ZM123.895 69.5954L122.479 69.5953L122.478 71.5953L123.895 71.5954L123.895 69.5954ZM131.195 76.8952C131.195 72.8636 127.927 69.5954 123.895 69.5954V71.5954C126.822 71.5954 129.195 73.9682 129.195 76.8952H131.195ZM131.195 111.256V76.8952H129.195V111.256H131.195ZM122.195 120.256C127.165 120.256 131.195 116.226 131.195 111.256H129.195C129.195 115.122 126.061 118.256 122.195 118.256V120.256ZM86 120.256H122.195V118.256H86V120.256ZM77 111.256C77 116.226 81.0294 120.256 86 120.256V118.256C82.134 118.256 79 115.122 79 111.256H77ZM77 76.8952V111.256H79V76.8952H77ZM84.2997 69.5954C80.2682 69.5954 77 72.8636 77 76.8952H79C79 73.9682 81.3728 71.5954 84.2997 71.5954V69.5954ZM83.2997 70.5742V70.5954H85.2997V70.5742H83.2997ZM90.9377 69.5742H84.2997V71.5742H90.9377V69.5742ZM91.9377 70.5954V70.5742H89.9377V70.5954H91.9377ZM115.35 69.5954H90.9377V71.5954H115.35V69.5954ZM114.35 56.8617V70.5954H116.35V56.8617H114.35ZM102.201 44.6679C108.896 44.6679 114.35 50.1351 114.35 56.8617H116.35C116.35 49.0369 110.007 42.6679 102.201 42.6679V44.6679ZM90.2395 54.692C91.269 48.9934 96.2492 44.6679 102.201 44.6679V42.6679C95.258 42.6679 89.4686 47.7094 88.2714 54.3365L90.2395 54.692ZM87.1163 57.4375C88.7647 57.4375 89.9779 56.1402 90.2395 54.692L88.2714 54.3365C88.1494 55.0119 87.6259 55.4375 87.1163 55.4375V57.4375ZM84.4355 57.4375H87.1163V55.4375H84.4355V57.4375ZM81.5473 54.2775C81.327 56.0557 82.785 57.4375 84.4355 57.4375V55.4375C83.8436 55.4375 83.4768 54.9706 83.5322 54.5234L81.5473 54.2775ZM102.777 36.0077C91.9112 35.7153 82.8455 43.7997 81.5473 54.2775L83.5322 54.5234C84.7061 45.0479 92.907 37.7428 102.724 38.007L102.777 36.0077ZM105.349 99.4013V106.207H107.349V99.4013H105.349ZM111.162 91.6165C111.162 94.8549 109.011 97.5871 106.07 98.441L106.628 100.362C110.409 99.264 113.162 95.7599 113.162 91.6165H111.162ZM104.087 84.5135C107.992 84.5135 111.162 87.6899 111.162 91.6165H113.162C113.162 86.5917 109.103 82.5135 104.087 82.5135V84.5135ZM97.0114 91.6165C97.0114 87.6899 100.182 84.5135 104.087 84.5135V82.5135C99.0708 82.5135 95.0114 86.5917 95.0114 91.6165H97.0114ZM102.125 98.441C99.1795 97.586 97.0114 94.8509 97.0114 91.6165H95.0114C95.0114 95.7639 97.79 99.2652 101.567 100.362L102.125 98.441ZM102.846 106.207V99.4013H100.846V106.207H102.846ZM104.097 107.459C103.406 107.459 102.846 106.899 102.846 106.207H100.846C100.846 108.003 102.302 109.459 104.097 109.459V107.459ZM105.349 106.207C105.349 106.899 104.789 107.459 104.097 107.459V109.459C105.893 109.459 107.349 108.003 107.349 106.207H105.349Z" fill="#7950ED" mask="url(#path-2-inside-1)"/>
<path d="M34.898 106.745L28.3566 78.5193C27.9197 76.6339 29.0958 74.7518 30.982 74.3181L43.0315 71.5476C43.999 71.3251 45.0155 71.524 45.8278 72.0947L53.5986 77.5543C54.3038 78.0497 54.8014 78.788 54.9961 79.6275L59.9468 100.978C60.3841 102.864 59.2074 104.746 57.3207 105.18L39.091 109.366C37.2097 109.798 35.3338 108.625 34.898 106.745Z" stroke="white"/>
<path d="M45.5966 79.2235L43.8551 71.7132L44.6414 71.7132L54.0159 78.0306L54.063 78.804L47.3959 80.3461C46.5891 80.5327 45.7837 80.0302 45.5966 79.2235Z" stroke="white"/>
<path d="M47.996 95.4031L51.6585 89.6938L45.9492 86.0312" stroke="white" stroke-linecap="round" stroke-linejoin="round"/>
<path d="M39.7016 87.3965L36.039 93.1059L41.7484 96.7684" stroke="white" stroke-linecap="round" stroke-linejoin="round"/>
</svg>
