<svg width="110" height="110" viewBox="0 0 110 110" fill="none" xmlns="http://www.w3.org/2000/svg">
<path d="M63.2634 86.806H24.2149C23.6622 86.806 23.1924 86.3627 23.1924 85.7808V46.4927C23.1924 45.9385 23.6345 45.4675 24.2149 45.4675H63.2634C63.8161 45.4675 64.2859 45.9108 64.2859 46.4927V85.7808C64.2859 86.335 63.8161 86.806 63.2634 86.806Z" fill="#A787FF" stroke="#121242" stroke-width="1.5" stroke-linecap="round" stroke-linejoin="round"/>
<path d="M55.8297 49.1803C55.7468 46.465 55.6915 43.7498 55.6086 41.0068C55.5257 37.682 55.4152 34.3018 54.4756 31.1155C53.536 27.9569 51.6015 24.9092 48.6998 23.3299C44.9138 21.2796 39.9394 22.1385 36.7338 25.02C33.5281 27.9015 32.091 32.4454 32.5885 36.7122" stroke="#121242" stroke-width="1.5" stroke-linecap="round" stroke-linejoin="round"/>
<path d="M43.6982 57.3539C42.7863 56.6058 41.4321 56.7167 40.3267 57.1877C37.9225 58.2128 36.292 60.7896 36.292 63.394C36.3196 65.9984 37.9501 68.5474 40.2991 69.6834C42.6481 70.8194 45.6051 70.57 47.7606 69.1016C48.7555 68.4366 49.5845 67.4946 50.0267 66.3863C50.7452 64.4746 50.1925 62.3134 49.3082 60.4571C48.7555 59.2934 48.0646 58.1574 47.0421 57.3816C46.0196 56.6058 44.6102 56.2457 43.4219 56.7167" fill="white"/>
<path d="M43.6982 57.3539C42.7863 56.6058 41.4321 56.7167 40.3267 57.1877C37.9225 58.2128 36.292 60.7896 36.292 63.394C36.3196 65.9984 37.9501 68.5474 40.2991 69.6834C42.6481 70.8194 45.6051 70.57 47.7606 69.1016C48.7555 68.4366 49.5845 67.4946 50.0267 66.3863C50.7452 64.4746 50.1925 62.3134 49.3082 60.4571C48.7555 59.2934 48.0646 58.1574 47.0421 57.3816C46.0196 56.6058 44.6102 56.2457 43.4219 56.7167" stroke="#121242" stroke-width="1.5" stroke-linecap="round" stroke-linejoin="round"/>
<path d="M43.6426 70.4038C44.3058 73.2853 44.6927 76.2222 44.8585 79.1591" stroke="#121242" stroke-width="1.5" stroke-linecap="round" stroke-linejoin="round"/>
<path d="M59.0078 35.7148V79.1313H92.778V46.9084L82.7188 35.7148H59.0078Z" fill="white" stroke="#121242" stroke-width="1.5" stroke-linecap="round" stroke-linejoin="round"/>
<path d="M92.778 46.9084L82.7188 35.7148V46.9084H92.778Z" fill="#A787FF" stroke="#121242" stroke-width="1.5" stroke-linecap="round" stroke-linejoin="round"/>
<path d="M69.7304 55.5251C67.9341 56.9105 65.8615 58.0465 63.623 58.9054C64.1481 59.3764 64.8666 59.6812 65.5575 59.9582C67.8512 60.9003 70.145 61.8146 72.4387 62.7566" stroke="#121242" stroke-width="1.5" stroke-linecap="round" stroke-linejoin="round"/>
<path d="M81.3648 53.0869C79.0434 57.6862 76.6668 62.3687 73.0742 66.0814" stroke="#121242" stroke-width="1.5" stroke-linecap="round" stroke-linejoin="round"/>
<path d="M82.719 57.2705C84.6259 57.6861 86.4774 58.4619 88.1632 59.5702C87.4447 60.2905 86.4774 60.5122 85.5655 60.7616C83.935 61.2326 82.3598 61.8975 80.8398 62.7287" stroke="#121242" stroke-width="1.5" stroke-linecap="round" stroke-linejoin="round"/>
<path d="M71.4988 45.0798C70.4763 43.6668 66.3587 38.7627 59.3946 38.7627C52.4305 38.7627 48.3405 43.6668 47.2904 45.0798C47.1246 45.3015 47.1246 45.6063 47.2904 45.8279C48.3129 47.241 52.4305 52.1451 59.3946 52.1451C66.3587 52.1451 70.4487 47.241 71.4988 45.8279C71.6646 45.6063 71.6646 45.3015 71.4988 45.0798Z" fill="white" stroke="#121242" stroke-width="1.5" stroke-linecap="round" stroke-linejoin="round"/>
<path d="M59.3948 50.0116C61.9131 50.0116 63.9546 47.9649 63.9546 45.44C63.9546 42.9152 61.9131 40.8684 59.3948 40.8684C56.8765 40.8684 54.835 42.9152 54.835 45.44C54.835 47.9649 56.8765 50.0116 59.3948 50.0116Z" fill="#E1D6FF"/>
<path d="M60.0852 41.2007C58.2336 41.1176 56.382 42.2813 55.7188 43.916C54.945 45.8 55.8846 48.3491 57.7085 49.2634C58.51 49.6513 59.4496 49.7344 60.3062 49.485C60.859 49.3188 61.384 49.014 61.8538 48.6815C62.2683 48.4045 62.6829 48.072 62.9316 47.6287C64.2028 45.4398 62.7658 43.0294 60.8866 41.8103" stroke="#121242" stroke-width="1.5" stroke-linecap="round" stroke-linejoin="round"/>
</svg>
