<svg width="150" height="150" viewBox="0 0 150 150" fill="none" xmlns="http://www.w3.org/2000/svg">
<path d="M129.787 36.2097C135.053 34.7986 140.521 38.1287 142 43.6475L122.93 48.7574C121.451 43.2386 124.521 37.6207 129.787 36.2097Z" fill="#F685A1"/>
<path d="M120.496 109.6C119.503 110.593 119.502 112.203 120.495 113.196C121.488 114.188 123.097 114.188 124.09 113.195C125.084 112.202 125.084 110.592 124.091 109.599C123.099 108.607 121.489 108.607 120.496 109.6Z" fill="#31C587"/>
<path d="M20.3199 33.7124C18.3143 35.718 18.3136 38.9689 20.3183 40.9736C22.3229 42.9783 25.5739 42.9776 27.5795 40.972C29.5851 38.9664 29.5858 35.7155 27.5811 33.7108C25.5764 31.7061 22.3255 31.7068 20.3199 33.7124Z" fill="#7950ED"/>
<path d="M10.4282 75.464C9.58167 74.6174 9.58175 73.2443 10.4291 72.3969C11.2764 71.5496 12.6495 71.5495 13.4961 72.3961C14.3427 73.2427 14.3426 74.6158 13.4953 75.4631C12.648 76.3105 11.2748 76.3105 10.4282 75.464Z" stroke="#414168"/>
<path d="M116.256 74.7465C115.311 73.8016 115.309 72.2782 116.244 71.3439C117.178 70.4095 118.701 70.411 119.646 71.3559C120.591 72.3008 120.592 73.8242 119.658 74.7585C118.724 75.6928 117.2 75.6914 116.256 74.7465Z" stroke="#414168"/>
<path d="M90.0643 130.984C89.4988 130.419 89.4991 129.509 90.0562 128.952C90.6134 128.394 91.5234 128.394 92.0889 128.96C92.6544 129.525 92.6541 130.435 92.097 130.992C91.5398 131.549 90.6298 131.55 90.0643 130.984Z" stroke="#414168"/>
<path d="M81.4724 26.0525L85.5078 24.4155L83.8726 20.3659L79.8372 22.0028L81.4724 26.0525Z" fill="#41CADD"/>
<path d="M11.8305 111.681L14.457 116.343L19.1329 113.679L16.5064 109.016L11.8305 111.681Z" fill="#144BC1"/>
<path d="M80.5797 123.706L70.8643 132.56L67.9896 119.738L80.5797 123.706Z" fill="#FFBD70"/>
<line x1="106.857" y1="20.6835" x2="100.866" y2="27.9699" stroke="#414168"/>
<line y1="-0.5" x2="9.40838" y2="-0.5" transform="matrix(-0.635241 -0.772314 0.772315 -0.63524 104.029 119.926)" stroke="#414168"/>
<line x1="25.6679" y1="59.7846" x2="33.0283" y2="68.6474" stroke="#414168"/>
<line x1="41.8784" y1="120.34" x2="36.3965" y2="127.449" stroke="#414168"/>
<line y1="-0.5" x2="9.40838" y2="-0.5" transform="matrix(-0.866025 -0.5 0.500001 -0.866025 126.844 93.0759)" stroke="#414168"/>
<path d="M40.3232 17.481L45.4872 21.7071L39.2503 24.0345L40.3232 17.481Z" stroke="#414168"/>
<path d="M47.0488 44.1612C48.863 44.0774 50.643 44.0438 52.3887 43.9096C61.1515 43.2554 69.418 40.9908 76.9143 36.3778C77.4277 36.0591 77.7529 36.0926 78.2493 36.3946C84.6845 40.3199 91.7187 42.5844 99.1979 43.5238C101.851 43.8593 104.555 43.9264 107.242 44.1109C107.413 44.1277 107.584 44.1277 107.875 44.1445C107.961 45.6039 108.098 47.0465 108.149 48.4891C108.303 53.857 108.098 59.2081 107.225 64.5089C106.112 71.2355 104.247 77.7105 100.944 83.7494C96.9901 90.9793 91.4106 96.6323 83.9827 100.423C82.0488 101.413 79.9607 102.101 77.9412 102.889C77.7358 102.973 77.462 102.956 77.2566 102.872C67.1075 98.8801 58.9779 92.6064 53.9461 82.9107C51.7897 78.8009 50.4205 74.3891 49.4449 69.8768C48.3496 64.7437 47.7848 59.5604 47.4767 54.3267C47.2884 51.1395 47.1857 47.9523 47.0488 44.7484C47.0488 44.5471 47.0488 44.3458 47.0488 44.1612Z" fill="#A787FF"/>
<path d="M85.837 61.7302C85.7997 60.469 85.7623 59.1892 85.725 57.928C85.6877 56.741 85.669 55.5725 85.5757 54.3855C85.389 52.1969 84.8477 50.0269 83.4664 48.2834C82.2345 46.7255 80.3679 45.7981 78.352 45.8723C76.3734 45.9465 74.4508 46.8553 73.1815 48.3947C71.7629 50.1382 71.1282 52.438 71.3709 54.6637C71.4082 54.9605 71.6136 55.2201 71.9309 55.2201C72.2109 55.2201 72.5282 54.9605 72.4909 54.6637C72.3042 52.8832 72.6588 51.0841 73.6855 49.5818C74.6374 48.1722 76.1867 47.2263 77.8293 47.0222C78.688 46.911 79.5093 47.0037 80.3306 47.2819C81.1145 47.5601 81.8238 48.098 82.3838 48.7471C83.6531 50.1753 84.1944 52.1042 84.3997 53.9589C84.5304 55.2201 84.5491 56.4813 84.5864 57.7425C84.6237 59.0779 84.661 60.3948 84.6984 61.7302C84.7357 62.435 85.8557 62.435 85.837 61.7302Z" fill="white"/>
<path d="M78.7243 65.9775C77.1003 64.7163 74.8978 66.1815 74.0765 67.7024C73.1805 69.3716 73.4791 71.3376 74.6924 72.7472C75.9431 74.1939 78.0336 74.6762 79.8256 74.0455C80.7589 73.7302 81.5802 73.1553 82.1401 72.3392C82.7375 71.4489 82.8121 70.3732 82.5881 69.3531C82.3455 68.2959 81.8228 67.1831 81.0949 66.3855C80.3482 65.5695 79.1163 65.0501 78.0336 65.4582C77.7536 65.5695 77.5483 65.8291 77.6417 66.1444C77.7163 66.4226 78.0523 66.6452 78.3323 66.5339C79.8629 65.9775 80.9269 67.8322 81.3375 69.0378C81.5988 69.7797 81.7482 70.6143 81.4308 71.3562C81.1509 72.0239 80.5722 72.5061 79.9562 72.8214C78.7056 73.452 77.0817 73.3408 75.999 72.4505C75.4764 72.0239 75.0658 71.4489 74.8604 70.8183C74.6364 70.1692 74.6178 69.52 74.8231 68.8709C75.0284 68.2032 75.4577 67.554 76.0177 67.146C76.5217 66.775 77.455 66.3484 77.9776 66.7565C78.2203 66.942 78.5376 66.979 78.7616 66.7565C78.9296 66.571 78.9669 66.163 78.7243 65.9775Z" fill="white"/>
<path d="M89.3831 59.6344C83.2793 59.0594 77.1382 58.8554 70.9971 59.0409C69.2799 59.0965 67.5439 59.1707 65.8267 59.3005C65.5467 59.3191 65.2293 59.5416 65.2667 59.8569C65.6213 63.0285 65.864 66.2001 66.032 69.3902C66.1813 72.5618 66.2373 75.7334 66.2 78.905C66.1813 79.7025 66.1813 80.5 66.144 81.2976C66.1253 81.9467 66.0693 82.5959 66.2186 83.2265C66.3493 83.82 66.7226 84.3579 67.3199 84.5433C67.7119 84.6732 68.1412 84.599 68.5332 84.5248C68.9252 84.4506 69.3172 84.3764 69.6905 84.3208C72.7704 83.8014 75.8876 83.4676 79.0048 83.3007C82.1594 83.1337 85.3139 83.1523 88.4685 83.3378C88.8604 83.3563 89.2524 83.3934 89.6444 83.412C89.9244 83.4305 90.2231 83.1337 90.2044 82.8555C89.9244 79.5727 89.8124 76.2898 89.8311 73.0069C89.8497 71.3562 89.8871 69.7055 89.9804 68.0548C90.0737 66.4783 90.2231 64.9018 90.3351 63.3253C90.4284 61.9899 90.2791 60.4505 89.0471 59.6529C88.7858 59.486 88.4311 59.5973 88.2818 59.8569C88.1325 60.1351 88.2258 60.4504 88.4871 60.6174C88.6551 60.7287 88.8044 60.877 88.8978 61.044C89.0284 61.2665 89.0844 61.4149 89.1404 61.6931C89.2524 62.1753 89.2524 62.7503 89.2151 63.3067C89.1218 64.8276 88.9538 66.3485 88.8791 67.8879C88.7111 71.078 88.6738 74.2867 88.7671 77.4768C88.8231 79.2759 88.9351 81.075 89.0844 82.8741C89.2711 82.6886 89.4578 82.5031 89.6444 82.3177C86.5645 82.0951 83.4847 82.0209 80.4048 82.1322C77.3062 82.2435 74.2077 82.5402 71.1465 82.9854C70.3812 83.0967 69.6158 83.2265 68.8505 83.3563C68.5146 83.412 68.1599 83.5232 67.8239 83.5232C67.7493 83.5232 67.7119 83.5232 67.6373 83.5047C67.5439 83.4861 67.6373 83.5232 67.5626 83.4676C67.4879 83.412 67.5813 83.4861 67.5066 83.4305C67.5066 83.4305 67.4506 83.3749 67.4879 83.412C67.5253 83.449 67.4506 83.3749 67.4506 83.3563C67.3386 83.1894 67.2826 82.9668 67.2639 82.7628C67.2453 82.5588 67.2453 82.262 67.2453 82.0209C67.2639 81.2419 67.2826 80.4629 67.3013 79.684C67.3573 76.568 67.3199 73.4706 67.1893 70.3547C67.0586 67.2387 66.8346 64.1414 66.5173 61.044C66.48 60.6545 66.4426 60.2835 66.3866 59.894C66.2 60.0795 66.0133 60.265 65.8267 60.4505C71.9491 60.0424 78.0902 60.0239 84.2126 60.3948C85.9299 60.5061 87.6658 60.6359 89.3831 60.8028C89.6817 60.8399 89.9431 60.5246 89.9431 60.2464C89.9431 59.8569 89.6817 59.6715 89.3831 59.6344Z" fill="white"/>
<path d="M77.7557 73.916C78.1104 75.511 78.3344 77.1061 78.4277 78.7382C78.4464 79.035 78.6704 79.2947 78.9877 79.2947C79.2864 79.2947 79.5663 79.035 79.5477 78.7382C79.4543 77.0133 79.2117 75.307 78.8384 73.6192C78.7637 73.3224 78.4277 73.1555 78.1477 73.2297C77.8491 73.3224 77.6997 73.6377 77.7557 73.916Z" fill="white"/>
<rect x="25.1914" y="81.0854" width="52.2187" height="26.7165" rx="1" fill="#41CADD"/>
<path d="M49.5965 89.5067C52.7344 89.6273 55.864 89.5971 59.0019 89.5067C62.1316 89.4162 65.2612 89.2956 68.3826 89.2655C70.1378 89.2655 71.893 89.2655 73.6483 89.3559C73.8056 89.3559 73.8056 88.4514 73.6483 88.4514C70.5104 88.3308 67.3807 88.3609 64.2428 88.4514C61.1132 88.5418 57.9836 88.6624 54.8622 88.6926C53.107 88.6926 51.3517 88.6926 49.5965 88.6021C49.4392 88.6021 49.4392 89.5067 49.5965 89.5067Z" fill="white"/>
<path d="M49.6013 99.3011C51.9369 99.1796 54.2726 99.1189 56.6082 99.0582C58.9439 98.9975 61.2795 98.9975 63.6152 98.9975C64.9357 98.9975 66.2562 99.0278 67.5767 99.0582C67.7335 99.0582 67.7335 98.1474 67.5767 98.1474C65.2411 98.0867 62.9054 98.0867 60.5698 98.0867C58.2341 98.117 55.8985 98.1474 53.5628 98.2385C52.2423 98.2688 50.9301 98.3295 49.6096 98.3903C49.4362 98.3903 49.4362 99.3011 49.6013 99.3011Z" fill="white"/>
<path d="M49.6019 94.2528C51.1518 94.4457 52.7017 94.4778 54.2516 94.4135C55.7929 94.3492 57.3342 94.2206 58.8754 94.1884C59.7499 94.1563 60.6245 94.1563 61.499 94.2206C61.6635 94.2206 61.6635 93.2559 61.499 93.2559C59.9577 93.1916 58.4078 93.2559 56.8666 93.3202C55.3253 93.4167 53.7754 93.5131 52.2342 93.481C51.3596 93.481 50.4764 93.4167 49.6019 93.288C49.4374 93.288 49.4374 94.2528 49.6019 94.2528Z" fill="white"/>
<path d="M29.7462 100.843C31.2118 97.945 34.3328 95.9902 37.5352 95.9484C40.7377 95.9067 43.8958 97.8146 45.4111 100.689" stroke="white" stroke-miterlimit="10" stroke-linecap="round" stroke-linejoin="round"/>
<path d="M37.6438 94.4319C39.5269 94.5147 41.1218 93.0281 41.2061 91.1115C41.2903 89.195 39.832 87.5742 37.9488 87.4914C36.0657 87.4087 34.4708 88.8952 34.3865 90.8118C34.3023 92.7283 35.7606 94.3491 37.6438 94.4319Z" stroke="white" stroke-miterlimit="10" stroke-linecap="round" stroke-linejoin="round"/>
<rect x="45.8359" y="75.0134" width="10.9295" height="6.07194" fill="#414168"/>
</svg>
