<svg width="150" height="150" viewBox="0 0 150 150" fill="none" xmlns="http://www.w3.org/2000/svg">
<path d="M51.3974 76H31C28.7909 76 27 77.7909 27 80V99C27 101.209 28.7909 103 31 103H77.5" stroke="#515873" stroke-linecap="round" stroke-linejoin="round"/>
<path d="M31.7462 95.8433C33.2118 92.9452 36.3328 90.9904 39.5352 90.9487C42.7377 90.9069 45.8958 92.8148 47.4111 95.6895" stroke="#515873" stroke-miterlimit="10" stroke-linecap="round" stroke-linejoin="round"/>
<path d="M39.6438 89.4321C41.5269 89.5149 43.1218 88.0283 43.2061 86.1118C43.2903 84.1952 41.832 82.5745 39.9488 82.4917C38.0657 82.4089 36.4708 83.8955 36.3865 85.812C36.3023 87.7286 37.7606 89.3493 39.6438 89.4321Z" stroke="#515873" stroke-miterlimit="10" stroke-linecap="round" stroke-linejoin="round"/>
<path d="M45 76V72C45 70.8954 45.8954 70 47 70H50" stroke="#515873"/>
<line x1="54.5" y1="89.5" x2="58.5" y2="89.5" stroke="#515873" stroke-linecap="round" stroke-linejoin="round"/>
<line x1="54.5" y1="95.5" x2="64.5" y2="95.5" stroke="#515873" stroke-linecap="round" stroke-linejoin="round"/>
<path d="M104.595 44.3363C105.403 44.3812 106.208 44.426 107.005 44.4809C107.143 44.4968 107.215 44.5912 107.221 44.6811C107.244 45.0321 107.269 45.3799 107.294 45.7256C107.359 46.6222 107.422 47.5043 107.454 48.3904C107.606 53.753 107.402 59.087 106.538 64.3636C105.434 71.0741 103.587 77.5116 100.326 83.5061L100.326 83.5062C96.4266 90.6765 90.9313 96.2724 83.6169 100.026L83.6164 100.027C82.2163 100.747 80.7437 101.301 79.2457 101.865C78.7115 102.066 78.174 102.268 77.6354 102.479L77.6354 102.479L77.6282 102.482C77.5674 102.507 77.4327 102.51 77.3251 102.465L77.3191 102.463C67.2808 98.4923 59.2777 92.2705 54.325 82.6744L54.324 82.6724C52.2003 78.6026 50.8467 74.2238 49.8793 69.7247C48.7935 64.6081 48.2324 59.4353 47.926 54.2012L47.926 54.2011C47.7914 51.9097 47.7008 49.6206 47.6098 47.3197C47.5742 46.4205 47.5386 45.5194 47.5002 44.6156C47.5034 44.5558 47.5512 44.5094 47.6092 44.5069C47.9944 44.4909 48.3796 44.4764 48.7645 44.4619C49.9736 44.4164 51.1786 44.371 52.365 44.2793C61.1703 43.6182 69.4978 41.328 77.0568 36.6506L77.0584 36.6496C77.2702 36.5174 77.3805 36.498 77.4507 36.5002C77.5286 36.5025 77.6438 36.5338 77.8645 36.6688C84.3515 40.6475 91.4379 42.9396 98.9606 43.8898C100.821 44.1264 102.718 44.2319 104.595 44.3363ZM47.4268 54.2304L47.4315 54.2301L47.4268 54.2304Z" stroke="#8D64FF"/>
<path d="M84.9861 65.3828H70.0139C68.8326 65.3828 67.875 66.614 67.875 68.1328V77.7578C67.875 79.2766 68.8326 80.5078 70.0139 80.5078H84.9861C86.1674 80.5078 87.125 79.2766 87.125 77.7578V68.1328C87.125 66.614 86.1674 65.3828 84.9861 65.3828Z" stroke="white" stroke-linecap="round" stroke-linejoin="round"/>
<path d="M70.625 65.3819V59.8819C70.6233 58.177 71.2551 56.5322 72.3979 55.267C73.5406 54.0017 75.1128 53.2062 76.8091 53.0348C78.5054 52.8635 80.2048 53.3285 81.5775 54.3397C82.9502 55.3509 83.8982 56.8361 84.2375 58.5069" stroke="white" stroke-linecap="round" stroke-linejoin="round"/>
</svg>
