<svg width="110" height="110" viewBox="0 0 110 110" fill="none" xmlns="http://www.w3.org/2000/svg">
<path d="M31 25.5H72C72.8284 25.5 73.5 26.1716 73.5 27V80C73.5 80.8284 72.8284 81.5 72 81.5H31C30.1716 81.5 29.5 80.8284 29.5 80V27C29.5 26.1716 30.1716 25.5 31 25.5Z" fill="white" stroke="#121242"/>
<path d="M35 33.5H68C68.8284 33.5 69.5 34.1716 69.5 35V46C69.5 46.8284 68.8284 47.5 68 47.5H35C34.1716 47.5 33.5 46.8284 33.5 46V35C33.5 34.1716 34.1716 33.5 35 33.5Z" fill="#E1D6FF" stroke="#121242"/>
<path d="M61.1241 61.1256C61.467 62.6658 61.7146 64.2061 61.848 65.7838C61.867 66.0844 62.0956 66.3473 62.4194 66.3473C62.7051 66.3473 63.0099 66.0844 62.9908 65.7838C62.8384 64.1121 62.5908 62.4592 62.2289 60.8251C62.1718 60.5245 61.8099 60.3555 61.5241 60.4306C61.2194 60.5245 61.067 60.8251 61.1241 61.1256Z" fill="#01015B"/>
<path d="M59.1239 63.9807C60.9334 63.9619 62.762 63.9432 64.5715 63.9244C65.3144 63.9244 65.3144 62.7974 64.5715 62.7974C62.762 62.8161 60.9334 62.8349 59.1239 62.8537C58.4001 62.8537 58.4001 63.9807 59.1239 63.9807Z" fill="#01015B"/>
<path d="M59.886 62.0835C61.067 63.3796 62.6289 64.0934 63.7527 65.427C63.9432 65.6711 64.3622 65.6336 64.5527 65.427C64.7813 65.2016 64.7432 64.8635 64.5527 64.6381C63.4289 63.2857 61.848 62.5531 60.686 61.2947C60.4765 61.0693 60.0956 61.088 59.886 61.2947C59.6575 61.52 59.6765 61.8581 59.886 62.0835Z" fill="#01015B"/>
<path d="M60.9141 65.4269C60.9521 65.3893 60.9902 65.3142 61.0855 65.2202C61.1426 65.1451 61.2188 65.07 61.276 65.0136C61.4283 64.8634 61.5807 64.7131 61.7331 64.5816C62.0569 64.2999 62.3998 64.0181 62.7426 63.7551C63.4474 63.1917 64.1141 62.6281 64.6474 61.8956C64.8188 61.6514 64.6855 61.2758 64.4379 61.1255C64.1522 60.9564 63.8283 61.0879 63.6569 61.3321C63.5617 61.4448 63.5807 61.4448 63.5045 61.5387C63.4474 61.6139 63.3712 61.689 63.3141 61.7453C63.1617 61.8956 63.0093 62.0459 62.8569 62.1961C62.5331 62.4967 62.1902 62.7596 61.8474 63.0414C61.1426 63.6049 60.4569 64.1684 59.9236 64.8821C59.7331 65.1263 59.8855 65.5208 60.1331 65.6523C60.4379 65.7837 60.7426 65.671 60.9141 65.4269Z" fill="#01015B"/>
<path d="M42.6083 76C46.1729 75.946 49.7375 75.9054 53.302 75.8514C54.3266 75.8379 55.3511 75.8244 56.3757 75.8108C57.2081 75.7973 57.2081 74.9867 56.3757 75.0002C52.8111 75.0542 49.2465 75.0947 45.682 75.1488C44.6574 75.1623 43.6329 75.1758 42.6083 75.1893C41.7972 75.1893 41.7972 76 42.6083 76Z" fill="#121242"/>
<path d="M39.6683 38.5884C39.9884 40.0265 40.2196 41.4647 40.3441 42.938C40.3619 43.2186 40.5753 43.4641 40.8777 43.4641C41.1445 43.4641 41.429 43.2186 41.4112 42.938C41.269 41.377 41.0378 39.8336 40.6998 38.3078C40.6465 38.0271 40.3086 37.8693 40.0418 37.9394C39.7572 38.0271 39.6149 38.3078 39.6683 38.5884Z" fill="#121242"/>
<path d="M37.8015 41.2544C39.4911 41.2368 41.1985 41.2193 42.8881 41.2017C43.5817 41.2017 43.5817 40.1494 42.8881 40.1494C41.1985 40.167 39.4911 40.1845 37.8015 40.202C37.1078 40.202 37.1078 41.2544 37.8015 41.2544Z" fill="#121242"/>
<path d="M38.5128 39.4829C39.6155 40.6931 41.074 41.3596 42.1233 42.6048C42.3011 42.8328 42.6924 42.7977 42.8703 42.6048C43.0837 42.3944 43.0481 42.0787 42.8703 41.8682C41.8209 40.6054 40.3447 39.9214 39.2598 38.7463C39.0642 38.5358 38.7085 38.5534 38.5128 38.7463C38.2994 38.9568 38.3172 39.2725 38.5128 39.4829Z" fill="#121242"/>
<path d="M39.4736 42.6046C39.5092 42.5695 39.5447 42.4993 39.6337 42.4116C39.687 42.3415 39.7582 42.2713 39.8115 42.2187C39.9538 42.0784 40.0961 41.9381 40.2384 41.8153C40.5407 41.5522 40.8609 41.2892 41.181 41.0436C41.8391 40.5175 42.4616 39.9913 42.9595 39.3073C43.1196 39.0793 42.9951 38.7285 42.7639 38.5882C42.4971 38.4304 42.1948 38.5531 42.0347 38.7811C41.9458 38.8864 41.9636 38.8864 41.8924 38.9741C41.8391 39.0442 41.7679 39.1144 41.7146 39.167C41.5723 39.3073 41.43 39.4476 41.2877 39.5879C40.9854 39.8685 40.6652 40.1141 40.3451 40.3771C39.687 40.9033 39.0467 41.4295 38.5488 42.0959C38.3709 42.3239 38.5132 42.6922 38.7444 42.815C39.0112 42.9378 39.2957 42.8326 39.4736 42.6046Z" fill="#121242"/>
<path d="M54.7414 38.7112C54.7948 40.3248 54.8837 41.9384 55.026 43.5344C55.0438 43.815 55.2572 44.0605 55.5596 44.0605C55.8263 44.0605 56.1109 43.815 56.0931 43.5344C55.9508 41.9208 55.8441 40.3248 55.8086 38.7112C55.7908 38.0272 54.7236 38.0272 54.7414 38.7112Z" fill="#121242"/>
<path d="M53.1236 39.7989C54.1907 41.0616 55.3646 42.2367 56.6451 43.3066C56.8585 43.4995 57.1787 43.517 57.3921 43.3066C57.5877 43.1137 57.6055 42.7453 57.3921 42.57C56.1293 41.5001 54.9555 40.325 53.8706 39.0622C53.6927 38.8518 53.3014 38.8693 53.1236 39.0622C52.9102 39.2727 52.9457 39.5709 53.1236 39.7989Z" fill="#121242"/>
<path d="M53.5499 43.5168C55.0794 42.2189 56.5201 40.8334 57.8718 39.3601C58.0674 39.1497 58.0852 38.8164 57.8718 38.6235C57.6761 38.4306 57.3026 38.413 57.1248 38.6235C55.7731 40.0968 54.3324 41.4998 52.8029 42.7802C52.5895 42.9731 52.6072 43.3414 52.8029 43.5168C53.0163 43.7272 53.3365 43.7097 53.5499 43.5168Z" fill="#121242"/>
<path d="M53.1058 41.64C54.6176 41.8154 56.1471 41.7979 57.6589 41.6049C57.9435 41.5699 58.1925 41.3945 58.1925 41.0788C58.1925 40.8157 57.9435 40.5176 57.6589 40.5526C56.1471 40.7456 54.6176 40.7631 53.1058 40.5877C52.8213 40.5526 52.5723 40.8508 52.5723 41.1139C52.5723 41.412 52.8213 41.6049 53.1058 41.64Z" fill="#121242"/>
<path d="M62.549 38.7112C62.6024 40.3248 62.6913 41.9384 62.8336 43.5344C62.8514 43.815 63.0648 44.0605 63.3672 44.0605C63.634 44.0605 63.9185 43.815 63.9007 43.5344C63.7585 41.9208 63.6517 40.3248 63.6162 38.7112C63.5984 38.0272 62.5313 38.0272 62.549 38.7112Z" fill="#121242"/>
<path d="M60.9312 39.7989C61.9983 41.0616 63.1722 42.2367 64.4527 43.3066C64.6662 43.4995 64.9863 43.517 65.1997 43.3066C65.3954 43.1137 65.4131 42.7453 65.1997 42.57C63.937 41.5001 62.7631 40.325 61.6782 39.0622C61.5003 38.8518 61.1091 38.8693 60.9312 39.0622C60.7178 39.2727 60.7534 39.5709 60.9312 39.7989Z" fill="#121242"/>
<path d="M61.3575 43.5168C62.887 42.2189 64.3277 40.8334 65.6794 39.3601C65.875 39.1497 65.8928 38.8164 65.6794 38.6235C65.4837 38.4306 65.1102 38.413 64.9324 38.6235C63.5807 40.0968 62.1401 41.4998 60.6105 42.7802C60.3971 42.9731 60.4149 43.3414 60.6105 43.5168C60.8239 43.7272 61.1441 43.7097 61.3575 43.5168Z" fill="#121242"/>
<path d="M60.9134 41.64C62.4252 41.8154 63.9548 41.7979 65.4665 41.6049C65.7511 41.5699 66.0001 41.3945 66.0001 41.0788C66.0001 40.8157 65.7511 40.5176 65.4665 40.5526C63.9548 40.7456 62.4252 40.7631 60.9134 40.5877C60.6289 40.5526 60.3799 40.8508 60.3799 41.1139C60.3799 41.412 60.6289 41.6049 60.9134 41.64Z" fill="#121242"/>
<path d="M61.1233 57.3617C61.1804 59.0897 61.2757 60.8178 61.428 62.5271C61.4471 62.8276 61.6757 63.0906 61.9995 63.0906C62.2852 63.0906 62.5899 62.8276 62.5709 62.5271C62.4185 60.799 62.3042 59.0897 62.2661 57.3617C62.2471 56.6291 61.1042 56.6291 61.1233 57.3617Z" fill="white"/>
<path d="M59.3899 58.5264C60.5327 59.8788 61.7899 61.1373 63.1613 62.2831C63.3899 62.4897 63.7328 62.5085 63.9613 62.2831C64.1708 62.0765 64.1899 61.682 63.9613 61.4942C62.6089 60.3484 61.3518 59.0899 60.1899 57.7375C59.9994 57.5121 59.5804 57.5309 59.3899 57.7375C59.1613 57.9629 59.1994 58.2822 59.3899 58.5264Z" fill="white"/>
<path d="M59.8472 62.5083C61.4853 61.1184 63.0281 59.6345 64.4757 58.0567C64.6853 57.8313 64.7043 57.4744 64.4757 57.2678C64.2662 57.0612 63.8662 57.0424 63.6757 57.2678C62.2281 58.8456 60.6853 60.3483 59.0472 61.7194C58.8186 61.9261 58.8377 62.3205 59.0472 62.5083C59.2757 62.7337 59.6186 62.7149 59.8472 62.5083Z" fill="white"/>
<path d="M59.3712 60.4984C60.9903 60.6862 62.6284 60.6674 64.2474 60.4608C64.5522 60.4233 64.8188 60.2354 64.8188 59.8973C64.8188 59.6156 64.5522 59.2963 64.2474 59.3338C62.6284 59.5405 60.9903 59.5592 59.3712 59.3714C59.0665 59.3338 58.7998 59.6532 58.7998 59.9349C58.7998 60.273 59.0665 60.4608 59.3712 60.4984Z" fill="white"/>
<path d="M47.0585 38.6233C47.1296 40.1667 47.1474 41.7101 47.1118 43.2535C47.094 43.9375 48.1612 43.9375 48.1789 43.2535C48.2145 41.7101 48.1967 40.1667 48.1256 38.6233C48.1078 38.3427 47.8944 38.0972 47.592 38.0972C47.3075 38.0972 47.0407 38.3427 47.0585 38.6233Z" fill="#121242"/>
<path d="M45.6719 41.1314C47.0236 41.1314 48.3575 41.1314 49.7092 41.149C50.4029 41.149 50.4029 40.0966 49.7092 40.0966C48.3575 40.0966 47.0236 40.0966 45.6719 40.0791C44.9961 40.0791 44.9961 41.1314 45.6719 41.1314Z" fill="#121242"/>
<path d="M45.4048 39.4126C46.4186 40.6403 47.628 41.7101 48.9441 42.6221C49.1754 42.78 49.5489 42.6748 49.6734 42.4292C49.8156 42.1661 49.7267 41.868 49.4777 41.7101C48.8374 41.2892 48.3039 40.8507 47.7347 40.3421C47.1656 39.8335 46.632 39.2723 46.1518 38.6759C45.974 38.4479 45.5827 38.483 45.4048 38.6759C45.1914 38.8864 45.227 39.1846 45.4048 39.4126Z" fill="#121242"/>
<path d="M46.7211 42.4818C46.7744 42.4117 46.81 42.324 46.8633 42.2538C46.8811 42.2188 46.9523 42.1486 46.8811 42.2188C46.9167 42.1837 46.9345 42.1486 46.9701 42.1135C47.0946 41.9732 47.2191 41.8504 47.3435 41.7277C47.6103 41.4821 47.8771 41.2366 48.1439 40.991C48.7308 40.4649 49.2288 39.9037 49.5312 39.1846C49.6379 38.9215 49.4245 38.5883 49.1577 38.5356C48.8553 38.4655 48.6063 38.6233 48.4996 38.9039C48.4462 39.0267 48.5352 38.8338 48.4818 38.939C48.464 38.9741 48.4463 39.0092 48.4285 39.0618C48.3929 39.132 48.3395 39.2196 48.304 39.2898C48.2506 39.36 48.1973 39.4301 48.1617 39.5003C48.1973 39.4476 48.1795 39.4827 48.1439 39.5178C48.1083 39.5529 48.0905 39.588 48.055 39.623C47.8238 39.8861 47.557 40.1317 47.308 40.3597C46.7566 40.8507 46.2053 41.3418 45.814 41.9732C45.6717 42.2012 45.7606 42.5695 46.0096 42.6923C46.2408 42.8151 46.561 42.7449 46.7211 42.4818Z" fill="#121242"/>
<path d="M90.6504 66.7688C90.6504 78.5087 80.9974 88.0377 69.0752 88.0377C57.1529 88.0377 47.5 78.5087 47.5 66.7688C47.5 55.029 57.1529 45.5 69.0752 45.5C80.9974 45.5 90.6504 55.029 90.6504 66.7688Z" fill="#A787FF" stroke="#121242"/>
<path d="M55.564 80.1456C56.5019 78.1246 57.874 76.3776 59.5587 74.9218C61.2261 73.5002 63.2061 72.387 65.2903 71.719C67.4266 71.0339 69.6845 70.8284 71.9076 71.1195C74.1481 71.4107 76.3365 72.1986 78.2818 73.3803C80.1923 74.545 81.8944 76.0865 83.1449 77.9362C83.3012 78.176 83.4576 78.3986 83.5965 78.6384C83.9439 79.2036 84.847 78.6898 84.4997 78.1246C83.2665 76.0865 81.5644 74.3395 79.5671 72.9864C77.6044 71.6505 75.3292 70.7085 72.9844 70.2632C70.6223 69.8179 68.1908 69.8864 65.8634 70.4858C63.5534 71.0853 61.3998 72.1643 59.524 73.603C57.6829 75.0246 56.1198 76.8229 55.0256 78.8611C54.8866 79.118 54.765 79.3749 54.6435 79.6318C54.5219 79.8887 54.574 80.1799 54.8345 80.334C55.0777 80.471 55.4424 80.4025 55.564 80.1456Z" fill="white"/>
<path d="M61.4524 61.1511C61.6087 57.9997 63.8145 55.1737 66.8887 54.2488C68.4518 53.7693 70.1018 53.8035 71.6476 54.3002C72.3945 54.54 73.1066 54.9168 73.7666 55.3964C74.305 55.7903 74.9476 56.424 75.3471 56.9378C77.3097 59.5583 77.4139 63.1208 75.5729 65.8098C74.7392 67.0429 73.4366 68.0706 72.0471 68.6187C70.5013 69.2181 68.834 69.338 67.2361 68.9269C65.6903 68.533 64.3529 67.7109 63.2934 66.5291C62.2861 65.3987 61.6087 63.8744 61.4524 62.4014C61.4524 61.9904 61.435 61.5793 61.4524 61.1511C61.4698 60.8771 61.2092 60.6373 60.9313 60.6373C60.6361 60.6373 60.4277 60.8771 60.4103 61.1511C60.3234 62.9324 60.8098 64.7308 61.7998 66.238C62.7724 67.7109 64.1792 68.8584 65.8292 69.5435C69.1987 70.9308 73.2455 70.0231 75.6945 67.3512C76.9102 66.0153 77.6744 64.354 77.9002 62.5727C78.126 60.7915 77.7613 58.9417 76.8755 57.366C76.0418 55.8588 74.7218 54.6085 73.176 53.8206C71.5087 52.9814 69.6503 52.7074 67.8092 52.9814C64.2487 53.5124 61.2961 56.3041 60.584 59.781C60.4971 60.2263 60.4277 60.6887 60.4103 61.1511C60.3929 61.4252 60.6534 61.665 60.9313 61.665C61.2266 61.665 61.4524 61.4252 61.4524 61.1511Z" fill="white"/>
</svg>
