<svg width="110" height="110" viewBox="0 0 110 110" fill="none" xmlns="http://www.w3.org/2000/svg">
<path d="M38.2061 77.046H66.5937H94.9814C94.9814 61.2494 82.2762 48.4517 66.5937 48.4517C50.9303 48.4517 38.2061 61.2494 38.2061 77.046Z" fill="white" stroke="#121242" stroke-width="1.5" stroke-linecap="round" stroke-linejoin="round"/>
<circle cx="66" cy="70" r="3" fill="#E1D6FF"/>
<path d="M63.8438 69.9214C63.8438 69.3483 64.0145 68.8708 64.3369 68.3933C64.3938 68.3169 64.3748 68.3551 64.4127 68.2787C64.4507 68.2214 64.5075 68.1641 64.5644 68.1259C64.6213 68.0686 64.6592 68.0304 64.7161 67.9731C64.7541 67.954 64.8678 67.8394 64.8299 67.8585C65.0385 67.6866 65.323 67.5337 65.5126 67.4764C65.797 67.3618 66.0246 67.3236 66.2901 67.3045C66.6314 67.2854 66.821 67.3236 67.1245 67.4C67.6365 67.5528 68.0726 67.8394 68.4329 68.2787C68.7363 68.6416 68.9639 69.2146 69.0018 69.6922C69.0397 70.2843 68.9259 70.8 68.6415 71.2776C68.0916 72.1944 66.9727 72.7101 65.9298 72.4809C64.7161 72.2326 63.8628 71.1821 63.8438 69.9214C63.8438 69.1764 62.7061 69.1764 62.7061 69.9214C62.725 71.5068 63.7111 72.9012 65.1902 73.4551C66.6314 73.9899 68.3381 73.5124 69.3052 72.3281C70.2913 71.1057 70.4619 69.3674 69.6465 67.9922C68.8311 66.636 67.2572 65.9483 65.7212 66.2349C63.9955 66.5596 62.744 68.1641 62.725 69.9214C62.7061 70.6663 63.8438 70.6663 63.8438 69.9214Z" fill="#121242"/>
<path d="M69.7419 69.6156C70.8417 69.3291 71.9226 69.0235 73.0225 68.737C74.7481 68.2785 76.4737 67.801 78.2183 67.3426C78.6165 67.228 79.0148 67.1325 79.432 67.0178C80.1336 66.8268 79.8302 65.719 79.1285 65.91C78.0287 66.1965 76.9478 66.5021 75.8479 66.7886C74.1223 67.2471 72.3967 67.7246 70.6521 68.183C70.2539 68.2976 69.8556 68.3931 69.4384 68.5077C68.7368 68.6988 69.0402 69.8066 69.7419 69.6156Z" fill="#121242"/>
<path d="M64.7734 52.591C64.7734 53.6798 64.7734 54.7877 64.7734 55.8764C64.7734 56.182 65.0389 56.4686 65.3423 56.4495C65.6457 56.4304 65.9112 56.2011 65.9112 55.8764C65.9112 54.7877 65.9112 53.6798 65.9112 52.591C65.9112 52.2854 65.6457 51.9989 65.3423 52.018C65.0389 52.018 64.7734 52.2663 64.7734 52.591Z" fill="#121242"/>
<path d="M91.6252 73.3786C90.203 73.5314 88.7808 73.6842 87.3775 73.8179C87.0741 73.8561 86.8086 74.0662 86.8086 74.3909C86.8086 74.6774 87.0741 75.0022 87.3775 74.964C88.7997 74.8111 90.2219 74.6583 91.6252 74.5246C91.9286 74.4864 92.1941 74.2763 92.1941 73.9516C92.1941 73.6651 91.9286 73.3404 91.6252 73.3786Z" fill="#121242"/>
<path d="M76.3651 58.9067C76.9719 57.9325 77.5788 56.9583 78.2045 56.0033C78.3752 55.755 78.2614 55.3539 77.9959 55.2201C77.7115 55.0673 77.3891 55.1628 77.2185 55.4303C76.5927 56.3853 75.9859 57.3595 75.379 58.3336C75.2273 58.5819 75.3222 58.9831 75.5876 59.1168C75.8531 59.2505 76.1945 59.1741 76.3651 58.9067Z" fill="#121242"/>
<path d="M83.9065 65.2798C84.4185 65.0123 84.9495 64.764 85.4804 64.5157C86.0304 64.2674 86.4476 64.0955 87.0164 63.8663C87.3009 63.7517 87.5095 63.4843 87.4147 63.1595C87.3199 62.8921 87.0164 62.6438 86.713 62.7584C85.5563 63.2168 84.4375 63.7326 83.3376 64.2865C83.0722 64.4202 82.9773 64.8213 83.129 65.0696C83.2997 65.3562 83.6221 65.4326 83.9065 65.2798Z" fill="#121242"/>
<path d="M16.4736 36.4372C17.7821 36.3799 19.0526 36.3608 20.3231 36.2653C26.6378 35.7687 32.5922 34.1069 37.9967 30.6878C38.357 30.4586 38.6035 30.4777 38.9638 30.6878C43.6097 33.5911 48.6729 35.272 54.0773 35.9788C55.9926 36.2271 57.9458 36.2653 59.88 36.4181C60.0128 36.4181 60.1265 36.4372 60.3351 36.4372C60.411 37.5069 60.5058 38.5765 60.5248 39.6653C60.6385 43.6383 60.4868 47.6114 59.8611 51.5462C59.0646 56.5316 57.7182 61.326 55.3289 65.8147C52.4844 71.1631 48.4643 75.3653 43.0977 78.1732C41.7134 78.899 40.1964 79.4147 38.7362 80.0069C38.6035 80.0642 38.3949 80.0642 38.2432 80.0069C30.9235 77.0462 25.0639 72.4046 21.423 65.2035C19.868 62.1473 18.8819 58.881 18.1803 55.5192C17.3839 51.7181 16.9856 47.8597 16.7581 44.0013C16.6443 41.6136 16.5684 39.2451 16.4736 36.8765C16.4736 36.7237 16.4736 36.5709 16.4736 36.4372Z" fill="#A787FF"/>
<path d="M30.3738 55.2708C31.8908 57.6393 33.4079 60.0079 34.9439 62.3573C35.1525 62.682 35.7403 62.7775 35.93 62.3573C37.0298 59.7595 38.3762 57.2573 39.9312 54.927C41.4672 52.6157 43.2307 50.4382 45.1839 48.4517C46.3027 47.3056 47.4784 46.2359 48.6921 45.2236C48.9386 45.0326 48.9007 44.6123 48.6921 44.4213C48.4645 44.1921 48.1232 44.2303 47.8956 44.4213C45.7149 46.2168 43.7048 48.2225 41.9033 50.4C40.0829 52.5966 38.452 54.9652 37.0677 57.4483C36.2903 58.8618 35.5886 60.2944 34.9628 61.7843C35.2852 61.7843 35.6266 61.7843 35.9489 61.7843C34.394 59.4157 32.8769 57.0663 31.3599 54.6977C31.1892 54.4303 30.8479 54.3348 30.5824 54.4876C30.3169 54.6404 30.2031 55.0225 30.3738 55.2708Z" fill="white" stroke="white" stroke-width="0.5" stroke-linecap="round" stroke-linejoin="round"/>
<path d="M17.9154 36.0944C23.6422 36.6101 29.3691 35.5022 34.6408 33.2292C36.1199 32.5989 37.5421 31.873 38.9264 31.0708C38.6989 31.0326 38.4713 31.0135 38.2437 30.9753C39.647 32.6944 41.714 33.8595 43.7051 34.7C45.1842 35.3303 46.6823 35.6741 48.2562 35.9225C51.461 36.4382 54.7037 36.7629 57.9274 37.0685C58.7428 37.1449 59.5392 37.2213 60.3546 37.2786C60.165 37.0876 59.9754 36.8966 59.7858 36.7056C59.7668 39.1887 59.672 41.6528 59.5772 44.1359C59.5013 46.218 59.4065 48.3 59.3306 50.382C59.2548 52.1202 59.0841 53.8202 58.7238 55.5202C57.9843 58.9584 56.6948 62.2629 54.9312 65.3C54.0968 66.7326 53.1677 68.1078 52.0868 69.3876C50.9679 70.7247 49.7164 71.9472 48.4269 73.0741C45.81 75.3663 42.9276 77.3528 40.0263 79.2629C39.666 79.4921 39.3246 79.7213 38.9643 79.9505C39.154 79.9505 39.3436 79.9505 39.5332 79.9505C36.6888 78.6708 34.0529 76.9326 31.7205 74.8887C29.3691 72.8258 27.3021 70.4573 25.5196 67.8786C23.6612 65.1663 22.1252 62.2438 20.9495 59.1876C19.6031 55.7303 18.6739 52.1393 18.0481 48.491C17.4603 44.8236 17.1758 41.0989 17.1379 37.3932C17.1379 36.9348 17.1379 36.4764 17.1379 36.0371C17.1379 35.2921 16.0001 35.2921 16.0001 36.0371C15.9811 39.8764 16.2087 43.7348 16.7776 47.5359C17.3465 51.318 18.2378 55.0618 19.5462 58.6528C20.7409 61.9 22.2579 65.0135 24.1732 67.8786C25.9747 70.6101 28.0985 73.1314 30.5068 75.309C32.9151 77.4865 35.6079 79.3393 38.5282 80.7337C38.7178 80.8292 38.9264 80.9438 39.116 81.0011C39.4195 81.0966 39.6849 80.8674 39.9315 80.6955C40.2918 80.4663 40.6331 80.2371 40.9934 80.0078C41.7329 79.5112 42.4725 79.0337 43.1931 78.518C44.6722 77.5056 46.1134 76.455 47.4977 75.3472C50.2094 73.1696 52.7315 70.7247 54.7037 67.8404C56.6758 64.9371 58.1929 61.6708 59.1979 58.2899C59.7099 56.5899 60.0702 54.8326 60.2978 53.0753C60.5253 51.146 60.5253 49.1977 60.6012 47.2685C60.7339 44.0404 60.8856 40.8123 60.9235 37.5651C60.9235 37.2786 60.9235 36.9921 60.9425 36.7056C60.9425 36.3809 60.677 36.1517 60.3736 36.1326C58.2497 35.9607 56.1449 35.7505 54.04 35.5213C53.1866 35.4258 52.3522 35.3303 51.4989 35.2348C51.0817 35.1775 50.6456 35.1202 50.2284 35.0629C50.3232 35.082 50.0767 35.0438 50.0388 35.0438C49.9439 35.0247 49.8491 35.0247 49.7543 35.0056C49.5647 34.9865 49.3561 34.9483 49.1665 34.9292C47.7253 34.7191 46.303 34.4708 44.9377 33.9741C43.7999 33.573 42.719 33.0382 41.695 32.4078C40.7089 31.7966 39.7798 31.0899 39.0402 30.173C38.8885 29.982 38.5472 29.9629 38.3575 30.0775C33.5788 32.8281 28.2692 34.6809 22.732 35.0247C21.1201 35.1202 19.5272 35.1011 17.9154 34.9483C17.612 34.9292 17.3465 35.2348 17.3465 35.5213C17.3465 35.8651 17.612 36.0753 17.9154 36.0944Z" fill="#121242" stroke="#121242" stroke-width="0.5"/>
</svg>
