<svg width="150" height="150" viewBox="0 0 150 150" fill="none" xmlns="http://www.w3.org/2000/svg">
<path d="M79.4986 68.7818C81.9559 68.2664 84.5034 67.9969 87.1143 68C107.491 68 124 84.5598 124 105H87.1143H62" stroke="#515873"/>
<line x1="87.5" y1="72.5" x2="87.5" y2="77.5" stroke="#515873" stroke-linecap="round" stroke-linejoin="round"/>
<line x1="114.5" y1="98.5" x2="109.5" y2="98.5" stroke="#515873" stroke-linecap="round" stroke-linejoin="round"/>
<line x1="110.944" y1="85.688" x2="106.688" y2="88.3123" stroke="#515873" stroke-linecap="round" stroke-linejoin="round"/>
<line x1="100.788" y1="77.6733" x2="98.6733" y2="81.7841" stroke="#515873" stroke-linecap="round" stroke-linejoin="round"/>
<circle cx="87" cy="95" r="4" stroke="#515873"/>
<line x1="91.5" y1="94.5" x2="101.5" y2="94.5" stroke="#515873" stroke-linecap="round" stroke-linejoin="round"/>
<path d="M28.9511 54.0349L28.9529 54.0347C37.023 53.3775 44.6542 51.176 51.5868 46.6346L51.5879 46.6339C51.7687 46.5148 51.8621 46.4991 51.9176 46.5C51.9801 46.5011 52.0804 46.5245 52.2738 46.6405C58.2284 50.4921 64.7147 52.7198 71.6274 53.6558L71.628 53.6559C73.2153 53.869 74.842 53.9667 76.4474 54.0631C77.3103 54.115 78.1671 54.1664 79.0084 54.2353L79.0288 54.2369H79.0492C79.0845 54.2369 79.1181 54.2384 79.1583 54.2408C79.1676 54.3722 79.177 54.5033 79.1864 54.6342C79.2674 55.7608 79.3474 56.8748 79.3664 58.007L79.3666 58.0124C79.5102 63.2057 79.3183 68.3885 78.531 73.5151C77.527 80.0224 75.8329 86.2593 72.8361 92.089L72.836 92.0891C69.2716 99.0288 64.2439 104.465 57.5401 108.097L57.5397 108.098C56.2924 108.775 54.9697 109.305 53.6192 109.846C53.1015 110.054 52.5798 110.263 52.0566 110.483L52.0566 110.482L52.0462 110.487C52.0449 110.488 52.0362 110.491 52.0188 110.494C51.9994 110.498 51.9748 110.5 51.9468 110.5C51.8896 110.5 51.8406 110.49 51.8113 110.479C42.6281 106.632 35.3067 100.617 30.7556 91.296L30.7551 91.2949C28.8096 87.3355 27.5709 83.0942 26.687 78.7091C25.7312 73.7238 25.2045 68.6839 24.917 63.6364C24.7911 61.3099 24.7057 58.985 24.6201 56.655C24.5917 55.8803 24.5632 55.105 24.5332 54.3289V54.328V54.3268V54.3256V54.3245V54.3233V54.3221V54.3209V54.3198V54.3186V54.3174V54.3162V54.3151V54.3139V54.3127V54.3115V54.3104V54.3092V54.308V54.3068V54.3057V54.3045V54.3033V54.3021V54.301V54.2998V54.2986V54.2974V54.2963V54.2951V54.2939V54.2927V54.2916V54.2904V54.2892V54.288V54.2869V54.2857V54.2845V54.2834V54.2822V54.281V54.2798V54.2787V54.2775V54.2763V54.2751V54.274V54.2728V54.2716V54.2704V54.2693V54.2681V54.2669V54.2658V54.2646V54.2634V54.2622V54.2611V54.2599V54.2587V54.2575V54.2564V54.2552V54.254V54.2529V54.2517V54.2505V54.2493V54.2482V54.247V54.2458V54.2447V54.2435V54.2423V54.2411V54.241C24.9036 54.226 25.2739 54.2128 25.6438 54.1995C26.7507 54.1598 27.8548 54.1202 28.9511 54.0349Z" stroke="#8D64FF"/>
<path d="M41.1406 78.5577C43.4238 82.1593 45.707 85.7609 48.0187 89.3335C52.2711 79.1676 58.978 70.1054 67.3687 63.1055" stroke="white" stroke-miterlimit="10" stroke-linecap="round" stroke-linejoin="round"/>
</svg>
