<svg width="150" height="150" viewBox="0 0 150 150" fill="none" xmlns="http://www.w3.org/2000/svg">
<path d="M81.7984 120.798C80.8052 121.791 80.8049 123.401 81.7976 124.394C82.7902 125.386 84.4001 125.386 85.3932 124.393C86.3863 123.4 86.3867 121.79 85.394 120.797C84.4013 119.805 82.7915 119.805 81.7984 120.798Z" fill="#F685A1"/>
<path d="M138.241 85.308C137.394 84.4614 137.394 83.0882 138.242 82.2409C139.089 81.3936 140.462 81.3935 141.309 82.2401C142.155 83.0866 142.155 84.4598 141.308 85.3071C140.46 86.1545 139.087 86.1545 138.241 85.308Z" stroke="#414168"/>
<path d="M43.4138 17.8051C42.4689 16.8602 42.4674 15.3368 43.4017 14.4025C44.336 13.4681 45.8594 13.4696 46.8043 14.4145C47.7492 15.3594 47.7507 16.8828 46.8164 17.8171C45.882 18.7514 44.3586 18.7499 43.4138 17.8051Z" stroke="#414168"/>
<path d="M4.72832 75.7521C4.16283 75.1866 4.16314 74.2766 4.72029 73.7194C5.27744 73.1623 6.1875 73.1619 6.75299 73.7274C7.31848 74.2929 7.31817 75.203 6.76103 75.7601C6.20388 76.3173 5.29381 76.3176 4.72832 75.7521Z" stroke="#414168"/>
<path d="M131.635 61.6865L135.67 60.0496L134.035 55.9999L129.999 57.6368L131.635 61.6865Z" fill="#31C587"/>
<path d="M12.0008 117.696L15.6445 124.165L22.1314 120.468L18.4876 114L12.0008 117.696Z" fill="#144BC1"/>
<path d="M72.2315 30.1341L66.8063 35.0786L65.2009 27.9181L72.2315 30.1341Z" fill="#FFBD70"/>
<line y1="-0.5" x2="9.40838" y2="-0.5" transform="matrix(-0.63737 0.770558 -0.770557 -0.637371 95.9961 33)" stroke="#414168"/>
<line y1="-0.5" x2="9.40838" y2="-0.5" transform="matrix(-0.998728 0.0504256 -0.0504242 -0.998728 13.6953 89.3877)" stroke="#414168"/>
<line x1="31.6679" y1="63.7846" x2="39.0283" y2="72.6474" stroke="#414168"/>
<line x1="47.0525" y1="127.736" x2="42.827" y2="135.656" stroke="#414168"/>
<line y1="-0.5" x2="9.40838" y2="-0.5" transform="matrix(-0.566115 0.824326 -0.824325 -0.566116 107.326 56)" stroke="#414168"/>
<path d="M119.97 129.21L114.115 126.01L119.815 122.571L119.97 129.21Z" stroke="#414168"/>
<path d="M51.4004 105.298H86.1811H120.962C120.962 85.769 105.395 69.9473 86.1811 69.9473C66.9669 69.9237 51.4004 85.769 51.4004 105.298Z" fill="#41CADD"/>
<path d="M89.707 94.9612L101.922 91.614" stroke="white" stroke-miterlimit="10" stroke-linecap="round" stroke-linejoin="round"/>
<path d="M84.3438 73.3684C84.3438 74.7713 84.3438 76.1988 84.3438 77.6017" stroke="white" stroke-miterlimit="10" stroke-linecap="round" stroke-linejoin="round"/>
<path d="M116.062 100.737C114.266 100.934 112.47 101.131 110.697 101.303" stroke="white" stroke-miterlimit="10" stroke-linecap="round" stroke-linejoin="round"/>
<path d="M98.9043 81.2854C99.6707 80.0302 100.437 78.775 101.227 77.5444" stroke="white" stroke-miterlimit="10" stroke-linecap="round" stroke-linejoin="round"/>
<path d="M107.432 90.5392C108.773 89.85 110.138 89.2101 111.527 88.644" stroke="white" stroke-miterlimit="10" stroke-linecap="round" stroke-linejoin="round"/>
<path d="M84.4172 92.5493C82.2137 93.6076 81.591 97.0533 83.2675 98.8746C85.3752 101.163 89.9497 99.2684 89.9018 96.118C89.83 92.9677 85.1117 91.2941 83.2196 93.7799" stroke="white" stroke-miterlimit="10" stroke-linecap="round" stroke-linejoin="round"/>
<path d="M24.0332 53.762C25.6916 53.6868 27.302 53.6617 28.9123 53.5364C36.9159 52.8846 44.4629 50.7036 51.3129 46.2163C51.7695 45.9155 52.082 45.9406 52.5386 46.2163C58.4272 50.0268 64.8445 52.2328 71.6945 53.1603C74.122 53.4862 76.5976 53.5364 79.0492 53.7369C79.2174 53.7369 79.3616 53.762 79.626 53.762C79.7222 55.1658 79.8423 56.5697 79.8664 57.9986C80.0106 63.2129 79.8183 68.4271 79.0251 73.5913C78.0157 80.1342 76.3092 86.4264 73.2808 92.3176C69.6756 99.3368 64.5801 104.852 57.7783 108.537C56.0237 109.49 54.1009 110.166 52.2502 110.944C52.082 111.019 51.8176 111.019 51.6253 110.944C42.3478 107.058 34.921 100.966 30.3063 91.5154C28.3355 87.5044 27.0856 83.2177 26.1963 78.8056C25.2349 73.7918 24.7062 68.728 24.4178 63.6641C24.2495 60.5556 24.1534 57.4471 24.0332 54.3386C24.0332 54.138 24.0332 53.9375 24.0332 53.762Z" fill="#A787FF"/>
<path d="M41.1406 78.5574C43.4238 82.1591 45.707 85.7607 48.0187 89.3333C52.2711 79.1674 58.978 70.1052 67.3687 63.1052" stroke="white" stroke-miterlimit="10" stroke-linecap="round" stroke-linejoin="round"/>
<path d="M100.999 46.792C104.849 41.2514 108.818 35.819 112.914 30.4674C114.966 33.3016 117.305 35.9635 119.864 38.3552C124.241 32.1202 128.312 25.7133 132.078 19.1344" stroke="#414168" stroke-miterlimit="10" stroke-linecap="round" stroke-linejoin="round"/>
<path d="M126.88 19.1921C129.996 16.6067 133.43 14.4229 137.094 12.6524C136.344 15.5476 136.302 21.0195 135.285 23.8354" stroke="#414168" stroke-miterlimit="10" stroke-linecap="round" stroke-linejoin="round"/>
<line x1="18.3404" y1="24.6338" x2="24.9158" y2="30.7457" stroke="#414168"/>
</svg>
