<svg width="150" height="150" viewBox="0 0 150 150" fill="none" xmlns="http://www.w3.org/2000/svg">
<path fill-rule="evenodd" clip-rule="evenodd" d="M75.2441 81.0176C78.834 81.0176 81.7441 78.1074 81.7441 74.5176L93.2754 74.5176V73.5176L81.6677 73.5176C81.1867 70.4025 78.4939 68.0176 75.2441 68.0176C71.9944 68.0176 69.3016 70.4025 68.8206 73.5176L56.1055 73.5176V74.5176H68.7441C68.7441 78.1074 71.6543 81.0176 75.2441 81.0176ZM80.4441 74.5176C80.4441 77.3895 78.116 79.7176 75.2441 79.7176C72.3723 79.7176 70.0441 77.3895 70.0441 74.5176C70.0441 71.6457 72.3723 69.3176 75.2441 69.3176C78.116 69.3176 80.4441 71.6457 80.4441 74.5176Z" fill="white"/>
<circle cx="118.277" cy="74.5176" r="25" stroke="white"/>
<circle cx="31.1055" cy="74.5176" r="25" stroke="#8D64FF"/>
</svg>
