<svg width="150" height="150" viewBox="0 0 150 150" fill="none" xmlns="http://www.w3.org/2000/svg">
<path fill-rule="evenodd" clip-rule="evenodd" d="M75.2441 81.0176C78.834 81.0176 81.7441 78.1074 81.7441 74.5176L93.2754 74.5176V73.5176L81.6677 73.5176C81.1867 70.4025 78.4939 68.0176 75.2441 68.0176C71.9944 68.0176 69.3016 70.4025 68.8206 73.5176L56.1055 73.5176V74.5176H68.7441C68.7441 78.1074 71.6543 81.0176 75.2441 81.0176ZM80.4441 74.5176C80.4441 77.3895 78.116 79.7176 75.2441 79.7176C72.3723 79.7176 70.0441 77.3895 70.0441 74.5176C70.0441 71.6457 72.3723 69.3176 75.2441 69.3176C78.116 69.3176 80.4441 71.6457 80.4441 74.5176Z" fill="white"/>
<circle cx="118.277" cy="74.5176" r="25" stroke="white"/>
<circle cx="31.1055" cy="74.5176" r="25" stroke="#8D64FF"/>
<path d="M123.333 88.3326V83.1726C123.383 82.5368 123.297 81.8977 123.081 81.2977C122.865 80.6976 122.523 80.1505 122.079 79.6926C126.266 79.2259 130.666 77.6393 130.666 70.3593C130.666 68.4977 129.95 66.7075 128.666 65.3593C129.274 63.7306 129.231 61.9304 128.546 60.3326C128.546 60.3326 126.973 59.8659 123.333 62.3059C120.277 61.4777 117.055 61.4777 113.999 62.3059C110.359 59.8659 108.786 60.3326 108.786 60.3326C108.101 61.9304 108.058 63.7306 108.666 65.3593C107.373 66.7175 106.656 68.5239 106.666 70.3993C106.666 77.6259 111.066 79.2126 115.253 79.7326C114.814 80.1859 114.476 80.7265 114.26 81.3192C114.044 81.9118 113.955 82.5434 113.999 83.1726V88.3326M113.999 84.3326C107.333 86.3326 107.333 80.9993 104.666 80.3326L113.999 84.3326Z" stroke="white" stroke-linecap="round" stroke-linejoin="round"/>
</svg>
