<svg width="150" height="150" viewBox="0 0 150 150" fill="none" xmlns="http://www.w3.org/2000/svg">
<path fill-rule="evenodd" clip-rule="evenodd" d="M75 80C77.7614 80 80 77.7614 80 75L91 75V74L79.9 74C79.4367 71.7178 77.419 70 75 70C72.581 70 70.5633 71.7178 70.1 74L58 74V75H70C70 77.7614 72.2386 80 75 80ZM71 75C71 72.7909 72.7909 71 75 71C77.2091 71 79 72.7909 79 75C79 77.2091 77.2091 79 75 79C72.7909 79 71 77.2091 71 75Z" fill="white"/>
<circle cx="113" cy="75" r="22" stroke="#8D64FF"/>
<path fill-rule="evenodd" clip-rule="evenodd" d="M102.539 74.5153C102.539 68.6757 107.238 63.9551 113.052 63.9551C118.847 63.9551 123.564 68.6757 123.547 74.5153C123.547 79.1835 120.536 83.1349 116.359 84.5336C115.836 84.6385 115.645 84.3063 115.645 84.0266C115.645 83.9105 115.647 83.7077 115.649 83.4368C115.655 82.8916 115.662 82.0703 115.662 81.1243C115.662 80.1277 115.332 79.4983 114.949 79.1661C117.298 78.9038 119.753 78.0121 119.753 73.9559C119.753 72.8019 119.352 71.8578 118.673 71.1235C118.778 70.8612 119.143 69.7772 118.569 68.3261C118.569 68.3261 117.681 68.0463 115.68 69.4101C114.844 69.1828 113.939 69.0604 113.052 69.0604C112.164 69.0604 111.259 69.1828 110.423 69.4101C108.422 68.0463 107.534 68.3261 107.534 68.3261C106.96 69.7772 107.325 70.8612 107.43 71.1235C106.768 71.8578 106.351 72.8019 106.351 73.9559C106.351 78.0121 108.805 78.9213 111.137 79.1661C110.841 79.4283 110.563 79.9004 110.476 80.5823C109.867 80.862 108.352 81.3166 107.412 79.7081C107.412 79.7081 106.855 78.694 105.794 78.6241C105.794 78.6241 104.767 78.6241 105.724 79.271C105.724 79.271 106.42 79.5857 106.89 80.8096C106.89 80.8096 107.499 82.6978 110.423 82.0684C110.423 82.6401 110.431 83.1968 110.436 83.5821V83.5821C110.439 83.786 110.441 83.9419 110.441 84.0266C110.441 84.3063 110.249 84.6385 109.727 84.5336C105.55 83.1349 102.539 79.1835 102.539 74.5153ZM106.351 79.1486C106.421 79.1836 106.508 79.1661 106.525 79.1137C106.542 79.0612 106.508 78.9913 106.438 78.9563C106.368 78.9213 106.281 78.9388 106.264 78.9913C106.229 79.0437 106.281 79.1137 106.351 79.1486ZM106.942 79.5856C106.89 79.6381 106.786 79.6031 106.734 79.5332C106.664 79.4633 106.647 79.3583 106.699 79.3059C106.751 79.2534 106.838 79.2884 106.908 79.3583C106.977 79.4458 106.995 79.5507 106.942 79.5856ZM107.134 80.1102C107.186 80.1976 107.291 80.2501 107.361 80.1976C107.43 80.1451 107.43 80.0402 107.361 79.9528C107.308 79.8654 107.204 79.813 107.134 79.8654C107.065 79.9004 107.065 80.0228 107.134 80.1102ZM107.935 80.7922C107.882 80.8621 107.761 80.8446 107.656 80.7572C107.569 80.6698 107.534 80.5474 107.604 80.4949C107.656 80.425 107.778 80.4425 107.882 80.5299C107.969 80.5998 107.987 80.7222 107.935 80.7922ZM108.457 81.2116C108.579 81.2466 108.701 81.2116 108.718 81.1242C108.735 81.0368 108.666 80.9494 108.544 80.9144C108.422 80.8794 108.3 80.9144 108.283 81.0018C108.266 81.0718 108.335 81.1767 108.457 81.2116ZM109.571 81.1942C109.571 81.2816 109.466 81.3516 109.344 81.3516C109.223 81.3516 109.118 81.2816 109.118 81.1942C109.118 81.1068 109.223 81.0369 109.344 81.0369C109.466 81.0369 109.571 81.1068 109.571 81.1942ZM110.18 81.2467C110.302 81.2292 110.389 81.1417 110.371 81.0543C110.354 80.9669 110.25 80.9145 110.128 80.9319C110.006 80.9494 109.919 81.0368 109.936 81.1243C109.954 81.2117 110.058 81.2641 110.18 81.2467Z" fill="#A3A8B8"/>
<circle cx="36" cy="75" r="22" stroke="#8D64FF"/>
<path d="M25.3438 74.3492C25.3438 79.4422 29.1399 83.6048 34.0311 84.1925V64.5059C29.1399 65.0935 25.3438 69.2806 25.3438 74.3492Z" fill="#A3A8B8"/>
<path d="M45.0553 74.3492C45.0553 69.2561 41.2104 65.0445 36.2949 64.5059V84.217H45.0553V74.643C45.0553 74.5451 45.0553 74.4471 45.0553 74.3492Z" fill="#A3A8B8"/>
</svg>
