<svg width="110" height="110" viewBox="0 0 110 110" fill="none" xmlns="http://www.w3.org/2000/svg">
<path d="M79.4199 84.8549H39.8601C39.7183 84.8549 39.585 84.7424 39.585 84.557V43.9834C39.585 43.798 39.7183 43.6855 39.8601 43.6855H79.4199C79.5616 43.6855 79.695 43.798 79.695 43.9834V84.557C79.695 84.7424 79.5616 84.8549 79.4199 84.8549Z" fill="#E1D6FF" stroke="#121242" stroke-width="1.5"/>
<path d="M59.8753 66.7299C60.5307 69.6502 60.934 72.6391 61.0853 75.628C61.1021 75.9028 61.3037 76.1433 61.5894 76.1433C61.8583 76.1433 62.1104 75.9028 62.0936 75.628C61.9423 72.536 61.5222 69.4612 60.85 66.4551C60.7828 66.1803 60.4803 66.0257 60.2282 66.0944C59.9593 66.1631 59.8081 66.4551 59.8753 66.7299Z" fill="#121242" stroke="#121242" stroke-width="0.5"/>
<path d="M67.638 42.9515C67.5876 41.0619 67.5372 39.1552 67.4867 37.2657C67.4363 35.4448 67.4195 33.6068 67.2683 31.8032C66.9994 28.5566 66.26 25.2928 64.2769 22.6646C63.403 21.4966 62.2771 20.5003 60.9831 19.8647C59.7059 19.2463 58.2942 18.9543 56.8826 19.0058C54.0089 19.0917 51.2528 20.4659 49.421 22.7334C47.5724 25.0523 46.6481 28.0584 46.7153 31.0473C46.7321 31.4081 46.7489 31.7688 46.7826 32.1295C46.8162 32.4044 47.001 32.6449 47.2867 32.6449C47.5388 32.6449 47.8245 32.4044 47.7909 32.1295C47.4884 29.3639 48.0766 26.5124 49.589 24.1935C51.0511 21.9604 53.4207 20.4316 55.9919 20.1052C57.3027 19.9334 58.5799 20.0536 59.8235 20.5003C61.0503 20.9469 62.1426 21.7542 63.0165 22.7505C64.9827 24.9836 65.8398 27.9897 66.1591 30.9271C66.344 32.662 66.3944 34.397 66.428 36.1319C66.4784 37.9528 66.5288 39.7736 66.5793 41.6116C66.5961 42.0754 66.5961 42.522 66.6129 42.9858C66.6465 43.6214 67.6548 43.6214 67.638 42.9515Z" fill="#121242" stroke="#121242" stroke-width="0.5"/>
<path d="M60.7762 67.1996C61.8875 67.7112 63.2073 67.2377 64.1817 66.467C66.3008 64.79 67.2291 61.7536 66.5246 59.1246C65.7927 56.503 63.478 54.3654 60.8294 53.8461C58.1808 53.3268 55.3009 54.3682 53.5496 56.4262C52.7378 57.3631 52.1662 58.5355 52.0253 59.7723C51.8262 61.894 52.9616 63.9278 54.3452 65.5655C55.2108 66.5925 56.2067 67.5547 57.4357 68.0647C58.6647 68.5747 60.1669 68.5619 61.224 67.7691" fill="white"/>
<path d="M60.7762 67.1996C61.8875 67.7112 63.2073 67.2377 64.1817 66.467C66.3008 64.79 67.2291 61.7536 66.5246 59.1246C65.7927 56.503 63.478 54.3654 60.8294 53.8461C58.1808 53.3268 55.3009 54.3682 53.5496 56.4262C52.7378 57.3631 52.1662 58.5355 52.0253 59.7723C51.8262 61.894 52.9616 63.9278 54.3452 65.5655C55.2108 66.5925 56.2067 67.5547 57.4357 68.0647C58.6647 68.5747 60.1669 68.5619 61.224 67.7691" stroke="#121242" stroke-width="1.5" stroke-linecap="round" stroke-linejoin="round"/>
<path d="M48.2497 48.4301C48.2497 56.2174 41.5837 62.5968 33.2767 62.5968C24.9696 62.5968 18.3037 56.2174 18.3037 48.4301C18.3037 40.6428 24.9696 34.2634 33.2767 34.2634C41.5837 34.2634 48.2497 40.6428 48.2497 48.4301Z" fill="#A787FF" stroke="#121242" stroke-width="1.5"/>
<path d="M28 49.0785C29.0448 50.719 30.0896 52.3595 31.1343 54C33.0746 49.3519 36.1493 45.1899 40 42" stroke="white" stroke-width="1.5" stroke-miterlimit="10" stroke-linecap="round" stroke-linejoin="round"/>
</svg>
