<svg width="150" height="150" viewBox="0 0 150 150" fill="none" xmlns="http://www.w3.org/2000/svg">
<circle cx="74.166" cy="111.832" r="24.5" transform="rotate(-180 74.166 111.832)" stroke="#7950ED"/>
<circle cx="73.3184" cy="26.5176" r="14.5" transform="rotate(-180 73.3184 26.5176)" stroke="white"/>
<circle cx="132.072" cy="51.3125" r="14.5" transform="rotate(-180 132.072 51.3125)" stroke="white"/>
<circle cx="16.6914" cy="51.3125" r="14.5" transform="rotate(-180 16.6914 51.3125)" stroke="white"/>
<path fill-rule="evenodd" clip-rule="evenodd" d="M72.8184 54.877L72.8183 41.5176L73.8183 41.5176L73.8184 54.877C77.451 55.1333 80.3184 58.1615 80.3184 61.8594C80.3184 65.7254 77.1843 68.8594 73.3184 68.8594C69.4524 68.8594 66.3184 65.7254 66.3184 61.8594C66.3184 58.1615 69.1857 55.1333 72.8184 54.877ZM73.3184 55.8594C76.6321 55.8594 79.3184 58.5457 79.3184 61.8594C79.3184 65.1731 76.6321 67.8594 73.3184 67.8594C70.0046 67.8594 67.3184 65.1731 67.3184 61.8594C67.3184 58.5457 70.0046 55.8594 73.3184 55.8594Z" fill="white"/>
<path fill-rule="evenodd" clip-rule="evenodd" d="M36.4537 71.5545L27.0072 62.108L27.7143 61.4009L37.1609 70.8474C39.9108 68.46 44.0796 68.5737 46.6944 71.1885C49.428 73.9222 49.428 78.3543 46.6944 81.088C43.9607 83.8217 39.5285 83.8217 36.7949 81.088C34.1801 78.4732 34.0664 74.3044 36.4537 71.5545ZM37.502 71.8956C39.8451 69.5525 43.6441 69.5525 45.9873 71.8956C48.3304 74.2388 48.3304 78.0378 45.9873 80.3809C43.6441 82.724 39.8451 82.724 37.502 80.3809C35.1588 78.0378 35.1588 74.2388 37.502 71.8956Z" fill="white"/>
<path fill-rule="evenodd" clip-rule="evenodd" d="M112.476 71.5545L121.922 62.108L121.215 61.4009L111.769 70.8474C109.019 68.46 104.85 68.5737 102.235 71.1885C99.5016 73.9222 99.5016 78.3543 102.235 81.088C104.969 83.8217 109.401 83.8217 112.135 81.088C114.75 78.4732 114.863 74.3044 112.476 71.5545ZM111.428 71.8956C109.085 69.5525 105.286 69.5525 102.942 71.8956C100.599 74.2388 100.599 78.0378 102.942 80.3809C105.286 82.724 109.085 82.724 111.428 80.3809C113.771 78.0378 113.771 74.2388 111.428 71.8956Z" fill="white"/>
<path d="M73.3184 68.7734L73.3184 85.2998" stroke="url(#paint0_linear)"/>
<path d="M46.6328 81.0254L58.3187 92.7113" stroke="url(#paint1_linear)"/>
<path d="M102.297 81.0254L90.6109 92.7113" stroke="url(#paint2_linear)"/>
<defs>
<linearGradient id="paint0_linear" x1="73.3184" y1="77.0366" x2="73.3184" y2="84.9857" gradientUnits="userSpaceOnUse">
<stop stop-color="white"/>
<stop offset="1" stop-color="white" stop-opacity="0"/>
</linearGradient>
<linearGradient id="paint1_linear" x1="52.4758" y1="86.8684" x2="58.0966" y2="92.4892" gradientUnits="userSpaceOnUse">
<stop stop-color="white"/>
<stop offset="1" stop-color="white" stop-opacity="0"/>
</linearGradient>
<linearGradient id="paint2_linear" x1="96.4539" y1="86.8684" x2="90.8331" y2="92.4892" gradientUnits="userSpaceOnUse">
<stop stop-color="white"/>
<stop offset="1" stop-color="white" stop-opacity="0"/>
</linearGradient>
</defs>
</svg>
