<svg width="150" height="150" viewBox="0 0 150 150" fill="none" xmlns="http://www.w3.org/2000/svg">
<path d="M141.314 72.463C137.658 74.4102 133.04 72.8828 131 69.0515L144.239 62.0001C146.279 65.8313 144.97 70.5158 141.314 72.463Z" fill="#F685A1"/>
<path d="M21.8213 52.4861C20.8149 54.2292 18.5852 54.8264 16.8408 53.8193C15.0965 52.8122 14.4988 50.5826 15.5051 48.8395C16.5115 47.0964 18.7413 46.4992 20.4856 47.5063C22.23 48.5134 22.8277 50.743 21.8213 52.4861Z" stroke="#414168"/>
<path d="M91.9 30.2144C91.3739 31.1256 90.2164 31.4363 89.3167 30.9169C88.417 30.3975 88.1074 29.2396 88.6334 28.3285C89.1595 27.4173 90.317 27.1066 91.2167 27.626C92.1164 28.1454 92.426 29.3033 91.9 30.2144Z" stroke="#414168"/>
<path d="M21.1217 81.7263C20.8165 82.2548 20.1464 82.4334 19.6271 82.1336C19.1079 81.8338 18.9275 81.1642 19.2326 80.6356C19.5378 80.1071 20.2079 79.9285 20.7271 80.2283C21.2464 80.5281 21.4268 81.1978 21.1217 81.7263Z" stroke="#414168"/>
<path d="M138.377 29.5666C139.138 30.0058 140.113 29.7416 140.555 28.9763C140.997 28.211 140.738 27.2346 139.977 26.7953C139.216 26.3561 138.241 26.6204 137.8 27.3856C137.358 28.1509 137.616 29.1274 138.377 29.5666Z" fill="#31C587"/>
<path d="M114.377 130.567C115.138 131.006 116.113 130.742 116.555 129.976C116.997 129.211 116.738 128.235 115.977 127.795C115.216 127.356 114.241 127.62 113.8 128.386C113.358 129.151 113.616 130.127 114.377 130.567Z" fill="#144BC1"/>
<path d="M22.7837 103.968L15.9844 102L13.9998 108.816L20.7991 110.784L22.7837 103.968Z" fill="#F5B82E"/>
<path d="M70.7837 10.968L63.9844 9L61.9998 15.8158L68.7991 17.7838L70.7837 10.968Z" fill="#144BC1"/>
<path d="M38.0964 126.57L36.3272 121.693L41.4197 122.619L38.0964 126.57Z" stroke="#414168"/>
<line x1="45.3791" y1="26.674" x2="49.6717" y2="31.6663" stroke="#414168"/>
<line x1="113.575" y1="32.3285" x2="117.646" y2="25.7373" stroke="#414168"/>
<line x1="123.805" y1="55.5593" x2="130.94" y2="52.5396" stroke="#414168"/>
<path d="M117 47H33V97H117V47Z" fill="#41CADD"/>
<path d="M40.6617 51.8573C40.6617 52.7001 39.9834 53.3743 39.1355 53.3743C38.2877 53.3743 37.6094 52.7001 37.6094 51.8573C37.6094 51.0146 38.2877 50.3403 39.1355 50.3403C39.9834 50.3403 40.6617 51.0146 40.6617 51.8573Z" fill="white"/>
<path d="M46.9058 51.8573C46.9058 52.7001 46.2275 53.3743 45.3797 53.3743C44.5318 53.3743 43.8535 52.7001 43.8535 51.8573C43.8535 51.0146 44.5318 50.3403 45.3797 50.3403C46.2121 50.3403 46.9058 51.0146 46.9058 51.8573Z" fill="white"/>
<path d="M53.148 51.8573C53.148 52.7001 52.4697 53.3743 51.6219 53.3743C50.774 53.3743 50.0957 52.7001 50.0957 51.8573C50.0957 51.0146 50.774 50.3403 51.6219 50.3403C52.4543 50.3403 53.148 51.0146 53.148 51.8573Z" fill="white"/>
<path d="M39.0445 67.6863C40.4627 67.625 41.881 67.5638 43.2992 67.5178C43.5459 67.5025 43.7617 67.3186 43.7617 67.0581C43.7617 66.8129 43.5459 66.5831 43.2992 66.5984C41.881 66.6597 40.4627 66.721 39.0445 66.7669C38.7979 66.7823 38.582 66.9661 38.582 67.2266C38.582 67.4565 38.7979 67.6863 39.0445 67.6863Z" fill="white"/>
<path d="M47.1832 67.6099C50.7904 67.4414 54.3977 67.3034 58.0204 67.1962C61.6277 67.0889 65.2503 67.0276 68.8576 66.997C70.8771 66.9817 72.9119 66.9663 74.9314 66.9817C75.5326 66.9817 75.5326 66.0623 74.9314 66.0623C71.3241 66.0469 67.7014 66.0776 64.0942 66.1389C60.4869 66.2002 56.8642 66.2921 53.2569 66.43C51.2375 66.5066 49.218 66.5986 47.1832 66.6905C46.9365 66.7058 46.7207 66.8897 46.7207 67.1502C46.7207 67.3954 46.9365 67.6252 47.1832 67.6099Z" fill="white"/>
<path d="M78.6775 67.1501C81.1748 67.1501 83.6721 67.1501 86.1695 67.1501C86.7707 67.1501 86.7707 66.2307 86.1695 66.2307C83.6721 66.2307 81.1748 66.2307 78.6775 66.2307C78.0763 66.2307 78.0763 67.1501 78.6775 67.1501Z" fill="white"/>
<path d="M89.2538 67.4259C92.7069 67.3953 96.16 67.2727 99.6131 67.0888C100.6 67.0275 101.571 66.9816 102.558 66.9049C102.804 66.8896 103.02 66.7057 103.02 66.4452C103.02 66.2154 102.804 65.9702 102.558 65.9855C99.1044 66.2154 95.6667 66.384 92.2136 66.4606C91.227 66.4759 90.2558 66.5065 89.2692 66.5065C88.668 66.5065 88.6526 67.4259 89.2538 67.4259Z" fill="white"/>
<path d="M44.2086 70.7358C45.966 70.8125 47.7388 70.7818 49.4961 70.6286C49.7428 70.6133 49.9586 70.4294 49.9586 70.1689C49.9586 69.939 49.7428 69.6939 49.4961 69.7092C47.7388 69.8624 45.966 69.8931 44.2086 69.8164C43.9619 69.8011 43.7461 70.031 43.7461 70.2761C43.7461 70.5366 43.9619 70.7205 44.2086 70.7358Z" fill="white"/>
<path d="M52.9958 70.7817C57.4201 70.7511 61.8444 70.7204 66.2687 70.6898C67.5174 70.6745 68.7815 70.6745 70.0301 70.6591C70.6313 70.6591 70.6313 69.7397 70.0301 69.7397C65.6058 69.7704 61.1815 69.801 56.7573 69.8317C55.5086 69.847 54.2445 69.847 52.9958 69.8623C52.3946 69.8623 52.3946 70.7817 52.9958 70.7817Z" fill="white"/>
<path d="M72.7419 70.8583C76.0717 70.9196 79.3861 70.9196 82.7159 70.8583C83.6562 70.8429 84.5812 70.8123 85.5215 70.7816C86.1227 70.7663 86.1227 69.8469 85.5215 69.8622C82.2071 69.9695 78.8774 70.0155 75.5476 69.9848C74.6072 69.9695 73.6669 69.9695 72.7419 69.9389C72.1407 69.9235 72.1407 70.8429 72.7419 70.8583Z" fill="white"/>
<path d="M88.6054 70.7358C93.4459 70.889 98.2864 70.889 103.127 70.7511C104.484 70.7051 105.84 70.6592 107.197 70.5979C107.443 70.5825 107.659 70.3987 107.659 70.1382C107.659 69.893 107.443 69.6631 107.197 69.6785C102.356 69.893 97.5156 69.9696 92.6751 69.893C91.3185 69.8777 89.9619 69.847 88.6054 69.801C88.0196 69.801 88.0196 70.7204 88.6054 70.7358Z" fill="white"/>
<path d="M105.255 73.2488C102.141 73.3407 99.0269 73.4174 95.913 73.5093C95.0343 73.5399 94.1401 73.5553 93.2615 73.5859C92.6602 73.6012 92.6602 74.5207 93.2615 74.5053C96.3754 74.4134 99.4894 74.3368 102.603 74.2448C103.482 74.2142 104.376 74.1989 105.255 74.1682C105.856 74.1376 105.856 73.2181 105.255 73.2488Z" fill="white"/>
<path d="M89.1299 73.4326C85.7385 73.4785 82.3625 73.5245 78.971 73.5705C75.5796 73.6164 72.1727 73.6624 68.7812 73.7084C66.8697 73.739 64.9582 73.7544 63.0466 73.785C62.4454 73.8003 62.4454 74.7197 63.0466 74.7044C66.4381 74.6584 69.8141 74.6125 73.2055 74.5665C76.597 74.5205 80.0039 74.4745 83.3953 74.4286C85.3068 74.3979 87.2184 74.3826 89.1299 74.352C89.7157 74.3366 89.7311 73.4172 89.1299 73.4326Z" fill="white"/>
<path d="M59.5784 73.5554C56.9115 73.4788 54.2446 73.5094 51.5777 73.678C51.3311 73.6933 51.1152 73.8772 51.1152 74.1377C51.1152 74.3675 51.3311 74.6127 51.5777 74.5974C54.2446 74.4441 56.9115 74.3982 59.5784 74.4748C60.1642 74.5054 60.1642 73.586 59.5784 73.5554Z" fill="white"/>
<path d="M48.3409 73.3254C47.1848 73.448 46.0132 73.4633 44.857 73.402C44.6104 73.3867 44.3945 73.6165 44.3945 73.8617C44.3945 74.1222 44.6104 74.3061 44.857 74.3214C46.0132 74.3827 47.1848 74.3674 48.3409 74.2448C48.5876 74.2141 48.8034 74.0456 48.8034 73.7851C48.8034 73.5552 48.603 73.3101 48.3409 73.3254Z" fill="white"/>
<path d="M43.8231 76.3748C42.6977 76.3748 41.5878 76.3748 40.4625 76.3748C40.2158 76.3748 40 76.5893 40 76.8345C40 77.0796 40.2158 77.2942 40.4625 77.2942C41.5878 77.2942 42.6977 77.2942 43.8231 77.2942C44.0697 77.2942 44.2856 77.0796 44.2856 76.8345C44.2856 76.574 44.0697 76.3748 43.8231 76.3748Z" fill="white"/>
<path d="M46.9216 77.2943C50.0047 77.3249 53.1033 77.2943 56.1864 77.2176C57.0497 77.2023 57.9284 77.1717 58.7917 77.141C59.3929 77.1257 59.3929 76.2063 58.7917 76.2216C55.7085 76.3289 52.61 76.3902 49.5269 76.3902C48.6636 76.3902 47.7849 76.3902 46.9216 76.3749C46.3204 76.3595 46.3204 77.2789 46.9216 77.2943Z" fill="white"/>
<path d="M61.5058 77.4781C64.0648 77.4475 66.6238 77.4015 69.1828 77.3709C71.7572 77.3402 74.3316 77.2942 76.906 77.2636C78.3551 77.2483 79.8042 77.2176 81.2532 77.2023C81.8544 77.187 81.8544 76.2676 81.2532 76.2829C78.6942 76.3136 76.1352 76.3595 73.5762 76.3902C71.0018 76.4208 68.4274 76.4668 65.853 76.4974C64.4039 76.5128 62.9548 76.5434 61.5058 76.5587C60.92 76.574 60.92 77.4934 61.5058 77.4781Z" fill="white"/>
<path d="M85.121 77.4167C87.6646 77.4167 90.1927 77.4167 92.7363 77.4167C93.3375 77.4167 93.3375 76.4973 92.7363 76.4973C90.1927 76.4973 87.6646 76.4973 85.121 76.4973C84.5352 76.4973 84.5352 77.4167 85.121 77.4167Z" fill="white"/>
<path d="M40.2002 80.1903C41.2331 80.0371 42.2659 79.9758 43.3142 79.9758C43.5608 79.9758 43.7766 79.7613 43.7766 79.5161C43.7766 79.2709 43.5608 79.0564 43.3142 79.0564C42.1888 79.0564 41.0789 79.133 39.9535 79.3016C39.7069 79.3322 39.5682 79.654 39.6298 79.8685C39.7069 80.129 39.9536 80.221 40.2002 80.1903Z" fill="white"/>
<path d="M47.0599 80.1749C51.6384 80.3588 56.2168 80.3741 60.7799 80.2056C62.0594 80.1596 63.3389 80.0983 64.6029 80.0217C64.8496 80.0064 65.0654 79.8225 65.0654 79.562C65.0654 79.3168 64.8496 79.087 64.6029 79.1023C60.0399 79.3628 55.4615 79.4547 50.883 79.3628C49.6035 79.3321 48.324 79.3015 47.0445 79.2402C46.7979 79.2249 46.582 79.4547 46.582 79.6999C46.5974 79.9757 46.7979 80.1596 47.0599 80.1749Z" fill="white"/>
<path d="M67.1931 80.0525C69.7983 80.1444 72.4036 80.2057 75.0088 80.2364C77.5987 80.267 80.1885 80.2517 82.7783 80.221C84.2582 80.2057 85.7227 80.1597 87.2026 80.1138C87.8038 80.0984 87.8038 79.179 87.2026 79.1944C84.5974 79.271 81.9921 79.317 79.3869 79.3323C76.7971 79.3476 74.2072 79.317 71.6174 79.271C70.1375 79.2403 68.673 79.1944 67.1931 79.1484C66.5919 79.1024 66.5919 80.0218 67.1931 80.0525Z" fill="white"/>
<path d="M89.3768 80.3281C93.6778 80.3588 97.9788 80.3281 102.28 80.2822C103.482 80.2668 104.685 80.2515 105.887 80.2209C106.488 80.2055 106.488 79.2861 105.887 79.3015C101.586 79.3781 97.2851 79.424 92.9841 79.424C91.7817 79.424 90.5793 79.424 89.3768 79.4087C88.7911 79.3934 88.7911 80.3128 89.3768 80.3281Z" fill="white"/>
<path d="M39.6933 83.1936C40.9419 83.1936 42.1906 83.1936 43.4393 83.1936C44.0405 83.1936 44.0405 82.2742 43.4393 82.2742C42.1906 82.2742 40.9419 82.2742 39.6933 82.2742C39.1075 82.2742 39.1075 83.1936 39.6933 83.1936Z" fill="white"/>
<path d="M47.447 83.5461C50.7922 83.5614 54.1374 83.5768 57.4826 83.6074C60.8124 83.6227 64.1422 83.638 67.472 83.6687C69.3527 83.684 71.2334 83.684 73.1295 83.6993C73.7307 83.6993 73.7307 82.7799 73.1295 82.7799C69.7843 82.7646 66.4391 82.7493 63.0939 82.7186C59.7641 82.7033 56.4343 82.688 53.1046 82.6574C51.2238 82.642 49.3431 82.642 47.447 82.6267C46.8458 82.6267 46.8458 83.5461 47.447 83.5461Z" fill="white"/>
<path d="M76.613 83.5461C81.6694 83.5767 86.7257 83.6074 91.782 83.638C93.2157 83.6533 94.6648 83.6533 96.0984 83.6687C96.6996 83.6687 96.6996 82.7492 96.0984 82.7492C91.0421 82.7186 85.9857 82.6879 80.9294 82.6573C79.4957 82.642 78.0467 82.642 76.613 82.6267C76.0118 82.6113 76.0118 83.5307 76.613 83.5461Z" fill="white"/>
<path d="M98.8103 83.5766C102.032 83.5766 105.269 83.5766 108.491 83.5766C109.093 83.5766 109.093 82.6572 108.491 82.6572C105.269 82.6572 102.032 82.6572 98.8103 82.6572C98.2091 82.6572 98.2091 83.5766 98.8103 83.5766Z" fill="white"/>
<path d="M43.9625 86.9018C46.2286 87.1317 48.5255 87.2083 50.807 87.1623C51.4082 87.147 51.4082 86.2276 50.807 86.2429C48.5255 86.3042 46.244 86.2123 43.9625 85.9824C43.7158 85.9518 43.5 86.2123 43.5 86.4421C43.5 86.718 43.7004 86.8865 43.9625 86.9018Z" fill="white"/>
<path d="M109.524 86.5648C107.597 86.8253 105.639 86.8253 103.712 86.5954C103.466 86.5648 103.25 86.8253 103.25 87.0551C103.25 87.3309 103.466 87.4842 103.712 87.5148C105.732 87.76 107.767 87.714 109.771 87.4382C110.017 87.4075 110.156 87.0858 110.095 86.8712C110.033 86.6261 109.786 86.5341 109.524 86.5648Z" fill="white"/>
<path d="M55.0645 61.0616L55.8824 122.366L100.162 121.864L99.5494 76.341L85.1652 60.7123L55.0645 61.0616Z" fill="#A787FF"/>
<path d="M83.856 90.8807C83.822 89.7335 83.7881 88.5695 83.7541 87.4224C83.7202 86.3427 83.7032 85.28 83.6183 84.2003C83.4485 82.2097 82.9562 80.2359 81.6998 78.6502C80.5793 77.2331 78.8816 76.3897 77.048 76.4571C75.2484 76.5246 73.4997 77.3512 72.3452 78.7514C71.0549 80.3372 70.4776 82.429 70.6984 84.4533C70.7323 84.7233 70.9191 84.9594 71.2077 84.9594C71.4623 84.9594 71.751 84.7233 71.717 84.4533C71.5472 82.8339 71.8698 81.1975 72.8036 79.8311C73.6694 78.549 75.0786 77.6886 76.5726 77.5031C77.3536 77.4018 78.1006 77.4862 78.8476 77.7392C79.5607 77.9923 80.2058 78.4815 80.7151 79.0719C81.8696 80.3709 82.362 82.1253 82.5487 83.8123C82.6676 84.9594 82.6845 86.1066 82.7185 87.2537C82.7525 88.4683 82.7864 89.6661 82.8204 90.8807C82.8543 91.5217 83.873 91.5217 83.856 90.8807Z" fill="white"/>
<path d="M77.3877 94.7436C75.9107 93.5964 73.9073 94.9292 73.1603 96.3125C72.3454 97.8307 72.617 99.6189 73.7206 100.901C74.8581 102.217 76.7596 102.655 78.3894 102.082C79.2383 101.795 79.9853 101.272 80.4946 100.53C81.0379 99.7201 81.1058 98.7417 80.9021 97.8139C80.6814 96.8523 80.206 95.8401 79.5439 95.1147C78.8648 94.3725 77.7443 93.9001 76.7596 94.2712C76.5049 94.3725 76.3181 94.6086 76.403 94.8954C76.4709 95.1485 76.7765 95.3509 77.0312 95.2497C78.4234 94.7436 79.3911 96.4305 79.7646 97.5271C80.0023 98.2019 80.1381 98.961 79.8495 99.6358C79.5948 100.243 79.0685 100.682 78.5082 100.968C77.3707 101.542 75.8937 101.441 74.909 100.631C74.4336 100.243 74.0601 99.7201 73.8734 99.1466C73.6696 98.5561 73.6526 97.9657 73.8394 97.3752C74.0262 96.7679 74.4166 96.1775 74.926 95.8064C75.3844 95.469 76.2332 95.081 76.7086 95.4521C76.9293 95.6208 77.2179 95.6545 77.4217 95.4521C77.5745 95.2834 77.6084 94.9123 77.3877 94.7436Z" fill="white"/>
<path d="M87.0823 88.9743C81.5307 88.4514 75.945 88.2658 70.3594 88.4345C68.7975 88.4851 67.2185 88.5526 65.6566 88.6707C65.4019 88.6875 65.1133 88.89 65.1473 89.1768C65.4698 92.0615 65.6905 94.9462 65.8433 97.8478C65.9792 100.732 66.0301 103.617 65.9961 106.502C65.9792 107.227 65.9792 107.953 65.9452 108.678C65.9282 109.269 65.8773 109.859 66.0131 110.433C66.132 110.972 66.4715 111.462 67.0148 111.63C67.3713 111.748 67.7618 111.681 68.1183 111.613C68.4749 111.546 68.8314 111.478 69.171 111.428C71.9723 110.955 74.8075 110.652 77.6428 110.5C80.512 110.348 83.3812 110.365 86.2504 110.534C86.607 110.551 86.9635 110.584 87.32 110.601C87.5747 110.618 87.8463 110.348 87.8294 110.095C87.5747 107.109 87.4728 104.123 87.4898 101.137C87.5068 99.636 87.5407 98.1346 87.6256 96.6332C87.7105 95.1992 87.8463 93.7653 87.9482 92.3314C88.0331 91.1168 87.8973 89.7166 86.7767 88.9912C86.5391 88.8394 86.2165 88.9406 86.0807 89.1768C85.9448 89.4298 86.0297 89.7166 86.2674 89.8684C86.4202 89.9696 86.556 90.1046 86.6409 90.2564C86.7598 90.4589 86.8107 90.5938 86.8616 90.8469C86.9635 91.2855 86.9635 91.8084 86.9295 92.3145C86.8447 93.6978 86.6919 95.0811 86.624 96.4813C86.4712 99.3829 86.4372 102.301 86.5221 105.203C86.573 106.839 86.6749 108.476 86.8107 110.112C86.9805 109.943 87.1503 109.775 87.32 109.606C84.5187 109.403 81.7174 109.336 78.9161 109.437C76.0978 109.538 73.2795 109.808 70.4952 110.213C69.7991 110.314 69.1031 110.433 68.407 110.551C68.1014 110.601 67.7788 110.702 67.4732 110.702C67.4053 110.702 67.3713 110.702 67.3034 110.686C67.2185 110.669 67.3034 110.702 67.2355 110.652C67.1676 110.601 67.2525 110.669 67.1846 110.618C67.1846 110.618 67.1336 110.567 67.1676 110.601C67.2016 110.635 67.1336 110.567 67.1336 110.551C67.0318 110.399 66.9808 110.196 66.9639 110.011C66.9469 109.825 66.9469 109.555 66.9469 109.336C66.9639 108.627 66.9808 107.919 66.9978 107.21C67.0488 104.376 67.0148 101.559 66.896 98.725C66.7771 95.8909 66.5734 93.0737 66.2848 90.2564C66.2508 89.9022 66.2169 89.5648 66.1659 89.2105C65.9961 89.3792 65.8264 89.5479 65.6566 89.7166C71.2253 89.3455 76.8109 89.3286 82.3795 89.666C83.9415 89.7672 85.5204 89.8853 87.0823 90.0371C87.354 90.0709 87.5917 89.7841 87.5917 89.531C87.5917 89.1768 87.354 89.0081 87.0823 88.9743Z" fill="white"/>
<path d="M76.5066 101.964C76.8292 103.415 77.033 104.866 77.1178 106.35C77.1348 106.62 77.3385 106.857 77.6272 106.857C77.8988 106.857 78.1535 106.62 78.1365 106.35C78.0516 104.782 77.8309 103.23 77.4913 101.694C77.4234 101.425 77.1178 101.273 76.8632 101.34C76.5915 101.425 76.4557 101.711 76.5066 101.964Z" fill="white"/>
<path d="M99.5478 76.3414L85.1636 60.7127L85.3764 76.5244L99.5478 76.3414Z" fill="#414168"/>
<path d="M122.831 85.4054C123.693 92.6018 123.96 99.8898 123.671 107.141" stroke="#414168" stroke-miterlimit="10" stroke-linecap="round" stroke-linejoin="round"/>
<path d="M130.034 104.872C128.322 108.969 125.741 112.677 122.533 115.678C122.352 115.841 122.147 116.005 121.929 115.995C121.639 115.966 121.448 115.654 121.31 115.388C119.661 112.1 118.012 108.812 116.362 105.498" stroke="#414168" stroke-miterlimit="10" stroke-linecap="round" stroke-linejoin="round"/>
</svg>
