<svg width="110" height="110" viewBox="0 0 110 110" fill="none" xmlns="http://www.w3.org/2000/svg">
<path d="M67.5303 94.8759C69.7531 95.5477 72.1046 95.7015 74.4094 95.3574C76.5786 95.0305 78.7045 94.1937 80.5206 92.9594C82.2469 91.7667 83.7026 90.2246 84.7358 88.4105C85.8197 86.5066 86.4224 84.3543 86.4781 82.193C86.5323 79.9417 85.9776 77.7171 84.9548 75.7207C84.809 75.4411 84.66 75.1734 84.5077 74.9178C84.3553 74.6621 83.9914 74.5582 83.7243 74.7216C83.4694 74.8881 83.3531 75.2172 83.5143 75.488C83.8223 75.9873 84.0869 76.5015 84.3206 77.0334C84.3295 77.0484 84.3588 77.1325 84.3295 77.0484C84.3352 77.0755 84.3564 77.0936 84.3621 77.1206C84.3824 77.1896 84.4182 77.2498 84.4386 77.3189C84.4947 77.4481 84.5386 77.5742 84.5915 77.7154C84.6794 77.9678 84.7672 78.2201 84.8395 78.4813C84.9908 78.9798 85.102 79.4811 85.1944 80.0033C85.2057 80.0573 85.2138 80.1233 85.2252 80.1774C85.2276 80.2164 85.2333 80.2434 85.2357 80.2824C85.2219 80.1893 85.2389 80.2704 85.2324 80.2943C85.2485 80.4263 85.2647 80.5583 85.2776 80.7023C85.2977 80.9633 85.3178 81.2242 85.3256 81.4821C85.3413 81.9978 85.3325 82.5075 85.2837 83.0199C85.2754 83.1458 85.2548 83.2686 85.2465 83.3944C85.2367 83.4304 85.2423 83.4574 85.2325 83.4933C85.2218 83.5802 85.2432 83.4064 85.2325 83.4933C85.2283 83.5562 85.2087 83.6281 85.2045 83.691C85.1601 83.9486 85.1157 84.2062 85.0591 84.4607C84.9425 84.9818 84.7892 85.4936 84.6147 85.9873C84.5697 86.104 84.5214 86.2327 84.4763 86.3493C84.4665 86.3853 84.4411 86.4301 84.4313 86.466C84.4215 86.5019 84.4027 86.5228 84.3928 86.5587C84.3895 86.5707 84.329 86.6963 84.3609 86.6275C84.3928 86.5587 84.3576 86.6395 84.3543 86.6515C84.3445 86.6874 84.3257 86.7083 84.3159 86.7442C84.2872 86.801 84.2586 86.8578 84.2422 86.9177C84.1849 87.0313 84.1399 87.148 84.0826 87.2616C83.8723 87.6952 83.6252 88.1195 83.357 88.5258C83.2212 88.7349 83.0887 88.9321 82.9407 89.1381C82.8745 89.2367 82.796 89.3322 82.733 89.4188C82.7142 89.4397 82.7077 89.4637 82.6922 89.4726C82.7551 89.386 82.711 89.4517 82.6922 89.4726C82.6513 89.5263 82.5982 89.577 82.554 89.6427C81.9294 90.3948 81.2078 91.0714 80.4381 91.6848C80.4226 91.6937 80.3539 91.7533 80.4381 91.6848C80.4071 91.7026 80.3883 91.7235 80.3572 91.7413C80.3074 91.78 80.2608 91.8067 80.2265 91.8365C80.1268 91.9139 80.0149 91.9883 79.903 92.0626C79.6946 92.2024 79.4863 92.3421 79.269 92.4669C78.8312 92.7283 78.3721 92.9716 77.9074 93.1879C77.802 93.2383 77.6967 93.2887 77.5946 93.3271C77.5791 93.336 77.4027 93.407 77.4925 93.3655C77.4337 93.3892 77.3594 93.4218 77.3006 93.4454C77.0498 93.549 76.7902 93.6375 76.5305 93.726C76.0111 93.9031 75.4771 94.0381 74.9496 94.1491C74.6843 94.2106 74.4099 94.2571 74.1389 94.2915C74.1389 94.2915 74.0434 94.306 74.1111 94.2974C74.1789 94.2888 74.0711 94.3002 74.0556 94.3091C74.0001 94.3208 73.9323 94.3294 73.8678 94.326C73.7323 94.3433 73.5845 94.3575 73.449 94.3747C72.898 94.4287 72.3567 94.4467 71.8098 94.4377C71.5364 94.4332 71.2662 94.4167 70.9838 94.3972C70.8548 94.3905 70.7136 94.3807 70.588 94.362C70.5512 94.3528 70.5112 94.3556 70.4867 94.3495C70.4745 94.3464 70.3978 94.34 70.4623 94.3433C70.539 94.3498 70.4255 94.3341 70.41 94.343C70.3733 94.3339 70.3211 94.3336 70.2843 94.3244C69.7416 94.2524 69.1932 94.1535 68.6546 94.0186C68.3976 93.9542 68.1283 93.8868 67.8778 93.7985C67.5873 93.713 67.2426 93.9209 67.1794 94.1994C67.0574 94.5015 67.2276 94.7873 67.5303 94.8759Z" fill="#121242" stroke="#121242" stroke-width="0.5"/>
<path d="M88.7544 73.5811C86.3989 72.3815 84.0526 71.1984 81.6971 69.9988C81.273 69.7792 80.8184 70.0756 80.7859 70.5487C80.6603 71.9185 80.5077 73.0833 80.2656 74.4239C80.0307 75.738 79.7404 77.0523 79.3854 78.3504C79.2985 78.6682 79.4906 79.0279 79.8049 79.0926C80.1192 79.1572 80.4599 78.9738 80.5504 78.6426C81.2656 75.977 81.7478 73.2529 81.999 70.5134C81.7008 70.6933 81.386 70.8833 81.0878 71.0632C83.4434 72.2629 85.7896 73.446 88.1451 74.6456C88.4248 74.7865 88.8178 74.7152 88.9694 74.4136C89.1138 74.1384 89.0563 73.7418 88.7544 73.5811Z" fill="#121242" stroke="#121242" stroke-width="0.5"/>
<path d="M40.6207 14.5306C38 14.0182 35.2885 14.1372 32.6851 14.8413C30.2351 15.5076 27.8908 16.7735 25.9449 18.4715C24.0975 20.1088 22.5984 22.1259 21.6132 24.4119C20.5798 26.8108 20.1251 29.443 20.2981 32.0157C20.4827 34.695 21.3623 37.2645 22.7531 39.5031C22.9508 39.8163 23.1509 40.1149 23.3535 40.3988C23.5561 40.6828 23.9845 40.7595 24.2727 40.5312C24.5465 40.3009 24.6437 39.8953 24.4292 39.5946C24.0216 39.0413 23.662 38.465 23.336 37.8635C23.3241 37.8468 23.2813 37.7507 23.3241 37.8468C23.3146 37.8155 23.2883 37.7967 23.2789 37.7654C23.248 37.686 23.2004 37.6192 23.1695 37.5398C23.091 37.3936 23.0268 37.2495 22.9507 37.0887C22.8224 36.8004 22.6941 36.5122 22.5826 36.2113C22.3547 35.639 22.1723 35.0582 22.0092 34.4502C21.9902 34.3875 21.9737 34.3102 21.9548 34.2476C21.9478 34.2016 21.9383 34.1702 21.9313 34.1243C21.9572 34.2329 21.9288 34.1389 21.9337 34.1096C21.9007 33.955 21.8678 33.8004 21.8372 33.6311C21.7856 33.324 21.734 33.0168 21.6967 32.7117C21.6222 32.1015 21.5764 31.4954 21.5762 30.8809C21.5719 30.7304 21.582 30.582 21.5778 30.4315C21.5851 30.3876 21.5756 30.3563 21.583 30.3124C21.5857 30.2079 21.5802 30.4169 21.583 30.3124C21.5809 30.2371 21.5955 30.1493 21.5934 30.0741C21.616 29.7626 21.6387 29.4512 21.6757 29.1418C21.7522 28.5083 21.8717 27.8811 22.0175 27.2727C22.0564 27.1284 22.0976 26.9695 22.1364 26.8252C22.1438 26.7813 22.1679 26.7248 22.1753 26.6809C22.1826 26.637 22.2019 26.6098 22.2092 26.5659C22.2117 26.5513 22.2673 26.3945 22.2382 26.4802C22.2092 26.5659 22.2407 26.4656 22.2431 26.4509C22.2505 26.407 22.2697 26.3798 22.2771 26.3359C22.3037 26.2648 22.3303 26.1937 22.3425 26.1205C22.3957 25.9783 22.4345 25.834 22.4877 25.6918C22.6812 25.1502 22.9178 24.6148 23.1806 24.0981C23.3133 23.8325 23.4435 23.5815 23.5905 23.3179C23.6556 23.1924 23.7351 23.0689 23.7977 22.9581C23.817 22.9309 23.8219 22.9016 23.8387 22.889C23.776 22.9999 23.8194 22.9162 23.8387 22.889C23.8796 22.82 23.9349 22.753 23.9784 22.6694C24.6116 21.6965 25.3644 20.8008 26.1792 19.974C26.196 19.9614 26.2681 19.8819 26.1792 19.974C26.2128 19.9488 26.2321 19.9216 26.2657 19.8965C26.3185 19.8442 26.369 19.8065 26.405 19.7667C26.5108 19.6621 26.6309 19.5595 26.751 19.4569C26.9744 19.2642 27.1978 19.0716 27.4331 18.8957C27.9062 18.5292 28.4056 18.1815 28.9144 17.8651C29.0296 17.7918 29.1449 17.7185 29.2576 17.6598C29.2744 17.6472 29.4688 17.5403 29.3704 17.6011C29.4352 17.5655 29.5168 17.5173 29.5816 17.4816C29.8575 17.3265 30.1454 17.1882 30.4333 17.0498C31.0091 16.773 31.6062 16.5443 32.1985 16.3449C32.4958 16.2378 32.8051 16.1475 33.1119 16.0718C33.1119 16.0718 33.2198 16.0424 33.1431 16.0613C33.0664 16.0802 33.1886 16.0529 33.2054 16.0403C33.2677 16.0193 33.3445 16.0004 33.4187 15.9961C33.5721 15.9582 33.7399 15.9224 33.8933 15.8846C34.5189 15.7499 35.1371 15.6591 35.7648 15.5996C36.0786 15.5699 36.39 15.5548 36.7158 15.5418C36.8643 15.5332 37.0272 15.5267 37.1732 15.5327C37.2163 15.5389 37.2619 15.5305 37.2906 15.5346C37.3049 15.5367 37.3936 15.5345 37.3193 15.5388C37.2307 15.541 37.3624 15.545 37.3792 15.5324C37.4223 15.5386 37.4822 15.5323 37.5253 15.5385C38.1551 15.5542 38.7944 15.6014 39.4263 15.6924C39.728 15.7358 40.0439 15.7813 40.3407 15.8541C40.6829 15.9183 41.0551 15.6272 41.097 15.2886C41.2037 14.9143 40.9773 14.5969 40.6207 14.5306Z" fill="#121242" stroke="#121242" stroke-width="0.5"/>
<path d="M18.7467 41.5041C21.2694 42.4734 23.7808 43.427 26.3035 44.3963C26.7581 44.5745 27.1901 44.227 27.1741 43.7446C27.1597 42.3446 27.1941 41.1493 27.3014 39.7667C27.4041 38.4117 27.5631 37.0507 27.7897 35.6994C27.8452 35.3684 27.6123 35.0243 27.2856 34.9915C26.9589 34.9588 26.6311 35.18 26.5733 35.5247C26.122 38.2983 25.914 41.1067 25.9427 43.9068C26.2276 43.6935 26.5283 43.4684 26.8133 43.2551C24.2906 42.2858 21.7791 41.3322 19.2564 40.3629C18.9571 40.2493 18.5644 40.3624 18.4414 40.6837C18.3229 40.9773 18.4227 41.3729 18.7467 41.5041Z" fill="#121242" stroke="#121242" stroke-width="0.5"/>
<path d="M73.7621 33.7103L73.8075 33.7128L73.8528 33.7099C77.9302 33.4439 81.5771 36.2606 82.3724 40.2889C83.2462 44.7288 80.3736 49.0303 75.9925 49.8738L75.3812 49.9914L75.3843 50.6139L75.4013 54.0673C75.4013 54.0677 75.4013 54.0681 75.4013 54.0684C75.4163 58.5863 71.7976 62.2774 67.3036 62.2931L67.3026 62.2931L56.7055 62.3444L56.7039 62.3444C53.8398 62.3644 51.5183 64.7204 51.5366 67.5945V68.7892V69.3843L52.1162 69.5196C55.8145 70.3825 58.5971 73.7283 58.6127 77.7191L58.6127 77.7212C58.644 82.4071 54.8918 86.2195 50.2429 86.2352L50.2404 86.2352C45.5895 86.2666 41.7918 82.5001 41.7762 77.8163L41.7762 77.8158C41.7605 73.8686 44.419 70.5396 48.0388 69.5827L48.6001 69.4343L48.5971 68.8537L48.461 42.5857L48.458 42.004L47.8938 41.8622C45.0308 41.1426 42.7721 38.9044 42.0243 36.0224L42.0235 36.0194C40.8703 31.648 43.4729 27.1836 47.8192 26.0246C52.1574 24.8678 56.5984 27.4764 57.753 31.853C58.9062 36.2245 56.3037 40.6888 51.9573 41.8478L51.3977 41.9971L51.4006 42.5762L51.4856 59.9001L51.492 61.2008L52.6145 60.5436C53.8514 59.8195 55.2525 59.4151 56.6751 59.4151L56.6788 59.4151L67.2758 59.3638L67.2774 59.3637C70.1425 59.3437 72.4646 56.9862 72.4447 54.1109L72.4447 54.1087L72.4107 50.6542L72.4046 50.0377L71.7986 49.9243C67.7862 49.1738 64.9623 45.544 65.1805 41.4329C65.4305 36.9181 69.2812 33.46 73.7621 33.7103Z" fill="#A787FF" stroke="#121242" stroke-width="1.5"/>
</svg>
