<svg width="24" height="24" viewBox="0 0 24 24" fill="none" xmlns="http://www.w3.org/2000/svg">
<path d="M2 18.7345C2 13.2646 2 7.79465 2 2.32472C2.02188 2.23857 2.04786 2.1531 2.06564 2.06627C2.27555 1.07211 2.8622 0.419817 3.83585 0.121706C3.99584 0.0724766 4.16131 0.0403407 4.32472 0C9.79465 0 15.2646 0 20.7345 0C20.8097 0.021196 20.8842 0.0471781 20.9601 0.0622205C22.0035 0.265975 22.6633 0.886129 22.9587 1.90148C22.9991 2.04097 23.0257 2.18387 23.0585 2.3254C23.0585 9.5505 23.0585 16.7749 23.0585 24C22.982 23.9528 22.8951 23.9159 22.8302 23.8557C21.14 22.2797 19.4518 20.7016 17.763 19.1236C17.6939 19.0593 17.6242 18.995 17.4847 18.8644C17.7001 19.6391 17.8895 20.3194 18.083 21.0134C17.9859 21.025 17.9407 21.0353 17.8963 21.0353C13.4192 21.036 8.94271 21.0449 4.46557 21.0298C3.30731 21.0257 2.38084 20.2579 2.09983 19.1625C2.06427 19.0203 2.0335 18.8767 2 18.7345ZM15.1565 14.7394C15.3849 15.0225 15.5593 15.2782 15.776 15.4922C15.8895 15.6043 16.0782 15.7069 16.23 15.7028C17.4977 15.6686 18.5766 15.1907 19.4197 14.2362C19.5455 14.094 19.631 13.8553 19.6241 13.6653C19.5407 11.3713 18.9841 9.1929 17.9667 7.13347C17.9278 7.05416 17.8785 6.96732 17.8101 6.91673C16.8864 6.22478 15.8519 5.81659 14.6957 5.73932C14.5966 5.73249 14.4933 5.79744 14.3921 5.82889C14.7169 6.01692 15.0314 6.1147 15.3323 6.24187C15.6359 6.36973 15.9333 6.51469 16.2211 6.67468C16.4974 6.82784 16.7579 7.00971 17.0259 7.17928C13.9764 5.88428 10.955 5.83505 7.91778 7.19364C8.3629 6.8969 8.80938 6.60562 9.28595 6.37794C9.76456 6.14888 10.274 5.98274 10.7697 5.78924C10.7656 5.76052 10.7615 5.73249 10.7574 5.70377C10.6527 5.6983 10.5468 5.67779 10.4435 5.68873C9.36936 5.80223 8.38478 6.15914 7.51232 6.80254C7.3995 6.88596 7.30241 7.01108 7.23951 7.13757C6.21048 9.2182 5.66212 11.4198 5.59579 13.7398C5.59238 13.8629 5.64161 14.0133 5.71887 14.1083C6.57423 15.1544 7.67915 15.709 9.03365 15.7472C9.12663 15.75 9.25449 15.726 9.30919 15.6638C9.55261 15.3849 9.77619 15.0881 10.0107 14.7914C8.7116 14.1692 8.41759 13.9688 8.05248 13.4225C11.1334 15.0697 14.1556 15.1127 17.1743 13.443C16.6615 14.1076 15.9852 14.5001 15.1565 14.7394Z" fill="#121242"/>
<path d="M11.5786 11.4404C11.569 12.1939 10.966 12.7908 10.2275 12.7792C9.48705 12.7669 8.89083 12.1467 8.90655 11.4055C8.9216 10.6643 9.53218 10.0914 10.2918 10.1057C11.0562 10.1194 11.5882 10.6712 11.5786 11.4404Z" fill="#121242"/>
<path d="M15.9551 11.438C15.9523 12.1751 15.3917 12.7761 14.7189 12.7638C14.057 12.7508 13.5134 12.1573 13.5059 11.44C13.4991 10.7084 14.0529 10.1074 14.7346 10.1074C15.4238 10.1074 15.9578 10.69 15.9551 11.438Z" fill="#121242"/>
</svg>
