<svg width="32" height="32" viewBox="0 0 32 32" fill="none" xmlns="http://www.w3.org/2000/svg">
<path d="M22.1083 31.9937C22.1083 27.8559 22.1083 23.7547 22.1083 19.6169C22.2397 19.6096 22.3639 19.6023 22.4953 19.6023C23.5758 19.6023 24.6563 19.5877 25.7369 19.6096C26.1092 19.6169 26.2552 19.5367 26.2991 19.1353C26.4451 17.7488 26.6495 16.3695 26.832 14.983C26.8393 14.9246 26.832 14.8662 26.832 14.764C25.2623 14.764 23.6999 14.764 22.1156 14.764C22.1083 14.6254 22.0937 14.5159 22.0864 14.4137C22.0864 13.5161 22.0791 12.6185 22.0864 11.7209C22.0864 11.4217 22.1083 11.1152 22.1667 10.816C22.3346 9.96221 22.7727 9.50976 23.6269 9.42948C24.5322 9.34191 25.4448 9.3638 26.3502 9.34191C26.5546 9.33461 26.759 9.34191 26.9999 9.34191C26.9999 9.04271 26.9999 8.79459 26.9999 8.53918C26.9999 7.47372 26.9999 6.40098 26.9999 5.33553C26.9999 5.18228 27.0438 5.00713 26.7955 4.98524C25.1236 4.84659 23.4517 4.67874 21.7871 4.97065C19.166 5.43039 17.3481 7.39345 17.151 10.0498C17.0415 11.4874 17.0926 12.9323 17.0634 14.3773C17.0634 14.4867 17.0634 14.5889 17.0634 14.7421C15.6762 14.7421 14.3109 14.7421 12.9237 14.7421C12.9237 16.3695 12.9237 17.9604 12.9237 19.5877C14.2963 19.5877 15.6616 19.5877 17.0415 19.5877C17.0415 23.7328 17.0415 27.834 17.0415 31.9572C16.9466 31.9645 16.8589 31.9864 16.764 31.9864C13.1574 31.9864 9.55071 32.001 5.94405 31.9791C3.12589 31.9645 0.738482 30.0306 0.132504 27.3232C0.0448928 26.9364 0.00108722 26.5278 0.00108722 26.1337C-0.00621371 19.3688 -0.0281165 12.6112 0.00108722 5.84636C0.0156891 3.07327 1.97964 0.716142 4.67369 0.132333C5.15555 0.030167 5.65931 0.000976562 6.15578 0.000976562C12.7266 0.000976563 19.2829 0.000976563 25.8391 0.000976563C28.7595 0.000976563 31.1688 1.82538 31.8186 4.54009C31.9354 5.04362 31.9938 5.56905 31.9938 6.08718C32.0084 12.6915 32.0084 19.2958 32.0011 25.9002C32.0011 28.9068 29.9714 31.3734 27.0657 31.8915C26.5181 31.9864 25.9559 31.9791 25.3937 31.9937C24.4373 32.0083 23.4736 32.001 22.5172 32.001C22.3931 31.9937 22.2616 31.9937 22.1083 31.9937Z" fill="#121242"/>
</svg>
