<svg width="33" height="33" viewBox="0 0 33 33" fill="none" xmlns="http://www.w3.org/2000/svg">
<g clip-path="url(#clip0)">
<path d="M28.5444 32.9996C20.5074 32.9996 12.4769 32.9996 4.43996 32.9996C4.38831 32.9802 4.34313 32.9544 4.29148 32.9415C2.29676 32.6122 0.960497 31.4887 0.256859 29.6034C0.134206 29.2676 0.0761077 28.9061 -0.0078125 28.551C-0.0013571 20.5189 -0.0013571 12.4803 -0.0013571 4.44824C0.0180091 4.39659 0.0438307 4.35139 0.0567415 4.29974C0.463432 1.76227 2.47106 0.0060623 5.0274 0.0060623C12.6706 -0.00685103 20.3202 -0.000394366 27.9634 0.012519C28.525 0.012519 29.106 0.109369 29.6354 0.290155C31.7205 1.00684 32.9922 2.85345 32.9922 5.10037C32.9986 10.3496 32.9922 15.6054 32.9922 20.8546C32.9922 23.2178 32.9986 25.5809 32.9922 27.944C32.9857 30.178 31.6817 32.0117 29.6031 32.7349C29.261 32.8511 28.8995 32.9092 28.5444 32.9996ZM19.1583 26.2136C19.1583 26.0458 19.1583 25.9037 19.1583 25.7681C19.1712 22.9853 19.1583 20.2025 19.2035 17.4261C19.2228 16.3091 19.8554 15.515 20.8754 15.0695C22.1342 14.5206 23.4834 15.0113 24.0063 16.2316C24.2128 16.7094 24.3355 17.2647 24.342 17.7877C24.3807 20.4608 24.3678 23.1338 24.3742 25.8069C24.3742 25.936 24.3742 26.0587 24.3742 26.1943C26.0462 26.1943 27.6794 26.1943 29.332 26.1943C29.332 26.0393 29.332 25.9102 29.332 25.7875C29.332 23.2759 29.3384 20.7642 29.3255 18.2461C29.3255 17.594 29.3126 16.9354 29.2416 16.2833C29.1125 15.0824 28.7574 13.9524 28.0215 12.971C27.1178 11.7701 25.8783 11.1567 24.4 10.9953C22.302 10.7629 20.5655 11.3762 19.3326 13.1583C19.2938 13.2164 19.2809 13.2874 19.2616 13.3584C19.2228 13.3262 19.1841 13.3003 19.1389 13.268C19.1389 12.6159 19.1389 11.9703 19.1389 11.3117C17.4799 11.3117 15.8531 11.3117 14.2199 11.3117C14.2199 16.2898 14.2199 21.242 14.2199 26.2007C15.866 26.2136 17.4863 26.2136 19.1583 26.2136ZM11.4376 26.2136C11.4376 21.2356 11.4376 16.2833 11.4376 11.3181C9.78503 11.3181 8.15827 11.3181 6.52505 11.3181C6.52505 16.2898 6.52505 21.2485 6.52505 26.2136C8.16472 26.2136 9.78503 26.2136 11.4376 26.2136ZM8.99747 4.08022C8.66179 4.14478 8.3132 4.17061 7.99043 4.27391C7.07376 4.56446 6.4605 5.19076 6.27329 6.13989C6.08608 7.10839 6.32493 7.97358 7.10604 8.63216C7.80322 9.21972 8.62306 9.31011 9.50099 9.22617C11.0567 9.07121 12.1154 7.53453 11.6894 6.03658C11.3343 4.80982 10.3596 4.1125 8.99747 4.08022Z" fill="#121242"/>
</g>
<defs>
<clipPath id="clip0">
<rect width="33" height="33" fill="white"/>
</clipPath>
</defs>
</svg>
